<svg xmlns="http://www.w3.org/2000/svg" fill="none" viewBox="0 0 184 184">
    <g clip-path="url(#a)">
        <path fill="#BED830" d="M21.199 69.932s-8.525 27.593 7.989 53.629c16.513 26.033 47.628 38.22 72.579 48.753 24.955 10.537 49.569 2.836 60.063-18.015s-6.818-33.997-8.837-62.539c-2.016-28.542 1.746-36.401-15.407-59.43s-55.44-25.72-82.865-5.829C27.301 46.392 21.2 69.931 21.2 69.931" class="dynamic-color" opacity=".15"/>
        <path fill="#BED830" d="M148.889 27.824c-.942 6.25-6.778 10.554-13.028 9.61-6.249-.942-10.555-6.778-9.609-13.028.941-6.25 6.777-10.555 13.027-9.61s10.551 6.782 9.61 13.028" class="dynamic-color"/>
        <path fill="#fff" d="M139.279 14.796c-6.25-.938-12.086 3.36-13.027 9.613 0 0 7.902 1.556 10.296-1.358 2.397-2.914 2.731-8.251 2.731-8.251z" opacity=".1"/>
        <path fill="#BED830" d="M146.039 27.205c-.719 4.751-5.154 8.022-9.905 7.3-4.751-.72-8.021-5.154-7.299-9.905a8.7 8.7 0 0 1 9.901-7.299c4.751.719 8.022 5.154 7.303 9.9z" class="dynamic-color"/>
        <path fill="#000" d="M146.035 27.205c-.719 4.751-5.153 8.022-9.904 7.3-4.751-.72-8.021-5.154-7.299-9.905a8.7 8.7 0 0 1 9.901-7.299c4.751.719 8.021 5.154 7.302 9.9z" opacity=".24"/>
        <path fill="#000" d="m139.893 28.887.867 1.215a4.44 4.44 0 0 1-3.141.68 4.46 4.46 0 0 1-3.706-3.66l-1.728-.276.176-1.11 1.495.24c.004-.122.022-.222.039-.341.022-.133.044-.266.094-.395l-1.509-.241.176-1.11 1.761.283a4.47 4.47 0 0 1 4.625-2.26 4.44 4.44 0 0 1 2.771 1.628l-1.204.884a2.97 2.97 0 0 0-1.808-1.032 2.99 2.99 0 0 0-2.774 1.043l2.587.413-.176 1.11-2.972-.477a4 4 0 0 0-.093.395c-.018.118-.04.237-.04.341l2.986.478-.176 1.11-2.616-.42a2.99 2.99 0 0 0 2.332 1.92 3 3 0 0 0 2.038-.418z" opacity=".1"/>
        <path fill="#FEFDFF" d="m139.534 28.528.866 1.215a4.458 4.458 0 0 1-6.846-2.98l-1.728-.276.176-1.11 1.495.24c.003-.122.021-.223.039-.341.022-.133.043-.266.094-.396l-1.51-.24.176-1.111 1.761.284a4.47 4.47 0 0 1 4.625-2.26c1.14.183 2.103.79 2.771 1.627l-1.204.884a2.97 2.97 0 0 0-1.807-1.03 2.99 2.99 0 0 0-2.775 1.041l2.588.414-.176 1.11-2.972-.478c-.036.13-.072.262-.094.395-.018.119-.039.238-.039.342l2.986.478-.176 1.11-2.616-.42a2.99 2.99 0 0 0 2.332 1.919 3 3 0 0 0 2.038-.417z"/>
        <path fill="#fff" d="m96.729 16.665 3.515.453c3.187 5.387 10.138 7.173 15.525 3.985 5.387-3.187 7.173-10.138 3.985-15.525s-10.138-7.173-15.525-3.985a11.33 11.33 0 0 0-5.387 11.748l-2.11 3.324z"/>
        <path fill="#263238" d="M96.729 16.665s.054-.075.144-.223c.09-.147.233-.363.41-.643.362-.54.894-1.39 1.58-2.473h-.06s.032.011.046 0a.03.03 0 0 0 0-.036 11.3 11.3 0 0 1 1.129-7.158 13.5 13.5 0 0 1 1.006-1.567 11.23 11.23 0 0 1 7.126-4.32 11.4 11.4 0 0 1 4.773.244 11.23 11.23 0 0 1 8.183 12.09 11.54 11.54 0 0 1-1.747 4.859 11.05 11.05 0 0 1-3.478 3.392 11.3 11.3 0 0 1-8.32 1.438l-.46-.108a2.3 2.3 0 0 1-.438-.097l-.874-.302a17 17 0 0 1-1.57-.776 11.2 11.2 0 0 1-3.921-3.91h-.025l-2.606-.313-.675-.08-.237-.024.222.032.665.097 2.62.356a11.2 11.2 0 0 0 3.921 3.967c.51.295 1.042.554 1.581.788l.884.312c.147.054.306.097.46.13l.475.114c2.882.622 5.893.094 8.395-1.47a11.2 11.2 0 0 0 3.532-3.431 11.5 11.5 0 0 0 1.768-4.927 11.1 11.1 0 0 0-.708-5.427 5 5 0 0 0-.269-.632l-.298-.622-.345-.582a4.3 4.3 0 0 0-.374-.565c-.133-.183-.27-.363-.399-.539a7 7 0 0 0-.442-.506c-.151-.162-.291-.345-.453-.49l-.489-.448a11.3 11.3 0 0 0-4.517-2.43 11.4 11.4 0 0 0-9.013 1.37 11.2 11.2 0 0 0-2.994 2.767A13 13 0 0 0 99.92 6.11c-.273.518-.5 1.06-.686 1.614a11.26 11.26 0 0 0-.41 5.599h.065s-.033-.011-.047 0l-1.556 2.519-.395.643-.162.184z"/>
        <path fill="#263238" d="M106.867 9.294h1.538a1.31 1.31 0 0 1 1.305-1.315h.039a1.245 1.245 0 0 1 1.208.798c.161.41.122.873-.108 1.247-.421.6-1.179.855-1.876.64v3.478h1.524v-2.034a2.98 2.98 0 0 0 2.156-2.907 2.77 2.77 0 0 0-2.757-2.778h-.133a2.648 2.648 0 0 0-2.9 2.875zm2.106 5.56h1.549v1.448h-1.549z"/>
        <path fill="#455A64" d="m77.078 164.232-3.058 10.58s9.718 6.652 9.347 8.661l-20.714-5.186 4.082-16.671z"/>
        <path fill="#E0E0E0" d="M67.846 172.307a.87.87 0 0 0-.827.819c0 .446.36.813.805.827a.92.92 0 0 0 .87-.87.87.87 0 0 0-.93-.765"/>
        <path fill="#fff" d="m62.657 178.294.474-1.667 19.69 5.592s.82.632.54 1.257z" opacity=".6"/>
        <path fill="#263238" d="M74.387 174.812c0 .097-.54 0-1.125.223-.586.223-.95.539-1.039.488-.09-.05.22-.61.92-.837s1.28.014 1.236.122h.007zm1.947 1.419c0 .101-.481.166-.93.507-.45.342-.665.773-.762.74-.097-.032 0-.618.539-1.031s1.178-.313 1.157-.219h-.004zm.583 2.897c-.097 0-.108-.539.287-1.031.395-.493.927-.593.949-.496s-.345.319-.665.722-.467.834-.572.805m-2.123-6.825c-.065.079-.49-.172-1.082-.28s-1.082-.032-1.082-.133.485-.345 1.172-.223 1.085.565.988.636z"/>
        <path fill="#455A64" d="m69.812 166.715-.482 10.993s11.015 4.184 11.126 6.221l-21.354-.165.043-17.164 10.667.112z"/>
        <path fill="#E0E0E0" d="M62.74 176.745a.87.87 0 0 0-.612.992.837.837 0 0 0 .978.611.915.915 0 0 0 .64-1.053.865.865 0 0 0-1.082-.539"/>
        <path fill="#fff" d="m59.106 183.778.068-1.728 20.474.805s.945.42.834 1.081l-21.376-.154z" opacity=".6"/>
        <path fill="#263238" d="M69.679 177.615c0 .108-.54.151-1.039.482-.5.33-.794.765-.884.729s.065-.65.694-1.039 1.257-.276 1.229-.168zm2.231.945c0 .101-.43.277-.787.712-.355.435-.46.905-.564.902s-.165-.593.288-1.136 1.07-.575 1.07-.478zm1.262 2.692c-.097 0-.237-.5.032-1.082.27-.582.766-.794.805-.708s-.266.388-.481.859c-.216.471-.263.917-.36.927zm-3.662-6.153c-.043.09-.54-.054-1.114 0s-1.053.216-1.082.123c-.029-.094.395-.46 1.082-.489.686-.029 1.168.287 1.114.366"/>
        <path fill="#263238" d="M69.79 174.977c.065.881.065 1.768 0 2.652l-.086-.129c1.247.474 2.907 1.114 4.672 1.944 1.67.737 3.26 1.65 4.733 2.728.453.33.848.737 1.171 1.193.223.345.19.604.155.593a1.4 1.4 0 0 0-.27-.51 6 6 0 0 0-1.207-1.082 31 31 0 0 0-4.733-2.606c-1.747-.826-3.39-1.491-4.607-2.012l-.09-.043v-.09q.03-1.322.273-2.623l-.007-.008v-.007z"/>
        <path fill="#263238" d="M57.949 93.169v7.892l2.12 30.766s-1.323 14.932-2.156 23.356c-.708 7.313.449 20.057.449 20.057h12.345l4.416-42.493 2.767-26.482 4.773-12.058-24.707-1.03v-.008z"/>
        <path fill="#263238" d="m91.108 94.581-3.011 42.888-12.492 32.139-.575 1.934-7.375-1.779 5.484-76.051z"/>
        <path fill="#455A64" d="M79.375 100.529a1 1 0 0 1 0 .194v.575c0 .51-.043 1.247-.076 2.189-.06 1.901-.212 4.646-.428 8.042-.452 6.789-1.293 16.154-2.612 26.447a868 868 0 0 1-3.777 26.356c-.54 3.357-.96 6.077-1.269 7.975-.15.927-.27 1.657-.356 2.156-.04.237-.071.428-.097.564a1 1 0 0 1-.043.187 1 1 0 0 1 0-.194c.015-.187.036-.381.069-.564l.305-2.156c.28-1.901.683-4.625 1.172-7.982.995-6.742 2.393-16.053 3.687-26.367a601 601 0 0 0 2.699-26.447 650 650 0 0 0 .668-10.192c-.01-.19 0-.388.036-.575q0-.101.018-.208z"/>
        <path fill="#FFBE9D" d="M70.75 15.856v20.69c0 3.518 4.212 9.821 9.778 9.577h.453c4.809-.582 2.074-6.307 2.074-9.588V33.52s5.268-.486 5.65-5.7c.186-2.52.15-7.741.06-12.46a9.714 9.714 0 0 0-9.124-9.487l-.504-.032c-5.466-.044-8.52 4.578-8.391 10.019h.004z"/>
        <path fill="#3B1919" fill-opacity=".2" d="M83.055 33.527a12.55 12.55 0 0 1-6.642-2.422s1.427 3.92 6.652 3.777z"/>
        <path fill="#263238" d="M79.885 17.607c-.1.107-.708-.374-1.581-.385-.874-.01-1.524.42-1.621.313-.097-.108.061-.248.345-.45a2.17 2.17 0 0 1 1.29-.384c.457.007.898.158 1.258.442.27.216.356.41.309.46zm.119 2.429a.713.713 0 0 1-.726.672.67.67 0 0 1-.687-.654v-.025a.715.715 0 0 1 .723-.672.675.675 0 0 1 .686.665v.018h.004zm2.138 3.612a5 5 0 0 1 1.315-.155c.209 0 .4-.036.442-.172a1.03 1.03 0 0 0-.097-.619l-.539-1.613a22.4 22.4 0 0 1-1.082-4.162c.6 1.308 1.086 2.67 1.442 4.065l.485 1.62c.107.256.129.54.053.81a.55.55 0 0 1-.355.276c-.112.021-.23.032-.345.025a5.4 5.4 0 0 1-1.323-.072h.004zm-2.667-8.877c-.082.194-.783.054-1.62.108s-1.517.244-1.614.06c-.043-.085.086-.265.367-.441.37-.223.79-.341 1.221-.356.428-.029.856.05 1.247.234.292.136.435.309.4.399zm8.309.715c-.09.155-.773 0-1.614 0-.84 0-1.513.097-1.613-.065-.1-.161.09-.222.377-.344a3.08 3.08 0 0 1 2.433.068c.32.111.453.266.413.341z"/>
        <path fill="#FFBE9D" d="M70.94 19.748c-.086-.043-3.522-1.279-3.626 2.297s3.511 2.936 3.515 2.839l.111-5.132z"/>
        <path fill="#3B1919" fill-opacity=".2" d="M69.776 23.493a.7.7 0 0 1-.166.086.64.64 0 0 1-.46 0 1.55 1.55 0 0 1-.675-1.401c0-.306.068-.611.197-.884a.72.72 0 0 1 .486-.46.32.32 0 0 1 .363.183c.043.1 0 .172.035.176s.08-.057.054-.208a.43.43 0 0 0-.133-.234.48.48 0 0 0-.341-.097.89.89 0 0 0-.672.54 2.16 2.16 0 0 0-.244.984c-.054.65.287 1.268.862 1.57a.69.69 0 0 0 .575-.075c.108-.1.126-.18.112-.183h.007z"/>
        <path fill="#263238" d="M66.153 14.016a17.4 17.4 0 0 0 1.272-4.183 4.71 4.71 0 0 1 2.534-3.382 3.75 3.75 0 0 1 3.777.313 4.89 4.89 0 0 1 3.648-3.845 12.07 12.07 0 0 1 6.476.431 13.45 13.45 0 0 1 4.265 3.238q1.013 1.002 1.848 2.156l1.62 4.86-1.322 2.569c-.08.172-.162.345-.262.539l-1.154 5.398c-.097-1.47-.047-6.57-.14-8.033a8.2 8.2 0 0 1-5.862-2.62 9.5 9.5 0 0 0-2.526-2.497c-1.39-.672-3.037-.151-4.478.366l.058-.053a6.5 6.5 0 0 0-1.998 1.48 20.3 20.3 0 0 1-.784 8.636c-.13.417-.496 1.272-.902 1.441-.798.32-1.02-.496-1.513-.92a2.1 2.1 0 0 0-1.463-.345 34 34 0 0 1-1.02-3.687c-.482.15-.996.19-1.499.115.151-.367.299-.74.45-1.082-.187.14-.407.245-.64.299a.58.58 0 0 1-.611-.263.98.98 0 0 1 .215-.93z"/>
        <path fill="#455A64" d="M75.39 7.354a5 5 0 0 0-.54.485 3.7 3.7 0 0 0-.776 1.736q-.123.657-.115 1.326c0 .474.047.984.09 1.534.057.564.075 1.136.06 1.704q-.021.453-.107.902c-.04.32-.162.625-.356.88a.77.77 0 0 1-.733.255 1.16 1.16 0 0 1-.665-.363 2.7 2.7 0 0 1-.539-1.322h.108a4.3 4.3 0 0 1-.622 1.082 1.56 1.56 0 0 1-1.002.539.96.96 0 0 1-.54-.087.8.8 0 0 1-.366-.355.9.9 0 0 1-.115-.46c0-.148.061-.295.162-.407l.06.047c-.308.36-.69.65-1.113.852-.112.054-.23.097-.345.133a.4.4 0 0 1-.123.032.6.6 0 0 1 .115-.047 3.6 3.6 0 0 0 1.42-1.017l.054.047a.66.66 0 0 0 0 .773c.075.136.19.248.334.32a.9.9 0 0 0 .485.068c.37-.05.705-.244.931-.54a4.2 4.2 0 0 0 .597-1.08l.068-.166.036.176c.05.456.22.895.489 1.268.158.17.37.284.596.324a.66.66 0 0 0 .622-.216c.176-.24.291-.52.33-.819.058-.295.094-.586.108-.884q.025-.848-.053-1.696c-.036-.54-.08-1.082-.08-1.539q.002-.682.133-1.344a3.76 3.76 0 0 1 .83-1.753c.162-.158.353-.291.554-.392h.007zm16.171 4.884-.036.032-.13.097q-.102.08-.222.144-.15.095-.313.165a4.6 4.6 0 0 1-2.22.431 5.87 5.87 0 0 1-3.16-1.128 10.2 10.2 0 0 1-2.738-3.084c-.388-.629-.704-1.268-1.082-1.865a7 7 0 0 0-1.182-1.57 3.5 3.5 0 0 0-1.513-.895 2.54 2.54 0 0 0-1.517.068c-.402.14-.772.367-1.081.665a2.8 2.8 0 0 0-.583.773 4.6 4.6 0 0 0-.262.783v-.22a2.5 2.5 0 0 1 .19-.585c.144-.298.342-.564.576-.798a3 3 0 0 1 1.081-.693q.362-.135.744-.162.419-.027.827.075a3.7 3.7 0 0 1 1.567.913c.478.467.88 1.003 1.204 1.592.355.597.672 1.24 1.053 1.865a10.3 10.3 0 0 0 2.699 3.052 5.84 5.84 0 0 0 3.097 1.131 4.65 4.65 0 0 0 2.196-.388c.277-.115.54-.255.798-.402h.007z"/>
        <path fill="#263238" d="M87.842 17.844c-.101.107-.708-.374-1.582-.385-.873-.01-1.516.42-1.613.31-.097-.112.064-.245.345-.443a2.16 2.16 0 0 1 2.548.054c.266.216.348.413.302.464m-.787 2.192a.71.71 0 0 1-.723.672.67.67 0 0 1-.686-.654v-.025a.715.715 0 0 1 .722-.672.675.675 0 0 1 .687.665v.018zm2.461-11.852a2.25 2.25 0 0 0 1.858 1.038q.4-.084.776-.233c.256.154.19 1.027 0 1.268-.165.19-.348.374-.539.54.82.362 1.758.326 2.545-.098a4.48 4.48 0 0 1-2.663 3.587 1.55 1.55 0 0 1-1.441.025 1.83 1.83 0 0 1-.633-1.125 20 20 0 0 1-.636-4.787l.73-.219zM82.142 25.89c0 .043-.155.155-.482.209a1.94 1.94 0 0 1-2.059-1.215c-.115-.31-.097-.51-.054-.54.259.475.63.881 1.082 1.18a4.6 4.6 0 0 0 1.52.373v-.007z"/>
        <path fill="#FFBE9D" d="M96.007 54.744 97.2 65.993l16.65 4.32s.492 5.861 0 6.001c-.493.14-20.726.324-22.54-2.476s-.234.51-.45 0c-.215-.51-3.313-17.232-3.313-17.232l8.46-1.865z"/>
        <path fill="#FFBE9D" d="M108.822 75.721s4.596.54 5.671.575a25.4 25.4 0 0 0 4.118-.74s4.967.949 5.222.686.593-.539.288-.776c-.306-.237-4.097-1.456-4.097-1.456l2.594-.035c1.316.388 2.656.7 4.011.927.287-.1.676-.54.46-.927l-.216-.374a.81.81 0 0 0-.337-1.017l-.345-.144.097-.313a1.24 1.24 0 0 0-.54-1.24c-.729-.51-2.253-1.645-2.253-1.645l-4.797-.759-9.175 1.366"/>
        <path fill="#3B1919" fill-opacity=".2" d="M109.537 74.032c.169.169.352.33.539.482.554.363 1.208.55 1.876.539a7.2 7.2 0 0 0 2.839-.744c1.1-.579 2.3-.945 3.536-1.082q.476.027.946 0a.467.467 0 0 0 .434-.481c-.032-.194-.345-.263-.639-.324l-.841-.212-2.915-.73-1.958-.538a4 4 0 0 1-.712-.234q.376.016.74.115l1.977.428 2.929.675.848.194q.228.048.449.122a.59.59 0 0 1 .396.406.74.74 0 0 1-.655.816 9 9 0 0 1-.981 0 10.1 10.1 0 0 0-3.46 1.082 7.1 7.1 0 0 1-2.94.708c-.697 0-1.373-.23-1.934-.65a2.3 2.3 0 0 1-.395-.396.6.6 0 0 1-.079-.18zm8.629-3.037c0-.086 1.811.13 4.01-.133.277-.032.539-.075.798-.115h.065l.043.044a9.8 9.8 0 0 0 2.796 1.491 2.2 2.2 0 0 1-.92-.165 6.3 6.3 0 0 1-2.052-1.114l.108.032c-.263.043-.539.079-.805.115-.956.115-1.923.133-2.883.061a4 4 0 0 1-1.171-.212h.011zm4.388 1.545c.032-.075.963.324 2.156.583s2.217.291 2.221.374a6.7 6.7 0 0 1-4.399-.953h.022z"/>
        <path fill="#BED830" d="M92.51 95.149s-1.272-34.442-1.912-40.415S88.409 38 88.409 38l-5.398-1.998v.047c.058.672 0 3.35-2.044 3.744-5.535 1.082-10.455-5.092-10.455-5.092L59.642 40.1l1.218 31.255-3.238 22.076 34.888 1.71z" class="dynamic-color"/>
        <path fill="#FFBE9D" d="m85.675 69.99-21.588-2.34 2.285-14.329-7.812-3.191h-2.793S54.2 65.853 53.841 68.785c-.385 3.105 0 8.248 6.652 8.543 3.238.14 24.69-1.442 24.69-1.442l.495-5.9h-.004z"/>
        <path fill="#BED830" d="M64.245 40.797c4.629 2.699 2.968 18.94 2.968 18.94l-14.076-.432 1.825-12.88a9.56 9.56 0 0 1 2.969-5.074 6.1 6.1 0 0 1 3.015-1.593c1.2-.208 2.43.177 3.295 1.035h.004zm29.393 1.84a9.4 9.4 0 0 0-5.29-4.647l1.499 20.517 7.479-.539S95.5 46.996 93.635 42.641h.003z" class="dynamic-color"/>
        <path fill="#263238" d="M90.357 44.797c.076 0 .345 4.226.618 9.448.27 5.225.417 9.448.335 9.448-.083 0-.346-4.226-.619-9.448-.27-5.225-.41-9.444-.334-9.448"/>
        <path fill="#FFBE9D" d="M83.346 75.721s4.596.54 5.67.575a25.4 25.4 0 0 0 4.123-.74s4.966.949 5.222.686c.255-.262.593-.539.287-.776-.305-.237-4.09-1.456-4.09-1.456l2.591-.035c1.316.388 2.66.7 4.011.927.288-.1.676-.54.46-.927l-.216-.374a.81.81 0 0 0-.334-1.017l-.345-.144.097-.313a1.25 1.25 0 0 0-.539-1.24 135 135 0 0 1-2.253-1.645l-4.798-.759-9.175 1.366"/>
        <path fill="#3B1919" fill-opacity=".2" d="M84.04 69.863a.5.5 0 0 1 .161-.036l.474-.09 1.837-.301 6.695-1.039h.032l4.784.722h.025l1.66 1.215c.306.205.593.428.87.676.277.309.399.726.334 1.132-.029.097-.065.208-.097.312l-.075-.165.345.14c.212.1.37.284.434.507a1.15 1.15 0 0 1-.032.686V73.5c.086.162.173.277.266.482a.72.72 0 0 1-.101.621 1.04 1.04 0 0 1-.46.396.6.6 0 0 1-.19 0h-.14l-.27-.047c-.711-.14-1.412-.32-2.124-.503l-1.38-.374h.043l-2.594.033.043-.27c.93.31 1.85.618 2.742.93q.675.223 1.322.511c.069.032.13.083.173.144a.33.33 0 0 1 .057.255.76.76 0 0 1-.197.356c-.08.09-.162.172-.238.248a.36.36 0 0 1-.237.086h-.183a23 23 0 0 1-2.573-.33 69 69 0 0 1-2.343-.428h.047a24 24 0 0 1-4.043.719c-1.226-.054-2.257-.209-3.113-.299l-1.969-.248-.54-.075-.172-.036h.177l.539.043 1.98.194c.852.068 1.904.198 3.098.244a24.6 24.6 0 0 0 3.989-.758h.053c.74.14 1.528.277 2.344.41.837.144 1.685.251 2.533.309h.234l.233-.237a.56.56 0 0 0 .133-.234c0-.047 0-.086-.1-.133-.385-.176-.848-.33-1.28-.485-.89-.313-1.807-.618-2.742-.92l-.794-.262h.83l2.595-.036h.036l1.376.366c.712.184 1.413.367 2.103.5l.262.047a1 1 0 0 0 .194 0 .75.75 0 0 0 .331-.288.44.44 0 0 0 .068-.377c-.047-.115-.162-.291-.237-.432l-.033-.053v-.065a.86.86 0 0 0 .026-.503.57.57 0 0 0-.299-.345l-.345-.14-.115-.047.036-.115c.033-.108.069-.216.097-.313a1.07 1.07 0 0 0-.269-.895 9 9 0 0 0-.82-.64l-1.664-1.225h.054l-4.78-.758h.037l-6.656 1.038-1.847.245-.482.06a.6.6 0 0 1-.165 0z"/>
        <path fill="#3B1919" fill-opacity=".2" d="M93.962 71.624a3.2 3.2 0 0 0 1.146.266 12.2 12.2 0 0 1 2.753.413q.704.313 1.376.694c.381.19.773.363 1.172.507a4.2 4.2 0 0 0 1.132.309q-.528-.253-1.082-.453c-.33-.144-.719-.323-1.132-.539a12 12 0 0 0-1.39-.712 5.6 5.6 0 0 0-1.557-.301c-.481-.033-.905-.036-1.268-.062-.708-.021-1.14-.15-1.15-.118zm.503-1.322c.327.136.68.208 1.031.197a5.45 5.45 0 0 1 2.397.46c.874.432 1.66.849 2.246 1.125.306.166.626.306.953.41a5 5 0 0 0-.884-.54 44 44 0 0 0-2.218-1.181 3.8 3.8 0 0 0-1.355-.389c-.43-.043-.815-.025-1.132-.032-.643-.007-1.027-.083-1.038-.05"/>
        <path fill="#263238" d="M54.057 59.309a.8.8 0 0 1 .255 0h.722l2.652.035c2.243.047 5.337.13 8.762.238h.773l-.144.143c-.08-2.612-.155-5.002-.223-6.925-.162-1.437-.216-2.598-.277-3.414 0-.374-.046-.683-.064-.93a3 3 0 0 1 0-.331 1 1 0 0 1 .075.323c.032.212.076.54.115.927.1.809.187 1.988.374 3.393.079 1.919.172 4.32.28 6.914v.151h-.902a793 793 0 0 1-8.761-.32l-2.653-.122-.718-.054a1 1 0 0 1-.266-.032z"/>
        <path fill="#E0E0E0" d="M114.795 131.054h4.287v51.628h-4.287zm-5.369-9.027h1.865v3.5h-1.865z"/>
        <path fill="#E0E0E0" d="M111.147 123.076h2.138v1.448h-2.138z"/>
        <path fill="#E0E0E0" d="M112.851 80.691h8.172v50.367h-8.172z"/>
        <path fill="#263238" d="M121.026 131.054v-3.899c0-2.508 0-6.138-.036-10.648 0-9.024-.036-21.588-.064-35.82l.14.14h-8.212l.14-.14c-.032 21.552-.061 40.391-.068 50.367l-.068-.068 6.041.036h.025l-6.084.043h-.076v-.068c0-9.977-.036-28.808-.068-50.367v-.14h8.46v.14c0 14.26-.047 26.864-.065 35.916 0 4.503 0 8.097-.036 10.616v3.59c.004.101 0 .198-.014.302z"/>
        <path fill="#E0E0E0" d="M100.84 181.705h32.049v2.296H100.84z"/>
        <path fill="#455A64" d="M47.426 75.8h109.337v4.891H47.426z"/>
        <path fill="#263238" d="M156.763 80.691v-4.89l.036.035-109.333.1.14-.14v4.892l-.14-.14 77.452.057 23.335.036h.064l-23.302.043-77.553.061h-.198v-5.089h.144l109.333.101h.09v.036c0 1.678 0 2.904-.025 3.712v.892a.7.7 0 0 1-.047.287h.004z"/>
        <path fill="#E0E0E0" d="M136.027 47.431h-30.263a1.98 1.98 0 0 0-2.117 1.614l-4.029 24.67h-15.92a1.01 1.01 0 0 0 0 2.017h50.866l3.479-25.8a2.16 2.16 0 0 0-2.013-2.504z"/>
        <path fill="#263238" d="M136.023 47.431c.18.007.363.033.539.08.5.15.92.488 1.179.944.19.331.302.701.313 1.082 0 .22-.015.438-.054.654-.026.234-.065.46-.097.708l-.46 3.393c-.694 5.106-1.689 12.46-2.915 21.472l.054-.043H83.698a.9.9 0 0 1-.302-.057.9.9 0 0 1-.453-.41 1.01 1.01 0 0 1 .162-1.16.83.83 0 0 1 .539-.256h16.014v-.054c1.347-8.301 2.605-16.039 3.741-22.978.068-.432.14-.863.208-1.29.036-.216.069-.432.115-.64.047-.19.133-.377.248-.54.245-.334.593-.578.992-.693a2.5 2.5 0 0 1 .604-.108h.014q-.317.025-.629.115a2 2 0 0 0-1.081.733 2 2 0 0 0-.27.604c-.043.216-.068.428-.108.643l-.212 1.29c-1.139 6.94-2.4 14.681-3.777 22.972l.061-.054H83.637a.92.92 0 0 0-.633.291c-.338.352-.413.88-.183 1.312a1.01 1.01 0 0 0 .884.539h50.906v-.047c1.204-9.013 2.16-16.366 2.871-21.473q.254-1.914.449-3.4l.097-.707q.051-.33.047-.658a2.36 2.36 0 0 0-.323-1.081 2.03 2.03 0 0 0-1.201-.938 1.4 1.4 0 0 0-.388-.065l-.136-.187-.011.007z"/>
        <path fill="#fff" d="M117.663 62.23c0 1.161.938 2.099 2.098 2.099a2.097 2.097 0 0 0 2.099-2.099c0-1.16-.938-2.098-2.099-2.098-1.16 0-2.098.937-2.098 2.098"/>
        <path fill="#263238" d="M101.156 75.502c.047 0 1.118-6.217 2.387-13.904s2.264-13.922 2.21-13.93-1.114 6.218-2.386 13.905-2.257 13.929-2.211 13.929"/>
        <path fill="#BED830" d="M111.729 34.91a5.89 5.89 0 0 1-4.488 7.023 5.89 5.89 0 0 1-7.023-4.489 5.89 5.89 0 0 1 4.489-7.022 5.89 5.89 0 0 1 7.022 4.488" class="dynamic-color"/>
        <path fill="#fff" d="M104.707 30.422a5.893 5.893 0 0 0-4.489 7.022s4.087-.712 4.701-2.552a8.8 8.8 0 0 0-.212-4.47" opacity=".1"/>
        <path fill="#BED830" d="M110.245 35.14a4.48 4.48 0 0 1-3.41 5.337 4.48 4.48 0 0 1-5.337-3.41 4.477 4.477 0 1 1 8.747-1.926" class="dynamic-color"/>
        <path fill="#000" d="M110.245 35.14a4.48 4.48 0 0 1-3.41 5.337 4.48 4.48 0 0 1-5.337-3.41 4.477 4.477 0 1 1 8.747-1.926" opacity=".24"/>
        <path fill="#000" d="m107.643 36.625.622.294a2.058 2.058 0 0 1-3.429.338l-.758.277-.176-.489.658-.237a1 1 0 0 1-.061-.147.8.8 0 0 1-.051-.18l-.661.24-.176-.488.773-.28A2.06 2.06 0 0 1 105.742 34a2.07 2.07 0 0 1 1.484.033l-.287.625a1.38 1.38 0 0 0-.96-.01 1.38 1.38 0 0 0-.884 1.041l1.136-.413.176.489-1.305.474c.015.061.029.122.051.18.018.05.039.104.061.147l1.311-.478.177.489-1.15.417a1.377 1.377 0 0 0 2.102-.374z" opacity=".1"/>
        <path fill="#FEFDFF" d="m107.417 36.56.621.295a2.055 2.055 0 0 1-3.428.338l-.758.276-.176-.489.657-.237a1 1 0 0 1-.061-.147.8.8 0 0 1-.05-.18l-.661.241-.176-.489.772-.28a2.06 2.06 0 0 1 1.359-1.951 2.07 2.07 0 0 1 1.484.032l-.288.625a1.374 1.374 0 0 0-1.843 1.032l1.135-.414.176.49-1.304.474a1.5 1.5 0 0 0 .111.326l1.312-.477.176.488-1.15.417a1.38 1.38 0 0 0 1.373.252c.323-.119.571-.349.729-.626z"/>
    </g>
    <defs>
        <clipPath id="a">
            <path fill="#fff" d="M0 0h184v184H0z"/>
        </clipPath>
    </defs>
</svg>
