<svg xmlns="http://www.w3.org/2000/svg" fill="none" viewBox="0 0 184 184">
    <path fill="#BED830" d="M82.923 183.754s29.417 3.702 52.792-17.648c23.374-21.35 30.144-55.002 36.347-82.126s-5.971-50.654-28.918-57.549c-22.947-6.896-33.153 12.961-61.646 20.094-28.494 7.132-37.111 4.725-57.335 26.187S8.044 133.39 33.04 157.585s49.882 26.169 49.882 26.169" opacity=".15"/>
    <mask id="a" width="163" height="184" x="11" y="0" maskUnits="userSpaceOnUse" style="mask-type:alpha">
        <path fill="#BED830" d="M82.924 183.755s29.417 3.701 52.791-17.649c28.458 0 30.145-55.002 36.348-82.126s-5.971-50.653-28.919-57.55C120.197 19.537 128.304-3.063 90.043.35c-28.494 7.132-49.4 51.015-70.416 64.847-18.862 37.004-3.312 94.695 13.414 92.39 24.997 24.194 49.883 26.169 49.883 26.169"/>
    </mask>
    <g mask="url(#a)">
        <path fill="#263238" d="M119.874 45.259c-1.818 4.518-1.763 13.859 1.258 17.673 1.575 1.994 3.718 3.587 4.838 5.87 1.465 2.995.836 6.72-1.003 9.5s-4.734 4.725-7.782 6.091c-3.393 1.532-7.547 2.373-10.713.414-2.419-1.49-3.697-4.284-4.471-7.016-2.17-7.643-1.382-15.866.871-23.51 2.253-7.643 5.923-14.769 9.551-21.819"/>
        <path fill="#BED830" d="m129.95 108.606 16.201-9.871s-12.303-23.655-14.155-24.51-26.685-4.505-26.685-4.505c-7.554 11.852-17.01 8.926-26.54 1.02-.85.174-15.848 3.581-19.767 4.092S43.8 93.292 43.8 93.292l12.8 22.344.968 23.151s.691 16.466-2.011 24.965l67.925 2.201a87 87 0 0 1-1.562-10.7c-.255-2.876-1.036-5.746-.449-9.443 1.859-11.742 8.48-37.204 8.48-37.204"/>
        <path fill="#000" d="M59.896 82.117c-1.286 4.056-1.79 8.498-.512 12.555a49 49 0 0 0 2.371 5.408 39.7 39.7 0 0 1 3.456 19.633c-.052.232-.022.476.082.69.27.448.954.283 1.431.069l3.062-1.38c1.327 1.076 1.527 3.208 2.993 4.077s3.504-.103 4.97-1.166c3.213-2.352 6.26-5.084 8.127-8.602a33.5 33.5 0 0 0 2.605-7.74c.574-2.339 1.155-4.677 1.514-7.057a39.62 39.62 0 0 0-5.778-27.11" opacity=".3"/>
        <path fill="#263238" d="M124.801 85.731q.1.169.146.36c.096.282.221.627.366 1.055.311.966.739 2.29 1.265 3.897s1.147 3.629 1.838 5.795a45.5 45.5 0 0 1 1.742 7.257 22.4 22.4 0 0 1-.366 7.45 39.4 39.4 0 0 1-1.742 5.843 76 76 0 0 1-1.549 3.801 92 92 0 0 0-.455 1.014q-.071.185-.187.345.032-.194.117-.372l.394-1.042c.353-.904.864-2.207 1.445-3.829a43 43 0 0 0 1.651-5.822c.51-2.415.622-4.896.332-7.347a46.6 46.6 0 0 0-1.7-7.202c-.691-2.18-1.258-4.138-1.762-5.815-.505-1.676-.871-2.953-1.155-3.932l-.303-1.076a1.4 1.4 0 0 1-.077-.38"/>
        <path fill="#000" d="M130.78 106.151a16.25 16.25 0 0 0-.339-10.148 38.8 38.8 0 0 0-4.804-9.113c.954 6.526 3.947 12.666 4.542 19.24m-54.58 41.818a27.2 27.2 0 0 1 11.342-8.816 53.6 53.6 0 0 1 14.03-3.677c1.901-.276 3.967-.469 5.633.49s2.453 3.56 1.002 4.829a4.55 4.55 0 0 1-2.73.814c-6.649.483-13.671.503-19.422 3.884-2.273 1.331-4.291 3.166-6.8 3.973-1.14.366-2.827.159-2.945-1.028" opacity=".3"/>
        <path fill="#263238" d="M109.492 134.565a1.8 1.8 0 0 1-.401 0h-1.983l-.982.062c-.691.055-1.513.083-2.398.214l-1.382.173c-.484.069-.974.172-1.493.261-1.037.166-2.122.449-3.27.69a55 55 0 0 0-7.235 2.504 62 62 0 0 0-6.822 3.498c-1.009.614-1.97 1.193-2.827 1.794-.857.6-1.672 1.138-2.398 1.662a54 54 0 0 0-1.921 1.449c-.54.427-1.044.814-1.424 1.131l-.899.69a1.7 1.7 0 0 1-.331.228 2 2 0 0 1 .283-.283l.85-.773c.373-.338.836-.738 1.382-1.18s1.168-.972 1.894-1.496c.726-.525 1.5-1.132 2.378-1.711.877-.58 1.824-1.2 2.826-1.828a58 58 0 0 1 6.85-3.546 51 51 0 0 1 7.298-2.49c1.161-.263 2.253-.545 3.297-.69.525-.083 1.023-.187 1.507-.248l1.382-.146c.891-.117 1.7-.13 2.412-.165.359 0 .691-.034.995-.034h.837l1.154.041q.227.061.421.193"/>
        <path fill="#000" d="M53.434 97.824c-1.763 2.435-1.963 5.719-1.237 8.63.725 2.911 2.267 5.519 3.8 8.126a24.7 24.7 0 0 0-.594-7.712c-.725-3.022-2.024-5.96-2.018-9.071" opacity=".3"/>
        <path fill="#263238" d="M102.664 4.55c.041-2.2 2.557-3.759 4.734-3.386s3.877 2.131 4.893 4.084 1.507 4.139 2.274 6.208c2.074 5.52 6.145 10.272 7.603 16.012a24.2 24.2 0 0 1-.373 12.334 55 55 0 0 1-4.859 11.437 41.5 41.5 0 0 0-3.214 6.823 11.93 11.93 0 0 0-.228 7.423c.155.307.19.661.097.993-.214.47-.885.49-1.383.359-2.536-.649-4.291-3.139-4.727-5.719s.228-5.215 1.154-7.664c.926-2.45 2.115-4.829 2.8-7.32 1.492-5.518.456-11.368.193-17.087-.145-3.221-.041-6.477-.691-9.658s-2.149-6.305-4.838-8.105c-1.044-.69-2.246-1.2-3.124-2.07s-1.32-2.421-.525-3.4"/>
        <path fill="#FFBE9D" d="m104.938 68.534-.076-3.305c0 .035 9.904-1.883 11.653-14.873.87-6.456.297-17.004-.45-25.614-.691-7.753-6.054-17.163-13.788-16.162l-24.059 6.677c-2.343.304-3.117 2.311-3.013 4.677l-.173 1.11 2.005 37.039.69 6.208c.353 7.044 6.484 14.487 14.045 14.68 7.298.359 13.263-2.642 13.166-10.437"/>
        <path fill="#263238" d="M111.642 33.096a1.663 1.663 0 0 1-1.569 1.711 1.59 1.59 0 0 1-1.749-1.455 1.666 1.666 0 0 1 1.563-1.71 1.59 1.59 0 0 1 1.58.849c.098.188.158.394.175.605m2.163-2.456c-.2.221-1.479-.69-3.269-.634s-3.082.973-3.276.759c-.104-.097.097-.49.691-.925a4.6 4.6 0 0 1 2.62-.869 4.36 4.36 0 0 1 2.605.773c.56.407.761.8.629.897m-17.382 3.352c-.2.221-1.486-.69-3.276-.627s-3.075.965-3.276.752c-.096-.09.104-.49.691-.918a4.6 4.6 0 0 1 2.62-.876 4.4 4.4 0 0 1 2.612.78c.532.393.733.779.63.89m6.703 10.133c0-.104 1.099-.324 2.896-.593.456-.062.884-.159.954-.476a2.3 2.3 0 0 0-.339-1.345l-1.431-3.45c-1.99-4.904-3.455-8.968-3.248-9.016s1.977 3.829 3.967 8.734q.691 1.814 1.382 3.449c.302.541.402 1.172.284 1.78a1.17 1.17 0 0 1-.74.69 3.2 3.2 0 0 1-.774.123c-1.818.166-2.944.2-2.951.104"/>
        <path fill="#EB996E" d="M104.862 65.23a33.05 33.05 0 0 1-17.473-4.216s4.597 9.037 17.549 7.52z"/>
        <path fill="#263238" d="M96.354 29.46c-.2.477-1.97.139-4.084.256-2.115.117-3.843.593-4.092.138-.11-.214.207-.655.926-1.083a6.9 6.9 0 0 1 3.076-.862 6.76 6.76 0 0 1 3.151.565c.754.359 1.113.76 1.023.987m17.209-4.332c-.359.414-1.831 0-3.58.055-1.748.055-3.235.345-3.587-.07-.152-.206.069-.613.691-1.013a5.96 5.96 0 0 1 5.771 0c.65.414.864.828.705 1.028"/>
        <path fill="#EB996E" d="M101.793 47.873a2.97 2.97 0 0 0-2.232-1.118 3.53 3.53 0 0 0-2.564 1.228l-.049.042-.09.096a1.66 1.66 0 0 0-.442.966 2.48 2.48 0 0 0 1.065 2.07 3.15 3.15 0 0 0 3.614.138 2.554 2.554 0 0 0 .698-3.422"/>
        <path fill="#263238" d="M97.15 46.141c.103 0 .186.414.47 1a4.4 4.4 0 0 0 1.644 1.829 4.36 4.36 0 0 0 2.391.572c.65 0 1.058-.152 1.106-.055s-.325.372-1.043.538a3.95 3.95 0 0 1-2.807-.47 3.9 3.9 0 0 1-1.741-2.241c-.2-.71-.104-1.173-.02-1.173m8.085-37.347a4 4 0 0 0 .258 1.916 4 4 0 0 0 1.125 1.574 19.7 19.7 0 0 0 3.255 2.194c3.456 2.152 5.162 6.857 6.78 10.589 2.847-5.415-1.528-12.417-5.149-16.66a7.9 7.9 0 0 0-2.253-1.959 3.32 3.32 0 0 0-2.903-.172"/>
        <path fill="#455A64" d="M116.687 51.984q.057-.247.153-.483l.497-1.338c.394-1.18.975-2.883 1.493-5.043a48.2 48.2 0 0 0 .947-17.246 38.6 38.6 0 0 0-2.239-9.237 16.25 16.25 0 0 0-4.32-6.353 11.7 11.7 0 0 0-4.555-2.497c-1.195-.31-1.893-.31-1.893-.352q.252-.027.504 0 .721.054 1.424.22a11.35 11.35 0 0 1 4.686 2.436 16.4 16.4 0 0 1 4.465 6.422 37.8 37.8 0 0 1 2.287 9.32 46.8 46.8 0 0 1-1.057 17.315 48 48 0 0 1-1.611 5.036 55 55 0 0 1-.559 1.318q-.084.253-.222.482"/>
        <path fill="#263238" d="M117.855 61.297a.5.5 0 0 1-.062-.152l-.152-.462a9 9 0 0 1-.297-1.82 13.5 13.5 0 0 1 1.555-6.582c1.223-2.628 3.456-5.263 5.598-8.36a21.4 21.4 0 0 0 2.709-5.21c.652-2 .901-4.11.733-6.208a15.8 15.8 0 0 0-1.707-6.029 23.5 23.5 0 0 0-3.456-4.774c-2.529-2.759-5.073-5.118-6.739-7.484a15.75 15.75 0 0 1-2.875-6.126 8.2 8.2 0 0 1-.159-2.484q.052 1.24.298 2.456a16 16 0 0 0 2.944 6.009c1.673 2.318 4.209 4.608 6.78 7.409a23.6 23.6 0 0 1 3.504 4.828 16.2 16.2 0 0 1 1.749 6.16c.17 2.15-.087 4.311-.754 6.361a21.6 21.6 0 0 1-2.764 5.284c-2.177 3.112-4.41 5.712-5.647 8.279a13.5 13.5 0 0 0-1.638 6.456c.042.828.169 1.648.38 2.45M103.148 2.005C100.929.44 98.068.081 95.351.122 88.025.226 80.59 3.02 75.69 8.455c-4.147 4.58-10.236 13.397-11.39 19.44-2.814 14.728 6.51 18.854-1.086 41.846-1.382 4.139-3.096 8.195-3.94 12.472a22 22 0 0 0-.42 4.636c-.892 2.69-.346 5.795.753 8.471 1.292 3.146 3.262 5.974 4.499 9.141s3.96 8.36 2.142 11.237c2.564-.69 2.654-3.36 4.686-5.063.601 2.286.582 4.69-.055 6.967a14.6 14.6 0 0 0 8.612-3.587c4.741-4.139 6.22-10.865 6.96-17.129 1.59-13.693.034-26.828-3.601-40.128l-.049.062c-2.647-8.505-7.658-16.356-3.158-18.232 7.838-3.264.691-6.699 3.663-14.922.933-2.566 1.97-5.284 4.147-6.898 2.612-1.945 6.144-1.842 9.4-2.021 3.255-.18 6.945-1.035 8.473-3.905l.2-1.718c1.168-2.462-.159-5.546-2.377-7.119"/>
        <path fill="#455A64" d="M67.803 56.454q.325-.25.573-.579a3.5 3.5 0 0 0 .435-2.256c-.22-2.035-1.25-4.828-2.598-8.278a32.4 32.4 0 0 1-1.749-5.78 12.5 12.5 0 0 1 .637-7.238 12.5 12.5 0 0 1 4.56-5.663c2.212-1.586 5.219-1.828 7.064-3.98 1.846-2.153 2.765-4.732 3.566-7.23a33 33 0 0 1 1.383-3.67 18.9 18.9 0 0 1 7.022-7.947 11.8 11.8 0 0 1 2.861-1.38 8.4 8.4 0 0 1 2.903-.344c1.667.137 3.3.542 4.838 1.2 1.382.559 2.516 1.049 3.456 1.545a5.3 5.3 0 0 1 1.817 1.532c.164.226.288.478.367.745a7 7 0 0 0-.429-.69 5.4 5.4 0 0 0-1.824-1.449c-.913-.469-2.074-.945-3.456-1.483a15.5 15.5 0 0 0-4.776-1.11 8 8 0 0 0-2.813.351c-.975.326-1.904.776-2.764 1.339a18.64 18.64 0 0 0-6.864 7.83 33 33 0 0 0-1.382 3.635c-.815 2.49-1.665 5.229-3.635 7.36a9.16 9.16 0 0 1-3.525 2.297 17.6 17.6 0 0 0-3.6 1.739 12.4 12.4 0 0 0-4.59 5.83 12.54 12.54 0 0 0-.546 6.732c.39 1.963.959 3.887 1.7 5.747 1.313 3.449 2.315 6.27 2.495 8.353a3.44 3.44 0 0 1-.518 2.305 2 2 0 0 1-.443.434z"/>
        <path fill="#FFBE9D" d="M79.248 39.726c-.2-2.76-3.241-4.525-5.605-3.097-1.3.786-2.267 2.332-2.073 5.256.49 7.789 8.224 5.691 8.224 5.464 0-.228-.345-4.388-.546-7.623"/>
        <path fill="#EB996E" d="M77.175 44.548s-.131.103-.353.22c-.314.159-.678.19-1.016.09-.843-.255-1.617-1.517-1.741-2.918a4.45 4.45 0 0 1 .255-1.966 1.55 1.55 0 0 1 .961-1.103.69.69 0 0 1 .823.317c.117.213.076.372.124.386s.159-.145.076-.462a.87.87 0 0 0-.338-.47 1.05 1.05 0 0 0-.768-.15 1.92 1.92 0 0 0-1.34 1.296 4.6 4.6 0 0 0-.34 2.2c.153 1.567 1.051 2.987 2.198 3.243a1.48 1.48 0 0 0 1.231-.283c.228-.207.263-.386.228-.4"/>
        <path fill="#fff" d="M80.16 49.86s.056.151 0 .427c-.11.39-.355.73-.691.96a1.96 1.96 0 0 1-1.748.2 2.6 2.6 0 0 1-1.542-1.511 3.64 3.64 0 0 1 .692-3.698 2 2 0 0 1 1.382-.772 4.1 4.1 0 0 0-1.189.938 3.6 3.6 0 0 0-.691 1.462c-.14.644-.09 1.316.145 1.932a2.28 2.28 0 0 0 1.313 1.338 1.72 1.72 0 0 0 1.5-.104c.304-.187.544-.46.69-.786.09-.235.105-.386.14-.386"/>
        <path fill="#455A64" d="M103.715 9.98a11 11 0 0 0-1.652-1.38 9 9 0 0 0-5.654-1.186 10.5 10.5 0 0 0-3.863 1.159 14.7 14.7 0 0 0-3.67 2.842 25.3 25.3 0 0 0-3.117 4.139c-.947 1.524-1.811 3.18-2.703 4.877a56 56 0 0 1-2.764 4.863 23.6 23.6 0 0 1-3.317 4.043c-1.19 1.166-2.378 2.207-3.394 3.27-.968.95-1.8 2.03-2.474 3.207a8.3 8.3 0 0 0-.995 5.664c.175.7.465 1.367.857 1.973a4 4 0 0 1-.346-.448 5.2 5.2 0 0 1-.643-1.49 8.26 8.26 0 0 1 .899-5.816 14.8 14.8 0 0 1 2.488-3.297c1.016-1.084 2.197-2.132 3.373-3.298a24 24 0 0 0 3.262-4c.988-1.505 1.873-3.147 2.764-4.83.892-1.683 1.756-3.36 2.724-4.898a24.7 24.7 0 0 1 3.172-4.139 14.7 14.7 0 0 1 3.774-2.876 10.9 10.9 0 0 1 3.973-1.152 9 9 0 0 1 5.758 1.324c.45.305.86.665 1.223 1.07q.176.178.325.379"/>
        <path fill="#FFBE9D" d="m44.905 94.306 1.451-6.995-13.352-6.078-.346 1.139c-1.908 6.34-11.418 36.892-11.998 39.176-2.143 8.478-1.666 25.255 1.72 28.393 2.71 2.512 7.915 4.36 11.356 3.981 3.442-.379 12.932-12.569 12.932-12.569l8.701-27.828z"/>
        <path fill="#EB996E" d="M45.493 90.147a2.6 2.6 0 0 1-.063.538c-.069.386-.152.896-.262 1.545-.242 1.38-.594 3.29-1.016 5.65-.422 2.359-.933 5.229-1.382 8.402a81 81 0 0 0-.802 10.347 42.7 42.7 0 0 0 1.168 10.307c.753 3.097 1.444 5.953 1.382 8.416a11.06 11.06 0 0 1-1.438 5.518 5.7 5.7 0 0 1-1.34 1.629 9.97 9.97 0 0 0 2.522-7.182c.042-2.414-.69-5.229-1.444-8.333a42.6 42.6 0 0 1-1.203-10.382c.04-3.485.32-6.963.837-10.41.449-3.18.981-6.022 1.444-8.402s.857-4.263 1.127-5.63c.138-.64.248-1.144.324-1.53a5 5 0 0 1 .145-.483"/>
        <path fill="#FFBE9D" d="m59.295 75.743-2.585-2.856v-3.394l-2.682-3.85-5.35.856-1.637.138 1.106-7.81a32.4 32.4 0 0 1 2.405-5.773c1.907-3.808-1.161-5.553-1.161-5.553l-5.737 10.016-1.907 6.657-.816-5.43s.968-5.283.83-8.001c-.139-2.718-2.869-2.325-2.869-2.325l-2.184 11.955v5.98l-1.9-3.531s-.408-2.994-.692-5.712c-.283-2.718-2.446-1.904-2.446-1.904v8.837l2.446 8.154s-1.61 10.52-1.88 10.927l12.6 8.816s2.764-2.07 3.297-2.214c.532-.145 7.353-5.167 7.353-5.167l4.762-5.03s.816-.537.816-1.082-1.77-2.704-1.77-2.704m-6.532 3.263-2.723-1.228-1.5-3.67 1.113-2.008.387-.69.498-.344 1.818.344s.815 2.588.69 3.808c-.124 1.221 1.5 2.45 1.5 2.45z"/>
        <path fill="#EB996E" d="M50.538 71.045c0 .041-.25.069-.622-.049a2.77 2.77 0 0 1-1.245-.869 2.67 2.67 0 0 1-.608-1.38c-.041-.386 0-.627.07-.62a3.83 3.83 0 0 0 2.405 2.925zm7.008 7.043a24 24 0 0 1 .18-3.96c.21.643.273 1.324.187 1.994a4.4 4.4 0 0 1-.367 1.966m-4.202 5.139s-.346-.22-.733-.745a3.5 3.5 0 0 1-.691-2.449c.041-.267.156-.518.332-.724.159-.173.325-.331.484-.476q.423-.369.884-.69c.526-.373.899-.538.927-.483q-.36.372-.768.69a17 17 0 0 0-.816.745 10 10 0 0 0-.442.47c-.13.158-.216.348-.248.551a2.75 2.75 0 0 0 .13 1.262c.103.346.25.678.436.987.305.51.553.827.505.862m3.372-10.686a4.2 4.2 0 0 1-.905 2.8c-.24.333-.557.6-.926.78a1.62 1.62 0 0 1-1.002.09c-.588-.144-.74-.545-.691-.552.048-.007.255.249.74.304.28.033.563-.017.815-.145a2.3 2.3 0 0 0 .78-.69c.497-.813.896-1.68 1.19-2.587m-3.67 2.463c-.083 0-.283-1.2-.691-2.67a16 16 0 0 1-.36-1.93c-.048-.504 0-.822 0-.822s.111.297.222.78c.158.69.304 1.262.456 1.89.442 1.476.49 2.752.373 2.752"/>
        <path fill="#EB996E" d="M57.546 78.901a6.3 6.3 0 0 1-3.082-1.09 4 4 0 0 1-1.01-.848 2.4 2.4 0 0 1-.455-.986 1.38 1.38 0 0 1 .048-.973c.062 0 0 .372.194.91a2.9 2.9 0 0 0 1.382 1.587c1.527.952 2.958 1.283 2.923 1.4m-11.224 3.022a16.9 16.9 0 0 0-3.014-3.711 17 17 0 0 0-4.146-2.422c.48.032.948.154 1.382.36a10.46 10.46 0 0 1 5.19 4.456c.28.397.48.844.588 1.317M41.76 69.237c0 .104-.995.187-2.15.594-1.153.407-1.99.938-2.072.855a5.14 5.14 0 0 1 4.202-1.449z"/>
        <path fill="#263238" d="m59.71 163.8-7.258 17.819S16.39 168.45-4.719 172.286c-8.024 1.462-16.588 19.639-4.921 31.311 11.41 11.39 31.792 27.491 70.096 32.699.953.131 16.635 3.491 15.668 3.373s21.985 3.512 21.985 3.512l5.391-20.33 42.789 6.719c25.199-1.717 37.529-28.615 22.358-37.251-14.154-8.078-40.777-8.72-40.777-8.72l-6.531-17.791z"/>
        <path fill="#455A64" d="M98.96 243.939c.117-.689.414-2.538 1.043-6.332.339-2.07.761-4.505 1.3-7.347.269-1.421.573-2.939.933-4.532.179-.8.38-1.615.615-2.449.117-.414.242-.835.394-1.256.137-.455.357-.88.649-1.255l.062.31c-9.102-3.221-20.478-7.485-32.607-12.589-7.451-3.167-14.515-6.361-20.68-9.693a67 67 0 0 1-8.48-5.249c-2.516-1.856-4.755-3.705-6.856-5.319-4.147-3.277-7.935-5.394-10.754-6.291a16 16 0 0 0-1.887-.559 11 11 0 0 0-1.383-.303l-.877-.159a1.4 1.4 0 0 1-.297-.069q.15-.016.303 0l.885.11q.721.083 1.424.262.97.2 1.907.518a25.6 25.6 0 0 1 4.95 2.2 53 53 0 0 1 5.95 4.008c2.115 1.601 4.368 3.449 6.911 5.271a68 68 0 0 0 8.453 5.18c6.186 3.298 13.215 6.478 20.659 9.658 12.115 5.098 23.499 9.389 32.552 12.665l.249.09-.186.214a3.8 3.8 0 0 0-.56 1.111c-.152.407-.277.821-.394 1.228a44 44 0 0 0-.629 2.428 123 123 0 0 0-.968 4.511 395 395 0 0 0-1.382 7.327c-.366 2.021-.691 3.573-.87 4.67-.112.538-.194.945-.263 1.221a2.6 2.6 0 0 1-.166.42"/>
        <path fill="#263238" d="M94.453 187.434c0 .304-1.914.786-5.121 1.083a67 67 0 0 1-24.847-2.656c-3.062-.966-4.838-1.855-4.769-2.145.208-.642 7.776 1.38 17.313 2.359 9.538.98 17.355.69 17.424 1.359"/>
        <path fill="#455A64" d="M128.244 183.861a8.4 8.4 0 0 1-1.383.38c-.463.096-1.016.234-1.651.427-.636.193-1.383.379-2.157.69a54 54 0 0 0-5.46 2.159 74 74 0 0 0-6.352 3.388 100 100 0 0 0-10.705 7.512 149 149 0 0 0-3.076 2.511q-.541.496-1.154.897.475-.562 1.036-1.035c.692-.642 1.7-1.546 2.993-2.622a86 86 0 0 1 10.671-7.657 68 68 0 0 1 6.407-3.373 48 48 0 0 1 5.53-2.07c.801-.262 1.541-.441 2.198-.6a17 17 0 0 1 1.672-.359q.706-.179 1.431-.248m-36.189-19.012c.07 0-.048 1.642-.186 4.284a156 156 0 0 0-.194 10.348c.062 4.056.297 7.678.518 10.306s.387 4.256.318 4.27a5.7 5.7 0 0 1-.228-1.117 64 64 0 0 1-.414-3.105c-.305-2.628-.588-6.291-.65-10.347s.104-7.726.325-10.348a69 69 0 0 1 .318-3.118q.037-.596.193-1.173m4.015 6.995c0 .042-.152.145-.373.401a2.55 2.55 0 0 0-.567 1.303 2.44 2.44 0 0 0 .553 1.931 2.28 2.28 0 0 0 3.774-1.379 2.44 2.44 0 0 0-.843-1.828 2.55 2.55 0 0 0-1.279-.621c-.338-.048-.539 0-.546-.055-.007-.056.187-.117.56-.124a2.5 2.5 0 0 1 1.472.551 2.7 2.7 0 0 1 1.058 2.07 2.66 2.66 0 0 1-1.728 2.247 2.66 2.66 0 0 1-1.473.11 2.66 2.66 0 0 1-1.306-.688 2.7 2.7 0 0 1-.56-2.269 2.47 2.47 0 0 1 .754-1.38 1 1 0 0 1 .504-.269"/>
        <path fill="#FFBE9D" d="M127.227 119.589c-.159 1.007-.691 28.283.94 30.76 2.564 3.932 10.83 10.968 15.973 9.043 8.342-3.125 10.229-20.736 10.076-17.467l-6.6-55.649h-12.71l-1.058 19.958-3.704 2.262a36.6 36.6 0 0 1-1.417 6.843z"/>
        <path fill="#FFBE9D" d="M134.906 86.276s-5.073-5.008-5.073-6.118-1.984-1.732-1.984-1.732l-3.22-1.6s-2.074-1.98-1.604-3.091a2.9 2.9 0 0 1 1.382-1.483s.159-2.718 2.184-3.45c0 0-1.9-2.069 0-3.58 1.901-1.51 2.357-.869 2.357-.869s-.207-1.607.905-1.724c1.113-.118 9.075-2.105 9.075-2.105a16 16 0 0 1 3.18 2.105c.988.986 1.485 1.6 1.485 1.6a12 12 0 0 0 1.984-3.705c.491-1.855 1.237-7.415 6.808-7.167v1.38a15 15 0 0 0-2.232 5.436c-.74 3.449-2.074 11.113-2.074 11.113l-.415 15.025z"/>
        <path fill="#EB996E" d="M130.013 141.787a3.5 3.5 0 0 1-.111-.558c-.055-.373-.159-.911-.214-1.621a34.7 34.7 0 0 1-.09-6.009c.221-2.967.62-5.918 1.196-8.837.601-3.297 1.417-6.898 2.025-10.706 1.189-7.637 1.341-14.652 1.534-19.716.09-2.504.166-4.545.215-5.994l.082-1.635q0-.286.056-.566.015.286 0 .573v1.628c0 1.456-.056 3.497-.097 6.001a150 150 0 0 1-1.451 19.764c-.616 3.829-1.445 7.423-2.074 10.713a78 78 0 0 0-1.265 8.789 38 38 0 0 0 0 5.981c.035.69.118 1.255.153 1.628q.045.281.041.565m8.867-78.254c0 .048-.553.034-1.437.151-.885.118-2.115.242-3.456.366-1.65.22-3.312.318-4.976.297 1.618-.33 3.258-.54 4.907-.628a108 108 0 0 1 3.456-.262 3.25 3.25 0 0 1 1.506.076m-2.336 5.932a7.4 7.4 0 0 1-1.438-.049c-.877-.055-2.073-.075-3.455-.11a26 26 0 0 1-3.456-.255 4.4 4.4 0 0 1-1.382-.352 8.3 8.3 0 0 1 1.43.097c.878.075 2.074.124 3.456.151 1.382.028 2.585.097 3.456.214.475.032.944.135 1.389.304m-1.832 4.795a6 6 0 0 1-1.465-.173 70 70 0 0 1-3.49-.69c-1.362-.304-2.585-.552-3.456-.766a6 6 0 0 1-1.417-.42c.496-.003.991.055 1.472.172.892.152 2.129.386 3.456.69s2.578.552 3.456.772c.497.078.982.217 1.444.415"/>
    </g>
</svg>
