<svg xmlns="http://www.w3.org/2000/svg" width="453" height="513" fill="none">
    <style>
        .dynamic-color{fill:#32d59c}
    </style>
    <path d="M200.196 511.472s81.88 10.305 146.943-49.122c65.062-59.427 83.906-153.097 101.171-228.595 17.265-75.499-16.62-140.993-80.492-160.186s-92.28 36.077-171.591 55.93S92.93 142.651 36.637 202.39C-19.655 262.129-8.227 371.288 61.35 438.633c69.577 67.346 138.847 72.839 138.847 72.839" class="dynamic-color" opacity=".15"/>
    <mask id="mask0_4295_10905" width="453" height="513" x="0" y="0" maskUnits="userSpaceOnUse" style="mask-type:alpha">
        <path fill="#BED830" d="M200.198 511.474s81.88 10.304 146.942-49.123c79.212 0 83.907-153.096 101.172-228.595S431.692 92.764 367.819 73.57C303.947 54.377 326.512-8.53 220.012.97c-79.311 19.854-137.5 142.001-196 180.501-52.5 103-9.219 263.581 37.34 257.163 69.576 67.345 138.846 72.84 138.846 72.84"/>
    </mask>
    <g mask="url(#mask0_4295_10905)">
        <path fill="#263238" d="M303.046 125.975c-5.06 12.577-4.906 38.576 3.501 49.195 4.386 5.549 10.35 9.984 13.467 16.34 4.078 8.333 2.327 18.702-2.79 26.44-5.117 7.739-13.178 13.153-21.662 16.955-9.445 4.263-21.007 6.606-29.818 1.152-6.733-4.147-10.292-11.924-12.447-19.528-6.041-21.275-3.847-44.163 2.424-65.438 6.272-21.275 16.487-41.11 26.587-60.734"/>
        <path d="m331.094 302.302 45.093-27.477s-34.243-65.842-39.399-68.223-74.277-12.538-74.277-12.538c-21.027 32.988-47.344 24.846-73.873 2.841-2.366.481-44.112 9.966-55.02 11.387s-42.323 51.383-42.323 51.383l35.629 62.193 2.693 64.441s1.924 45.833-5.598 69.49l189.068 6.125a241 241 0 0 1-4.347-29.782c-.712-8.007-2.886-15.994-1.251-26.286 5.175-32.681 23.605-103.554 23.605-103.554" class="dynamic-color"/>
        <path fill="#000" d="M136.1 228.569c-3.579 11.29-4.983 23.656-1.424 34.946a136 136 0 0 0 6.599 15.054 110.6 110.6 0 0 1 9.619 54.648 2.93 2.93 0 0 0 .23 1.92c.751 1.248 2.655.787 3.983.192l8.522-3.84c3.694 2.995 4.251 8.928 8.33 11.348s9.753-.288 13.832-3.245c8.945-6.548 17.429-14.152 22.623-23.945a93 93 0 0 0 7.253-21.544c1.597-6.509 3.213-13.018 4.213-19.643a110.27 110.27 0 0 0-16.083-75.461" opacity=".3"/>
        <path fill="#263238" d="M316.762 238.63c.184.311.32.648.404.999.269.787.616 1.747 1.02 2.938.865 2.688 2.058 6.374 3.52 10.848s3.194 10.1 5.117 16.13a126.5 126.5 0 0 1 4.848 20.2c.824 6.92.479 13.93-1.019 20.737a109.6 109.6 0 0 1-4.848 16.264 215 215 0 0 1-4.31 10.58 263 263 0 0 0-1.269 2.822 4 4 0 0 1-.52.96c.06-.359.17-.708.327-1.036l1.097-2.9c.981-2.515 2.405-6.144 4.021-10.657a119.4 119.4 0 0 0 4.597-16.206 63.2 63.2 0 0 0 .924-20.449 130 130 0 0 0-4.733-20.047c-1.923-6.067-3.501-11.52-4.905-16.186s-2.424-8.219-3.213-10.945l-.846-2.996a3.8 3.8 0 0 1-.212-1.056"/>
        <path fill="#000" d="M333.402 295.467a45.24 45.24 0 0 0-.942-28.246 108.2 108.2 0 0 0-13.371-25.365c2.655 18.165 10.985 35.254 12.64 53.553M179.808 411.808a75.7 75.7 0 0 1 31.57-24.539 149.2 149.2 0 0 1 39.052-10.235c5.291-.768 11.043-1.305 15.679 1.364s6.829 9.908 2.789 13.441a12.64 12.64 0 0 1-7.598 2.266c-18.507 1.344-38.053 1.401-54.059 10.81-6.329 3.706-11.946 8.813-18.93 11.06-3.174 1.018-7.868.442-8.195-2.861" opacity=".3"/>
        <path fill="#263238" d="M274.15 374.557a5 5 0 0 1-1.116 0h-5.521l-2.732.173c-1.924.154-4.213.231-6.675.595l-3.848.481c-1.347.192-2.712.48-4.155.729-2.886.461-5.906 1.248-9.1 1.92a153 153 0 0 0-20.142 6.97 171 171 0 0 0-18.987 9.736c-2.809 1.708-5.483 3.321-7.869 4.992-2.385 1.67-4.655 3.168-6.675 4.627a152 152 0 0 0-5.348 4.033c-1.501 1.19-2.905 2.266-3.963 3.149l-2.501 1.92c-.28.248-.591.461-.923.634q.356-.432.788-.788l2.367-2.15a90 90 0 0 1 3.847-3.284c1.52-1.229 3.251-2.707 5.271-4.166s4.175-3.149 6.618-4.762a392 392 0 0 1 7.868-5.089 163 163 0 0 1 19.065-9.869 143 143 0 0 1 20.315-6.932c3.232-.73 6.271-1.517 9.176-1.92 1.462-.231 2.848-.519 4.194-.691l3.848-.404c2.481-.326 4.732-.364 6.714-.46 1 0 1.923-.096 2.77-.096h2.328l3.212.115c.419.112.816.294 1.174.537"/>
        <path fill="#000" d="M118.113 272.29c-4.906 6.779-5.464 15.918-3.444 24.021s6.31 15.362 10.581 22.62a68.9 68.9 0 0 0-1.655-21.467c-2.02-8.411-5.636-16.59-5.617-25.25" opacity=".3"/>
        <path fill="#263238" d="M255.143 12.667c.115-6.125 7.118-10.464 13.178-9.428 6.06 1.037 10.792 5.934 13.62 11.368s4.194 11.52 6.329 17.281c5.772 15.362 17.103 28.59 21.162 44.567a67.3 67.3 0 0 1-1.039 34.332 153.2 153.2 0 0 1-13.524 31.836 115.5 115.5 0 0 0-8.946 18.99 33.18 33.18 0 0 0-.634 20.661c.432.856.528 1.842.269 2.765-.596 1.306-2.463 1.363-3.848.999-7.06-1.805-11.946-8.737-13.158-15.918-1.212-7.182.635-14.517 3.212-21.333 2.578-6.817 5.887-13.441 7.792-20.373 4.155-15.361 1.269-31.644.538-47.562-.404-8.967-.115-18.03-1.923-26.882s-5.983-17.55-13.467-22.562c-2.905-1.92-6.252-3.341-8.695-5.76-2.444-2.42-3.675-6.74-1.462-9.467"/>
        <path fill="#FFBE9D" d="M261.473 190.761s-.212-9.293-.212-9.197 27.568-5.242 32.435-41.399c2.424-17.972.827-47.331-1.251-71.295-1.923-21.582-16.852-47.773-38.379-44.989l-66.967 18.587c-6.521.845-8.676 6.433-8.387 13.019l-.481 3.09 5.579 103.094 1.923 17.281c.982 19.605 18.046 40.323 39.092 40.861 20.315.998 36.917-7.354 36.648-29.052"/>
        <path fill="#263238" d="M280.133 92.123a4.62 4.62 0 0 1-1.214 3.267 4.64 4.64 0 0 1-3.153 1.495 4.43 4.43 0 0 1-4.387-2.367 4.4 4.4 0 0 1-.48-1.684 4.63 4.63 0 0 1 4.348-4.762 4.44 4.44 0 0 1 3.296 1 4.42 4.42 0 0 1 1.59 3.05m6.021-6.834c-.558.614-4.117-1.921-9.099-1.767s-8.58 2.708-9.119 2.112c-.288-.27.269-1.363 1.924-2.573a12.8 12.8 0 0 1 7.291-2.42 12.14 12.14 0 0 1 7.253 2.15c1.558 1.134 2.116 2.229 1.75 2.498m-48.381 9.331c-.558.615-4.136-1.92-9.119-1.747s-8.561 2.688-9.119 2.093c-.269-.25.289-1.363 1.924-2.554a12.85 12.85 0 0 1 7.291-2.438 12.25 12.25 0 0 1 7.272 2.169c1.481 1.095 2.039 2.17 1.751 2.477m18.659 28.207c0-.288 3.059-.902 8.061-1.651 1.269-.173 2.462-.442 2.655-1.325a6.4 6.4 0 0 0-.943-3.744l-3.982-9.601c-5.541-13.652-9.619-24.962-9.042-25.096s5.502 10.657 11.042 24.309a289 289 0 0 0 3.848 9.601 7.3 7.3 0 0 1 .789 4.953 3.27 3.27 0 0 1-2.059 1.921 8.8 8.8 0 0 1-2.154.345c-5.06.461-8.196.557-8.215.288"/>
        <path fill="#EB996E" d="M261.261 181.564a92 92 0 0 1-48.634-11.733s12.794 25.154 48.845 20.93z"/>
        <path fill="#263238" d="M237.58 82.004c-.558 1.325-5.483.383-11.369.71s-10.696 1.652-11.389.385c-.308-.595.577-1.824 2.578-3.015a19.1 19.1 0 0 1 8.561-2.4 18.8 18.8 0 0 1 8.772 1.573c2.097 1 3.097 2.114 2.847 2.746m47.901-12.058c-1.001 1.153-5.098 0-9.965.154-4.867.153-9.004.96-9.985-.193-.423-.576.193-1.709 1.924-2.823a16.59 16.59 0 0 1 16.064 0c1.808 1.154 2.404 2.305 1.962 2.862"/>
        <path fill="#EB996E" d="M252.72 133.253a8.25 8.25 0 0 0-6.214-3.111 9.8 9.8 0 0 0-7.137 3.418l-.135.115-.25.269a4.63 4.63 0 0 0-1.231 2.688 6.91 6.91 0 0 0 2.963 5.761 8.76 8.76 0 0 0 10.061.384 7.113 7.113 0 0 0 1.943-9.524"/>
        <path fill="#263238" d="M239.793 128.433c.288 0 .519 1.152 1.308 2.784a12.3 12.3 0 0 0 4.578 5.089 12.14 12.14 0 0 0 6.657 1.593c1.808 0 2.943-.422 3.078-.153s-.905 1.037-2.905 1.498a11 11 0 0 1-7.811-1.306 10.82 10.82 0 0 1-4.848-6.241c-.558-1.977-.288-3.264-.057-3.264M262.3 24.476a11.18 11.18 0 0 0 3.848 9.716 55 55 0 0 0 9.061 6.107c9.619 5.99 14.37 19.086 18.872 29.474 7.926-15.073-4.252-34.563-14.332-46.372a21.8 21.8 0 0 0-6.272-5.453 9.23 9.23 0 0 0-8.079-.48"/>
        <path fill="#455A64" d="M294.177 144.697q.158-.69.424-1.344l1.385-3.725c1.096-3.284 2.712-8.026 4.155-14.037a134.2 134.2 0 0 0 2.636-48.003 107.4 107.4 0 0 0-6.233-25.711 45.2 45.2 0 0 0-12.024-17.685 32.6 32.6 0 0 0-12.678-6.95c-3.328-.865-5.271-.865-5.271-.98a6.6 6.6 0 0 1 1.404 0c1.335.101 2.661.306 3.963.614a31.6 31.6 0 0 1 13.044 6.778 45.6 45.6 0 0 1 12.427 17.877 105 105 0 0 1 6.368 25.942 130.4 130.4 0 0 1-2.943 48.195 134 134 0 0 1-4.483 14.017 151 151 0 0 1-1.558 3.668 6.8 6.8 0 0 1-.616 1.344"/>
        <path fill="#263238" d="M297.428 170.619a1.4 1.4 0 0 1-.173-.423l-.424-1.286a25 25 0 0 1-.827-5.069 37.56 37.56 0 0 1 4.329-18.319c3.405-7.315 9.619-14.65 15.582-23.272a59.5 59.5 0 0 0 7.541-14.497 44.4 44.4 0 0 0 2.04-17.281 43.9 43.9 0 0 0-4.752-16.782 65.5 65.5 0 0 0-9.619-13.288c-7.041-7.68-14.12-14.247-18.757-20.833a43.8 43.8 0 0 1-8.003-17.051 22.7 22.7 0 0 1-.442-6.913 43.4 43.4 0 0 0 .827 6.836 44.5 44.5 0 0 0 8.195 16.725c4.656 6.45 11.716 12.826 18.873 20.622a65.7 65.7 0 0 1 9.753 13.44 45 45 0 0 1 4.867 17.148 45.6 45.6 0 0 1-2.097 17.704 60 60 0 0 1-7.695 14.708c-6.06 8.66-12.273 15.899-15.717 23.042a37.6 37.6 0 0 0-4.559 17.972 33 33 0 0 0 1.058 6.817M256.49 5.582C250.314 1.223 242.35.225 234.789.34c-20.392.288-41.091 8.065-54.731 23.195-11.543 12.75-28.491 37.29-31.704 54.11-7.83 40.995 18.122 52.478-3.02 116.476-3.848 11.521-8.619 22.812-10.966 34.717a61.5 61.5 0 0 0-1.173 12.903c-2.482 7.489-.962 16.129 2.097 23.579 3.597 8.756 9.08 16.629 12.523 25.442 3.444 8.814 11.024 23.272 5.964 31.279 7.137-1.92 7.387-9.351 13.043-14.093a37.04 37.04 0 0 1-.154 19.393 40.63 40.63 0 0 0 23.971-9.985c13.197-11.521 17.314-30.242 19.372-47.677 4.425-38.115.096-74.674-10.023-111.695l-.134.173c-7.368-23.675-21.316-45.527-8.792-50.749 21.816-9.083 1.924-18.645 10.196-41.533 2.597-7.144 5.483-14.708 11.543-19.202 7.271-5.414 17.102-5.126 26.163-5.626s19.334-2.88 23.585-10.868l.558-4.781c3.252-6.855-.442-15.438-6.617-19.816"/>
        <path fill="#455A64" d="M158.108 157.139a8.6 8.6 0 0 0 1.596-1.612 9.72 9.72 0 0 0 1.212-6.279c-.615-5.665-3.482-13.441-7.233-23.042a90 90 0 0 1-4.867-16.091 34.75 34.75 0 0 1 1.773-20.145 34.83 34.83 0 0 1 12.694-15.762c6.156-4.416 14.524-5.088 19.661-11.08 5.136-5.99 7.695-13.171 9.926-20.122a92 92 0 0 1 3.848-10.215 53 53 0 0 1 5.386-9.006 52.6 52.6 0 0 1 14.159-13.115 32.7 32.7 0 0 1 7.965-3.84 23.3 23.3 0 0 1 8.08-.96c4.64.381 9.187 1.51 13.466 3.341 3.848 1.555 7.003 2.919 9.619 4.301a14.8 14.8 0 0 1 5.059 4.263c.456.628.801 1.33 1.02 2.074a20 20 0 0 0-1.193-1.92 14.9 14.9 0 0 0-5.078-4.033c-2.54-1.305-5.772-2.63-9.619-4.128a43 43 0 0 0-13.294-3.092 22.2 22.2 0 0 0-7.829.98 33.3 33.3 0 0 0-7.695 3.725 51.9 51.9 0 0 0-19.104 21.794 93 93 0 0 0-3.847 10.119c-2.27 6.932-4.636 14.555-10.119 20.488a25.5 25.5 0 0 1-9.811 6.394 49 49 0 0 0-10.023 4.839 34.57 34.57 0 0 0-12.774 16.225 34.9 34.9 0 0 0-1.52 18.741 91.3 91.3 0 0 0 4.733 15.995c3.655 9.6 6.444 17.454 6.944 23.252a9.6 9.6 0 0 1-1.442 6.414c-.348.462-.763.87-1.232 1.209z"/>
        <path fill="#FFBE9D" d="M189.966 110.576c-.558-7.681-9.022-12.596-15.601-8.621-3.617 2.189-6.31 6.49-5.772 14.631 1.366 21.679 22.892 15.841 22.892 15.208 0-.634-.961-12.213-1.519-21.218"/>
        <path fill="#EB996E" d="M184.195 123.998s-.365.288-.981.614a3.86 3.86 0 0 1-2.828.25c-2.347-.711-4.501-4.224-4.848-8.122a12.4 12.4 0 0 1 .712-5.473 4.33 4.33 0 0 1 2.674-3.072 1.93 1.93 0 0 1 2.29.883c.327.595.211 1.037.346 1.076.134.038.442-.404.211-1.287a2.4 2.4 0 0 0-.942-1.306 2.93 2.93 0 0 0-2.136-.422 5.33 5.33 0 0 0-3.732 3.61 12.74 12.74 0 0 0-.942 6.125c.423 4.359 2.924 8.314 6.117 9.025a4.13 4.13 0 0 0 3.425-.788c.634-.576.731-1.075.634-1.113"/>
        <path fill="#fff" d="M192.505 138.783s.154.422 0 1.19a4.83 4.83 0 0 1-1.924 2.669 5.45 5.45 0 0 1-4.867.557 7.21 7.21 0 0 1-4.29-4.205 10.14 10.14 0 0 1 1.924-10.292 5.58 5.58 0 0 1 3.847-2.15 11.5 11.5 0 0 0-3.308 2.611 10 10 0 0 0-1.924 4.071 9.47 9.47 0 0 0 .404 5.376 6.36 6.36 0 0 0 3.655 3.725 4.78 4.78 0 0 0 4.174-.288 4.97 4.97 0 0 0 1.924-2.189c.25-.653.289-1.075.385-1.075"/>
        <path fill="#455A64" d="M258.069 27.779a30.6 30.6 0 0 0-4.598-3.84 25.05 25.05 0 0 0-15.737-3.303 29.3 29.3 0 0 0-10.754 3.226 41 41 0 0 0-10.215 7.91 70.3 70.3 0 0 0-8.676 11.522c-2.636 4.244-5.041 8.852-7.523 13.576a156 156 0 0 1-7.694 13.537 65.7 65.7 0 0 1-9.234 11.252c-3.309 3.245-6.618 6.144-9.446 9.1a41.3 41.3 0 0 0-6.887 8.93 23.1 23.1 0 0 0-2.77 15.764 18.4 18.4 0 0 0 2.385 5.492q-.524-.59-.962-1.248a14.4 14.4 0 0 1-1.789-4.148 23 23 0 0 1 2.501-16.187 41.3 41.3 0 0 1 6.926-9.178c2.828-3.015 6.117-5.933 9.388-9.178a66.5 66.5 0 0 0 9.08-11.137c2.751-4.186 5.213-8.756 7.695-13.441s4.886-9.351 7.58-13.633a68.8 68.8 0 0 1 8.83-11.521 41 41 0 0 1 10.504-8.007 30.3 30.3 0 0 1 11.061-3.207 25.04 25.04 0 0 1 16.025 3.687 18.5 18.5 0 0 1 3.405 2.976q.49.497.905 1.056"/>
        <path fill="#FFBE9D" d="m94.374 262.498 4.04-19.471-37.168-16.916-.962 3.168c-5.31 17.646-31.78 102.69-33.396 109.045-5.964 23.599-4.637 70.297 4.79 79.033 7.541 6.99 22.028 12.136 31.607 11.08 9.582-1.056 35.995-34.985 35.995-34.985l24.22-77.459z"/>
        <path fill="#EB996E" d="M96.009 250.919a7.2 7.2 0 0 1-.174 1.498c-.191 1.075-.422 2.496-.73 4.301-.674 3.84-1.654 9.159-2.829 15.726-1.172 6.567-2.596 14.555-3.846 23.387a224.5 224.5 0 0 0-2.233 28.802 119 119 0 0 0 3.251 28.687c2.098 8.622 4.022 16.571 3.849 23.426a30.8 30.8 0 0 1-4.002 15.361 15.9 15.9 0 0 1-3.733 4.532 27.73 27.73 0 0 0 7.023-19.989c.116-6.72-1.924-14.555-4.021-23.195a118.4 118.4 0 0 1-3.347-28.898c.112-9.7.89-19.381 2.328-28.975 1.25-8.852 2.731-16.763 4.02-23.388 1.288-6.624 2.386-11.866 3.136-15.668.385-1.786.693-3.187.904-4.263q.166-.683.403-1.344"/>
        <path fill="#FFBE9D" d="m134.426 210.827-7.195-7.95v-9.447l-7.464-10.714-14.89 2.381-4.559.384 3.078-21.736a90 90 0 0 1 6.695-16.072c5.309-10.599-3.232-15.457-3.232-15.457l-15.968 27.88-5.309 18.53-2.27-15.112s2.694-14.708 2.309-22.273c-.385-7.566-7.985-6.471-7.985-6.471l-6.079 33.276v16.647l-5.29-9.831s-1.135-8.333-1.924-15.899-6.81-5.299-6.81-5.299v24.597l6.81 22.696s-4.482 29.282-5.233 30.415l35.072 24.54s7.694-5.761 9.175-6.164 20.469-14.382 20.469-14.382l13.255-13.998s2.27-1.498 2.27-3.014c0-1.517-4.925-7.527-4.925-7.527m-18.179 9.082-7.58-3.418-4.175-10.215 3.098-5.588 1.077-1.92 1.385-.96 5.06.96s2.27 7.201 1.923 10.599c-.346 3.399 4.175 6.817 4.175 6.817z"/>
        <path fill="#EB996E" d="M110.052 197.751c0 .115-.693.192-1.732-.135a7.7 7.7 0 0 1-3.463-2.419 7.43 7.43 0 0 1-1.692-3.84c-.116-1.076-.001-1.748.192-1.729a10.65 10.65 0 0 0 6.695 8.142zm19.508 19.604a66 66 0 0 1 .5-11.022 12.7 12.7 0 0 1 .52 5.55 12.26 12.26 0 0 1-1.02 5.472m-11.698 14.304s-.961-.614-2.039-2.073a9.7 9.7 0 0 1-1.924-6.816 4.05 4.05 0 0 1 .924-2.017c.442-.48.904-.921 1.347-1.324a29 29 0 0 1 2.462-1.921c1.462-1.037 2.501-1.498 2.578-1.344a21 21 0 0 1-2.136 1.921 48 48 0 0 0-2.27 2.073c-.404.403-.827.846-1.231 1.306a3.2 3.2 0 0 0-.692 1.536 7.65 7.65 0 0 0 .365 3.513c.285.963.693 1.886 1.212 2.746.847 1.421 1.539 2.304 1.404 2.4m9.388-29.742a11.66 11.66 0 0 1-2.52 7.795 6.9 6.9 0 0 1-2.578 2.17 4.5 4.5 0 0 1-2.789.25c-1.635-.403-2.059-1.517-1.924-1.537.135-.019.712.692 2.059.845a3.97 3.97 0 0 0 2.27-.403 6.34 6.34 0 0 0 2.173-1.92 34 34 0 0 0 3.309-7.2m-10.214 6.855c-.231 0-.789-3.341-1.924-7.431a45 45 0 0 1-1-5.376c-.135-1.402 0-2.285 0-2.285s.308.826.616 2.17c.442 1.92.846 3.514 1.269 5.261 1.231 4.109 1.366 7.661 1.039 7.661"/>
        <path fill="#EB996E" d="M129.56 219.62a17.6 17.6 0 0 1-8.58-3.034 11 11 0 0 1-2.809-2.362 6.7 6.7 0 0 1-1.269-2.745 3.83 3.83 0 0 1 .134-2.708c.174 0 0 1.037.539 2.535a8.1 8.1 0 0 0 3.848 4.417c4.251 2.65 8.233 3.571 8.137 3.897m-31.243 8.411a47 47 0 0 0-8.387-10.33 47.6 47.6 0 0 0-11.543-6.74c1.335.089 2.64.428 3.847.998a29.1 29.1 0 0 1 14.448 12.405 10.5 10.5 0 0 1 1.635 3.667M85.62 192.72c0 .288-2.77.518-5.983 1.651s-5.54 2.611-5.77 2.381a14.32 14.32 0 0 1 11.695-4.032z"/>
        <path fill="#263238" d="m135.58 455.932-20.199 49.598S14.999 468.875-43.754 479.551c-22.335 4.071-46.17 54.666-13.697 87.155 31.762 31.702 88.493 76.518 195.109 91.015 2.655.365 46.305 9.716 43.612 9.39-2.693-.327 61.195 9.773 61.195 9.773l15.006-56.587L376.572 639c70.141-4.781 104.461-79.648 62.234-103.688-39.399-22.485-113.503-24.271-113.503-24.271l-18.179-49.52z"/>
        <path fill="#455A64" d="M244.833 678.996c.327-1.92 1.154-7.066 2.904-17.626a821 821 0 0 1 3.617-20.45c.75-3.956 1.597-8.18 2.597-12.615.5-2.228 1.058-4.494 1.712-6.817.327-1.152.674-2.323 1.097-3.495a10.7 10.7 0 0 1 1.808-3.494l.173.864c-25.336-8.967-57.001-20.834-90.763-35.043-20.739-8.813-40.4-17.704-57.56-26.978a186 186 0 0 1-23.604-14.612c-7.003-5.165-13.236-10.311-19.084-14.804-11.544-9.121-22.086-15.016-29.935-17.512a45 45 0 0 0-5.251-1.555 32 32 0 0 0-3.848-.845l-2.443-.442a4 4 0 0 1-.828-.192c.281-.03.566-.03.846 0l2.464.307c1.335.154 2.66.397 3.962.73a45 45 0 0 1 5.31 1.44 71.2 71.2 0 0 1 13.775 6.125 147 147 0 0 1 16.563 11.156c5.886 4.455 12.159 9.601 19.237 14.67a188.6 188.6 0 0 0 23.529 14.42c17.218 9.179 36.782 18.031 57.502 26.883 33.723 14.189 65.408 26.133 90.609 35.253l.693.25-.519.595a10.6 10.6 0 0 0-1.559 3.092c-.423 1.133-.769 2.285-1.096 3.418-.674 2.285-1.232 4.55-1.751 6.758a337 337 0 0 0-2.693 12.558c-1.578 7.892-2.828 14.766-3.848 20.392-1.019 5.626-1.924 9.946-2.424 12.999-.308 1.498-.538 2.631-.731 3.399q-.181.606-.461 1.171"/>
        <path fill="#263238" d="M232.289 521.716c0 .845-5.329 2.189-14.255 3.015a186.5 186.5 0 0 1-69.16-7.393c-8.522-2.688-13.466-5.165-13.274-5.971.577-1.786 21.642 3.84 48.19 6.567 26.549 2.726 48.307 1.92 48.499 3.782"/>
        <path fill="#455A64" d="M326.343 511.771a23 23 0 0 1-3.847 1.056 53 53 0 0 0-4.598 1.191c-1.77.537-3.848 1.055-6.002 1.92a150 150 0 0 0-15.198 6.01 205 205 0 0 0-17.68 9.428 280 280 0 0 0-29.799 20.91c-3.636 2.9-6.56 5.3-8.561 6.989a25 25 0 0 1-3.212 2.497 24 24 0 0 1 2.885-2.881 209 209 0 0 1 8.33-7.296 239 239 0 0 1 29.703-21.314 188 188 0 0 1 17.834-9.389 132 132 0 0 1 15.39-5.762c2.232-.729 4.29-1.228 6.118-1.669a47 47 0 0 1 4.655-.999 26 26 0 0 1 3.982-.691m-100.729-52.919c.193 0-.134 4.57-.519 11.924a434 434 0 0 0-.539 28.802 424 424 0 0 0 1.443 28.687c.616 7.316 1.077 11.847.885 11.886a16 16 0 0 1-.635-3.111c-.346-2.035-.731-4.973-1.154-8.641-.847-7.315-1.635-17.511-1.808-28.802-.174-11.29.288-21.505.904-28.802.308-3.687.615-6.644.885-8.679a16.3 16.3 0 0 1 .538-3.264m11.176 19.47c0 .115-.423.403-1.038 1.114a7.1 7.1 0 0 0-1.578 3.629 6.77 6.77 0 0 0 1.539 5.375 6.36 6.36 0 0 0 6.403 1.216 6.33 6.33 0 0 0 4.101-5.055 6.82 6.82 0 0 0-2.347-5.089 7.1 7.1 0 0 0-3.559-1.728c-.943-.134-1.501-.001-1.52-.154-.019-.154.52-.326 1.558-.345a7 7 0 0 1 4.098 1.535 7.51 7.51 0 0 1 2.943 5.762 7.4 7.4 0 0 1-1.502 3.819 7.42 7.42 0 0 1-7.406 2.742 7.4 7.4 0 0 1-3.635-1.915 7.5 7.5 0 0 1-1.558-6.317 6.88 6.88 0 0 1 2.097-3.841 2.75 2.75 0 0 1 1.404-.748"/>
        <path fill="#FFBE9D" d="M323.514 332.87c-.442 2.803-1.924 78.727 2.616 85.62 7.138 10.945 30.146 30.53 44.459 25.172 23.22-8.698 28.472-57.719 28.048-48.618l-18.372-154.898h-35.378l-2.943 55.551-10.312 6.297a101.7 101.7 0 0 1-3.943 19.048z"/>
        <path fill="#FFBE9D" d="M344.887 240.147s-14.12-13.94-14.12-17.031c0-3.092-5.522-4.82-5.522-4.82l-8.964-4.455s-5.772-5.51-4.463-8.602a8.07 8.07 0 0 1 3.847-4.128s.443-7.566 6.079-9.601c0 0-5.29-5.76 0-9.965 5.291-4.206 6.56-2.42 6.56-2.42s-.577-4.474 2.52-4.8c3.098-.327 25.26-5.857 25.26-5.857a44.4 44.4 0 0 1 8.849 5.857c2.751 2.746 4.136 4.455 4.136 4.455a33.6 33.6 0 0 0 5.521-10.312c1.366-5.165 3.444-20.641 18.95-19.95v3.84a41.8 41.8 0 0 0-6.214 15.131c-2.059 9.601-5.772 30.934-5.772 30.934l-1.154 41.82z"/>
        <path fill="#EB996E" d="M331.268 394.66a10 10 0 0 1-.308-1.555c-.154-1.037-.442-2.535-.596-4.512a96.3 96.3 0 0 1-.25-16.725 206 206 0 0 1 3.328-24.597c1.673-9.178 3.944-19.201 5.636-29.801 3.309-21.256 3.733-40.783 4.271-54.877.25-6.97.462-12.653.597-16.685l.23-4.552a8 8 0 0 1 .154-1.575q.044.797 0 1.594v4.533c0 4.051-.154 9.734-.269 16.704a416.5 416.5 0 0 1-4.04 55.012c-1.712 10.657-4.021 20.661-5.771 29.82a217 217 0 0 0-3.521 24.464 106.6 106.6 0 0 0 0 16.647c.096 1.92.327 3.494.424 4.531q.128.782.115 1.574m24.682-217.82c0 .135-1.539.096-4.001.423s-5.888.672-9.62 1.017a96 96 0 0 1-13.85.826 93 93 0 0 1 13.658-1.747c3.848-.346 7.215-.596 9.619-.73a9.06 9.06 0 0 1 4.194.211m-6.503 16.513a20.5 20.5 0 0 1-4.002-.134c-2.443-.154-5.771-.211-9.618-.307a73.5 73.5 0 0 1-9.619-.711 12.3 12.3 0 0 1-3.848-.979 23 23 0 0 1 3.982.269c2.444.211 5.772.345 9.619.422 3.848.077 7.195.269 9.619.595 1.324.09 2.627.375 3.867.845m-5.098 13.346a17 17 0 0 1-4.079-.481 196 196 0 0 1-9.715-1.92c-3.79-.845-7.195-1.536-9.619-2.131a17 17 0 0 1-3.944-1.171 17 17 0 0 1 4.098.48 179 179 0 0 1 9.619 1.92c3.694.845 7.176 1.536 9.619 2.15 1.383.217 2.733.604 4.021 1.153"/>
    </g>
</svg>
