<svg xmlns="http://www.w3.org/2000/svg" fill="none" viewBox="0 0 184 184">
    <path fill="#0067AB" d="M92.047 184c49.732 0 90.048-40.316 90.048-90.047 0-49.732-40.316-90.048-90.048-90.048S2 44.221 2 93.953 42.316 184 92.047 184" opacity=".15"/>
    <path fill="#fff" d="m114.283 75.545-66.928 39.097c-.515.295-1.104.147-1.399-.368L2.957 40.646c-.294-.516-.147-1.105.368-1.4L70.254.15c.515-.294 1.104-.147 1.398.368l43.073 73.629c.221.441.074 1.104-.442 1.398"/>
    <path fill="#F2F2F2" d="m46.545 46.904-16.64 9.72c-.515.294-1.104.147-1.399-.369L18.861 39.69c-.295-.516-.147-1.105.368-1.4l16.566-9.718c.516-.295 1.105-.147 1.4.368l9.718 16.566c.295.516.074 1.105-.368 1.4m-27.169-8.32c-.294.148-.368.516-.22.81l9.718 16.567c.148.294.516.368.81.22l16.567-9.718c.294-.148.368-.516.22-.81L36.826 29.16c-.147-.294-.515-.368-.81-.22z"/>
    <path fill="#0067AB" d="m42.937 51.764-16.566 9.645c-.442.22-1.03.074-1.252-.295L15.4 44.474c-.22-.441-.073-1.03.295-1.251l16.566-9.72c.442-.22 1.031-.073 1.252.295l9.719 16.567c.294.515.147 1.104-.295 1.399"/>
    <path fill="#CCC" d="M82.991 39.247 31.083 69.582c-.441.22-1.03.073-1.251-.295-.221-.442-.074-1.03.294-1.252l51.908-30.334c.442-.221 1.03-.074 1.252.294.294.368.147.957-.295 1.252m-9.277 12.737L34.323 75.03c-.442.22-1.03.074-1.252-.295-.22-.441-.073-1.03.295-1.251l39.39-23.046c.443-.22 1.032-.074 1.252.295.221.441.074 1.03-.294 1.251M71.063 19.22l-22.972 13.4c-.441.221-1.03.074-1.251-.294-.221-.442-.074-1.031.294-1.252L70.18 17.6c.441-.22 1.03-.074 1.251.295.221.441.074 1.03-.368 1.325m-2.503 8.762L51.33 38.069c-.44.22-1.03.073-1.25-.295-.222-.442-.074-1.03.294-1.251l17.229-10.088c.442-.22 1.03-.073 1.252.295.294.442.147 1.03-.295 1.252m20.837 22.162L37.489 80.479c-.442.22-1.031.073-1.252-.295-.22-.442-.074-1.03.295-1.252L88.44 48.597c.441-.22 1.03-.073 1.251.295.295.442.147 1.03-.294 1.252m-9.351 12.811L40.655 86c-.442.22-1.03.073-1.252-.295-.22-.442-.073-1.03.295-1.252l39.39-23.045c.443-.221 1.032-.074 1.253.294.294.442.147 1.031-.295 1.252m15.756-1.84L43.894 91.45c-.441.221-1.03.074-1.251-.294-.221-.442-.074-1.031.294-1.252l51.908-30.335c.442-.22 1.031-.074 1.252.295.294.441.147.957-.295 1.251m3.24 5.448L47.134 96.898c-.442.22-1.03.073-1.251-.295-.221-.441-.074-1.03.294-1.251l51.908-30.335c.442-.221 1.03-.074 1.252.294.294.442.147 1.031-.295 1.252"/>
    <path fill="#0067AB" d="M82.255 87.915c.736-.884 1.399-1.767 1.914-2.724.59-.81.957-1.767 1.105-2.798.147-.884-.221-1.767-.81-2.356-.59-.59-1.547-.663-2.283-.295a2.44 2.44 0 0 0-1.178 2.062c.074.957.516 1.767 1.325 2.356a5.82 5.82 0 0 0 5.596.22c1.84-.956 2.798-3.46 1.325-5.153-.294-.368-.81.073-.736.442.221 1.104 1.252 1.84 2.43 1.693 1.03-.22 1.767-1.104 1.693-2.135l-.662.368a4.94 4.94 0 0 0 4.933-.515c.368-.221.663-.59.957-.884.368-.368.81-.736 1.252-.957l3.092-2.135c.442-.295 0-1.105-.442-.737l-2.798 1.988c-.441.295-.957.663-1.398.958-.295.294-.59.589-.81.883a4.24 4.24 0 0 1-4.345.736c-.22-.147-.515 0-.589.148 0 .073-.073.147-.073.22a1.123 1.123 0 0 1-1.105 1.252c-.589.074-1.178-.368-1.251-.957l-.737.442c.958 1.104.295 2.798-.736 3.534-1.325.81-2.871.957-4.344.442-.663-.221-1.252-.737-1.472-1.4a1.474 1.474 0 0 1 .368-1.766 1.07 1.07 0 0 1 1.546 0c.442.442.662 1.104.515 1.767a7.3 7.3 0 0 1-1.104 2.43 14.7 14.7 0 0 1-1.767 2.43c-.442.22.22.883.589.441"/>
    <path fill="#FFB7B7" d="m89.986 108.678.22.221 9.646-.221 1.104-2.061 3.314 1.325-1.62 3.829a1.59 1.59 0 0 1-1.62.957l-10.897-1.326c-.736.884-1.988 1.031-2.871.369-.884-.737-1.031-1.988-.369-2.872.737-.884 1.988-1.031 2.872-.368.074 0 .147.074.22.147m31.514 58.682h-3.166l-1.547-12.296h4.713z"/>
    <path fill="#2F2E41" d="M122.309 170.452h-10.235v-.147a3.96 3.96 0 0 1 3.976-3.976h6.259z"/>
    <path fill="#FFB7B7" d="m92.636 167.286-2.945-1.251 3.46-11.854 4.345 1.84z"/>
    <path fill="#2F2E41" d="m92.121 170.453-9.424-4.05.073-.147c.884-2.062 3.24-2.945 5.228-2.135l5.743 2.429z"/>
    <path fill="#FFB7B7" d="m106.037 111.329-.221 3.755 6.7.736 6.995.736-2.062-5.669z"/>
    <path fill="#2F2E41" d="m105.595 115.084-2.577-18.186 4.491-1.473 1.326-1.84 6.479.368.957 2.135 3.461 1.62-.516 9.866.368 8.246z"/>
    <path fill="#2F2E41" d="m103.975 110.225-4.638-1.841v-.074c0-.073 1.987-8.246 2.208-9.571.074-.737.589-1.4 1.326-1.767l1.84.589.81 6.258zm-8.983 54.926-6.11-1.252 9.792-27.021 3.387-9.204s2.135-7.363 3.092-10.234l.589-3.829 13.695 1.546s3.829 5.596 2.651 14.8l.515 34.458-6.111.294-5.154-34.752-8.983 18.996s-2.871 8.099-4.86 9.866z"/>
    <path fill="#FFB7B7" d="M113.915 116.336h.294l6.406-7.216-.736-2.209 3.239-1.546 1.694 3.829c.294.662.147 1.399-.442 1.84l-8.393 7.142a2.12 2.12 0 0 1-1.694 2.357 2.12 2.12 0 0 1-2.356-1.694 2.12 2.12 0 0 1 1.693-2.356c.074-.147.221-.147.295-.147"/>
    <path fill="#2F2E41" d="m120.1 109.856-2.651-6.258 1.031-4.344 1.104-1.4a.63.63 0 0 1 .516 0c.442.148.736.663 1.031 1.547l2.503 7.142zm-13.842-18.628v-4.712c0-3.534 2.871-6.332 6.332-6.332 3.534 0 6.332 2.872 6.332 6.332v4.712a.895.895 0 0 1-.884.884h-10.97c-.442 0-.81-.368-.81-.884"/>
    <path fill="#FFB7B7" d="M111.264 91.965a4.639 4.639 0 1 0 0-9.278 4.639 4.639 0 0 0 0 9.278"/>
    <path fill="#2F2E41" d="M104.711 86.884c0-2.798 2.283-5.007 5.007-5.007h.957c2.798 0 5.007 2.283 5.007 5.007v.074h-1.988l-.663-1.915-.147 1.915h-1.031l-.368-.957-.073.957h-6.701z"/>
    <path fill="#2F2E41" d="M110.823 92.627c-.221-.294-.221-.589-.074-.883 1.031-1.915 2.43-5.449.515-7.584l-.147-.147h5.449v8.099l-4.934.883h-.147a.88.88 0 0 1-.662-.368"/>
    <path fill="#9F616A" d="m47.65 164.709 2.871 1.031 5.301-10.602-4.27-1.547z"/>
    <path fill="#2F2E41" d="m45.956 167.213 1.325-3.755 5.67 1.988c1.988.736 3.018 2.871 2.282 4.859l-.073.147z"/>
    <path fill="#9F616A" d="M66.351 167.507h3.019l1.472-11.78h-4.49z"/>
    <path fill="#2F2E41" d="M65.615 166.55h6.037a3.8 3.8 0 0 1 3.829 3.829v.147h-9.866z"/>
    <path fill="#F1F1F1" d="m59.43 92.333 1.325-2.65s4.934 1.25 5.375 4.122z"/>
    <path fill="#2F2E41" d="m53.908 122.299 3.608 20.101-9.572 16.934 5.743 2.209 9.719-16.419 1.252-4.491.736 23.413 5.154-.147 2.356-21.867-3.829-20.322z"/>
    <path fill="#0067AB" d="M60.755 127.085c-2.945.074-5.89-.294-8.762-1.031h-.147l2.725-12.811.147-11.781c.073-3.386 1.399-6.626 3.755-9.056.147-.589.589-1.104 1.178-1.399.81-.294 1.693-.22 2.503.147l4.05 1.547v.073c.073.147 5.375 17.597 5.375 17.597s-.295 15.241-.442 15.683c0-.073-7.437 1.031-10.382 1.031"/>
    <path fill="#9F616A" d="M64.879 88.872a5.448 5.448 0 1 0 0-10.897 5.448 5.448 0 0 0 0 10.897"/>
    <path fill="#000" d="m58.767 102.346 9.498 13.327 1.4-6.185z" opacity=".2"/>
    <path fill="#9F616A" d="M88.66 111.402c-1.03.81-2.503.663-3.313-.368-.073-.073-.147-.221-.22-.368l-8.173 1.325 1.767-3.902 7.51-.663c1.178-.515 2.577 0 3.092 1.178.442.958.221 2.136-.663 2.798"/>
    <path fill="#F1F1F1" d="m79.162 107.868 2.945-.295.81 4.124-3.681.073z"/>
    <path fill="#0067AB" d="m81.592 113.096-14.431-1.252-7.29-11.559v-.074c-.44-2.135.884-4.27 3.02-4.712 1.767-.368 3.607.442 4.417 2.062l4.27 8.32 8.615 1.325z"/>
    <path fill="#2F2E41" d="m60.24 88.21 4.491.147c.295 0 1.031-2.945 1.105-3.608.147-.81.883-1.399 1.767-1.325.368 0 1.178-.59 2.061-1.326 1.4-1.178 1.62-3.24.442-4.638-.22-.221-.442-.442-.662-.59-.074 0-.074-.073-.148-.073a8.6 8.6 0 0 0-3.829-.883c-1.177-.074-2.43.147-3.534.736-1.84 1.178-3.018 3.24-3.018 5.375s.515 4.27 1.398 6.258"/>
</svg>
