<svg xmlns="http://www.w3.org/2000/svg" fill="none" viewBox="0 0 184 184">
    <path fill="#BED830" d="M170.412 158.498q-.322.643-.661 1.269c-.173.316-.345.632-.528.945a4 4 0 0 1-.176.302q-.27.47-.55.927-.297.49-.604.963l-.101.162a32 32 0 0 1-.625.934 6 6 0 0 1-.198.291q-.306.437-.618.867a53 53 0 0 1-.722.963q-.062.08-.122.165-.35.447-.705.884-.4.489-.812.967-.454.523-.924 1.031a53 53 0 0 1-.765.82q-.382.389-.766.769a44 44 0 0 1-.945.905q-.101.095-.208.191-.388.363-.787.704-.468.41-.945.805-.453.378-.917.733a.3.3 0 0 1-.047.04q-.107.085-.226.176a43 43 0 0 1-2.735 1.951l-.047.033q-.465.306-.941.596a24 24 0 0 1-1.161.694q-.427.253-.859.489h-.004a29 29 0 0 1-1.035.557q-.47.246-.945.478a40 40 0 0 1-2.081.952c-.118.054-.244.104-.366.155q-.445.189-.891.363a44 44 0 0 1-1.194.449q-.507.185-1.02.359-.01-.001-.015.004-.565.189-1.135.366-.57.174-1.15.338l-.033.011c-.341.093-.682.191-1.024.277a12 12 0 0 1-1.355.33q-.103.024-.212.047l-.737.162q-.195.043-.391.079-.426.085-.852.165l-.097.018-.273.047-.266.047c-.191.032-.377.061-.572.09l-.575.086-.115.018-.639.086-.345.043a27 27 0 0 1-.744.086l-.345.036q-.202.023-.403.04-.013 0-.025.003c-.51.044-1.017.087-1.534.119l-.769.043q-.395.021-.795.036l-.578.018-.554.011q-.414.006-.834.007h-.079q-.41-.001-.819-.007a63 63 0 0 1-1.898-.061 46 46 0 0 1-1.757-.112 26 26 0 0 1-.758-.064 79 79 0 0 1-1.617-.169 51 51 0 0 1-1.452-.194c-.241-.036-.482-.069-.719-.108l-.151-.022-.651-.108a48 48 0 0 1-1.574-.291q-.316-.06-.632-.125-.113-.021-.23-.047a24 24 0 0 1-.697-.151 19 19 0 0 1-.762-.176 56 56 0 0 1-1.79-.446l-.068-.018a.3.3 0 0 0-.054-.014c-.061-.015-.119-.033-.183-.05-.241-.062-.486-.13-.723-.202q-.56-.157-1.125-.327-.392-.119-.79-.244c-.187-.058-.374-.115-.565-.18l-.075-.025-.32-.104-.061-.022q-.28-.09-.553-.187h-.004a68 68 0 0 1-1.578-.56l-.323-.119c-.327-.122-.654-.251-.985-.377-.349-.133-.694-.277-1.042-.417a.4.4 0 0 1-.079-.032.2.2 0 0 1-.054-.022c-.227-.09-.453-.187-.679-.28q-.66-.28-1.319-.557l-2.667-1.122q-.085-.032-.176-.072a3 3 0 0 0-.165-.068c-.809-.341-1.618-.683-2.437-1.024l-2.447-1.032-.018-.007a625 625 0 0 1-8.546-3.683q-.992-.438-1.988-.881-.393-.178-.787-.352c-.517-.234-1.035-.464-1.552-.701a290 290 0 0 1-4.342-2.005c-.19-.086-.373-.176-.56-.266l-.216-.101c-.482-.23-.96-.456-1.445-.69q-.72-.343-1.44-.697c-.483-.234-.957-.471-1.438-.708-.378-.187-.752-.37-1.129-.564-.1-.051-.208-.101-.309-.151l-.244-.122-1.402-.716a214 214 0 0 1-3.82-2.012q-.544-.296-1.09-.597-.652-.357-1.3-.718c-.428-.238-.859-.482-1.283-.719l-.025-.015-1.276-.733c-.428-.248-.859-.499-1.283-.751q-.642-.378-1.28-.762-1.201-.727-2.393-1.47a222 222 0 0 1-2.667-1.71 174 174 0 0 1-2.368-1.592l-.083-.058a88 88 0 0 1-1.175-.819c-.255-.18-.51-.356-.762-.543q-1.254-.892-2.487-1.818-.436-.329-.873-.662c-.298-.23-.596-.456-.895-.69a28 28 0 0 1-.747-.593c-.694-.55-1.38-1.107-2.067-1.671q-.577-.483-1.153-.977-.075-.06-.151-.126-.453-.389-.895-.776a101 101 0 0 1-5.01-4.705 91 91 0 0 1-5.628-6.199c-.14-.165-.28-.331-.41-.5-.19-.23-.37-.452-.553-.686a3 3 0 0 1-.144-.183q-.321-.4-.632-.805a75 75 0 0 1-1.894-2.548q-.29-.4-.568-.805-.245-.344-.482-.694c-.075-.108-.15-.223-.23-.334q-.279-.415-.557-.834c-.24-.367-.481-.737-.715-1.11C2.896 94.772 12.47 63.779 12.47 63.779s2.218-8.553 9.797-20.043l.097-.143c.047-.076.097-.148.148-.227 5.336-8.01 13.264-17.401 24.844-26.296q.108-.086.226-.176.015-.013.036-.025 1.222-.937 2.498-1.862c30.81-22.368 73.806-19.353 93.076 6.516 19.271 25.868 15.033 34.687 17.298 66.74 2.264 32.054 21.703 46.821 9.922 70.232z" class="dynamic-color" opacity=".15"/>
    <path fill="#E0E0E0" d="m112.156 181.89-.054-.014a68.5 68.5 0 0 1-8.327-2.814.4.4 0 0 1-.079-.032l-1.621-4.205h-.003l-.557-1.448-.011-.029h7.842l.061.18s.003.018.007.025q.007.026.018.057l.327.996z"/>
    <path fill="#263238" d="M108.889 173.287c.223.039.363.054.421.057h-2.009l-5.732.033.564 1.441c.496 1.283 1.042 2.702 1.642 4.248a.3.3 0 0 1-.079-.033.2.2 0 0 1-.054-.021q-.873-2.27-1.595-4.162-.005-.001-.004-.003l-.007-.022c-.201-.518-.388-1.013-.572-1.488v-.079h.087l5.85.032h1.488zm.454.061-.03-.004h.03zm2.881 8.56c-.025-.007-.046-.01-.068-.018q-.027-.01-.054-.014l-1.067-3.292a642 642 0 0 0-1.258-3.888l-.029-.09-.294-.927q-.013-.038-.018-.069-.013-.03-.018-.057l-.008-.025c-.025-.087-.043-.144-.05-.18.018.039.054.136.108.309l.32.949.018.046c.294.888.729 2.182 1.29 3.853.334 1.003.711 2.142 1.132 3.403z"/>
    <path fill="#263238" d="m102.075 174.825-.028.021a3 3 0 0 1-.356.256l-1.143.744-1.747 1.135a2 2 0 0 0-.165-.068 146 146 0 0 1 1.865-1.164l1.168-.705c.119-.075.245-.144.37-.201q.016-.012.033-.018zm18.351-6.113a7 7 0 0 1-.018.258q-.002.007-.004.007c-.219 2.419-2.013 4.338-5.29 5.186-.611.155-2.527.317-5.33.442h-.039c-2.103.094-4.694.169-7.612.212q-.031-.001-.061.004h-.036a416 416 0 0 1-8.295.025 625 625 0 0 1-8.546-3.683l-1.987-.881a68 68 0 0 0-.787-.352c-.518-.234-1.035-.464-1.553-.701a290 290 0 0 1-4.341-2.005q-.283-.13-.56-.266l-.216-.101c-.482-.23-.96-.456-1.445-.69q-.721-.343-1.441-.697c-.482-.234-.956-.471-1.438-.708-.377-.187-.75-.37-1.128-.564-.1-.051-.209-.101-.31-.151l-.244-.122c-.467-.238-.938-.478-1.401-.716a214 214 0 0 1-3.82-2.012q-.546-.296-1.09-.597c-.434-.237-.87-.478-1.3-.719-.428-.237-.86-.481-1.284-.718l-.025-.015-1.275-.733a167 167 0 0 1-4.956-2.983 222 222 0 0 1-2.667-1.71 174 174 0 0 1-2.368-1.592c-.03-.018-.054-.04-.083-.058-.36-17.764 1.416-42.896 2.11-45.746.675-2.771 4.01-4.003 6.142-4.514a15 15 0 0 1 1.818-.33q.485-.038.97-.047c3.375-.097 6.883.406 10.15 1.161a.3.3 0 0 1 .053.014q.147.032.295.068c.45.105.895.22 1.33.331.503.133.992.27 1.477.406a73 73 0 0 1 7.26 2.537c.984.399 1.796.751 2.385 1.021.712.323 1.111.521 1.111.521l-.586 13.563-.01.248-1.115 25.901-.01.255-.015.277-.568 13.207s35.579 3.529 37.984 6.498a.55.55 0 0 1 .122.262v.011q.018.13.025.255.037.394.022.766z"/>
    <path fill="#455A64" d="M120.422 168.978h-.672l-1.898.047c-1.649.043-4.039.061-6.99.057-5.915 0-14.062-.205-23.047-.841q-5.654-.41-11.292-1.02c-.19-.087-.373-.177-.56-.266l-.216-.101c3.73.413 7.817.776 12.1 1.085 8.981.64 17.129.859 23.026.92 2.099.022 3.917.029 5.384.033h4.007l.147.075.015.007z"/>
    <path fill="#FFBE9D" d="M157.093 171.073q-.087.206-.179.413c-.061.133-.122.273-.187.41-.618 1.39-1.287 2.85-2.002 4.355l-.047.033q-.465.306-.941.596a24 24 0 0 1-1.161.694q-.427.253-.859.489h-.004a29 29 0 0 1-1.035.557 40 40 0 0 1-3.026 1.43c-.118.054-.244.104-.366.155q-.445.189-.891.363a44 44 0 0 1-1.194.449q-.507.185-1.02.359-.01-.001-.015.004-.565.189-1.135.366-.57.174-1.15.338l-.033.011c-.341.093-.682.19-1.024.277a3 3 0 0 1-.216.054l-.779.194q-.18.043-.36.082-.103.024-.212.047l-.737.162a85 85 0 0 1-1.243.244l-.097.018-.273.047-.266.047c-.191.032-.377.061-.572.089l-.575.087c-.039.007-.075.01-.115.018l-.639.086-.345.043a27 27 0 0 1-.744.086l-.345.036q-.202.023-.403.04-.013 0-.025.003c-.51.043-1.017.087-1.534.119l-.769.043 4.477-10.555.191-.442.201-.475 2.71-6.375-8.898-.866-45.214-4.403 1.505-13.21.03-.266 8.276-.069 37.487-.323 16.154-.137h.622s.029-.003.079 0c.108 0 .327.007.633.033 2.648.208 11.805 1.628 12.24 11.439.108 2.422-1.445 7.029-3.964 12.797zm-32.535-67.543 2.207 6.688-12.05.931-1.402-3.579 11.249-4.04zm34.221 8.78c.234.457.834.532 1.294.769a2.62 2.62 0 0 1 1.326 2.451 5.75 5.75 0 0 1-.953 2.746 2.4 2.4 0 0 1-.715.848.92.92 0 0 1-1.042 0c-.352-.295-.313-.837-.237-1.287.284-1.696-.086-3.841.316-5.52zM78.636 28.42a3.013 3.013 0 0 1 2.344-3.343l13.3-8.38c5.071-1.126 11.461 7.255 12.367 12.312a84.2 84.2 0 0 1 1.074 16.819c-.366 8.657-6.095 9.58-6.095 9.58l4.302 28.78-20.73-12.65-6.565-43.119z"/>
    <path fill="#263238" d="M103.887 36.193a1.097 1.097 0 0 1-.931 1.218 1.076 1.076 0 0 1-1.254-.852 1.096 1.096 0 0 1 .93-1.218 1.077 1.077 0 0 1 1.255.852m1.71-3.109c-.107.115-.988.1-2.102.532-1.114.431-1.851 1.01-1.987.974s0-.187.337-.45a5.3 5.3 0 0 1 1.567-.873 4.8 4.8 0 0 1 1.697-.312c.384-.011.542.078.488.129M92.872 36.72a1.1 1.1 0 0 1-.935 1.22 1.074 1.074 0 0 1-1.247-.852 1.09 1.09 0 0 1 .93-1.219 1.077 1.077 0 0 1 1.255.852zm1.157-1.408c-.162.061-.989-.424-2.275-.61-1.287-.188-2.29 0-2.415-.084-.126-.082.122-.176.539-.276a5.7 5.7 0 0 1 1.955-.036 5 5 0 0 1 1.79.597c.38.219.506.388.402.413h.004zm5.251 7.238c.6-.27 1.232-.46 1.883-.571.294-.062.575-.151.607-.367a1.5 1.5 0 0 0-.302-.863 57 57 0 0 0-1.161-2.177 36.4 36.4 0 0 1-2.692-5.733 36.7 36.7 0 0 1 3.174 5.506l1.125 2.193c.233.34.334.75.291 1.16a.77.77 0 0 1-.446.496 2.2 2.2 0 0 1-.507.126 8.2 8.2 0 0 1-1.965.23z"/>
    <path fill="#3B1919" fill-opacity=".2" d="M101.623 55.43a21.6 21.6 0 0 1-11.831-1.595s3.532 5.983 12.028 4.194l-.201-2.599zm-2.211-10.012a3.2 3.2 0 0 0-2.447-1.23 1.36 1.36 0 0 0-1.247.889 2.12 2.12 0 0 0 .413 1.926c.446.575 1.19.83 1.894.654a2.96 2.96 0 0 0 1.37-1.125c.118-.126.208-.284.251-.45a.73.73 0 0 0-.162-.607l-.075-.057z"/>
    <path fill="#263238" d="M95.887 43.765c.194-.036.345 1.236 1.549 2.009s2.559.481 2.591.654c0 .079-.277.28-.855.367a3.25 3.25 0 0 1-2.153-.475 2.77 2.77 0 0 1-1.211-1.703c-.115-.55-.011-.86.075-.86v.008zM94.406 30.08c-.111.32-1.304.186-2.692.377-1.387.19-2.522.582-2.717.302-.086-.137.108-.439.54-.759a4.79 4.79 0 0 1 4.125-.532c.525.238.79.457.74.615h.004zm11.256.38c-.234.295-1.276.133-2.494.255-1.218.123-2.232.432-2.501.177-.123-.122 0-.41.434-.705a4.4 4.4 0 0 1 4.022-.352c.46.226.636.485.539.625"/>
    <path fill="#263238" d="M72.8 50.543c.216-3.86.841-16.212 3.357-22.95 2.515-6.739 6.055-9.758 9.707-11.177a8.77 8.77 0 0 1 8.495.927c1.873 1.312 2.958 5.62 2.958 5.62s-8.844 3.027-11.292 8.518c-2.832 6.282-3.342 9.337-3.342 9.337l-.762 3.35s1.66 14.55 2.412 17.562L72.34 73.21c.392-3.789.248-18.804.46-22.656z"/>
    <path fill="#263238" d="M97.58 22.982s5.124-1.147 7.712 4.442c1.171 2.522 2.332 10.185 2.332 10.185s.435-6.254-.244-9.657-2.908-7.554-5.847-9.657-5.161-2.893-9.754-2.099a7.5 7.5 0 0 1 3.62 2.092c.693.801 1.038 1.513 2.177 4.69h.004z"/>
    <path fill="#FFBE9D" d="M82.78 41.228a2.624 2.624 0 0 0-4.064-1.765c-.845.618-1.416 1.736-1.104 3.727.841 5.322 6.038 3.374 6.02 3.224-.018-.151-.489-3.001-.856-5.19h.004z"/>
    <path fill="#3B1919" fill-opacity=".2" d="M81.684 44.656a1.6 1.6 0 0 1-.226.176.97.97 0 0 1-.698.122 2.32 2.32 0 0 1-1.387-1.883c-.086-.45-.068-.92.054-1.362.047-.352.266-.661.586-.823a.49.49 0 0 1 .593.173c.1.136.075.244.108.251.032.007.1-.104 0-.32a.58.58 0 0 0-.263-.302.74.74 0 0 0-.539-.053 1.34 1.34 0 0 0-.852.974 3.1 3.1 0 0 0-.086 1.523c.097.978.776 1.8 1.715 2.081.301.036.607-.061.83-.273.176-.155.186-.277.169-.284z"/>
    <path fill="#455A64" d="M87.977 15.83c0 .043.74-.061 1.922-.043.69.014 1.377.133 2.031.356.794.29 1.524.73 2.153 1.297a9.9 9.9 0 0 1 2.634 3.727c.438 1.063.54 1.818.607 1.811a2.4 2.4 0 0 0-.075-.507 9.5 9.5 0 0 0-3.03-5.15 6.5 6.5 0 0 0-2.231-1.34 6.3 6.3 0 0 0-2.088-.324c-.479 0-.95.03-1.424.09q-.256.021-.506.08h.007z"/>
    <path fill="#455A64" d="M78.245 45.637v-.09l-.076-.24-.122-.392-.144-.532a12.6 12.6 0 0 1-.363-3.565c.069-1.779.51-3.522 1.294-5.118a14.5 14.5 0 0 1 4.194-4.934 28 28 0 0 1 2.828-1.894c.946-.564 1.898-1.031 2.782-1.552a35 35 0 0 0 4.388-3.13 46 46 0 0 0 2.692-2.427c.302-.301.539-.531.694-.697l.18-.187c.035-.043.057-.06.053-.068l-.065.054-.194.176-.704.686a52 52 0 0 1-2.739 2.376 36.5 36.5 0 0 1-4.388 3.087c-.873.532-1.832.974-2.785 1.545a27 27 0 0 0-2.843 1.905 14.6 14.6 0 0 0-4.262 5 12.6 12.6 0 0 0-1.269 5.189 12.2 12.2 0 0 0 .425 3.58l.161.531q.088.222.144.388l.1.241c.011.047.026.075.026.075h-.007z"/>
    <path fill="#455A64" d="M76.771 43.765v-.083l-.032-.255c0-.223-.086-.532-.13-.974a20.5 20.5 0 0 1-.057-3.612c.13-1.782.496-3.536 1.074-5.229.73-2.066 1.794-4 3.145-5.721a24 24 0 0 1 4.837-4.47c1.614-1.194 3.231-2.128 4.51-2.97 1.28-.84 2.358-1.487 3.073-1.972.36-.234.63-.432.81-.565l.211-.147.068-.057c-.028 0-.057.017-.079.043l-.222.133-.834.532a178 178 0 0 1-3.105 1.919c-1.32.801-2.886 1.757-4.547 2.947a23.4 23.4 0 0 0-4.837 4.485 20 20 0 0 0-3.198 5.79 20.4 20.4 0 0 0-1.075 5.279 19 19 0 0 0 .122 3.619c.054.424.13.747.17.974a1 1 0 0 0 .053.251c.022.061.036.083.043.083m28.708 20.499s6.929 2.789 8.258 6.361c1.33 3.572 11.411 33.063 11.411 33.063l-11.695 4.442-5.333-24.269-2.638-19.597z"/>
    <path fill="#FFBE9D" d="M157.46 174.304a43 43 0 0 1-2.735 1.951q-.023.017-.047.032-.465.307-.941.597a24 24 0 0 1-1.161.694q-.427.252-.859.488h-.004q-.511.29-1.035.557-.469.248-.945.478a38 38 0 0 1-2.081.953c-.118.054-.244.104-.366.154a40 40 0 0 1-2.085.813q-.507.185-1.02.359-.01-.001-.015.004-.565.188-1.135.366-.57.174-1.15.338l-.033.011c-.341.093-.682.19-1.024.276a2 2 0 0 1-.216.054l-.779.194q-.18.044-.36.083l-.212.047-.737.162c-.129.028-.262.053-.391.079q-.426.085-.852.165l-.097.018-.273.047c-.503-3.404-1.147-7.256-1.668-10.293-.539-3.127-.948-5.387-.948-5.387s-1.999.032-5.316.068c-2.303.029-5.247.057-8.593.079-9.581.068-22.486.086-33.297-.147-20.02-.439-17.329-18.782-17.329-18.782l-.1-.747s5.343-.248 13.207-.575c13.567-.572 34.626-1.395 48.61-1.668 7.554-.151 13.046-.136 14.188.162.92.241 1.765.528 2.53.877 2.983 1.344 4.823 3.63 5.539 7.863.251 1.492 1.513 8.086 3.194 16.819.18.917.356 1.855.547 2.818l-.007-.007z"/>
    <path fill="#3B1919" fill-opacity=".2" d="M157.093 171.073c-1.642-8.546-2.867-14.976-3.112-16.431-.65-3.864-2.206-6.293-5.164-7.803-.899-.46-1.926-.84-3.098-1.146-1.164-.305-6.667-.32-14.224-.18-13.995.273-35.03 1.1-48.629 1.668a3673 3673 0 0 0-13.236.579h-.302l.17.995c-.101.636-.92 8.14 3.661 13.498 3.03 3.537 7.716 5.406 13.934 5.546 10.763.237 23.708.219 33.315.143 3.32-.021 6.242-.05 8.539-.075 2.681-.032 4.506-.057 5.128-.068.118.675.507 2.828.974 5.574.51 2.972 1.118 6.645 1.592 9.897q.136-.023.266-.047l.273-.046a469 469 0 0 0-1.743-10.717c-.496-2.872-.866-4.92-.873-4.974l-.043-.223h.003l-.226.007c-.072 0-2.056.029-5.294.069-2.34.025-5.337.054-8.751.079-9.592.068-22.45.086-33.153-.148-6.06-.133-10.605-1.933-13.53-5.351-4.612-5.387-3.534-13.049-3.534-13.128v-.036l-.079-.485c1.24-.054 6.135-.273 12.88-.557q1.306-.053 2.7-.112c2.584-.104 5.383-.222 8.308-.334 12.374-.492 27.012-1.013 37.592-1.229 7.547-.147 13.031-.137 14.153.155a16 16 0 0 1 1.893.611c3.512 1.387 5.291 3.795 5.981 7.906.255 1.502 1.549 8.262 3.266 17.186.166.841.331 1.7.504 2.58q.112-.08.23-.176.113-.086.226-.176c-.205-1.042-.399-2.067-.593-3.058v.007zm-36.844-3.655a.54.54 0 0 1 .123.262v.011c3.349-.022 6.289-.05 8.592-.079l.033-.273c-2.34.025-5.337.054-8.751.079z"/>
    <path fill="#455A64" d="m131.685 143.824-.176 1.517-.018.176-.029.255-.029.27-.104.905-2.084 18.271-.241 2.124-.032.274-.029.258-.054.478-8.463.367-4.173.183-3.216.137c-10.807.276-28.313-1.229-37.07-2.077l-.216-.101c-.482-.23-.96-.457-1.445-.69q-.721-.343-1.441-.697c-.482-.234-.956-.471-1.438-.708-.377-.187-.75-.37-1.128-.565-.1-.05-.209-.1-.31-.15-.98-3.867-2.73-11.537-2.425-15.889.884-12.614 8.708-27.288 8.708-27.288l-.568-3.479-.173-1.045-.848-5.176-.215-1.329-.554-5.47-.097-.967-.36-3.59v-.04l-.032-.33-.007-.058-2.117-20.988 1.129-5.265 1.232-5.757.507-2.358v-.007l.076-.029s.014-.007.021-.007l3.328-1.178s.025-.011.036-.011l6.063-2.16.571-.202.018-.007 1.391 1.309 1.653 1.56 14.167 13.329 2.749 2.584-.017-.263-.816-12.564v-.014l-.27-4.154 2.322 1.063.014.029 6.825 13.779.108.223a32 32 0 0 1 1.94 2.77q.09.146.18.299l.029.05c3.439 5.678 3.547 10.39 3.062 15.055-.054.61-.277 1.56-.582 2.652q-.001.015-.008.025c-.772 2.789-2.088 6.516-2.634 8.036l-.237.661-.007.022h-.004l-.007 1.103-.007.722-.011 1.312v.248l-.244 30.034 11.604 1.66s.007-.004.011 0h.029l.916.133h.014l.112.018h.025l.769.119h.032l4.284.611.015-.008z"/>
    <path fill="#000" d="M109.091 145.337c-1.294.223-10.649.356-11.943.582a1.74 1.74 0 0 1-1.333-.14 1.1 1.1 0 0 1-.27-1.211 2.75 2.75 0 0 1 .787-1.064c2.265-2.127 5.208-3.36 8.069-4.564a4.75 4.75 0 0 1 2.86-.532 3.03 3.03 0 0 1 1.966 2.016c.273.938.385 1.916.334 2.89l-.467 2.02h-.003zm-33.879-27.812c3.342-.77 5.433-4.029 6.792-7.149s2.472-6.562 5.128-8.715c1.944-1.595 4.557-2.296 6.24-4.15a6.48 6.48 0 0 0 1.145-6.728 3.41 3.41 0 0 0-2.691-2.279c-1.452-.075-2.58 1.172-3.468 2.315a233 233 0 0 0-11.483 16.287c-1.93 3.008-3.852 6.656-2.512 9.966z" opacity=".3"/>
    <path fill="#FFBE9D" d="M75.23 66.758s-5.654 1.779-7.695 5.287-5.43 20.542-6.25 25.128c-.819 4.589-4.769 23.467 0 26.436 4.77 2.968 11.04-1.596 12.672-4.316 1.632-2.721 8.31-16.863 8.31-16.863l-5.995-4.988s1.074-13.487.682-16.323c-.391-2.835-1.728-14.361-1.728-14.361z"/>
    <path fill="#455A64" d="m57.505 101.777 13.114.848 5.99-6.962L78.267 84.7l-.438-20.978S66.123 66.55 63.593 75.355c-1.876 6.508-6.081 26.418-6.081 26.418h-.007z"/>
    <path fill="#FFBE9D" d="M80.714 76.968c-.751-.1-1.715.777-1.075 2.893.54 1.768 1.549 3.486 1.474 4.471-.076.985-.46 3.03-.46 4.097a29 29 0 0 1-.302 3.109l-8.924 10.645 7.727 6.749 6.117-9.506a3.47 3.47 0 0 0 2.914-.91l1.614-1.825s4.14-1.516 3.299-3.727c.755-.844.805-2.11.111-3.008 0 0 .583-1.926-.262-3.062 0 0-.075-2.58-.765-3.04s-7.867-.532-7.867-.532a37 37 0 0 0-1.348-3.475c-.79-1.283-1.19-2.75-2.235-2.886h-.008z"/>
    <path fill="#3B1919" fill-opacity=".2" d="M83.768 87.437c0 .025-.19-.075-.355-.323a1.75 1.75 0 0 1 .237-2.19c.215-.208.395-.272.413-.243-.32.38-.539.837-.64 1.322 0 .5.119.988.345 1.434m8.862-.729a15.8 15.8 0 0 1-3.32.582 15.3 15.3 0 0 1-3.367.111q1.66-.285 3.342-.388a30 30 0 0 1 3.346-.306m.636 3.045a9.6 9.6 0 0 1-2.792.66 9.5 9.5 0 0 1-2.865.094c0-.079 1.269-.162 2.829-.37s2.814-.456 2.828-.384m-.158 3.122c-1.391.42-2.854.565-4.302.42.708-.15 1.43-.243 2.153-.272a12.3 12.3 0 0 1 2.152-.148zm-6.775.96c0 .033-.147 0-.334-.1a1.174 1.174 0 0 1-.366-1.517c.104-.187.226-.262.251-.24a1.97 1.97 0 0 0-.09.998c.13.536.575.787.54.856zM84.573 91.3c0 .025-.18-.06-.345-.294a1.9 1.9 0 0 1-.352-1.025c-.021-.37.058-.74.237-1.063.144-.245.284-.353.313-.331a4.3 4.3 0 0 0-.27 1.373c.069.463.213.92.417 1.34m6.333 4.935a3.2 3.2 0 0 1-1.258.359 3.2 3.2 0 0 1-1.312.09c.388-.209.82-.33 1.258-.36a3.1 3.1 0 0 1 1.312-.09m-3.457-12.858c0 .079-1.075.079-2.437.216-1.362.136-2.412.341-2.433.266.762-.32 1.578-.5 2.404-.532a7.2 7.2 0 0 1 2.462.05z"/>
    <path fill="#E0E0E0" d="M111.056 108.96h44.449a2.943 2.943 0 0 1 2.958 2.926v31.187h-50.354v-31.194a2.945 2.945 0 0 1 2.944-2.919zm47.41 36.377h-59.15a2.256 2.256 0 0 1 2.267-2.246h56.883z"/>
    <path fill="#fff" d="M109.64 111.153h46.965v31.942H109.64z"/>
    <path fill="#263238" d="M156.601 143.07v-2.279c0-1.487 0-3.658-.032-6.436 0-5.556-.033-13.524-.058-23.224l.112.112h-46.954l.137-.137v31.935l-.122-.126 33.825.061 9.678.036h.054l-9.632.033-33.915.061h-.129v-32.111h47.212v.136c0 9.729-.043 17.725-.057 23.296v8.057a1.25 1.25 0 0 1-.115.579v.007z"/>
    <path fill="#263238" d="M158.218 143.073c0 .079-12.697.137-28.355.137s-28.363-.058-28.363-.137 12.697-.136 28.363-.136c15.665 0 28.355.082 28.355.136"/>
    <path fill="#BED830" d="M133.119 139.343c6.816 0 12.341-5.469 12.341-12.216s-5.525-12.215-12.341-12.215-12.341 5.469-12.341 12.215c0 6.747 5.525 12.216 12.341 12.216" class="dynamic-color"/>
    <path fill="#fff" d="m125.45 127.422 2.612-2.451 3.609 3.285 7.105-6.616 2.58 2.418-9.721 9.132-6.185-5.771z"/>
    <path fill="#3B1919" fill-opacity=".2" d="M80.35 91.541c.058.047-3.647 4.475-8.28 9.887-4.636 5.405-8.43 9.75-8.492 9.714-.06-.036 3.648-4.471 8.28-9.887 4.633-5.415 8.435-9.76 8.493-9.714"/>
    <path fill="#263238" d="M79.715 84.68a38 38 0 0 1-.64 4.6 39 39 0 0 1-.913 4.558c.119-1.546.334-3.084.64-4.604a40 40 0 0 1 .913-4.553m34.443 23.184a1.7 1.7 0 0 1 .086-.32l.291-.895c.259-.769.64-1.891 1.075-3.278a48 48 0 0 0 1.301-4.941c.431-2.038.625-4.115.575-6.196a24.5 24.5 0 0 0-3.141-10.785 32 32 0 0 0-1.83-2.925c-.226-.335-.416-.586-.539-.759a2 2 0 0 1-.179-.28q.121.109.223.244c.136.173.348.41.593.74.7.92 1.34 1.887 1.919 2.89a26 26 0 0 1 2.102 4.694 22.3 22.3 0 0 1 1.157 6.18 26 26 0 0 1-.607 6.261 46 46 0 0 1-1.366 4.949 81 81 0 0 1-1.161 3.256q-.212.532-.337.881a1.3 1.3 0 0 1-.166.294v-.007h.004zM102.737 91.29a4.4 4.4 0 0 1 0 .744c0 .29-.022.585-.065.873-.04.385-.097.77-.18 1.15q-.129.691-.345 1.362a14 14 0 0 1-.539 1.528 17.3 17.3 0 0 1-1.84 3.194c-.744.996-1.6 1.905-2.544 2.717a14 14 0 0 1-1.301.978q-.584.41-1.211.74a9 9 0 0 1-1.075.532 6 6 0 0 1-.82.324 4.4 4.4 0 0 1-.718.219c-.025-.058 1.01-.37 2.49-1.229.407-.23.802-.486 1.18-.755.416-.277.822-.629 1.26-.985a16.5 16.5 0 0 0 4.302-5.858q.307-.732.54-1.491.222-.66.37-1.34a22 22 0 0 0 .496-2.707z"/>
    <path fill="#263238" d="M117.518 96.127a.4.4 0 0 1-.075-.1l-.191-.324c-.18-.295-.417-.69-.726-1.186s-.787-1.103-1.286-1.793c-.5-.69-1.136-1.449-1.808-2.293-2.764-3.342-6.846-7.734-11.526-12.42-4.679-4.687-9.07-8.777-12.29-11.713l-2.196-1.94c-.644-.565-1.204-1.064-1.671-1.449l-1.075-.895-.277-.24a.4.4 0 0 1-.09-.09q.06.029.108.068c.08.057.18.126.291.22l1.114.858 1.704 1.416c.661.564 1.402 1.211 2.22 1.92 3.264 2.87 7.667 6.953 12.367 11.64a167 167 0 0 1 11.475 12.485c.665.859 1.269 1.628 1.787 2.321l1.247 1.833c.284.532.539.917.682 1.219l.173.32q.054.155.043.154zm-10.444 24.625a1 1 0 0 1-.301.057l-.877.123c-.762.1-1.876.219-3.231.341a110.3 110.3 0 0 1-21.506-.269 66 66 0 0 1-3.23-.425l-.877-.136a1.3 1.3 0 0 1-.302-.068c.1-.015.208-.015.312 0l.88.089c.763.09 1.877.209 3.232.335 2.738.262 6.54.532 10.752.582s8.007-.122 10.753-.313c1.369-.093 2.484-.183 3.231-.251l.881-.069q.141-.011.283.004"/>
    <path fill="#FFBE9D" d="M130.366 108.921s8.809-3.4 9.642-3.673 8.532-.87 8.532-.87l9.93 3.529s.09 2.017-2.221 1.747a42 42 0 0 1-6.027-1.47l-1.391.823-18.458-.086zm27.619 1.294c.233.46.833.532 1.293.776.87.5 1.384 1.449 1.327 2.451a5.74 5.74 0 0 1-.953 2.742 2.44 2.44 0 0 1-.704.841.92.92 0 0 1-1.042 0 1.33 1.33 0 0 1-.238-1.286c.284-1.697-.086-3.846.317-5.528z"/>
    <path fill="#fff" d="m64.452 55.477-4.435-7.734c5.678-9.128 3.378-21.085-5.287-27.453-8.69-6.419-20.819-5.236-28.104 2.746-7.238 7.942-7.137 20.122.234 27.945 7.41 7.856 19.558 8.841 28.14 2.282l9.448 2.214z"/>
    <path fill="#263238" d="m64.451 55.477-9.473-2.127h-.13l.08-.105.115.115a21.04 21.04 0 0 1-10.038 4.194c-1.1.151-2.206.212-3.313.173-.572-.032-1.154-.047-1.74-.093l-1.771-.263a21.16 21.16 0 0 1-13.09-8.316 20.5 20.5 0 0 1-3.543-7.982 21 21 0 0 1 .248-9.222 20.4 20.4 0 0 1 4.489-8.517 21.06 21.06 0 0 1 8.068-5.707 21.6 21.6 0 0 1 9.39-1.427 20.8 20.8 0 0 1 8.6 2.523 21.06 21.06 0 0 1 9.96 12.043 22.4 22.4 0 0 1 .909 6.746 20.5 20.5 0 0 1-3.13 10.274v-.082l4.366 7.777c-.291-.493-1.657-2.829-4.507-7.698v-.08a20.4 20.4 0 0 0 3.04-10.199 22 22 0 0 0-.923-6.652 20.84 20.84 0 0 0-9.833-11.913 20.4 20.4 0 0 0-8.481-2.47 21.2 21.2 0 0 0-9.243 1.417 20.7 20.7 0 0 0-7.936 5.62 20 20 0 0 0-4.42 8.389 20.6 20.6 0 0 0-.252 9.077 20.25 20.25 0 0 0 3.472 7.903 20.87 20.87 0 0 0 12.906 8.234l1.75.266c.582.047 1.153.06 1.714.1a19 19 0 0 0 3.26-.15 20.95 20.95 0 0 0 9.969-4.094l.539-.403-.403.532-.046-.125 9.397 2.253z"/>
    <path fill="#BED830" d="M38.623 34.137h1.322l2.882-3.982v-2.613s2.045-.122 1.808 3.296 0 2.548 0 2.548 4.342 0 4.7.392c.263.266.382 4.532.425 6.846a2.49 2.49 0 0 1-1.79 2.523 1.7 1.7 0 0 1-.467.06c-1.075 0-6.609-.873-6.609-.873h-2.286l.015-8.204zm-3.788-.719.82 8.949h2.263v-8.765l-3.08-.184z" class="dynamic-color"/>
</svg>
