<svg xmlns="http://www.w3.org/2000/svg" fill="none" viewBox="0 0 184 184">
    <path fill="#FFC33E" d="M63.117 163.49s25.922 3.261 46.53-15.526c20.609-18.788 26.566-48.416 32.04-72.279s-5.267-44.58-25.485-50.643c-20.217-6.063-29.21 11.415-54.327 17.685S29.17 46.884 11.344 65.763s-14.215 53.4 7.82 74.69c22.034 21.291 43.953 23.037 43.953 23.037" class="dynamic-color" opacity=".15"/>
    <path fill="#263238" d="M57.643 26.237c-3.818 2.342-6.463 6.247-8.05 10.427-1.564 4.18-2.162 8.681-2.645 13.091-1.242 11.76-1.633 23.588-1.242 35.393C60.15 86.962 74.71 88.8 89.223 87.812c-2.53-16.56-4.117-33.096-2.093-49.747"/>
    <path fill="#FFC33E" d="M108.359 130.417c.023.206.023.413-.046.597a1.3 1.3 0 0 1-.276.528 1.5 1.5 0 0 1-.46.368 1.2 1.2 0 0 1-.552.137l-22.563 1.195-.897-6.156-4.002 15.549 8.786 17.731c-13.755 4.571-25.232 3.124-25.232 3.124s-1.909-.161-5.175-.919c-.023 0-.069 0-.092-.023-5.842-1.378-15.962-4.685-27.163-12.54l4.048-10.267-4.232-16.169-.115 3.239-19.136-6.776s4.208-16.329 8.349-27.446C23.74 81.496 32.274 79.2 32.274 79.2c19.182-6.545 36.432-6.591 54.856-.206.598.183 1.173.39 1.725.597h.046c13.685 5.351 15.088 19.775 15.088 19.775z" class="dynamic-color"/>
    <path fill="#263238" d="M59.3 121.344v1.677c0 1.079 0 2.641-.047 4.57-.069 3.882-.276 9.21-.552 15.113-.253 5.903-.506 11.231-.644 15.09-.046 1.906-.092 3.468-.115 4.57v.207s-.069 0-.092-.023v-.184c0-1.079 0-2.641.046-4.57.07-3.882.276-9.21.552-15.113.253-5.88.506-11.231.644-15.09.046-1.906.092-3.468.138-4.57 0-.528 0-.942.023-1.24 0-.161 0-.299.046-.437"/>
    <path fill="#FFC33E" d="m11.275 119.829-2.163 10.105c-1.84 8.728 4.624 17.662 13.479 18.673l47.15 4.823a18.8 18.8 0 0 0 7.407-.643 18.8 18.8 0 0 0 6.555-3.468 18.6 18.6 0 0 0 4.692-5.742 18.35 18.35 0 0 0 2.093-7.12l-59.433-5.65.368-5.696-20.171-5.305z" class="dynamic-color"/>
    <path fill="#FFBE9D" d="m70.224 130.186 3.657-.689s8.671-9.485 10.305-9.6c1.334-.115 8.717-.046 11.316 0 .23 0 .46.092.62.276a.885.885 0 0 1 0 1.24 1.03 1.03 0 0 1-.62.276l-8.717.344-.046.712 8.74.115c.897.069 1.449 1.47-1.38 1.722l-7.314.253v.459l7.406 1.034c.368.046 1.357.253 1.357.62 0 0 .46.919-1.656 1.194-.713.092-7.153-.114-7.153-.114l.253.597 6.67 1.424c.23.046.437.183.575.39a1 1 0 0 1 .16.666c-.022.23-.16.459-.344.62a.9.9 0 0 1-.667.207l-7.107-.643-6.992 5.558h-9.362l.3-6.615z"/>
    <path fill="#FAFAFA" d="M47.063 74.605s9.177 46.9 12.42 46.555 18.423-44.947 18.423-44.947-19.389-5.902-30.843-1.608"/>
    <path fill="#263238" d="M87.705 120.012s-.161-3.238-.161-7.235c0-3.996.069-7.211.16-7.211.093 0 .162 3.238.162 7.211s-.07 7.235-.161 7.235m-56.375.299c0-.689.07-1.401.185-2.067.16-1.287.39-3.055.69-4.984.276-1.953.552-3.721.759-4.984.092-.689.23-1.378.414-2.044 0 .689-.07 1.401-.184 2.09a173 173 0 0 1-.69 4.984c-.3 1.929-.552 3.697-.76 4.984-.091.689-.23 1.378-.413 2.044zm46.485-44.167s.023.207.091.597c.093.552.253 1.103.46 1.608.346.827.737 1.608 1.197 2.389a32 32 0 0 1 1.678 3.146 7.6 7.6 0 0 1 .713 4.272 5.45 5.45 0 0 1-.965 2.251 15 15 0 0 1-1.68 1.93 30 30 0 0 0-3.565 4.087 9.9 9.9 0 0 0-1.84 5.398c0 .964.207 1.929.621 2.825.437.873.828 1.768 1.15 2.664.161.459.207.942.184 1.447a2.95 2.95 0 0 1-.437 1.378 8 8 0 0 1-1.978 1.86l-7.475 5.49-5.037 3.674-1.38.988-.368.253-.138.068.115-.114.345-.276 1.357-1.033 4.968-3.767 7.43-5.535a7.5 7.5 0 0 0 1.908-1.792c.23-.367.368-.804.414-1.24 0-.459-.046-.919-.184-1.332a24 24 0 0 0-1.15-2.641 6.5 6.5 0 0 1-.644-2.94 10.1 10.1 0 0 1 1.91-5.558 29.6 29.6 0 0 1 3.633-4.134c1.22-1.195 2.347-2.504 2.577-4.02a7.34 7.34 0 0 0-.667-4.134 31 31 0 0 0-1.634-3.146 18 18 0 0 1-1.15-2.435 6.7 6.7 0 0 1-.413-1.653c0-.138-.047-.3-.047-.437 0-.046 0-.092.024-.138zm-18.378 44.534H59.3l-.414-.069a13 13 0 0 1-1.587-.436 15.7 15.7 0 0 1-5.244-2.986 15.54 15.54 0 0 1-4.807-7.487 16.4 16.4 0 0 1-.598-5.283c.046-.942.184-1.86.368-2.779.23-.919.253-1.86.069-2.779a2.26 2.26 0 0 0-.713-1.125 3.6 3.6 0 0 0-1.219-.598c-.437-.137-.897-.275-1.357-.459a4.1 4.1 0 0 1-1.196-.78c-.644-.69-1.081-1.54-1.22-2.458a10 10 0 0 1-.137-2.619 35.7 35.7 0 0 1 1.955-8.75 37 37 0 0 1 2.507-5.512c.345-.598.644-1.103.851-1.401l.23-.368s.046-.092.092-.115c0 0 0 .046-.069.138l-.207.368c-.184.321-.46.803-.805 1.424-.943 1.768-1.725 3.628-2.392 5.512a37.7 37.7 0 0 0-1.886 8.704c-.07.85 0 1.7.16 2.527.139.873.553 1.653 1.151 2.297.322.298.713.55 1.104.712.414.183.874.298 1.334.436.483.138.92.367 1.334.666.391.344.69.78.828 1.286a6.9 6.9 0 0 1-.069 2.917 15.6 15.6 0 0 0-.368 2.756 15.7 15.7 0 0 0 .598 5.168 15.5 15.5 0 0 0 4.67 7.418 16.2 16.2 0 0 0 5.128 3.055c.667.23 1.196.39 1.564.482l.414.115h.07z"/>
    <path fill="#FFC33E" d="m84.255 130.255-39.492-1.263.069 13.092 26.151 5.741 18.4 2.94c11.432 0 20.586-10.473 18.815-21.75h-.046l-23.874 1.263z" class="dynamic-color"/>
    <path fill="#263238" d="M95.134 130.003a4 4 0 0 1-.506.046l-1.472.046-5.405.091c-4.554.069-10.856.138-17.826.069-6.969-.069-13.27-.321-17.802-.597-2.277-.161-4.117-.298-5.359-.436l-1.449-.138c-.184 0-.345-.023-.506-.069h.506l1.472.092c1.265.092 3.128.207 5.36.322 4.553.252 10.855.459 17.801.528 6.97.069 13.249 0 17.803 0h6.877c.184 0 .345 0 .529.046z"/>
    <path fill="#FFBE9D" d="m44.418 130.186-3.657-.689s-8.671-9.485-10.304-9.6c-1.334-.115-8.717-.046-11.293 0-.23 0-.46.092-.621.276a.885.885 0 0 0 0 1.24c.16.161.368.276.598.276l8.717.344.046.712-8.74.115c-.897.069-1.45 1.47 1.38 1.722l7.314.253v.459l-7.406 1.034c-.368.046-1.357.253-1.38.62 0 0-.437.919 1.656 1.194.736.092 7.153-.114 7.153-.114l-.253.597-6.647 1.424a.9.9 0 0 0-.575.39c-.138.184-.184.436-.161.666s.16.459.345.62.437.23.667.207l7.107-.643 6.992 5.558h9.338l-.276-6.615z"/>
    <path fill="#263238" d="M88.67 150.513h-.436l-1.265-.138a151 151 0 0 1-4.692-.597 289 289 0 0 1-15.388-2.573 292 292 0 0 1-15.226-3.422 166 166 0 0 1-4.554-1.194l-1.242-.368c-.138-.046-.3-.091-.437-.137.16 0 .299.046.437.091l1.242.299 4.6 1.125c3.887.919 9.246 2.159 15.226 3.331a372 372 0 0 0 15.342 2.664l4.669.689 1.265.207c.138 0 .299 0 .437.046zm-43.493-8.406a8.6 8.6 0 0 1-.345-1.861 57 57 0 0 1-.414-4.547 52 52 0 0 1-.046-4.571c0-.643.046-1.263.138-1.883.069.62.092 1.263.069 1.883 0 1.195.046 2.779.138 4.548.092 1.768.23 3.376.322 4.547.092.62.115 1.263.115 1.884zm4.301.528a3.3 3.3 0 0 1-.184-.505 19 19 0 0 1-.322-1.378c-.644-3.078-.828-6.248-.598-9.394.046-.597.115-1.08.161-1.424 0-.184.046-.345.115-.505 0 .643 0 1.309-.046 1.952a47 47 0 0 0 .046 4.685c.115 1.838.322 3.468.53 4.663.137.643.252 1.286.298 1.929zm-3.634-11.3s-.184.207-.184.597c0 .092 0 .207.069.299.046.091.092.183.184.252a.53.53 0 0 0 .322.092c.115 0 .23-.046.322-.092.115-.046.184-.138.253-.252a.9.9 0 0 0 .069-.345c0-.092-.069-.184-.115-.276a.66.66 0 0 0-.23-.206c-.322-.184-.598-.069-.598-.115s.253-.253.69-.069c.138.046.23.138.322.23a.8.8 0 0 1 .184.367c0 .184 0 .345-.092.505a.72.72 0 0 1-.368.368.8.8 0 0 1-.506.115c-.184-.023-.345-.069-.483-.184a.9.9 0 0 1-.23-.344c-.046-.138-.069-.276-.046-.414.069-.459.414-.574.414-.528zm7.176 13.229h-1.587a32.5 32.5 0 0 0-4.232.391 57 57 0 0 0-6.164 1.378c-2.3.597-4.83 1.332-7.521 1.929-2.53.597-5.152.873-7.751.85a19.2 19.2 0 0 1-6.233-1.195 14.5 14.5 0 0 1-3.726-2.09 14 14 0 0 1-.874-.78 4 4 0 0 1-.277-.299s.415.39 1.197.988a14.6 14.6 0 0 0 3.726 1.998 19.8 19.8 0 0 0 6.21 1.125c2.576 0 5.152-.276 7.659-.85 2.69-.597 5.198-1.309 7.521-1.906a57 57 0 0 1 6.21-1.309 29 29 0 0 1 4.278-.299c.506 0 .897 0 1.173.046.138 0 .276 0 .414.046z"/>
    <path fill="#FFBE9D" d="M70.385 80.14c.944-5.213 2.024-10.702 2.024-10.702s6.947.069 9.89-8.475c2.807-8.154 4.854-27.768 4.854-27.768-4.462-2.756-9.637-4.11-14.882-3.835a25.8 25.8 0 0 0-14.398 5.328L50.95 77.293c-.805 4.938 2.806 9.577 8.12 10.38 5.358.828 10.418-2.503 11.315-7.532"/>
    <path fill="#263238" d="M82 47.871a1.1 1.1 0 0 1-.46.735c-.23.184-.551.253-.827.207a.86.86 0 0 1-.414-.115 1 1 0 0 1-.345-.275 1.3 1.3 0 0 1-.207-.39.94.94 0 0 1-.023-.437c.046-.299.207-.551.46-.735a1.08 1.08 0 0 1 .828-.207c.138 0 .276.046.414.115q.207.103.345.276c.092.114.16.252.207.39s.046.276.046.436zm2.048-.941c-.161.115-.92-.666-2.116-.873-1.22-.207-2.208.23-2.323.069-.046-.069.138-.322.598-.528a3.14 3.14 0 0 1 1.886-.23 3 3 0 0 1 1.656.873c.299.344.368.643.299.689m-14.536-1.057a1.1 1.1 0 0 1-.46.735 1.06 1.06 0 0 1-.829.207 1.02 1.02 0 0 1-.736-.39 1.13 1.13 0 0 1-.253-.804c.046-.299.207-.552.46-.735a1.08 1.08 0 0 1 .828-.207c.3.023.552.184.736.39.184.23.276.506.254.804"/>
    <path fill="#263238" d="M71.282 45.138c-.16.115-.92-.666-2.116-.872-1.219-.207-2.208.252-2.323.069-.046-.07.138-.322.598-.529a3.14 3.14 0 0 1 1.886-.23 3 3 0 0 1 1.656.873c.3.345.368.644.3.69m2.829 9.761a7.6 7.6 0 0 1 2.047 0c.322 0 .598 0 .713-.184a1.46 1.46 0 0 0-.046-.942c-.161-.804-.322-1.654-.506-2.526-.69-3.56-1.127-6.5-.966-6.546.138-.046.805 2.848 1.495 6.43.16.897.322 1.723.46 2.527.138.414.115.85-.046 1.24a1.3 1.3 0 0 1-.253.253c-.092.069-.23.092-.345.115a2.2 2.2 0 0 1-.552 0 8.5 8.5 0 0 1-2.001-.368"/>
    <path fill="#3B1919" fill-opacity=".2" d="M72.41 69.415A22.9 22.9 0 0 1 61.162 64.2s1.794 6.546 10.718 7.281l.507-2.044zm.667-11.645a2.2 2.2 0 0 0-.76-.827 2.5 2.5 0 0 0-1.057-.367c-.276-.023-.553 0-.806.092-.252.092-.505.23-.712.413a1.36 1.36 0 0 0-.415.666 1.3 1.3 0 0 0 .047.781c.16.253.39.46.644.574.275.115.575.161.873.115a5.2 5.2 0 0 0 1.725-.643c.162-.069.3-.183.415-.298.045-.07.091-.138.114-.207 0-.092 0-.16-.022-.23"/>
    <path fill="#263238" d="M70.386 55.13c.207 0-.046 1.331.92 2.48.966 1.125 2.392 1.24 2.392 1.424 0 .092-.368.206-.943.114a3.3 3.3 0 0 1-2.001-1.102 2.88 2.88 0 0 1-.736-2.044c.069-.597.276-.896.368-.873M63.83 28.395c2.346 5.19 9.983 11.484 15.87 13.735-.528-1.08-3.84-4.089-4.37-5.145 2.393 2.572 5.82 6.086 9.43 6.959.415.138.875.16 1.289.046.23-.138.437-.299.598-.528.16-.207.253-.46.299-.735a36.4 36.4 0 0 0 1.242-8.016 8.9 8.9 0 0 0-2.093-6.27c-2.001-2.25-5.29-3.33-8.441-3.996-2.645-.552-5.405-.919-8.028-.414-2.599.506-5.037 1.999-5.819 4.203"/>
    <path fill="#263238" d="M49.777 47.894c-.046-2.02.023-4.019.23-6.017.598-4.57 2.024-21.222 17.411-16.927l-1.633 4.272s1.196 10.703-6.716 16.468c0 0 .046 10.702-5.428 14.56 0 0-3.818-7.257-3.84-12.31"/>
    <path fill="#FFBE9D" d="M59.391 44.932a5.36 5.36 0 0 0-2.875-.322 3.78 3.78 0 0 0-2.392 1.516c-.529.827-.713 1.837-.529 2.802s.598 1.86 1.196 2.641c.391.574.897 1.08 1.495 1.424.3.16.644.276 1.012.276.345 0 .69-.07 1.012-.23"/>
    <path fill="#3B1919" fill-opacity=".2" d="M57.873 50.536s-.414.55-1.219.16a1.8 1.8 0 0 1-.552-.459 1.75 1.75 0 0 1-.345-.643c-.184-.528-.23-1.08-.184-1.654a2.44 2.44 0 0 1 .69-1.584q.276-.276.621-.414c.23-.092.483-.115.736-.092.897.138 1.058.804.943.804s-.368-.321-.966-.275a1.7 1.7 0 0 0-.966.574c-.23.298-.368.689-.345 1.056-.069.988.138 1.93.621 2.251.483.299.92.184.966.276"/>
    <path fill="#263238" d="M57.85 53.04c-2.392 14.239-.437 28.777 0 43.2.046 1.379.046 2.826-.598 4.066-.943 1.86-3.174 2.779-5.267 2.894s-4.163-.368-6.256-.528c-.23-1.378-.437-2.756-.667-4.157-.69 1.584-1.403 3.192-2.093 4.754.92-10.106 1.932-20.234 3.013-30.34M142.4 59.677a7.3 7.3 0 0 1 0-2.986 7.3 7.3 0 0 1 0 2.986"/>
    <path fill="#FFC33E" d="M182.903 63.513h-5.52l-15.41.046-53.2.114h-.115l-.046-.137a13.3 13.3 0 0 1-.299-6.156 13.15 13.15 0 0 1 2.53-5.627c1.265-1.653 2.921-2.962 4.807-3.858a13.05 13.05 0 0 1 6.026-1.263l-.207.252a11.8 11.8 0 0 1-.414-3.583c.161-4.11 2.507-8.084 6.095-9.922a12.1 12.1 0 0 1 5.635-1.378c1.956 0 3.888.506 5.636 1.424l-.276.092a17.6 17.6 0 0 1 4.14-5.88 17.45 17.45 0 0 1 6.164-3.72c4.393-1.608 9.269-1.378 13.087.597a17.84 17.84 0 0 1 8.096 8.842 16.92 16.92 0 0 1 1.012 10.588l-.138-.16a12.56 12.56 0 0 1 6.164.895 13 13 0 0 1 4.577 3.124 8.2 8.2 0 0 1 1.449 2.067c.322.712.575 1.424.759 2.182.299 1.309.483 2.641.529 3.996a22.4 22.4 0 0 1-.483 5.535c-.092.46-.23.942-.391 1.378a6 6 0 0 0-.161.46" class="dynamic-color"/>
    <path fill="#E0E0E0" d="M176.164 43.095h-2.3v-13.78a6.03 6.03 0 0 0-1.771-4.25 6.05 6.05 0 0 0-4.255-1.768 6.05 6.05 0 0 0-4.255 1.768 6.03 6.03 0 0 0-1.771 4.25v13.803h-2.3V29.314c0-2.205.874-4.318 2.438-5.88A8.33 8.33 0 0 1 167.838 21c2.208 0 4.324.873 5.888 2.435a8.3 8.3 0 0 1 2.438 5.88v13.803z"/>
    <path fill="#E0E0E0" d="M177.199 36.962H158.5a2.01 2.01 0 0 0-2.024 2.021v10.543a2.01 2.01 0 0 0 2.024 2.02h18.699a2.01 2.01 0 0 0 2.024-2.02V38.983a2.01 2.01 0 0 0-2.024-2.02"/>
    <path fill="#455A64" d="M167.838 44.243a1.97 1.97 0 0 1-1.058-.322 2 2 0 0 1-.713-.85 2 2 0 0 1-.115-1.102 1.75 1.75 0 0 1 .529-.964c.276-.276.598-.437.966-.529a1.82 1.82 0 0 1 1.104.115c.345.161.644.39.851.712s.322.69.322 1.057c0 .505-.207.987-.552 1.332a1.9 1.9 0 0 1-1.334.551"/>
    <path fill="#455A64" d="M168.367 43.095h-1.035v3.904h1.035z"/>
</svg>
