<svg xmlns="http://www.w3.org/2000/svg" fill="none" viewBox="0 0 184 184">
    <path fill="#FFC33E" d="M171.389 39.096c-9.316-13.934-25.141-23.838-41.887-24.091-16.745-.254-33.675 10.134-39.31 25.91-2.76 7.693-2.83 16.054-4.463 24.069-1.61 8.015-5.36 16.353-12.674 19.969-9.914 4.905-21.668-.691-32.71-.162-12.49.6-23.852 9.743-28.246 21.466s-2.254 25.404 4.44 35.976c6.693 10.572 17.596 18.126 29.488 22.042 11.892 3.892 39.91 6.172 52.307 4.514a70.7 70.7 0 0 0 17.252-2.856c17.045-5.067 30.938-13.589 42.462-25.589 13.755-14.302 22.335-33.396 24.244-53.157 1.587-16.698-1.61-34.157-10.926-48.091z" opacity=".15"/>
    <path fill="#E0E0E0" d="m153.586 29.607-.046 96.297q0 1.071-.415 2.072a5.6 5.6 0 0 1-1.173 1.751 5.6 5.6 0 0 1-1.748 1.174 5.3 5.3 0 0 1-2.07.415l-142.705-.069a5.4 5.4 0 0 1-2.07-.415 5.6 5.6 0 0 1-1.749-1.174 5.6 5.6 0 0 1-1.173-1.751 5.3 5.3 0 0 1-.414-2.073l.092-96.296c0-1.428.575-2.787 1.587-3.8a5.34 5.34 0 0 1 3.796-1.567l142.705.07a5.4 5.4 0 0 1 3.818 1.589 5.43 5.43 0 0 1 1.588 3.823z"/>
    <path fill="#263238" d="M153.585 29.607v-.323c0-.138 0-.276-.046-.414a5 5 0 0 0-.115-.553 5.7 5.7 0 0 0-.621-1.497 5.4 5.4 0 0 0-1.518-1.612 5 5 0 0 0-1.196-.622c-.46-.184-.966-.276-1.449-.323H6.142c-.46 0-.944 0-1.404.07-.46.069-.92.184-1.357.368a5.2 5.2 0 0 0-2.185 1.727 5 5 0 0 0-.368.6 8 8 0 0 0-.299.621 5.5 5.5 0 0 0-.322 1.382c-.023.46-.023.944-.023 1.428v43.738c0 16.675 0 33.926-.023 51.614 0 .553.092 1.083.253 1.613.161.506.414 1.013.713 1.451.322.437.69.829 1.127 1.174.437.323.897.599 1.426.783 1.012.415 2.14.323 3.22.323h89.71l43.45.069h7.568c.414 0 .828 0 1.219-.046a4.8 4.8 0 0 0 1.173-.277 5.06 5.06 0 0 0 2.001-1.312 5.5 5.5 0 0 0 1.242-2.05c.069-.185.092-.392.161-.576.046-.184.069-.392.092-.599.023-.391.023-.783.023-1.198v-20.567c0-23.17.046-41.918.046-54.885 0-6.472 0-11.516.023-14.925v-5.205 95.582c0 .392 0 .807-.023 1.198 0 .207-.046.415-.092.599-.023.207-.092.391-.161.599a5.46 5.46 0 0 1-1.265 2.096 5.3 5.3 0 0 1-2.047 1.335 5.5 5.5 0 0 1-1.219.3c-.414.046-.828.046-1.265.046H96.54l-48.028-.046H5.222a5.3 5.3 0 0 1-3.083-1.129 5.7 5.7 0 0 1-1.15-1.197 5.4 5.4 0 0 1-.736-1.497A5.8 5.8 0 0 1 0 125.811c0-17.688 0-34.962.023-51.614V30.482c0-.484 0-.967.023-1.45a5.2 5.2 0 0 1 .345-1.429c.092-.23.184-.46.3-.668.114-.207.252-.414.39-.622a5.5 5.5 0 0 1 2.231-1.796 6 6 0 0 1 1.38-.392c.483-.069.944-.069 1.427-.069h75.585l54.86.092h12.053c.506.046.989.162 1.472.323.437.161.828.368 1.196.622.621.437 1.127.99 1.541 1.635.276.46.506.967.621 1.497.046.184.092.368.115.576 0 .138.046.276.046.414v.369z"/>
    <path fill="#fff" d="M10.627 27.718v100.327h128.168V27.718z"/>
    <path fill="#000" d="M4.485 61.898v31.484c0 .208.161.392.392.392h.92a.39.39 0 0 0 .39-.392V61.898a.39.39 0 0 0-.39-.392h-.92a.39.39 0 0 0-.392.392"/>
    <path fill="#F5F5F5" d="M122.325 85.874H75.608a1.7 1.7 0 0 0-1.702 1.704v4.883a1.7 1.7 0 0 0 1.702 1.704h46.717a1.7 1.7 0 0 0 1.703-1.704v-4.883a1.7 1.7 0 0 0-1.703-1.704m-53.848 0H21.76a1.7 1.7 0 0 0-1.702 1.704v4.883a1.7 1.7 0 0 0 1.702 1.704h46.717a1.7 1.7 0 0 0 1.703-1.704v-4.883a1.7 1.7 0 0 0-1.703-1.704"/>
    <path fill="#E0E0E0" d="M24.198 90.55v.575h-.23v-.576l-.644-1.059h.253l.53.852.528-.852h.23l-.644 1.06zm.598-.07a.6.6 0 0 1 .115-.345.7.7 0 0 1 .276-.23.66.66 0 0 1 .368-.046.85.85 0 0 1 .322.16.66.66 0 0 1 .184.323 1 1 0 0 1-.023.369.54.54 0 0 1-.23.276.6.6 0 0 1-.345.115c-.092 0-.16 0-.253-.046a.54.54 0 0 1-.207-.138.54.54 0 0 1-.138-.207.8.8 0 0 1-.046-.254zm1.058 0v-.16c0-.047-.046-.116-.092-.14a.5.5 0 0 0-.138-.091.4.4 0 0 0-.16-.046c-.047 0-.116 0-.162.046a.5.5 0 0 0-.138.092.5.5 0 0 0-.092.138c0 .046-.023.115 0 .161v.161c0 .047.046.116.092.139a.5.5 0 0 0 .138.092.4.4 0 0 0 .161.046c.046 0 .115 0 .161-.046.046-.023.092-.07.138-.092a.5.5 0 0 0 .092-.139c0-.046.023-.115 0-.16m1.703-.622v1.243h-.207v-.184s-.115.115-.184.161c-.07.046-.161.046-.23.046-.07 0-.139 0-.207-.023a.5.5 0 0 1-.184-.115.5.5 0 0 1-.116-.184c-.022-.07-.022-.138-.022-.207v-.715h.23v.668c0 .254.114.369.345.369.046 0 .115 0 .16-.023.047 0 .093-.046.139-.092a.5.5 0 0 0 .092-.138c.023-.047 0-.116 0-.162v-.621h.23zm1.081-.001v.208h-.046s-.115 0-.161.023-.092.046-.138.092-.07.092-.092.138v.783h-.23v-1.244h.207v.208s.115-.139.184-.185.16-.069.253-.046zm2.369-.391v1.635h-.184l-.99-1.22v1.22h-.23v-1.635h.185l.989 1.22v-1.22zm1.449.898v.76h-.207v-.161s-.115.115-.184.138-.138.046-.23.046c-.276 0-.46-.138-.46-.368s.138-.369.506-.369h.345v-.046c0-.184-.115-.3-.322-.3a.62.62 0 0 0-.391.139l-.092-.161a.8.8 0 0 1 .506-.162c.345 0 .53.162.53.507zm-.23.369v-.185h-.345c-.23 0-.276.093-.276.185s.115.207.276.207c.07 0 .138 0 .207-.046a.3.3 0 0 0 .138-.161m2.691-.346v.714h-.23v-.69c0-.254-.115-.37-.322-.37s-.368.139-.368.415v.622h-.23v-.69c0-.254-.115-.37-.322-.37s-.368.139-.368.415v.622h-.23v-1.244h.207v.184s.115-.115.184-.16c.07-.047.161-.047.23-.047.092 0 .161 0 .253.046a.46.46 0 0 1 .184.185.54.54 0 0 1 .207-.185.4.4 0 0 1 .276-.046c.07 0 .138 0 .207.046.07.023.115.07.161.116s.092.115.092.184.023.138 0 .207zm1.541.162h-1.012s.07.207.161.276a.46.46 0 0 0 .3.092c.068 0 .137 0 .206-.046a.4.4 0 0 0 .161-.115l.115.138s-.207.161-.345.184-.253 0-.39-.023a.6.6 0 0 1-.3-.23 1 1 0 0 1-.138-.369c0-.092 0-.161.046-.253a.54.54 0 0 1 .138-.207.54.54 0 0 1 .207-.139.8.8 0 0 1 .253-.046c.092 0 .161 0 .23.046q.104.035.207.138l.138.208a.8.8 0 0 1 .046.23v.07zm-1.012-.162h.805s-.046-.184-.138-.253a.38.38 0 0 0-.276-.115.38.38 0 0 0-.276.115.55.55 0 0 0-.138.253zm42.324-.529v.575h-.23v-.575l-.644-1.06h.253l.53.852.528-.852h.23l-.644 1.06zm.621-.047c0-.138.023-.253.092-.368a.73.73 0 0 1 .276-.254.7.7 0 0 1 .368-.046c.115 0 .254.093.346.185a.66.66 0 0 1 .183.322 1 1 0 0 1-.023.369.75.75 0 0 1-.23.3.7.7 0 0 1-.368.114c-.092 0-.16 0-.253-.046a.54.54 0 0 1-.207-.138.54.54 0 0 1-.138-.207.8.8 0 0 1-.046-.254zm1.058 0s-.022-.16-.069-.23a.36.36 0 0 0-.184-.138.4.4 0 0 0-.23 0 .6.6 0 0 0-.207.115 1 1 0 0 0-.115.207c0 .07 0 .161.023.23a.4.4 0 0 0 .161.185.4.4 0 0 0 .23.069c.046 0 .115 0 .161-.023.046 0 .092-.046.138-.092a.5.5 0 0 0 .093-.138c0-.046.022-.115 0-.162zm1.703-.622v1.244h-.23v-.184s-.115.115-.184.161c-.07.046-.161.046-.23.046-.07 0-.138 0-.207-.023a.5.5 0 0 1-.184-.115.5.5 0 0 1-.116-.184c-.023-.07-.023-.138-.023-.208v-.714h.23v.668c0 .254.115.369.346.369.046 0 .115 0 .16-.023.047 0 .093-.046.139-.092q.069-.069.069-.138v-.783h.23zm1.081-.022v.207h-.046s-.115 0-.161.023c-.046 0-.092.046-.138.092s-.07.092-.092.138v.783h-.23v-1.243h.207v.207s.115-.138.184-.184c.092-.047.16-.07.253-.047zm2.369-.369v1.635h-.184l-.966-1.22v1.22h-.23V88.8h.184l.989 1.22V88.8h.23zm1.426.875v.76h-.207v-.161s-.115.115-.184.138a.7.7 0 0 1-.23.046c-.276 0-.46-.138-.46-.368s.138-.369.506-.369h.345v-.046c0-.184-.115-.3-.322-.3a.62.62 0 0 0-.391.139l-.092-.161a.78.78 0 0 1 .506-.162c.345 0 .53.162.53.507zm-.23.369v-.185h-.345c-.23 0-.276.093-.276.185s.092.207.276.207c.07 0 .138 0 .207-.046a.3.3 0 0 0 .138-.161m2.714-.323v.714h-.23v-.69c0-.254-.115-.37-.322-.37s-.368.139-.368.415v.622h-.23v-.69c0-.254-.115-.37-.322-.37s-.368.139-.368.415v.622h-.23v-1.244h.207v.185s.115-.115.184-.161a.8.8 0 0 1 .23-.047c.092 0 .161 0 .253.047a.47.47 0 0 1 .184.184.8.8 0 0 1 .207-.184.4.4 0 0 1 .276-.047c.07 0 .138 0 .207.047.07.022.115.069.161.115s.092.115.092.184.023.138 0 .207zm1.541.162h-1.012s.07.207.161.276a.46.46 0 0 0 .3.092c.068 0 .137 0 .183-.046.07-.023.115-.07.161-.115l.115.138s-.207.161-.345.184-.253 0-.39-.023a.6.6 0 0 1-.3-.23 1 1 0 0 1-.138-.369c0-.092 0-.16.046-.253a.54.54 0 0 1 .138-.207.54.54 0 0 1 .207-.138.8.8 0 0 1 .253-.047c.092 0 .161 0 .23.046q.104.035.207.139c.07.069.092.138.138.207.023.07.046.161.046.253zm-1.012-.162h.805s-.046-.184-.138-.253c-.069-.07-.16-.092-.276-.092a.44.44 0 0 0-.276.092c-.092.069-.115.161-.115.253"/>
    <path fill="#F5F5F5" d="M122.947 51.787H22.197a1.7 1.7 0 0 0-1.702 1.704v4.883a1.7 1.7 0 0 0 1.702 1.704h100.75a1.7 1.7 0 0 0 1.702-1.704V53.49a1.7 1.7 0 0 0-1.702-1.704"/>
    <path fill="#E0E0E0" d="M24.198 56.44v.575h-.23v-.576l-.644-1.06h.253l.53.853.528-.852h.23l-.644 1.06zm.598-.047a.6.6 0 0 1 .115-.345.7.7 0 0 1 .276-.23c.115-.047.23-.07.368-.047a.85.85 0 0 1 .322.161.66.66 0 0 1 .184.323 1 1 0 0 1-.023.368.54.54 0 0 1-.23.277.6.6 0 0 1-.345.115c-.092 0-.16 0-.253-.046a.54.54 0 0 1-.207-.138.54.54 0 0 1-.138-.208.8.8 0 0 1-.046-.253zm1.058 0v-.161c0-.046-.046-.115-.092-.138a.5.5 0 0 0-.138-.092.4.4 0 0 0-.16-.047c-.047 0-.116 0-.162.047a.5.5 0 0 0-.138.092.5.5 0 0 0-.092.138c0 .046-.023.115 0 .161v.161c0 .046.046.115.092.139a.5.5 0 0 0 .138.092.4.4 0 0 0 .161.046c.046 0 .115 0 .161-.046.046-.023.092-.046.138-.092s.07-.093.092-.139c0-.046.023-.115 0-.16m1.703-.623v1.244h-.207v-.184s-.115.115-.184.16c-.07.047-.161.047-.23.047-.07 0-.139 0-.207-.023a.5.5 0 0 1-.184-.115.5.5 0 0 1-.116-.185c-.022-.069-.022-.138-.022-.207v-.714h.23v.691c0 .253.114.369.345.369.046 0 .115 0 .16-.023.047 0 .093-.047.139-.093s.069-.092.092-.138 0-.115 0-.161v-.622h.23zm1.081 0v.208h-.046s-.115 0-.161.023c-.046 0-.092.046-.138.092a.5.5 0 0 0-.092.138v.783h-.23v-1.244h.207v.208s.115-.139.184-.185.16-.046.253-.046zm2.162 1.037v.207h-1.196V55.38h1.15v.207h-.92v.507h.828v.207h-.828v.53h.943zm2.392-.507v.714h-.23v-.69c0-.254-.115-.37-.322-.37s-.368.139-.368.415v.622h-.23v-.691c0-.253-.115-.369-.322-.369s-.368.139-.368.415v.622h-.23v-1.22h.207v.183s.115-.115.184-.16c.069-.047.161-.047.23-.047.092 0 .161 0 .253.046a.47.47 0 0 1 .184.184.8.8 0 0 1 .207-.184.4.4 0 0 1 .276-.046c.07 0 .138 0 .207.023a.4.4 0 0 1 .161.115.5.5 0 0 1 .115.185c0 .069.023.138 0 .207zm1.403-.046v.76h-.207v-.161s-.115.115-.184.138a.7.7 0 0 1-.23.046c-.276 0-.46-.138-.46-.369s.138-.368.506-.368h.345v-.046c0-.184-.115-.3-.345-.3a.62.62 0 0 0-.39.139l-.093-.162a.78.78 0 0 1 .506-.16h.207c.07 0 .138.068.184.114a.5.5 0 0 1 .115.184c.023.07.023.139.023.208zm-.23.368v-.184h-.345c-.23 0-.276.092-.276.184s.115.208.276.208c.07 0 .161 0 .207-.047a.3.3 0 0 0 .138-.16m.598-1.244v-.047s0-.046.023-.046c0 0 .023-.023.046-.023h.046c.023 0 .046 0 .092.023.023 0 .046.046.046.07v.092c0 .023 0 .046-.046.069 0 0-.046.023-.069.046h-.092c-.023 0-.046-.023-.069-.046 0-.023-.023-.046-.023-.092zm.046.391h.23v1.244h-.23zm.644-.507h.23v1.728h-.23z"/>
    <path fill="#263238" d="M23.646 49.437v.254h-1.219v-1.636h1.196v.254h-.897v.437h.782V49h-.782v.46h.92zm2.393-.46v.714h-.3V49c0-.23-.114-.323-.276-.323-.16 0-.322.115-.322.369v.622h-.299v-.691c0-.23-.092-.323-.276-.323s-.322.115-.322.369v.622h-.299v-1.267h.276v.161s.115-.092.184-.138c.07-.023.138-.046.23-.046s.161 0 .23.046c.07.046.138.092.184.161.07-.069.138-.115.207-.161.092-.046.162-.046.253-.046.07 0 .139 0 .207.046.07.023.115.069.162.115.046.046.091.115.091.184 0 .07.023.138 0 .207zm1.426 0v.737h-.276v-.161s-.116.115-.184.138a.7.7 0 0 1-.208.046c-.276 0-.46-.161-.46-.369 0-.207.138-.368.53-.368h.322c0-.184-.093-.3-.323-.3a.64.64 0 0 0-.368.115l-.115-.207a.9.9 0 0 1 .53-.161c.367 0 .575.161.575.53zm-.3.345v-.138h-.322c-.207 0-.253.07-.253.161 0 .092.092.184.23.184.07 0 .139 0 .207-.046a.3.3 0 0 0 .139-.16m.621-1.267v-.07s.023-.046.046-.069c0 0 .046-.023.069-.046s.046 0 .069 0h.069s.046 0 .069.046c0 0 .023.046.046.046v.139s0 .046-.046.069c0 0-.046.023-.07.046h-.138s-.045 0-.068-.046c0 0-.023-.046-.046-.046s0-.047 0-.07m.046.391h.299v1.267h-.3zm.667-.483h.299v1.728h-.3z"/>
    <path fill="#DB1F29" d="m30.662 47.871-.276.346.414-.046v.184l-.414-.046.276.345-.184.092-.161-.391-.184.391-.161-.115.253-.345-.414.046v-.184l.414.046-.253-.346.16-.092.185.392.184-.392.16.092zm12.766 16.998-.276.345.414-.046v.184l-.414-.046.276.346-.184.092-.161-.392-.184.392-.161-.115.276-.346-.414.046v-.184l.414.046-.253-.345.184-.092.184.391.161-.391.161.092z"/>
    <path fill="#263238" d="M21.599 65.675s0-.23.069-.322a.8.8 0 0 1 .184-.277c.092-.069.184-.138.276-.184s.23-.07.345-.046c.115 0 .253 0 .345.069a.9.9 0 0 1 .3.207l-.185.184s-.115-.115-.207-.138a.8.8 0 0 0-.23-.046c-.069 0-.16 0-.23.023-.069.023-.138.07-.207.115a.36.36 0 0 0-.138.185.8.8 0 0 0-.046.23c0 .069 0 .161.046.23.023.07.069.138.138.184.07.047.138.093.207.116.07.023.161.046.23.023.092 0 .161 0 .23-.046l.207-.139.184.185s-.184.16-.299.207a.9.9 0 0 1-.345.07c-.115 0-.23 0-.322-.047-.092-.046-.207-.092-.276-.184-.092-.07-.138-.184-.184-.277a.8.8 0 0 1-.069-.322zm1.611.207c0-.138.022-.276.091-.391a.54.54 0 0 1 .3-.254.74.74 0 0 1 .39-.046c.138 0 .253.092.345.184a.63.63 0 0 1 .184.346c.023.138 0 .276-.023.391a.64.64 0 0 1-.253.3.7.7 0 0 1-.368.115c-.092 0-.16 0-.253-.046a.4.4 0 0 1-.207-.138.54.54 0 0 1-.138-.208.8.8 0 0 1-.046-.253zm1.034 0s-.023-.138-.069-.207c-.046-.07-.092-.092-.16-.138a.32.32 0 0 0-.208 0c-.069 0-.138.046-.184.115-.046.046-.092.115-.092.184 0 .07 0 .138.023.207.023.07.07.116.138.162a.37.37 0 0 0 .207.069c.046 0 .092 0 .161-.023.046 0 .092-.046.138-.092a.5.5 0 0 0 .092-.139c.023-.046.023-.092 0-.16zm1.817-.092v.714h-.299v-.69c0-.231-.115-.323-.299-.323h-.138c-.046 0-.092.046-.115.092s-.069.069-.069.138v.76h-.299v-1.267h.276v.162s.115-.116.207-.139a.8.8 0 0 1 .23-.046c.07 0 .138 0 .207.023a.5.5 0 0 1 .184.115.5.5 0 0 1 .115.185.4.4 0 0 1 0 .23zm1.128.645s-.184.092-.276.092h-.162c-.046 0-.114-.046-.138-.092a.5.5 0 0 1-.091-.138c0-.046-.023-.115 0-.161v-.6h-.207v-.23h.206v-.276h.3v.276h.321v.23h-.322v.6c0 .115.07.184.184.184.07 0 .115 0 .162-.046l.091.207zm1.288-.668v.737H28.2v-.161s-.115.115-.184.138c-.07.023-.138.046-.23.023-.276 0-.46-.161-.46-.369 0-.207.138-.368.529-.368h.322c0-.184-.115-.3-.322-.3a.64.64 0 0 0-.368.116l-.116-.207a.9.9 0 0 1 .53-.162c.368 0 .575.184.575.53zm-.3.346v-.139h-.321c-.207 0-.253.07-.253.161 0 .093.092.185.23.185.069 0 .138 0 .207-.046a.3.3 0 0 0 .138-.162m.575-.23s0-.184.046-.253a.7.7 0 0 1 .138-.208.5.5 0 0 1 .23-.138c.092-.023.16-.046.253-.023.115 0 .207 0 .299.07.092.045.16.138.23.23l-.23.138s-.07-.092-.138-.138a.4.4 0 0 0-.184-.046.38.38 0 0 0-.276.115.43.43 0 0 0-.115.276c0 .092.046.207.115.276a.38.38 0 0 0 .276.116c.069 0 .115 0 .184-.046a.4.4 0 0 0 .138-.139l.23.139s-.138.16-.23.23a.7.7 0 0 1-.3.07c-.091 0-.183 0-.252-.047a.5.5 0 0 1-.23-.138.54.54 0 0 1-.138-.207c-.023-.093-.046-.162-.046-.254zm2.231.553s-.184.092-.276.092h-.161c-.046 0-.115-.046-.138-.092a.5.5 0 0 1-.092-.138c0-.046-.023-.115 0-.161v-.6h-.207v-.23h.207v-.276h.299v.276h.322v.23h-.322v.6c0 .115.069.184.184.184.069 0 .115 0 .16-.046l.093.207zm2.737-1.566v1.635h-.253l-.897-1.105v1.105h-.322V64.87h.253l.897 1.105V64.87zm1.61.368v1.267h-.276v-.161s-.115.092-.184.138a.7.7 0 0 1-.23.046c-.069 0-.138 0-.207-.023a.5.5 0 0 1-.184-.115.5.5 0 0 1-.115-.184.32.32 0 0 1 0-.208v-.714h.3v.668c0 .23.114.323.298.323s.345-.115.345-.369v-.622h.3zm2.485.553v.714h-.3v-.69c0-.231-.115-.323-.276-.323-.16 0-.322.115-.322.368v.622h-.299v-.668c0-.23-.115-.322-.276-.322-.16 0-.322.115-.322.368v.622h-.299v-1.267h.276v.162s.115-.093.184-.139c.07-.023.138-.046.23-.046s.161 0 .23.046a.6.6 0 0 1 .184.162c.046-.07.138-.116.207-.162.07-.046.161-.046.253-.046.07 0 .138 0 .207.046.07.046.115.07.161.115.046.046.092.116.092.185s.023.138 0 .207zm1.702.092s0 .161-.046.254a.54.54 0 0 1-.138.207.54.54 0 0 1-.207.138.8.8 0 0 1-.253.046c-.07 0-.161 0-.23-.046a.36.36 0 0 1-.184-.138v.161h-.276v-1.727h.299v.622s.115-.093.184-.139a.7.7 0 0 1 .207-.046c.092 0 .16 0 .253.046a.7.7 0 0 1 .207.139.7.7 0 0 1 .138.207c.023.092.046.161.023.253zm-.3 0s-.022-.138-.068-.207c-.046-.07-.092-.092-.161-.138a.32.32 0 0 0-.207 0c-.07 0-.138.046-.184.115-.046.046-.092.115-.092.184 0 .07 0 .138.023.207a.3.3 0 0 0 .138.162.37.37 0 0 0 .207.069c.046 0 .092 0 .138-.023.046 0 .092-.046.115-.092.046-.046.069-.07.069-.139 0-.046.023-.092 0-.138zm1.749.092h-.99s.07.161.139.23c.069.047.16.093.253.07.069 0 .115 0 .184-.023a.4.4 0 0 0 .16-.116l.162.185s-.207.161-.345.184-.276 0-.391-.023a.76.76 0 0 1-.322-.23.56.56 0 0 1-.138-.369c0-.092 0-.161.046-.253a.54.54 0 0 1 .138-.208.54.54 0 0 1 .207-.138.8.8 0 0 1 .253-.046c.092 0 .16 0 .253.046.069.023.16.07.207.138q.104.105.138.208a.8.8 0 0 1 .046.253zm-.99-.184h.714s-.046-.161-.115-.207c-.07-.046-.138-.092-.23-.092a.3.3 0 0 0-.23.092.27.27 0 0 0-.115.207zm1.979-.553v.277h-.207c-.046 0-.092.046-.115.092q-.07.069-.07.138v.761h-.298v-1.268h.276v.185s.115-.116.207-.162a.8.8 0 0 1 .253-.046z"/>
    <path fill="#DB1F29" d="m33.56 81.567-.276.345.414-.046v.185l-.414-.047.276.346-.184.092-.16-.391-.185.391-.16-.115.275-.346-.414.047v-.185l.414.046-.253-.345.184-.092.184.391.161-.391.161.092z"/>
    <path fill="#263238" d="M23.462 83.018h-.828l-.161.392h-.322l.736-1.636h.322l.736 1.636h-.322l-.184-.392zm-.092-.23-.322-.714-.322.714zm1.978-1.128v1.727h-.276v-.162s-.115.115-.184.139a.8.8 0 0 1-.23.045.73.73 0 0 1-.46-.184.64.64 0 0 1-.184-.46.7.7 0 0 1 .184-.461.64.64 0 0 1 .46-.184c.07 0 .161 0 .23.046.07.023.138.069.184.138v-.622h.3zm-.299 1.105s-.023-.139-.069-.208-.092-.092-.16-.138a.32.32 0 0 0-.208 0c-.069 0-.138.046-.184.115-.046.046-.092.115-.092.185s0 .138.023.207a.3.3 0 0 0 .138.161q.104.07.207.07c.046 0 .092 0 .138-.024.046 0 .092-.046.115-.092.046-.046.07-.07.07-.138 0-.046.022-.092 0-.138zm1.91-1.105v1.727h-.276v-.162s-.116.115-.184.139a.7.7 0 0 1-.23.045.73.73 0 0 1-.46-.184.64.64 0 0 1-.185-.46.7.7 0 0 1 .184-.461.64.64 0 0 1 .46-.184c.07 0 .162 0 .23.046a.35.35 0 0 1 .184.138v-.622h.3zm-.3 1.105s-.022-.139-.069-.208c-.046-.069-.091-.092-.16-.138a.32.32 0 0 0-.208 0c-.069 0-.138.046-.184.115-.046.046-.092.115-.092.185s0 .138.023.207a.3.3 0 0 0 .138.161q.104.07.207.07c.046 0 .093 0 .162-.024.046 0 .091-.046.137-.092a.5.5 0 0 0 .093-.138c.023-.046.023-.092 0-.161zm1.404-.622v.276h-.207c-.046 0-.092.046-.115.092q-.07.069-.07.139v.76h-.298v-1.267h.276v.184s.115-.115.184-.161a.8.8 0 0 1 .253-.046zm1.403.714h-.99s.07.161.139.23c.069.046.16.092.253.07.069 0 .115 0 .184-.024a.4.4 0 0 0 .16-.115l.162.184s-.138.115-.23.162c-.092.045-.184.045-.276.045s-.184 0-.253-.023a.5.5 0 0 1-.23-.138 1.3 1.3 0 0 1-.161-.207c-.046-.07-.046-.161-.046-.253a.63.63 0 0 1 .62-.622c.093 0 .162 0 .254.046.069.023.16.069.207.138q.104.104.138.207a.8.8 0 0 1 .046.254v.069zm-.99-.184h.714s-.046-.162-.115-.23a.33.33 0 0 0-.23-.093c-.092 0-.184.023-.23.092-.07.07-.115.138-.115.23zm1.128.598.115-.23a.95.95 0 0 0 .437.115c.184 0 .253-.046.253-.138 0-.23-.782 0-.782-.507 0-.23.207-.391.552-.391a.8.8 0 0 1 .46.115l-.115.23s-.23-.092-.368-.092c-.184 0-.253.07-.253.138 0 .254.782.023.782.507 0 .23-.207.391-.575.391-.184 0-.368-.046-.53-.138zm1.196 0 .115-.23a.95.95 0 0 0 .437.115c.184 0 .253-.046.253-.138 0-.23-.782 0-.782-.507 0-.23.207-.391.552-.391a.8.8 0 0 1 .46.115l-.115.23s-.23-.092-.368-.092c-.184 0-.253.07-.253.138 0 .254.782.023.782.507 0 .23-.207.391-.575.391-.184 0-.368-.046-.53-.138z"/>
    <path fill="#DB1F29" d="m82.923 82.28-.276.346.414-.046v.185l-.414-.046.276.345-.184.092-.161-.391-.184.391-.161-.092.253-.345-.414.046v-.185l.414.046-.253-.345.16-.092.185.391.184-.391z"/>
    <path fill="#263238" d="m75.332 83.916.115-.23a.94.94 0 0 0 .552.184c.253 0 .368-.092.368-.207 0-.346-.966-.115-.966-.737 0-.254.207-.484.667-.484.184 0 .391.046.552.138l-.092.23a.83.83 0 0 0-.46-.138c-.253 0-.345.093-.345.23 0 .346.966.116.966.715 0 .253-.207.483-.667.483-.23 0-.46-.069-.644-.184zm2.346.115s-.184.093-.276.093h-.16c-.047 0-.116-.046-.139-.093a.5.5 0 0 1-.092-.138c0-.046-.023-.115 0-.161v-.599h-.207v-.23h.207v-.277h.3v.277h.321v.23h-.322v.599c0 .115.07.184.184.184.07 0 .115 0 .161-.046l.092.207zm1.288-.644v.737h-.276v-.162s-.115.115-.184.139c-.069.023-.138.046-.207.023-.276 0-.46-.162-.46-.369s.138-.368.53-.368h.321c0-.185-.115-.3-.322-.3a.64.64 0 0 0-.368.115l-.115-.207a.9.9 0 0 1 .53-.161c.367 0 .574.161.574.53zm-.299.345v-.138h-.322c-.207 0-.253.069-.253.161s.092.184.23.184c.07 0 .138 0 .207-.046a.3.3 0 0 0 .138-.161m1.403.299s-.183.093-.275.093h-.162c-.045 0-.115-.046-.138-.093-.023-.046-.069-.092-.092-.138 0-.046-.023-.115 0-.161v-.599h-.207v-.23h.207v-.277h.3v.277h.322v.23h-.323v.599c0 .115.07.184.184.184.07 0 .115 0 .162-.046l.091.207zm1.38-.461h-.989s.07.185.139.231a.26.26 0 0 0 .253.07c.069 0 .115 0 .184-.024.069-.023.115-.07.16-.115l.162.184s-.138.115-.23.161-.184.046-.276.046-.184 0-.253-.023a.5.5 0 0 1-.23-.138 1.3 1.3 0 0 1-.162-.207c-.046-.07-.046-.161-.046-.253 0-.093 0-.162.046-.254a.54.54 0 0 1 .139-.207.54.54 0 0 1 .207-.138.8.8 0 0 1 .252-.046c.093 0 .162 0 .254.046.069.023.16.069.207.138q.103.104.138.207c.023.07.046.161.046.254zm-.989-.184h.714s-.046-.16-.115-.23a.33.33 0 0 0-.23-.092.35.35 0 0 0-.254.092c-.069.07-.114.138-.114.23m36.687 28.628c.161 0 .322-.046.483-.092q.345-.103.621-.345c.184-.162.322-.346.414-.576.138-.323.184-.668.138-1.014v-4.284c0-.276 0-.552-.092-.829a1.53 1.53 0 0 0-.483-.714c-.23-.207-.506-.322-.805-.391-.322-.023-.621-.046-.943-.023h-13.847c-.414 0-.805.161-1.104.437a1.68 1.68 0 0 0-.529 1.06v4.836c-.023.369.046.738.253 1.06.184.299.483.553.805.668.345.092.713.138 1.058.115h12.099l1.449.046h-6.763l-3.657.023h-3.657a1.5 1.5 0 0 1-.552-.115 1.76 1.76 0 0 1-.897-.737 2 2 0 0 1-.276-1.152v-4.859c.046-.438.253-.853.575-1.152a1.8 1.8 0 0 1 1.219-.484h13.847c.322 0 .644 0 .989.023.322.046.598.208.851.415.23.207.414.484.529.783.092.276.115.576.092.875v4.284c.023.346-.023.714-.161 1.037-.092.23-.253.414-.437.575a1.7 1.7 0 0 1-.644.346c-.184.092-.368.161-.552.161z"/>
    <path fill="#263238" d="M104.246 107.961c0-.115 0-.253.069-.345a.88.88 0 0 1 .506-.484.66.66 0 0 1 .368-.046c.138 0 .276 0 .391.069.115.046.23.139.322.231l-.253.23s-.115-.115-.184-.138c-.069-.046-.161-.046-.23-.046a.48.48 0 0 0-.368.184.52.52 0 0 0-.138.368c0 .139.046.277.138.369a.7.7 0 0 0 .368.184c.092 0 .161 0 .23-.046s.138-.092.184-.161l.253.23a.96.96 0 0 1-.46.277.9.9 0 0 1-.552-.023 1.04 1.04 0 0 1-.437-.323.8.8 0 0 1-.184-.507zm1.725.208c0-.138.023-.3.092-.415a.8.8 0 0 1 .322-.299.66.66 0 0 1 .414-.069c.138 0 .276.092.391.184s.184.23.207.369 0 .299-.023.437a.67.67 0 0 1-.276.346c-.115.092-.253.115-.414.138-.092 0-.184 0-.276-.046a.5.5 0 0 1-.23-.138.9.9 0 0 1-.161-.231c-.046-.092-.046-.184-.046-.276m1.058 0v-.138c0-.046-.046-.092-.069-.116-.023-.046-.069-.069-.115-.092-.046 0-.092-.023-.138-.023s-.092 0-.138.023c-.046 0-.092.046-.115.092-.023.047-.046.07-.069.116v.276c0 .046.046.092.069.115.023.046.069.069.115.092.046 0 .092.023.138.023s.092 0 .138-.023c.046 0 .092-.046.115-.092s.046-.069.069-.115zm2.001-.092v.76h-.391v-.691c0-.207-.092-.323-.276-.323s-.322.116-.322.346v.645h-.391v-1.313h.368v.161s.115-.092.207-.138a.8.8 0 0 1 .23-.046c.069 0 .161 0 .23.046a.36.36 0 0 1 .184.138.45.45 0 0 1 .115.207c0 .07.023.162 0 .231zm1.196.691s-.207.092-.322.092h-.184c-.069 0-.115-.046-.161-.092a.4.4 0 0 1-.115-.162c0-.069-.023-.138-.023-.184v-.553h-.207v-.276h.207v-.322h.391v.322h.322v.299h-.322v.599s0 .046.023.069c0 0 .046.023.046.046h.069c.046 0 .115 0 .161-.046l.115.254zm.184-1.659v-.092c0-.023.023-.046.046-.069 0 0 .046-.046.069-.046h.184c.023 0 .046.023.069.046 0 0 .046.046.046.069v.092c0 .069-.046.116-.069.162a.2.2 0 0 1-.161.069c-.069 0-.115 0-.161-.069a.21.21 0 0 1-.069-.162zm.046.392h.391v1.313h-.391zm2.071.576v.76h-.391v-.691c0-.207-.092-.323-.276-.323s-.322.116-.322.346v.645h-.392v-1.313h.369v.161s.115-.092.207-.138a.8.8 0 0 1 .23-.046c.069 0 .161 0 .23.046a.36.36 0 0 1 .184.138.45.45 0 0 1 .115.207.4.4 0 0 1 0 .231zm1.679-.576v1.313h-.368v-.162s-.115.093-.184.139a.7.7 0 0 1-.23.046c-.069 0-.161 0-.23-.023a.36.36 0 0 1-.184-.138.45.45 0 0 1-.115-.208.4.4 0 0 1 0-.23v-.737h.391v.691c0 .23.092.322.276.322s.322-.115.322-.345v-.645h.368zm1.633.783h-.989s.069.161.138.207a.44.44 0 0 0 .23.069c.069 0 .115 0 .184-.023a.4.4 0 0 0 .161-.092l.207.23s-.161.139-.253.162c-.092.046-.184.046-.299.046-.092 0-.184 0-.276-.023a.55.55 0 0 1-.253-.138c-.069-.07-.138-.139-.161-.231a.6.6 0 0 1-.069-.276c0-.092 0-.184.046-.277a.8.8 0 0 1 .161-.23.5.5 0 0 1 .23-.138c.092-.023.184-.046.276-.046s.184 0 .276.046c.092.023.161.092.23.138a.5.5 0 0 1 .138.23c.023.093.046.185.046.277v.115zm-1.012-.23h.644s-.046-.139-.115-.208-.138-.069-.207-.069-.161 0-.23.069c-.069.046-.092.116-.115.208zm-18.793-4.353H81.497a1.7 1.7 0 0 0-1.703 1.704v4.883a1.7 1.7 0 0 0 1.703 1.704h14.537a1.7 1.7 0 0 0 1.702-1.704v-4.883a1.7 1.7 0 0 0-1.702-1.704"/>
    <path fill="#fff" d="m85.844 108.652.138-.322c.161.115.368.184.575.184.23 0 .322-.069.322-.184 0-.322-.989-.092-.989-.737 0-.299.23-.53.713-.53.207 0 .414.046.598.161l-.115.323a.85.85 0 0 0-.483-.138c-.23 0-.322.092-.322.184 0 .322.99.092.99.737 0 .276-.23.53-.737.53-.253 0-.506-.069-.713-.185zm2.829-.575v.76h-.368v-.161s-.115.115-.184.138a.7.7 0 0 1-.23.046c-.322 0-.483-.184-.483-.392 0-.207.161-.391.575-.391h.322c0-.162-.092-.254-.322-.254a.8.8 0 0 0-.39.115l-.139-.276a1 1 0 0 1 .575-.161c.414 0 .644.184.644.576m-.39.345v-.138h-.254c-.184 0-.23.069-.23.161s.07.161.207.161c.07 0 .115 0 .161-.046a.24.24 0 0 0 .115-.138m2.024-.921-.552 1.313h-.39l-.553-1.313h.391l.368.898.368-.898zm1.404.783h-.99s.07.161.139.207a.44.44 0 0 0 .23.069c.069 0 .115 0 .184-.023.046 0 .115-.046.16-.092l.208.23s-.161.139-.253.162c-.092.046-.184.046-.3.046-.091 0-.183 0-.275-.023a.55.55 0 0 1-.254-.138c-.069-.07-.138-.139-.16-.231a.6.6 0 0 1-.07-.276c0-.092 0-.184.047-.277a.8.8 0 0 1 .16-.23.5.5 0 0 1 .23-.138c.093-.023.184-.046.276-.046s.185 0 .277.046c.092.023.16.092.23.138a.5.5 0 0 1 .138.23c.023.093.046.185.046.277v.115zm-1.012-.23h.644s-.023-.162-.092-.231a.3.3 0 0 0-.23-.092.3.3 0 0 0-.23.092.3.3 0 0 0-.093.231"/>
    <path fill="#F5F5F5" d="M122.947 69.43H22.036a1.7 1.7 0 0 0-1.702 1.703v4.883a1.7 1.7 0 0 0 1.702 1.705h100.911a1.7 1.7 0 0 0 1.702-1.705v-4.883a1.7 1.7 0 0 0-1.702-1.704"/>
    <path fill="#E0E0E0" d="M24.727 73.897v.576h-.23v-.576l-.667-1.082h.253l.53.852.528-.852h.23l-.644 1.06zm.621-.046a.6.6 0 0 1 .115-.345.7.7 0 0 1 .276-.23c.115-.047.23-.07.369-.047a.85.85 0 0 1 .322.162.66.66 0 0 1 .183.322 1 1 0 0 1-.023.369.54.54 0 0 1-.23.276.6.6 0 0 1-.344.115c-.093 0-.162 0-.254-.046a.54.54 0 0 1-.207-.138.54.54 0 0 1-.138-.207.8.8 0 0 1-.046-.254zm1.059 0v-.161c0-.046-.047-.115-.093-.138a.5.5 0 0 0-.137-.092.4.4 0 0 0-.162-.046c-.046 0-.115 0-.16.046a.5.5 0 0 0-.139.092.5.5 0 0 0-.092.138c0 .046-.023.115 0 .161v.161c0 .046.046.116.092.139a.5.5 0 0 0 .138.092.4.4 0 0 0 .162.046c.046 0 .115 0 .16-.046a.5.5 0 0 0 .139-.092.5.5 0 0 0 .091-.139c0-.046.024-.115 0-.16m1.68-.622v1.266h-.207v-.184s-.115.115-.184.161c-.07.046-.161.046-.23.046-.07 0-.138 0-.207-.023a.5.5 0 0 1-.184-.115.5.5 0 0 1-.116-.184c-.022-.07-.022-.139-.022-.208v-.737h.23v.691c0 .254.115.369.322.369.046 0 .115 0 .16-.023.047 0 .093-.046.139-.092a.5.5 0 0 0 .092-.139v-.783h.23zm1.104 0v.207h-.046s-.115 0-.161.023c-.046 0-.092.046-.138.092a.5.5 0 0 0-.092.138v.783h-.23v-1.267h.207v.208s.115-.139.207-.162c.069-.046.16-.046.253-.046zm2.346-.392v1.658h-.184l-.99-1.22v1.22h-.23v-1.635h.185l.989 1.22v-1.22h.23zm1.634.392v1.266h-.185v-.184s-.115.115-.184.161-.161.046-.23.046-.138 0-.207-.023a.5.5 0 0 1-.184-.115.5.5 0 0 1-.115-.184c-.023-.07-.023-.139-.023-.208v-.737h.23v.691c0 .254.115.369.322.369.046 0 .115 0 .161-.023a.5.5 0 0 0 .138-.092.5.5 0 0 0 .092-.139c.023-.046 0-.115 0-.16v-.623h.207zm2.483.53v.736h-.23v-.69c0-.254-.115-.37-.322-.37-.046 0-.115 0-.16.024-.047 0-.093.046-.139.092q-.069.069-.069.138v.783h-.23v-.69c0-.254-.115-.37-.322-.37-.046 0-.115 0-.16.024-.047 0-.093.046-.139.092q-.069.069-.069.138v.783h-.23v-1.244h.207v.185s.115-.116.184-.139a.8.8 0 0 1 .23-.046c.092 0 .161 0 .253.046a.36.36 0 0 1 .184.185.8.8 0 0 1 .207-.185.4.4 0 0 1 .276-.046c.07 0 .138 0 .207.023.07.023.138.07.184.115a.5.5 0 0 1 .115.185c0 .069.023.138 0 .207zm1.68.091s0 .161-.047.254a.54.54 0 0 1-.138.207.54.54 0 0 1-.207.138.8.8 0 0 1-.253.046c-.092 0-.16 0-.253-.046-.069-.046-.138-.092-.184-.161v.207h-.207v-1.727h.23v.69s.115-.115.184-.16c.07-.047.162-.047.23-.047.093 0 .161 0 .253.046q.105.035.207.139.104.103.138.207a.8.8 0 0 1 .047.253zm-.23 0s-.023-.161-.07-.23a.36.36 0 0 0-.184-.138.4.4 0 0 0-.23 0c-.069 0-.16.069-.206.115a1 1 0 0 0-.115.207c0 .07 0 .161.023.23a.4.4 0 0 0 .16.185c.07.046.139.069.23.069.047 0 .116 0 .162-.023.046 0 .092-.046.138-.092a.5.5 0 0 0 .091-.139c0-.046.024-.115 0-.16zm1.679.069H37.77s.069.208.16.277a.47.47 0 0 0 .3.092c.069 0 .138 0 .207-.046.069-.023.115-.07.16-.115l.116.138s-.207.161-.345.184-.253 0-.391-.023a.6.6 0 0 1-.3-.23 1 1 0 0 1-.137-.369c0-.092 0-.161.046-.253a.54.54 0 0 1 .138-.207.54.54 0 0 1 .207-.139.8.8 0 0 1 .253-.046c.092 0 .16 0 .23.046q.103.035.207.139l.138.207a.8.8 0 0 1 .046.253v.07zm-1.012-.16h.805s-.046-.185-.138-.254a.38.38 0 0 0-.276-.115.38.38 0 0 0-.276.115.55.55 0 0 0-.138.253zm1.978-.53v.207h-.046s-.115 0-.161.023c-.046 0-.092.046-.138.092a.5.5 0 0 0-.092.138v.783h-.23v-1.267h.207v.208s.115-.139.207-.162c.069-.046.16-.046.253-.046z"/>
    <path fill="#fff" d="M18.287 31.15v.53h.92v.368h-.92v.714h-.46v-1.958h1.495v.369h-1.035zm1.196.599c0-.208.046-.438.16-.622.116-.184.277-.346.46-.415.185-.069.415-.115.622-.092s.414.138.575.276c.161.139.276.346.322.553s.023.438-.046.622a.9.9 0 0 1-.391.484 1.14 1.14 0 0 1-.598.184c-.138 0-.276 0-.414-.069a.9.9 0 0 1-.345-.207.9.9 0 0 1-.23-.346c-.046-.138-.092-.253-.092-.414zm1.679 0a.6.6 0 0 0-.115-.346.54.54 0 0 0-.276-.23.5.5 0 0 0-.368-.023.66.66 0 0 0-.322.184.6.6 0 0 0-.161.323c0 .115 0 .253.046.368a.7.7 0 0 0 .23.276c.092.07.23.093.345.093.092 0 .16 0 .23-.046a.54.54 0 0 0 .207-.139c.069-.069.092-.138.138-.207a.8.8 0 0 0 .046-.253m2.048.991-.369-.553h-.414v.552h-.46v-1.957h.851c.53 0 .851.276.851.714a.76.76 0 0 1-.092.391.64.64 0 0 1-.299.254l.437.621h-.483zm-.415-1.59h-.368v.691h.368c.276 0 .414-.138.414-.345 0-.208-.138-.346-.414-.346m3.036 1.59v-1.175l-.575.967h-.207l-.575-.944v1.151h-.437v-1.957h.368l.736 1.22.713-1.22h.368v1.957h-.414z"/>
    <path fill="#263238" d="M138.887 27.787H10.719l.069-.069c0 29.942-.023 64.144-.046 100.327l-.092-.092 128.191.092-.069.07zv100.397h-.069l-128.191-.046h-.092v-.093c0-36.16.046-70.385.069-100.327v-.069h.069l128.168.161zm6.993 45.857a4.2 4.2 0 0 1 2.277.69 4.4 4.4 0 0 1 1.518 1.843c.299.76.391 1.59.23 2.373a4.07 4.07 0 0 1-1.127 2.096 4.13 4.13 0 0 1-4.485.898 4.24 4.24 0 0 1-1.841-1.52 4.03 4.03 0 0 1-.69-2.28 4.1 4.1 0 0 1 1.219-2.902 4.13 4.13 0 0 1 2.899-1.198"/>
    <path fill="#FFC33E" d="M146.731 79.54s-5.705-.921-9.017 1.727c-1.495 1.152-2.714 2.626-3.611 4.284a13.7 13.7 0 0 0-1.611 5.367c-.414 3.662-3.059 17.78-3.059 17.78l-5.152-6.978-5.705 4.998s4.808 23.055 9.316 24.598 9.408-3.501 10.558-4.422c1.15-.922 8.304-47.33 8.304-47.33z"/>
    <path fill="#FFC33E" d="M144.776 79.402s-7.499 10.71-8.373 13.427c-.874 2.741-7.177 7.67-7.062 14.165.046 2.948.322 5.896.782 8.821.276 1.659.253 3.34-.092 4.998l-2.921 14.119a8.8 8.8 0 0 0 2.783 2.579 8.4 8.4 0 0 0 3.634 1.129c4.578.507 16.286 3.271 24.061 0l5.589-2.741v-21.857l3.842-8.936 10.949-17.758s-5.59-3.87-10.811-5.55c-5.429-1.774-14.285-1.913-22.381-2.42z"/>
    <path fill="#263238" d="M127.731 132.099q0-.241.069-.484l.253-1.428c.253-1.266.575-2.994 1.012-5.159.184-1.082.552-2.257.713-3.57.046-.322.092-.645.161-.967.046-.345.046-.668.092-1.013.046-.714.069-1.428.046-2.142a18.7 18.7 0 0 0-.759-4.492 15.4 15.4 0 0 1-.851-4.882 13.5 13.5 0 0 1 1.242-4.814c.598-1.405 1.334-2.764 2.139-4.077 1.564-2.487 3.106-4.63 4.394-6.426l3.059-4.283.828-1.152c.092-.138.184-.276.322-.392-.069.162-.161.3-.253.438-.184.3-.46.714-.782 1.198-.713 1.036-1.702 2.51-2.967 4.284-1.265 1.773-2.806 3.961-4.325 6.426a32 32 0 0 0-2.139 4.053 13.7 13.7 0 0 0-1.196 4.699c0 1.635.299 3.247.828 4.79.414 1.497.667 3.017.713 4.561 0 .714 0 1.428-.069 2.142 0 .345-.069.714-.092 1.036s-.115.645-.161.99c-.184 1.29-.552 2.465-.759 3.57-.46 2.142-.851 3.87-1.127 5.113-.138.576-.253 1.037-.322 1.382 0 .208 0 .415-.046.622z"/>
    <path fill="#FFC33E" d="M182.821 107.017c-3.588 11.839-10.512 25.681-15.779 29.205-.69.483-1.357.783-1.979.852h-.207c-1.265.069-2.553.092-3.795-.069-.046.023-.092 0-.138 0-1.426-.161-2.76-.553-3.749-1.359-.138-.092-.253-.207-.391-.322a7 7 0 0 1-.874-.784 2 2 0 0 1-.253-.23c-1.174-1.175-2.278-2.603-3.313-4.123 0-.023-.023-.023-.023-.046-.115-.184-.253-.345-.345-.529-4.554-7.117-7.176-16.238-7.176-16.238l.161-.161.046-.069 2.829-3.179 1.334-1.52 1.932-2.142 1.012-1.151.115.161.184.276 2.278 3.363 6.325 9.42h.023s.161-.184.276-.392c.138-.23.299-.575.483-.967.506-1.151 1.15-2.856 1.84-4.744.207-.599.414-1.152.621-1.682 1.795-5.136 3.681-10.917 3.681-10.917s4.255-13.934 6.394-14.556h.046c.391.138 4.693 1.842 7.407 6.31 2.07 3.41 3.22 8.407 1.035 15.57z"/>
    <path fill="#263238" d="M167.87 101.19s-.046.231-.092.323l-.322.944-1.288 3.57c-1.127 3.063-2.738 7.393-4.647 12.552l-.115.3-.184-.254c-2.622-3.892-5.704-8.383-8.925-13.174h.276l-.897.921-6.762 6.933.046-.184a87 87 0 0 0 3.565 9.742 45.5 45.5 0 0 0 3.956 7.186 37 37 0 0 0 3.336 4.238l1.012 1.037c.115.115.23.23.345.368a2.5 2.5 0 0 1-.368-.322l-1.058-.991a35 35 0 0 1-3.428-4.192 45 45 0 0 1-4.048-7.185 87 87 0 0 1-3.611-9.766v-.115l.069-.069c2.139-2.142 4.393-4.515 6.762-6.933l.897-.921.161-.161.115.184c3.244 4.79 6.257 9.328 8.879 13.197l-.276.046c1.955-5.136 3.612-9.443 4.785-12.506.575-1.474 1.035-2.672 1.357-3.501.161-.392.276-.714.368-.921 0-.115.046-.208.092-.323z"/>
    <path fill="#263238" d="M165.063 137.074h-.207c-1.265.069-2.553.092-3.795-.069a67 67 0 0 1-2.99 3.317c-2.231 2.303-4.532 4.491-6.924 6.518-.023 0-.046.046-.069.069a.4.4 0 0 1-.115.092 91 91 0 0 1-8.81 6.633 27 27 0 0 1-1.495.967c0 .023 0 .046-.046.046-.023.023-.046.023-.069.023a73 73 0 0 1-3.818 2.327c-.069.023-.115.069-.184.092l-.046.023a86 86 0 0 1-9.684 4.767 5 5 0 0 1-.805.346l-.138.069s-.046.023-.069.023h-.023l-1.104.484q-3.037 1.174-6.211 2.211c.023-.231.023-.438.046-.668.966-12 7.177-28.076 9.201-33.166.115-.3.23-.576.299-.783.023-.023.023-.046.023-.046s.023-.023.023-.046c0-.046.023-.069.046-.092 0-.023 0-.047.023-.07q.173-.448.207-.552l5.152.921h.023l21.761 3.915.644.116h.069l.023.023h.161v.023l5.98 1.082h.046l.966-.184.437-.069s.552.576 1.449 1.635z"/>
    <path fill="#455A64" d="M158.071 140.344c-2.231 2.304-4.532 4.492-6.924 6.519-.023 0-.046.046-.069.069a.4.4 0 0 1-.115.092 91 91 0 0 1-8.81 6.633 498 498 0 0 1-2.53-5.367l-1.495-2.809s0-.046-.023-.07c0-.023-.023-.023-.023-.046l-2.093-3.961 2.921-1.981.966-.691h.023l.115-.092h.046l15.205-4.192.391-.115h.069l.138-.046 7.314-2.004 2.163-.599 1.702 4.538c-.69.483-1.357.783-1.979.852h-.207c-1.265.069-2.553.092-3.795-.069a67 67 0 0 1-2.99 3.316zm-23.255-.299a37 37 0 0 0-1.933 3.017c-.023.046-.069.115-.115.184 0 .023 0 .046-.046.093h-.023v.069c-.184.322-.368.598-.529.944 0 0-.023.023-.023.046-2.806 5.389-4.416 11.401-5.336 17.504a5 5 0 0 1-.805.346l-.138.069s-.046.023-.069.023h-.023l-1.104.484q-3.037 1.174-6.211 2.211a14 14 0 0 1-1.311.414 174 174 0 0 1 5.152-24.897 25.6 25.6 0 0 1 5.061-9.536c.207-.276.46-.552.69-.806h.046a5.2 5.2 0 0 1 1.541 1.382c1.518 1.981 2.024 4.998 3.519 7.002.069.092.138.161.184.23a4.7 4.7 0 0 0 1.473 1.221"/>
    <path fill="#455A64" d="M149.192 144.398c.713.76 1.334 1.612 1.886 2.534a.4.4 0 0 1-.115.092 91 91 0 0 1-8.81 6.633c-.506.345-.989.668-1.495.967 0 .023 0 .046-.046.046-.598-2.372-1.173-4.767-1.886-7.163-.23-.806-.437-1.497-.598-2.026 0-.023 0-.046-.023-.069 0-.024-.023-.024-.023-.047 0 0-.046-.161-.069-.23a4 4 0 0 0-.161-.461 3 3 0 0 0-.138-.368v-.069s-.069-.161-.092-.253l1.564-2.534h.023s0-.023.046-.023h.207c.115-.046.23-.046.345-.046a5.8 5.8 0 0 1 1.265 0c2.853.161 6.556 1.405 8.12 3.04z"/>
    <path fill="#263238" d="m137.76 144.26.207.714s-.092-.207-.115-.299a3 3 0 0 0-.138-.369v-.069s-.023-.184-.046-.276c.023.092.046.207.092.299m.276.898s.046.115.046.184c0-.069-.046-.138-.069-.207h.023zm.046.184s.023 0 .023.023v.046s-.023-.023-.023-.046zm2.415 8.66c.046.208.115.415.161.622 0 .023 0 .046-.046.046-.023.023-.046.023-.069.023-.046-.23-.115-.46-.161-.691a431 431 0 0 0-1.38-5.458 32 32 0 0 0-.276-1.037c-.23-.806-.437-1.497-.598-2.026.253.76.575 1.796.943 3.086.437 1.474.897 3.339 1.426 5.435m9.753-8.475c.322.437.621.875.897 1.335-.023 0-.046.047-.069.07a.4.4 0 0 1-.115.092 12 12 0 0 0-.874-1.359 13 13 0 0 0-1.035-1.198 5.5 5.5 0 0 0-1.15-.921 15.7 15.7 0 0 0-4.577-1.797c-.76-.161-1.496-.276-2.255-.299a5 5 0 0 0-.805-.069c-.345 0-.621.023-.805.023.115-.046.23-.046.345-.046.161-.046.299-.046.46-.046.276 0 .552 0 .805.046.782 0 1.541.115 2.301.276 1.15.231 2.254.645 3.312 1.129h.046c.437.207.874.368 1.288.622a6.7 6.7 0 0 1 1.219.921c.368.391.713.806 1.035 1.221z"/>
    <path fill="#455A64" d="M137.507 144.882s-.069.138-.092.207l-.069.184-.069.162c-.023 0-.023.046-.046.092l-.046.138s0 .069-.046.092l-.069.184a20 20 0 0 0-.506 1.682 18 18 0 0 0-.391 2.234c-.23 2.372-.069 4.836.368 7.255l-.046.023a86 86 0 0 1-9.684 4.767 5 5 0 0 1-.805.346l-.138.069c0-.299-.046-.576-.046-.875a30.2 30.2 0 0 1 .575-6.887v-.046c.667-3.27 1.955-6.403 3.956-9.005a12 12 0 0 1 1.242-1.428c.253-.277.483-.484.621-.645.069-.046.138-.115.207-.184h.092l.069.046.115.046h.023l.138.046.023.023.23.069 3.014.967.713.23z"/>
    <path fill="#263238" d="M132.423 143.201s-.115.161-.207.23c-.138.161-.368.368-.621.645a16 16 0 0 0-1.472 1.842c-.023.023-.023.046-.046.069-.23.277-.391.553-.575.83a24.4 24.4 0 0 0-2.691 6.333 24.4 24.4 0 0 0-.828 5.781c-.046 1.106-.023 2.211 0 3.317l-.138.069s-.046.023-.069.023h-.023c-.023-.161-.023-.322-.023-.507q-.069-1.485 0-2.971c.023-.875.092-1.75.253-2.602.437-3.363 1.61-6.611 3.381-9.536.368-.529.736-1.059 1.15-1.543.299-.391.644-.783.989-1.151l.667-.622.23-.207zm4.992 1.888s.069-.115.115-.184c0 .046-.046.115-.069.184l-.092.207-.046.139v.069l-.184.414a19 19 0 0 0-.782 3.386 24 24 0 0 0 .368 7.716c-.069.023-.115.069-.184.092l-.046.023a40 40 0 0 1-.345-2.303 22 22 0 0 1 .069-5.505c.069-.576.207-1.152.345-1.704.138-.576.322-1.129.506-1.682l.069-.184s.046-.069.046-.092l.046-.138h.023v-.092l.092-.139.069-.184zm3.45-3.961s.161-.139.207-.438c.046-.369 0-.76-.138-1.106a2.2 2.2 0 0 0-.713-.875c-.253-.161-.437-.184-.46-.138s.529.438.828 1.152q.207.69.276 1.382z"/>
    <path fill="#455A64" d="M132.607 139.584c.852-1.358 2.853-1.796 4.463-1.98a4 4 0 0 1 2.668.921 3.93 3.93 0 0 1 1.334 2.487 4.2 4.2 0 0 1-.782 2.741 4.18 4.18 0 0 1-2.323 1.635 4.64 4.64 0 0 1-2.852-.207c-.92-.345-1.68-.99-2.232-1.796a3.67 3.67 0 0 1-.667-1.866 3.5 3.5 0 0 1 .414-1.935z"/>
    <path fill="#263238" d="M136.173 138.341a2.5 2.5 0 0 0-.851.99 4.24 4.24 0 0 0-.368 3.132 4.17 4.17 0 0 0 1.886 2.511c.368.253.782.414 1.219.437 0-.046-.46-.207-1.081-.644a4.23 4.23 0 0 1-1.679-2.396 4.42 4.42 0 0 1 .253-2.925c.322-.714.667-1.059.621-1.105m-3.152.737s-.276.184-.506.668c-.299.621-.391 1.312-.322 2.003s.299 1.336.713 1.889c.322.415.622.576.645.553s-.185-.277-.438-.714a4.5 4.5 0 0 1-.598-1.774c-.069-.622 0-1.266.207-1.865.184-.438.345-.714.299-.737z"/>
    <path fill="#000" d="M132.538 143.247c.598.69 1.335 1.22 2.163 1.612a6.9 6.9 0 0 0 2.645.599c-.253.46-.598.875-1.035 1.174q-.656.45-1.449.553a2.8 2.8 0 0 1-1.357-.276 2.7 2.7 0 0 1-1.013-.968c-.23-.414-.368-.875-.345-1.336 0-.483.138-.944.391-1.335zm-1.702 1.358c-.115.185-.207.392-.299.576-.069.115-.138.207-.184.323-.092.138-.161.276-.23.414-.023.023-.023.046-.046.069-1.242 2.327-2.438 4.676-3.266 7.163-.161.438-.299.899-.414 1.359v.046a16 16 0 0 0-.253.991c-.046.253-.092.483-.138.714-.391 2.072-.391 3.8-.253 5.573.023.162.046.346.046.507h-.023l-1.104.484a30.5 30.5 0 0 1 0-6.795c.575-4.399 2.622-8.775 6.164-11.424" opacity=".2"/>
    <path fill="#263238" d="M138.933 45.73c-1.058-1.912-.414-4.469 1.173-5.966a8.42 8.42 0 0 1 6.05-2.027c2.185.161 4.347.599 6.417 1.313a7.04 7.04 0 0 1 3.037-2.257 6.8 6.8 0 0 1 3.772-.323c1.265.23 2.438.83 3.381 1.682a7.2 7.2 0 0 1 2.002 3.201 4.3 4.3 0 0 1 2.346-.253 4.5 4.5 0 0 1 2.139.99 4.3 4.3 0 0 1 1.311 1.98c.253.761.299 1.59.115 2.373l-9.27 4.676-8.143 19.968a8.48 8.48 0 0 1-5.336 2.65 8.52 8.52 0 0 1-5.751-1.475 8.56 8.56 0 0 1-3.404-4.883 8.63 8.63 0 0 1 .598-5.919 7.4 7.4 0 0 1-1.725-1.658 7.7 7.7 0 0 1-2.415-1.659c-.69-.714-1.242-1.543-1.587-2.464-1.404-3.962 1.173-8.913 5.29-9.927z"/>
    <path fill="#FFBE9D" d="M150.411 81.774c.046-1.105.138-2.211.299-3.317 0 0-6.003-1.473-6.624-9.512-.322-3.984.391-10.433 1.127-15.684.667-4.745 4.278-10.342 8.971-9.467l14.491 4.883c1.426.254 1.84 1.52 1.679 2.971l.069.714-2.461 22.664-.759 6.817c-.46 4.284-4.302 8.683-8.626 8.614a8.35 8.35 0 0 1-3.266-.645 8.1 8.1 0 0 1-2.738-1.911 8.05 8.05 0 0 1-2.162-6.126"/>
    <path fill="#263238" d="M146.731 60.47a.98.98 0 0 0 .23.737.98.98 0 0 0 .667.368h.391a.8.8 0 0 0 .345-.161c.092-.07.184-.184.253-.3a.7.7 0 0 0 .115-.368.98.98 0 0 0-.23-.737.98.98 0 0 0-.667-.368h-.391a.8.8 0 0 0-.345.16c-.115.07-.184.185-.253.3a.7.7 0 0 0-.115.369m-.184-2.925c.115.138.943-.369 2.024-.277s1.863.714 1.978.576c.138-.138-.046-.3-.368-.576a2.76 2.76 0 0 0-1.564-.622 2.74 2.74 0 0 0-1.633.392c-.345.23-.483.46-.437.53zm9.592 3.523a.98.98 0 0 0 .23.738.98.98 0 0 0 .667.368h.391a1 1 0 0 0 .345-.161c.115-.07.184-.184.253-.277a.7.7 0 0 0 .115-.368.95.95 0 0 0-.23-.737.98.98 0 0 0-.667-.369h-.391a1 1 0 0 0-.345.162c-.115.069-.184.184-.253.299a.7.7 0 0 0-.115.369zm.851-2.925c.115.139.92-.368 2.024-.276s1.84.714 1.978.576-.046-.3-.368-.576a2.8 2.8 0 0 0-1.564-.622 2.74 2.74 0 0 0-1.633.392c-.345.23-.483.46-.437.53zm-4.509 7.44a6.5 6.5 0 0 0-1.748-.46c-.276-.047-.529-.139-.575-.323 0-.3.092-.576.253-.806.322-.645.644-1.36.989-2.073 1.38-2.948 2.392-5.367 2.277-5.413s-1.334 2.28-2.714 5.229c-.345.713-.644 1.427-.966 2.072a1.5 1.5 0 0 0-.23 1.083c.023.092.092.184.161.276.069.07.161.138.276.185.161.046.322.092.46.092a8 8 0 0 0 1.794.138z"/>
    <path fill="#EB996E" d="M150.71 78.48a20.24 20.24 0 0 0 10.834-2.003s-3.105 5.39-10.972 4.03l.161-2.026z"/>
    <path fill="#263238" d="M157.22 55.172c.115.3 1.196.139 2.484.3s2.323.483 2.484.207c.069-.138-.115-.415-.529-.714a4.4 4.4 0 0 0-1.863-.645c-.667-.069-1.334 0-1.955.254-.46.207-.713.46-.667.598zm-10.466-.829c.207.253 1.127.07 2.185.161 1.058.07 1.955.323 2.185.07.092-.116 0-.37-.391-.645a3.4 3.4 0 0 0-1.748-.553 3.45 3.45 0 0 0-1.794.368c-.391.23-.552.46-.46.6zm17.895-10.341a5.5 5.5 0 0 1-2.277 4.03 5.4 5.4 0 0 1-2.185.922 5.5 5.5 0 0 1-2.369-.092c-1.196-.323-2.461-1.037-3.566-.461-1.081.553-1.334 2.257-2.369 3.04-1.495 1.106-3.634-.207-5.428.184-1.426.3-2.346 1.544-3.359 2.58-.989 1.036-2.438 1.98-3.772 1.474a16.2 16.2 0 0 1 .828-3.616 5.42 5.42 0 0 1 2.3-2.856 19 19 0 0 0 1.841-.875c1.196-.83 1.587-2.419 2.392-3.64a6 6 0 0 1 2.047-1.91 6.14 6.14 0 0 1 2.691-.76c1.564-.047 3.152.552 4.693.276 1.15-.208 2.185-.853 3.335-.99 2.254-.254 4.186 1.496 5.705 3.2l-.53-.53z"/>
    <path fill="#263238" d="M157.335 46.627c1.012-.207 3.082-.714 3.68-1.52a5.95 5.95 0 0 1 2.392-2.073 6.04 6.04 0 0 1 3.106-.575 4.95 4.95 0 0 1 2.806 1.45c.759.76 1.242 1.774 1.403 2.834a7.23 7.23 0 0 1 5.889 4.468 8.4 8.4 0 0 1 .552 3.984 8.2 8.2 0 0 1-1.357 3.777q-.553.9-.967 1.866c.575.53 1.082 1.129 1.519 1.773 2.093 3.41-2.14 5.39-2.14 5.39.299 2.441-1.932 2.718-3.381 2.902s-1.748 4.123-2.852 4.123l-.437-12a1.3 1.3 0 0 1-.506.161c-2.692.392-2.669-4.836-1.956-6.264a15.5 15.5 0 0 1-2.461-3.018 11.2 11.2 0 0 1-.828-5.481c-.966-.046-4.945-1.681-4.508-1.774z"/>
    <path fill="#FFBE9D" d="M167.249 63.671a2.4 2.4 0 0 1 .414-1.105q.345-.484.897-.76a2.5 2.5 0 0 1 1.15-.23c.391.022.782.16 1.104.368.759.53 1.311 1.497 1.104 3.293-.552 4.768-5.221 3.225-5.198 3.087 0-.139.299-2.695.552-4.653z"/>
    <path fill="#65463C" d="M168.33 66.711s.069.07.207.162a.84.84 0 0 0 .621.092 2.25 2.25 0 0 0 .828-.714c.207-.3.322-.668.345-1.014a3.1 3.1 0 0 0-.092-1.22.85.85 0 0 0-.184-.415 1.2 1.2 0 0 0-.368-.3c-.092-.045-.184-.045-.299 0a.37.37 0 0 0-.23.185c-.069.138-.046.23-.092.23-.023 0-.092-.092 0-.276a.54.54 0 0 1 .23-.277.4.4 0 0 1 .23-.069h.253c.184.07.368.162.506.323.138.138.23.322.276.53.161.437.207.898.138 1.358a2.23 2.23 0 0 1-.437 1.175 2.1 2.1 0 0 1-.989.737c-.138 0-.253 0-.391-.023-.115-.046-.23-.092-.322-.184-.253-.138-.253-.23-.207-.254z"/>
    <path fill="#455A64" d="M141.693 60.47s-.46-.277-1.15-.922a6.93 6.93 0 0 1-1.909-3.385 7.1 7.1 0 0 1-.092-2.695 5.7 5.7 0 0 1 1.311-2.764c.782-.898 1.794-1.543 2.921-1.935a6.9 6.9 0 0 1 3.497-.207c.23.046.437.115.667.184.23.07.414.162.598.254l.299.115v-.323a2.3 2.3 0 0 1 .391-1.589c.322-.46.713-.829 1.196-1.105.92-.53 1.978-.76 3.036-.622 2.047.184 3.819.875 5.429.852a5.13 5.13 0 0 0 3.473-1.175c.253-.23.46-.506.598-.806.046-.115.092-.207.115-.322a3.6 3.6 0 0 1-.828 1.036 5.1 5.1 0 0 1-3.381 1.037 12.7 12.7 0 0 1-2.484-.369 21 21 0 0 0-2.922-.553 5.5 5.5 0 0 0-1.633.046c-.575.093-1.127.3-1.61.6a4 4 0 0 0-1.334 1.22c-.368.53-.506 1.198-.437 1.843l.253-.185c-.207-.092-.414-.184-.644-.253a8 8 0 0 0-.713-.184 6.9 6.9 0 0 0-3.681.23 6.8 6.8 0 0 0-3.059 2.05 6 6 0 0 0-1.357 2.925 7.16 7.16 0 0 0 .322 3.409 7.2 7.2 0 0 0 1.886 2.856c.276.253.575.46.897.645.092.069.207.115.322.16zm-1.173-16.353c.437-.322.92-.553 1.426-.714a3.84 3.84 0 0 1 1.771-.07c.76.139 1.45.53 1.979 1.083l.207.23.069-.299a5.4 5.4 0 0 1 1.449-2.441 5.4 5.4 0 0 1 2.484-1.382 7.07 7.07 0 0 1 4.347.668 18 18 0 0 0 3.566 1.29 5.3 5.3 0 0 0 2.553 0c.23-.07.437-.162.644-.277l.207-.138s-.299.138-.874.276a5.24 5.24 0 0 1-2.461-.092 20.6 20.6 0 0 1-3.474-1.358c-.69-.3-1.403-.553-2.139-.715a5.44 5.44 0 0 0-2.438 0 5.8 5.8 0 0 0-2.645 1.475 5.6 5.6 0 0 0-1.518 2.625l.276-.069a3.67 3.67 0 0 0-2.186-1.129 4.06 4.06 0 0 0-1.886.162c-.391.138-.759.322-1.058.576-.184.16-.299.276-.299.299"/>
    <path fill="#EB996E" d="M153.171 67.886c.161-.161.345-.3.552-.392s.437-.138.667-.138c.254 0 .507.092.737.208s.437.299.575.506l.046.046a.73.73 0 0 1 .207.53c0 .207-.069.415-.184.599a1.4 1.4 0 0 1-.437.46c-.276.208-.621.3-.967.3-.345 0-.667-.115-.966-.3-.276-.207-.437-.53-.483-.875a1.42 1.42 0 0 1 .23-.967z"/>
    <path fill="#263238" d="M156.001 67.01s-.161.231-.391.554a2.73 2.73 0 0 1-1.197.967 2.5 2.5 0 0 1-1.541.092c-.391-.092-.644-.207-.667-.138-.046.046.161.253.575.438a2.6 2.6 0 0 0 1.771 0 2.47 2.47 0 0 0 1.312-1.198c.207-.415.184-.691.138-.714m18.309-13.174s.069-.047.207-.162a6 6 0 0 0 .529-.53 5.8 5.8 0 0 0 1.288-2.44 4.6 4.6 0 0 0 0-1.936 3.9 3.9 0 0 0-1.058-1.934q-.449-.45-1.035-.691a3.2 3.2 0 0 0-1.219-.23q-.69 0-1.311.276c-.414.184-.759.483-1.058.829l.23.115v-.046a6.5 6.5 0 0 0-.138-4.998 4.1 4.1 0 0 0-1.311-1.612 4.2 4.2 0 0 0-1.909-.83c-.46-.068-.943 0-1.403.116a3.6 3.6 0 0 0-1.243.645 3 3 0 0 0-.529.553c-.046.069-.092.16-.115.23.207-.276.437-.507.713-.714a3.6 3.6 0 0 1 2.554-.645 4.1 4.1 0 0 1 1.817.83c.529.414.943.944 1.219 1.565.667 1.52.69 3.248.115 4.814v.046l-.253.714.46-.622c.253-.322.575-.576.943-.76a2.4 2.4 0 0 1 1.196-.253c.391 0 .782.069 1.127.207q.552.207.966.622a3.8 3.8 0 0 1 1.035 1.82 4.15 4.15 0 0 1 0 1.842c-.207.898-.598 1.727-1.196 2.418-.368.53-.644.76-.621.76m-68.27 43.807 4.623 17.458c.115.484.391.899.783 1.198.391.3.874.438 1.357.438l23.922-.461c.322 0 .644-.069.92-.207.299-.138.552-.346.736-.599a2.1 2.1 0 0 0 .414-1.797l-3.519-16.72a2.08 2.08 0 0 0-.759-1.244 2.15 2.15 0 0 0-1.38-.484h-25.188a2.04 2.04 0 0 0-1.564.76c-.184.23-.299.507-.368.806s-.046.599.023.898z"/>
    <path fill="#FFBE9D" d="M104.016 101.582c-.23-.3-.368-.691-.368-1.06 0-.368.138-.76.368-1.06a2.8 2.8 0 0 1 .92-.713 2.7 2.7 0 0 1 1.127-.254c.782 0 1.564.162 2.277.461.897.346 1.771.783 2.576 1.29.3.138.576.368.806.622q.345.38.483.898c.115.668-.621 1.428-1.22 1.105.415.185.783.438 1.082.784.299.345.506.76.598 1.197.115.852-.345 1.313-1.15 1.566.299.116.552.369.69.668s.138.645 0 .968a1.4 1.4 0 0 1-.828.621c-.346.093-.714.093-1.036-.069a4.4 4.4 0 0 1-1.61-1.358c.46.829.644 1.773.46 2.717a5.1 5.1 0 0 1-2.323-1.658c-.621-.76-.989-1.658-1.127-2.626a2.5 2.5 0 0 1-.874-1.382 2.5 2.5 0 0 1 .207-1.635 2.7 2.7 0 0 1-1.058-.852c-.276-.369-.414-.829-.46-1.29l.391 1.06z"/>
    <path fill="#65463C" d="M111.514 106.395a10 10 0 0 1-.782-.599 5.1 5.1 0 0 0-2.07-1.059 2.9 2.9 0 0 0-1.265 0 2.7 2.7 0 0 0-.92.461c-.253.207-.437.46-.598.76 0 0 0-.092.069-.254a1.9 1.9 0 0 1 .437-.599c.276-.253.598-.437.966-.529a2.7 2.7 0 0 1 1.357 0 4.74 4.74 0 0 1 2.139 1.151q.38.312.69.691zm-.207-3.478a5.7 5.7 0 0 1-.966-.391 14 14 0 0 0-1.012-.461 14 14 0 0 0-1.311-.345 3.3 3.3 0 0 0-1.334 0 2.4 2.4 0 0 0-.989.437 2.3 2.3 0 0 0-.644.76s0-.115.069-.276c.115-.23.276-.438.483-.599a2.4 2.4 0 0 1 1.035-.506c.46-.093.943-.093 1.426 0 .46.092.897.207 1.334.368.345.138.69.299 1.012.484.299.138.598.322.874.506z"/>
    <path fill="#fff" d="M121.773 103.631h.138c.3 0 .599.162.806.392s.322.53.322.829c0 .3-.138.599-.368.829-.23.208-.529.346-.829.346s-.598-.115-.828-.346c-.23-.207-.345-.506-.368-.829 0-.299.115-.622.322-.829.207-.23.506-.369.805-.392"/>
    <path fill="#FFBE9D" d="M145.006 97.62s-2.531-4.952-3.29-4.675c-.759.3-1.725.3-1.265 2.188.483 1.865 1.725 3.155 1.656 4.63-.069 1.473-1.219 4.767.046 6.31s3.451 6.15 3.451 6.15l5.612-5.712-1.265-1.843s2.139-2.925 2.53-4.629c.207-1.36.138-2.764-.207-4.1a3.96 3.96 0 0 0-.621-2.487c.092-.76.115-1.52.115-2.28 0-1.152-2.967-5.874-2.967-5.874-.414.161-.736.46-.92.875a1.72 1.72 0 0 0-.069 1.267c.322.99.713 1.98 1.15 2.925l-3.45-1.359c-.115.23-.207.484-.207.76 0 .254 0 .53.092.783.092.254.23.484.414.668s.391.346.644.461c1.84.99 2.139 1.82 2.139 1.82l-2.622.207s-.253 1.428.805 1.75l1.058.3-2.806 1.865z"/>
    <path fill="#65463C" d="m146.524 95.432 2.369.507h.046v.046c.345.645.483 1.382.46 2.096a3.8 3.8 0 0 1-1.058 2.349 8.6 8.6 0 0 1-2.346 1.497 6.3 6.3 0 0 0-1.795 1.29 2.6 2.6 0 0 0-.644 1.313c-.069.345 0 .553-.046.553s0-.046 0-.139v-.414c.069-.53.276-1.014.621-1.428a5.55 5.55 0 0 1 1.818-1.359c.828-.392 1.61-.875 2.3-1.474a4 4 0 0 0 1.058-2.211 4.4 4.4 0 0 0-.414-2.027l.046.046a12.7 12.7 0 0 1-2.392-.645zm5.198.3s-.092-.23-.253-.553a2.4 2.4 0 0 0-.966-1.014 5 5 0 0 0-1.357-.483c-.207 0-.391-.07-.598-.138q.31-.069.621 0a3.8 3.8 0 0 1 1.426.437c.253.138.46.323.667.553.138.184.253.368.345.599.092.184.138.391.115.622zm-.299-2.925s-.46-.645-1.127-1.29-1.334-1.037-1.311-1.106a4.44 4.44 0 0 1 2.438 2.395"/>
    <path fill="#FFC33E" d="M174.356 85.09s13.641 4.884 8.465 21.927c-4.117 13.566-12.605 29.758-17.965 30.08-2.783.161-5.819.069-7.705-1.428-7.683-6.057-12.352-22.272-12.352-22.272l7.337-8.222 8.902 13.197c.989-.438 6.924-18.702 6.924-18.702s4.278-14.003 6.417-14.58z"/>
</svg>
