<svg xmlns="http://www.w3.org/2000/svg" id="digital-security" width="80" height="62.13">
    <defs>
        <style>
            .dynamic-color{fill:#ffc33e}.cls-3{fill:#e0e0e0}.cls-5{fill:#263238}.cls-6{fill:#ffbe9d}.cls-7{fill:#eb996e}.cls-8{fill:#455a64}
        </style>
    </defs>
    <path d="M27.45 62.04s11.27 1.42 20.23-6.76S59.23 34.2 61.61 23.81 59.32 4.4 50.53 1.76s-12.7 4.97-23.62 7.7-14.22 1.81-21.97 10.03-6.18 23.25 3.4 32.52 19.11 10.03 19.11 10.03" class="dynamic-color" style="isolation:isolate;opacity:.15"/>
    <g id="top">
        <path id="hair" d="M25.07 2.28C23.41 3.3 22.26 5 21.57 6.82c-.68 1.82-.94 3.78-1.15 5.7-.54 5.12-.71 10.27-.54 15.41 6.28.79 12.61 1.59 18.92 1.16-1.1-7.21-1.79-14.41-.91-21.66" class="cls-5"/>
        <path d="M47.12 47.64c.01.09.01.18-.02.26-.02.08-.06.16-.12.23-.05.06-.12.12-.2.16-.07.04-.16.06-.24.06l-9.81.52-.39-2.68-1.74 6.77 3.82 7.72c-5.98 1.99-10.97 1.36-10.97 1.36s-.83-.07-2.25-.4c-.01 0-.03 0-.04-.01-2.54-.6-6.94-2.04-11.81-5.46l1.76-4.47-1.84-7.04-.05 1.41-8.32-2.95s1.83-7.11 3.63-11.95c1.8-4.83 5.51-5.83 5.51-5.83 8.34-2.85 15.84-2.87 23.85-.09.26.08.51.17.75.26h.02c5.95 2.33 6.56 8.61 6.56 8.61z" class="dynamic-color"/>
        <path d="M25.79 43.69v.73c0 .47 0 1.15-.02 1.99-.03 1.69-.12 4.01-.24 6.58-.11 2.57-.22 4.89-.28 6.57-.02.83-.04 1.51-.05 1.99v.09s-.03 0-.04-.01v-.08c0-.47 0-1.15.02-1.99.03-1.69.12-4.01.24-6.58.11-2.56.22-4.89.28-6.57.02-.83.04-1.51.06-1.99 0-.23 0-.41.01-.54 0-.07 0-.13.02-.19" class="cls-5"/>
        <path d="m4.91 43.03-.94 4.4c-.8 3.8 2.01 7.69 5.86 8.13l20.5 2.1c1.08.12 2.17.03 3.22-.28 1.04-.31 2.01-.82 2.85-1.51s1.54-1.54 2.04-2.5c.51-.96.82-2.01.91-3.1l-25.84-2.46.16-2.48-8.77-2.31Z" class="dynamic-color"/>
    </g>
    <g id="character">
        <path d="m30.54 47.54 1.59-.3s3.77-4.13 4.48-4.18c.58-.05 3.79-.02 4.92 0 .1 0 .2.04.27.12a.386.386 0 0 1 0 .54c-.07.07-.17.11-.27.12l-3.79.15-.02.31 3.8.05c.39.03.63.64-.6.75l-3.18.11v.2l3.22.45c.16.02.59.11.59.27 0 0 .2.4-.72.52-.31.04-3.11-.05-3.11-.05l.11.26 2.9.62c.1.02.19.08.25.17s.08.19.07.29-.07.2-.15.27-.19.1-.29.09l-3.09-.28-3.04 2.42h-4.07l.13-2.88Z" class="cls-6"/>
        <path d="M20.47 23.34s3.99 20.42 5.4 20.27 8.01-19.57 8.01-19.57-8.43-2.57-13.41-.7" style="fill:#fafafa"/>
        <path d="M38.14 43.11s-.07-1.41-.07-3.15.03-3.14.07-3.14.07 1.41.07 3.14-.03 3.15-.07 3.15m-24.51.13c0-.3.03-.61.08-.9.07-.56.17-1.33.3-2.17.12-.85.24-1.62.33-2.17.04-.3.1-.6.18-.89 0 .3-.03.61-.08.91-.07.56-.17 1.33-.3 2.17s-.24 1.61-.33 2.17c-.04.3-.1.6-.18.89Zm20.21-19.23s.01.09.04.26c.04.24.11.48.2.7.15.36.32.7.52 1.04.27.44.51.9.73 1.37.28.58.39 1.22.31 1.86-.06.35-.21.69-.42.98-.22.3-.46.58-.73.84-.57.55-1.09 1.14-1.55 1.78-.49.69-.77 1.5-.8 2.35 0 .42.09.84.27 1.23.19.38.36.77.5 1.16.07.2.09.41.08.63-.01.21-.08.42-.19.6-.24.32-.53.59-.86.81l-3.25 2.39-2.19 1.6-.6.43-.16.11-.06.03.05-.05.15-.12.59-.45 2.16-1.64 3.23-2.41c.32-.21.6-.47.83-.78.1-.16.16-.35.18-.54 0-.2-.02-.4-.08-.58-.14-.39-.31-.77-.5-1.15-.19-.4-.29-.84-.28-1.28.03-.87.32-1.71.83-2.42.47-.65 1-1.25 1.58-1.8.53-.52 1.02-1.09 1.12-1.75a3.2 3.2 0 0 0-.29-1.8c-.21-.47-.45-.93-.71-1.37-.19-.34-.36-.69-.5-1.06q-.135-.345-.18-.72c0-.06-.02-.13-.02-.19 0-.02 0-.04.01-.06ZM25.85 43.4h-.06l-.18-.03a6.8 6.8 0 0 1-2.97-1.49c-1-.86-1.73-2-2.09-3.26a7.1 7.1 0 0 1-.26-2.3c.02-.41.08-.81.16-1.21.1-.4.11-.81.03-1.21a1 1 0 0 0-.31-.49c-.16-.12-.34-.21-.53-.26-.19-.06-.39-.12-.59-.2-.19-.08-.37-.2-.52-.34-.28-.3-.47-.67-.53-1.07-.07-.37-.09-.76-.06-1.14.12-1.3.41-2.58.85-3.81.3-.83.66-1.63 1.09-2.4.15-.26.28-.48.37-.61l.1-.16s.02-.04.04-.05c0 0 0 .02-.03.06l-.09.16c-.08.14-.2.35-.35.62-.41.77-.75 1.58-1.04 2.4-.42 1.23-.7 2.5-.82 3.79-.03.37 0 .74.07 1.1.06.38.24.72.5 1 .14.13.31.24.48.31.18.08.38.13.58.19.21.06.4.16.58.29.17.15.3.34.36.56.08.42.07.86-.03 1.27-.09.39-.14.79-.16 1.2-.04.76.05 1.52.26 2.25a6.76 6.76 0 0 0 2.03 3.23 7 7 0 0 0 2.23 1.33c.29.1.52.17.68.21l.18.05h.03Z" class="cls-5"/>
        <path d="m36.64 47.57-17.17-.55.03 5.7 11.37 2.5 8 1.28c4.97 0 8.95-4.56 8.18-9.47h-.02l-10.38.55Z" class="dynamic-color"/>
        <path d="M41.37 47.46c-.07.01-.15.02-.22.02l-.64.02-2.35.04c-1.98.03-4.72.06-7.75.03s-5.77-.14-7.74-.26c-.99-.07-1.79-.13-2.33-.19l-.63-.06a.8.8 0 0 1-.22-.03h.22l.64.04c.55.04 1.36.09 2.33.14 1.98.11 4.72.2 7.74.23 3.03.03 5.76 0 7.74 0h2.99c.08 0 .15 0 .23.02Z" class="cls-5"/>
        <path d="m19.32 47.54-1.59-.3s-3.77-4.13-4.48-4.18c-.58-.05-3.79-.02-4.91 0-.1 0-.2.04-.27.12a.386.386 0 0 0 0 .54c.07.07.16.12.26.12l3.79.15.02.31-3.8.05c-.39.03-.63.64.6.75l3.18.11v.2l-3.22.45c-.16.02-.59.11-.6.27 0 0-.19.4.72.52.32.04 3.11-.05 3.11-.05l-.11.26-2.89.62c-.1.02-.19.08-.25.17-.06.08-.08.19-.07.29s.07.2.15.27.19.1.29.09l3.09-.28 3.04 2.42h4.06l-.12-2.88Z" class="cls-6"/>
        <path d="M38.56 56.39h-.19l-.55-.06c-.48-.05-1.18-.14-2.04-.26-1.72-.24-4.09-.61-6.69-1.12a127 127 0 0 1-8.6-2.01l-.54-.16c-.06-.02-.13-.04-.19-.06.07 0 .13.02.19.04l.54.13 2 .49c1.69.4 4.02.94 6.62 1.45s4.96.9 6.67 1.16l2.03.3.55.09c.06 0 .13 0 .19.02Zm-18.91-3.66a3.7 3.7 0 0 1-.15-.81 25 25 0 0 1-.2-3.97c0-.28.02-.55.06-.82.03.27.04.55.03.82a40 40 0 0 0 .06 1.98c.04.77.1 1.47.14 1.98.04.27.05.55.05.82Zm1.87.23c-.03-.07-.06-.14-.08-.22a8 8 0 0 1-.14-.6 14.8 14.8 0 0 1-.26-4.09c.02-.26.05-.47.07-.62 0-.08.02-.15.05-.22 0 .28 0 .57-.02.85-.02.52-.03 1.24.02 2.04s.14 1.51.23 2.03c.06.28.11.56.13.84Zm-1.58-4.92s-.08.09-.08.26c0 .04 0 .09.03.13.02.04.04.08.08.11s.09.04.14.04.1-.02.14-.04c.05-.02.08-.06.11-.11q.03-.075.03-.15c0-.04-.03-.08-.05-.12a.3.3 0 0 0-.1-.09c-.14-.08-.26-.03-.26-.05s.11-.11.3-.03c.06.02.1.06.14.1.04.05.07.1.08.16 0 .08 0 .15-.04.22-.03.07-.09.13-.16.16-.07.04-.14.06-.22.05s-.15-.03-.21-.08a.4.4 0 0 1-.1-.15.4.4 0 0 1-.02-.18c.03-.2.18-.25.18-.23Zm3.12 5.76h-.69c-.62.02-1.23.07-1.84.17-.9.15-1.8.35-2.68.6-1 .26-2.1.58-3.27.84-1.1.26-2.24.38-3.37.37-.93-.02-1.84-.2-2.71-.52-.58-.22-1.13-.53-1.62-.91-.13-.11-.26-.22-.38-.34-.04-.04-.08-.08-.12-.13a6.3 6.3 0 0 0 2.14 1.3c.87.31 1.78.47 2.7.49 1.12 0 2.24-.12 3.33-.37 1.17-.26 2.26-.57 3.27-.83q1.335-.36 2.7-.57c.61-.09 1.23-.13 1.86-.13.22 0 .39 0 .51.02.06 0 .12 0 .18.02Z" class="cls-5"/>
        <path d="M30.61 25.75c.41-2.27.88-4.66.88-4.66s3.02.03 4.3-3.69c1.22-3.55 2.11-12.09 2.11-12.09-1.94-1.2-4.19-1.79-6.47-1.67s-4.46.93-6.26 2.32l-3.01 18.55c-.35 2.15 1.22 4.17 3.53 4.52 2.33.36 4.53-1.09 4.92-3.28" class="cls-6"/>
        <path d="M35.66 11.7a.48.48 0 0 1-.2.32.47.47 0 0 1-.36.09c-.06 0-.13-.02-.18-.05a.44.44 0 0 1-.15-.12.6.6 0 0 1-.09-.17.48.48 0 0 1 .19-.51c.1-.08.24-.11.36-.09.06 0 .12.02.18.05q.09.045.15.12c.04.05.07.11.09.17s.02.12.02.19Zm.89-.41c-.07.05-.4-.29-.92-.38-.53-.09-.96.1-1.01.03-.02-.03.06-.14.26-.23.26-.12.54-.15.82-.1s.53.18.72.38c.13.15.16.28.13.3m-6.32-.46a.48.48 0 0 1-.2.32.46.46 0 0 1-.36.09.44.44 0 0 1-.32-.17.5.5 0 0 1-.11-.35.48.48 0 0 1 .2-.32c.1-.08.24-.11.36-.09a.483.483 0 0 1 .43.52" class="cls-5"/>
        <path d="M31 10.51c-.07.05-.4-.29-.92-.38-.53-.09-.96.11-1.01.03-.02-.03.06-.14.26-.23.26-.12.54-.15.82-.1s.53.18.72.38c.13.15.16.28.13.3m1.23 4.25c.29-.04.59-.04.89 0 .14 0 .26 0 .31-.08.04-.14.03-.28-.02-.41-.07-.35-.14-.72-.22-1.1-.3-1.55-.49-2.83-.42-2.85.06-.02.35 1.24.65 2.8.07.39.14.75.2 1.1.06.18.05.37-.02.54-.03.04-.07.08-.11.11s-.1.04-.15.05q-.12.015-.24 0c-.29-.02-.59-.07-.87-.16" class="cls-5"/>
        <path d="M31.49 21.08a9.94 9.94 0 0 1-4.89-2.27s.78 2.85 4.66 3.17l.22-.89Zm.29-5.07a.95.95 0 0 0-.33-.36c-.14-.09-.3-.14-.46-.16-.12-.01-.24 0-.35.04s-.22.1-.31.18a.57.57 0 0 0-.16.63c.07.11.17.2.28.25.12.05.25.07.38.05.26-.05.52-.14.75-.28.07-.03.13-.08.18-.13.02-.03.04-.06.05-.09 0-.04 0-.07-.01-.1" class="cls-7"/>
        <path d="M30.61 14.86c.09 0-.02.58.4 1.08.42.49 1.04.54 1.04.62 0 .04-.16.09-.41.05-.34-.05-.64-.22-.87-.48-.22-.24-.33-.56-.32-.89.03-.26.12-.39.16-.38M27.76 3.22c1.02 2.26 4.34 5 6.9 5.98-.23-.47-1.67-1.78-1.9-2.24 1.04 1.12 2.53 2.65 4.1 3.03.18.06.38.07.56.02.1-.06.19-.13.26-.23a.7.7 0 0 0 .13-.32c.31-1.14.49-2.31.54-3.49.06-.99-.27-1.97-.91-2.73-.87-.98-2.3-1.45-3.67-1.74-1.15-.24-2.35-.4-3.49-.18-1.13.22-2.19.87-2.53 1.83" class="cls-5"/>
        <path d="M21.65 11.71c-.02-.88.01-1.75.1-2.62.26-1.99.88-9.24 7.57-7.37l-.71 1.86s.52 4.66-2.92 7.17c0 0 .02 4.66-2.36 6.34 0 0-1.66-3.16-1.67-5.36" class="cls-5"/>
        <path d="M25.83 10.42c-.4-.16-.83-.21-1.25-.14-.42.08-.79.31-1.04.66-.23.36-.31.8-.23 1.22s.26.81.52 1.15c.17.25.39.47.65.62a.93.93 0 0 0 .88.02" class="cls-6"/>
        <path d="M25.17 12.86s-.18.24-.53.07a.8.8 0 0 1-.24-.2.8.8 0 0 1-.15-.28c-.08-.23-.1-.47-.08-.72.01-.26.12-.5.3-.69a.8.8 0 0 1 .27-.18c.1-.04.21-.05.32-.04.39.06.46.35.41.35s-.16-.14-.42-.12c-.16.03-.31.12-.42.25-.1.13-.16.3-.15.46-.03.43.06.84.27.98.21.13.4.08.42.12" class="cls-7"/>
        <path d="M25.16 13.95c-1.04 6.2-.19 12.53 0 18.81.02.6.02 1.23-.26 1.77-.41.81-1.38 1.21-2.29 1.26s-1.81-.16-2.72-.23c-.1-.6-.19-1.2-.29-1.81-.3.69-.61 1.39-.91 2.07.4-4.4.84-8.81 1.31-13.21m41.92-5.77c-.09-.43-.09-.87 0-1.3.09.43.09.87 0 1.3" class="cls-5"/>
    </g>
    <path id="cloud" d="M79.53 18.51h-2.4l-6.7.02-23.13.05h-.05l-.02-.06c-.25-.87-.3-1.79-.13-2.68a5.73 5.73 0 0 1 3.19-4.13c.82-.39 1.72-.58 2.62-.55l-.09.11q-.21-.765-.18-1.56c.07-1.79 1.09-3.52 2.65-4.32.76-.4 1.6-.6 2.45-.6s1.69.22 2.45.62l-.12.04a7.7 7.7 0 0 1 1.8-2.56c.77-.72 1.68-1.27 2.68-1.62 1.91-.7 4.03-.6 5.69.26 1.58.84 2.83 2.2 3.52 3.85.64 1.45.79 3.07.44 4.61l-.06-.07c.91-.1 1.84.04 2.68.39.75.3 1.43.77 1.99 1.36.25.26.47.57.63.9.14.31.25.62.33.95.13.57.21 1.15.23 1.74.03.81-.04 1.62-.21 2.41-.04.2-.1.41-.17.6-.05.13-.07.2-.07.2" class="dynamic-color"/>
    <g id="locker">
        <path d="M76.6 9.62h-1v-6A2.63 2.63 0 0 0 72.98 1a2.63 2.63 0 0 0-2.62 2.62v6.01h-1V3.62A3.62 3.62 0 0 1 72.98 0a3.62 3.62 0 0 1 3.62 3.62v6.01Z" class="cls-3"/>
        <path d="M77.05 6.95h-8.13c-.49 0-.88.39-.88.88v4.59c0 .49.39.88.88.88h8.13c.49 0 .88-.39.88-.88V7.83c0-.49-.39-.88-.88-.88" class="cls-3"/>
        <path d="M72.98 10.12c-.16 0-.32-.05-.46-.14a.86.86 0 0 1-.31-.37.87.87 0 0 1-.05-.48c.03-.16.11-.31.23-.42.12-.12.26-.19.42-.23.16-.03.33-.02.48.05s.28.17.37.31a.825.825 0 0 1-.1 1.04c-.15.15-.36.24-.58.24" class="cls-8"/>
        <path d="M73.21 9.62h-.45v1.7h.45z" class="cls-8"/>
    </g>
</svg>
