<svg xmlns="http://www.w3.org/2000/svg" xml:space="preserve" id="rgaa" width="80" height="68" x="0" y="0" style="enable-background:new 0 0 80 68" version="1.1">
    <style>
        .st1{fill:#e0e0e0}.st2{fill:#263238}.st3{fill:#fff}.st5{fill:#f5f5f5}.st6{fill:#db1f29}.st7{fill:#ffc33e}.st8{fill:#455a64}.st10{fill:#ffbe9d}.st11{fill:#eb996e}.st12{fill:#65463c}
    </style>
    <path id="haricot" d="M74.5 11C70.4 5 63.6.7 56.3.5 49 .4 41.7 4.9 39.2 11.8c-1.2 3.3-1.2 7-1.9 10.5S35 29.4 31.8 31c-4.3 2.1-9.4-.3-14.2-.1-5.5.2-10.4 4.1-12.3 9.2-1.9 5.1-1 11 1.9 15.6s7.7 7.9 12.8 9.6c5.2 1.7 17.3 2.7 22.7 2 2.5-.1 5.1-.5 7.5-1.2 7.4-2.2 13.4-5.9 18.5-11.1 6-6.2 9.7-14.5 10.5-23.1.8-7.3-.6-14.9-4.7-20.9z" style="fill:#ffc33e;fill-opacity:.1"/>
    <path d="M66.8 6.8v41.8c0 .3-.1.6-.2.9-.1.3-.3.5-.5.8-.2.2-.5.4-.8.5-.3.1-.6.2-.9.2h-62c-.3 0-.6-.1-.9-.2-.3-.1-.5-.3-.8-.5-.2-.2-.4-.5-.5-.8-.1-.3-.2-.6-.2-.9V6.8c0-.6.2-1.2.7-1.7.4-.4 1-.7 1.7-.7h62c.6 0 1.2.2 1.7.7.4.5.7 1.1.7 1.7z" class="st1"/>
    <path d="M66.8 6.8v-.5c-.1-.2-.1-.4-.3-.6-.2-.3-.4-.5-.7-.7-.2-.1-.3-.2-.5-.3-.2-.1-.4-.1-.6-.1H2.1c-.2 0-.4.1-.6.2-.4.2-.7.4-1 .8 0-.1-.1 0-.1.1s-.1.2-.1.3c-.1.2-.2.4-.2.6v42c0 .2 0 .5.1.7l.3.6c.1.2.3.4.5.5.2.1.4.3.6.3.4.3.9.2 1.4.2h61.6c.2 0 .3-.1.5-.1.3-.1.6-.3.9-.6.2-.3.4-.6.5-.9 0-.1 0-.2.1-.3V7.3c.2-.3.2-.5.2-.5v42.3c0 .1 0 .2-.1.3-.1.3-.3.7-.5.9-.2.3-.6.5-.9.6-.2.1-.3.1-.5.1H2.3c-.5 0-1-.2-1.3-.5-.2-.1-.4-.3-.5-.5-.1-.2-.2-.4-.3-.7-.2-.2-.2-.4-.2-.7v-42c0-.2.1-.4.1-.6 0-.1.1-.2.1-.3.1-.1.1-.2.2-.3.2-.3.6-.6 1-.8.2-.1.4-.1.6-.2h62.5c.2 0 .4.1.6.1.2.1.4.2.5.3.3.2.5.4.7.7.1.2.2.4.3.7v.4l.2.2z" class="st2"/>
    <path d="M4.6 6v43.6h55.7V6H4.6z" class="st3"/>
    <path d="M2 20.9v13.7c0 .1.1.2.2.2h.4c.1 0 .2-.1.2-.2V20.9c0-.1-.1-.2-.2-.2h-.5c-.1 0-.1.1-.1.2z" style="fill:#263238;fill-opacity:.3"/>
    <path d="M53.2 31.3H32.9c-.4 0-.7.3-.7.7v2.1c0 .4.3.7.7.7h20.3c.4 0 .7-.3.7-.7V32c0-.4-.3-.7-.7-.7zm-23.4 0H9.5c-.4 0-.7.3-.7.7v2.1c0 .4.3.7.7.7h20.3c.4 0 .7-.3.7-.7V32c0-.4-.3-.7-.7-.7z" class="st5"/>
    <path d="M10.5 33.3v.2h-.1l.1-.2-.4-.5h.1l.3.5.2-.5h.1l-.3.5zm.3 0v-.2l.1-.1h.2c.1 0 .1 0 .1.1l.1.1v.2c0 .1-.1.1-.1.1h-.3s-.1 0-.1-.1c0 0 0-.1-.1-.1h.1zm.4 0c0-.1 0-.1 0 0v-.1h-.4v.4h.4v-.3zm.8-.3v.5h-.1v-.1s0 .1-.1.1h-.2s-.1 0-.1-.1V33h.1v.3c0 .1.1.2.1.2h.2v-.2l.1-.3zm.5 0c0 .1-.1.1-.1.1h-.1v.5h-.1V33h.1v.1s0-.1.1-.1h.1zm1-.2v.7h-.1L13 33v.5h-.1v-.7h.1l.4.5v-.5h.1zm.6.4v.3H14v-.1l-.1.1h-.1c-.1 0-.2-.1-.2-.2s.1-.2.2-.2l.3.1c-.1-.1-.1-.1-.2-.1s-.1 0-.2.1v-.1c.1 0 .1-.1.2-.1s.2.1.2.2zm-.1.2-.2-.1c-.1 0-.1 0-.1.1 0 0 0 .1.1.1s.1 0 .2-.1zm1.2-.2v.3h-.1l.1-.3c-.1-.1-.1-.1-.2-.1s-.2.1-.2.2v.3h-.1v-.3c0-.1-.1-.2-.1-.2-.1 0-.2.1-.2.2v.3h-.1V33h.1v.1s0-.1.1-.1h.2s.1 0 .1.1l.1-.1h.2s.1 0 .1.1v.1zm.7.1h-.4s0 .1.1.1h.2c-.1 0 0 0 .1-.1v.2l-.1.1h-.2c-.1 0-.1-.1-.1-.1s-.1-.1-.1-.2v-.1s0-.1.1-.1c0 0 .1 0 .1-.1h.2s.1 0 .1.1c0 0 0 .1.1.1-.1 0-.1 0-.1.1zm-.5-.1h.3s0-.1-.1-.1h-.2v.1zm18.4-.2v.2h-.1V33l-.3-.5h.1l.3.5.2-.5h.1l-.3.5zm.3 0v-.2l.1-.1h.2c.1 0 .1 0 .1.1l.1.1v.2c0 .1-.1.1-.1.1h-.3s-.1 0-.1-.1c0 0 0-.1-.1-.1h.1zm.4 0c0-.1 0-.1 0 0-.1-.1-.1-.1-.1-.2h-.1s-.1 0-.1.1v.2s0 .1.1.1h.3c-.1-.1-.1-.1-.1-.2 0 0 .1 0 0 0zm.8-.3v.5h-.1v-.1s0 .1-.1.1h-.2s-.1 0-.1-.1v-.5h.1v.4c0 .1.1.2.1.2h.2c.1 0 0 0 0-.1v-.4h.1zm.5 0c0 .1-.1.1-.1.1h-.1v.5h-.1v-.5h.1v.1s0-.1.1-.1c0-.1 0-.1.1-.1zm1-.2v.7h-.1l-.4-.5v.5h-.1v-.7h.1l.4.5.1-.5zm.6.4v.3h-.1v-.1l-.1.1h-.1c-.1 0-.2-.1-.2-.2s.1-.2.2-.2l.3.1c-.1-.1-.1-.1-.2-.1s-.1 0-.2.1v-.1c.1 0 .1-.1.2-.1s.2.1.2.2zm-.1.2-.1-.1c-.1 0-.1 0-.1.1 0 0 0 .1.1.1l.1-.1zm1.2-.2v.3h-.1l.1-.3c-.1-.1-.1-.1-.2-.1s-.2.1-.2.2v.3H38V33c0-.1-.1-.2-.1-.2-.1 0-.2.1-.2.2v.3h-.1v-.5h.1v.1s0-.1.1-.1h.2s.1 0 .1.1l.1-.1h.2s.1 0 .1.1c0-.1 0-.1 0 0zm.7.1h-.4s0 .1.1.1h.2c-.1 0-.1 0 .1-.1v.2l-.1.1h-.2c-.1 0-.1-.1-.1-.1s-.1-.1-.1-.2v-.1s0-.1.1-.1c0 0 .1 0 .1-.1h.2s.1 0 .1.1c0 0 0 .1.1.1-.1 0-.1 0-.1.1zm-.5-.1h.3s0-.1-.1-.1h-.2v.1z" class="st1"/>
    <path d="M53.5 16.5H9.7c-.4 0-.7.3-.7.7v2.1c0 .4.3.7.7.7h43.8c.4 0 .7-.3.7-.7v-2.1c0-.4-.3-.7-.7-.7z" class="st5"/>
    <path d="M10.5 18.5v.2h-.1l.1-.2-.4-.5h.1l.3.5.2-.5h.1l-.3.5zm.3 0v-.2l.1-.1h.2c.1 0 .1 0 .1.1l.1.1v.2c0 .1-.1.1-.1.1h-.3s-.1 0-.1-.1c0 0 0-.1-.1-.1h.1zm.4 0c0-.1 0-.1 0 0v-.1h-.4v.4h.4v-.3zm.8-.3v.5h-.1v-.1s0 .1-.1.1h-.2s-.1 0-.1-.1v-.5h.1v.3c0 .1.1.2.1.2h.2v-.2l.1-.2zm.5 0c0 .1-.1.1-.1.1h-.1v.5h-.1v-.5h.1v.1s0-.1.1-.1c0-.1 0-.1.1-.1zm.9.4-.5.1V18h.5v.1H13v.2h.4v.1H13v.2h.4zm1-.2v.3h-.1l.1-.3c-.1-.1-.1-.1-.2-.1s-.2.1-.2.2v.3h-.1v-.3c0-.1-.1-.2-.1-.2-.1 0-.2.1-.2.2v.3h-.1v-.5h.1v.1s0-.1.1-.1h.2s.1 0 .1.1l.1-.1h.2s.1 0 .1.1c0-.1 0-.1 0 0zm.6 0v.3-.1l-.1.1h-.1c-.1 0-.2-.1-.2-.2s.1-.2.2-.2l.2.1c-.1-.1-.1-.1-.2-.1s-.1 0-.2.1v-.1c.1 0 .1-.1.2-.1h.2v.2c0-.1 0 0 0 0zm-.1.2-.2-.1c-.1 0-.1 0-.1.1 0 0 0 .1.1.1s.2 0 .2-.1zm.3-.6c.1 0 .1 0 0 0l.1-.1c0 .2 0 .2-.1.1.1.1.1.1 0 0 0 .1 0 .1 0 0 0 .1 0 0 0 0zm0 .2.1.5h-.1v-.5zm.3-.2.1.8h-.1V18z" class="st1"/>
    <path d="M10.3 15.4v.1h-.5v-.7h.5v.2h-.4v.2h.3v.1h-.3v.2h.4zm1-.2v.3h-.1v-.3c0-.1 0-.1-.1-.1s-.1.1-.1.2v.3h-.1v-.3c0-.1 0-.1-.1-.1s-.1.1-.1.2v.3h-.1V15h.1v.1l.1-.1h.2s.1 0 .1.1l.1-.1h.2s.1 0 .1.1c-.2 0-.2 0-.2.1z" class="st2"/>
    <path d="M11.9 15.2v.3h-.1v-.1l-.1.1h-.1c-.1 0-.2-.1-.2-.2s.1-.2.2-.2h.1c0-.1 0-.1-.1-.1s-.1 0-.2.1V15c.1 0 .1-.1.2-.1.3.1.3.2.3.3zm-.1.2-.1-.1c-.1 0-.1 0-.1.1 0 0 0 .1.1.1l.1-.1zm.3-.5c0-.1 0-.1 0 0 0-.1 0-.1 0 0 0-.1 0-.1 0 0 .1-.1.1-.1 0 0l.1-.1c0 .1 0 .1-.1.1.1 0 .1 0 0 0zm0 .1h.1v.5h-.1V15zm.3-.2h.1v.8h-.1v-.8z" class="st2"/>
    <path d="m13.3 14.8-.1.2h.2-.2l.1.1h-.1V15l-.1.2H13l.1-.1-.1-.1v-.1h.2l-.2-.1h.1l.1.2.1-.2zm5.6 7.3-.1.2h.2v.1h-.2l.1.1h-.1l-.1-.2-.1.2h-.1l.1-.1h-.2v-.1h.2l-.1-.1h.1l.1.2.2-.3z" class="st6"/>
    <path d="M9.4 22.5v-.1s0-.1.1-.1l.1-.1h.3l.1.1s-.1 0-.1-.1h-.2s-.1 0-.1.1c0 0 0 .1-.1.1v.2s0 .1.1.1c0 0 .1 0 .1.1h.2s.1 0 .1-.1l.1.1-.1.1h-.3s-.1 0-.1-.1l-.1-.1c-.1-.1-.1-.2-.1-.2zm.7.1v-.2l.1-.1h.2c.1 0 .1 0 .2.1l.1.1v.2c0 .1-.1.1-.1.1h-.3s-.1 0-.1-.1c0 0 0-.1-.1-.1 0 .1 0 0 0 0zm.5 0s-.1-.1 0 0c0-.1-.1-.1-.1-.1h-.2v.2s0 .1.1.1h.3c-.2-.1-.2-.1-.1-.2zm.7-.1v.3h-.1v-.3c0-.1 0-.1-.1-.1h-.2v.5h-.1v-.5h.1v.1s.1 0 .1-.1h.2s.1 0 .1.1c0-.1 0-.1 0 0zm.5.3h-.3v-.5h-.1v-.1h.1v-.1h.1v.1h.1v.1h-.1v.3c0 .1 0 .1.1.1 0 .1.1 0 .1.1zm.6-.3v.3h-.1v-.1l-.1.1h-.1c-.1 0-.2-.1-.2-.2s.1-.2.2-.2h.1c0-.1 0-.1-.1-.1s-.1 0-.2.1l-.1-.1c.1 0 .1-.1.2-.1.3.1.4.2.4.3zm-.1.2-.1-.1c-.1 0-.1 0-.1.1 0 0 0 .1.1.1-.1 0 0 0 .1-.1-.1 0 0 0 0 0zm.2-.1v-.1s0-.1.1-.1c0 0 .1 0 .1-.1h.2l.1.1-.1.1-.1-.1h-.2v.2h.2l.1-.1.1.1-.1.1h-.2s-.1 0-.1-.1c0 0 0-.1-.1-.1v.1zm1 .2h-.3v-.5h-.1v-.1h.1v-.1h.1v.1h.1v.1h-.1v.3c0 .1 0 .1.1.1 0 .1 0 0 .1.1zm1.2-.7v.7h-.1l-.4-.5v.5H14v-.7h.1l.4.5v-.5h.2zm.7.2v.5h-.1v-.1l-.1.1H15s-.1 0-.1-.1v-.5h.1v.3c0 .1 0 .1.1.1s.1-.1.1-.2v-.3l.2.2zm1 .2v.3h-.1v-.3c0-.1 0-.1-.1-.1s-.1.1-.1.2v.3H16v-.3c0-.1 0-.1-.1-.1s-.1.1-.1.2v.3h-.1v-.5h.1v.1l.1-.1h.2s.1 0 .1.1l.1-.1h.2s.1 0 .1.1c-.2-.2-.2-.2-.2-.1.1 0 .1 0 0 0z" class="st2"/>
    <path d="M17.2 22.6v.1s0 .1-.1.1c0 0-.1 0-.1.1h-.2s-.1 0-.1-.1v.1h-.1v-.8h.1v.3l.1-.1h.2s.1 0 .1.1 0 .1.1.1v.1zm-.1 0s-.1-.1 0 0c0-.1-.1-.1-.1-.1h-.2v.2s0 .1.1.1h.3c-.2-.1-.2-.1-.1-.2zm.7 0h-.4s0 .1.1.1h.3l.1.1-.1.1h-.2c-.1 0-.1-.1-.1-.1s-.1-.1-.1-.2v-.1s0-.1.1-.1c0 0 .1 0 .1-.1h.2s.1 0 .1.1c0 0 0 .1.1.1-.2 0-.2.1-.2.1zm-.4-.1h.3s0-.1-.1-.1h-.1l-.1.1z" class="st2"/>
    <path d="M18.3 22.3v.1h-.2v.5H18v-.5h.1v.1l.1-.1c0-.1 0-.1.1-.1z" class="st2"/>
    <path d="m14.6 29.4-.1.2h.2v.1h-.2l.1.1h-.1l-.1-.2-.1.2h-.1l.1-.1h-.2v-.1h.2l-.1-.1h.1l.1.2.2-.3z" class="st6"/>
    <path d="M10.2 30h-.3l-.1.2h-.1l.3-.7h.1l.3.7h-.1l-.1-.2zm0-.1-.2-.3-.1.3h.3zm.8-.5v.8h-.1v-.1s-.1 0-.1.1h-.1c-.1 0-.1 0-.2-.1s-.1-.1-.1-.2 0-.1.1-.2.1-.1.2-.1h.1s.1 0 .1.1v-.3h.1zm-.1.5c0-.1-.1-.1-.1-.1h-.2v.2s0 .1.1.1h.3c-.1-.1-.1-.1-.1-.2 0 .1 0 0 0 0zm.8-.5v.8h-.1v-.1l-.1.1h-.1c-.1 0-.1 0-.2-.1s-.1-.1-.1-.2 0-.1.1-.2.1-.1.2-.1h.1s.1 0 .1.1v-.3h.1zm-.1.5c0-.1-.1-.1-.1-.1h-.2v.2s0 .1.1.1h.3c-.1-.1-.1-.1-.1-.2 0 .1 0 0 0 0zm.6-.3v.1H12v.5h-.1v-.5h.1v.1l.1-.1c0-.1.1-.1.1-.1zm.6.4h-.4s0 .1.1.1h.3l.1.1-.1.1h-.2s-.1 0-.1-.1l-.1-.1V30c0-.1 0-.1.1-.2s.1-.1.2-.1h.1s.1 0 .1.1c0 0 0 .1.1.1-.2 0-.2 0-.2.1 0-.1 0 0 0 0zm-.4-.1h.3v-.1h-.1c-.1-.1-.1 0-.2.1 0-.1 0-.1 0 0z" class="st2"/>
    <path d="M12.9 30.1c.1-.1.2 0 .2 0 .1 0 .1 0 .1-.1s-.3 0-.3-.2c0-.1.1-.2.2-.2h.2v.1h-.2c-.1 0-.1 0-.1.1s.3 0 .3.2c0 .1-.1.2-.2.2s-.1 0-.2-.1zm.5 0c.1-.1.2 0 .2 0 .1 0 .1 0 .1-.1s-.3 0-.3-.2c0-.1.1-.2.2-.2h.2v.1h-.2c-.1 0-.1 0-.1.1s.3 0 .3.2c0 .1-.1.2-.2.2 0 0-.1 0-.2-.1z" class="st2"/>
    <path d="m36.1 29.7-.1.2h.2v.1H36l.1.1H36l-.1-.2-.1.2h-.1l.1-.1h-.2v-.1h.2l-.1-.1h.1l.1.2.2-.3z" class="st6"/>
    <path d="M32.8 30.4v-.1c.1.1.2.1.2.1.1 0 .2 0 .2-.1 0-.2-.4-.1-.4-.3 0-.1.1-.2.3-.2.1 0 .2 0 .2.1v.1c-.1 0-.1-.1-.2-.1s-.2 0-.2.1c0 .2.4.1.4.3 0 .1-.1.2-.3.2-.1 0-.2 0-.2-.1zm1 .1h-.3V30h-.1.1v-.1h.1v.1h.1v.1h-.1v.3c0 .1 0 .1.1.1 0-.1 0-.1.1 0zm.5-.3v.3h-.1v-.1l-.1.1H34c-.1 0-.2-.1-.2-.2s.1-.2.2-.2h.1c0-.1 0-.1-.1-.1s-.1 0-.2.1l.1-.1c.1 0 .1-.1.2-.1.1.1.2.1.2.3zm-.1.1-.1-.1c-.1 0-.1 0-.1.1 0 0 0 .1.1.1l.1-.1c0 .1 0 .1 0 0zm.6.2h-.3c-.1 0 0 0 0-.1V30h-.1.1v-.1h.1v.1h.1v.1h-.1v.3c0 .1 0 .1.1.1 0-.1.1-.1.1 0zm.6-.2H35s0 .1.1.1h.3l.1.1-.1.1h-.2s-.1 0-.1-.1l-.1-.1v-.2s0-.1.1-.1c0 0 .1 0 .1-.1h.2s.1 0 .1.1c0 0 0 .1.1.1-.2 0-.2 0-.2.1 0-.1 0 0 0 0zm-.4-.1h.3v-.1h-.2c-.1 0-.1 0-.1.1zm15.9 12.4h.2c.1 0 .2-.1.3-.2.1-.1.1-.2.2-.2.1-.1.1-.3.1-.4v-2.2c0-.1-.1-.2-.2-.3-.1-.1-.2-.1-.3-.2h-6.4c-.2 0-.3.1-.5.2-.1.1-.2.3-.2.5v2.1c0 .2 0 .3.1.5.1.1.2.2.4.3.1 0 .3.1.5 0H51h-6.3c-.2-.1-.3-.2-.4-.3-.1-.1-.1-.3-.1-.5v-2.1c0-.2.1-.4.2-.5.1-.1.3-.2.5-.2h6.4c.1 0 .3.1.4.2.1.1.2.2.2.3v2.2c0 .2 0 .3-.1.4 0 .1-.1.2-.2.3-.1.1-.2.1-.3.1h-.4z" class="st2"/>
    <path d="M45.3 40.9v-.2l.1-.1.1-.1h.4c.1 0 .1.1.1.1l-.1.1s-.1 0-.1-.1h-.1c-.1 0-.1 0-.2.1 0 0-.1.1-.1.2s0 .1.1.2c0 0 .1.1.2.1h.1s.1 0 .1-.1l.1.1c-.1.1-.1.1-.2.1h-.2c-.1 0-.1-.1-.2-.1 0-.2-.1-.3-.1-.3zm.8 0v-.2c0-.1.1-.1.1-.1h.2c.1 0 .1 0 .2.1 0 0 .1.1.1.2v.2c0 .1-.1.1-.1.1-.1 0-.1.1-.2.1h-.1s-.1 0-.1-.1l-.1-.1v-.2zm.4 0v-.1h-.2v.4h.2v-.3c0 .1 0 .1 0 0zm.9 0v.3h-.2v-.3c0-.1 0-.1-.1-.1s-.1 0-.1.2v.3h-.2v-.6h.2v.1s.1 0 .1-.1h.2s.1 0 .1.1v.1c0-.1 0 0 0 0zm.5.3h-.3v-.4h-.1v-.1h.1v-.1h.2v.1h.1v.1h-.1v.2h.1v.2zm.1-.7c0-.1 0-.1 0 0 0-.1.1-.1 0 0l.1-.1v.1H48c.1.1.1.1 0 0zm0 .2h.2v.6H48v-.6zm.9.2v.3h-.2v-.3c0-.1 0-.1-.1-.1s-.1 0-.1.2v.3h-.2v-.6h.2v.1s.1 0 .1-.1h.2s.1 0 .1.1v.1c0-.1 0 0 0 0zm.8-.2v.6h-.2v-.1l-.1.1h-.2s-.1 0-.1-.1c0 0 0-.1-.1-.1v-.4h.2v.3c0 .1 0 .1.1.1s.1 0 .1-.2v-.3l.3.1zm.7.3H50s0 .1.1.1h.3l.1.1-.1.1h-.2s-.1 0-.1-.1l-.1-.1v-.2s0-.1.1-.1c0 0 .1 0 .1-.1h.2s.1 0 .1.1c0 0 0 .1.1.1-.2 0-.2 0-.2.1zm-.5-.1h.3v-.1h-.1c-.1 0-.1 0-.2.1.1-.1 0 0 0 0zM41.8 39h-6.3c-.4 0-.7.3-.7.7v2.1c0 .4.3.7.7.7h6.3c.4 0 .7-.3.7-.7v-2.1c0-.4-.3-.7-.7-.7z" class="st2"/>
    <path d="m37.3 41.2.1-.1c.1 0 .2.1.2.1.1 0 .1 0 .1-.1s-.4 0-.4-.3c0-.1.1-.2.3-.2.1 0 .2 0 .3.1l-.1.1c-.1 0-.1-.1-.2-.1s-.1 0-.1.1.4 0 .4.3c0 .1-.1.2-.3.2-.1-.1-.2-.1-.3-.1zm1.3-.3v.3h-.2v-.1s0 .1-.1.1h-.1c-.1 0-.2-.1-.2-.2s.1-.2.2-.2h.1c0-.1 0-.1-.1-.1s-.1 0-.2.1v-.1c.1 0 .2-.1.2-.1.3.1.4.1.4.3zm-.2.2-.1-.1c-.1 0-.1 0-.1.1s0 .1.1.1c0-.1 0-.1.1-.1zm.9-.4-.3.5h-.2l-.2-.6h.2l.2.4.2-.4h.1zm.6.3h-.4s0 .1.1.1h.3l.1.1-.1.1h-.2s-.1 0-.1-.1l-.1-.1v-.2s0-.1.1-.1c0 0 .1 0 .1-.1h.2s.1 0 .1.1c0 0 0 .1.1.1-.2 0-.2 0-.2.1zm-.5-.1h.3v-.1h-.1c-.1 0-.1 0-.2.1.1-.1 0 0 0 0z" class="st3"/>
    <path d="M53.5 24.1H9.6c-.4 0-.7.3-.7.7V27c0 .4.3.7.7.7h43.9c.4 0 .7-.3.7-.7v-2.1c0-.4-.3-.8-.7-.8z" class="st5"/>
    <path d="M10.8 26.1v.3h-.1l.1-.3-.4-.5h.1l.3.5.2-.5-.2.5zm.2-.1v-.2l.1-.1h.2c.1 0 .1 0 .1.1l.1.1v.2c0 .1-.1.1-.1.1h-.2s-.1 0-.1-.1c0 0 0-.1-.1-.1s0 .1 0 0zm.5 0v-.1h-.4v.4h.4V26c0 .1 0 .1 0 0zm.7-.2v.5h-.1v-.1s0 .1-.1.1h-.2s-.1 0-.1-.1v-.5h.1v.3c0 .1.1.2.1.2h.2V26l.1-.2zm.5 0c0 .1-.1.1-.1.1h-.1v.5h-.1v-.5h.1v.1l.1-.1c0-.1.1-.1.1-.1zm1-.2v.7h-.1l-.4-.5v.5h-.1v-.7h.1l.4.5v-.5h.1zm.7.2v.5h-.1v-.1s0 .1-.1.1H14s-.1 0-.1-.1v-.5h.1v.3c0 .1.1.2.1.2h.2V26l.1-.2zm1.1.2v.3h-.1l.1-.3c-.1-.1-.1-.1-.2-.1h-.2v.5H15V26c0-.1-.1-.2-.1-.2h-.2v.5h-.1v-.5h.1v.1l.1-.1h.2s.1 0 .1.1l.1-.1h.2s.1 0 .1.1v.1c0-.1 0 0 0 0zm.7 0v.1s0 .1-.1.1c0 0-.1 0-.1.1s-.1 0-.1 0h-.1s-.1 0-.1-.1v.1h-.1v-.8h.1v.3l.1-.1h.2s.1 0 .1.1c0 0 0 .1.1.1v.1zm-.1 0c-.1-.1-.1-.1-.1-.2h-.1s-.1 0-.1.1v.2s0 .1.1.1h.3c-.1 0-.1-.1-.1-.2 0 .1 0 .1 0 0zm.8.1h-.4s0 .1.1.1h.2c-.1 0 0 0 .1-.1v.2l-.1.1h-.2c-.1 0-.1-.1-.1-.1s-.1-.1-.1-.2V26s0-.1.1-.1c0 0 .1 0 .1-.1h.2s.1 0 .1.1c0 0 0 .1.1.1-.1 0-.1 0-.1.1zm-.5-.1h.3s0-.1-.1-.1h-.2c.1 0 0 .1 0 .1z" class="st1"/>
    <path d="M17.3 25.8c0 .1-.1.1-.1.1h-.1v.5H17v-.5h.1v.1l.1-.1c0-.1.1-.1.1-.1z" class="st1"/>
    <path d="M8 7.5v.2h.4v.2H8v.3h-.2v-.9h.6v.2H8zm.5.3c0-.1 0-.2.1-.3 0-.1.1-.1.2-.2s.2-.1.3 0c.1 0 .2.1.2.1.1.1.1.1.1.2v.3c0 .1-.1.2-.2.2-.1.1-.2.1-.3.1h-.2c-.1 0-.1-.1-.2-.1L8.4 8c.1-.1.1-.2.1-.2zm.7 0v-.2l-.1-.1h-.2c-.1 0-.1 0-.1.1l-.1.1v.2l.1.1H9s.1 0 .1-.1c0 0 0-.1.1-.1zm.9.4L9.9 8h-.1v.2h-.2v-.9h.4c.2 0 .4.1.4.3v.2l-.1.1.2.3h-.4zm-.2-.7h-.1v.3h.2c.1 0 .2-.1.2-.1-.1-.1-.2-.2-.3-.2z" class="st3"/>
    <path d="M11.2 8.2v-.5l-.2.4h-.1l-.3-.4v.5h-.2v-.9h.2l.3.5.3-.5h.2v.9h-.2z" class="st3"/>
    <path d="M60.4 6H4.7v43.6h55.7V6v43.6H4.7V6h55.7zm3 20c.4 0 .7.1 1 .3.3.2.5.5.7.8.1.3.2.7.1 1-.1.3-.2.7-.5.9-.3.2-.6.4-.9.5-.3.1-.7 0-1-.1-.3-.1-.6-.4-.8-.7-.2-.3-.3-.6-.3-1 0-.5.2-.9.5-1.3.3-.3.8-.4 1.2-.4z" class="st2"/>
    <path d="M63.8 28.5s-2.5-.4-3.9.8c-.6.5-1.2 1.1-1.6 1.9-.4.7-.6 1.5-.7 2.3-.2 1.6-1.3 7.7-1.3 7.7l-2.2-3-2.5 2.2s2.1 10 4 10.7c2 .7 4.1-1.5 4.6-1.9.5-.5 3.6-20.7 3.6-20.7z" class="st7"/>
    <path d="M63 28.5s-3.3 4.6-3.6 5.8c-.4 1.2-3.1 3.3-3.1 6.1 0 1.3.1 2.6.3 3.8.1.7.1 1.5 0 2.2l-1.3 6.1c.3.5.7.8 1.2 1.1.5.3 1 .4 1.6.5 2 .2 7.1 1.4 10.5 0l2.4-1.2v-9.5l1.7-3.9 4.8-7.7s-2.4-1.7-4.7-2.4c-2.5-.7-6.3-.7-9.8-.9z" class="st7"/>
    <path d="M55.5 51.3v-.2l.1-.6c.1-.5.3-1.3.4-2.2l.3-1.5c0-.1 0-.3.1-.4v-1.3c0-.7-.1-1.3-.3-1.9-.2-.7-.4-1.4-.4-2.1.1-.7.2-1.4.5-2.1l.9-1.8c.7-1.1 1.4-2 1.9-2.8l1.3-1.9.4-.5c0-.1.1-.1.1-.2 0 .1-.1.1-.1.2-.1.1-.2.3-.3.5-.3.4-.7 1.1-1.3 1.9-.3.6-1 1.6-1.7 2.6-.4.6-.7 1.1-.9 1.8-.3.6-.5 1.3-.5 2s.1 1.4.4 2.1c.2.6.3 1.3.3 2v1.3c0 .1 0 .3-.1.4-.1.6-.2 1.1-.3 1.5-.2.9-.4 1.7-.5 2.2-.1.3-.1.4-.1.6-.1.3-.1.3-.2.4z" class="st2"/>
    <path d="M79.5 40.4c-1.6 5.1-4.6 11.2-6.9 12.7-.3.2-.6.3-.9.4h-1.8c-.6-.1-1.2-.2-1.6-.6-.1 0-.1-.1-.2-.1-.1-.1-.3-.2-.4-.3l-.1-.1c-.5-.5-1-1.1-1.4-1.8 0-.1-.1-.2-.1-.2-2-3.1-3.1-7-3.1-7l.1-.1 1.2-1.4.6-.7.8-.9.4-.5v.1l.1.1 1 1.5 2.8 4.1s.1-.1.1-.2c.1-.1.1-.2.2-.4.2-.5.5-1.2.8-2 .1-.3.2-.5.3-.7.8-2.2 1.6-4.7 1.6-4.7s1.8-6 2.8-6.3c.2.1 2 .8 3.2 2.7.9 1.2 1.4 3.3.5 6.4z" class="st7"/>
    <path d="M73 37.9v.1l-.1.4-.7 1.6c-.5 1.3-1.2 3.2-2 5.4v.1l-.1-.1c-1.1-1.7-2.5-3.6-3.9-5.7h.1l-.3.5-2.9 3v-.1c.4 1.4.9 2.9 1.5 4.2.5 1.1 1.1 2.1 1.7 3.1.4.6.9 1.3 1.4 1.8l.4.5c.1 0 .1.1.1.2-.1 0-.1-.1-.2-.1l-.5-.4-1.5-1.8c-.7-1-1.3-2-1.8-3.1-.6-1.4-1.1-2.8-1.6-4.2.9-.9 1.9-2 2.9-3l.4-.4.1-.1.1.1c1.4 2.1 2.7 4 3.9 5.7h-.1c.9-2.2 1.6-4.1 2.1-5.4.3-.6.5-1.2.6-1.5.1-.2.1-.3.2-.4.2-.3.2-.3.2-.4z" class="st2"/>
    <path d="M71.8 53.5c-.1 0-.1 0 0 0h-1.7c-.4.5-.9 1-1.3 1.4-1 1-2 2-3 2.8-1.2 1-2.5 2-3.8 2.9-.2.2-.4.3-.7.4-.5.4-1.1.7-1.7 1h-.1c-1.3.8-2.8 1.5-4.2 2.1-.1.1-.2.1-.4.2h-.1c-.2.1-.3.1-.5.2-.9.3-1.8.7-2.7 1v-.3c.4-5.2 3.1-12.2 4-14.4 0-.1.1-.2.1-.3 0-.1.1-.2.1-.2l2.2.4 9.5 1.7h.4l2.6.5.4-.1h.2s.3.2.7.7z" class="st2"/>
    <path d="M68.7 54.9c-1 1-2 2-3 2.8-1.2 1-2.5 2-3.8 2.9-.7-1.4-1.1-2.3-1.1-2.3l-.7-1.2-.9-1.7 1.3-.9.4-.3 6.6-1.8h.3l3.2-.9.9-.3.7 2c-.3.2-.6.3-.9.4H70l-1.3 1.3zm-10.1-.1c-.3.4-.6.9-.8 1.3l-.1.1c-.1.1-.2.3-.2.4-1.2 2.3-1.9 5-2.3 7.6-.1.1-.2.1-.4.2h-.1c-.2.1-.3.1-.5.2-.9.3-1.8.7-2.7 1-.2.1-.4.1-.6.2.5-3.7 1.2-7.3 2.2-10.8.4-1.5 1.2-2.9 2.2-4.1.1-.1.2-.2.3-.4.3.2.5.4.7.6.7.9.9 2.2 1.5 3l.1.1c.3.3.5.5.7.6z" class="st8"/>
    <path d="M64.9 56.7c.3.3.6.7.8 1.1-1.2 1-2.5 2-3.8 2.9-.2.2-.4.3-.7.4-.3-1-.5-2.1-.8-3.1l-.3-.9V57c0-.1 0-.1-.1-.2 0-.1 0-.1-.1-.2v-.1l.7-1.1h.8c1.2 0 2.8.6 3.5 1.3z" class="st8"/>
    <path d="m59.9 56.6.1.3v-.1c-.1-.1-.1-.1-.1-.2v-.1.1zm.1.4s0 .1 0 0c0 .1 0 0 0 0zm0 .1zm1.1 3.7c0 .1 0 .2.1.3-.1-.1-.1-.2-.1-.3-.3-.9-.5-1.7-.7-2.4 0-.2-.1-.3-.1-.5L60 57c.1.3.2.8.4 1.3.3.8.5 1.6.7 2.5zm4.2-3.6c.1.2.3.4.4.6-.2-.2-.3-.4-.4-.6-.2-.1-.4-.3-.5-.5-.2-.2-.3-.3-.5-.4-.6-.4-1.3-.6-2-.8-.3-.1-.7-.1-1-.1h-.7.7c.3 0 .7 0 1 .1.5.1 1 .3 1.4.5l.6.3c.2.1.4.2.5.4.2.1.4.3.5.5z" class="st2"/>
    <path d="M59.8 56.9v.5c-.1.2-.2.5-.2.7-.1.3-.1.6-.2 1-.1 1 0 2.1.2 3.1-1.3.8-2.8 1.5-4.2 2.1-.1.1-.2.1-.4.2h-.1v-.4c0-1 0-2 .2-3 .3-1.4.8-2.8 1.7-3.9.2-.2.4-.4.5-.6l.3-.3s.1 0 .1-.1h.2l1.3.4.3.1.3.2z" class="st8"/>
    <path d="M57.6 56.2s-.1 0 0 0c-.2.2-.2.3-.4.4-.2.2-.5.5-.6.8-.1.1-.2.2-.2.4-.5.9-.9 1.8-1.2 2.8-.2.8-.3 1.7-.4 2.5v1.4h-.1V63c0-.4 0-.8.1-1.1.2-1.5.7-2.9 1.5-4.1.2-.2.3-.5.5-.7.1-.2.3-.3.4-.5l.3-.3.1-.1zm2.1.8c.1-.1.1-.1 0 0 .1-.1.1-.1 0 0v.2l-.1.2c-.2.5-.3 1-.3 1.5-.1.8-.1 1.6 0 2.4 0 .3.1.6.2 1h-.1c-.1-.3-.1-.7-.1-1-.1-.8-.1-1.6 0-2.4 0-.2.1-.5.2-.7.1-.2.1-.5.2-.7V57zm1.5-1.7s.1-.1.1-.2c0-.2 0-.3-.1-.5s-.2-.3-.3-.4c-.1-.1-.2-.1-.2-.1s.2.2.4.5c.1.3.1.5.1.7z" class="st2"/>
    <path d="M57.7 54.6c.4-.6 1.2-.8 1.9-.9.4 0 .8.1 1.2.4.3.3.5.7.6 1.1 0 .4-.1.8-.3 1.2-.2.3-.6.6-1 .7-.4.1-.8.1-1.2-.1-.4-.2-.7-.4-1-.8-.2-.2-.3-.5-.3-.8-.1-.3-.1-.6.1-.8z" class="st8"/>
    <path d="M59.2 54.1c-.2.1-.3.3-.4.4-.2.4-.3.9-.2 1.4.1.5.4.8.8 1.1.2.1.3.2.5.2 0 0-.2-.1-.5-.3-.4-.3-.6-.6-.7-1-.1-.4-.1-.9.1-1.3.3-.4.4-.5.4-.5zm-1.4.3s-.1.1-.2.3c-.1.3-.2.6-.1.9 0 .3.1.6.3.8.1.2.3.3.3.2 0 0-.1-.1-.2-.3-.1-.2-.2-.5-.3-.8 0-.3 0-.5.1-.8.1-.2.2-.3.1-.3z" class="st2"/>
    <path d="M57.6 56.2c.3.3.6.5.9.7.4.2.8.3 1.1.3-.1.2-.3.4-.4.5-.2.1-.4.2-.6.2-.2 0-.4 0-.6-.1-.2-.1-.3-.2-.4-.4-.1-.2-.2-.4-.2-.6.1-.3.1-.5.2-.6zm-.7.6c0 .1-.1.2-.1.2 0 .1-.1.1-.1.1 0 .1-.1.1-.1.2-.5 1-1.1 2-1.4 3.1-.1.2-.1.4-.2.6 0 .1-.1.3-.1.4 0 .1 0 .2-.1.3-.2.9-.2 1.7-.1 2.4v.2c-.2.1-.3.1-.5.2-.1-1-.1-2 0-3 .3-1.7 1.1-3.6 2.7-4.7z" style="opacity:.2"/>
    <path d="M60.4 13.8c-.5-.8-.2-1.9.5-2.6.7-.6 1.7-.9 2.6-.9 1 .1 1.9.3 2.8.6.3-.4.8-.8 1.3-1 .5-.2 1.1-.2 1.6-.1s1.1.4 1.5.7c.4.4.7.9.9 1.4.3-.1.7-.2 1-.1.3.1.7.2.9.4.3.2.5.5.6.9.1.3.1.7.1 1l-4 2-3.5 8.7c-.6.6-1.4 1.1-2.3 1.1-.9.1-1.8-.1-2.5-.6s-1.3-1.3-1.5-2.1c-.2-.9-.1-1.8.3-2.6-.3-.2-.5-.4-.7-.7-.4-.2-.8-.4-1.1-.7-.3-.3-.5-.7-.7-1.1-.7-1.7.4-3.8 2.2-4.3z" class="st2"/>
    <path d="M65.4 29.5c0-.5.1-1 .1-1.4 0 0-2.6-.6-2.9-4.1-.1-1.7.2-4.5.5-6.8.3-2.1 1.9-4.5 3.9-4.1l6.3 2.1c.6.1.8.7.7 1.3v.3l-1 9.8-.3 3c-.2 1.9-1.9 3.8-3.8 3.7-.5 0-1-.1-1.4-.3-.4-.2-.9-.5-1.2-.8-.3-.4-.6-.8-.8-1.2-.1-.5-.1-1-.1-1.5z" class="st10"/>
    <path d="M63.8 20.2c0 .1 0 .2.1.3.1.1.2.1.3.2h.2c.1 0 .1 0 .2-.1l.1-.1s0-.1.1-.2c0-.1 0-.2-.1-.3-.1-.1-.2-.1-.3-.2h-.2c-.1 0-.1 0-.2.1l-.1.1c-.1.1-.1.2-.1.2zm-.1-1.2c0 .1.4-.2.9-.1.5 0 .8.3.9.2.1-.1 0-.1-.2-.3-.2-.2-.4-.3-.7-.3-.2 0-.5 0-.7.2-.2.1-.2.2-.2.3zm4.2 1.5c0 .1 0 .2.1.3.1.1.2.1.3.2h.2c.1 0 .1 0 .2-.1l.1-.1s0-.1.1-.2c0-.1 0-.2-.1-.3-.1-.1-.2-.1-.3-.2h-.2c-.1 0-.1 0-.2.1l-.1.1c-.1.1-.1.1-.1.2zm.4-1.3c0 .1.4-.2.9-.1.5 0 .8.3.9.2.1-.1 0-.1-.2-.3-.2-.2-.4-.3-.7-.3-.2 0-.5 0-.7.2-.2.2-.3.3-.2.3zm-2 3.3c-.2-.1-.5-.2-.8-.2-.1 0-.2-.1-.2-.1 0-.1 0-.2.1-.4.1-.3.3-.6.4-.9.6-1.3 1-2.3 1-2.4 0 0-.6 1-1.2 2.3-.1.3-.3.6-.4.9-.1.1-.1.3-.1.5 0 0 0 .1.1.1l.1.1h.2c.3 0 .5.1.8.1z" class="st2"/>
    <path d="M65.5 28.1c1.6.2 3.2-.1 4.7-.9 0 0-1.4 2.3-4.8 1.8l.1-.9z" class="st11"/>
    <path d="M68.4 17.9c0 .1.5.1 1.1.1.6.1 1 .2 1.1.1 0-.1 0-.2-.2-.3-.2-.2-.5-.2-.8-.3-.3 0-.6 0-.8.1-.4.2-.5.3-.4.3zm-4.6-.3c.1.1.5 0 1 .1.5 0 .9.1 1 0 0-.1 0-.2-.2-.3-.2-.1-.5-.2-.8-.2-.3 0-.5 0-.8.2-.2 0-.2.1-.2.2z" class="st2"/>
    <path d="M71.6 13.1c0 .3-.1.7-.3 1-.2.3-.4.6-.7.8-.3.2-.6.3-.9.4-.3.1-.7.1-1 0-.5-.1-1.1-.4-1.5-.2-.5.2-.6 1-1 1.3-.6.5-1.6-.1-2.4.1-.6.1-1 .7-1.5 1.1-.4.4-1.1.9-1.6.6.1-.5.2-1.1.4-1.6s.5-1 1-1.2c.3-.1.5-.2.8-.4.5-.4.7-1 1-1.6.2-.3.5-.6.9-.8.4-.2.8-.3 1.2-.3.7 0 1.4.2 2 .1.5-.1.9-.4 1.4-.4 1-.1 1.8.6 2.5 1.4l-.3-.3z" class="st2"/>
    <path d="M68.4 14.2c.4-.1 1.3-.3 1.6-.7.3-.4.6-.7 1-.9.4-.2.9-.3 1.4-.2.5.1.9.3 1.2.6.3.3.5.8.6 1.2.6.1 1.1.3 1.5.6.5.3.8.8 1 1.3.2.5.3 1.1.2 1.7-.1.6-.3 1.2-.6 1.6-.2.3-.3.5-.4.8.2.2.5.5.7.8.9 1.5-.9 2.3-.9 2.3.1 1.1-.8 1.2-1.5 1.3-.6.1-.8 1.8-1.2 1.8l-.2-5.2c-.1 0-.1.1-.2.1-1.2.2-1.2-2.1-.8-2.7-.4-.4-.8-.8-1.1-1.3-.3-.8-.4-1.6-.4-2.4-.4.1-2.1-.6-1.9-.7z" class="st2"/>
    <path d="M72.7 21.6c0-.2.1-.3.2-.5.1-.1.2-.3.4-.3.2-.1.3-.1.5-.1s.3.1.5.2c.3.2.6.7.5 1.4-.2 2.1-2.3 1.4-2.3 1.3 0 0 .1-1.1.2-2z" class="st10"/>
    <path d="M73.2 22.9s0 .1 0 0c.2.1.3.1.4.1.1-.1.3-.2.4-.3.1-.1.1-.3.2-.4v-.5c0-.1 0-.1-.1-.2 0-.1-.1-.1-.2-.1h-.1s-.1 0-.1.1v.1-.1c0-.1.1-.1.1-.1h.2c.1 0 .2.1.2.1.1.1.1.1.1.2.1.2.1.4.1.6 0 .2-.1.4-.2.5-.1.1-.3.3-.4.3h-.2c-.1 0-.1 0-.1-.1-.3-.1-.3-.2-.3-.2z" class="st12"/>
    <path d="M61.6 20.2s-.2-.1-.5-.4c-.4-.4-.7-.9-.8-1.5-.1-.4-.1-.8 0-1.2.1-.4.3-.9.6-1.2.3-.4.8-.7 1.3-.8.5-.2 1-.2 1.5-.1.1 0 .2.1.3.1.1 0 .2.1.3.1l.1.1v-.1c0-.2 0-.5.2-.7.1-.2.3-.4.5-.5.4-.2.9-.3 1.3-.3.9.1 1.7.4 2.4.4.6 0 1.1-.2 1.5-.5l.3-.3s0-.1.1-.1c-.1.2-.2.3-.4.4-.4.3-.9.5-1.5.4-.4 0-.7-.1-1.1-.2-.4-.1-.8-.2-1.3-.2h-.7c-.2 0-.5.1-.7.3-.2.1-.4.3-.6.5-.2.2-.2.5-.2.8l.1-.1c-.1 0-.2-.1-.3-.1-.1 0-.2-.1-.3-.1-.5-.1-1.1-.1-1.6.1s-1 .5-1.3.9c-.3.4-.5.8-.6 1.3-.1.5 0 1 .1 1.5.2.5.4.9.8 1.2.1.1.2.2.4.3h.1zm-.5-7.1.6-.3c.3-.1.5-.1.8 0 .3.1.6.2.9.5l.1.1v-.1c.1-.4.3-.8.6-1.1.3-.3.7-.5 1.1-.6.6-.1 1.3 0 1.9.3l1.5.6c.4.1.7.1 1.1 0 .1 0 .2-.1.3-.1.1 0 .1-.1.1-.1s-.1.1-.4.1c-.4.1-.7.1-1.1 0-.5-.1-1-.3-1.5-.6l-.9-.3c-.3-.1-.7-.1-1.1 0-.4.1-.8.3-1.2.6-.3.3-.5.7-.7 1.1h.1c-.3-.3-.6-.4-.9-.5-.3 0-.6 0-.8.1-.2.1-.3.1-.5.2v.1z" class="st8"/>
    <path d="m66.6 23.5.2-.2c.1 0 .2-.1.3-.1.1 0 .2 0 .3.1.1.1.2.1.3.2.1.1.1.1.1.2s0 .2-.1.3c0 .1-.1.1-.2.2s-.3.1-.4.1c-.1 0-.3 0-.4-.1-.1-.1-.2-.2-.2-.4s0-.2.1-.3z" class="st11"/>
    <path d="m67.8 23.1-.2.2c-.1.2-.3.3-.5.4-.2.1-.4.1-.7 0-.2 0-.3-.1-.3-.1s.1.1.3.2c.2.1.5.1.8 0 .2-.1.5-.3.6-.5.1-.1 0-.2 0-.2zm8-5.7s0-.1 0 0c.2-.1.3-.2.3-.3.3-.3.5-.7.6-1.1.1-.3.1-.6 0-.8-.1-.3-.2-.6-.5-.8-.1-.1-.3-.2-.5-.3-.2-.1-.4-.1-.5-.1-.2 0-.4 0-.6.1-.2.1-.3.2-.5.4l.1.1c.3-.7.2-1.5-.1-2.2-.1-.3-.3-.5-.6-.7-.2-.2-.5-.3-.8-.4h-.6c-.2.1-.4.2-.5.3l-.2.2s0 .1-.1.1l.3-.3c.3-.2.7-.3 1.1-.3.3.1.6.2.8.4.2.2.4.4.5.7.3.7.3 1.4 0 2.1l-.1.3.2-.3c.1-.1.3-.3.4-.3.2-.1.3-.1.5-.1s.3 0 .5.1.3.2.4.3c.2.2.4.5.4.8.1.3.1.5 0 .8-.1.4-.3.7-.5 1.1.1 0 0 .2 0 .2zm-29.7 19 2 7.6c.1.2.2.4.3.5.2.1.4.2.6.2l10.4-.2c.1 0 .3 0 .4-.1.1-.1.2-.1.3-.3.1-.1.1-.2.2-.4v-.4L58.8 36c0-.2-.2-.4-.3-.5-.2-.1-.4-.2-.6-.2h-11c-.1 0-.3 0-.4.1-.1.1-.2.1-.3.2-.1.1-.1.2-.2.4.1.1.1.2.1.4z" class="st2"/>
    <path d="M45.2 38.1c-.1-.1-.2-.3-.2-.5s.1-.3.2-.5c.1-.1.2-.2.4-.3.2-.1.3-.1.5-.1.3 0 .7.1 1 .2.4.2.8.3 1.1.6.1.1.3.2.3.3.1.1.2.2.2.4 0 .3-.3.6-.5.5.2.1.3.2.5.3.1.2.2.3.3.5.1.4-.1.6-.5.7l.3.3c.1.1.1.3 0 .4-.1.1-.2.2-.4.3H48c-.3-.1-.5-.3-.7-.6.2.4.3.8.2 1.2-.4-.1-.7-.4-1-.7-.3-.3-.4-.7-.5-1.1-.2-.2-.3-.4-.4-.6-.1-.2 0-.5.1-.7-.2-.1-.3-.2-.5-.4-.1-.2-.2-.4-.2-.6l.2.4z" class="st10"/>
    <path d="m48.5 40.2-.3-.3c-.3-.2-.6-.4-.9-.5h-.5c-.1 0-.3.1-.4.2l-.3.3v-.1c0-.1.1-.2.2-.3.1-.1.3-.2.4-.2h.6c.3.1.7.3.9.5.1.2.2.3.3.4zm-.1-1.5c-.1 0-.3-.1-.4-.2-.1-.1-.3-.1-.4-.2-.2-.1-.4-.1-.6-.1h-.6c-.2 0-.3.1-.4.2l-.3.3v-.1c0-.1.1-.2.2-.3.1-.1.3-.2.4-.2h.6c.2 0 .4.1.6.2.2.1.3.1.4.2.2 0 .4.1.5.2z" class="st12"/>
    <path d="M52.9 39c.2 0 .3.1.4.2.1.1.1.2.1.4 0 .1-.1.3-.2.4H53c-.1 0-.3-.1-.4-.1-.1-.1-.2-.2-.2-.4 0-.1 0-.3.1-.4.2-.1.3-.1.4-.1z" class="st3"/>
    <path d="M63 36.4s-1.1-2.2-1.4-2c-.3.1-.8.1-.5.9.2.8.7 1.4.7 2 0 .6-.5 2.1 0 2.7.6.7 1.5 2.7 1.5 2.7l2.4-2.5-.5-.8s.9-1.3 1.1-2c.1-.6.1-1.2-.1-1.8 0-.4-.1-.8-.3-1.1 0-.3.1-.7 0-1 0-.5-1.3-2.6-1.3-2.6-.2.1-.3.2-.4.4-.1.2-.1.4 0 .6.1.4.3.9.5 1.3l-1.5-.6c-.1.1-.1.2-.1.3v.3c0 .1.1.2.2.3.1.1.2.2.3.2.8.4.9.8.9.8l-1.1.1s-.1.6.4.8l.5.1-1.3.9z" class="st10"/>
    <path d="m63.7 35.4 1 .2c.1.3.2.6.2.9 0 .4-.2.7-.5 1-.3.3-.6.5-1 .7-.3.1-.6.3-.8.6l-.3.6v.2-.3c0-.2.1-.4.3-.6.2-.2.5-.4.8-.6.4-.2.7-.4 1-.6.3-.3.4-.6.5-1 0-.3 0-.6-.2-.9-.3 0-.6-.1-1-.2zm2.3.1s0-.1-.1-.2c-.1-.2-.2-.3-.4-.4-.2-.1-.4-.2-.6-.2-.1 0-.2 0-.3-.1h.3c.2 0 .4.1.6.2.1.1.2.1.3.2.1.1.1.2.1.3.1.1.1.2.1.2zm-.2-1.2s-.2-.3-.5-.6-.6-.5-.6-.5c.6.2.9.6 1.1 1.1z" class="st12"/>
    <path d="M75.8 30.9s5.9 2.1 3.7 9.5c-1.8 5.9-5.5 12.9-7.8 13.1-1.2.1-2.5 0-3.4-.6-3.3-2.6-5.3-9.7-5.3-9.7l3.2-3.6 3.9 5.7c.4-.2 3-8.1 3-8.1s1.8-6 2.7-6.3z" class="st7"/>
</svg>
