<svg xmlns="http://www.w3.org/2000/svg" fill="none" viewBox="0 0 184 184">
    <path fill="#005E9C" d="m10.574 51.017 1.07-1.717c9.012-14.596 25.306-23.417 42.485-22.33 2.21.137 4.408.433 6.576.887 15.621 3.29 29.215 14.897 34.85 29.767 3.31 8.748 4.235 18.817 10.525 25.758 8.183 9.032 22.074 9.317 34.29 8.92 12.216-.395 26.113-.055 34.257 9.016 5.103 5.676 6.721 13.755 6.313 21.365-1.121 20.139-15.37 38.147-33.524 47.096-18.153 8.948-39.538 9.751-59.411 5.815-27.838-5.514-54.332-20.663-70.222-44.046s-19.94-55.28-7.21-80.53" class="dynamic-color" opacity=".15"/>
    <path fill="#005E9C" fill-rule="evenodd" d="M71.381 171.086a122 122 0 0 1-6.494-2.464c4.947-3.069 9.07-7.285 9.279-12.855.06-1.587-.496-3.438-1.262-4.829-1.328-2.412-4.406-4.667-7.524-6.319l-.312-.165c-4.781-2.518-23.085-12.156-8.247-29.297 3.527-3.999 9.044-9.249 19.34-11.505 6.006-1.317 5.789.553 4.564 2.339-1.008 1.472-2.478 2.559-4.129 3.235-6.918 2.833-29.942 13.653-15.196 27.008.47.409 1.47.98 2.772 1.724 6.984 3.989 22.675 12.951 12.108 28.526a14.4 14.4 0 0 1-3.37 3.531q-.696.513-1.529 1.071" class="dynamic-color" clip-rule="evenodd"/>
    <path fill="#005E9C" d="M118.123 32.755a1.283 1.283 0 0 0 .198-1.802L110.5 20.808a1.38 1.38 0 0 0-1.929-.264l-.815.643a1.28 1.28 0 0 0-.404 1.439c.06.167.154.32.277.449l8.636 9.502a1.377 1.377 0 0 0 1.858.178m8.745-.215c1.093-.077 1.877-1.217 1.777-2.586l-1.772-24.308c-.106-1.452-1.161-2.595-2.32-2.514l-1.616.113c-1.16.08-1.957 1.353-1.755 2.798l3.388 24.195c.191 1.363 1.205 2.378 2.298 2.301m27.541 29.894a2.016 2.016 0 0 0 1.407 2.42l18.816 5.75c1.124.344 2.301-.28 2.591-1.372l.404-1.521c.29-1.092-.426-2.212-1.574-2.465l-19.219-4.228a2.03 2.03 0 0 0-2.425 1.416m-4.786 8.137a1.27 1.27 0 0 0-.237.952 1.28 1.28 0 0 0 .505.84l10.153 7.812a1.38 1.38 0 0 0 1.932-.237l.625-.831a1.29 1.29 0 0 0 .022-1.494 1.3 1.3 0 0 0-.382-.363l-10.777-6.98a1.374 1.374 0 0 0-1.841.3" class="dynamic-color"/>
    <path fill="#B6BCBE" d="M117.82 44.883a3.249 3.249 0 1 1 4.286 4.884l-22.014 19.322a3.249 3.249 0 1 1-4.286-4.883zm16.322 18.597a3.249 3.249 0 0 1 4.287 4.883l-22.014 19.323a3.249 3.249 0 0 1-4.287-4.884z"/>
    <path fill="#6F787B" d="m76.481 92.626 9.248 10.535-13.226 11.609a7.01 7.01 0 0 1-9.892-.644 7.01 7.01 0 0 1 .644-9.891z"/>
    <path fill="#6F787B" d="m86.917 58.503 34 38.735-12.372 10.86c-10.696 9.389-26.978 8.328-36.367-2.368s-8.329-26.979 2.368-36.367z"/>
    <path fill="#6F787B" d="m91.95 49.783 38.267 43.596-5.414 4.752a4.487 4.487 0 0 1-6.333-.412L86.124 60.868a4.49 4.49 0 0 1 .412-6.334z"/>
</svg>
