<svg xmlns="http://www.w3.org/2000/svg" fill="none" viewBox="0 0 184 184">
    <path fill="#BED830" d="M34.19 73.208s-6.37 20.618 5.967 40.067c12.333 19.449 35.581 28.552 54.226 36.423 18.644 7.87 37.03 2.116 44.871-13.459 7.838-15.575-5.092-25.397-6.602-46.719-1.509-21.325 1.309-27.194-11.51-44.4-12.816-17.204-41.422-19.216-61.906-4.352C38.75 55.624 34.187 73.215 34.187 73.215z" opacity=".15"/>
    <path fill="#BED830" d="M16.046 75.22 1.34 70.47a1.93 1.93 0 0 1-1.247-2.43L6.681 47.7a1.936 1.936 0 0 1 2.436-1.247l9.33 3.015 4.815 9.768-4.772 14.741a1.93 1.93 0 0 1-2.437 1.244"/>
    <g opacity=".2">
        <mask id="a" width="8" height="6" x="16" y="55" maskUnits="userSpaceOnUse" style="mask-type:luminance">
            <path fill="#fff" d="M23.255 55.718H16.41v5.06h6.846z"/>
        </mask>
        <g mask="url(#a)">
            <path fill="#000" d="M16.503 55.717a2 2 0 0 0 .909 2.333q.08.054.169.097c.679.36 5.139 2.731 5.175 2.623l.5-1.538-5.51-1.782s-1.366-.493-1.247-1.736"/>
        </g>
    </g>
    <g opacity=".3">
        <mask id="b" width="8" height="11" x="16" y="49" maskUnits="userSpaceOnUse" style="mask-type:luminance">
            <path fill="#fff" d="M23.252 49.468h-6.753v9.768h6.753z"/>
        </mask>
        <g mask="url(#b)">
            <path fill="#fff" d="m18.447 49.464-1.854 5.725a1.796 1.796 0 0 0 1.15 2.264h.003l5.51 1.783z"/>
        </g>
    </g>
    <path fill="#FAFAFA" d="M15.428 54.557a23 23 0 0 1-3.446-.967 23.5 23.5 0 0 1-3.36-1.233 23 23 0 0 1 3.446.967 23.4 23.4 0 0 1 3.36 1.233m3.349 4.661c-.025.072-2.551-.68-5.642-1.675-3.094-.999-5.58-1.869-5.556-1.94.025-.072 2.552.679 5.642 1.674 3.091.996 5.581 1.869 5.556 1.94m.13 3.027c-.025.072-2.775-.751-6.146-1.84-3.37-1.09-6.084-2.034-6.062-2.106s2.774.75 6.149 1.84c3.374 1.089 6.088 2.034 6.062 2.106m-.826 2.548c-.025.072-2.775-.751-6.146-1.84-3.37-1.09-6.084-2.034-6.062-2.106s2.774.75 6.149 1.84c3.374 1.089 6.084 2.034 6.062 2.106m-.83 2.551c-.025.072-2.774-.75-6.145-1.84-3.371-1.089-6.084-2.034-6.063-2.106.022-.072 2.775.751 6.15 1.84 3.374 1.09 6.083 2.034 6.062 2.106m-.827 2.548c-.025.072-2.774-.75-6.145-1.84-3.371-1.089-6.084-2.034-6.063-2.106.022-.072 2.775.751 6.15 1.84 3.374 1.09 6.083 2.034 6.062 2.106"/>
    <path fill="#BED830" d="M182.843 60.756 166.8 64.041a1.437 1.437 0 0 1-1.7-1.122l-4.434-21.602a1.434 1.434 0 0 1 1.114-1.696h.007l11.22-2.3 7.482 4.79 3.479 16.945a1.435 1.435 0 0 1-1.114 1.696h-.008"/>
    <path fill="#BED830" d="m173 37.278.88 4.294a1.965 1.965 0 0 0 2.318 1.528l4.295-.981z"/>
    <path fill="#fff" d="M179.562 56.983a1.3 1.3 0 0 1-.051-.202l-.125-.568c-.108-.51-.266-1.232-.464-2.141l-1.606-7.59.104.068-10.943 2.253c-.018.025.154-.23.079-.118v.04l.014.042.018.09.036.18.072.355q.071.359.147.712l.288 1.405q.285 1.39.553 2.717l1.01 4.974-.104-.068 7.917-1.57 2.239-.436.596-.111c.069-.014.144-.025.213-.032a2 2 0 0 1-.191.05l-.575.126-2.21.478-7.953 1.674-.086.018-.018-.086c-.317-1.535-.662-3.202-1.032-4.97-.183-.88-.366-1.79-.56-2.717-.094-.464-.194-.93-.288-1.402q-.071-.355-.147-.711l-.072-.356-.036-.18-.018-.09-.007-.043v-.032c-.076.1.093-.158.075-.13l10.947-2.227.086-.018.018.086c.629 3.162 1.154 5.804 1.527 7.669.177.906.313 1.624.414 2.131l.1.557q.02.09.029.187"/>
    <path fill="#fff" d="M174.013 58.251c-.054.01-.586-2.336-1.179-5.24-.593-2.903-1.035-5.272-.977-5.282.057-.011.585 2.336 1.178 5.24.593 2.903 1.035 5.268.978 5.282"/>
    <path fill="#fff" d="M178.99 54.417c.011.053-2.44.603-5.469 1.229-3.033.621-5.506 1.078-5.517 1.024s2.437-.604 5.47-1.23c3.033-.625 5.506-1.077 5.516-1.023m-.424-2.71c.011.054-2.44.604-5.469 1.229s-5.506 1.078-5.517 1.024 2.437-.604 5.473-1.229c3.037-.622 5.506-1.078 5.517-1.024m-.636-2.663c.011.054-2.422.6-5.43 1.222-3.008.618-5.459 1.074-5.47 1.013-.011-.06 2.418-.6 5.43-1.222 3.012-.614 5.459-1.074 5.47-1.013"/>
    <g opacity=".3">
        <mask id="c" width="9" height="7" x="172" y="37" maskUnits="userSpaceOnUse" style="mask-type:luminance">
            <path fill="#fff" d="M180.493 37.278H173v5.861h7.493z"/>
        </mask>
        <g mask="url(#c)">
            <path fill="#fff" d="m173 37.278.88 4.294a1.965 1.965 0 0 0 2.318 1.528l4.295-.981z"/>
        </g>
    </g>
    <path fill="#F5F5F5" d="M172.159 116.898h-35.604a3.633 3.633 0 0 1-3.633-3.634V75.038a3.635 3.635 0 0 1 3.633-3.634h35.604a3.637 3.637 0 0 1 3.636 3.634v38.226a3.636 3.636 0 0 1-3.636 3.634"/>
    <path fill="#fff" d="M173.855 116.57V75.512h1.933v38.137c0 1.502-1.531 3.04-1.933 2.921"/>
    <path fill="#E0E0E0" d="M175.792 75.508h-42.866v-.438a3.66 3.66 0 0 1 3.665-3.662h35.542a3.667 3.667 0 0 1 3.666 3.662v.438zm-.967 11.788a.97.97 0 0 1-.97-.967v-5.416a.97.97 0 0 1 .992-.945.975.975 0 0 1 .945.945v5.416a.97.97 0 0 1-.967.967"/>
    <g opacity=".3">
        <mask id="d" width="7" height="6" x="154" y="85" maskUnits="userSpaceOnUse" style="mask-type:luminance">
            <path fill="#fff" d="M160.138 85.406h-5.211v5.203h5.211z"/>
        </mask>
        <g mask="url(#d)">
            <path fill="#000" d="M160.141 88.011a2.605 2.605 0 1 1-5.211.007 2.603 2.603 0 0 1 2.602-2.609 2.603 2.603 0 0 1 2.606 2.602"/>
        </g>
    </g>
    <g opacity=".3">
        <mask id="e" width="32" height="30" x="138" y="80" maskUnits="userSpaceOnUse" style="mask-type:luminance">
            <path fill="#fff" d="M169.194 80.234h-30.953v29.526h30.953z"/>
        </mask>
        <g mask="url(#e)">
            <path fill="#000" d="m169.039 80.263-30.586-.025c.032-.04-.327.327-.176.18v7.855q0 3.863.003 7.54c.008 4.902.011 9.538.018 13.8v.151h.151l22.217-.075 6.203-.04 1.624-.018.413-.007q.066.002.137-.007l-7.418-12.7-4.977 6.112-8.194-11.51-9.857 17.94c.003-4.22.01-8.798.014-13.642 0-2.451 0-4.97.004-7.54v-7.69l30.27-.026.075 20.98c.018 2.552.029 4.557.036 5.945l.018 1.574c0 .172.007.301.007.409q-.002.07.007.144.012-.063.008-.126 0-.15.007-.391l.018-1.549c.007-1.38.021-3.378.036-5.912l.075-21.225v-.15h-.144v.014z"/>
        </g>
    </g>
    <path fill="#fff" d="M137.572 73.618a.766.766 0 0 1-.729.798.766.766 0 0 1-.798-.73.766.766 0 0 1 .73-.798h.035a.746.746 0 0 1 .762.73m2.29 0a.764.764 0 0 1-1.524.065.763.763 0 0 1 .729-.795h.029a.747.747 0 0 1 .762.73m2.314 0a.766.766 0 0 1-.729.798.766.766 0 0 1-.798-.73.766.766 0 0 1 .73-.798h.035a.746.746 0 0 1 .762.73"/>
    <path fill="#F5F5F5" d="M44.325 118.461H14.307a2.034 2.034 0 0 1-2.034-2.034V73.46c0-1.121.909-2.034 2.034-2.034h30.018c1.122 0 2.034.909 2.034 2.034v42.967a2.034 2.034 0 0 1-2.034 2.034"/>
    <path fill="#E0E0E0" d="M46.36 75.663H12.272v-1.887a2.35 2.35 0 0 1 2.354-2.35h29.382a2.35 2.35 0 0 1 2.35 2.35z"/>
    <path fill="#fff" d="M15.105 73.546a.679.679 0 1 1-1.359 0c0-.377.302-.68.68-.68.377 0 .678.303.678.68m2.035 0a.679.679 0 1 1-1.358.001.679.679 0 0 1 1.358 0m2.051-.001a.679.679 0 1 1-1.357.001.679.679 0 0 1 1.358 0m-5.381 2.116h31.015v41.86H13.81z"/>
    <path fill="#E0E0E0" d="M45.594 87.857a.765.765 0 0 1-.77-.77v-6.062a.766.766 0 0 1 .791-.748c.41.011.737.338.748.748v6.062c0 .428-.341.77-.77.77"/>
    <path fill="#263238" d="M24.725 92.485c0 .043-1.703.08-3.81.08-2.105 0-3.809-.037-3.809-.08s1.704-.079 3.81-.079 3.809.036 3.809.08m-1.657 2.206q-1.489.118-2.983.079-1.491.039-2.982-.08a29 29 0 0 1 2.982-.078q1.492-.038 2.983.079m.68 2.487c0 .043-1.488.079-3.321.079s-3.32-.036-3.32-.08c0-.043 1.487-.078 3.32-.078s3.32.035 3.32.079m.978 2.206c0 .043-1.703.08-3.81.08-2.105 0-3.809-.037-3.809-.08s1.704-.079 3.81-.079 3.809.036 3.809.08m-1.657 2.49a29 29 0 0 1-2.983.079q-1.491.039-2.982-.079 1.488-.118 2.982-.079 1.492-.04 2.983.079m-.88 2.203a21 21 0 0 1-2.537.079q-1.275.038-2.538-.079a21 21 0 0 1 2.538-.079q1.27-.04 2.537.079M39.98 89.628c0 .043-5.315.08-11.866.08-6.552 0-11.867-.037-11.867-.08s5.316-.079 11.867-.079 11.866.036 11.866.08"/>
    <path fill="#263238" d="M29.68 108.427c-.042 0-.078-5.186-.078-11.579s.036-11.583.079-11.583.079 5.183.079 11.583-.036 11.579-.08 11.579m5.158 0c-.043 0-.08-5.186-.08-11.579s.037-11.583.08-11.583.079 5.183.079 11.583-.036 11.579-.08 11.579m5.143 0c-.043 0-.079-5.186-.079-11.579s.036-11.583.08-11.583c.043 0 .078 5.183.078 11.583s-.035 11.579-.078 11.579M26.26 87.282c0 .043-2.024.079-4.514.079s-4.514-.036-4.514-.08c0-.043 2.023-.079 4.514-.079s4.514.036 4.514.08m7.27-.001c-.845.105-1.7.105-2.548 0 .844-.104 1.7-.104 2.548 0m5.336 0c-.844.105-1.7.105-2.548 0 .845-.104 1.7-.104 2.548 0"/>
    <path fill="#263238" d="M39.822 106.551c0 .043-4.984.079-11.133.079s-11.134-.036-11.134-.079 4.985-.079 11.134-.079 11.133.036 11.133.079m-1.692.96a6.4 6.4 0 0 1-1.988 0 6.3 6.3 0 0 1 1.988 0m2.138 1.692c0 .043-3.087.079-6.893.079s-6.893-.036-6.893-.079 3.087-.079 6.893-.079 6.893.036 6.893.079m1.772 3.644s-.058.011-.18.018l-.525.036-1.99.122-7.18.41-.256.015.215-.137a5.87 5.87 0 0 1 4.41-.73c.273.058.535.151.787.27.273.133.474.377.546.672a1.36 1.36 0 0 1-.801 1.466c-.55.237-1.15.334-1.75.284a3.2 3.2 0 0 1-1.729-.557 2.12 2.12 0 0 1-.884-1.617 1.8 1.8 0 0 1 .798-1.477 2.95 2.95 0 0 1 1.585-.5 8.2 8.2 0 0 1 3.126.565c.478.186.931.413 1.37.679.23.115.434.28.596.481.09.115.122.266.083.41a.38.38 0 0 1-.334.252c-.252 0-.5-.069-.716-.202a5.8 5.8 0 0 1-1.678-1.211l.111-.068a.63.63 0 0 1-.046.489.9.9 0 0 1-.324.341 1 1 0 0 1-.876.112 1.7 1.7 0 0 1-.701-.486 6 6 0 0 1-.489-.636l.104-.05a.775.775 0 0 1-.341.841.97.97 0 0 1-.852.151 1.45 1.45 0 0 1-.672-.46 2.5 2.5 0 0 1-.388-.64h.083l-.759 1.808-.032.079-.029-.079-.614-1.61-.155-.421a1 1 0 0 1-.047-.143.6.6 0 0 1 .061.136l.173.41.643 1.599h-.064l.736-1.818.04-.101.043.097c.172.474.535.848 1.006 1.035a.86.86 0 0 0 .759-.14.66.66 0 0 0 .298-.715l-.126-.381.234.33c.255.468.647.841 1.128 1.071a.9.9 0 0 0 .77-.104.606.606 0 0 0 .312-.675l-.097-.284.212.219a5.7 5.7 0 0 0 1.642 1.171c.194.115.413.18.636.187a.23.23 0 0 0 .212-.158.31.31 0 0 0-.068-.277 1.8 1.8 0 0 0-.55-.438 8.4 8.4 0 0 0-1.344-.661 7.9 7.9 0 0 0-3.058-.546 2.75 2.75 0 0 0-1.499.47 1.63 1.63 0 0 0-.733 1.344c.032.593.334 1.143.82 1.492.485.33 1.056.514 1.642.528a3.5 3.5 0 0 0 1.667-.269c.245-.115.453-.302.59-.536a1.06 1.06 0 0 0 .129-.758.85.85 0 0 0-.47-.572 3.2 3.2 0 0 0-.752-.258 5.6 5.6 0 0 0-1.552-.148 5.7 5.7 0 0 0-2.76.841l-.036-.118 7.184-.349 1.994-.086.525-.018h.18M40.836 81.05c0 .043-5.315.079-11.867.079-6.551 0-11.866-.036-11.866-.08 0-.042 5.311-.078 11.866-.078s11.867.036 11.867.079m-4.151-1.657a2 2 0 0 1 .352-.021v.043c-.984.032-4.352.057-8.355.057l-6.156-.021-1.866-.025-.506-.015c-.058 0-.119 0-.18-.014a.7.7 0 0 1 .18-.015l.506-.014 1.866-.025 6.156-.022c4 0 7.37.025 8.355.058v.043c-.115 0-.237-.004-.352-.022"/>
    <path fill="#F5F5F5" d="M90.25 125.839H45.41a3.633 3.633 0 0 1-3.633-3.634V57.583a3.635 3.635 0 0 1 3.634-3.634h44.835a3.64 3.64 0 0 1 3.637 3.634v64.622a3.636 3.636 0 0 1-3.637 3.634"/>
    <path fill="#E0E0E0" d="M93.88 60.429H41.776V57.61a3.66 3.66 0 0 1 3.666-3.662H90.22a3.666 3.666 0 0 1 3.666 3.662v2.818h-.008"/>
    <path fill="#fff" d="M46.108 57.19a1.035 1.035 0 1 1-2.07 0 1.035 1.035 0 0 1 2.07 0m3.105 0a1.035 1.035 0 1 1-2.07 0 1.035 1.035 0 0 1 2.07 0m3.141 0a1.035 1.035 0 1 1-2.07 0 1.035 1.035 0 0 1 2.07 0m-8.226 3.239h47.401v63.979H44.128z"/>
    <path fill="#E0E0E0" d="M92.704 79.063a1.175 1.175 0 0 1-1.175-1.172v-9.268a1.176 1.176 0 0 1 2.35 0v9.268c0 .647-.528 1.172-1.175 1.172"/>
    <path fill="#263238" d="M79.386 65.025q.059-.01.122-.01l.381-.011v.043c-1.416.032-6.267.057-12.025.057l-8.862-.021-2.684-.025-.73-.015c-.083 0-.172-.003-.255-.014.083-.01.172-.018.255-.014l.73-.015 2.684-.025 8.862-.021c5.754 0 10.61.025 12.025.057v.043l-.38-.01c-.04 0-.084 0-.123-.011m8.107 5.401c0 .043-8.804.079-19.661.079s-19.665-.036-19.665-.08c0-.042 8.805-.078 19.665-.078s19.661.036 19.661.079m0 2.821c0 .043-8.804.079-19.661.079s-19.665-.036-19.665-.079 8.805-.08 19.665-.08 19.661.037 19.661.08m0 2.821c0 .043-8.804.08-19.661.08s-19.665-.037-19.665-.08 8.805-.079 19.665-.079 19.661.036 19.661.08m0 2.813c0 .043-8.804.079-19.661.079s-19.665-.036-19.665-.079 8.805-.08 19.665-.08 19.661.037 19.661.08m0 2.821c0 .043-8.804.08-19.661.08s-19.665-.037-19.665-.08 8.805-.079 19.665-.079 19.661.036 19.661.08m0 2.817c0 .043-8.804.079-19.661.079s-19.665-.036-19.665-.08c0-.043 8.805-.078 19.665-.078s19.661.035 19.661.079m0 27.276c0 .043-8.804.079-19.661.079s-19.665-.036-19.665-.079 8.805-.079 19.665-.079 19.661.036 19.661.079m0 2.818c0 .043-8.804.079-19.661.079s-19.665-.036-19.665-.079 8.805-.079 19.665-.079 19.661.036 19.661.079m0 2.817c0 .043-8.804.079-19.661.079s-19.665-.036-19.665-.079 8.805-.079 19.665-.079 19.661.036 19.661.079m0 2.825c0 .043-8.804.079-19.661.079s-19.665-.036-19.665-.079 8.805-.079 19.665-.079 19.661.036 19.661.079"/>
    <path fill="#BED830" d="M50.13 89.323h1.39v15.51h-1.39zm2.684 5.265h1.39v10.242h-1.39zm2.684-3.339h1.391v13.66H55.5zm2.685-1.329h1.39v14.913h-1.39zm2.681 4.984h1.39v9.926h-1.39zm2.684 1.944h1.391v7.982h-1.39zm2.685-5.937h1.39v13.919h-1.39zm2.681 2.509h1.39v11.41h-1.39zm2.684-2.002h1.391v13.415H71.6zm2.685 4.276h1.39v9.139h-1.39zm5.351-4.783h1.39v13.919h-1.39zm5.7 8.956h1.39v4.761h-1.39zm-2.778-4.173h1.39v9.139h-1.39zm-5.589-1.743h1.391v10.879h-1.39z"/>
    <path fill="#263238" d="M87.116 91.296c-.04 0-.079-.011-.118-.018l-.353-.072a5 5 0 0 0-.578-.09 7 7 0 0 0-.798-.065 9.2 9.2 0 0 0-2.174.187 9.6 9.6 0 0 0-2.703 1.017 11 11 0 0 0-2.731 2.174 21 21 0 0 0-2.307 3.303 20.2 20.2 0 0 1-2.591 3.658 6.7 6.7 0 0 1-1.909 1.424c-.37.179-.769.298-1.175.355-.417.054-.837.04-1.247-.039a5.1 5.1 0 0 1-2.17-1.136 10 10 0 0 1-1.61-1.754 38 38 0 0 1-2.308-3.838 16 16 0 0 0-2.303-3.295 6.2 6.2 0 0 0-2.192-1.492 6 6 0 0 0-.787-.233 5.7 5.7 0 0 0-2.857.079 6.4 6.4 0 0 0-1.96.942 7.4 7.4 0 0 0-1.027.927l-.237.27a.06.06 0 0 1 0 .082c-.025.021-.061.021-.083 0-.021-.025-.021-.061 0-.083.018-.018.047-.021.072-.01l.23-.28a6.7 6.7 0 0 1 1.014-.953 6.4 6.4 0 0 1 1.965-.978 5.76 5.76 0 0 1 2.904-.1 6 6 0 0 1 3.048 1.743 16 16 0 0 1 2.336 3.313 37 37 0 0 0 2.303 3.82c.46.633.992 1.215 1.585 1.725a5 5 0 0 0 2.102 1.103c.392.08.795.09 1.19.04a3.8 3.8 0 0 0 1.132-.345c.7-.349 1.33-.823 1.865-1.391a20 20 0 0 0 2.577-3.626 20.3 20.3 0 0 1 2.332-3.317 11.2 11.2 0 0 1 2.775-2.185 9.6 9.6 0 0 1 2.734-1.01 9.2 9.2 0 0 1 2.196-.165c.27.01.536.04.802.079q.294.039.578.104l.349.087q.06.012.118.035m-38.507 14.623c-.032 0-.057-4.424-.057-9.879s.025-9.879.057-9.879c.033 0 .058 4.424.058 9.88 0 5.454-.025 9.878-.058 9.878m38.13 0c0 .033-8.337.058-18.626.058s-18.63-.025-18.63-.058c0-.032 8.337-.057 18.63-.057s18.626.025 18.626.057m-34.615 1.222a9.4 9.4 0 0 1-2.063 0 9.5 9.5 0 0 1 2.063 0m3.421.061c-.82.076-1.646.076-2.465 0a13.5 13.5 0 0 1 2.465 0m2.918 0c-.819.076-1.646.076-2.465 0a13.5 13.5 0 0 1 2.465 0m2.922 0c-.82.076-1.646.076-2.465 0a13.5 13.5 0 0 1 2.465 0m2.918 0c-.82.076-1.646.076-2.465 0a13.5 13.5 0 0 1 2.465 0m2.918 0c-.82.076-1.646.076-2.465 0a13.5 13.5 0 0 1 2.465 0m2.918 0c-.819.076-1.645.076-2.465 0a13.5 13.5 0 0 1 2.465 0m2.915 0c-.82.076-1.646.076-2.465 0a13.5 13.5 0 0 1 2.465 0m2.922 0c-.82.076-1.646.076-2.466 0 .82-.075 1.646-.075 2.466 0m2.918 0c-.82.076-1.646.076-2.465 0a13.5 13.5 0 0 1 2.465 0m2.713 0c-.82.076-1.646.076-2.465 0a13.5 13.5 0 0 1 2.465 0m2.717.004a13.5 13.5 0 0 1-2.465 0 13.4 13.4 0 0 1 2.465 0m2.717 0c-.82.075-1.646.075-2.466 0 .82-.076 1.647-.076 2.466 0"/>
    <path fill="#263238" d="M62.786 96.543c0-.026.173.035.227.27a.56.56 0 0 1-.043.398.4.4 0 0 1-.205.172.4.4 0 0 1-.284-.032.476.476 0 0 1-.043-.798.32.32 0 0 1 .266-.064c.064.018.086.05.079.057-.007.022-.144-.043-.277.09a.42.42 0 0 0-.118.28c0 .123.064.237.172.299a.203.203 0 0 0 .28-.062l.007-.01a.5.5 0 0 0 .058-.31.7.7 0 0 0-.119-.287m18.296-5.103s.043-.022.119 0a.47.47 0 0 1 .248.216.6.6 0 0 1 .057.488.51.51 0 0 1-.478.378.41.41 0 0 1-.302-.158.7.7 0 0 1-.125-.27.64.64 0 0 1 .079-.485c.172-.24.38-.23.373-.212.011.021-.168.057-.28.27a.53.53 0 0 0-.032.391c.036.144.147.306.298.306a.38.38 0 0 0 .334-.27.52.52 0 0 0-.021-.388.6.6 0 0 0-.27-.266"/>
    <path fill="#F5F5F5" d="M142.115 139.473H81.603a3.64 3.64 0 0 1-3.637-3.633V49.594a3.636 3.636 0 0 1 3.637-3.633h60.512a3.633 3.633 0 0 1 3.633 3.633v86.25a3.635 3.635 0 0 1-3.633 3.633"/>
    <path fill="#E0E0E0" d="M145.748 54.388H77.97v-4.765a3.664 3.664 0 0 1 3.666-3.662h60.454a3.666 3.666 0 0 1 3.665 3.662v4.765z"/>
    <path fill="#fff" d="M83.601 50.172a1.345 1.345 0 0 1-2.691.004 1.345 1.345 0 0 1 2.691-.004m4.043 0a1.345 1.345 0 0 1-2.691.004 1.345 1.345 0 0 1 2.691-.004m4.083 0a1.345 1.345 0 0 1-2.692.004 1.345 1.345 0 0 1 2.692-.004m-10.699 4.216h61.662v83.227H81.028z"/>
    <path fill="#E0E0E0" d="M144.253 78.624h-.072a1.49 1.49 0 0 1-1.491-1.491v-12.13a1.49 1.49 0 0 1 1.491-1.49h.072a1.49 1.49 0 0 1 1.492 1.49v12.13a1.49 1.49 0 0 1-1.492 1.491"/>
    <path fill="#263238" d="M87.066 66.966h9.38l.086 2.817h-.396a3.37 3.37 0 0 0-.74-1.728q-.446-.4-1.89-.4h-.924v8.482c0 .636.097 1.035.299 1.186.406.209.855.31 1.311.302v.305H89.36v-.305c.463.018.916-.1 1.311-.345.23-.41.32-.873.26-1.337V67.66h-.928a3.16 3.16 0 0 0-1.876.396 2.93 2.93 0 0 0-.751 1.728h-.406l.093-2.814h.004zm42.392-6.598c.057-.007.111-.01.172-.01l.536-.012v.043c-1.991.033-8.823.058-16.923.058l-12.474-.022-3.78-.025-1.029-.014-.266-.007q-.044.002-.09-.008.047-.011.09-.007l.266-.007 1.028-.014 3.781-.026 12.474-.021c8.1 0 14.932.025 16.923.057v.044l-.536-.011c-.057 0-.115 0-.172-.011m-18.605 6.692c0 .043-2.58.079-5.761.079s-5.76-.036-5.76-.08c0-.043 2.58-.079 5.76-.079 3.181 0 5.761.037 5.761.08m0 2.716c0 .043-2.58.08-5.761.08s-5.76-.037-5.76-.08 2.58-.079 5.76-.079c3.181 0 5.761.036 5.761.08m0 2.713c0 .043-2.58.079-5.761.079s-5.76-.036-5.76-.08c0-.042 2.58-.078 5.76-.078 3.181 0 5.761.036 5.761.079m0 2.717c0 .043-2.58.079-5.761.079s-5.76-.036-5.76-.08c0-.042 2.58-.078 5.76-.078 3.181 0 5.761.035 5.761.079m0 2.713c0 .043-2.58.079-5.761.079s-5.76-.036-5.76-.08c0-.042 2.58-.078 5.76-.078 3.181 0 5.761.036 5.761.079m0 2.72c0 .043-5.448.08-12.165.08s-12.169-.037-12.169-.08 5.445-.079 12.169-.079 12.165.036 12.165.08m0 2.583c0 .043-5.448.08-12.165.08s-12.169-.037-12.169-.08 5.445-.079 12.169-.079 12.165.036 12.165.08m0 2.587c0 .043-5.448.079-12.165.079s-12.169-.036-12.169-.08c0-.042 5.445-.078 12.169-.078s12.165.036 12.165.079m0 2.587c0 .043-5.448.08-12.165.08s-12.169-.037-12.169-.08 5.445-.079 12.169-.079 12.165.036 12.165.08m0 2.583c0 .043-5.448.08-12.165.08s-12.169-.037-12.169-.08 5.445-.079 12.169-.079 12.165.036 12.165.08m0 2.587c0 .043-5.448.079-12.165.079s-12.169-.036-12.169-.08c0-.042 5.445-.078 12.169-.078s12.165.036 12.165.079m0 2.587c0 .043-5.448.08-12.165.08s-12.169-.037-12.169-.08 5.445-.079 12.169-.079 12.165.036 12.165.08m0 2.587c0 .043-5.448.079-12.165.079s-12.169-.036-12.169-.08c0-.042 5.445-.078 12.169-.078s12.165.035 12.165.079m25.785-31.686c0 .043-5.107.079-11.407.079s-11.406-.036-11.406-.08c0-.043 5.107-.079 11.406-.079s11.407.037 11.407.08m0 2.587c0 .043-5.107.08-11.407.08s-11.406-.037-11.406-.08 5.107-.079 11.406-.079 11.407.036 11.407.08m0 2.583c0 .043-5.107.08-11.407.08s-11.406-.037-11.406-.08 5.107-.08 11.406-.08 11.407.037 11.407.08m0 2.588c0 .043-5.107.079-11.407.079s-11.406-.036-11.406-.08c0-.043 5.107-.079 11.406-.079s11.407.036 11.407.08m0 2.587c0 .043-5.107.08-11.407.08s-11.406-.037-11.406-.08 5.107-.079 11.406-.079 11.407.036 11.407.079m0 2.584c0 .043-5.107.079-11.407.079s-11.406-.036-11.406-.08c0-.042 5.107-.078 11.406-.078s11.407.036 11.407.079m0 2.587c0 .044-5.107.08-11.407.08s-11.406-.036-11.406-.08c0-.043 5.107-.079 11.406-.079s11.407.036 11.407.08m0 2.591c0 .043-5.107.079-11.407.079s-11.406-.036-11.406-.08c0-.043 5.107-.079 11.406-.079s11.407.036 11.407.08m-25.785 20.01c0 .043-5.398.079-12.054.079-6.655 0-12.057-.036-12.057-.079s5.398-.08 12.057-.08 12.054.036 12.054.08m0 2.587c0 .043-5.398.079-12.054.079-6.655 0-12.057-.036-12.057-.079s5.398-.079 12.057-.079 12.054.036 12.054.079m0 2.588c0 .043-5.398.079-12.054.079-6.655 0-12.057-.036-12.057-.079s5.398-.08 12.057-.08 12.054.036 12.054.08m0 2.583c0 .044-5.398.079-12.054.079-6.655 0-12.057-.035-12.057-.079 0-.043 5.398-.079 12.057-.079s12.054.036 12.054.079m0 2.588c0 .043-5.398.079-12.054.079-6.655 0-12.057-.036-12.057-.079s5.398-.079 12.057-.079 12.054.036 12.054.079m0 2.587c0 .043-5.398.079-12.054.079-6.655 0-12.057-.036-12.057-.079s5.398-.079 12.057-.079 12.054.036 12.054.079m0 2.584c0 .043-5.398.079-12.054.079-6.655 0-12.057-.036-12.057-.079s5.398-.079 12.057-.079 12.054.036 12.054.079m0 2.588c0 .043-5.398.079-12.054.079-6.655 0-12.057-.036-12.057-.079s5.398-.079 12.057-.079 12.054.036 12.054.079m0 2.731c0 .043-5.398.079-12.054.079-6.655 0-12.057-.036-12.057-.079s5.398-.079 12.057-.079 12.054.036 12.054.079m0 2.728c0 .043-5.398.079-12.054.079-6.655 0-12.057-.036-12.057-.079s5.398-.079 12.057-.079 12.054.036 12.054.079m0 2.727c0 .044-5.398.079-12.054.079-6.655 0-12.057-.035-12.057-.079 0-.043 5.398-.079 12.057-.079s12.054.036 12.054.079"/>
    <path fill="#BED830" d="M113.828 87.817h22.663v21.907h-22.663z"/>
    <g opacity=".3">
        <mask id="f" width="20" height="12" x="115" y="96" maskUnits="userSpaceOnUse" style="mask-type:luminance">
            <path fill="#fff" d="M134.726 96.575h-19.144v11.27h19.144z"/>
        </mask>
        <g mask="url(#f)">
            <path fill="#000" d="m115.582 107.848 6.268-11.27 5.128 7.206 3.116-3.824 4.636 7.892h-19.151z"/>
        </g>
    </g>
    <g opacity=".3">
        <mask id="g" width="5" height="5" x="125" y="92" maskUnits="userSpaceOnUse" style="mask-type:luminance">
            <path fill="#fff" d="M129.163 92.755h-3.26v3.26h3.26z"/>
        </mask>
        <g mask="url(#g)">
            <path fill="#000" d="M129.163 94.386c0 .899-.73 1.632-1.628 1.632s-1.632-.73-1.632-1.628.73-1.632 1.628-1.632c.899 0 1.632.73 1.632 1.628"/>
        </g>
    </g>
    <g opacity=".3">
        <mask id="h" width="20" height="20" x="115" y="89" maskUnits="userSpaceOnUse" style="mask-type:luminance">
            <path fill="#fff" d="M134.823 89.524h-19.37v18.483h19.37z"/>
        </mask>
        <g mask="url(#h)">
            <path fill="#000" d="M134.733 107.91c-.003-.029-.007-.058-.003-.09q.001-.098-.004-.255c0-.234-.007-.561-.011-.989-.003-.869-.014-2.124-.025-3.719-.011-3.199-.029-7.756-.047-13.225l.094.09-19.144.014c-.025.021.205-.205.104-.104v9.638c0 3.066-.007 5.966-.011 8.636l-.093-.093 13.847.046 3.906.025 1.035.011h.27l.093.011q-.042.007-.083.004h-.258l-1.017.014-3.882.025-13.904.047h-.093v-.094c0-2.666-.007-5.57-.011-8.635v-9.639c-.097.094.129-.136.108-.108l19.144.015h.093v.09c-.018 5.494-.036 10.073-.047 13.286-.01 1.584-.018 2.835-.025 3.698q-.005.624-.011.97l-.003.244q.001.04-.004.079"/>
        </g>
    </g>
    <path fill="#263238" d="M137.285 112.768c0 .043-5.398.079-12.054.079-6.655 0-12.057-.036-12.057-.079s5.398-.079 12.057-.079 12.054.036 12.054.079m0 2.588c0 .043-5.398.079-12.054.079-6.655 0-12.057-.036-12.057-.079s5.398-.079 12.057-.079 12.054.036 12.054.079m0 2.584c0 .043-5.398.079-12.054.079-6.655 0-12.057-.036-12.057-.079s5.398-.079 12.057-.079 12.054.036 12.054.079m0 2.587c0 .043-5.398.079-12.054.079-6.655 0-12.057-.036-12.057-.079s5.398-.079 12.057-.079 12.054.036 12.054.079m0 2.728c0 .043-5.398.079-12.054.079-6.655 0-12.057-.036-12.057-.079s5.398-.079 12.057-.079 12.054.036 12.054.079m0 2.728c0 .043-5.398.079-12.054.079-6.655 0-12.057-.036-12.057-.079s5.398-.08 12.057-.08 12.054.036 12.054.08m0 2.731c0 .043-5.398.079-12.054.079-6.655 0-12.057-.036-12.057-.079s5.398-.079 12.057-.079 12.054.036 12.054.079"/>
</svg>
