<svg xmlns="http://www.w3.org/2000/svg" fill="none" viewBox="0 0 184 184">
    <path fill="#BED830" d="M34.288 69.602s-5.797 18.763 5.43 36.462 32.383 25.986 49.357 33.152c16.969 7.163 33.705 1.927 40.839-12.251s-4.632-23.115-6.009-42.521c-1.373-19.406 1.19-24.75-10.475-40.408-11.669-15.662-37.702-17.491-56.35-3.968-18.645 13.527-22.8 29.534-22.8 29.534z" class="dynamic-color" opacity=".15"/>
    <path fill="#F5F5F5" d="M142.992 35.098H184l-8.021 5.703v4.762c-.036 4.898-4.04 8.84-8.938 8.805H141.31c-4.898.036-8.902-3.907-8.938-8.805.043-5.822 4.798-10.508 10.62-10.465"/>
    <path fill="#E0E0E0" d="M169.057 41.463c0 .046-6.828.082-15.288.082-8.459 0-15.287-.04-15.287-.082s6.828-.083 15.287-.083c8.46 0 15.288.036 15.288.083m0 3.169c0 .047-6.828.083-15.288.083-8.459 0-15.287-.04-15.287-.083s6.828-.082 15.287-.082c8.46 0 15.288.036 15.288.082"/>
    <path fill="#F5F5F5" d="M80.241 133.031H31.722l7.903 5.718v11.22a2.337 2.337 0 0 0 2.34 2.339h38.28a2.34 2.34 0 0 0 2.343-2.339v-14.605a2.34 2.34 0 0 0-2.343-2.34v.007z"/>
    <path fill="#E0E0E0" d="M78.222 140.963c0 .047-7.32.083-16.345.083s-16.344-.036-16.344-.083 7.317-.083 16.344-.083 16.345.036 16.345.083m0 4.309c0 .046-7.32.082-16.345.082s-16.344-.039-16.344-.082 7.317-.083 16.344-.083 16.345.04 16.345.083"/>
    <path fill="#BED830" d="M83.472 49.44H25.347c-7.076 0-12.808 5.736-12.808 12.809v20.714H0l12.535 12.535v14.081c0 7.076 5.736 12.808 12.808 12.808h58.129c7.076 0 12.808-5.736 12.808-12.808v-47.33c0-7.076-5.736-12.808-12.808-12.808" class="dynamic-color"/>
    <path fill="#263238" d="M59.725 51.63c-.367.952.265 1.987.977 2.723.712.737 1.567 1.43 1.79 2.426.183.838-.122 1.704-.047 2.56.075.854.546 1.656.816 2.49a8.13 8.13 0 0 1-.144 4.686 8.6 8.6 0 0 1-1.743 3.45 4.6 4.6 0 0 1-3.41 1.628 1.34 1.34 0 0 1-1.007-.367 1.67 1.67 0 0 1-.29-.895 87 87 0 0 1 0-19.711m2.371 22.116a5.237 5.237 0 0 1 5.225 5.246v.162a6.034 6.034 0 0 1 4.33 6.746c-.182.956-.61 1.865-.671 2.835-.065 1.06.327 2.092.517 3.134a9.9 9.9 0 0 1-.564 5.646c-.445 1.074-1.28 2.188-2.444 2.22a2.4 2.4 0 0 1-1.951-1.15 6.1 6.1 0 0 1-.787-2.22c-.503-2.545-.65-5.157-1.351-7.651-.701-2.498-2.07-4.953-4.324-6.218-1.25-.704-2.742-1.035-3.733-2.066a4.06 4.06 0 0 1-.734-4.194 5.34 5.34 0 0 1 3.188-2.976"/>
    <path fill="#263238" d="M39.452 53.965c-.032-1.21 1.086-2.145 2.21-2.602 1.125-.456 2.376-.61 3.382-1.304.891-.597 1.484-1.531 2.239-2.275a7.443 7.443 0 0 1 10.53-.072 7.46 7.46 0 0 1 1.994 3.49c.435 1.721.137 3.755-1.222 4.902-1.574 1.326-3.903 1.031-5.93.618s-4.305-.82-5.99.366c-1.014.715-1.603 1.876-2.221 2.954-.622 1.075-1.398 2.171-2.573 2.58s-2.771-.298-2.814-1.534"/>
    <path fill="#FFBE9D" d="M44.221 54.21a2.02 2.02 0 0 0-1.804 2.055l1.207 27.324c.054 3.227 4.77 5.038 8.227 4.956 3.49-.08 3.6-1.79 3.644-4.863.072-5.128.064-7.05.068-7.022.004.029 4.406-.744 5.308-6.508.446-2.857.295-7.55.043-11.385-.226-3.45-2.523-7.68-5.958-7.31l-10.731 2.75z"/>
    <path fill="#263238" d="M59.915 62.393c0 .399-.313.73-.712.747a.7.7 0 0 1-.758-.64v-.01a.735.735 0 0 1 .712-.748.7.7 0 0 1 .758.64zm-.018-1.172c-.09.097-.65-.327-1.445-.327-.794 0-1.376.403-1.462.306-.043-.044.054-.216.305-.403.342-.24.751-.366 1.168-.363.413 0 .816.126 1.154.367.248.19.33.373.287.417zm-7.607 1.172c0 .399-.314.73-.712.747a.7.7 0 0 1-.759-.64v-.01a.735.735 0 0 1 .712-.748.7.7 0 0 1 .758.64zm-.177-1.007c-.09.097-.65-.327-1.445-.327-.794 0-1.376.403-1.459.306-.043-.043.047-.216.302-.403a2.05 2.05 0 0 1 1.168-.366c.413 0 .816.126 1.154.37.23.198.312.374.284.417h.003zm2.875 5.884q.636-.195 1.304-.238c.202-.021.396-.064.428-.201a1.06 1.06 0 0 0-.136-.6l-.604-1.542c-.837-2.196-1.445-4-1.351-4.032.093-.032.84 1.721 1.674 3.903l.579 1.552c.126.245.162.525.108.794a.52.52 0 0 1-.327.302 1.4 1.4 0 0 1-.327.047 5 5 0 0 1-1.348.018z"/>
    <path fill="#3B1919" fill-opacity=".2" d="M55.56 76.664a14.6 14.6 0 0 1-7.706-2.042s1.876 3.95 7.633 3.396l.072-1.358zm-.9-7.479a1.42 1.42 0 0 0-1.304-.525 1.3 1.3 0 0 0-.902.485.82.82 0 0 0-.057.946.96.96 0 0 0 1.038.262 3 3 0 0 0 1.01-.607.9.9 0 0 0 .23-.238.27.27 0 0 0 0-.298"/>
    <path fill="#263238" d="M52.656 67.83c.129 0 .133.855.873 1.463.74.607 1.657.514 1.664.65 0 .054-.205.169-.59.176a2.12 2.12 0 0 1-1.387-.478 1.88 1.88 0 0 1-.675-1.229c-.036-.384.06-.586.118-.586h-.003zm-.216-7.834c-.08.215-.873.115-1.8.233-.928.119-1.682.37-1.808.176-.054-.09.075-.298.38-.503a3.17 3.17 0 0 1 2.754-.327c.352.151.524.327.478.424h-.004zm7.152-1.068c-.14.176-.687 0-1.348 0s-1.215.123-1.34-.064c-.058-.09.028-.273.273-.442a1.96 1.96 0 0 1 2.163.06c.255.17.323.36.255.446z"/>
    <path fill="#263238" d="M40.203 73.134a5.11 5.11 0 0 0 6.016-3.985c.108-.54.13-1.093.061-1.642-.176-1.416-.938-2.847-.449-4.187.65-1.765 3.127-2.307 3.784-4.075.381-1.025.04-2.225.471-3.228.406-.941 1.402-1.484 2.368-1.836.967-.352 2.006-.59 2.814-1.225.809-.637 1.32-1.823.794-2.71A54.2 54.2 0 0 0 43.496 53.3c-.938.353-1.926.777-2.483 1.607-.586.884-.557 2.023-.507 3.083.24 5.168-.546 10.005-.305 15.166"/>
    <path fill="#455A64" d="M38.834 71.514a.3.3 0 0 1-.093-.03 1.3 1.3 0 0 1-.266-.128 1.9 1.9 0 0 1-.715-.845 2.8 2.8 0 0 1-.187-1.747 5.5 5.5 0 0 1 1.042-2.091 15.5 15.5 0 0 0 1.581-2.322c.234-.46.363-.966.381-1.48a5 5 0 0 0-.327-1.603 5 5 0 0 1-.341-1.736 3.9 3.9 0 0 1 1.868-3.14 4.44 4.44 0 0 1 1.894-.54c.64-.032 1.28-.14 1.894-.327a2.48 2.48 0 0 0 1.333-1.2 9 9 0 0 0 .63-1.7c.161-.56.384-1.11.65-1.628a6.2 6.2 0 0 1 2.156-2.422 4.7 4.7 0 0 1 2.728-.712c.797.04 1.556.352 2.149.88.445.4.776.91.96 1.478.118.356.165.733.132 1.103a1.8 1.8 0 0 1-.064.385 4 4 0 0 0 .032-.389c.014-.37-.04-.74-.162-1.085a3.375 3.375 0 0 0-3.055-2.257 4.55 4.55 0 0 0-2.648.712 6 6 0 0 0-2.095 2.372 8.5 8.5 0 0 0-.63 1.628 9.3 9.3 0 0 1-.65 1.728c-.15.288-.348.543-.582.77a2.4 2.4 0 0 1-.84.51 8 8 0 0 1-1.952.345 4.25 4.25 0 0 0-1.83.517 3.72 3.72 0 0 0-1.789 3 4.7 4.7 0 0 0 .327 1.683 5 5 0 0 1 .341 1.653 3.7 3.7 0 0 1-.402 1.542 15.3 15.3 0 0 1-1.61 2.332 5.4 5.4 0 0 0-1.046 2.041 2.8 2.8 0 0 0 .151 1.7c.14.341.377.633.68.848.218.112.352.144.348.158h.007z"/>
    <path fill="#455A64" d="M55.552 46.433a.6.6 0 0 1 .227.068q.293.123.542.327a2.786 2.786 0 0 1 .568 3.81 2.4 2.4 0 0 1-.424.47c-.115.097-.187.14-.194.13q.275-.31.517-.65a2.81 2.81 0 0 0-.542-3.652 7 7 0 0 0-.694-.5zm12.74 39.477c.068-.197.122-.406.165-.61a2.8 2.8 0 0 0-.284-1.657 3.86 3.86 0 0 0-1.814-1.693 7.5 7.5 0 0 0-1.416-.503c-.507-.13-1.042-.237-1.582-.413a3.6 3.6 0 0 1-1.451-.795 2.42 2.42 0 0 1-.687-1.38c-.086-.485-.115-.941-.226-1.35a2.7 2.7 0 0 0-.525-1.036 2.97 2.97 0 0 0-1.39-.945c-.389-.115-.619-.115-.619-.137a.6.6 0 0 1 .165 0q.24.016.471.076a2.9 2.9 0 0 1 1.463.934c.27.313.464.68.568 1.075.115.427.15.891.244 1.358.065.492.298.953.65 1.305a3.44 3.44 0 0 0 1.388.75c.524.17 1.06.281 1.574.414.492.119.974.295 1.43.514a3.9 3.9 0 0 1 1.855 1.779 2.8 2.8 0 0 1 .24 1.721 2.2 2.2 0 0 1-.143.453 1 1 0 0 1-.08.144z"/>
    <path fill="#263238" d="M43.276 75.726c-2.929-.78-5.43-3.634-6.454-6.476s-1.021-5.937-.762-8.945c.187-2.178.571-4.478 2.02-6.12 2.177-2.473 4.553-3.734 7.834-3.63"/>
    <path fill="#F5F5F5" d="m60.285 82.065-2.713-.683c.61-.42.837-1.215.539-1.894a2.49 2.49 0 0 0-2.077-1.538l-12.38-1.398a.97.97 0 0 0-1.036.611c-.546 1.394-.564 2.548-.054 3.45h-.057l-2.386.474-4.047 35.697 26.504-1.24-2.29-33.48z"/>
    <path fill="#263238" d="M56.386 81.519q-.245.07-.496.097c-.327.054-.79.108-1.37.165a31.9 31.9 0 0 1-9.073-.453 20 20 0 0 1-1.348-.302 2.5 2.5 0 0 1-.485-.143c.165.01.334.04.496.079.327.06.783.147 1.358.248 2.986.514 6.02.66 9.038.449a47 47 0 0 0 1.373-.112 3.4 3.4 0 0 1 .503-.028z"/>
    <path fill="#E0E0E0" d="M44.408 87.193a10 10 0 0 1 .927-1.541c.313-.514.672-1 1.068-1.445a9.6 9.6 0 0 1-.931 1.542c-.31.513-.669.999-1.068 1.444zm8.542.604a18.7 18.7 0 0 1-2.22-2.764c.43.406.826.852 1.178 1.33.395.442.744.924 1.042 1.434m-3.967 4.535a10 10 0 0 1-.4-1.775 10 10 0 0 1-.233-1.804q.485 1.758.63 3.583zm6.519.284q-.692.859-1.502 1.603a14 14 0 0 1-1.628 1.48q.69-.854 1.502-1.602a15 15 0 0 1 1.628-1.48m-8.744 6.08a7.5 7.5 0 0 1-2.82-2.99c.046-.029.542.75 1.325 1.574.784.823 1.528 1.373 1.495 1.416m2.811 4.697c0 .047-.744.287-1.603.747-.86.46-1.484.938-1.517.899.41-.439.899-.794 1.441-1.05a4.6 4.6 0 0 1 1.679-.589zm4.567.302a3.2 3.2 0 0 1-.517-.557c-.302-.36-.701-.87-1.118-1.449a23 23 0 0 1-1.01-1.527 3.4 3.4 0 0 1-.36-.672c.173.183.328.388.46.604l1.05 1.495 1.068 1.477c.161.19.305.406.424.625zm.46 4.007a9.6 9.6 0 0 1-1.951.456 9.6 9.6 0 0 1-2.002.198 16 16 0 0 1 1.973-.367 18 18 0 0 1 1.977-.291zm-7.399-26.687c-.022 0 .133-.195.27-.54.165-.449.211-.934.143-1.408a5.5 5.5 0 0 0-.42-1.388 2.7 2.7 0 0 1-.22-.57c.137.154.248.333.327.524.238.442.4.916.478 1.409.08.503.011 1.02-.197 1.484a1.05 1.05 0 0 1-.374.489zm4.952-2.674c.467.647.658 1.452.525 2.239-.047 0-.054-.518-.202-1.132-.147-.615-.359-1.078-.323-1.104z"/>
    <path fill="#FFBE9D" d="M74.473 103.775 86.8 82.122l1.484-3.755s3.845-8.262 4.111-9.11c.31-.978.852-1.053 1.204-.917.546.216.723 1.032.482 1.873-.083.29-1.578 4.83-1.578 4.83q.603-.522 1.276-.945c.945-.65 2.68-.618 4.287-.047s2.006.873 1.811 1.506a.84.84 0 0 1-.517.51 1.64 1.64 0 0 1-1.19.025c-2.583-.877-3.726.288-3.726.288l-.19.488s1.95-.621 3.043.26c.162.129.302.287.403.466a2.14 2.14 0 0 1 .794 3.598.895.895 0 0 1-.978.248 1.1 1.1 0 0 1-.366-.428 2 2 0 0 0-.176-.244l-.737 1.304s-1.811 2.828-2.465 4.15l-8.489 22.616a5.984 5.984 0 0 1-7.705 3.504c-.032-.014-.068-.025-.1-.039a5.99 5.99 0 0 1-3.005-8.532h.004z"/>
    <path fill="#FFBE9D" d="M87.652 82.047a1.24 1.24 0 0 0 1.426-.248c.392-.338.65-.805 1.028-1.172 1.096-1.096 2.929-1.2 3.978-2.346.144-.158.277-.403.148-.579s-.363-.144-.557-.104l-5.042.999"/>
    <path fill="#3B1919" fill-opacity=".2" d="M88.633 78.593a2.3 2.3 0 0 1 .532-.161c.348-.087.855-.202 1.48-.327l2.2-.464.65-.133c.252-.09.525-.083.773.025.14.105.204.288.161.46a.86.86 0 0 1-.194.37 3.4 3.4 0 0 1-.567.5q-1.21.69-2.498 1.207a3.6 3.6 0 0 0-.956.65c-.262.252-.464.536-.683.78a1.81 1.81 0 0 1-1.337.752c-.388 0-.546-.19-.532-.194.17.057.349.086.525.079a1.76 1.76 0 0 0 1.186-.773 10 10 0 0 1 .668-.82 3.9 3.9 0 0 1 1.003-.721q1.263-.525 2.451-1.204a3.4 3.4 0 0 0 .514-.453c.144-.158.19-.352.09-.406a1.06 1.06 0 0 0-.55.014l-.65.119-2.21.406a95 95 0 0 1-1.496.248c-.18.043-.37.054-.557.04v.006zm5.559-1.713c.13-.303.327-.569.579-.78.284-.21.621-.328.977-.328.442 0 .884.076 1.305.216.428.144.87.248 1.319.302.377.043.758-.015 1.103-.17a.83.83 0 0 0 .47-.589.5.5 0 0 0 0-.276c-.017 0-.017.097-.067.262a.8.8 0 0 1-.457.489c-.33.122-.69.162-1.035.115a7 7 0 0 1-1.283-.327 4.3 4.3 0 0 0-1.347-.209 1.68 1.68 0 0 0-1.05.392 1.5 1.5 0 0 0-.438.615c-.083.19-.09.287-.076.29zm-.018-6.99a6 6 0 0 0-.305.901c-.19.622-.42 1.366-.676 2.185-.255.82-.503 1.556-.708 2.178a5.3 5.3 0 0 0-.273.91 5 5 0 0 0 .399-.867c.216-.546.489-1.304.762-2.163s.485-1.628.621-2.21q.134-.458.177-.938h-.004zm.716 8.348q.144.021.301 0a.9.9 0 0 1 .712.186.47.47 0 0 1 .111.457q-.077.301-.233.571c-.13.227-.173.493-.119.748.09.276.305.492.579.582.27.086.56.054.812-.08.23-.114.417-.301.535-.524.176-.37.299-.765.36-1.171.046-.273.046-.55 0-.823a.6.6 0 0 0-.112-.28c-.014 0 .025.103.043.29q.02.4-.068.791a4.5 4.5 0 0 1-.38 1.11 1.02 1.02 0 0 1-1.133.51.71.71 0 0 1-.46-.456.9.9 0 0 1 .1-.621c.101-.194.177-.406.23-.622a.62.62 0 0 0-.175-.575.93.93 0 0 0-.816-.169 1 1 0 0 0-.28.075z"/>
    <path fill="#3B1919" fill-opacity=".2" d="M97.013 80.516a.46.46 0 0 0-.054.27.8.8 0 0 0 .381.632c.342.194.759.194 1.096 0 .403-.23.698-.61.827-1.053a2.2 2.2 0 0 0 0-1.34 2.05 2.05 0 0 0-.6-.91 2 2 0 0 0-.626-.38.6.6 0 0 0-.265-.058q.435.212.801.532c.557.542.758 1.355.514 2.095a1.66 1.66 0 0 1-.733.96.98.98 0 0 1-.938.025.8.8 0 0 1-.381-.529 3 3 0 0 1-.018-.244zm-4.103 2.041a.8.8 0 0 0-.436-.133 1.8 1.8 0 0 0-1.132.273l.14.094q.067-.32.09-.65a4.1 4.1 0 0 0-.327-2.2c.126.722.173 1.452.14 2.181a6 6 0 0 1-.079.622l-.04.209.177-.119a1.9 1.9 0 0 1 1.024-.306c.27.004.431.054.439.03h-.004zm2.565-7.716c-.054 0 .018.392.367.69.348.299.733.328.733.274s-.31-.148-.604-.414c-.295-.266-.435-.568-.489-.546h-.003z"/>
    <path fill="#BED830" d="m56.99 121.744 12.894.125-2.163-9.358.726 1.765a8.88 8.88 0 0 0 8.222 5.513c4.079 0 6.9-3.037 8.621-6.732 4.033-8.639 7.921-22.55 7.921-22.55l-7.863-6.911c-5.692 10.767-11.04 20.114-11.04 20.114s-1.542-4.697-2.739-8.884c-1.196-4.186-1.185-6.386-3.015-8.474-2.82-3.213-6.828-4.01-10.565-4.974l-.14 17.38-.863 22.978" class="dynamic-color"/>
    <path fill="#BED830" d="m42.23 108.813 23.485 4.554 1.143 9.02H30.856a7.09 7.09 0 0 1-7.155-7.655c.517-6.576 1.078-14.677 1.51-18.102a23.4 23.4 0 0 1 2.659-7.809c1.818-3.421 7.877-7.809 13.189-8.032l1.002 22.371" class="dynamic-color"/>
    <g fill="#15282E" opacity=".29">
        <path d="m56.99 121.744 12.894.125-2.163-9.358.726 1.765a8.88 8.88 0 0 0 8.222 5.513c4.079 0 6.9-3.037 8.621-6.732 4.033-8.639 7.921-22.55 7.921-22.55l-7.863-6.911c-5.692 10.767-11.04 20.114-11.04 20.114s-1.542-4.697-2.739-8.884c-1.193-4.186-1.185-6.386-3.015-8.474-2.82-3.213-6.828-4.01-10.565-4.974l-.14 17.38-.863 22.978"/>
        <path d="m42.23 108.813 21.182 3.885a2.21 2.21 0 0 1 1.764 1.721l1.678 7.993H30.857a7.09 7.09 0 0 1-7.155-7.655c.517-6.576 1.078-14.677 1.51-18.101a23.4 23.4 0 0 1 2.659-7.81c1.818-3.42 7.877-7.809 13.189-8.032l1.002 22.371"/>
    </g>
    <path fill="#263238" d="M37.76 108.141a1 1 0 0 1 0-.215v-2.89c0-1.908-.036-4.553-.18-7.457a133 133 0 0 0-.273-4.097 17 17 0 0 0-.471-3.302 4.64 4.64 0 0 0-1.035-1.952 8 8 0 0 0-.6-.553c.248.126.474.294.668.496a4.6 4.6 0 0 1 1.1 1.973c.284 1.089.453 2.21.507 3.338.107 1.258.208 2.645.284 4.1.147 2.93.165 5.56.133 7.483-.019.956-.047 1.732-.069 2.275l-.036.614q-.001.097-.025.187zm27.503 5.876a3.5 3.5 0 0 0-.856-.694 5.6 5.6 0 0 0-1.2-.478c-.485-.14-1.053-.248-1.682-.373-2.512-.514-5.976-1.226-9.81-1.952a326 326 0 0 0-9.859-1.703l-2.997-.475-.816-.136a2 2 0 0 1-.283-.058c.093 0 .19.011.287.025l.82.105c.711.093 1.735.237 3.004.427 2.533.381 6.03.938 9.872 1.657 3.845.719 7.306 1.448 9.807 1.987.626.137 1.197.256 1.682.403a5.3 5.3 0 0 1 1.207.514q.369.206.651.521c.05.05.093.108.137.165l.04.072-.008-.011z"/>
    <path fill="#263238" d="M37.831 108.141c0 .029-.434.13-1.1.403q-.587.243-1.142.557c-.442.266-.866.56-1.265.891a10 10 0 0 0-1.078 1.092 9 9 0 0 0-.748 1.021c-.384.615-.557 1.031-.59 1.017q.032-.156.102-.302a7 7 0 0 1 .384-.78q.324-.557.733-1.06a8.5 8.5 0 0 1 2.404-2.023 8 8 0 0 1 1.168-.536q.409-.148.834-.244.146-.042.302-.047zm30.325 5.624a1 1 0 0 1-.047-.226q-.038-.245-.105-.65c-.09-.561-.208-1.377-.348-2.383a185 185 0 0 1-.884-7.896c-.28-3.09-.446-5.893-.536-7.924a92 92 0 0 1-.082-2.404v-.65a1.2 1.2 0 0 1 0-.23q.026.111.025.23l.043.65c.036.586.08 1.401.14 2.4a248 248 0 0 0 1.423 15.812c.119.997.22 1.805.295 2.387.029.273.054.485.076.651a1 1 0 0 1 .01.237h-.01zm7.787-3.496a2 2 0 0 1-.187-.216 6 6 0 0 1-.435-.65 8.6 8.6 0 0 1-1.157-4.931 6 6 0 0 1 .104-.773q.017-.141.072-.276c.03 0-.032.402-.054 1.053a9.7 9.7 0 0 0 1.143 4.88c.306.564.54.891.514.913"/>
    <path fill="#FAFAFA" d="M37.666 96.055a.5.5 0 0 1-.118.025 3 3 0 0 1-.356.036 5.5 5.5 0 0 1-1.305-.104 9.5 9.5 0 0 1-1.85-.578c-.676-.28-1.388-.65-2.139-1.01-.7-.352-1.427-.65-2.17-.899a7.4 7.4 0 0 0-1.866-.366 6 6 0 0 0-1.746.197.4.4 0 0 1 .111-.053q.155-.07.327-.112a4.6 4.6 0 0 1 1.305-.147c.647.021 1.293.13 1.912.327q1.13.364 2.192.905c.75.37 1.459.737 2.124 1.017a9.5 9.5 0 0 0 1.815.604 8 8 0 0 0 1.764.162zm4.036-.79a12 12 0 0 1-1.912.41c-.64.14-1.297.219-1.951.244a12 12 0 0 1 1.912-.41c.64-.14 1.297-.22 1.95-.244m-4.182 6.982c-.148.083-.31.151-.471.205-.31.119-.762.284-1.323.464a34 34 0 0 1-7.022 1.459q-1.04.135-2.088.054c-.47-.04-.93-.169-1.35-.388a2 2 0 0 1-.328-.209.6.6 0 0 1-.1-.09c.143.09.298.169.452.241.42.191.874.302 1.337.327q1.035.053 2.06-.09a38 38 0 0 0 2.515-.363 42 42 0 0 0 4.489-1.056c.564-.169 1.02-.327 1.336-.413a3.5 3.5 0 0 1 .496-.144v.007zm4.075 1.715a19 19 0 0 1-3.547.057 18.5 18.5 0 0 1 3.547-.057m-16.736 14.817a.6.6 0 0 1 .036-.176c.032-.13.079-.292.13-.489l.096-.352c.043-.126.097-.263.148-.406.115-.335.251-.658.402-.978l.266-.557c.093-.194.216-.385.327-.586.248-.427.51-.841.801-1.24a14.8 14.8 0 0 1 5.064-4.406q.654-.348 1.34-.621c.216-.079.421-.176.622-.245l.59-.183q.507-.16 1.028-.266c.15-.032.294-.068.424-.09l.366-.046.5-.062a.7.7 0 0 1 .176 0 .7.7 0 0 1-.173.044l-.492.093-.36.061-.42.104a9 9 0 0 0-1.01.288l-.578.194c-.202.068-.403.162-.615.248q-.676.28-1.319.625a17 17 0 0 0-2.749 1.905 16.4 16.4 0 0 0-2.275 2.458c-.295.424-.582.819-.805 1.222-.111.197-.237.384-.327.575l-.273.546a10 10 0 0 0-.424.978c-.054.143-.111.276-.158.399l-.112.344-.158.478a.7.7 0 0 1-.06.137h-.008zm16.308-9.991a5.8 5.8 0 0 0-1.333 1.678 8.1 8.1 0 0 0-.747 2.211 24 24 0 0 0-.327 2.857c-.04.963-.148 1.926-.327 2.878a8 8 0 0 1-.816 2.228 5 5 0 0 1-.978 1.254q-.157.145-.341.274a.7.7 0 0 1-.13.079 5.7 5.7 0 0 0 1.359-1.661c.36-.693.618-1.43.769-2.199.172-.945.284-1.898.327-2.857q.064-1.452.327-2.882c.151-.78.42-1.531.794-2.232a5.1 5.1 0 0 1 .978-1.269q.15-.144.327-.273a.6.6 0 0 1 .122-.079v-.007zm5.556 13.66c-.046 0 0-2.803.119-6.257.118-3.453.244-6.253.291-6.253s0 2.803-.119 6.26c-.118 3.457-.244 6.253-.29 6.25m8.829-.485a2.4 2.4 0 0 1-.144-.406 5 5 0 0 1-.133-.489c-.043-.191-.1-.41-.136-.651a12 12 0 0 1-.173-1.735 12.2 12.2 0 0 1 .65-4.216c.188-.55.418-1.089.687-1.606.108-.227.23-.414.327-.582q.124-.223.273-.428c.072-.122.159-.241.26-.345.028.014-.328.521-.752 1.409a12.95 12.95 0 0 0-1.304 5.76c.007.575.05 1.154.133 1.722.165.97.344 1.556.316 1.567h.003zM40.56 86.015c0 .025-.515-.198-1.36-.471a15.4 15.4 0 0 0-6.828-.604c-.876.118-1.415.259-1.419.23.115-.058.24-.097.367-.119q.51-.14 1.035-.226a13.86 13.86 0 0 1 6.889.607c.334.115.657.252.977.4.119.046.237.107.342.183zm25.694 13.692a9 9 0 0 1-1.207-.018 184 184 0 0 0-5.822-.14 8.5 8.5 0 0 1-1.208-.044q.159-.039.327-.04c.209 0 .51-.028.885-.039a56 56 0 0 1 2.914 0 55 55 0 0 1 2.929.148c.37.028.672.054.877.079q.15.01.302.054zm6.422-1.237c0 .03-.406.17-1.038.482a10.17 10.17 0 0 0-4.065 3.622c-.384.597-.567.992-.596.978q.028-.153.104-.295a6 6 0 0 1 .392-.751 9 9 0 0 1 1.775-2.149 9.1 9.1 0 0 1 2.34-1.516q.386-.173.79-.302.145-.053.306-.069zm-3.169-10.421a4.8 4.8 0 0 0-1.653.233 11 11 0 0 0-1.668.744q-.993.55-2.063.927a8.5 8.5 0 0 1-4.075.266 7.3 7.3 0 0 1-1.2-.327 2.6 2.6 0 0 1-.42-.18 18 18 0 0 0 1.627.392c1.34.209 2.71.104 4.004-.309a15 15 0 0 0 2.048-.906 10 10 0 0 1 1.7-.715 3.8 3.8 0 0 1 1.236-.176c.108 0 .216.014.327.032q.143.017.137.03v-.012m-1.625 21.8a1.6 1.6 0 0 1-.38.176 5 5 0 0 1-.46.173c-.184.061-.389.136-.619.194-.542.151-1.096.269-1.66.345q-1.029.135-2.07.108a13 13 0 0 1-2.06-.234 13 13 0 0 1-1.627-.446c-.234-.071-.428-.158-.604-.233q-.265-.112-.45-.198a2 2 0 0 1-.366-.201c0-.029.55.234 1.46.517.531.166 1.074.306 1.627.403 1.344.252 2.72.291 4.08.122a14 14 0 0 0 1.645-.305c.92-.241 1.47-.464 1.477-.432h.004zm7.475 9.628a.6.6 0 0 1-.125-.104 3 3 0 0 1-.328-.327 8 8 0 0 1-1.027-1.38 11.2 11.2 0 0 1-1.449-5.449c0-1.893.252-3.787.74-5.617.177-.704.328-1.268.446-1.656l.137-.446c.036-.118.054-.154.057-.151q-.001.082-.025.158-.038.183-.104.457c-.097.42-.234.977-.395 1.667a23.6 23.6 0 0 0-.683 5.585c.01 1.879.481 3.727 1.37 5.383.28.496.603.963.977 1.395.258.312.42.471.41.485m11.837-11.047a6.4 6.4 0 0 0-1.721-.978 13.5 13.5 0 0 0-2.081-.543 23 23 0 0 1-2.602-.596 10.7 10.7 0 0 1-4.118-2.48q-.53-.513-.978-1.096c-.108-.136-.176-.251-.233-.327-.058-.075-.076-.115-.069-.118.126.125.245.262.353.402q.468.557 1.002 1.049a11.1 11.1 0 0 0 4.086 2.401q1.273.372 2.573.604c.716.136 1.413.334 2.096.582.46.172.89.417 1.282.715q.157.117.302.266c.083.076.115.108.108.111zm3.723-10.853q-.188-.135-.348-.302c-.108-.101-.237-.227-.4-.363-.16-.137-.326-.302-.546-.457a15.05 15.05 0 0 0-7.479-3.198c-.261-.043-.495-.058-.707-.08a11 11 0 0 0-.535-.042c-.151 0-.31-.015-.46-.043.15-.022.305-.033.46-.022q.63-.016 1.257.054c.618.068 1.233.176 1.837.327.74.187 1.466.435 2.17.73q1.052.457 2.024 1.067.787.507 1.505 1.11c.187.147.367.313.532.482.133.118.263.251.381.384q.17.162.306.356h.007zM62.452 82.647c-.19.126-.399.23-.618.298q-.77.304-1.578.49-.803.187-1.628.261a2.4 2.4 0 0 1-.682 0c0-.053 1.031-.136 2.275-.434 1.243-.299 2.21-.658 2.231-.608h-.003z"/>
    <path fill="#FFBE9D" d="M73.992 128.453a.902.902 0 0 1-.996 1.143.9.9 0 0 1-.744-.651l-.276-1.02h.043a.952.952 0 0 1-1.06 1.117c-.428 0-.795-.621-.917-.948a1.77 1.77 0 0 1-1.653-.795l-1.908-2.979-3.536-2.587 2.141-7.641 7.608 4.924c.302.237.345.327.82.773l4.912 4.517c-.557.32-1.243.32-1.8 0-.776-.309-4.162-2.602-4.162-2.602l1.528 6.717"/>
    <path fill="#3B1919" fill-opacity=".2" d="M67.483 122.171c.08.04.151.083.227.133l.255.176c.119.076.234.166.327.273.111.13.198.281.262.439q.087.257.184.532l.416 1.225c.292.873.543 1.66.72 2.235q.165.46.25.938a6 6 0 0 1-.366-.905c-.205-.564-.478-1.348-.769-2.214q-.211-.654-.402-1.225c-.058-.187-.112-.367-.17-.536a1.4 1.4 0 0 0-.215-.413 1.8 1.8 0 0 0-.28-.273l-.237-.198c-.14-.111-.205-.176-.198-.183h.004zm4.579 5.937a1.5 1.5 0 0 1-.108-.327l-.244-.873c-.209-.737-.485-1.754-.841-2.861a10.3 10.3 0 0 0-1.172-2.71 2.3 2.3 0 0 0-.621-.618c-.177-.107-.295-.143-.292-.161q.047-.001.087.014.119.032.237.086c.273.151.503.36.686.608a9.4 9.4 0 0 1 1.233 2.727 36 36 0 0 1 .988 3.77q.048.167.043.341v.008zm1.962.46a1.4 1.4 0 0 1-.133-.341c-.079-.263-.18-.575-.302-.949a201 201 0 0 1-.93-3.148c-.356-1.233-.651-2.308-.895-3.156a1.53 1.53 0 0 0-.521-.794 2 2 0 0 0-.328-.169.2.2 0 0 1 .097 0 1 1 0 0 1 .26.108c.287.194.495.482.596.812.27.805.582 1.916.941 3.148a142 142 0 0 1 .884 3.163c.097.381.18.701.248.977q.059.174.08.353h.003z"/>
</svg>
