<svg xmlns="http://www.w3.org/2000/svg" fill="none" viewBox="0 0 184 184">
    <path fill="#C4C9CB" d="M38.511 45a5.07 5.07 0 0 0-4.744 3.288L19.8 85.533V113.4h144.4V85.533l-13.967-37.245A5.07 5.07 0 0 0 145.489 45z"/>
    <path fill="#E1E3E4" d="M59.067 91.982a6.45 6.45 0 0 0-6.449-6.449H19.8v44.334c0 5.596 4.537 10.133 10.133 10.133h124.134c5.596 0 10.133-4.537 10.133-10.133V85.533h-32.818a6.45 6.45 0 0 0-6.449 6.449c0 6.232-5.052 11.285-11.284 11.285H70.352c-6.233 0-11.285-5.053-11.285-11.285"/>
</svg>
