<svg xmlns="http://www.w3.org/2000/svg" aria-hidden="true" viewBox="0 0 512 512">
    <circle cx="282.6" cy="251" r="226.7" fill="#005e9c" opacity=".14"/>
    <path d="M317.5 487.7h-123c-3 0-5.4-2.4-5.4-5.4v-86c0-3 2.4-5.4 5.4-5.4h123c3 0 5.4 2.4 5.4 5.4v86c0 3-2.4 5.4-5.4 5.4z" class="mg-bs-list-details__no-data-color-1"/>
    <path d="M116.5 263.6c3.1-4 2.4-9.7-1.6-12.9-.4-.3-.9-.6-1.4-.9l-.8-82.3-15.4 7.1 3.4 79.6c-2.1 4.6 0 10.1 4.7 12.2 4 1.7 8.5.5 11.1-2.8z" class="mg-bs-list-details__no-data-color-2"/>
    <path d="M116.1 146.8s-14.9-7.3-17 6.4-10.6 49.3-10.6 49.3l25.8-1.8 1.8-53.9z" class="mg-bs-list-details__no-data-color-2"/>
    <path d="M116.5 263.6c3.1-4 2.4-9.7-1.6-12.9-.4-.3-.9-.6-1.4-.9l-.8-82.3-15.4 7.1 3.4 79.6c-2.1 4.6 0 10.1 4.7 12.2 4 1.7 8.5.5 11.1-2.8z" class="mg-bs-list-details__no-data-color-2"/>
    <path d="M116.1 146.8s-14.9-7.3-17 6.4-10.6 49.3-10.6 49.3l25.8-1.8 1.8-53.9z" class="mg-bs-list-details__no-data-color-3"/>
    <path d="M72.8 463.6c-1.7 0-3-1.3-3-3 0-.8.3-1.6.9-2.1l.2-.8-.1-.2c-1.7-4-6.4-5.9-10.4-4.2-1.9.8-3.4 2.3-4.2 4.3-2.4 5.8-5.4 11.5-6.2 17.6-.3 2.7-.2 5.4.4 8.1-5.6-12.2-8.5-25.5-8.5-39 0-3.4.2-6.8.6-10.1.3-2.7.7-5.5 1.3-8.2 3-14.7 9.5-28.5 18.8-40.3 4.5-2.5 8.2-6.3 10.5-10.9.8-1.7 1.4-3.4 1.8-5.3-.5.1-1 .1-1.5.1h-.6c-1.6.1-3-1.2-3-2.8 0-.7.2-1.4.6-2l.7-.8c.3-.4.7-.8 1-1.2l.1-.1 1.2-1.4c-.7-1.1-1.7-2-2.8-2.7-4.2-2-9.2-.9-12 2.8-2.7 3.7-3.5 8.4-2.4 12.8 1 3.7 2.5 7.2 4.7 10.4l-.6.8c-3.8 4.9-7.2 10.2-10 15.8.7-6.3-.1-12.6-2.4-18.5-2.3-5.5-6.5-10.1-10.3-14.8-2.8-3.6-7.9-4.2-11.5-1.4-1.7 1.3-2.8 3.3-3.1 5.5v.2c.6.3 1.1.6 1.6 1 1.8 1.3 2.3 3.7 1 5.6-.6.9-1.6 1.5-2.7 1.7.2 2 .5 4 1 6 2.9 11 10.3 20.3 20.4 25.7l1 .5c-2.8 8-4.6 16.3-5.2 24.7-.4 5-.4 10 .1 15v-.2c-1.1-5.5-4-10.5-8.4-14.1-6.4-5.3-15.5-7.2-22.4-11.5-2.2-1.3-5-.7-6.3 1.5-.6.9-.8 2-.7 3v.2c1 .4 2 .9 3 1.5.6.3 1.1.6 1.6 1 1.8 1.2 2.3 3.7 1.1 5.5-.6.9-1.6 1.6-2.7 1.7h-.2c1.8 4.2 4.2 8.1 7.3 11.5 7.7 8.3 18.5 13 29.7 13 1.5 6.6 3.7 13 6.5 19.1h23.4l.2-.8c-2.2.1-4.3 0-6.5-.4L71 477l.1-.1 2.7-3.3c.2-3.3-.2-6.7-1-10zm345.2 0c-1.7 0-3-1.3-3-3 0-.8.3-1.6.9-2.1l.2-.8-.1-.2c-1.7-4-6.3-5.9-10.4-4.2-1.9.8-3.4 2.3-4.2 4.3-2.4 5.8-5.4 11.5-6.2 17.6-.3 2.7-.2 5.4.4 8.1-5.6-12.2-8.5-25.5-8.5-39 0-3.4.2-6.8.6-10.1.3-2.7.7-5.5 1.3-8.2 3-14.7 9.5-28.5 18.8-40.3 4.5-2.5 8.2-6.3 10.5-10.9.8-1.7 1.4-3.4 1.8-5.3-.5.1-1 .1-1.5.1h-.7c-1.6.1-3-1.2-3-2.8 0-.7.2-1.4.6-2l.7-.8c.3-.4.7-.8 1-1.2l.1-.1 1.2-1.4c-.7-1.1-1.7-2-2.8-2.7-4.2-2-9.2-.9-12 2.8-2.7 3.7-3.5 8.4-2.4 12.8.9 3.7 2.5 7.3 4.6 10.5l-.6.8c-3.8 4.9-7.2 10.2-10 15.8.7-6.3-.1-12.6-2.4-18.5-2.3-5.5-6.5-10.1-10.3-14.8-2.8-3.6-7.9-4.2-11.5-1.4-1.7 1.3-2.8 3.3-3.1 5.4v.2c.6.3 1.1.6 1.6 1 1.8 1.2 2.3 3.7 1.1 5.5-.6.9-1.6 1.6-2.7 1.7h-.1c.2 2 .5 4 1 6 2.9 11 10.3 20.3 20.4 25.7.3.2.6.3 1 .5-2.8 8-4.6 16.3-5.2 24.7-.4 5-.4 10 .1 15v-.2c-1.1-5.5-4.1-10.5-8.4-14.2-6.4-5.3-15.5-7.2-22.4-11.5-2.1-1.4-5-.7-6.3 1.4-.6.9-.8 2-.7 3v.2c1 .4 2 .9 3 1.5.6.3 1.1.6 1.6 1 1.8 1.2 2.3 3.7 1.1 5.5-.6.9-1.6 1.6-2.7 1.7h-.3c1.8 4.2 4.3 8.1 7.3 11.5 7.7 8.3 18.5 13 29.7 13 1.5 6.6 3.7 13 6.6 19.2h23.4c.1-.3.2-.5.2-.8-2.2.1-4.3 0-6.5-.4 1.7-2.1 3.5-4.3 5.2-6.4l.1-.1c.9-1.1 1.8-2.2 2.6-3.3.5-3.2.1-6.5-.7-9.8z" class="mg-bs-list-details__no-data-color-1"/>
    <path d="M327.8 484.4h-.2c-3.6-.2-6.3-3.2-6.3-6.7 0-10.1-8.2-18.2-18.3-18.2-7.5 0-14.2 4.6-16.9 11.6l-3.5 8.7c-6.2 6.3-16.4 6.3-22.6 0l-.2-.2.1-.3 61.5-125.8v-3.1c-.1-1-.1-1.9 0-2.9V30.8c0-3.6 2.9-6.5 6.5-6.5h.2c3.6.2 6.3 3.2 6.3 6.7v316.5c.1 1 .1 1.9 0 2.9v3l61.6 126-.2.2c-6.3 6.3-16.4 6.3-22.7 0l-.1-.1-3.4-8.6c-3.7-9.4-14.3-14-23.7-10.3-7 2.8-11.5 9.5-11.5 17v.3c-.1 3.5-3 6.4-6.6 6.5 0-.1 0-.1 0 0z" class="mg-bs-list-details__no-data-color-4"/>
    <path d="M440.3 253.6h-225c-5.4 0-9.9-4.4-9.9-9.9V86.3c0-5.4 4.4-9.9 9.9-9.9h225c5.4 0 9.9 4.4 9.9 9.9v157.3c0 5.5-4.4 9.9-9.9 10z" class="mg-bs-list-details__no-data-color-5"/>
    <path d="M440.3 254.8h-225c-6.1 0-11.1-5-11.1-11.1V86.3c0-6.1 5-11.1 11.1-11.1h225c6.1 0 11.1 5 11.1 11.1v157.3c0 6.2-5 11.2-11.1 11.2zm-225-177.1c-4.8 0-8.6 3.9-8.6 8.7v157.3c0 4.8 3.9 8.6 8.6 8.6h225c4.8 0 8.6-3.9 8.6-8.6V86.3c0-4.8-3.9-8.6-8.6-8.7l-225 .1z" class="mg-bs-list-details__no-data-color-1"/>
    <path d="M361.1 86.3h-66.6c-8.8 0-15.9-7.1-15.9-15.9v-.3H377v.3c0 8.8-7.1 15.9-15.9 15.9zm.3 177.1h-66.5c-8.8 0-15.9-7.1-15.9-15.9v-.3h98.4v.3c-.1 8.8-7.3 15.9-16 15.9z" class="mg-bs-list-details__no-data-color-4"/>
    <path fill="#ccc" d="M450.6 485.2c0 .6-.4 1-1 1H3c-.5.1-1.1-.2-1.2-.7s.2-1.1.7-1.2h447.1c.6 0 1 .4 1 .9z"/>
    <path d="M152.4 462.6h11.8l5.6-45.4h-17.4v45.4z" class="mg-bs-list-details__no-data-color-2"/>
    <path d="m148.4 456.8 18.6-1.1v8l17.7 12.2c2.2 1.6 2.8 4.7 1.2 7-.9 1.3-2.4 2.1-4 2.1h-22.1l-3.8-7.9-1.5 7.9h-8.3l2.2-28.2z" class="mg-bs-list-details__no-data-color-6"/>
    <path d="m112.4 210.2-1.2 5.5-1 20.3 39.4-5.3 3-23.5-4.2-6.9-36 9.9zM92.9 462.6h11.8l5.6-45.4H92.9v45.4z" class="mg-bs-list-details__no-data-color-2"/>
    <path d="M86.5 382.4v-.1l4.4-20.5 2.7-10.2-7.6-59.9c-1.8-43.5 23.5-64.5 23.7-64.7l.6-.6 40.5-1c21.8 13.1 19.3 84.5 23.3 133 .3 3.5 3.9 8.6 3 11.9-7 26.1-4.9 54.4-10.2 55.2l-16.3-.2-8.4-38.2L150 358c-3.4-.6-5.8-17.5-5.8-17.5-1.5-1.8-6.7-16.9-6.7-16.9l-6.9-42-11.1 72.1 2.7 16.9-2.2 5.8-9.5 48-.1.8-17.9-1.8-6-41zm2.4 74.4 18.6-1.1v8l17.7 12.2c2.2 1.6 2.8 4.7 1.2 7-.9 1.3-2.4 2.1-4 2.1h-22.1l-3.8-7.9L95 485h-8.4l2.3-28.2z" class="mg-bs-list-details__no-data-color-6"/>
    <path d="m144.9 131 9.9 11 11.9 22.5-5.9 27.7 2.6 13 3.8 14.3c-14.6 8.1-31.9-3.1-47.8-8l-15.7 6.9.8-19 .4-47.9c.1-7.4 6.1-13.4 13.5-13.3h.9l10.5-7.7 15.1.5z" class="mg-bs-list-details__no-data-color-3"/>
    <circle cx="142.1" cy="104.3" r="20.9" class="mg-bs-list-details__no-data-color-2"/>
    <path d="M166.8 96.7c-.4 2.1-9.2 3-8.9-.6-1.7 3.4-4.3 8.4-1 14.1-2.6 2.9-3.1 7.1-1.2 10.5.9 1.5 1.7 3.1 2.3 4.8l.3 1.2c.2 1.3-.8 2.5-2.1 2.6-.4.1-.9 0-1.3-.2-8.9-4.3-24.4-3.6-34.1-1 .1-1.9 0-3.8-.1-5.7-.4 2.4-1.3 4.6-2.8 6.4-1.7.5-3.3 1-4.9 1.5-.7.2-1.5-.2-1.8-.9-.1-.3-.1-.5 0-.8.3-1.1.4-2.3.2-3.4-.6-2.3-1.4-4.6-2.4-6.8s-1.1-4.7-.3-7c1.6-3.4 6.1-4.4 8.1-7.6 2.2-3.5.5-8.2.8-12.3.5-5.9 5.3-10.7 10.8-13 9.4-4 21.2-.8 28.3 6.7 2-1.4 4.6-1.5 6.8-.3 2.1 1.1 3.6 1.7 4.5 3.9.9 2.1-.9 5.9-1.2 7.9z" class="mg-bs-list-details__no-data-color-6"/>
    <path d="m157.8 342.9-49.3-49.2c-1.2-1.2-1.2-3.1 0-4.3L143 255c1.2-1.2 3.1-1.2 4.3 0l49.3 49.3c1.2 1.2 1.2 3.1 0 4.3L162.2 343c-1.1 1.2-3 1.3-4.2.1-.1-.1-.2-.1-.2-.2z" class="mg-bs-list-details__no-data-color-5"/>
    <path d="M159.9 344.6c-1 0-2-.4-2.7-1.1L108 294.3c-1.5-1.5-1.5-4 0-5.5l34.4-34.4c1.5-1.5 4-1.5 5.5 0l49.3 49.2c1.5 1.5 1.5 4 0 5.5l-34.4 34.4c-.9.8-1.9 1.2-2.9 1.1zm-14.8-89.8c-.6 0-1.2.2-1.6.7l-34.4 34.4c-.9.9-.9 2.3 0 3.2l49.3 49.3c.9.8 2.3.8 3.2 0L196 308c.9-.9.9-2.3 0-3.2l-49.2-49.2c-.5-.5-1.1-.8-1.7-.8z" class="mg-bs-list-details__no-data-color-4"/>
    <path d="M139.2 259.5c-3.1-4-2.4-9.7 1.6-12.9.4-.3.9-.6 1.4-.9l.8-82.3 15.4 7.1-3.4 79.6c2.1 4.6 0 10.1-4.7 12.2-3.9 1.7-8.5.6-11.1-2.8z" class="mg-bs-list-details__no-data-color-2"/>
    <path d="M139.6 142.7s15-7.3 17 6.4 10.6 49.3 10.6 49.3l-25.8-1.8-1.8-53.9z" class="mg-bs-list-details__no-data-color-2"/>
    <path d="M139.2 259.5c-3.1-4-2.4-9.7 1.6-12.9.4-.3.9-.6 1.4-.9l.8-82.3 15.4 7.1-3.4 79.6c2.1 4.6 0 10.1-4.7 12.2-3.9 1.7-8.5.6-11.1-2.8z" class="mg-bs-list-details__no-data-color-2"/>
    <path d="M139.6 142.7s15-7.3 17 6.4 10.6 49.3 10.6 49.3l-25.8-1.8-1.8-53.9z" class="mg-bs-list-details__no-data-color-3"/>
</svg>
