<svg xmlns="http://www.w3.org/2000/svg" fill="none" viewBox="0 0 184 184">
    <g clip-path="url(#a)">
        <path fill="#DB1F29" d="m170.713 53.269-1.034-1.664c-8.71-14.144-24.458-22.691-41.061-21.638-2.136.133-4.26.42-6.355.86-15.098 3.187-28.236 14.435-33.682 28.844-3.2 8.476-4.093 18.234-10.172 24.96-7.91 8.752-21.335 9.027-33.141 8.644-11.807-.384-25.237-.054-33.109 8.736-4.931 5.5-6.496 13.328-6.1 20.702 1.082 19.515 14.854 36.965 32.399 45.636s38.213 9.449 57.42 5.635c26.905-5.343 52.51-20.022 67.868-42.68s19.272-53.567 6.967-78.035M46.841 57.25c-3.17-2.397-7.54-2.81-11.378-1.784-2.412.468-6.813 5.229-6.076 9.316s4.645 6.978 8.707 7.86c4.486.958 9.938-.608 11.857-4.8 1.655-3.613.06-8.194-3.11-10.592m92.436-45.114c-1.817-1.264-4.315-1.483-6.513-.941-1.377.247-3.881 2.75-3.476 4.913s2.66 3.681 4.984 4.146c2.567.508 5.686-.32 6.781-2.531.947-1.906.038-4.322-1.776-5.587" opacity=".15"/>
        <mask id="b" width="66" height="73" x="69" y="121" maskUnits="userSpaceOnUse" style="mask-type:alpha">
            <path fill="#263238" d="m120.906 121.985 1.994 5.583s9.126 8.379 10.466 19.599c1.341 11.22 1.346 13.667 1.346 13.667l-2.826 32.729H71.082s-1.993-26.458-1.27-33.94c.722-7.482 5.093-15.95 5.093-15.95l4.635-11.22.14-5.648z"/>
        </mask>
        <g mask="url(#b)">
            <path fill="#263238" d="m170.713 53.269-1.034-1.664c-8.71-14.144-24.458-22.691-41.061-21.638-2.136.133-4.26.42-6.355.86-15.098 3.187-28.237 14.435-33.683 28.844-3.199 8.476-4.092 18.234-10.171 24.96-7.91 8.752-21.335 9.027-33.141 8.644-11.807-.384-25.238-.054-33.109 8.736-4.932 5.5-6.496 13.328-6.1 20.702 1.082 19.515 14.854 36.965 32.399 45.636 17.544 8.671 38.213 9.449 57.42 5.635 26.904-5.343 52.51-20.022 67.868-42.68s19.272-53.567 6.967-78.035"/>
        </g>
        <path fill="#455A64" d="M122.223 127.886a4 4 0 0 1-.428.09l-1.231.219-4.531.743a811 811 0 0 1-14.987 2.248c-5.86.822-11.184 1.495-15.046 1.859-1.929.199-3.489.329-4.575.404l-1.246.079q-.218.018-.434 0 .21-.05.429-.064l1.24-.125c1.082-.11 2.642-.264 4.566-.499 3.858-.428 9.17-1.116 15.032-1.934 5.861-.817 11.154-1.605 14.991-2.168l4.546-.663 1.236-.169q.218-.029.438-.02M87.7 147.689q-.084.284-.225.544a25 25 0 0 1-.723 1.435 41 41 0 0 1-2.81 4.486 42 42 0 0 1-3.36 4.102c-.463.499-.852.883-1.131 1.142a2.8 2.8 0 0 1-.444.389q.158-.253.374-.459l1.062-1.196a52 52 0 0 0 3.29-4.132 54 54 0 0 0 2.86-4.437l.792-1.39q.131-.258.314-.484"/>
        <path fill="#FFBE9D" d="M159.388 62.414s1.246 20.965 1.62 23.338c.374 2.372-1.62 5.368-1.62 5.368s-4.615.498-7.735-5.244l-1.993-4.486a28.6 28.6 0 0 0 1.121-11.858c-.748-6.739-1.121-9.86-1.121-9.86z"/>
        <path fill="#455A64" d="M153.791 33.19c.544 5.06.499 9.436-1.993 10.333-.209.075-1.884.14-2.103.164-2.871.31-5.677-3.887-6.27-9.37s1.251-10.184 4.122-10.498c.269 0 1.799-.244 2.063-.2 2.547.46 3.643 4.602 4.181 9.571"/>
        <path fill="#FFBE9D" d="M161.761 51.304s2.103.703 1.719 2.731a47 47 0 0 1-1.719 5.633l-2.617 2.896-9.469-2.896a5.8 5.8 0 0 1-.648-2.837c.064-1.59 0-5.527 0-5.527a9.4 9.4 0 0 0 1.719-3.62c.319-1.639.548-3.548.613-4.131a.2.2 0 0 1 .023-.069.2.2 0 0 1 .114-.084.2.2 0 0 1 .072-.002 2.46 2.46 0 0 1 1.845 1.685c.498 1.59.383 2.034.383 2.034z"/>
        <path fill="#455A64" d="m154.215 44.545-1.355-2.169-1.426 1.097 2.642 5.219.718-2.188z"/>
        <path fill="#FFBE9D" d="M154.215 44.545s1.495-2.243 2.866-1.177c1.37 1.067 1.056 1.705 0 3.669 0 0 2.701-.374 2.063 2.492 0 0 2.681-.528 2.617 1.775 0 0 2.207 1.829 1.256 3.21-.952 1.38-4.611 4.027-5.622 3.708s-1.127-1.694-1.127-1.694-1.206-.424-1.575-.997c-.368-.574.105-1.496.105-1.496s-1.062-.917-1.326-1.171 0-1.585 0-1.585l1.431-1.645s-2.064 1.111-2.542.797c-.479-.314-.997-.583-.583-1.276a22 22 0 0 1 1.993-2.282z"/>
        <path fill="#3B1919" fill-opacity=".2" d="M156.498 56.667q.276-.48.628-.912a8.3 8.3 0 0 1 1.834-1.994 19 19 0 0 0 2.103-1.62q.372-.405.698-.847a2 2 0 0 1-.563.997 13.2 13.2 0 0 1-2.084 1.704 10 10 0 0 0-1.839 1.89 3.7 3.7 0 0 1-.777.782m-1.705-2.228a21 21 0 0 1 2.029-2.592c.588-.683 1.087-1.34 1.53-1.755.214-.25.486-.443.793-.563.025.03-.269.25-.658.693-.389.444-.873 1.102-1.471 1.794a20 20 0 0 1-2.223 2.423m.11-4.805q.518-.707 1.151-1.311.538-.675.997-1.406a2.6 2.6 0 0 1-.792 1.575 4.3 4.3 0 0 1-1.356 1.142m-3.808 2.741c.32.045.624.17.882.364a5.1 5.1 0 0 1 1.58 1.68c.384.666.685 1.375.898 2.113.117.295.189.606.214.923a3.5 3.5 0 0 1-.384-.863 14 14 0 0 0-.952-2.038 5.9 5.9 0 0 0-1.46-1.665c-.459-.364-.798-.514-.778-.514"/>
        <path fill="#263238" d="M151.567 43.482c2.449-.265 3.953-4.926 3.36-10.41-.594-5.486-3.061-9.717-5.51-9.452-2.45.266-3.954 4.927-3.36 10.412.594 5.484 3.061 9.716 5.51 9.45"/>
        <path fill="#E0E0E0" d="M150.662 43.363c2.293-1.146 3.664-5.368 3.14-10.198-.523-4.83-2.741-8.618-5.213-9.281-1.944 1.107-3.051 5.299-2.528 10.133.524 4.835 2.478 8.644 4.601 9.346"/>
        <path fill="#fff" d="M150.766 39.416a44 44 0 0 1-.408-4.7 44 44 0 0 1-.155-4.716q.341 2.339.414 4.7.203 2.353.149 4.716m-.857-3.17a6 6 0 0 1-.274-1.316 40 40 0 0 1-.304-3.2 38 38 0 0 1-.045-3.21c-.013-.445.024-.89.11-1.326q.095.66.074 1.326c0 .822.05 1.948.12 3.2.07 1.25.159 2.372.229 3.19q.1.664.09 1.336"/>
        <path fill="#3B1919" fill-opacity=".2" d="M154.215 44.535a.6.6 0 0 1 0 .16l-.07.453-.294 1.73c-.289.299-.613.648-.967 1.036a9 9 0 0 0-1.051 1.336.66.66 0 0 0-.085.404c.036.14.121.264.239.349q.197.153.409.284c.135.07.291.088.438.05a8.5 8.5 0 0 0 2.049-.833l.498-.249-.359.409-1.425 1.65.025-.035a2 2 0 0 0 0 1.595c.364.47.818.86 1.336 1.151l.109.07-.074.11c-.305.428-.499 1.081 0 1.435.469.373.994.67 1.554.883l-.174.114v-.04c.035.035-.08-.084.085.105.339-.194.094-.08.169-.11v.185q.014.128.045.254.058.26.175.498.117.227.314.39a.76.76 0 0 0 .418.199c.349-.027.688-.125.997-.29q.515-.242.997-.548a17 17 0 0 0 1.719-1.246 11 11 0 0 0 1.495-1.435c.213-.234.335-.537.344-.853a2.1 2.1 0 0 0-.244-.902 5.2 5.2 0 0 0-1.201-1.46l-.04-.04v-.06a1.9 1.9 0 0 0-.164-.882 1.36 1.36 0 0 0-.603-.604 3 3 0 0 0-1.7-.179h-.154l.024-.16c.025-.169.06-.343.08-.498a3 3 0 0 0 0-.498 1.37 1.37 0 0 0-.354-.863 2.04 2.04 0 0 0-1.669-.498h-.18l.085-.155q.418-.727.753-1.495c.098-.229.154-.474.164-.723a1.17 1.17 0 0 0-.194-.648 2.95 2.95 0 0 0-.932-.857 1.25 1.25 0 0 0-1.027 0 3.4 3.4 0 0 0-1.196.897c-.12.125-.2.23-.259.3-.06.069-.085.104-.09.099a.6.6 0 0 1 .07-.115q.109-.17.239-.324.207-.25.449-.468a2.6 2.6 0 0 1 .747-.499 1.37 1.37 0 0 1 1.121 0l.275.17.254.204q.285.215.498.498c.15.215.23.471.229.733-.006.27-.061.538-.164.788a14 14 0 0 1-.748 1.525l-.094-.14c.32-.034.643-.014.957.06.34.074.651.247.892.499.251.273.399.626.418.997q.022.27 0 .543c0 .18-.054.359-.084.543l-.13-.134a3.17 3.17 0 0 1 1.849.19c.307.153.557.4.713.707.143.312.21.654.194.997l-.045-.1c.515.428.944.949 1.266 1.535.171.306.265.648.274.997q0 .281-.104.544a2.2 2.2 0 0 1-.289.463 10.7 10.7 0 0 1-1.496 1.495q-.832.695-1.749 1.271a9 9 0 0 1-.997.559c-.35.188-.739.293-1.136.309a1.28 1.28 0 0 1-1.027-.708 2.5 2.5 0 0 1-.249-.822v-.235c.075-.035-.164.085.17-.11.164.185.049.066.084.105v.264l-.174-.07a6.2 6.2 0 0 1-1.625-.926 1.2 1.2 0 0 1-.299-.404.96.96 0 0 1-.065-.499 1.9 1.9 0 0 1 .354-.867l.035.18a4.6 4.6 0 0 1-1.41-1.237 1.6 1.6 0 0 1-.22-.907 2.9 2.9 0 0 1 .155-.877l1.44-1.635.125.16a8.2 8.2 0 0 1-2.118.832.78.78 0 0 1-.574-.08c-.139-.1-.284-.19-.418-.304a.76.76 0 0 1-.294-.453.8.8 0 0 1 .104-.499 9.3 9.3 0 0 1 1.097-1.35c.359-.39.693-.728.997-.998.149-.732.264-1.31.348-1.724l.1-.444a.6.6 0 0 1 .04-.224"/>
        <path fill="#FFBE9D" d="M71.527 137.112 52.701 113.74s-10.008 8.429-10.272 8.693 15.655 15.756 25.882 21.752l3.215-2.128z"/>
        <path fill="#FFBE9D" d="M87.336 129.635s-5.941-.937-6.48-.548c-.538.389-4.615 3.13-4.615 3.13a21 21 0 0 1-1.799 2.423s-1.326 1.565-2.342 1.719a4.5 4.5 0 0 1-1.645 0l-2.656 7.353s2.033 2.113 3.284 1.954 7.895-3.829 7.895-3.829l1.644-.548s6.41.234 6.724-1.72v-.548l-6.335-.548-2.343.394 4.067-1.531s5.941-.349 6.48-.498c.538-.15 1.17-.997.936-1.495l-1.25-.155s1.35-.932 1.3-1.794l-5.621-.893s3.384-1.699 2.756-2.866"/>
        <path fill="#3B1919" fill-opacity=".2" d="M89.549 135.118a2.3 2.3 0 0 1-.499-.069c-.324-.06-.802-.14-1.39-.225a134 134 0 0 0-4.625-.583 5 5 0 0 0-.653-.055 2 2 0 0 0-.603.105c-.384.154-.768.334-1.122.498-.712.334-1.345.658-1.864.952q-.613.342-1.186.748-.203.165-.428.294a1.4 1.4 0 0 1 .363-.374q.546-.457 1.157-.827a19 19 0 0 1 1.854-.997c.358-.174.722-.349 1.14-.498q.33-.116.679-.125.347.007.692.055c1.815.204 3.45.438 4.626.663.588.109 1.061.214 1.385.304q.247.033.474.134m-4.804-2.367c0 .04-.459-.155-1.212-.299a6.57 6.57 0 0 0-5.568 1.44c-.582.499-.876.877-.911.847.195-.381.464-.72.792-.996a6.17 6.17 0 0 1 5.727-1.496c.421.086.82.258 1.172.504"/>
        <path fill="#DB1F29" d="M161.053 86.564a9.7 9.7 0 0 1 1.146 3.988c0 1.949-1.141 5.358-1.141 5.358l-1.42 1.341s.932 4.262-4.486 5.483-35.615-16.155-35.615-16.155l-.803-23.048s4.386 1.83 7.551 4.984c3.165 3.156 21.197 16.45 21.197 16.45s.732-4.706 1.54-4.397c.807.309 12.031 5.996 12.031 5.996"/>
        <path fill="#DB1F29" d="m118.734 63.53-16.352-3.488-4.256-4.377-18.805-.18-2.267 4.118-14.09 8.568s3.549 23.472 4.844 26.209 11.553 32.898 11.553 32.898l40.998-4.89.349-18.941 1.186-9.167c.254-1.96.294-3.942.12-5.911-.788-8.544-3.28-24.838-3.28-24.838"/>
        <path fill="#DB1F29" d="m58.09 119.392-13.457 9.217-4.695-6.695 1.256-1.116s-6.932-5.732-6.514-9.775c.419-4.042 7.725-14.455 7.725-14.455s15.665-25.64 20.52-28.412c.677-.383 6.573 13.847 6.573 19.44s-1.101 5.593-1.101 5.593-4.74 4.6-6.978 8.787-6.01 8.718-8.517 10.408z"/>
        <path fill="#263238" d="M45.386 109.104s.13-.03.364-.04a7 7 0 0 1 .996.055 9.8 9.8 0 0 1 3.12.947c.98.489 1.876 1.132 2.653 1.904.335.303.624.654.857 1.042-.065.07-1.356-1.595-3.624-2.712a11.3 11.3 0 0 0-3.03-.996c-.823-.14-1.336-.155-1.336-.2"/>
        <path fill="#263238" d="M49.483 104.563c.377.227.714.515.997.853a9.2 9.2 0 0 1 1.734 2.651c.42.978.673 2.019.748 3.081.054.437.035.88-.055 1.311-.04 0-.03-.499-.125-1.296-.128-1.03-.4-2.037-.807-2.991a10.7 10.7 0 0 0-1.635-2.637c-.509-.608-.882-.937-.857-.972m51.559-14.594q.096.335.125.683.062.398.079.802.044.535.03 1.072.006.651-.059 1.3c-.025.47-.115.963-.195 1.496a17.1 17.1 0 0 1-2.492 6.335c-.3.434-.573.853-.872 1.217q-.4.52-.848.996a10 10 0 0 1-.757.763 6 6 0 0 1-.608.533q-.256.235-.554.414c-.035-.045.743-.648 1.785-1.829.259-.299.538-.623.807-.997q.406-.561.843-1.211a19.7 19.7 0 0 0 1.535-2.991c.404-1.053.717-2.139.937-3.245.085-.498.179-.997.214-1.46.035-.464.075-.888.09-1.281.04-1.615-.115-2.587-.06-2.597m-1.012-8.933a2 2 0 0 1-.32-.239c-.209-.16-.498-.414-.891-.713a56 56 0 0 0-3.405-2.492 642 642 0 0 0-5.213-3.49 63 63 0 0 1-6.23-4.645h.195a14.3 14.3 0 0 0-2.342 5.513l-.076.394L81.59 75a63.6 63.6 0 0 1-3.683-10.871c-.334-1.39-.563-2.492-.693-3.285-.075-.384-.114-.683-.144-.887a2 2 0 0 1-.035-.31q.057.146.08.3c.044.224.104.498.184.882.16.768.409 1.88.762 3.26a68 68 0 0 0 3.758 10.807h-.239c.31-1.633.898-3.199 1.74-4.631.204-.344.423-.678.632-.997l.085-.12.11.1a67 67 0 0 0 6.18 4.65c1.959 1.336 3.733 2.523 5.188 3.56s2.602 1.909 3.36 2.552c.388.309.667.578.862.752q.156.127.294.274m2.331-20.979q.082.092.135.204c.085.14.209.344.354.618.304.538.723 1.336 1.211 2.353a40.2 40.2 0 0 1 3.036 8.473l.079.344-.279-.22a18 18 0 0 1-2.372-2.197 18 18 0 0 1-1.266-1.565l.234-.07c-.165 2.88-.309 5.483-.434 7.671a1485 1485 0 0 0-2.178 3.908l-.613 1.062q-.095.194-.229.363.068-.204.179-.388.211-.418.563-1.097c.499-.967 1.226-2.313 2.099-3.943v.04c.109-2.158.239-4.79.379-7.671v-.364l.214.3a18.3 18.3 0 0 0 3.584 3.713l-.205.124a43 43 0 0 0-2.936-8.473c-.468-.997-.862-1.83-1.141-2.383-.125-.26-.229-.468-.314-.638a1 1 0 0 1-.1-.164m19.861 29.299c-.074 0-.498-3.948-.972-8.828-.473-4.88-.777-8.848-.707-8.853.069-.005.498 3.943.967 8.828s.777 8.843.712 8.853m29.072 2.427a4.2 4.2 0 0 1-.872-.832 13 13 0 0 1-1.67-2.388 13.5 13.5 0 0 1-1.107-2.697 4.3 4.3 0 0 1-.229-1.186 29 29 0 0 0 1.565 3.758 29 29 0 0 0 2.313 3.345"/>
        <path fill="#263238" d="M148.847 92.356s-.099-.09-.244-.284a6 6 0 0 1-.538-.867 9.03 9.03 0 0 1-.678-6.55q.134-.493.344-.957.066-.18.184-.329c.04 0-.159.499-.349 1.331a10.1 10.1 0 0 0-.204 3.27c.118 1.091.411 2.157.867 3.155.354.768.653 1.201.618 1.231m-86.511-9.779q.16.235.27.498l.657 1.396 2.194 4.595c.857 1.8 1.61 3.435 2.123 4.636.259.603.458 1.092.583 1.43q.12.262.18.544a2.2 2.2 0 0 1-.27-.499l-.663-1.395a1642 1642 0 0 0-2.188-4.596c-.842-1.765-1.615-3.434-2.123-4.636a40 40 0 0 1-.588-1.43 2.5 2.5 0 0 1-.175-.544m48.29 27.346a2.6 2.6 0 0 1-.144.608c-.11.384-.284.937-.499 1.62a78 78 0 0 1-1.994 5.218 61 61 0 0 1-3.259 6.54q-.145.266-.339.499.096-.298.254-.569c.199-.408.453-.917.752-1.52.634-1.276 1.496-3.06 2.353-5.059a117 117 0 0 0 2.074-5.184q.35-.95.588-1.585.08-.294.214-.568m-.289 8.354c-.085.327-.219.64-.399.927a18.5 18.5 0 0 1-1.261 2.063 19 19 0 0 1-1.52 1.89 3.3 3.3 0 0 1-.733.682c-.055-.049.962-1.186 2.039-2.721 1.076-1.535 1.799-2.876 1.874-2.841"/>
        <path fill="#263238" d="M107.422 118.276a2 2 0 0 1-.055-.384q-.044-.411-.11-1.107c-.09-.962-.229-2.352-.409-4.067-.373-3.434-.957-8.175-1.958-13.344a125 125 0 0 0-3.23-13.104c-.245-.827-.499-1.57-.698-2.223-.2-.653-.394-1.216-.553-1.67s-.265-.792-.354-1.056a1.6 1.6 0 0 1-.105-.374q.088.174.154.358c.1.26.23.604.399 1.037.17.434.374.997.593 1.66.22.663.499 1.386.738 2.213a111 111 0 0 1 3.31 13.095c.997 5.183 1.56 9.934 1.889 13.373.154 1.72.269 3.115.324 4.082l.06 1.107q.026.201.005.404m.846 3.294a8 8 0 0 0 .314-2.347 7.6 7.6 0 0 0-.643-2.283c.025 0 .22.184.434.578.268.524.427 1.097.468 1.685a4.3 4.3 0 0 1-.229 1.734c-.154.424-.319.648-.344.633m-.772 2.408c-.075 0-.115-.324-.09-.713s.1-.708.169-.703c.07.005.115.324.09.718s-.1.703-.169.698m-53.647-9.64a3.4 3.4 0 0 1-.599.199c-.388.115-.941.289-1.624.529-.683.239-1.495.558-2.348.937s-1.804.857-2.766 1.39a41 41 0 0 0-4.7 3.096c-.573.438-1.031.797-1.345 1.052a2.8 2.8 0 0 1-.499.373q.197-.25.444-.448a26 26 0 0 1 1.296-1.122 34 34 0 0 1 4.69-3.175 34 34 0 0 1 2.795-1.386q1.172-.506 2.388-.892a16 16 0 0 1 1.654-.448q.301-.088.614-.105"/>
        <path fill="#263238" d="M53.325 114.353c0 .045-.683 0-1.774.119a18.3 18.3 0 0 0-4.162.873 23 23 0 0 0-3.882 1.754c-.952.544-1.495.922-1.54.888q.16-.18.364-.309.521-.394 1.081-.733a18.4 18.4 0 0 1 3.898-1.844 16 16 0 0 1 4.23-.813 11 11 0 0 1 1.307 0q.244-.004.478.065"/>
        <path fill="#000" d="M63.273 84.361a10.66 10.66 0 0 0 4.676 10.383c-1.177-2.99-3.21-7.308-4.676-10.383m19.049-11.644a11.4 11.4 0 0 0 2.557 3.4l-.05-2.727 12.46 5.548-13.377-9.615c-.733 1.23-.858 2.153-1.59 3.384m23.051-2.113c-.534-.838-1.994-2.607-1.994-2.607-.05 1.306-.165 3.095-.209 4.406l-.19 3.135c.195-1.091.339-3.2.534-4.296l2.322 2.203a3.28 3.28 0 0 0-.463-2.841m15.235 3.215 1.615 14.375c.668-4.68 1.944-7.222-1.615-14.375m35.506 20.725c-.598-.498-1.924-.807-2.607-1.176-3.095-1.685-4.734-4.765-5.941-8.075l-.109-.369c.124 4.436 2.94 9.182 6.977 11.006.408.219.87.316 1.331.28a.936.936 0 0 0 .827-.933 1.2 1.2 0 0 0-.478-.733m-64.198 12.327c5.123-1.7 7.595-6.525 8.911-10.742a17.1 17.1 0 0 1-.653 5.419 8.67 8.67 0 0 1-3.055 4.446 5.81 5.81 0 0 1-5.203.877m-39.064 7.821a14.9 14.9 0 0 0-10.372 3.334c-.21.175-.438.424-.349.683a.5.5 0 0 0 .499.27c.204-.037.397-.117.568-.235a44.6 44.6 0 0 1 9.649-4.157m61.487-9.919a1.05 1.05 0 0 0-.701-.286 1.05 1.05 0 0 0-.71.261 3.05 3.05 0 0 0-.817 1.316l-6.086 15.108-.932 2.238 6.38-10.697c1.271-2.133 2.567-4.326 2.99-6.774a1.43 1.43 0 0 0-.124-1.166" opacity=".3"/>
        <path fill="#263238" d="M72.474 19.757c3.772-5.269 10.027-8.35 16.402-9.52 2.681-.5 4.44-.135 7.112.408a11.54 11.54 0 0 1 6.843 3.923c2.028 2.522 3.783 5.383 4.341 8.573.573 3.28 1.146 6.58 1.111 9.904-.035 3.325-.728 6.72-2.492 9.53l-8.333 1.995c-4.64.453-9.35.907-13.955.14-4.605-.768-9.16-2.932-11.842-6.75-3.728-5.293-2.965-12.935.813-18.203"/>
        <path fill="#E0E0E0" d="M103.533 47.486s.15.199.534.408a4.1 4.1 0 0 0 1.769.499 4.5 4.5 0 0 0 2.647-.713 4.486 4.486 0 0 0 1.236-6.101 4.5 4.5 0 0 0-2.153-1.685 4.1 4.1 0 0 0-1.819-.254c-.434.045-.658.145-.648.17.01.024.972-.175 2.332.413a4.36 4.36 0 0 1 1.899 1.61 4.143 4.143 0 0 1-1.111 5.483 4.36 4.36 0 0 1-2.378.743c-1.475-.035-2.268-.668-2.308-.573"/>
        <path fill="#263238" d="M65.96 43.737a6.32 6.32 0 0 1 2.546-4.925c1.585-1.076 3.893-1.126 5.348.12l1.425 1.495a5.44 5.44 0 0 1 3.49 5.284 5.98 5.98 0 0 1-3.824 5.14 6.61 6.61 0 0 1-6.374-1.117 7.4 7.4 0 0 1-2.612-5.997"/>
        <path fill="#455A64" d="M67.993 49.31a2.9 2.9 0 0 1-.563-1.645c0-1.087.697-2.547 1.69-3.913a11.5 11.5 0 0 1 3.2-2.92c.957-.594 1.62-.833 1.595-.898a4.6 4.6 0 0 0-1.74.643 10.3 10.3 0 0 0-4.62 5.084 4.6 4.6 0 0 0-.414 1.994c.02.474.18.932.458 1.316.21.274.379.359.394.339m4.231 2.228c.14 0-.598-2.527 0-5.588s2.198-5.124 2.079-5.189a4.5 4.5 0 0 0-1.032 1.321 11.74 11.74 0 0 0-1.525 7.841c.059.563.221 1.11.478 1.615"/>
        <path fill="#FFBE9D" d="M98.325 58.247a521 521 0 0 0-.468-5.353c0 .015 6.818-1.197 8.153-10.124.668-4.436.379-11.703-.049-17.64-.384-5.343-5.403-12.337-12.007-11.963L91 13.013l-10.965 5.184a3.135 3.135 0 0 0-2.776 3.205l2.397 38.181 20.355 21.433 1.166-6.046z"/>
        <path fill="#263238" d="M103.608 31.186a1.143 1.143 0 0 1-1.091 1.166 1.09 1.09 0 0 1-1.187-1.021 1.14 1.14 0 0 1 1.087-1.162 1.09 1.09 0 0 1 1.191 1.017m.379-2.622c-.139.15-.996-.498-2.243-.468s-2.128.638-2.263.498c-.064-.065.08-.334.469-.623a3.14 3.14 0 0 1 1.809-.578 3.05 3.05 0 0 1 1.785.558c.379.28.513.549.443.613m-7.112 9.78c0-.07.758-.21 1.994-.379.314-.035.613-.1.663-.314a1.54 1.54 0 0 0-.22-.927l-.947-2.388c-1.32-3.394-2.283-6.185-2.143-6.235s1.32 2.657 2.637 6.051l.912 2.398c.204.376.266.813.174 1.23a.78.78 0 0 1-.498.464q-.26.075-.528.08c-1.266.095-2.04.095-2.044.02"/>
        <path fill="#3B1919" fill-opacity=".2" d="M97.857 52.874a22.7 22.7 0 0 1-11.962-3.076s3.235 6.146 12.151 5.234z"/>
        <path fill="#263238" d="M99.317 42.112c-.153.136-1.041-.842-2.528-.78-1.486.06-2.435 1.124-2.568.996-.057-.064.059-.406.496-.822a3.32 3.32 0 0 1 2.093-.887 2.9 2.9 0 0 1 2.055.714c.409.378.522.723.452.78m4.096-17.7c-.299.185-.997-.378-1.948-.74-.95-.36-1.833-.478-1.915-.824-.035-.162.19-.375.635-.494a3.02 3.02 0 0 1 3.114 1.263c.237.389.252.699.114.795m-13.64 7.027a1.14 1.14 0 0 0 1.156 1.097 1.095 1.095 0 0 0 1.132-1.082 1.147 1.147 0 0 0-1.157-1.101 1.1 1.1 0 0 0-1.131 1.086m-1.904-1.958c.15.144.997-.539 2.213-.594s2.158.524 2.283.364c.065-.07-.095-.329-.499-.598a3.1 3.1 0 0 0-1.839-.473 3 3 0 0 0-1.75.652c-.363.31-.483.584-.408.649m-.047-2.145c.315.16.957-.464 1.872-.91s1.782-.634 1.838-.982c.022-.166-.221-.361-.676-.442a3.02 3.02 0 0 0-2.992 1.528c-.2.413-.184.724-.042.806"/>
        <path fill="#FFBE9D" d="M80.458 36.39c0-.663-.787-2.223-1.44-2.318-1.755-.259-4.91-.09-4.9 4.357 0 6.08 6.116 4.81 6.126 4.635s.244-4.381.214-6.674"/>
        <path fill="#3B1919" fill-opacity=".2" d="M77.866 40.712s-.104.074-.284.16a1.06 1.06 0 0 1-.792 0c-.643-.235-1.187-1.252-1.216-2.349a3.5 3.5 0 0 1 .294-1.495 1.21 1.21 0 0 1 .792-.812.54.54 0 0 1 .628.289c.08.17.04.289.075.299s.13-.1.08-.354a.66.66 0 0 0-.24-.379.8.8 0 0 0-.588-.154 1.5 1.5 0 0 0-1.101.947 3.6 3.6 0 0 0-.364 1.694c.04 1.227.673 2.368 1.55 2.622a1.13 1.13 0 0 0 .967-.164c.2-.155.2-.294.2-.304"/>
        <path fill="#263238" d="m78.066 33.968 1.64 1.495c6.234-6.784 18.2-23.532 17.533-22.535a19.4 19.4 0 0 0-9.555-.429c-4.884 1.157-14.09 4.227-13.576 10.04.514 5.811 3.957 11.429 3.957 11.429"/>
        <path fill="#E0E0E0" d="M79.173 49.04s-.125.215-.499.474a4.2 4.2 0 0 1-1.7.698c-.92.161-1.868.03-2.711-.374a4.36 4.36 0 0 1-2.188-2.542 4.4 4.4 0 0 1 .18-3.35 4.53 4.53 0 0 1 1.923-1.948 4.2 4.2 0 0 1 1.775-.499c.433 0 .668.06.663.09s-.997-.05-2.263.703a4.4 4.4 0 0 0-1.68 1.844 4.153 4.153 0 0 0 1.794 5.274 4.37 4.37 0 0 0 2.458.433c1.49-.164 2.198-.892 2.248-.802"/>
        <path fill="#455A64" d="M73.944 39.291q.03-.706-.03-1.41a21.7 21.7 0 0 1 .264-3.814 26 26 0 0 1 5.019-11.424 41.3 41.3 0 0 1 9.2-8.588 82 82 0 0 1 3.195-2.134q.614-.348 1.171-.782a1.2 1.2 0 0 0-.334.15c-.214.109-.528.268-.922.498a52 52 0 0 0-3.28 2.023 39 39 0 0 0-9.364 8.584 25.2 25.2 0 0 0-4.984 11.633 19 19 0 0 0-.135 3.858c0 .459.09.808.115 1.047q.02.184.085.36"/>
        <path fill="#455A64" d="M88.93 11.004q-.181.046-.343.14-.339.148-.952.498a41 41 0 0 0-3.38 1.994 52 52 0 0 0-4.7 3.42 30 30 0 0 0-5.053 5.028 14 14 0 0 0-1.824 3.245 12.8 12.8 0 0 0-.778 3.375 20 20 0 0 0 .384 5.817 34 34 0 0 0 .997 3.793c.14.444.25.783.334.997q.048.181.14.344a10 10 0 0 0-.314-1.4c-.225-.893-.559-2.189-.848-3.804a21 21 0 0 1-.294-5.722c.115-1.12.376-2.219.778-3.27a13.6 13.6 0 0 1 1.779-3.14 30.5 30.5 0 0 1 4.984-4.985 57 57 0 0 1 4.615-3.489 64 64 0 0 1 3.294-2.088q.615-.339 1.181-.753"/>
        <path fill="#E0E0E0" d="M77.956 34.127q.415-.369.742-.817l1.904-2.318a706 706 0 0 0 6.15-7.746 738 738 0 0 0 6.06-7.82l1.8-2.398q.353-.428.613-.918a6 6 0 0 0-.742.813l-1.9 2.318c-1.594 1.994-3.772 4.71-6.154 7.75s-4.526 5.808-6.07 7.821l-1.8 2.403a6.4 6.4 0 0 0-.603.912"/>
        <path fill="#3B1919" fill-opacity=".2" d="M93.695 38.837a7 7 0 0 0-1.126.035 7 7 0 0 0-1.042.439c-.065-.035.284-.543.997-.693a1.24 1.24 0 0 1 1.171.22m-6.325-7.642a2.04 2.04 0 0 1-1.146.14c-.39.015-.777-.08-1.116-.274.375-.06.757-.06 1.131 0 .382-.011.763.034 1.132.134m-.279.419c0 .075-.344.18-.768.314s-.772.25-.807.18.279-.29.732-.43c.454-.139.838-.134.843-.064m18.605-1.112c.024.07-.265.24-.648.38-.384.139-.713.198-.738.129-.025-.07.264-.235.648-.374.384-.14.713-.195.738-.135m-.09 1.197c-.025.07-.344 0-.713-.105s-.653-.29-.628-.354c.025-.065.344 0 .713.105.369.104.648.289.628.354"/>
    </g>
    <defs>
        <clipPath id="a">
            <path fill="#fff" d="M0 0h184v184H0z"/>
        </clipPath>
    </defs>
</svg>
