<svg xmlns="http://www.w3.org/2000/svg" fill="none" viewBox="0 0 184 184">
    <path fill="#bed830" d="M15.943 126.472s12.35 25.488 41.621 33.114c29.277 7.626 59.758-4.446 84.72-13.576 24.958-9.13 37.472-31.113 31.049-53.079s-27.644-19.817-48.194-38.936C104.59 34.877 102.032 26.725 74.31 21.68S17.308 40.31 10.938 72.91s5.005 53.559 5.005 53.559z" class="dynamic-color" opacity=".15"/>
    <path fill="#bed830" d="M100.996 113.014 84.362 94.361l-.17 22.676 5.014 14.545-49.84 8.642-2.113-39.326-3.59-30.173a8.2 8.2 0 0 1 5.138-8.596l13.717-5.415 19.342 3.543 7.775 2.956A21.35 21.35 0 0 1 88.1 69.1l23.396 26.754" class="dynamic-color"/>
    <path fill="#fff" d="M83.202 89.873q1.41-.02 2.808-.2a11.4 11.4 0 0 0 9.37-8.635q.288-1.385.425-2.793c.063.253.086.514.07.774a9.4 9.4 0 0 1-.217 2.089 11.17 11.17 0 0 1-9.601 8.858 10 10 0 0 1-2.097.047 2.4 2.4 0 0 1-.758-.14"/>
    <path fill="#263238" d="M84.649 116.07c.116 0 .147-7.86.07-17.547-.078-9.686-.24-17.54-.357-17.54s-.147 7.854-.07 17.548c.078 9.694.24 17.539.357 17.539"/>
    <path fill="#bed830" d="M82.823 121.834 52.71 109.71a6.88 6.88 0 0 1-4.294-5.856L46.212 74.98s.263-12.286-7.412-12.882l-4.34 1.718c-5.64 2.994-7.033 11.21-6.267 17.547 1.091 9.005 1.548 21.756 2.762 29.57 1.006 6.398 4.642 12.023 10.925 13.671l37.09 8.03z" class="dynamic-color"/>
    <path fill="#263238" d="M46.646 79.382q.075.325.092.658c.047.472.117 1.106.194 1.903.155 1.694.371 4.077.634 7.002s.557 6.491.898 10.39c.077.983.162 1.981.247 3.002q.09 1.56.387 3.095a5.1 5.1 0 0 0 1.501 2.7 10 10 0 0 0 2.778 1.733c8.301 3.59 15.953 6.561 21.508 8.642l6.6 2.429 1.794.658q.315.104.611.255a3.7 3.7 0 0 1-.642-.178l-1.818-.588c-1.547-.526-3.868-1.307-6.638-2.321a395 395 0 0 1-21.586-8.51 10.5 10.5 0 0 1-2.886-1.811 5.5 5.5 0 0 1-1.609-2.909 22.5 22.5 0 0 1-.379-3.141c-.085-1.029-.162-2.027-.24-3.01-.301-3.868-.58-7.427-.773-10.397s-.387-5.316-.511-7.01a96 96 0 0 1-.116-1.911 4 4 0 0 1-.046-.68M29.393 95.08q.046.191.054.387l.1 1.114c.093 1.03.21 2.414.356 4.101.147 1.686.38 3.783.681 6.058a59 59 0 0 0 1.354 7.311c.285 1.239.782 2.42 1.47 3.489a21 21 0 0 0 2.251 2.762 19.3 19.3 0 0 0 4.82 3.613 18.2 18.2 0 0 0 5.292 1.733 1.5 1.5 0 0 1-.394 0 9 9 0 0 1-1.114-.147 14.6 14.6 0 0 1-3.915-1.323 18.9 18.9 0 0 1-4.952-3.605 20.5 20.5 0 0 1-2.32-2.809 11.2 11.2 0 0 1-1.548-3.597 55 55 0 0 1-1.338-7.373 127 127 0 0 1-.82-10.197v-1.122a1.3 1.3 0 0 1 .023-.395"/>
    <path fill="#263238" d="M42.267 115.281a4.5 4.5 0 0 1 .549-1.602 10.37 10.37 0 0 1 6.112-5.222 4.4 4.4 0 0 1 1.671-.286q-.76.317-1.547.557a11.83 11.83 0 0 0-5.958 5.083c-.541.89-.766 1.493-.827 1.47"/>
    <path fill="#fff" d="M48.193 93.324q.099.03.186.085l.541.286q1.05.517 2.151.905a17 17 0 0 0 8.44.728 16.67 16.67 0 0 0 10.492-6.522 13.86 13.86 0 0 0 2.746-6.824 9.3 9.3 0 0 0-.402-3.869 7.9 7.9 0 0 0-2.166-3.319 6.65 6.65 0 0 0-3.536-1.717 4.22 4.22 0 0 0-3.543.998 2.32 2.32 0 0 0-.696 1.601 2.8 2.8 0 0 0 .587 1.656 4.52 4.52 0 0 0 3.095 1.602A12.61 12.61 0 0 0 77.33 74.5a12.6 12.6 0 0 0 2.274-4.263c.356-1.177.549-2.398.573-3.628a14 14 0 0 0-.17-2.321 15 15 0 0 1-.109-.596 1 1 0 0 1 0-.209c.32 1 .477 2.045.465 3.095a13 13 0 0 1-.511 3.69 12.735 12.735 0 0 1-13.795 8.998 4.87 4.87 0 0 1-3.311-1.733 3.17 3.17 0 0 1-.666-1.888c.001-.704.28-1.38.774-1.88a4.64 4.64 0 0 1 3.869-1.114 6.96 6.96 0 0 1 3.752 1.818 8.15 8.15 0 0 1 2.275 3.49 9.7 9.7 0 0 1 .417 4.023 14.17 14.17 0 0 1-2.84 6.963A16.626 16.626 0 0 1 51.04 94.67a12 12 0 0 1-2.847-1.346m-19.729-7.698q.198-.349.495-.62a11 11 0 0 1 1.625-1.415 13.66 13.66 0 0 1 6.662-2.36 12.9 12.9 0 0 1 3.93.163c1.051.218 2.069.577 3.025 1.067q.964.486 1.841 1.115.341.209.604.51c-.047.062-.944-.619-2.569-1.37a12.6 12.6 0 0 0-6.785-1.082 14.3 14.3 0 0 0-6.545 2.19c-1.494.997-2.229 1.856-2.283 1.802m4.82-20.649a12 12 0 0 0 2.437 1.771 8.7 8.7 0 0 0 3.095.913 8.25 8.25 0 0 0 3.868-.541 8.1 8.1 0 0 0 3.095-2.321 8.9 8.9 0 0 0 1.547-2.84c.279-.97.437-1.97.472-2.979.076.267.11.544.1.82a7.5 7.5 0 0 1-.3 2.244 8.7 8.7 0 0 1-1.548 2.987 7.91 7.91 0 0 1-7.35 3.032 8.6 8.6 0 0 1-3.195-1.02 7.5 7.5 0 0 1-1.795-1.378 2.2 2.2 0 0 1-.426-.689m26.243 47.481q.003-.29.062-.573a6.2 6.2 0 0 1 .534-1.547 8.57 8.57 0 0 1 4.503-3.915 13.2 13.2 0 0 1 8.858-.317c1.594.472 3.42 1.06 4.642 2.615a2.78 2.78 0 0 1 .34 2.832 4.5 4.5 0 0 1-2.142 2.019c-.89.44-1.863.683-2.855.712a4.2 4.2 0 0 1-2.739-.851 3.5 3.5 0 0 1-1.222-2.484 6.2 6.2 0 0 1 .41-2.607 11.7 11.7 0 0 1 6.19-6.282 12.2 12.2 0 0 1 5.925-1.022c.74.057 1.468.21 2.167.457 0 .054-.774-.201-2.182-.302a12.4 12.4 0 0 0-9.191 3.381 10.8 10.8 0 0 0-2.592 3.868c-.3.782-.43 1.618-.38 2.453a3.1 3.1 0 0 0 1.1 2.205 3.76 3.76 0 0 0 2.475.774 6.4 6.4 0 0 0 2.677-.666 4.13 4.13 0 0 0 1.965-1.833 2.4 2.4 0 0 0-.294-2.437 5.6 5.6 0 0 0-2.02-1.594 14.5 14.5 0 0 0-2.374-.89 13 13 0 0 0-8.65.225 8.56 8.56 0 0 0-4.472 3.721 8.3 8.3 0 0 0-.735 2.058m-20.053 10.87c0-.077 1.145-.17 2.886-.774a14.43 14.43 0 0 0 9.237-10.243c.441-1.795.426-2.963.503-2.955.054.267.067.541.039.812-.018.742-.106 1.48-.263 2.205a13.88 13.88 0 0 1-9.424 10.421c-.705.23-1.43.393-2.166.488a2.8 2.8 0 0 1-.812.046m-9.764-22.444a1.5 1.5 0 0 1 .363-.147c.248-.077.604-.186 1.076-.31a13.3 13.3 0 0 1 4.108-.417c.96.072 1.902.305 2.785.688a6.46 6.46 0 0 1 2.6 2.043 5.34 5.34 0 0 1 1.013 3.512 4.3 4.3 0 0 1-.595 1.888 2.98 2.98 0 0 1-1.548 1.315 2.08 2.08 0 0 1-2.034-.402 2.72 2.72 0 0 1-.705-1.872 8.1 8.1 0 0 1 .712-3.583 7.854 7.854 0 0 1 8.51-4.572q.559.087 1.092.27c.24.094.363.148.355.163-.007.016-.518-.162-1.47-.278a8.14 8.14 0 0 0-3.968.51 7.6 7.6 0 0 0-4.155 4.054 7.8 7.8 0 0 0-.658 3.412 2.32 2.32 0 0 0 .588 1.61 1.68 1.68 0 0 0 1.633.309 2.63 2.63 0 0 0 1.361-1.145 4 4 0 0 0 .542-1.71 5.02 5.02 0 0 0-.92-3.265 6.06 6.06 0 0 0-2.438-1.949 8.4 8.4 0 0 0-2.677-.712 14 14 0 0 0-4.038.286c-.998.194-1.517.333-1.532.302"/>
    <path fill="#000" d="M74.165 118.391c-3.218-1.818-6.367-3.218-9.733-4.743-3.365-1.524-6.669-3.497-8.874-6.467-4.154-5.602-3.682-13.687-7.93-19.21q.419 5.57.828 11.148c.255 3.404-.263 6.777 1.926 9.091 1.85 1.949 5.455 3.442 8.008 4.286 5.13 1.694 10.654 4.208 15.775 5.895" opacity=".3"/>
    <path fill="#bed830" d="M126.528 160.827s25.198 6.963 26.212 7.334c1.547.534 1.261 6.097-1.099 6.004-1.122-.038-19.342.681-21.663.542s-9.284-2.886-9.284-2.886z" class="dynamic-color"/>
    <path fill="#263238" d="M136.995 170.444q.468-1.39 1.115-2.708a22.5 22.5 0 0 1 1.779-2.321 5.58 5.58 0 0 0-2.894 5.021zm-2.63-1.192c.124 0 .379-1.168 1.052-2.483s1.462-2.236 1.377-2.321a6.31 6.31 0 0 0-2.429 4.812zm-2.422-.657c.124-.902.321-1.792.588-2.662q.594-1.232 1.37-2.359a4.73 4.73 0 0 0-1.958 5.021"/>
    <path fill="#263238" d="M132.353 165.338a4.5 4.5 0 0 0 .271-1.873 9.3 9.3 0 0 0-.255-2.058 8 8 0 0 0-.379-1.168 1.34 1.34 0 0 0-.403-.619.68.68 0 0 0-.866.047 1.1 1.1 0 0 0-.333.711 4 4 0 0 0 0 .666c.002.415.054.828.155 1.23a7.5 7.5 0 0 0 .774 1.926c.277.582.66 1.107 1.129 1.548.062 0-.363-.627-.866-1.656a8.2 8.2 0 0 1-.658-1.872 5.6 5.6 0 0 1-.124-1.153c0-.387 0-.866.232-1.052a.25.25 0 0 1 .333 0c.126.123.221.274.279.441q.222.545.379 1.114c.177.642.288 1.3.332 1.965.047 1.083-.069 1.795 0 1.803"/>
    <path fill="#263238" d="M132.322 165.082a3.54 3.54 0 0 0-1.624-.263c-.603 0-1.203.073-1.787.217a4.3 4.3 0 0 0-1.037.379 1.065 1.065 0 0 0-.565 1.153 1.28 1.28 0 0 0 .905.905c.371.093.759.093 1.13 0a4.2 4.2 0 0 0 1.64-.774 4.4 4.4 0 0 0 1.168-1.152q-.698.408-1.338.905a4.5 4.5 0 0 1-1.548.673 1.9 1.9 0 0 1-.936 0 .85.85 0 0 1-.611-.596.65.65 0 0 1 .371-.704q.434-.238.913-.356a8 8 0 0 1 1.702-.294c.983-.124 1.602-.023 1.617-.093m8.542 5.633q.162-1.157.503-2.275.531-1.038 1.23-1.973a3.63 3.63 0 0 0-1.733 4.248m-17.578 1.168q.459.29.975.464c.914.347 1.85.637 2.8.867 3.16.689 6.392.995 9.625.912 3.775-.046 7.18-.216 9.648-.317l2.916-.154a6.5 6.5 0 0 0 1.068-.109 5 5 0 0 0-1.075-.054h-2.917l-9.64.186a45 45 0 0 1-9.555-.774c-2.414-.487-3.814-1.106-3.845-1.021"/>
    <path fill="#263238" d="M122.543 172.455c0 .054.72-.348 1.888-.858a8.7 8.7 0 0 1 4.766-.774 7.57 7.57 0 0 1 4.123 2.445q.672.793 1.447 1.485a7.8 7.8 0 0 0-1.23-1.686 10 10 0 0 0-1.671-1.548 6 6 0 0 0-2.607-1.098 8.34 8.34 0 0 0-4.96.936 6.4 6.4 0 0 0-1.756 1.098"/>
    <path fill="#bed830" d="M99.75 153.872s-23.844 15.613-24.695 16.247c-1.284.967.186 5.586 2.414 4.789 1.052-.379 21.06-5.949 23.21-6.785s7.946-5.524 7.946-5.524z" class="dynamic-color"/>
    <path fill="#263238" d="M92.672 166.22a5.58 5.58 0 0 0-4.287-3.907 22 22 0 0 1 2.406 1.671q1.01 1.059 1.88 2.236m2.136-1.934a6.32 6.32 0 0 0-3.768-3.869c-.062.109.983.774 2.012 1.795s1.648 2.136 1.756 2.074m2.151-1.378a3.87 3.87 0 0 0-1.037-2.622 3.87 3.87 0 0 0-2.321-1.548 18 18 0 0 1 2.02 1.834q.761 1.115 1.338 2.336"/>
    <path fill="#263238" d="M95.58 159.945c.063 0-.262-.673-.533-1.787a9.7 9.7 0 0 1-.287-1.973 9 9 0 0 1 0-1.176.97.97 0 0 1 .132-.503.24.24 0 0 1 .325-.077c.27.108.41.572.542.944q.17.553.232 1.129a8.2 8.2 0 0 1-.062 1.989c-.163 1.129-.387 1.818-.325 1.841a5 5 0 0 0 .619-1.795 7.4 7.4 0 0 0 .154-2.066 6 6 0 0 0-.224-1.222 5 5 0 0 0-.232-.627 1.12 1.12 0 0 0-.542-.58.67.67 0 0 0-.835.225 1.4 1.4 0 0 0-.194.711 8.7 8.7 0 0 0 .372 3.265c.163.622.455 1.202.859 1.702"/>
    <path fill="#263238" d="M95.496 159.69c0 .062.588-.217 1.547-.457a8.7 8.7 0 0 1 1.71-.232 3.8 3.8 0 0 1 .982.062.68.68 0 0 1 .573.557.87.87 0 0 1-.41.774 2 2 0 0 1-.882.294 4.3 4.3 0 0 1-1.68-.171 11.4 11.4 0 0 0-1.546-.456c.436.349.935.611 1.47.774a4.2 4.2 0 0 0 1.802.27c.382-.02.752-.137 1.076-.34a1.26 1.26 0 0 0 .595-1.129 1.07 1.07 0 0 0-.89-.929 4 4 0 0 0-1.098-.046 7.6 7.6 0 0 0-1.772.332 3.6 3.6 0 0 0-1.477.697m-14.994 14.359c0 .039.402-.24.588-.921a3.57 3.57 0 0 0-.45-2.591 10 10 0 0 0-.773-1.192 4.7 4.7 0 0 0-.812-.866 1.4 1.4 0 0 0-.774-.318c-.2 0-.302.039-.302.062 0 .024.426.039.867.488q.391.395.689.866.416.561.773 1.161c.428.694.613 1.51.526 2.321q-.136.505-.332.99m8.564-6.398a2.92 2.92 0 0 0-.843-2.282 2.86 2.86 0 0 0-2.097-1.231q.95.675 1.772 1.501.669.957 1.168 2.012"/>
    <path fill="#263238" d="M106.172 163.427a7.3 7.3 0 0 0-1.052.711 31 31 0 0 1-2.94 1.803q-2.252 1.194-4.642 2.081c-1.81.673-3.868 1.308-5.973 1.927a1056 1056 0 0 0-10.978 3.21l-3.335 1.045a7.3 7.3 0 0 0-1.199.433 8 8 0 0 0 1.246-.271l3.35-.936a883 883 0 0 0 11.009-3.095c2.143-.626 4.178-1.276 5.988-1.972a35.5 35.5 0 0 0 4.681-2.182 24 24 0 0 0 2.894-1.934q.51-.371.951-.82"/>
    <path fill="#263238" d="M107.054 163.744a6.9 6.9 0 0 0-2.019-.542 8.4 8.4 0 0 0-5.013.619 5.9 5.9 0 0 0-2.12 1.872 10 10 0 0 0-1.122 1.996 7.5 7.5 0 0 0-.658 1.981q.525-.898.929-1.857a7.58 7.58 0 0 1 3.187-3.59 8.76 8.76 0 0 1 4.782-.688c1.237.1 2.019.271 2.034.209m42.25-47.945s7.157 2.553 7.18 10.576c.062 15.358-31.04 32.294-31.04 32.294L84.053 131.25l-2.592-1.053s55.898-20.982 67.843-14.398"/>
    <path fill="#455a64" d="M105.02 145.098a7.6 7.6 0 0 0 1.083-.727c.673-.495 1.64-1.222 2.824-2.143 2.375-1.826 5.593-4.425 9.067-7.404a229 229 0 0 0 8.688-7.837c1.084-1.029 1.95-1.88 2.546-2.476a7.4 7.4 0 0 0 .882-.952q-.535.375-.998.836l-2.631 2.375a453 453 0 0 1-8.765 7.737 492 492 0 0 1-8.967 7.489l-2.747 2.244a8 8 0 0 0-.982.858m32.602-23.558a10.28 10.28 0 0 0-7.536 2.22c.07.116 1.548-.851 3.668-1.454 2.119-.604 3.868-.635 3.868-.766"/>
    <path fill="#455a64" d="M134.055 119.118a6.34 6.34 0 0 0-3.744 4.642c.124 0 .572-1.245 1.617-2.522s2.197-2.011 2.127-2.12"/>
    <path fill="#263238" d="M151.579 167.767c0-.047-.495-.147-1.068.325a3.8 3.8 0 0 0-1.191 2.398 4.7 4.7 0 0 0 .371 2.654c.294.627.619.921.658.89a7.5 7.5 0 0 0-.379-1.006 5.34 5.34 0 0 1-.232-2.476 4.14 4.14 0 0 1 .975-2.244c.441-.456.874-.471.866-.541"/>
    <path fill="#455a64" d="m139.781 90.693-14.739 37.369-63.464 1.037-1.177-3.436 22.244-.804 10.692-33.152z"/>
    <path fill="#ebebeb" d="M110.141 106.894a2.84 2.84 0 0 1 3.056.333 2.45 2.45 0 0 1 .596 2.7 2.67 2.67 0 0 1-2.321 1.602 2.42 2.42 0 0 1-2.43-1.602 2.735 2.735 0 0 1 1.068-3.033"/>
    <path fill="#263238" d="M129.359 160.541s-58.474-38.359-60.857-39.156-8.185-4.588-13.965-2.994-10.978 6.785-13.57 14.367c-1.486 4.333-2.182 11.721-2.515 17.269a25.65 25.65 0 0 0 5.996 18.258 16.3 16.3 0 0 0 7.288 5.176c.612.194 1.246.356 1.896.495 11.056 2.399 22.437-2.568 28.626-12.023l1.362-2.073s38.258 14.05 38.854 13.856z"/>
    <path fill="#455a64" d="M57.02 149.98q.156.078.318.139l.96.38 3.705 1.431 13.78 5.191a2664 2664 0 0 0 20.726 7.644c7.868 2.863 16.58 5.996 25.895 9.145l.162.062.085-.163 4.573-8.727 2.321-4.448.085-.17-.163-.101-44.602-28.317-13.4-8.448-3.636-2.275-.952-.58c-.216-.131-.332-.186-.332-.186l.309.225.928.611 3.598 2.321 13.37 8.58 44.532 28.425-.078-.279c-.735 1.416-1.547 2.925-2.321 4.449l-4.564 8.727.255-.101c-9.284-3.141-18.027-6.266-25.903-9.106l-20.757-7.551-13.857-5.091-3.729-1.361-.975-.341z"/>
    <path fill="#263238" d="M63.086 13.775c.998-2.7 3.203-3.869 5.996-4.542a8.96 8.96 0 0 1 8.023 2.066c1.416 1.292 2.453 3.095 4.201 3.868 2.886 1.308 6.576-.603 9.284.998a4.085 4.085 0 0 1-2.63 7.567c1.88.882 2.228 3.714.936 5.338s-3.683 2.066-5.686 1.501a11.5 11.5 0 0 1-5.068-3.49c-1.408-1.546-2.646-3.21-4.178-4.641a8.9 8.9 0 0 0-5.508-2.615c-2.809-.108-5.416 1.787-6.879 4.178s-2.026 5.23-2.437 8.015c-.41 2.785-.72 5.617-1.794 8.216-.124.31-.31.642-.627.712-.472.1-.812-.418-.998-.859a41.2 41.2 0 0 1-3.296-15.705c-.039-3.095.317-6.058 2.26-8.51 1.941-2.453 6.42-3.977 8.378-2.136"/>
    <path fill="#ffbe9d" d="m56.495 26.254-4.302 31.241a9.384 9.384 0 0 0 8.51 10.623 9.39 9.39 0 0 0 10.12-8.085c.317-2.321.588-4.31.642-4.55 0 0 8.054.349 9.71-7.442.773-3.768 1.818-11.66 2.661-18.808A14.84 14.84 0 0 0 72 12.986l-.774-.148c-8.24-1.175-13.81 5.169-14.73 13.416"/>
    <path fill="#3b1919" fill-opacity=".2" d="M71.458 55.375a18.57 18.57 0 0 1-9.602-4.96s1.284 6.098 9.215 6.964z"/>
    <path fill="#263238" d="M80.47 34.014a1.13 1.13 0 0 1-1.3.905 1.077 1.077 0 0 1-.943-1.23 1.13 1.13 0 0 1 1.3-.913 1.083 1.083 0 0 1 .944 1.238m.882-1.284c-.17.123-.89-.673-2.09-.913s-2.204.193-2.32 0c-.116-.194.147-.31.588-.51a3.03 3.03 0 0 1 1.872-.194 2.97 2.97 0 0 1 1.625.905c.332.371.402.665.325.712m-12.735-.665a1.13 1.13 0 0 1-1.3.912 1.1 1.1 0 0 1-.951-1.237 1.153 1.153 0 0 1 1.3-.913 1.09 1.09 0 0 1 .95 1.238m.891-1.463c-.17.116-.89-.68-2.09-.92-1.198-.24-2.204.193-2.32 0-.116-.194.147-.31.588-.511a3.1 3.1 0 0 1 1.872-.194 3.1 3.1 0 0 1 1.633.906c.325.417.394.665.317.72m2.576 9.755a7.8 7.8 0 0 1 2.02.039c.317 0 .618 0 .711-.178a1.55 1.55 0 0 0 0-.944c-.14-.774-.286-1.64-.44-2.522-.597-3.575-.96-6.483-.82-6.507.138-.023.773 2.855 1.338 6.43.139.881.278 1.717.402 2.522.121.41.09.849-.085 1.238a.78.78 0 0 1-.588.34 2 2 0 0 1-.534 0 8.2 8.2 0 0 1-2.004-.418m-.352 4.002a.52.52 0 0 1-.203.33.48.48 0 0 1-.366.087.47.47 0 0 1-.321-.192.5.5 0 0 1-.095-.372.53.53 0 0 1 .204-.327.5.5 0 0 1 .364-.09.46.46 0 0 1 .323.191.5.5 0 0 1 .094.374m-.979-18.409c-.178.31-1.346-.085-2.793-.2-1.446-.117-2.653.046-2.785-.287-.054-.155.209-.418.727-.642a4.7 4.7 0 0 1 2.167-.31 4.65 4.65 0 0 1 2.089.681c.471.31.665.62.595.758M81.6 29.17c-.263.233-1.029-.216-2.027-.432-.998-.217-1.872-.178-2.004-.503-.062-.155.124-.403.55-.588a2.87 2.87 0 0 1 1.74-.116 2.8 2.8 0 0 1 1.51.874c.285.348.355.65.231.766"/>
    <path fill="#ffbe9d" d="M55.976 32.165c-.124-.085-5.052-2.661-5.95 2.716-.897 5.377 4.689 5.168 4.72 5.013s1.23-7.729 1.23-7.729"/>
    <path fill="#3b1919" fill-opacity=".2" d="M53.446 37.58s-.1.055-.27.101a.97.97 0 0 1-.705-.1 2.32 2.32 0 0 1-.727-2.26c.062-.464.229-.909.488-1.3a1.1 1.1 0 0 1 .797-.626.49.49 0 0 1 .51.356c.047.155 0 .263 0 .27s.132-.069.124-.293a.6.6 0 0 0-.155-.372.68.68 0 0 0-.495-.224 1.33 1.33 0 0 0-1.114.665 3.26 3.26 0 0 0-.58 1.447c-.147 1.091.24 2.197.982 2.545a1.01 1.01 0 0 0 .882 0c.232-.077.279-.193.263-.208"/>
    <path fill="#263238" d="M85.77 27.98a11.51 11.51 0 0 1-9.57-4.256c-1.547-1.996-2.576-4.603-4.812-5.81a6.5 6.5 0 0 0-4.99-.31 12.6 12.6 0 0 0-4.348 2.646c.711 4.271-1.184 8.51-3.033 12.38-.16.455-.468.845-.875 1.105-.727.364-1.593-.208-2.034-.897a6.75 6.75 0 0 1-.774-3.768 22.5 22.5 0 0 1 1.78-8.65 15.27 15.27 0 0 1 5.624-6.73 14.46 14.46 0 0 1 10.685-1.772 17.8 17.8 0 0 1 9.369 5.624 10.45 10.45 0 0 1 2.53 4.434"/>
</svg>
