<svg xmlns="http://www.w3.org/2000/svg" fill="none" viewBox="0 0 184 184">
    <g clip-path="url(#a)">
        <path fill="#BED830" d="M7.695 130.911s13.69 28.275 46.135 36.736c32.451 8.46 66.237-4.933 93.907-15.061 27.664-10.129 41.535-34.516 34.415-58.885s-30.641-21.985-53.419-43.194-25.613-30.254-56.341-35.852S9.209 35.323 2.148 71.49c-7.06 36.165 5.547 59.417 5.547 59.417z" class="dynamic-color" opacity=".15"/>
        <path fill="#BED830" d="M100.912 115.293 82.474 94.617l-.189 25.135 5.557 16.122-55.244 9.579-2.341-43.59-3.98-33.445a9.09 9.09 0 0 1 5.695-9.528l15.204-6.003 21.44 3.928 8.618 3.276a23.66 23.66 0 0 1 9.382 6.526l25.933 29.655" class="dynamic-color"/>
        <path fill="#fff" d="M81.188 89.643a27 27 0 0 0 3.112-.223 12.63 12.63 0 0 0 10.386-9.57q.32-1.536.471-3.096c.07.28.096.569.077.857.007.778-.074 1.555-.24 2.316a12.38 12.38 0 0 1-10.642 9.819c-.77.1-1.55.117-2.324.051a2.7 2.7 0 0 1-.84-.154"/>
        <path fill="#263238" d="M82.791 118.68c.129 0 .163-8.713.077-19.45-.085-10.736-.265-19.44-.394-19.44s-.163 8.704-.077 19.449c.085 10.745.266 19.441.394 19.441"/>
        <path fill="#BED830" d="m80.767 125.069-33.376-13.438a7.63 7.63 0 0 1-4.76-6.492l-2.444-32.004s.292-13.619-8.215-14.279L27.16 60.76c-6.252 3.319-7.796 12.426-6.947 19.45 1.21 9.982 1.716 24.114 3.062 32.776 1.115 7.092 5.145 13.326 12.109 15.153l41.112 8.901z" class="dynamic-color"/>
        <path fill="#263238" d="M40.667 78.014q.084.36.103.729c.052.523.129 1.226.215 2.11.171 1.878.411 4.519.703 7.76.291 3.242.617 7.196.995 11.518.086 1.089.18 2.195.274 3.327.066 1.152.21 2.298.429 3.43a5.67 5.67 0 0 0 1.664 2.993 11.2 11.2 0 0 0 3.078 1.921c9.202 3.979 17.683 7.272 23.84 9.579l7.316 2.693 1.99.729q.349.115.677.283a4 4 0 0 1-.712-.197l-2.015-.652c-1.716-.583-4.288-1.449-7.358-2.573a438 438 0 0 1-23.926-9.433 11.7 11.7 0 0 1-3.2-2.007A6.1 6.1 0 0 1 42.958 107a25 25 0 0 1-.42-3.482c-.094-1.14-.18-2.247-.266-3.336-.334-4.288-.643-8.233-.858-11.526s-.428-5.891-.566-7.77c-.06-.857-.102-1.594-.128-2.117a4.4 4.4 0 0 1-.052-.755m-19.124 17.4q.051.21.06.43l.111 1.234c.103 1.14.232 2.676.395 4.545.163 1.87.42 4.194.754 6.715.328 2.73.83 5.437 1.501 8.104a12.2 12.2 0 0 0 1.63 3.867 23.6 23.6 0 0 0 2.495 3.062 21.4 21.4 0 0 0 5.343 4.005 20.2 20.2 0 0 0 5.865 1.921 1.8 1.8 0 0 1-.437 0 10 10 0 0 1-1.235-.163 16.2 16.2 0 0 1-4.34-1.467 20.9 20.9 0 0 1-5.488-3.996 22.7 22.7 0 0 1-2.572-3.113 12.4 12.4 0 0 1-1.716-3.988 61 61 0 0 1-1.483-8.172 141 141 0 0 1-.91-11.303v-1.243a1.4 1.4 0 0 1 .027-.438"/>
        <path fill="#263238" d="M35.814 117.805a4.9 4.9 0 0 1 .608-1.775 11.5 11.5 0 0 1 6.775-5.788 4.8 4.8 0 0 1 1.853-.318q-.843.351-1.716.618a13.1 13.1 0 0 0-3.781 2.255 13.3 13.3 0 0 0-2.822 3.379c-.6.986-.849 1.655-.917 1.629"/>
        <path fill="#fff" d="M42.383 93.467a.8.8 0 0 1 .206.095l.6.317q1.162.572 2.384 1.003c3 1.053 6.22 1.33 9.356.806a18.47 18.47 0 0 0 11.629-7.229 15.36 15.36 0 0 0 3.044-7.564 10.3 10.3 0 0 0-.446-4.287 8.75 8.75 0 0 0-2.401-3.68 7.37 7.37 0 0 0-3.92-1.903 4.67 4.67 0 0 0-3.927 1.106 2.57 2.57 0 0 0-.772 1.775 3.1 3.1 0 0 0 .652 1.835 5 5 0 0 0 3.43 1.776 13.98 13.98 0 0 0 12.46-4.914 14 14 0 0 0 2.522-4.725 15 15 0 0 0 .635-4.022q.014-1.295-.19-2.573a18 18 0 0 1-.12-.66 1.2 1.2 0 0 1 0-.232c.355 1.108.529 2.267.515 3.43a14.4 14.4 0 0 1-.566 4.09 14.115 14.115 0 0 1-15.29 9.974 5.4 5.4 0 0 1-3.67-1.92 3.5 3.5 0 0 1-.738-2.093c0-.78.309-1.53.858-2.084a5.15 5.15 0 0 1 4.287-1.235 7.7 7.7 0 0 1 4.16 2.016 9.04 9.04 0 0 1 2.52 3.867 10.7 10.7 0 0 1 .464 4.46 15.7 15.7 0 0 1-3.147 7.718 18.43 18.43 0 0 1-21.38 6.346 13.3 13.3 0 0 1-3.155-1.493m-21.868-8.532a2.7 2.7 0 0 1 .549-.686 12.3 12.3 0 0 1 1.8-1.57 15.15 15.15 0 0 1 7.384-2.615 14.3 14.3 0 0 1 4.357.18c1.165.242 2.293.64 3.353 1.183a15.4 15.4 0 0 1 2.04 1.235q.378.231.67.566c-.052.069-1.047-.686-2.848-1.518a14 14 0 0 0-7.52-1.2 15.8 15.8 0 0 0-7.256 2.426c-1.655 1.107-2.47 2.059-2.53 1.999m5.343-22.889a13.2 13.2 0 0 0 2.701 1.964 9.6 9.6 0 0 0 3.43 1.012 9.14 9.14 0 0 0 4.289-.6 9 9 0 0 0 3.43-2.573 9.9 9.9 0 0 0 1.715-3.147c.308-1.075.484-2.184.523-3.302q.126.446.112.91a8.4 8.4 0 0 1-.335 2.486 9.6 9.6 0 0 1-1.715 3.31 8.77 8.77 0 0 1-8.147 3.362 9.5 9.5 0 0 1-3.542-1.132 8.3 8.3 0 0 1-1.99-1.526 2.5 2.5 0 0 1-.47-.764m29.088 52.629q.002-.32.069-.634a6.8 6.8 0 0 1 .591-1.716 9.5 9.5 0 0 1 4.991-4.339 14.63 14.63 0 0 1 9.82-.352c1.766.524 3.79 1.175 5.145 2.899a3.08 3.08 0 0 1 .377 3.139 4.97 4.97 0 0 1-2.375 2.238 7.6 7.6 0 0 1-3.165.789 4.64 4.64 0 0 1-3.035-.943 3.9 3.9 0 0 1-1.356-2.753 6.9 6.9 0 0 1 .455-2.89 13 13 0 0 1 6.86-6.964 13.56 13.56 0 0 1 6.57-1.132 9.4 9.4 0 0 1 2.4.506c0 .06-.857-.223-2.418-.334a13.73 13.73 0 0 0-10.187 3.747 12 12 0 0 0-2.873 4.288 6.5 6.5 0 0 0-.42 2.719 3.43 3.43 0 0 0 1.217 2.444 4.17 4.17 0 0 0 2.744.857 7.1 7.1 0 0 0 2.968-.737 4.58 4.58 0 0 0 2.178-2.032 2.67 2.67 0 0 0-.326-2.702 6.2 6.2 0 0 0-2.238-1.766 16 16 0 0 0-2.633-.987 14.43 14.43 0 0 0-9.588.249 9.48 9.48 0 0 0-4.956 4.125 9.2 9.2 0 0 0-.815 2.281m-22.228 12.049c0-.086 1.269-.189 3.199-.858a16 16 0 0 0 10.239-11.354c.489-1.989.472-3.284.557-3.276q.09.447.043.901c-.02.822-.117 1.64-.291 2.444a15.39 15.39 0 0 1-10.446 11.551c-.781.255-1.585.436-2.4.541q-.447.09-.901.051m-10.823-24.878q.192-.107.403-.163c.275-.086.67-.206 1.192-.343a14.7 14.7 0 0 1 4.554-.463 9.6 9.6 0 0 1 3.087.763 7.16 7.16 0 0 1 2.882 2.264 5.92 5.92 0 0 1 1.123 3.894 4.8 4.8 0 0 1-.66 2.092 3.3 3.3 0 0 1-1.715 1.458 2.29 2.29 0 0 1-2.256-.446 3 3 0 0 1-.78-2.075 8.9 8.9 0 0 1 .789-3.971 8.7 8.7 0 0 1 9.433-5.068q.618.096 1.21.3c.265.103.402.163.394.18s-.575-.18-1.63-.309a9 9 0 0 0-4.399.566 8.43 8.43 0 0 0-4.605 4.494 8.7 8.7 0 0 0-.729 3.782 2.57 2.57 0 0 0 .652 1.784 1.86 1.86 0 0 0 1.81.343 2.9 2.9 0 0 0 1.508-1.27 4.4 4.4 0 0 0 .6-1.895 5.57 5.57 0 0 0-1.02-3.619 6.7 6.7 0 0 0-2.701-2.161 9.3 9.3 0 0 0-2.967-.789 15.5 15.5 0 0 0-4.477.318c-1.106.214-1.68.368-1.698.334"/>
        <path fill="#000" d="M71.171 121.253c-3.567-2.016-7.058-3.568-10.788-5.257-3.73-1.69-7.392-3.876-9.836-7.169-4.605-6.209-4.082-15.17-8.79-21.294q.462 6.175.917 12.358c.283 3.773-.291 7.512 2.136 10.076 2.05 2.161 6.045 3.816 8.875 4.751 5.686 1.878 11.81 4.665 17.486 6.535" opacity=".3"/>
        <path fill="#BED830" d="M129.211 168.29s27.931 7.718 29.055 8.13c1.715.592 1.398 6.758-1.218 6.655-1.244-.043-21.439.754-24.012.6s-10.291-3.199-10.291-3.199z" class="dynamic-color"/>
        <path fill="#263238" d="M140.814 178.95a25 25 0 0 1 1.235-3.002 25 25 0 0 1 1.973-2.572 6.18 6.18 0 0 0-3.208 5.565zm-2.916-1.321c.138 0 .421-1.295 1.167-2.753.746-1.457 1.621-2.478 1.526-2.572a7 7 0 0 0-2.693 5.334zm-2.684-.729c.137-.999.355-1.986.652-2.95.438-.909.945-1.784 1.518-2.615a5.24 5.24 0 0 0-2.17 5.565"/>
        <path fill="#263238" d="M135.669 173.29a5 5 0 0 0 .3-2.075 10.3 10.3 0 0 0-.283-2.281 9 9 0 0 0-.42-1.295 1.5 1.5 0 0 0-.446-.686.75.75 0 0 0-.961.051 1.2 1.2 0 0 0-.369.789 4.3 4.3 0 0 0 0 .738c.003.459.061.917.172 1.363.186.748.474 1.467.858 2.135a5.7 5.7 0 0 0 1.252 1.716c.068 0-.403-.695-.961-1.836a9 9 0 0 1-.729-2.075 6 6 0 0 1-.137-1.278c0-.429 0-.96.257-1.166a.276.276 0 0 1 .369 0c.139.137.245.304.309.489q.246.605.42 1.235c.196.711.32 1.441.369 2.178.051 1.201-.077 1.989 0 1.998"/>
        <path fill="#263238" d="M135.635 173.007a3.9 3.9 0 0 0-1.801-.292c-.668 0-1.333.081-1.981.241-.4.09-.786.231-1.149.42a1.184 1.184 0 0 0-.627 1.278 1.42 1.42 0 0 0 1.004 1.003c.411.103.841.103 1.252 0a4.7 4.7 0 0 0 1.818-.858c.508-.34.948-.774 1.295-1.277a14 14 0 0 0-1.484 1.003 4.9 4.9 0 0 1-1.715.746 2.1 2.1 0 0 1-1.038 0 .95.95 0 0 1-.677-.66.73.73 0 0 1 .412-.781 4 4 0 0 1 1.012-.394 9 9 0 0 1 1.886-.326c1.089-.137 1.775-.026 1.793-.103m9.467 6.243q.18-1.283.558-2.521c.392-.766.848-1.498 1.363-2.187a4.02 4.02 0 0 0-1.921 4.708m-19.484 1.295c.338.214.701.387 1.081.514q1.521.578 3.104.961a44.7 44.7 0 0 0 10.668 1.012c4.185-.052 7.958-.24 10.694-.352l3.233-.171a7 7 0 0 0 1.184-.12 5.6 5.6 0 0 0-1.193-.06h-3.233l-10.685.205a50 50 0 0 1-10.591-.857c-2.675-.54-4.228-1.227-4.262-1.132"/>
        <path fill="#263238" d="M124.795 181.179c0 .06.797-.386 2.092-.952a9.67 9.67 0 0 1 5.283-.857 8.4 8.4 0 0 1 4.571 2.71 16 16 0 0 0 1.603 1.646 8.6 8.6 0 0 0-1.363-1.869 11 11 0 0 0-1.853-1.715 6.6 6.6 0 0 0-2.89-1.218 9.25 9.25 0 0 0-5.497 1.038 7.1 7.1 0 0 0-1.946 1.217"/>
        <path fill="#BED830" d="M99.531 160.581s-26.43 17.306-27.374 18.009c-1.423 1.072.206 6.191 2.676 5.308 1.166-.42 23.343-6.595 25.727-7.521s8.807-6.123 8.807-6.123z" class="dynamic-color"/>
        <path fill="#263238" d="M91.684 174.268a6.19 6.19 0 0 0-4.75-4.331c.928.557 1.82 1.176 2.666 1.852q1.12 1.174 2.084 2.479m2.367-2.144a7.01 7.01 0 0 0-4.176-4.288c-.069.12 1.089.858 2.23 1.99 1.14 1.131 1.826 2.366 1.946 2.298m2.384-1.527a4.3 4.3 0 0 0-1.149-2.907 4.3 4.3 0 0 0-2.573-1.715q1.195.933 2.239 2.032a19 19 0 0 1 1.483 2.59"/>
        <path fill="#263238" d="M94.909 167.313c.068 0-.292-.746-.592-1.981a10.8 10.8 0 0 1-.317-2.187 10 10 0 0 1 0-1.304 1.07 1.07 0 0 1 .145-.557.267.267 0 0 1 .36-.086c.3.12.455.635.6 1.047q.19.613.258 1.252a9 9 0 0 1-.068 2.204c-.18 1.252-.43 2.015-.36 2.041a5.6 5.6 0 0 0 .685-1.99 8.2 8.2 0 0 0 .172-2.29 6.5 6.5 0 0 0-.249-1.355 6 6 0 0 0-.257-.694 1.23 1.23 0 0 0-.6-.643.75.75 0 0 0-.927.248 1.53 1.53 0 0 0-.214.789 9.6 9.6 0 0 0 .412 3.619 5 5 0 0 0 .952 1.887"/>
        <path fill="#263238" d="M94.814 167.03c0 .068.652-.241 1.716-.506a9.5 9.5 0 0 1 1.895-.258c.364-.024.73-.001 1.089.069a.75.75 0 0 1 .634.617.95.95 0 0 1-.454.858c-.295.185-.63.297-.978.326a4.8 4.8 0 0 1-1.86-.189 13 13 0 0 0-1.716-.506 4.9 4.9 0 0 0 1.63.858 4.7 4.7 0 0 0 1.998.3 2.5 2.5 0 0 0 1.192-.377 1.4 1.4 0 0 0 .66-1.252 1.18 1.18 0 0 0-.986-1.03 4.6 4.6 0 0 0-1.218-.051 8.4 8.4 0 0 0-1.964.369 3.96 3.96 0 0 0-1.638.772m-16.619 15.916c0 .043.446-.266.651-1.021a3.96 3.96 0 0 0-.497-2.872q-.381-.691-.858-1.321a5.2 5.2 0 0 0-.9-.96 1.56 1.56 0 0 0-.858-.352c-.223 0-.334.043-.334.069 0 .025.472.042.96.54q.434.438.764.96.46.621.857 1.287a4.08 4.08 0 0 1 .583 2.572q-.151.56-.368 1.098m9.493-7.092a3.23 3.23 0 0 0-.935-2.53 3.18 3.18 0 0 0-2.324-1.363 15 15 0 0 1 1.964 1.663q.741 1.061 1.295 2.23"/>
        <path fill="#263238" d="M106.649 171.172a8 8 0 0 0-1.167.789 34 34 0 0 1-3.258 1.998 43 43 0 0 1-5.146 2.307c-2.007.746-4.288 1.449-6.62 2.135a1174 1174 0 0 0-12.17 3.559l-3.695 1.158a8 8 0 0 0-1.33.48q.703-.096 1.381-.3l3.713-1.038c3.13-.858 7.444-2.058 12.204-3.43 2.375-.695 4.63-1.415 6.637-2.187a39 39 0 0 0 5.189-2.418 26 26 0 0 0 3.207-2.144 8.5 8.5 0 0 0 1.055-.909"/>
        <path fill="#263238" d="M107.626 171.523a7.6 7.6 0 0 0-2.238-.6 9.3 9.3 0 0 0-5.557.686 6.6 6.6 0 0 0-2.35 2.075 11 11 0 0 0-1.243 2.213 8.3 8.3 0 0 0-.729 2.195q.583-.994 1.03-2.058a8.4 8.4 0 0 1 3.532-3.979 9.7 9.7 0 0 1 5.3-.763c1.372.111 2.238.3 2.255.231m46.832-53.143s7.932 2.83 7.958 11.723c.069 17.023-34.405 35.795-34.405 35.795l-45.88-30.392-2.873-1.167s61.959-23.257 75.2-15.959"/>
        <path fill="#455A64" d="M105.371 150.856a8.5 8.5 0 0 0 1.201-.806c.746-.549 1.818-1.355 3.13-2.376 2.633-2.023 6.2-4.905 10.05-8.206a253 253 0 0 0 9.631-8.688 153 153 0 0 0 2.821-2.744q.536-.484.978-1.055a8.5 8.5 0 0 0-1.106.926l-2.916 2.633a503 503 0 0 1-9.716 8.576 540 540 0 0 1-9.939 8.301l-3.045 2.487a9 9 0 0 0-1.089.952m36.138-26.113a11.4 11.4 0 0 0-8.353 2.461c.077.129 1.715-.943 4.065-1.612s4.288-.703 4.288-.849"/>
        <path fill="#455A64" d="M137.555 122.059a7 7 0 0 0-4.15 5.145c.137 0 .634-1.38 1.792-2.795s2.436-2.23 2.358-2.35"/>
        <path fill="#263238" d="M156.979 175.983c0-.052-.549-.163-1.183.36a4.22 4.22 0 0 0-1.321 2.658c-.15 1-.007 2.022.412 2.942.326.694.686 1.02.729.986a8 8 0 0 0-.42-1.115 5.9 5.9 0 0 1-.258-2.744 4.6 4.6 0 0 1 1.081-2.487c.489-.506.969-.523.96-.6"/>
        <path fill="#455A64" d="m143.901 90.552-16.336 41.42-70.347 1.149-1.303-3.807 24.655-.892 11.852-36.747z"/>
        <path fill="#EBEBEB" d="M111.048 108.509a3.14 3.14 0 0 1 3.387.369 2.72 2.72 0 0 1 .661 2.993 2.96 2.96 0 0 1-2.573 1.775 2.68 2.68 0 0 1-2.693-1.775 3.03 3.03 0 0 1 1.184-3.362"/>
        <path fill="#263238" d="M132.35 167.973s-64.815-42.518-67.456-43.402c-2.642-.883-9.073-5.085-15.48-3.318-6.405 1.766-12.168 7.52-15.041 15.925-1.647 4.802-2.418 12.992-2.787 19.141a28.43 28.43 0 0 0 6.646 20.238 18.1 18.1 0 0 0 8.078 5.737c.678.215 1.38.395 2.101.549 12.255 2.659 24.87-2.847 31.73-13.326l1.51-2.299s42.406 15.574 43.067 15.359z"/>
        <path fill="#455A64" d="M52.167 156.267q.172.087.352.155l1.063.42 4.108 1.586 15.273 5.755a3012 3012 0 0 0 22.975 8.472c8.721 3.173 18.377 6.646 28.702 10.137l.18.068.095-.18 5.068-9.673 2.573-4.931.094-.189-.18-.111-49.439-31.387-14.853-9.365-4.03-2.521-1.055-.643c-.24-.146-.369-.206-.369-.206l.343.249 1.03.677 3.987 2.573 14.819 9.51 49.361 31.507-.086-.308c-.814 1.569-1.715 3.241-2.572 4.931l-5.06 9.673.283-.112c-10.291-3.481-19.981-6.946-28.711-10.093l-23.009-8.37-15.359-5.643-4.133-1.509-1.08-.377z"/>
        <path fill="#263238" d="M58.89 5.292C59.998 2.3 62.442 1.005 65.538.258a9.93 9.93 0 0 1 8.893 2.29c1.57 1.432 2.718 3.43 4.656 4.288 3.2 1.45 7.29-.669 10.291 1.106a4.527 4.527 0 0 1-2.915 8.387c2.083.978 2.47 4.117 1.037 5.918-1.432 1.8-4.082 2.29-6.303 1.663a12.7 12.7 0 0 1-5.617-3.867c-1.56-1.716-2.933-3.56-4.63-5.146A9.85 9.85 0 0 0 64.841 12c-3.113-.12-6.003 1.98-7.624 4.63s-2.246 5.798-2.7 8.885-.798 6.226-1.99 9.107c-.138.343-.343.712-.695.79-.523.11-.9-.464-1.106-.953a45.7 45.7 0 0 1-3.654-17.408c-.042-3.43.352-6.715 2.505-9.434s7.117-4.407 9.287-2.366"/>
        <path fill="#FFBE9D" d="m51.584 19.125-4.768 34.629a10.4 10.4 0 0 0 9.433 11.774 10.41 10.41 0 0 0 11.217-8.962c.352-2.572.652-4.776.712-5.042 0 0 8.928.386 10.763-8.25.857-4.176 2.015-12.923 2.95-20.847A16.45 16.45 0 0 0 68.77 4.417l-.858-.162C58.78 2.95 52.605 9.983 51.584 19.125"/>
        <path fill="#3B1919" fill-opacity=".2" d="M68.17 51.404a20.6 20.6 0 0 1-10.643-5.497s1.424 6.757 10.214 7.718z"/>
        <path fill="#263238" d="M78.16 27.726a1.25 1.25 0 0 1-1.44 1.004 1.193 1.193 0 0 1-1.047-1.364 1.25 1.25 0 0 1 1.441-1.012 1.2 1.2 0 0 1 1.046 1.372m.978-1.423c-.189.137-.986-.746-2.316-1.012s-2.444.214-2.572 0c-.129-.215.163-.343.651-.566a3.36 3.36 0 0 1 2.076-.215 3.3 3.3 0 0 1 1.8 1.004c.37.412.447.737.36.789m-14.115-.738a1.25 1.25 0 0 1-1.44 1.012 1.22 1.22 0 0 1-1.055-1.372 1.28 1.28 0 0 1 1.44-1.012 1.21 1.21 0 0 1 1.055 1.372m.987-1.62c-.189.128-.987-.755-2.316-1.02-1.329-.267-2.444.213-2.572 0-.13-.215.162-.344.651-.567a3.43 3.43 0 0 1 2.076-.214 3.43 3.43 0 0 1 1.81 1.003c.36.463.436.738.35.798m2.856 10.814a8.6 8.6 0 0 1 2.239.042c.351 0 .686 0 .789-.197.109-.34.109-.706 0-1.046-.155-.858-.318-1.818-.49-2.796-.66-3.962-1.063-7.186-.908-7.212s.857 3.165 1.483 7.127c.155.977.309 1.903.446 2.795.135.454.101.941-.094 1.372a.86.86 0 0 1-.652.378 2.1 2.1 0 0 1-.592 0 9 9 0 0 1-2.22-.463m-.391 4.436a.57.57 0 0 1-.225.366.53.53 0 0 1-.405.096.52.52 0 0 1-.356-.213.57.57 0 0 1-.106-.413.6.6 0 0 1 .227-.362.54.54 0 0 1 .403-.1.5.5 0 0 1 .357.212.56.56 0 0 1 .105.414M67.39 18.79c-.198.344-1.493-.094-3.097-.223-1.603-.128-2.941.052-3.087-.317-.06-.171.232-.463.806-.712a5.2 5.2 0 0 1 2.401-.343 5.15 5.15 0 0 1 2.316.755c.523.343.737.686.66.84m12.023 3.568c-.291.257-1.14-.24-2.247-.48s-2.075-.198-2.22-.558c-.07-.171.137-.446.608-.651a3.2 3.2 0 0 1 1.93-.129 3.1 3.1 0 0 1 1.672.969c.317.386.394.72.257.849"/>
        <path fill="#FFBE9D" d="M51.01 25.677c-.137-.095-5.6-2.95-6.595 3.01s5.197 5.729 5.231 5.557c.035-.172 1.364-8.567 1.364-8.567"/>
        <path fill="#3B1919" fill-opacity=".2" d="M48.206 31.68s-.112.06-.3.111a1.07 1.07 0 0 1-.781-.111 2.57 2.57 0 0 1-.806-2.504 3.4 3.4 0 0 1 .54-1.441 1.23 1.23 0 0 1 .883-.695.54.54 0 0 1 .566.395c.052.171 0 .291 0 .3 0 .008.146-.077.138-.326a.68.68 0 0 0-.172-.412.75.75 0 0 0-.549-.248 1.48 1.48 0 0 0-1.235.737 3.6 3.6 0 0 0-.643 1.604c-.163 1.209.266 2.435 1.09 2.821a1.12 1.12 0 0 0 .977 0c.257-.086.309-.214.291-.231"/>
        <path fill="#263238" d="M84.035 21.037a12.76 12.76 0 0 1-10.608-4.716c-1.716-2.213-2.856-5.103-5.335-6.44a7.2 7.2 0 0 0-5.53-.344 14 14 0 0 0-4.82 2.933c.789 4.734-1.312 9.433-3.362 13.721a2.4 2.4 0 0 1-.97 1.227c-.805.403-1.766-.232-2.254-.995a7.5 7.5 0 0 1-.858-4.176 25 25 0 0 1 1.972-9.588 16.9 16.9 0 0 1 6.235-7.461 16.03 16.03 0 0 1 11.843-1.964A19.72 19.72 0 0 1 80.733 9.47a11.6 11.6 0 0 1 2.804 4.914"/>
    </g>
    <defs>
        <clipPath id="a">
            <path fill="#fff" d="M0 0h184v184H0z"/>
        </clipPath>
    </defs>
</svg>
