<svg xmlns="http://www.w3.org/2000/svg" fill="none" viewBox="0 0 184 184">
    <path fill="#005E9C" d="M101.81 172.379c45.392 0 82.19-36.797 82.19-82.19C184 44.799 147.202 8 101.81 8S19.62 44.798 19.62 90.19s36.798 82.189 82.19 82.189" class="dynamic-color" opacity=".15"/>
    <path fill="#F2F2F2" d="M114.463 176.005H69.87a1.95 1.95 0 0 1-1.958-1.958v-31.179a1.95 1.95 0 0 1 1.958-1.958h44.593a1.95 1.95 0 0 1 1.958 1.958v31.179a1.95 1.95 0 0 1-1.958 1.958"/>
    <path fill="#9E616A" d="M41.591 94.758c1.124-1.45.87-3.517-.58-4.677a6 6 0 0 0-.508-.327l-.29-29.837-5.583 2.574 1.233 28.859c-.761 1.667 0 3.661 1.704 4.423a3.404 3.404 0 0 0 4.024-1.015"/>
    <path fill="#9E616A" d="M41.446 52.412s-5.402-2.646-6.163 2.32c-.761 4.967-3.843 17.874-3.843 17.874l9.354-.653z"/>
    <path fill="#9E616A" d="M41.591 94.758c1.124-1.45.87-3.517-.58-4.677a6 6 0 0 0-.508-.327l-.29-29.837-5.583 2.574 1.233 28.859c-.761 1.667 0 3.661 1.704 4.423a3.404 3.404 0 0 0 4.024-1.015"/>
    <path fill="#005E9C" d="M41.446 52.412s-5.402-2.646-6.163 2.32c-.761 4.967-3.843 17.874-3.843 17.874l9.354-.653z" class="dynamic-color"/>
    <path fill="#F2F2F2" d="M25.748 167.267a1.07 1.07 0 0 1-1.088-1.087c0-.29.109-.58.326-.762l.073-.29-.036-.072a2.89 2.89 0 0 0-3.77-1.523 2.8 2.8 0 0 0-1.523 1.559c-.87 2.103-1.958 4.169-2.248 6.381a8.9 8.9 0 0 0 .145 2.937 33.9 33.9 0 0 1-3.082-14.14c0-1.232.073-2.465.218-3.661.108-.979.253-1.994.471-2.973 1.088-5.33 3.444-10.333 6.816-14.611a9.3 9.3 0 0 0 3.807-3.952c.29-.616.507-1.232.652-1.921a3 3 0 0 1-.544.036h-.217a1.03 1.03 0 0 1-1.088-1.015c0-.254.073-.508.218-.725l.253-.29c.11-.145.254-.29.363-.435l.036-.037.435-.507c-.253-.399-.616-.725-1.015-.979-1.523-.725-3.335-.326-4.35 1.015-.98 1.341-1.27 3.045-.87 4.641.362 1.341.906 2.61 1.703 3.77l-.217.29a35 35 0 0 0-3.626 5.728 14.1 14.1 0 0 0-.87-6.707c-.833-1.994-2.356-3.661-3.734-5.365a2.953 2.953 0 0 0-4.17-.508c-.615.471-1.014 1.196-1.123 1.994v.073c.217.108.399.217.58.362.653.471.834 1.342.363 2.03a1.5 1.5 0 0 1-.98.617c.073.725.182 1.45.363 2.175 1.052 3.988 3.735 7.36 7.396 9.317l.363.182c-1.015 2.9-1.668 5.909-1.886 8.955a30.3 30.3 0 0 0 .037 5.438v-.073c-.399-1.994-1.45-3.806-3.046-5.112-2.32-1.921-5.62-2.61-8.12-4.169-.798-.471-1.813-.254-2.285.544a1.68 1.68 0 0 0-.254 1.088v.072a7.6 7.6 0 0 1 1.088.544c.218.109.399.217.58.362.653.436.834 1.342.399 1.995-.218.326-.58.58-.979.616H1.24c.652 1.523 1.522 2.936 2.646 4.169a14.72 14.72 0 0 0 10.768 4.713 35.5 35.5 0 0 0 2.356 6.925h8.484l.073-.29c-.798.036-1.56 0-2.357-.145l1.885-2.32.037-.037.978-1.196c.073-1.197-.072-2.429-.362-3.626m125.151 0a1.07 1.07 0 0 1-1.087-1.087c0-.29.108-.58.326-.762l.072-.29-.036-.072a2.88 2.88 0 0 0-3.77-1.523 2.8 2.8 0 0 0-1.523 1.559c-.87 2.103-1.958 4.169-2.248 6.381a8.9 8.9 0 0 0 .145 2.937 33.9 33.9 0 0 1-3.081-14.14c0-1.232.072-2.465.217-3.661.109-.979.254-1.994.471-2.973 1.088-5.33 3.445-10.333 6.816-14.611a9.3 9.3 0 0 0 3.807-3.952c.29-.616.508-1.232.653-1.921-.182.036-.363.036-.544.036h-.254a1.03 1.03 0 0 1-1.088-1.015c0-.254.073-.508.218-.725l.254-.29c.109-.145.254-.29.362-.435l.037-.037.435-.507c-.254-.399-.617-.725-1.016-.979-1.522-.725-3.335-.326-4.35 1.015-.979 1.341-1.269 3.045-.87 4.641a12.3 12.3 0 0 0 1.668 3.806l-.218.29a35 35 0 0 0-3.626 5.729 14.1 14.1 0 0 0-.87-6.707c-.833-1.994-2.356-3.662-3.734-5.366a2.953 2.953 0 0 0-4.169-.508 3.02 3.02 0 0 0-1.124 1.958v.073c.217.108.399.217.58.362a1.45 1.45 0 0 1 .399 1.994c-.218.326-.58.58-.979.616h-.036c.072.726.181 1.451.362 2.176 1.052 3.988 3.734 7.359 7.396 9.317.109.073.218.109.363.181-1.015 2.901-1.668 5.91-1.885 8.955a30 30 0 0 0 .036 5.439v-.073c-.399-1.994-1.487-3.807-3.046-5.148-2.32-1.922-5.619-2.61-8.121-4.169-.761-.508-1.812-.254-2.284.507-.217.327-.29.725-.254 1.088v.072q.545.218 1.088.544c.218.109.399.218.58.363a1.45 1.45 0 0 1 .399 1.994c-.218.326-.58.58-.979.616h-.109a15.6 15.6 0 0 0 2.647 4.169 14.7 14.7 0 0 0 10.768 4.714 34.3 34.3 0 0 0 2.392 6.96h8.484c.036-.108.073-.181.073-.29-.798.037-1.559 0-2.357-.145.616-.761 1.269-1.559 1.885-2.32l.036-.036c.327-.399.653-.798.943-1.197.181-1.16.036-2.356-.254-3.553"/>
    <path fill="#E6E6E6" d="M118.198 174.808h-.073a2.425 2.425 0 0 1-2.284-2.429c0-3.662-2.973-6.598-6.635-6.598a6.56 6.56 0 0 0-6.127 4.205l-1.269 3.155a5.755 5.755 0 0 1-8.193 0l-.073-.073.037-.109 22.296-45.608v-1.124a5 5 0 0 1 0-1.052V10.357A2.35 2.35 0 0 1 118.234 8h.072a2.424 2.424 0 0 1 2.284 2.43v114.745c.037.363.037.689 0 1.052v1.088l22.333 45.681-.072.072a5.8 5.8 0 0 1-8.23 0l-.036-.036-1.233-3.118a6.62 6.62 0 0 0-8.592-3.734 6.61 6.61 0 0 0-4.17 6.163v.109c-.036 1.269-1.087 2.32-2.392 2.356q0-.054 0 0"/>
    <path fill="#fff" d="M158.984 91.132H77.411a3.597 3.597 0 0 1-3.59-3.589V30.478a3.597 3.597 0 0 1 3.59-3.59h81.573a3.6 3.6 0 0 1 3.59 3.59v57.029c0 1.994-1.596 3.59-3.59 3.625"/>
    <path fill="#F2F2F2" d="M158.984 91.567H77.411a4.04 4.04 0 0 1-4.024-4.024V30.478a4.04 4.04 0 0 1 4.024-4.025h81.573a4.04 4.04 0 0 1 4.024 4.025v57.029c0 2.247-1.812 4.06-4.024 4.06M77.411 27.36c-1.74 0-3.118 1.414-3.118 3.154v57.029a3.12 3.12 0 0 0 3.118 3.118h81.573a3.12 3.12 0 0 0 3.118-3.118V30.478c0-1.74-1.414-3.118-3.118-3.154z"/>
    <path fill="#E6E6E6" d="M130.27 30.478h-24.145a5.756 5.756 0 0 1-5.765-5.764v-.11h35.675v.11a5.756 5.756 0 0 1-5.765 5.764m.109 64.207H106.27a5.756 5.756 0 0 1-5.765-5.764v-.11h35.675v.11c-.036 3.19-2.647 5.764-5.801 5.764"/>
    <path fill="#CCC" d="M162.718 175.098c0 .218-.145.363-.362.363H.442c-.181.036-.399-.073-.435-.254s.072-.399.254-.435h162.095c.217 0 .362.145.362.326"/>
    <path fill="#9E616A" d="M54.607 166.904h4.278l2.03-16.459h-6.308z"/>
    <path fill="#2F2E41" d="m53.157 164.802 6.743-.399v2.9l6.417 4.423a1.84 1.84 0 0 1 .435 2.538 1.77 1.77 0 0 1-1.45.762h-8.013l-1.377-2.865-.544 2.865h-3.01z"/>
    <path fill="#9E616A" d="m40.105 75.398-.435 1.994-.363 7.36 14.285-1.922 1.087-8.52-1.523-2.502zm-7.07 91.506h4.278l2.03-16.459h-6.308z"/>
    <path fill="#2F2E41" d="M30.715 137.829v-.037l1.595-7.432.979-3.698-2.756-21.717c-.652-15.77 8.52-23.384 8.593-23.456l.217-.218 14.684-.362c7.903 4.749 6.997 30.635 8.447 48.218.109 1.269 1.414 3.118 1.088 4.315-2.538 9.462-1.777 19.722-3.698 20.012l-5.91-.072-3.045-13.849 2.828-10.551c-1.233-.217-2.103-6.344-2.103-6.344-.544-.653-2.43-6.127-2.43-6.127l-2.5-15.227-4.025 26.139.979 6.128-.798 2.102-3.444 17.403-.036.29-6.49-.653zm.87 26.973 6.743-.399v2.9l6.417 4.423a1.84 1.84 0 0 1 .435 2.538 1.77 1.77 0 0 1-1.45.762h-8.012l-1.378-2.865-.544 2.865h-3.045z"/>
    <path fill="#005E9C" d="m51.888 46.684 3.589 3.988 4.314 8.157-2.139 10.043.943 4.713 1.377 5.184c-5.293 2.937-11.565-1.124-17.33-2.9l-5.691 2.501.29-6.888.145-17.366c.036-2.683 2.211-4.858 4.894-4.822h.326l3.807-2.791z" class="dynamic-color"/>
    <path fill="#9E616A" d="M50.872 44.581a7.577 7.577 0 1 0 0-15.154 7.577 7.577 0 0 0 0 15.154"/>
    <path fill="#2F2E41" d="M59.827 34.248c-.145.762-3.335 1.088-3.226-.217-.617 1.232-1.56 3.045-.363 5.112a3.29 3.29 0 0 0-.435 3.806 9.7 9.7 0 0 1 .834 1.74l.109.436a.833.833 0 0 1-.762.942.73.73 0 0 1-.471-.072c-3.227-1.56-8.846-1.305-12.363-.363.036-.689 0-1.377-.036-2.066-.145.87-.471 1.667-1.015 2.32-.617.181-1.197.363-1.777.544a.564.564 0 0 1-.652-.326.4.4 0 0 1 0-.29c.108-.4.145-.834.072-1.233a15.3 15.3 0 0 0-.87-2.466 3.4 3.4 0 0 1-.109-2.537c.58-1.233 2.212-1.596 2.937-2.756.798-1.269.181-2.973.29-4.459.181-2.139 1.921-3.88 3.916-4.713 3.407-1.45 7.686-.29 10.26 2.429.725-.508 1.667-.544 2.465-.109.761.399 1.305.617 1.631 1.414.327.761-.326 2.14-.435 2.864"/>
    <path fill="#fff" d="M56.564 123.508 38.691 105.67a1.093 1.093 0 0 1 0-1.558L51.199 91.64a1.094 1.094 0 0 1 1.559 0l17.873 17.873a1.094 1.094 0 0 1 0 1.559L58.16 123.544a1.05 1.05 0 0 1-1.523.036c-.036-.036-.073-.036-.073-.072"/>
    <path fill="#E6E6E6" d="M57.326 124.124a1.4 1.4 0 0 1-.98-.399L38.51 105.888a1.42 1.42 0 0 1 0-1.994l12.47-12.472a1.42 1.42 0 0 1 1.994 0L70.85 109.26c.544.544.544 1.45 0 1.994l-12.472 12.471c-.326.291-.689.436-1.051.399M51.96 91.568c-.218 0-.435.072-.58.253l-12.472 12.472a.81.81 0 0 0 0 1.16l17.874 17.874c.326.29.834.29 1.16 0l12.472-12.472a.81.81 0 0 0 0-1.16L52.576 91.858c-.18-.182-.398-.29-.616-.29"/>
    <path fill="#9E616A" d="M49.821 93.272c-1.124-1.45-.87-3.517.58-4.677.145-.11.326-.218.508-.327l.29-29.837 5.583 2.574-1.233 28.859c.762 1.667 0 3.661-1.704 4.423-1.414.616-3.081.217-4.024-1.016"/>
    <path fill="#9E616A" d="M49.966 50.926s5.438-2.647 6.163 2.32 3.843 17.873 3.843 17.873l-9.353-.652z"/>
    <path fill="#9E616A" d="M49.821 93.272c-1.124-1.45-.87-3.517.58-4.677.145-.11.326-.218.508-.327l.29-29.837 5.583 2.574-1.233 28.859c.762 1.667 0 3.661-1.704 4.423-1.414.616-3.081.217-4.024-1.016"/>
    <path fill="#005E9C" d="M49.966 50.926s5.438-2.647 6.163 2.32 3.843 17.873 3.843 17.873l-9.353-.652z" class="dynamic-color"/>
</svg>
