<svg xmlns="http://www.w3.org/2000/svg" width="139" height="147" fill="none">
    <style>
        .dynamic-color{fill:#bed830}
    </style>
    <path d="M137.37 50.62c-5.3 23.28-11.09 52.16-31.06 70.49-7.86 7.21-16.52 11.09-24.13 13.15a64.6 64.6 0 0 1-16.12 2.21c-3.04.02-4.86-.21-4.86-.21s-.69-.06-1.96-.27c-2.96-.5-9.05-1.87-16.67-5.44-7.11-3.31-15.54-8.54-23.99-16.75-21.36-20.77-24.87-54.43-7.59-72.85 13.86-14.78 21.34-16.37 36.33-19.59.42-.08.84-.18 1.27-.26.24-.06.49-.11.75-.17h.05c.41-.09.83-.18 1.25-.27.06-.02.12-.03.17-.04.28-.06.57-.12.85-.19.25-.05.49-.1.74-.16.19-.04.38-.09.58-.13 1.73-.39 3.57-.81 5.52-1.29.34-.09.69-.17 1.04-.26.14-.04.29-.07.44-.11 1.04-.26 2.05-.54 3.04-.85.12-.03.24-.07.36-.11.83-.25 1.63-.52 2.42-.8.37-.13.74-.26 1.11-.4.66-.24 1.3-.49 1.93-.75.02 0 .04 0 .06-.02.03-.01.05-.02.07-.03.1-.04.19-.08.29-.12.24-.1.48-.2.72-.31.04-.01.08-.02.12-.05.12-.04.24-.1.36-.15.27-.12.54-.23.81-.36.05-.02.09-.04.14-.06.09-.04.19-.08.28-.12 2.7-1.24 5.19-2.56 7.54-3.89.03-.01.05-.02.07-.04.03-.01.06-.03.09-.05 11.62-6.55 19.92-13.16 33.26-9.13 19.61 5.91 30.02 26.11 24.72 49.39z" class="dynamic-color" opacity=".15"/>
    <path fill="#263238" d="M84.44 102.44c-.21 4.92-1.36 20.06-2.26 31.82a64.6 64.6 0 0 1-16.12 2.21c.17-11.97.47-30.73.47-30.73s-4.72 18.83-7.29 30.25c-2.96-.5-9.05-1.87-16.67-5.44.68-5.09 1.5-10.99 2.32-16.75.02-.17.05-.35.07-.52.01-.01 0-.01 0-.01.22-1.49.43-2.97.63-4.42.23-1.52.44-3 .64-4.44.39-2.63.75-5.09 1.07-7.27v-.05c.84-5.69 1.41-9.53 1.41-9.53l20-.64.67-.03 10.92-.35h.05l1.25-.04h.21l.75-.03s.91 3.81 1.48 8.38c.3 2.47.5 5.16.4 7.59"/>
    <path fill="#455A64" d="M80.33 86.73c-.16-.8-.16-1.63 0-2.44.17.8.17 1.63 0 2.44m1.41.65c-.27-1.03-.18-2.11.26-3.08-.02.52-.06 1.03-.15 1.54 0 .52-.04 1.03-.11 1.54m-12.65-2.55c-.27.06-.53.2-.72.41a.95.95 0 0 0-.21.38c-.04.14-.05.29-.03.43.05.16.14.31.27.43a.95.95 0 0 0 .95.18c.16-.06.3-.16.4-.3a1.04 1.04 0 0 0 .08-.84c-.1-.26-.28-.49-.52-.64 0 0 .1 0 .24.06.2.12.36.3.44.51.07.16.1.34.1.51 0 .18-.06.35-.14.5-.13.18-.3.32-.5.41-.2.08-.43.11-.64.07-.22-.04-.42-.14-.57-.3a1.13 1.13 0 0 1-.32-.56c-.02-.18 0-.35.05-.52.06-.17.15-.32.28-.44a1 1 0 0 1 .6-.31c.16-.02.24.02.24.03z"/>
    <path fill="#263238" d="M51.67 6.05c.11-1.98 1.32-3.2 3.02-4.21.86-.5 1.82-.78 2.81-.83.99-.04 1.97.15 2.87.57 1.19.57 2.24 1.54 3.54 1.71 2.16.28 4.2-1.71 6.31-1.23.63.15 1.19.52 1.58 1.04s.59 1.16.57 1.81a2.82 2.82 0 0 1-2.35 2.68c1.41.21 2.21 2 1.7 3.33s-2 2.11-3.41 2.14a7.9 7.9 0 0 1-4.03-1.27c-1.23-.72-2.39-1.59-3.68-2.2-1.27-.69-2.73-.9-4.14-.61-1.87.5-3.19 2.28-3.68 4.14-.48 1.86-.28 3.86 0 5.78s.66 3.85.48 5.79a.71.71 0 0 1-.27.57c-.28.16-.61-.11-.82-.36a28.6 28.6 0 0 1-5.33-9.7c-.65-2.05-1.01-4.06-.23-6.07s3.41-3.92 5.08-3.1z"/>
    <path fill="#FFBE9D" d="m49.83 15.61 3.15 19.55c.57 3.65 2.95 7.18 8.66 5.99 4.87-1.42 4.51-4.94 3.87-9.28 0 0 5.36-1.4 4.88-6.88-.23-2.65-1.14-8.06-2.04-12.94-.46-2.53-1.85-4.79-3.9-6.34-2.05-1.54-4.6-2.26-7.14-2l-.53.05c-5.63.93-8.01 6.21-6.95 11.84z"/>
    <path fill="#EB996E" d="M65.51 31.87c-2.51.25-5.04-.23-7.29-1.39 0 0 2.14 4.06 7.51 3.02l-.22-1.64z"/>
    <path fill="#263238" d="M67.29 16.85c.02.2-.03.41-.16.57s-.31.27-.51.29q-.15.03-.3 0a.7.7 0 0 1-.27-.12.7.7 0 0 1-.2-.22.7.7 0 0 1-.1-.28c-.02-.2.03-.41.16-.57s.31-.27.51-.29q.15-.03.3 0t.27.12c.08.06.15.13.2.22.05.08.09.18.1.28m.17-1.99c-.09.11-.72-.27-1.56-.18-.83.09-1.41.57-1.51.47s.03-.23.28-.46c.34-.29.76-.47 1.2-.51.44-.05.87.05 1.25.27.28.17.38.34.34.39zm-7.79 3.19c.02.2-.03.41-.16.57s-.31.27-.51.29q-.15.03-.3 0a.7.7 0 0 1-.27-.12.7.7 0 0 1-.2-.22.7.7 0 0 1-.1-.28c-.02-.2.03-.41.16-.57s.31-.27.51-.29q.15-.03.3 0t.27.12c.08.06.15.13.2.22s.09.18.1.28m-.26-2.2c-.09.11-.72-.27-1.56-.18-.83.09-1.41.57-1.51.48s.03-.23.28-.46c.34-.29.76-.47 1.2-.51.43-.05.87.05 1.25.27.28.17.38.35.34.4m3.5 5.92c.43-.19.88-.32 1.33-.39.21-.04.41-.1.43-.26 0-.22-.08-.44-.2-.62-.26-.5-.52-1.02-.8-1.57-1.14-2.24-1.94-4.09-1.85-4.13.83 1.27 1.55 2.61 2.17 3.99l.77 1.59c.16.25.22.54.19.83q-.03.12-.12.21c-.06.06-.12.11-.2.14q-.18.06-.36.09c-.45.1-.92.14-1.38.12zm-3.78-9.24c-.06.24-.9.22-1.87.43-.97.22-1.74.57-1.89.38-.07-.1.05-.33.35-.57.4-.31.86-.53 1.35-.63.49-.11 1-.1 1.49.02.4.1.6.27.57.38zm7.77-.07c-.13.21-.73.07-1.42.13s-1.27.26-1.42.07c-.07-.09 0-.29.24-.5.32-.25.71-.4 1.11-.42.4-.03.81.06 1.16.26.28.17.38.36.32.46z"/>
    <path fill="#FFBE9D" d="M50.68 19.62c-.1-.03-3.85-.74-3.36 2.99s4.12 2.46 4.11 2.36c-.01-.11-.75-5.35-.75-5.35"/>
    <path fill="#EB996E" d="M50.11 23.7s-.06.05-.16.12c-.15.08-.32.11-.48.07-.26-.12-.48-.31-.65-.55-.16-.24-.26-.51-.28-.8-.05-.32-.03-.64.06-.95.02-.12.06-.24.14-.34.07-.1.17-.18.28-.23a.28.28 0 0 1 .22-.01c.07.02.14.07.18.14.07.1.05.18.07.18s.07-.07 0-.22a.37.37 0 0 0-.18-.21.52.52 0 0 0-.37-.05c-.14.06-.27.15-.37.26-.1.12-.17.26-.2.41-.12.35-.14.71-.09 1.07.03.33.15.65.35.91s.48.46.79.57c.1.01.21 0 .3-.03.1-.03.19-.08.26-.16.12-.09.12-.18.11-.18z"/>
    <path fill="#263238" d="M67.91 6.99a7 7 0 0 0-2.55-2.41c-2.18-1.36-4.72-2-7.28-1.82-2.57.2-4.96 1.4-6.66 3.33a10.45 10.45 0 0 0-2.33 5.57c-.21 2.04-.02 4.1.57 6.07.18.88.62 1.7 1.26 2.33.43.37 1.14.57 1.52.18.21-.26.33-.57.35-.91.43-2.96.82-6.13-.51-8.8a8.6 8.6 0 0 1 2.32-2.62c.47-.35 1.01-.6 1.59-.74.57-.14 1.17-.16 1.75-.07 1.7.34 2.9 1.86 4.33 2.85 1.04.7 2.22 1.15 3.47 1.3 1.24.15 2.5 0 3.67-.43l-1.48-3.84z"/>
    <path fill="#EB996E" d="M63.64 24.04c-.04.35-.14.7-.28 1.03-.07.16-.18.31-.31.43s-.29.21-.46.27c-.19.04-.38.03-.56-.02s-.35-.15-.48-.29c-.26-.28-.43-.63-.48-1.01-.06-.34 0-.77.34-.88q.21-.045.42 0l1.9.35-.09.14z"/>
    <path fill="#263238" d="M63.25 25.63c-.31.08-.63.11-.95.08-.33-.05-.63-.23-.84-.5-.12-.16-.21-.35-.25-.54q-.075-.3 0-.6c.02-.1.05-.2.1-.29s.04-.09.12-.09c.1.01.2.03.3.05l.31.06 1.08.18c.33.08.67.11 1.01.09a3 3 0 0 0-.96-.31c-.31-.08-.66-.16-1.07-.25l-.31-.07c-.11 0-.2-.05-.35-.06-.09 0-.18.01-.26.06a.6.6 0 0 0-.16.19c-.06.12-.1.24-.12.37-.05.24-.04.49.02.74.06.24.17.47.33.66.26.31.63.5 1.03.53.26.03.52 0 .76-.12.16-.09.23-.17.22-.18z"/>
    <path fill="#FFBE9D" d="m77.08 16 .88-.24 13.71 13.38 11.12 1.35s-.11-3.37-4.29-7.67c-3.75-3.85-12.47-8.41-15.42-10.77-.38-.32-.81-.58-1.28-.76l-4.72 4.72z"/>
    <path fill="#FFBE9D" d="m77.07 9.63-1.4-.4-3.31-1.57-3.76 1.41s.09 1.29 1.07.94l-3.94 1.31s.32.94.5 1-2.31.27-2.31.27 0 1.27 2.36 1.25 3.27-.43 3.27-.43l1.89.51-.07 1.14-2.58-.04.12 1.45c1.1.23 2.2.4 3.32.51 0 0 3.98.06 5.06-.47s2.45-1.27 2.45-1.27l2.06-3.95-4.73-1.65z"/>
    <path fill="#EB996E" d="M73.52 10.3s-.22-.07-.57-.23c-.46-.2-.91-.44-1.33-.71h.17l-.15.1c-.47.3-1 .5-1.55.57-.42.06-.68 0-.68 0 .72-.17 1.42-.44 2.08-.8l.14-.09.09-.06.09.06c.46.32.94.57 1.26.77s.49.37.47.39zm-1.21 2.01s-.26.09-.64-.07c-.38-.17-.81-.57-1.35-.8h.14c-.24.16-.5.31-.76.43-.67.32-1.39.5-2.12.52-.3.04-.61 0-.9-.1 1-.08 1.97-.32 2.9-.7.25-.12.49-.25.73-.41l.07-.04h.06c.61.31.97.73 1.31.9s.56.21.56.25zm3.52 1.24s-.29-.04-.74-.03c-.58 0-1.15.18-1.64.5-.32.21-.6.48-.81.8l-.03.05h-.05c-.44.13-.89.18-1.35.17.41-.21.84-.35 1.3-.42l-.09.06c.21-.37.51-.69.87-.92a2.88 2.88 0 0 1 1.81-.46c.49.06.75.22.73.25"/>
    <path fill="#EB996E" d="M79.74 15.22s-.07.06-.11.07l-.36.21-1.37.75c-.32.2-.67.36-1.04.47-.44.1-.89.18-1.33.22-.97.1-2.07.14-3.29.14l-1.48-.15a10 10 0 0 1-1.62-.28h-.06v-.07c-.08-.5-.16-1.04-.26-1.59l-.03-.16h.16l2.45.1-.15.13c0-.35.05-.74.07-1.14l.11.15-1.9-.51h.1c-.92.28-1.88.43-2.84.43-.5.03-1 0-1.49-.07-.27-.03-.53-.12-.76-.27-.23-.14-.43-.33-.59-.56-.09-.15-.14-.32-.15-.49v-.13h.14c.57-.05 1.18-.1 1.75-.17l.42-.06h.09v.03s-.03.04-.04.06v.07c0 .05.1.12.08.1a.24.24 0 0 1-.09-.06 1 1 0 0 1-.15-.22c-.13-.26-.25-.53-.34-.81l-.05-.14.14-.05 3.98-1.3.09.26c-.16.06-.33.08-.5.06a.72.72 0 0 1-.44-.26c-.19-.25-.3-.55-.32-.86v-.1l.1-.04 3.77-1.39h.09l3.3 1.59 1.38.4 1.2.43 1.91.7 1.2.44c.14.04.28.1.41.17-.14-.03-.29-.07-.43-.12l-1.22-.39-1.93-.64-1.2-.41-1.39-.38-3.32-1.56h.1l-3.76 1.42.09-.14c.01.25.1.5.26.7.08.08.19.14.3.16s.23 0 .34-.04l.09.27-3.94 1.31.09-.19c.09.26.2.52.32.76.02.05.05.1.09.14a.1.1 0 0 0-.03.07c.06-.15 0-.04.04-.07h.04s.04.05.05.09v.07c0 .02-.02.05-.04.06-.05.05-.03.03-.05.03h-.17l-.44.06c-.57.07-1.14.12-1.76.17l.13-.14c.01.12.05.23.11.34.13.19.3.34.5.46s.41.19.64.22c.47.08.95.1 1.43.07.92 0 1.84-.14 2.73-.4h.1l1.89.51h.11v.11c0 .39-.05.78-.07 1.14v.14h-.14l-2.45-.11.14-.15c.09.57.17 1.1.24 1.6l-.07-.09c.51.13 1.02.22 1.54.27l1.47.17c1.21 0 2.31 0 3.27-.09q.66-.045 1.32-.18c.36-.1.7-.25 1.02-.43l1.4-.7.37-.17c-.06-.01-.02-.03-.02-.02z"/>
    <path fill="#EB996E" d="M74.99 10.93c-.36.61-.86 1.12-1.46 1.49-.55.45-1.19.75-1.88.9-.03-.08.8-.48 1.7-1.14.91-.66 1.57-1.31 1.64-1.25"/>
    <path d="m102.67 30.07-11-.93L78.7 34.1l-2.84 1.75 4.04 13.93s20.33-12.03 21.19-13.06c.78-.9 1.32-1.97 1.6-3.13s.27-2.36-.02-3.52" class="dynamic-color"/>
    <path fill="#BED830" d="m43.93 40.31-3.78 2.36 8.74 34.55-1.58 19.92c2.27 1.97 7.95 3.67 18.74 3.05s17.99-5.34 17.99-5.34l-1.03-20.49-2.46-23.12-2.75-15.81-8.32.6-3.24-1.93-1.45.73-1.86 5.19-4.85-3.53-5.68-2.74-2.07 3.89-6.38 2.66z" class="dynamic-color"/>
    <path fill="#263238" d="M77.79 39.46c.12.25.22.5.3.76.18.5.41 1.23.68 2.15.69 2.38 1.26 4.79 1.7 7.22.43 2.44.73 4.89.9 7.36.06.95.09 1.71.1 2.24.03.28.03.55 0 .83-.05-.27-.09-.55-.1-.82-.05-.57-.11-1.33-.19-2.23-.18-1.88-.48-4.48-.98-7.33-.51-2.84-1.11-5.39-1.59-7.22-.23-.87-.43-1.6-.57-2.17a3.7 3.7 0 0 1-.24-.8zm-16.42.27c-.28-.05-.54-.15-.78-.29-.67-.36-1.26-.86-1.7-1.48l.2-.06c-.12 1.7-.46 3.38-1.02 4.99l-.06.18-.16-.11-.4-.28c-1.96-1.35-3.72-2.59-4.99-3.5l-1.49-1.09c-.19-.12-.37-.27-.52-.43.2.09.39.2.57.34l1.54 1.02c1.3.86 3.08 2.08 5.03 3.42l.4.27-.23.07c.55-1.59.91-3.24 1.07-4.91v-.31l.18.25c.42.61.97 1.12 1.6 1.5.49.28.77.38.76.41zm7.77-3.07c-.56.75-1.18 1.45-1.85 2.11l-.1.11-.1-.11q-.57-.675-1.23-1.26c-.24-.21-.47-.4-.7-.57l-.35-.26s-.05-.01-.08-.01l-.05.09-.53 1.36q-.21.645-.57 1.23c.07-.45.19-.88.36-1.3.15-.43.31-.89.47-1.38.02-.05.04-.1.07-.14s.08-.08.12-.1c.06-.02.11-.02.17-.01.06 0 .11.03.16.07l.36.26c.24.18.49.38.73.57.45.4.87.84 1.25 1.31h-.2c.64-.7 1.33-1.34 2.06-1.93z"/>
    <path fill="#455A64" d="m13.99 98.85.21-.51c.44-1.1 1.42-1.75 2.18-1.43l34.39 14.05c.17.07.23.32.13.57l-1.47 3.62c-.1.25-.32.39-.49.32l-34.39-14.08c-.76-.31-1.02-1.45-.57-2.53z"/>
    <path fill="#FFBE9D" d="m46.1 59.04-4.14 13.75 2.07 28.02-6.1.77s-6.99-23.84-6.29-28.15 3.54-16.88 3.54-16.88l10.91 2.5z"/>
    <path fill="#FFBE9D" d="m44.03 100.61 2.84 4.87 1.77 4.56-2.65-1.04s-1.14 5.51-1.6 5.65-1.74-.3-1.61-1.36c-.19.18-.42.32-.67.41-.25.08-.52.11-.78.07-.81-.17-1-.69-.91-1.71 0 0-.94.76-1.5.29-.17-.17-.31-.38-.39-.6-.09-.23-.13-.47-.11-.71 0 0-1.22.1-1.39-.53-.18-1.04-.2-2.1-.07-3.15.14-.7.73-3.53.73-3.53l.27-2.28 6.06-.95z"/>
    <path d="M43.36 110.12c-.22.5-.37 1.02-.43 1.56-.14.53-.2 1.07-.18 1.61.22-.5.37-1.02.43-1.56q.21-.795.18-1.62z"/>
    <path fill="#EB996E" d="M40.87 109.48c-.21.38-.34.81-.38 1.24-.13.42-.17.86-.13 1.3.2-.39.33-.81.38-1.25.12-.42.17-.86.13-1.29m-2.08-.58c-.12.35-.19.71-.19 1.08-.1.57-.25 1.06-.18 1.08.25-.29.4-.66.43-1.04.09-.37.07-.76-.06-1.12m7.38-1.49q-.33.735-.45 1.53c-.16.51-.26 1.04-.3 1.57.27-.46.46-.97.54-1.51.17-.51.24-1.05.21-1.59"/>
    <path d="M31.31 82.68c0-.47-1.91-7-1.33-10.38s7.51-26.25 8.44-27.88c.73-1.1 1.76-1.97 2.96-2.52 1.34.73 2.51 1.72 3.46 2.91a11.2 11.2 0 0 1 2.05 4.04c1.39 5.02 1.39 11.31 1.39 11.31l-5.57 13.88.66 7.89-12.07.75z" class="dynamic-color"/>
    <path fill="#263238" d="M47.94 59.71c-.06 0 .05-1.03 0-2.67-.03-.96-.13-1.91-.28-2.85-.36-2.33-1.07-4.59-2.11-6.7-.42-.86-.9-1.7-1.42-2.5-.9-1.38-1.57-2.15-1.53-2.19.18.15.35.33.5.52.42.48.82 1 1.18 1.53.55.8 1.05 1.63 1.49 2.5a21.86 21.86 0 0 1 2.36 9.7c0 .65-.02 1.31-.1 1.96 0 .24-.04.48-.09.71zm-.36 2.9q-.21.885-.57 1.71c-.4 1.06-1.01 2.49-1.7 4.05l-1.79 3.99c-.22.57-.48 1.12-.77 1.65q.21-.885.57-1.71c.4-1.06 1.01-2.49 1.7-4.05l1.8-3.99c.22-.57.48-1.12.77-1.65zm-4.54 11.97a26.5 26.5 0 0 0-3.82-1.67c-1.35-.35-2.72-.6-4.1-.72.41-.09.82-.11 1.24-.07 1 .05 1.99.22 2.95.51s1.88.7 2.74 1.22c.37.19.7.44.99.74z"/>
    <path fill="#fff" d="M79.32 113.9c.05.06-4.42 3.99-10 8.79s-10.14 8.63-10.19 8.56 4.42-3.99 10-8.79c5.58-4.79 10.14-8.63 10.19-8.56m5.76 0c.06.06-3.71 3.42-8.42 7.47s-8.56 7.31-8.62 7.25 3.72-3.42 8.42-7.47 8.57-7.31 8.62-7.25"/>
    <path fill="#263238" d="M93.56 121.92s0-.12-.03-.36-.03-.6-.07-1.07c0-.23 0-.5-.05-.78-.05-.29-.09-.6-.14-.94s-.11-.7-.17-1.09-.19-.79-.29-1.22c-.52-2.1-1.36-4.1-2.48-5.95-1.46-2.46-3.38-4.6-5.65-6.33l-.96-.72c-.34-.22-.69-.42-1.05-.64-.35-.22-.7-.46-1.08-.63l-1.14-.57-.57-.28-.62-.22-1.25-.46c-.43-.14-.87-.23-1.31-.35-.44-.13-.89-.23-1.35-.31-.93-.17-1.86-.28-2.81-.32-.48 0-.96-.06-1.45-.06l-1.47.08c-.25 0-.5 0-.74.05l-.74.11c-.49.09-1 .14-1.49.24-1 .23-1.99.52-2.96.87-.99.36-1.96.79-2.89 1.28-.47.26-.92.57-1.39.83-.23.15-.47.27-.68.43l-.65.5a20.3 20.3 0 0 0-4.73 4.75l-.51.68-.45.74-.44.74c-.16.24-.3.5-.41.76l-.75 1.57c-.2.57-.4 1.1-.6 1.65-1.53 4.56-1.53 9.5 0 14.06.2.57.4 1.1.6 1.65s.51 1.05.76 1.57l.19.39.23.37.44.74.45.74.51.68c.66.9 1.39 1.76 2.16 2.56.79.77 1.63 1.49 2.52 2.15l.65.49c.22.17.46.29.69.43.47.27.91.57 1.38.83.94.49 1.9.92 2.9 1.28.97.36 1.95.65 2.96.87.49.1 1 .16 1.49.25l.74.11c.25.03.49.03.74.05l1.47.08c.49 0 .97-.04 1.45-.06.94-.04 1.88-.15 2.81-.32.45-.07.9-.18 1.35-.31.44-.12.89-.21 1.31-.35l1.25-.46.62-.22.57-.28 1.14-.57c.39-.18.73-.43 1.08-.63.36-.21.7-.42 1.05-.64l.96-.72c2.27-1.73 4.19-3.88 5.65-6.33 1.13-1.83 1.97-3.82 2.51-5.91.1-.43.24-.83.29-1.22s.12-.75.17-1.09.11-.65.14-.94.03-.57.05-.79c.03-.46.06-.81.07-1.06 0-.24.03-.36.03-.36v.36c0 .24 0 .61-.04 1.07 0 .24-.01.5-.03.79 0 .29-.08.6-.12.94l-.16 1.1c-.07.42-.17.83-.28 1.23-.5 2.12-1.32 4.14-2.44 6.01a22.2 22.2 0 0 1-5.68 6.41l-.97.73c-.34.22-.7.43-1.05.65s-.7.46-1.09.65l-1.16.57-.57.28-.62.23-1.26.46c-.43.15-.87.24-1.32.36-.44.14-.9.24-1.36.31-.94.18-1.89.29-2.84.34-.49 0-.97.07-1.47.06l-1.49-.07c-.24 0-.5 0-.75-.05l-.75-.11c-.5-.09-1.01-.14-1.51-.25a23 23 0 0 1-2.99-.88q-1.515-.54-2.94-1.29c-.47-.26-.93-.57-1.4-.83-.23-.15-.48-.27-.7-.44l-.64-.51c-.9-.67-1.75-1.39-2.55-2.17-.79-.82-1.53-1.69-2.2-2.61l-.52-.69-.45-.75-.45-.75-.23-.37-.19-.4-.78-1.59-.61-1.67a22.45 22.45 0 0 1 0-14.26l.61-1.66c.26-.53.51-1.06.76-1.59.12-.27.26-.52.42-.77l.45-.75.45-.74.52-.69c.68-.92 1.41-1.79 2.2-2.61.8-.78 1.65-1.51 2.55-2.17l.66-.5c.22-.16.45-.31.69-.44.47-.27.93-.57 1.4-.83q1.425-.75 2.94-1.29c.98-.36 1.98-.65 2.99-.88.51-.1 1.01-.16 1.51-.24l.75-.11c.25-.03.5-.03.75-.05l1.49-.07c.49 0 .98.05 1.46.06.95.04 1.9.16 2.84.34.46.08.91.18 1.36.31.44.12.89.22 1.32.36l1.26.46.62.23.57.29 1.14.57c.38.19.74.41 1.1.64.35.22.71.43 1.05.65l.97.73c2.29 1.75 4.22 3.93 5.68 6.41 1.12 1.86 1.94 3.89 2.44 6.01.1.43.24.84.28 1.23.05.39.11.76.16 1.1s.1.66.12.94c.02.29 0 .57.03.79 0 .46 0 .82.04 1.07s.04.36.04.36z"/>
    <path fill="#263238" d="M85.31 133.82c.17-.27.36-.52.57-.76.52-.68.99-1.4 1.42-2.14 1.44-2.44 2.33-5.16 2.63-7.98.29-2.82-.02-5.67-.92-8.35-.27-.81-.59-1.61-.95-2.39a7 7 0 0 1-.39-.86s.06.06.14.2c.09.14.21.34.35.61a19.1 19.1 0 0 1 2.07 10.82c-.3 2.86-1.23 5.61-2.73 8.06-.45.74-.96 1.44-1.51 2.11-.19.23-.36.4-.47.52s-.19.17-.2.17zm-1.17 2.05c.04.07-.14.25-.39.4-.26.15-.5.21-.54.14s.14-.25.39-.4c.26-.15.5-.21.54-.14"/>
    <path fill="#fff" d="M54.85 131.52c-.06-.08-.1-.17-.14-.27-.08-.18-.2-.44-.34-.79-.38-.99-.68-2.01-.9-3.05-.75-3.44-.66-7.02.26-10.42s2.63-6.53 5-9.13c.71-.79 1.48-1.52 2.31-2.18.28-.24.53-.4.69-.52s.24-.17.26-.16-.31.28-.87.77c-.79.69-1.53 1.43-2.23 2.23-2.3 2.6-3.97 5.71-4.88 9.07a22.7 22.7 0 0 0-.33 10.3c.21 1.03.48 2.05.82 3.04.22.71.37 1.1.35 1.1zm13.19-27.96a6.1 6.1 0 0 1-2.65.22c.41-.18.86-.27 1.31-.26.44-.08.9-.07 1.34.04"/>
    <path fill="#455A64" d="M71.26 146.34c-6.2 0-12.17-2.32-16.75-6.51a24.97 24.97 0 0 1-2.97-33.5c3.76-4.94 9.24-8.29 15.34-9.38s12.39.15 17.62 3.49 9.03 8.52 10.64 14.53.93 12.41-1.92 17.93a24.8 24.8 0 0 1-13.48 11.92c-2.72 1-5.59 1.52-8.49 1.52zm.05-45.71c-2.9 0-5.76.6-8.42 1.78a20.88 20.88 0 0 0-11.34 12.49c-.92 2.76-1.26 5.68-.99 8.58s1.13 5.71 2.55 8.25c1.41 2.54 3.33 4.76 5.65 6.51 2.31 1.75 4.97 3 7.79 3.67 2.82.66 5.75.73 8.6.19 3.25-.62 6.31-2.01 8.92-4.04 2.61-2.04 4.71-4.67 6.11-7.68a21.1 21.1 0 0 0 1.9-10.2 20.95 20.95 0 0 0-10.76-16.96 20.9 20.9 0 0 0-10.01-2.59"/>
</svg>
