<svg xmlns="http://www.w3.org/2000/svg" fill="none" viewBox="0 0 184 184">
    <path fill="#BED830" d="M177.736 63.639c-6.664 29.273-13.944 65.587-39.055 88.636-9.884 9.066-20.773 13.945-30.342 16.535a81.3 81.3 0 0 1-20.27 2.779c-3.822.025-6.11-.264-6.11-.264s-.868-.075-2.465-.339c-3.722-.629-11.38-2.352-20.962-6.841-8.94-4.162-19.54-10.738-30.165-21.062-26.86-26.117-31.273-68.442-9.544-91.603C36.25 32.895 45.656 30.896 64.505 26.847c.528-.101 1.056-.227 1.597-.327.302-.076.616-.139.943-.214h.063c.516-.113 1.044-.227 1.572-.34.075-.025.15-.037.213-.05.353-.075.717-.15 1.07-.239.314-.063.616-.126.93-.201.239-.05.478-.113.73-.163 2.174-.49 4.488-1.019 6.94-1.623.428-.113.868-.213 1.308-.327.176-.05.365-.087.553-.138a68 68 0 0 0 3.823-1.069 6 6 0 0 0 .452-.138 66 66 0 0 0 3.043-1.006c.466-.163.93-.327 1.396-.503.83-.302 1.635-.616 2.427-.943.025 0 .05 0 .075-.025a1 1 0 0 0 .088-.038c.126-.05.24-.1.365-.15.302-.127.604-.252.905-.39.05-.013.101-.026.151-.063.151-.05.302-.126.453-.189.34-.15.679-.29 1.019-.453.062-.025.113-.05.175-.075.114-.05.24-.1.353-.151 3.395-1.56 6.526-3.219 9.481-4.891a.2.2 0 0 0 .088-.05.5.5 0 0 0 .113-.064c14.611-8.236 25.048-16.547 41.822-11.48 24.658 7.432 37.748 32.832 31.083 62.105z" class="dynamic-color" opacity=".15"/>
    <path fill="#263238" d="M111.181 128.799c-.264 6.186-1.71 25.224-2.842 40.011a81.3 81.3 0 0 1-20.27 2.779c.214-15.051.591-38.641.591-38.641s-5.935 23.678-9.166 38.038c-3.722-.629-11.38-2.352-20.962-6.841.855-6.4 1.886-13.819 2.917-21.062.026-.213.063-.44.088-.654.013-.012 0-.012 0-.012.277-1.874.541-3.735.793-5.558.289-1.911.553-3.772.804-5.583.49-3.307.943-6.4 1.346-9.141v-.063c1.056-7.155 1.773-11.984 1.773-11.984l25.148-.804.843-.038 13.731-.44h.063l1.572-.051h.264l.943-.037s1.144 4.791 1.861 10.537c.377 3.106.628 6.488.503 9.544"/>
    <path fill="#455A64" d="M106.013 109.045a7.8 7.8 0 0 1 0-3.068 7.45 7.45 0 0 1 0 3.068m1.773.817a5.78 5.78 0 0 1 .327-3.873 14 14 0 0 1-.189 1.937c0 .653-.05 1.295-.138 1.936m-15.906-3.206a1.73 1.73 0 0 0-.906.515 1.2 1.2 0 0 0-.264.478c-.05.176-.063.365-.038.541.063.201.176.39.34.54a1.2 1.2 0 0 0 1.194.227 1.07 1.07 0 0 0 .503-.378c.088-.163.151-.326.164-.515.012-.189 0-.365-.063-.541a1.65 1.65 0 0 0-.654-.805s.126.001.302.076c.251.151.452.377.553.641.088.201.126.428.126.642 0 .226-.076.44-.176.628a1.56 1.56 0 0 1-.63.516c-.25.1-.54.138-.804.088a1.3 1.3 0 0 1-.717-.377 1.43 1.43 0 0 1-.402-.705c-.025-.226 0-.44.063-.653a1.35 1.35 0 0 1 .352-.554c.201-.213.465-.352.755-.39.2-.025.301.026.301.038z"/>
    <path fill="#263238" d="M69.975 7.596c.138-2.49 1.66-4.024 3.797-5.294a7.8 7.8 0 0 1 3.534-1.044 7.8 7.8 0 0 1 3.608.717c1.497.717 2.817 1.936 4.452 2.15 2.716.352 5.28-2.15 7.934-1.547a3.5 3.5 0 0 1 1.987 1.308 3.6 3.6 0 0 1 .716 2.276 3.55 3.55 0 0 1-2.955 3.37c1.774.264 2.78 2.515 2.138 4.187s-2.515 2.653-4.288 2.691a9.96 9.96 0 0 1-5.067-1.597c-1.547-.905-3.005-2-4.627-2.766a7.65 7.65 0 0 0-5.206-.767c-2.352.629-4.011 2.867-4.627 5.206-.604 2.338-.353 4.853 0 7.267.352 2.415.83 4.842.603 7.281a.9.9 0 0 1-.34.717c-.352.201-.766-.139-1.03-.453A36 36 0 0 1 63.9 19.101c-.817-2.578-1.27-5.105-.289-7.632C64.593 8.94 67.9 6.539 70 7.57z"/>
    <path fill="#FFBE9D" d="m67.661 19.617 3.961 24.582c.717 4.59 3.71 9.029 10.89 7.532 6.123-1.785 5.67-6.211 4.866-11.669 0 0 6.74-1.76 6.136-8.65-.29-3.333-1.434-10.136-2.565-16.272a12.87 12.87 0 0 0-4.904-7.972 12.8 12.8 0 0 0-8.978-2.515l-.667.063c-7.079 1.17-10.072 7.809-8.739 14.888z"/>
    <path fill="#EB996E" d="M87.378 40.062a16.44 16.44 0 0 1-9.167-1.748s2.69 5.105 9.443 3.798l-.276-2.062z"/>
    <path fill="#263238" d="M89.616 21.176a.98.98 0 0 1-.201.717.96.96 0 0 1-.642.364 1 1 0 0 1-.377 0 .8.8 0 0 1-.34-.15.9.9 0 0 1-.25-.277.9.9 0 0 1-.127-.352.98.98 0 0 1 .202-.717.96.96 0 0 1 .64-.365 1 1 0 0 1 .378 0 .8.8 0 0 1 .34.151c.1.076.188.164.251.277.063.1.113.226.126.352m.214-2.503c-.114.139-.906-.34-1.962-.226-1.044.113-1.773.717-1.899.59-.125-.125.038-.288.352-.578a2.7 2.7 0 0 1 1.51-.64 2.54 2.54 0 0 1 1.571.339c.352.213.478.427.428.49zm-9.796 4.012a.98.98 0 0 1-.201.716.96.96 0 0 1-.641.365 1 1 0 0 1-.377 0 .8.8 0 0 1-.34-.15.9.9 0 0 1-.251-.277.9.9 0 0 1-.126-.353.98.98 0 0 1 .201-.716.96.96 0 0 1 .641-.365 1 1 0 0 1 .377 0 .8.8 0 0 1 .34.15c.1.076.189.164.252.278a.9.9 0 0 1 .125.352m-.327-2.767c-.113.138-.905-.34-1.961-.226-1.044.113-1.773.716-1.899.603s.038-.289.352-.578a2.7 2.7 0 0 1 1.509-.641 2.56 2.56 0 0 1 1.572.339c.352.214.478.44.427.503m4.401 7.444a6.7 6.7 0 0 1 1.673-.49c.264-.05.515-.126.54-.327 0-.277-.1-.553-.251-.78-.327-.628-.654-1.282-1.006-1.974-1.433-2.816-2.44-5.143-2.326-5.193a36.5 36.5 0 0 1 2.728 5.017l.969 2c.2.314.276.679.239 1.043a.56.56 0 0 1-.151.264.7.7 0 0 1-.252.176q-.226.075-.453.114a6.7 6.7 0 0 1-1.735.15zm-4.753-11.618c-.075.301-1.132.276-2.351.54-1.22.277-2.188.717-2.377.478-.088-.126.063-.415.44-.717a4.1 4.1 0 0 1 1.698-.792 4.1 4.1 0 0 1 1.873.025c.503.126.755.34.717.478zm9.77-.088c-.163.264-.918.088-1.785.163-.868.075-1.597.327-1.786.088-.088-.113 0-.365.302-.629a2.5 2.5 0 0 1 1.396-.528 2.57 2.57 0 0 1 1.459.327c.352.214.477.453.402.579z"/>
    <path fill="#FFBE9D" d="M68.73 24.659c-.126-.038-4.841-.931-4.225 3.76s5.18 3.093 5.168 2.967c-.013-.139-.943-6.727-.943-6.727"/>
    <path fill="#EB996E" d="M68.013 29.789s-.075.063-.201.15a.85.85 0 0 1-.604.089 2.07 2.07 0 0 1-.817-.692 2.06 2.06 0 0 1-.352-1.006 2.7 2.7 0 0 1 .076-1.194.9.9 0 0 1 .175-.428.9.9 0 0 1 .353-.289.35.35 0 0 1 .276-.012.4.4 0 0 1 .227.175c.088.126.062.227.088.227s.088-.088 0-.277a.47.47 0 0 0-.227-.264.66.66 0 0 0-.465-.063 1.4 1.4 0 0 0-.465.327 1.2 1.2 0 0 0-.252.516 2.9 2.9 0 0 0-.113 1.345c.038.415.189.818.44 1.145.252.326.604.578.993.716.126.013.265 0 .378-.038a.7.7 0 0 0 .327-.2c.15-.114.15-.227.138-.227z"/>
    <path fill="#263238" d="M90.396 8.777a8.8 8.8 0 0 0-3.207-3.03 15.25 15.25 0 0 0-9.154-2.288 12.46 12.46 0 0 0-8.374 4.187 13.14 13.14 0 0 0-2.93 7.004 19.6 19.6 0 0 0 .716 7.632 5.74 5.74 0 0 0 1.585 2.93c.54.465 1.433.717 1.911.226.264-.326.415-.716.44-1.144.54-3.722 1.031-7.708-.641-11.065a10.8 10.8 0 0 1 2.917-3.295 5.5 5.5 0 0 1 2-.93 5.6 5.6 0 0 1 2.2-.088c2.138.427 3.647 2.339 5.445 3.583a9.9 9.9 0 0 0 4.363 1.635c1.56.189 3.143 0 4.615-.54l-1.861-4.83z"/>
    <path fill="#EB996E" d="M85.026 30.217c-.05.44-.176.88-.352 1.295a1.65 1.65 0 0 1-.39.54 1.7 1.7 0 0 1-.578.34 1.5 1.5 0 0 1-.704-.025 1.3 1.3 0 0 1-.604-.365 2.3 2.3 0 0 1-.603-1.27c-.076-.427 0-.968.427-1.106q.264-.057.528 0l2.39.44-.114.176z"/>
    <path fill="#263238" d="M84.536 32.216c-.39.1-.792.138-1.195.1a1.66 1.66 0 0 1-1.056-.628 1.8 1.8 0 0 1-.314-.68 1.5 1.5 0 0 1 0-.754c.025-.126.063-.251.126-.365.062-.113.05-.113.15-.113.126.013.252.038.378.063l.39.076 1.357.226c.415.1.843.138 1.27.113a3.8 3.8 0 0 0-1.207-.39c-.39-.1-.83-.2-1.345-.314l-.39-.088c-.138 0-.251-.063-.44-.075a.6.6 0 0 0-.327.075.7.7 0 0 0-.201.239c-.076.15-.126.302-.151.465a2.1 2.1 0 0 0 .025.93c.076.302.214.592.415.83.327.39.792.63 1.295.667.327.038.654 0 .956-.151.201-.113.29-.214.276-.226z"/>
    <path fill="#FFBE9D" d="m101.926 20.107 1.107-.302 17.239 16.824 13.982 1.698s-.138-4.238-5.394-9.644c-4.715-4.842-15.68-10.575-19.389-13.543a5.6 5.6 0 0 0-1.61-.956l-5.935 5.935z"/>
    <path fill="#FFBE9D" d="m101.914 12.097-1.761-.503-4.162-1.974-4.728 1.773s.113 1.622 1.346 1.182l-4.955 1.647s.403 1.182.629 1.257c.226.076-2.905.34-2.905.34s0 1.597 2.968 1.571c2.967-.025 4.112-.54 4.112-.54l2.376.641-.088 1.434-3.244-.05.15 1.823c1.384.289 2.767.503 4.176.64 0 0 5.004.076 6.362-.59 1.358-.667 3.081-1.597 3.081-1.597l2.59-4.967-5.947-2.075z"/>
    <path fill="#EB996E" d="M97.45 12.94s-.277-.088-.717-.29a12 12 0 0 1-1.672-.892h.213l-.188.125a4.75 4.75 0 0 1-1.95.717c-.527.076-.854 0-.854 0a10.5 10.5 0 0 0 2.615-1.006l.176-.113.113-.075.113.075c.579.402 1.182.717 1.585.968.402.252.616.466.59.49zm-1.522 2.527s-.327.113-.805-.088c-.477-.214-1.018-.717-1.697-1.006h.176a7 7 0 0 1-.956.54 6.6 6.6 0 0 1-2.665.654c-.378.05-.767 0-1.132-.125 1.257-.1 2.477-.403 3.646-.88.315-.151.617-.315.918-.516l.088-.05h.076c.767.39 1.22.918 1.647 1.131.428.214.704.264.704.315zm4.426 1.559s-.364-.05-.93-.038a3.8 3.8 0 0 0-2.062.63 3.5 3.5 0 0 0-1.019 1.005l-.038.063h-.063a5.5 5.5 0 0 1-1.697.214 5.3 5.3 0 0 1 1.635-.528l-.114.075a3.3 3.3 0 0 1 1.094-1.157 3.62 3.62 0 0 1 2.276-.578c.616.075.943.276.918.314"/>
    <path fill="#EB996E" d="M105.271 19.126s-.088.076-.138.088l-.453.264-1.723.943a5.3 5.3 0 0 1-1.307.591c-.554.126-1.12.227-1.673.277-1.22.126-2.603.176-4.137.176l-1.86-.189a12.3 12.3 0 0 1-2.038-.352h-.075v-.088c-.1-.628-.202-1.307-.327-2l-.038-.2h.201l3.081.126-.189.163c0-.44.063-.93.088-1.434l.139.19-2.39-.642h.126c-1.157.352-2.364.54-3.57.54a9.3 9.3 0 0 1-1.874-.088 2.2 2.2 0 0 1-.956-.34 2.5 2.5 0 0 1-.742-.703 1.36 1.36 0 0 1-.188-.616v-.164h.175c.717-.063 1.484-.126 2.201-.214l.528-.075h.113v.038s-.037.05-.05.075v.088c0 .063.126.151.1.126a.3.3 0 0 1-.112-.075 1.1 1.1 0 0 1-.19-.277 7 7 0 0 1-.427-1.019l-.063-.176.177-.063 5.004-1.634.113.327c-.201.075-.415.1-.629.075a.9.9 0 0 1-.553-.327 2 2 0 0 1-.402-1.081v-.126l.126-.05 4.74-1.748h.113l4.15 2 1.735.502 1.509.54 2.402.881 1.509.553c.176.05.352.126.515.214a4 4 0 0 1-.541-.15l-1.534-.491-2.427-.805-1.508-.515-1.748-.478-4.175-1.962h.126l-4.728 1.786.113-.176c.013.314.126.628.327.88.1.1.239.176.377.201.139.025.29 0 .428-.05l.113.34-4.954 1.646.113-.238c.113.326.251.653.402.955a.5.5 0 0 0 .113.176.11.11 0 0 0-.037.088c.075-.188 0-.05.05-.088h.05s.05.063.063.113v.088c0 .026-.025.063-.05.076-.063.063-.038.038-.063.038h-.214l-.553.075c-.717.088-1.433.15-2.213.214l.163-.176c.013.15.063.289.139.427.163.24.377.428.628.579.252.15.516.239.805.276a7.8 7.8 0 0 0 1.798.088 12.3 12.3 0 0 0 3.433-.503h.126l2.376.642h.139v.138c0 .49-.063.98-.088 1.433v.177h-.177l-3.08-.139.176-.188c.113.716.214 1.383.302 2.011l-.088-.113c.64.164 1.282.277 1.936.34l1.849.214c1.521 0 2.904 0 4.111-.114a12.5 12.5 0 0 0 1.66-.226 5.8 5.8 0 0 0 1.283-.54l1.76-.88.465-.215c-.075-.012-.025-.037-.025-.025z"/>
    <path fill="#EB996E" d="M99.298 13.731a5.46 5.46 0 0 1-1.836 1.874 5.6 5.6 0 0 1-2.364 1.132c-.037-.1 1.006-.604 2.138-1.434 1.144-.83 1.974-1.647 2.062-1.572"/>
    <path fill="#BED830" d="m134.104 37.799-13.832-1.17-16.309 6.237-3.571 2.2 5.08 17.517s25.564-15.127 26.645-16.422a9.3 9.3 0 0 0 2.012-3.936 9.26 9.26 0 0 0-.025-4.426" class="dynamic-color"/>
    <path fill="#BED830" d="m60.242 50.675-4.753 2.967 10.99 43.445-1.986 25.048c2.854 2.477 9.996 4.614 23.564 3.835 13.567-.78 22.621-6.715 22.621-6.715l-1.295-25.765-3.094-29.071-3.458-19.88-10.461.754-4.074-2.427-1.824.918-2.338 6.526-6.099-4.439-7.142-3.445-2.603 4.892-8.023 3.344z" class="dynamic-color"/>
    <path fill="#263238" d="M102.819 49.606c.151.314.277.629.377.956.226.628.516 1.546.855 2.703a90 90 0 0 1 2.138 9.079 88 88 0 0 1 1.131 9.254c.076 1.195.114 2.15.126 2.817.038.352.038.692 0 1.044a7 7 0 0 1-.126-1.031c-.062-.717-.138-1.673-.238-2.804a121 121 0 0 0-1.233-9.217 120 120 0 0 0-1.999-9.08c-.289-1.093-.541-2.01-.717-2.728a4.7 4.7 0 0 1-.302-1.006zm-20.647.34a3 3 0 0 1-.981-.365 6.2 6.2 0 0 1-2.138-1.86l.252-.076a24.3 24.3 0 0 1-1.283 6.274l-.075.227-.201-.139-.503-.352a428 428 0 0 1-6.275-4.4l-1.873-1.372a3.4 3.4 0 0 1-.654-.54c.251.113.49.251.716.427l1.937 1.283c1.635 1.081 3.873 2.615 6.325 4.3l.503.34-.29.088a26.7 26.7 0 0 0 1.346-6.174v-.39l.226.315a6.55 6.55 0 0 0 2.012 1.886c.616.352.968.477.956.515zm9.77-3.861a23 23 0 0 1-2.326 2.653l-.126.139-.126-.139a15 15 0 0 0-1.546-1.584 14 14 0 0 0-.88-.717l-.44-.327s-.064-.012-.101-.012l-.063.113-.666 1.71a7.2 7.2 0 0 1-.717 1.547 7.3 7.3 0 0 1 .452-1.635c.189-.54.39-1.12.591-1.735.026-.063.05-.126.088-.176s.101-.1.151-.126a.4.4 0 0 1 .214-.013c.075 0 .138.038.201.088l.453.327c.302.227.616.478.918.717a14 14 0 0 1 1.572 1.647h-.252a23.6 23.6 0 0 1 2.59-2.427z"/>
    <path fill="#455A64" d="m22.595 124.285.264-.641c.553-1.384 1.786-2.201 2.741-1.799l43.243 17.667c.214.088.29.403.164.717l-1.849 4.552c-.126.314-.402.49-.616.402L23.3 127.479c-.956-.39-1.282-1.824-.717-3.182z"/>
    <path fill="#FFBE9D" d="m62.97 74.227-5.205 17.29 2.603 35.232-7.67.969s-8.79-29.978-7.91-35.397c.88-5.42 4.452-21.225 4.452-21.225l13.718 3.143z"/>
    <path fill="#FFBE9D" d="m60.368 126.498 3.571 6.124 2.226 5.734-3.332-1.308s-1.434 6.928-2.012 7.104-2.188-.377-2.025-1.71a2.4 2.4 0 0 1-.842.516c-.315.1-.654.138-.98.088-1.02-.214-1.258-.868-1.145-2.15 0 0-1.182.955-1.886.364a2.1 2.1 0 0 1-.49-.754 2 2 0 0 1-.139-.893s-1.534.126-1.748-.666a13.5 13.5 0 0 1-.088-3.961c.176-.881.918-4.439.918-4.439l.34-2.867 7.62-1.195z"/>
    <path fill="#EB996E" d="M56.395 137.651a4 4 0 0 0-.478 1.559 4.2 4.2 0 0 0-.164 1.635 4.6 4.6 0 0 0 .478-1.572 4.4 4.4 0 0 0 .164-1.622m-2.615-.729c-.152.44-.24.893-.24 1.358-.126.717-.314 1.333-.226 1.358.314-.365.503-.83.54-1.308a2.44 2.44 0 0 0-.075-1.408m9.28-1.874a7.4 7.4 0 0 0-.566 1.924 8.8 8.8 0 0 0-.377 1.974c.34-.578.578-1.22.679-1.899.214-.641.302-1.32.264-1.999"/>
    <path fill="#BED830" d="M44.374 103.952c0-.591-2.402-8.802-1.673-13.052s9.444-33.008 10.613-35.057a8.93 8.93 0 0 1 3.722-3.169 14.35 14.35 0 0 1 4.35 3.66 14.1 14.1 0 0 1 2.578 5.08c1.748 6.311 1.748 14.22 1.748 14.22l-7.004 17.454.83 9.921-15.177.943z" class="dynamic-color"/>
    <path fill="#263238" d="M65.285 75.069c-.076 0 .063-1.295 0-3.357a28 28 0 0 0-.352-3.584 29.1 29.1 0 0 0-2.654-8.425 30 30 0 0 0-1.785-3.143c-1.132-1.735-1.974-2.704-1.924-2.754.226.189.44.415.629.654a20 20 0 0 1 1.483 1.924 27 27 0 0 1 1.874 3.143 27.5 27.5 0 0 1 2.968 12.197c0 .818-.026 1.647-.126 2.465 0 .302-.05.604-.113.893zm-.453 3.647a12.7 12.7 0 0 1-.717 2.15c-.503 1.333-1.27 3.13-2.137 5.092l-2.251 5.018a17 17 0 0 1-.968 2.074q.264-1.113.716-2.15c.503-1.333 1.27-3.13 2.138-5.093l2.263-5.017c.277-.716.604-1.408.968-2.074zm-5.709 15.051a33 33 0 0 0-4.803-2.1 31.4 31.4 0 0 0-5.156-.905 5 5 0 0 1 1.56-.088c1.257.063 2.502.276 3.709.64 1.207.366 2.364.881 3.445 1.535.466.239.88.553 1.245.93z"/>
    <path fill="#fff" d="M104.743 143.209c.063.076-5.558 5.017-12.574 11.053-7.017 6.036-12.75 10.852-12.814 10.764-.063-.088 5.558-5.018 12.575-11.053 7.016-6.023 12.75-10.852 12.813-10.764m7.243 0c.075.075-4.666 4.3-10.588 9.393s-10.764 9.192-10.84 9.116c-.075-.075 4.679-4.3 10.588-9.393 5.91-5.092 10.777-9.191 10.84-9.116"/>
    <path fill="#263238" d="M122.648 153.294s0-.151-.037-.453c-.038-.302-.038-.755-.088-1.346 0-.289 0-.628-.063-.98-.063-.365-.113-.755-.176-1.182-.063-.428-.139-.88-.214-1.371-.075-.49-.239-.993-.365-1.534a27 27 0 0 0-3.118-7.482 27.9 27.9 0 0 0-7.104-7.959l-1.208-.906c-.427-.276-.867-.528-1.32-.804-.44-.277-.88-.579-1.358-.792l-1.433-.717-.717-.352-.78-.277-1.572-.578c-.54-.176-1.094-.29-1.647-.44a15 15 0 0 0-1.697-.39 26 26 0 0 0-3.534-.403c-.603 0-1.207-.075-1.823-.075l-1.848.1c-.315 0-.63 0-.93.063l-.931.139c-.617.113-1.258.176-1.874.302a32 32 0 0 0-3.722 1.093 29 29 0 0 0-3.634 1.61c-.59.327-1.157.717-1.748 1.044-.289.188-.59.339-.855.54l-.817.629a25.5 25.5 0 0 0-5.948 5.973l-.641.855-.566.93-.553.931a6 6 0 0 0-.516.956l-.943 1.974c-.251.716-.503 1.383-.754 2.074a27.8 27.8 0 0 0 0 17.68c.251.717.503 1.383.754 2.075.252.691.642 1.32.956 1.974l.239.49.289.465.553.931.566.93.641.856a32 32 0 0 0 2.717 3.219c.993.968 2.05 1.873 3.168 2.703l.817.616c.277.214.579.365.868.541.591.339 1.144.717 1.735 1.043a29 29 0 0 0 3.647 1.61c1.22.453 2.452.817 3.722 1.094.616.126 1.257.201 1.873.314l.931.139c.314.037.616.037.93.062l1.849.101c.616 0 1.22-.05 1.823-.075a26 26 0 0 0 3.534-.403 14 14 0 0 0 1.697-.39c.553-.15 1.119-.264 1.647-.44l1.572-.578.78-.277.716-.352 1.434-.716c.49-.227.918-.541 1.358-.793.453-.264.88-.528 1.32-.804l1.207-.906a28.1 28.1 0 0 0 7.105-7.959 27 27 0 0 0 3.156-7.432c.126-.54.302-1.043.365-1.534.062-.49.151-.943.213-1.37.063-.428.139-.818.176-1.182.038-.365.038-.717.063-.994.038-.578.076-1.018.088-1.333 0-.301.038-.452.038-.452v.452c0 .302 0 .767-.05 1.346 0 .302-.013.629-.038.993 0 .365-.101.755-.151 1.182l-.201 1.383a15 15 0 0 1-.352 1.547 26.6 26.6 0 0 1-3.068 7.557 27.9 27.9 0 0 1-7.142 8.06l-1.22.918c-.428.277-.88.541-1.32.818s-.881.578-1.371.817l-1.459.717-.716.352-.78.289-1.584.578c-.541.189-1.094.302-1.66.453-.553.176-1.132.302-1.71.39a26 26 0 0 1-3.571.427c-.617 0-1.22.088-1.849.076l-1.873-.088c-.302 0-.63 0-.943-.063l-.944-.138c-.628-.114-1.27-.177-1.898-.315a29 29 0 0 1-3.76-1.106 29 29 0 0 1-3.697-1.622c-.59-.327-1.17-.717-1.76-1.044-.29-.189-.604-.34-.88-.553l-.805-.642a32 32 0 0 1-3.207-2.728 31 31 0 0 1-2.766-3.282l-.654-.868-.566-.943-.565-.943-.29-.465-.239-.503-.98-1.999-.767-2.1a28.23 28.23 0 0 1 0-17.931l.767-2.088c.327-.666.64-1.332.955-1.999.151-.339.327-.654.528-.968l.566-.943.566-.931.654-.867a33 33 0 0 1 2.766-3.282 30 30 0 0 1 3.207-2.729l.83-.629c.276-.201.566-.389.867-.553.591-.339 1.17-.717 1.76-1.043a28.4 28.4 0 0 1 3.698-1.623 31 31 0 0 1 3.76-1.106c.64-.126 1.27-.201 1.898-.302l.943-.138c.314-.038.629-.038.943-.063l1.874-.088c.616 0 1.232.063 1.836.075a24.5 24.5 0 0 1 3.57.428c.579.1 1.145.226 1.711.39.553.151 1.119.276 1.659.452l1.585.579.779.289.717.365 1.434.716c.477.239.93.516 1.383.805.44.277.893.541 1.32.817l1.22.918a28.1 28.1 0 0 1 7.142 8.06 26.4 26.4 0 0 1 3.068 7.558c.126.54.302 1.056.352 1.546.063.491.139.956.201 1.383.063.428.126.83.151 1.182.025.365 0 .717.038.994 0 .578 0 1.031.05 1.345s.051.453.051.453z"/>
    <path fill="#263238" d="M112.275 168.257c.214-.339.452-.654.717-.956a26 26 0 0 0 1.785-2.691 24.9 24.9 0 0 0 3.307-10.034 25 25 0 0 0-1.157-10.499 29 29 0 0 0-1.194-3.006 8.4 8.4 0 0 1-.491-1.081s.076.076.176.252c.114.176.264.427.44.767.503.955.944 1.961 1.308 2.98a24 24 0 0 1 1.295 10.625 24.2 24.2 0 0 1-3.432 10.135 23 23 0 0 1-1.899 2.653c-.239.289-.453.503-.591.654s-.239.214-.252.214zm-1.471 2.578c.05.088-.176.314-.491.502-.327.189-.629.265-.679.177s.176-.315.491-.503c.326-.189.628-.265.679-.176"/>
    <path fill="#fff" d="M73.974 165.365a1.5 1.5 0 0 1-.177-.34c-.1-.226-.251-.553-.427-.993a25 25 0 0 1-1.132-3.835 27.66 27.66 0 0 1 .327-13.103 27.8 27.8 0 0 1 6.287-11.48 24 24 0 0 1 2.905-2.741c.352-.302.666-.503.868-.654.2-.151.301-.214.326-.201s-.39.352-1.093.968a29.5 29.5 0 0 0-2.805 2.804 28.4 28.4 0 0 0-6.136 11.405 28.5 28.5 0 0 0-.415 12.952 31 31 0 0 0 1.031 3.822c.277.893.466 1.383.44 1.383zm16.585-35.158a7.7 7.7 0 0 1-3.332.277 3.9 3.9 0 0 1 1.647-.327 4 4 0 0 1 1.685.05"/>
    <path fill="#455A64" d="M94.608 184a31.2 31.2 0 0 1-21.062-8.186 31.4 31.4 0 0 1-10.022-20.333 31.38 31.38 0 0 1 6.287-21.791 31.14 31.14 0 0 1 19.29-11.795 31.02 31.02 0 0 1 22.155 4.389 31.28 31.28 0 0 1 13.379 18.27 31.43 31.43 0 0 1-2.414 22.546 31.18 31.18 0 0 1-16.95 14.989A31 31 0 0 1 94.595 184zm.063-57.477c-3.647 0-7.243.754-10.588 2.238a26.3 26.3 0 0 0-8.777 6.337 26.38 26.38 0 0 0-3.52 30.531 26.1 26.1 0 0 0 7.104 8.186 26.3 26.3 0 0 0 9.795 4.614c3.546.83 7.23.918 10.814.239a26.3 26.3 0 0 0 11.216-5.08 26.4 26.4 0 0 0 7.683-9.657 26.5 26.5 0 0 0 2.389-12.825 26.35 26.35 0 0 0-13.529-21.326 26.25 26.25 0 0 0-12.587-3.257"/>
</svg>
