<svg xmlns="http://www.w3.org/2000/svg" width="437" height="509" fill="none">
    <path fill="#D5F6EB" d="M231.417 479.049C340.51 462.511 415.54 360.668 399.002 251.576S280.622 67.453 171.529 83.99C62.437 100.528-12.594 202.371 3.944 311.464s118.381 184.122 227.473 167.585"/>
    <path fill="#FFBF9D" d="m374.558 242.93 2.304 85.087-30.354-46.739-71.118-.683 15.874 28.163c16.613 24.635 26.683 45.345 48.502 68.956 10.896 11.806 21.023 28.248 25.973 31.691 11.834 8.306 29.614 14.963 45.06 1.593 21.564-18.662 19.003-54.562 12.204-91.231-7.567-40.708-11.521-79.966-11.521-79.966z"/>
    <path fill="#FFBF9D" d="M382.978 191.44s-6.571-12.659-11.777-11.379-12.233 5.69-13.086 10.042c-.854 4.353.284 8.079 2.247 7.909a32 32 0 0 0 7.709-3.955l6.657 9.36-2.845 11.834-6.912 3.556-3.983-8.25 1.622-9.359s-4.723-3.983-7.34 3.499c-2.617 7.481-5.689 20.937 1.878 27.451a224 224 0 0 0 21.733 15.334l34.137-2.845 8.165-40.083s13.313-13.882 14.195-19.571 1.621-22.758 1.621-22.758a4.09 4.09 0 0 0-3.66-.784 4.1 4.1 0 0 0-2.769 2.519c-2.361 4.779-4.637 18.662-4.637 18.662l-11.35 10.895 4.466-49.072s-6.827-4.438-9.615 6.6-5.86 38.29-7.254 38.29-5.519 0-4.922-5.689c.598-5.69-1.251-49.442-1.251-49.442s-9.843 2.162-9.217 11.379.227 38.148 0 40.338c-.228 2.191-3.812 5.519-3.812 5.519"/>
    <path fill="#FF9A6C" d="M382.949 369.891a103 103 0 0 1-4.181-20.823 109.5 109.5 0 0 1-1.565-21.364c.484 0 1.565 9.416 3.158 21.051a207 207 0 0 1 2.588 21.136m9.617-136.547c-.256 0-.74-1.366-1.934-3.385a22.76 22.76 0 0 0-14.366-10.441c-2.305-.512-3.812-.54-3.812-.796s1.479-.569 3.982-.341a19.37 19.37 0 0 1 15.22 11.037 7 7 0 0 1 .91 3.926"/>
    <path fill="#FFBF9D" d="m128.26 234.88 45.772-4.666 77.803 3.414 35.417 12.204-49.27 49.925-65.145-8.108-29.187-16.584z"/>
    <path fill="#263238" d="M231.042 40.926c8.022-5.092 9.956-16.898 5.689-25.347S223.162 2.01 213.803.502a43.64 43.64 0 0 0-37.665 12.488c-5.177 5.32-9.387 12.261-16.385 14.708-6.174 2.162-13.001.227-19.487 1.052a29.47 29.47 0 0 0-20.567 14.85 63.6 63.6 0 0 0-7.311 25.005c-.939 7.994-1.565 16.755-7.112 22.559-5.547 5.803-13.91 6.884-20.624 10.924a28.274 28.274 0 0 0-8.592 38.603c2.646 3.868 6.458 7.424 6.77 12.118.285 4.267-2.474 8.079-3.783 12.176a19.06 19.06 0 0 0 16.33 23.668c5.689.341 11.378-1.849 16.527.654s6.799 8.534 9.957 13.001a23.9 23.9 0 0 0 29.073 7.51c4.096-2.02 7.965-5.348 12.517-5.035s8.136 4.181 12.602 5.063c5.86 1.11 11.379-3.186 14.878-8.022s5.917-10.554 10.355-14.508c5.831-5.178 14.024-6.458 21.392-9.018a60.36 60.36 0 0 0 40.684-59.757 60.4 60.4 0 0 0-6.547-24.789"/>
    <path fill="#455A64" d="M146.212 145.783a16.36 16.36 0 0 0-6.515-4.267h.484a7.5 7.5 0 0 0-1.394-.256 6.52 6.52 0 0 0-5.064.626 11.97 11.97 0 0 0-6.571 5.689 14.22 14.22 0 0 0 1.678 14.679 10.9 10.9 0 0 0 11.233 4.892 10.9 10.9 0 0 0 8.68-8.647 13.55 13.55 0 0 0-2.531-12.716"/>
    <path fill="#FFBF9D" d="m251.835 233.629 8.534-156.46A13.257 13.257 0 0 0 248.99 63.37l-69.923-19.913c-22.502-3.044-38.291 24.323-40.339 46.91-2.304 25.119-4.125 55.87-1.678 74.702 4.779 38.063 35.73 43.809 35.73 43.809s.227 38.604 0 52.315l23.27 50.38z"/>
    <path fill="#263238" d="M152.868 118.957a4.834 4.834 0 0 0 4.551 5.007 4.6 4.6 0 0 0 1.826-.159 4.57 4.57 0 0 0 2.768-2.288 4.6 4.6 0 0 0 .498-1.763 4.837 4.837 0 0 0-4.523-5.036 4.68 4.68 0 0 0-3.447 1.048 4.66 4.66 0 0 0-1.673 3.191m-7.88-14.793c.569.654 4.324-1.963 9.529-1.793 5.206.171 8.933 2.845 9.53 2.248.598-.598-.284-1.423-1.934-2.703a13.3 13.3 0 0 0-7.596-2.588 12.85 12.85 0 0 0-7.623 2.247c-1.622 1.166-2.219 2.304-1.906 2.589m54.646 16.016a4.81 4.81 0 0 0 4.438 5.064 4.576 4.576 0 0 0 5.092-4.21 4.81 4.81 0 0 0-4.523-5.007 4.58 4.58 0 0 0-5.007 4.153m-3.499-13.598c.597.655 4.324-1.963 9.529-1.792 5.206.171 8.961 2.845 9.53 2.247.569-.597-.284-1.422-1.906-2.674a13.03 13.03 0 0 0-7.624-2.588 12.48 12.48 0 0 0-7.595 2.219c-1.65 1.166-2.219 2.304-1.934 2.588m-19.997 38.091a35.7 35.7 0 0 0-8.534-1.764c-1.309-.17-2.561-.483-2.845-1.393a6.85 6.85 0 0 1 .996-3.926c1.337-3.158 2.844-6.515 4.21-10.014 5.888-14.223 10.184-26.001 9.587-26.228-.598-.228-5.69 11.151-11.664 25.403-1.422 3.528-2.845 6.885-4.068 10.071a7.73 7.73 0 0 0-.825 5.206 3.28 3.28 0 0 0 2.134 2.019c.73.218 1.485.343 2.247.37 2.898.453 5.842.539 8.762.256"/>
    <path fill="#FF9A6C" d="M173.064 208.737a90.6 90.6 0 0 0 48.645-12.147s-10.924 28.077-48.588 23.469zm3.5-51.661a12.8 12.8 0 0 1 10.696-5.291 8.34 8.34 0 0 1 6.77 3.926 7.65 7.65 0 0 1-.58 8.68 7.65 7.65 0 0 1-8.324 2.528 19 19 0 0 1-7.538-4.95 6.1 6.1 0 0 1-1.593-2.019 2.62 2.62 0 0 1 .284-2.618"/>
    <path fill="#263238" d="M191.355 148.713c-.825 0-.995 5.689-5.945 9.444s-10.952 3.101-11.038 3.869c-.085.768 1.309 1.138 3.869 1.28 3.3.148 6.549-.858 9.189-2.845a12.32 12.32 0 0 0 4.637-7.936c.284-2.419-.313-3.841-.712-3.812m3.103-63.637c.455 1.422 5.689.91 11.777 1.82s10.98 2.703 11.834 1.48c.37-.598-.455-1.963-2.39-3.386a19.9 19.9 0 0 0-8.733-3.328 19.54 19.54 0 0 0-9.274.825c-2.133.825-3.414 1.906-3.214 2.589M147.319 86.3c.882 1.194 4.495 0 8.819.142s7.936 1.024 8.818-.2c.399-.597-.142-1.791-1.707-2.844a12.3 12.3 0 0 0-7.111-2.133 12.15 12.15 0 0 0-7.112 2.162c-1.565 1.08-2.105 2.275-1.707 2.873"/>
    <path fill="#263238" d="M113.325 80.041a25.6 25.6 0 0 1 9.928-14.223 92 92 0 0 0 8.534-4.893c5.433-4.41 6.713-12.062 10.07-18.206a28.45 28.45 0 0 1 21.706-14.423c7.481-.768 15.191 1.479 22.473-.342 5.405-1.365 10.099-4.864 15.561-5.888 10.639-2.02 20.51 5.69 28.22 13.2 0 7.595-6.031 12.687-11.863 17.58a26.46 26.46 0 0 1-21.364 5.69c-5.689-1.053-12.175-3.983-17.211-.911s-5.49 11.237-10.184 15.305c-6.713 5.69-17.353.37-25.859 2.844-6.571 1.963-10.667 8.25-15.048 13.513s-10.895 10.326-17.467 8.363a77 77 0 0 1 2.504-17.609"/>
    <path fill="#263238" d="M193.12 47.867c4.779-1.366 14.537-4.438 17.068-8.534 5.69-8.961 15.334-15.106 25.319-14.565a24.07 24.07 0 0 1 21.648 19.002 34.62 34.62 0 0 1 29.728 19.146 38 38 0 0 1 1.877 4.437 26.23 26.23 0 0 1 1.764 22.075c-1.65 4.296-4.466 9.104-2.247 13.143 2.218 4.04 7.965 4.239 12.403 5.69a17.41 17.41 0 0 1 10.98 19.486 22.1 22.1 0 0 0-1.394 8.534 18.8 18.8 0 0 0 5.149 7.425 21.76 21.76 0 0 1 3.969 21.484 21.76 21.76 0 0 1-16.685 14.104c-3.385.597-7.055.455-9.985 2.275-3.385 2.077-4.836 6.117-7.225 9.274a18.775 18.775 0 0 1-20.312 6.373 18.4 18.4 0 0 1-4.096-2.049 13.5 13.5 0 0 1-5.28 4.171 13.46 13.46 0 0 1-6.64 1.092l1.394-79.653a6.57 6.57 0 0 1-4.807 3.784c-12.773 2.845-14.651-23.441-11.806-30.553a75.7 75.7 0 0 1-12.801-13.484c-3.528-5.206-6.629-19.43-5.889-25.83-4.608.256-24.209-6.258-22.132-6.827"/>
    <path fill="#FFBF9D" d="M247.057 127.235c.398-8.108 10.298-9.843 17.296-5.69 3.84 2.219 6.799 6.685 6.429 15.276-.939 22.9-23.725 17.239-23.725 16.585s-.484-16.784 0-26.171"/>
    <path fill="#FF9A6C" d="M254.396 144.93s.398.284 1.052.625c.93.459 2.004.53 2.987.2 2.446-.797 4.637-4.552 4.921-8.677a13.1 13.1 0 0 0-.881-5.689 4.56 4.56 0 0 0-2.845-3.158 1.964 1.964 0 0 0-2.39.996c-.341.625-.227 1.081-.341 1.109s-.484-.398-.256-1.337a2.42 2.42 0 0 1 .967-1.394 3.08 3.08 0 0 1 2.219-.512 5.69 5.69 0 0 1 4.039 3.727 13.6 13.6 0 0 1 1.11 6.457c-.341 4.609-2.845 8.819-6.23 9.644a4.29 4.29 0 0 1-3.613-.768c-.711-.683-.825-1.195-.739-1.223"/>
    <path fill="#455A64" d="M224.67 41.695a13.4 13.4 0 0 1 4.551 3.811c2.276 3.13 3.129 9.103 1.707 15.846l-.142.569h.569a22.24 22.24 0 0 1 14.764 13 17.6 17.6 0 0 1 1.166 5.69 33 33 0 0 1-.711 6.059 43 43 0 0 0-.853 6.514 10.75 10.75 0 0 0 1.792 6.77 27.8 27.8 0 0 0 11.379 8.535 38.1 38.1 0 0 1 10.611 6.941 28.65 28.65 0 0 1 8.534 19.202 29.6 29.6 0 0 1-3.016 14.224c-1.507 3.129-2.844 4.637-2.674 4.722.171.085.37-.313.996-1.024a25 25 0 0 0 2.247-3.414 29.074 29.074 0 0 0-5.063-34.677 39.8 39.8 0 0 0-10.953-7.311 26.8 26.8 0 0 1-10.724-7.994c-2.532-3.499-1.394-8.022-.74-12.118a34 34 0 0 0 .711-6.373 18.8 18.8 0 0 0-1.337-6.116 23.27 23.27 0 0 0-15.873-13.598l.455.711c1.337-7.055.256-13.227-2.333-16.499a9.64 9.64 0 0 0-3.584-2.845 5.3 5.3 0 0 0-1.479-.626m38.288 111.798a16.36 16.36 0 0 0-6.514-4.267h.483a7.5 7.5 0 0 0-1.394-.256 6.52 6.52 0 0 0-5.063.626 11.98 11.98 0 0 0-6.572 5.689 14.23 14.23 0 0 0 1.679 14.679 10.894 10.894 0 0 0 19.913-3.755 13.55 13.55 0 0 0-2.532-12.716m43.127 296.052.427-96.237 8.961 17.779 55.984-55.643s-27.082-49.271-39.627-58.801-61.532-19.458-64.689-21.335c0 0-12.688 21.392-52.23 33.255-39.542 11.862-72.711-39.172-72.711-39.172l-44.976 1.991s-3.812 67.534-4.494 113.79c-.228 13.597.569 25.46.91 33.084 1.508 33.596 35.36 91.344 35.36 91.344s48.076 17.069 98.94 10.839 78.145-30.894 78.145-30.894"/>
    <path fill="#455A64" d="M97.224 231.323c-23.47 4.865-44.463 34.45-69.525 92.312l68.273 51.035z"/>
    <path fill="#263238" d="M309.469 294.335c.282.98.426 1.995.427 3.015.17 1.963.313 4.78.427 8.279.227 7.026.199 16.698-.456 27.394-.654 10.697-1.763 20.283-2.844 27.225-.541 3.47-1.025 6.258-1.423 8.164-.127.982-.395 1.94-.796 2.845a92 92 0 0 1 1.024-11.379c.768-6.941 1.707-16.528 2.361-27.168.654-10.639.853-20.282.939-27.252a88 88 0 0 1 .341-11.123M99.358 279.258a17.7 17.7 0 0 1-.341 3.784c-.399 2.844-.91 6.173-1.48 10.184-1.251 8.534-2.844 20.482-3.925 33.653a302 302 0 0 0-.626 33.852c.199 4.068.37 7.482.483 10.27a17.6 17.6 0 0 1 0 3.783 15 15 0 0 1-.682-3.726c-.342-2.418-.683-5.917-1.025-10.27a238 238 0 0 1 0-34.137 324 324 0 0 1 4.58-33.568c.797-4.267 1.48-7.737 2.02-10.098.152-1.284.488-2.539.996-3.727m107.132 35.247 2.275 91.885a8.533 8.533 0 0 1-8.278 8.676l-38.717.911a8.534 8.534 0 0 1-8.534-7.909l-6.258-91.031a8.52 8.52 0 0 1 2.163-6.218 8.53 8.53 0 0 1 5.944-2.828l42.671-1.906a8.52 8.52 0 0 1 6.124 2.388 8.53 8.53 0 0 1 2.61 6.032"/>
    <path fill="#fff" d="M172.779 324.944a3.6 3.6 0 0 0 .686 1.968 3.59 3.59 0 0 0 3.745 1.368 3.58 3.58 0 0 0 2.694-2.94 3.59 3.59 0 0 0-1.691-3.611 3.586 3.586 0 0 0-5.434 3.215"/>
    <path fill="#FFBF9D" d="M148.743 338.144s-10.497 13.626-14.224 19.628c-3.726 6.003-4.438 25.006-4.438 25.006v13.228l-20.965 9.302 16.186 45.146 31.804-27.509 32.117-6.03s14.822-15.248 17.069-22.076a31.6 31.6 0 0 0 1.792-12.033 228 228 0 0 0 7.795-21.648 81.4 81.4 0 0 0 .768-15.504s-4.125-.996-7.34 5.86l5.035-11.606s-3.299-8.535-10.497.17c-7.197 8.705-19.088 23.612-19.088 23.612l-13.626 11.891-1.849-1.963s23.981-32.004 23.156-37.522-6.088-5.548-11.379.512c-5.291 6.059-26.684 36.213-29.585 36.64-2.902.427-3.954-3.613-3.954-3.613l1.536-11.18 1.052-2.361z"/>
    <path fill="#FF9A6C" d="M190.076 382.465c.373-.334.698-.717.967-1.138.598-.768 1.423-1.878 2.418-3.272 1.992-2.844 4.666-6.713 7.425-11.151s5.064-8.534 6.685-11.635c.797-1.508 1.423-2.845 1.821-3.613.243-.434.444-.892.597-1.365a5.2 5.2 0 0 0-.825 1.251l-2.02 3.499c-1.735 2.845-4.124 7.055-6.855 11.379s-5.348 8.535-7.226 11.379c-.882 1.337-1.621 2.475-2.247 3.386a7.3 7.3 0 0 0-.74 1.28m7.481 14.28a100 100 0 0 0 6.486-9.245 94 94 0 0 0 5.888-9.644 100 100 0 0 0-6.486 9.246 90 90 0 0 0-5.888 9.643"/>
    <path fill="#FFBF9D" d="M37.37 330.947S1.898 423.884.248 456.115c-1.536 29.301 23.839 46.995 42.956 44.207 44.947-6.514 113.96-77.263 113.96-77.263l-25.944-27.565-60.621 27.167 18.832-52.77z"/>
    <path fill="#000" d="M370.489 418.536c7.539-18.377 1.906-40.595-11.379-55.188s-33.482-22.047-53.31-22.758a95.35 95.35 0 0 0-98.65 92.46 95.35 95.35 0 0 0 11.43 48.184 80.2 80.2 0 0 0 28.021-6.884c11.834-6.088 123.888-55.814 123.888-55.814" opacity=".3"/>
    <path fill="#32D59C" d="M339.059 498.065c35.884-21.391 47.632-67.821 26.241-103.705s-67.821-47.632-103.704-26.241c-35.884 21.391-47.633 67.821-26.242 103.705s67.821 47.632 103.705 26.241"/>
    <path fill="#fff" d="m294.904 468.347-39.228-32.885 11.492-13.683 26.286 22.047 40.338-42.87 13.029 12.232z"/>
    <path stroke="#32D59C" stroke-linecap="round" stroke-width="2" d="M123.69 287.358c5.763 4.6 7.255 6.091 11.728 9.073m-19.385 18.158c7.181-1.68 9.275-1.928 14.385-3.597m19.806-35.436c-.347 7.366-.681 9.448-.474 14.82"/>
</svg>
