<svg xmlns="http://www.w3.org/2000/svg" fill="none" viewBox="0 0 184 184">
    <path fill="#D5F6EB" d="M96.632 173.26c39.456-5.982 66.593-42.816 60.611-82.272-5.981-39.455-42.815-66.592-82.27-60.61-39.457 5.98-66.593 42.814-60.612 82.27s42.815 66.593 82.271 60.612"/>
    <path fill="#FFBE9D" d="m148.402 87.862.834 30.773-10.978-16.904-25.722-.247 5.741 10.186c6.009 8.91 9.651 16.4 17.542 24.939 3.941 4.27 7.604 10.217 9.394 11.462 4.28 3.004 10.71 5.412 16.297.576 7.799-6.749 6.873-19.734 4.414-32.996-2.737-14.723-4.167-28.921-4.167-28.921z"/>
    <path fill="#FFBE9D" d="M151.448 69.239s-2.377-4.578-4.26-4.115c-1.882.463-4.424 2.057-4.732 3.632-.309 1.574.103 2.921.812 2.86a11.5 11.5 0 0 0 2.789-1.43l2.407 3.385-1.029 4.28-2.5 1.286-1.44-2.984.586-3.385s-1.708-1.44-2.654 1.266c-.947 2.706-2.058 7.572.679 9.928a81 81 0 0 0 7.86 5.546l12.347-1.03 2.953-14.496s4.815-5.02 5.134-7.079c.319-2.057.586-8.23.586-8.23a1.48 1.48 0 0 0-1.324-.284 1.49 1.49 0 0 0-1.001.911c-.854 1.729-1.677 6.75-1.677 6.75l-4.105 3.94 1.615-17.748s-2.469-1.605-3.478 2.387c-1.008 3.992-2.119 13.849-2.623 13.849s-1.996 0-1.78-2.058-.453-17.882-.453-17.882-3.56.782-3.333 4.116.082 13.797 0 14.589c-.083.792-1.379 1.996-1.379 1.996"/>
    <path fill="#3B1919" fill-opacity=".2" d="M151.438 133.78a37.3 37.3 0 0 1-1.513-7.531 39.7 39.7 0 0 1-.566-7.727c.175 0 .566 3.406 1.142 7.614a75 75 0 0 1 .937 7.644m3.478-49.386c-.093 0-.268-.493-.7-1.224a8.24 8.24 0 0 0-5.196-3.776c-.833-.185-1.378-.195-1.378-.288s.535-.206 1.44-.123a7.01 7.01 0 0 1 5.504 3.992c.247.43.362.924.33 1.42"/>
    <path fill="#FFBE9D" d="m59.323 84.95 16.554-1.687 28.14 1.234 12.809 4.414-17.82 18.057-23.56-2.933-10.557-5.998z"/>
    <path fill="#263238" d="M96.496 14.802c2.902-1.842 3.601-6.112 2.058-9.167C97.011 2.579 93.646.727 90.261.182A15.78 15.78 0 0 0 76.64 4.698c-1.872 1.924-3.395 4.435-5.926 5.32-2.233.781-4.702.082-7.048.38a10.66 10.66 0 0 0-7.438 5.37 23 23 0 0 0-2.645 9.045c-.34 2.89-.566 6.06-2.572 8.159s-5.031 2.49-7.46 3.95a10.227 10.227 0 0 0-3.106 13.962c.956 1.4 2.335 2.685 2.448 4.383.103 1.543-.895 2.922-1.368 4.404a6.893 6.893 0 0 0 5.906 8.56c2.057.123 4.115-.669 5.977.237 1.863.905 2.46 3.086 3.601 4.701a8.64 8.64 0 0 0 10.515 2.717c1.482-.73 2.881-1.935 4.528-1.822 1.646.114 2.942 1.513 4.557 1.832 2.12.401 4.116-1.152 5.381-2.901 1.266-1.75 2.14-3.818 3.745-5.248 2.11-1.872 5.073-2.335 7.738-3.261a21.84 21.84 0 0 0 14.714-21.613 21.8 21.8 0 0 0-2.368-8.965"/>
    <path fill="#455A64" d="M65.816 52.726a5.9 5.9 0 0 0-2.357-1.543h.175a2.7 2.7 0 0 0-.504-.093 2.36 2.36 0 0 0-1.831.226 4.33 4.33 0 0 0-2.377 2.058 5.15 5.15 0 0 0 .607 5.31 3.94 3.94 0 0 0 7.202-1.359 4.9 4.9 0 0 0-.915-4.599"/>
    <path fill="#FFBE9D" d="m104.017 84.497 3.087-56.587a4.796 4.796 0 0 0-4.116-4.99l-25.29-7.202C69.56 14.617 63.85 24.514 63.11 32.684c-.833 9.085-1.492 20.207-.607 27.018 1.729 13.766 12.923 15.844 12.923 15.844s.082 13.962 0 18.921l8.416 18.221z"/>
    <path fill="#263238" d="M68.223 43.024a1.75 1.75 0 0 0 1.646 1.81 1.656 1.656 0 0 0 1.842-1.522 1.75 1.75 0 0 0-1.636-1.821 1.685 1.685 0 0 0-1.852 1.533m-2.85-5.351c.206.237 1.564-.71 3.447-.648s3.23 1.029 3.446.813-.103-.514-.7-.977a4.8 4.8 0 0 0-2.746-.937 4.65 4.65 0 0 0-2.758.813c-.586.422-.802.834-.689.936m19.764 5.793a1.74 1.74 0 0 0 1.605 1.831 1.656 1.656 0 0 0 1.842-1.522 1.74 1.74 0 0 0-1.636-1.811 1.66 1.66 0 0 0-1.81 1.502m-1.266-4.918c.216.237 1.563-.71 3.446-.648s3.241 1.029 3.447.813-.103-.515-.69-.967a4.7 4.7 0 0 0-2.757-.937 4.5 4.5 0 0 0-2.747.803c-.597.422-.802.833-.7.936M76.64 52.325a13 13 0 0 0-3.088-.638c-.473-.062-.925-.175-1.028-.505a2.5 2.5 0 0 1 .36-1.42c.483-1.141 1.029-2.355 1.522-3.621 2.13-5.144 3.684-9.404 3.468-9.486s-2.058 4.033-4.219 9.188c-.514 1.275-1.028 2.49-1.47 3.642a2.8 2.8 0 0 0-.3 1.883 1.18 1.18 0 0 0 .772.73q.399.119.813.134c1.049.164 2.113.195 3.17.093"/>
    <path fill="#3B1919" fill-opacity=".2" d="M75.528 75.495A32.77 32.77 0 0 0 93.12 71.1s-3.95 10.155-17.573 8.489zm1.265-18.685a4.63 4.63 0 0 1 3.869-1.913 3.02 3.02 0 0 1 2.448 1.42 2.768 2.768 0 0 1-3.22 4.053 6.9 6.9 0 0 1-2.726-1.79 2.2 2.2 0 0 1-.577-.73.95.95 0 0 1 .103-.947"/>
    <path fill="#263238" d="M82.143 53.785c-.298 0-.36 2.058-2.15 3.416s-3.962 1.122-3.992 1.4c-.031.277.473.411 1.399.462a5.14 5.14 0 0 0 3.323-1.028 4.46 4.46 0 0 0 1.677-2.87c.103-.875-.113-1.39-.257-1.38m1.122-23.015c.165.514 2.058.329 4.26.658 2.201.33 3.97.978 4.28.535.133-.216-.165-.71-.865-1.224a7.2 7.2 0 0 0-3.158-1.204 7.1 7.1 0 0 0-3.355.298c-.771.299-1.234.69-1.162.937m-17.049.442c.32.433 1.626 0 3.19.052 1.564.051 2.87.37 3.19-.072.143-.216-.052-.648-.618-1.029a4.45 4.45 0 0 0-2.572-.772 4.4 4.4 0 0 0-2.573.782c-.565.391-.76.823-.617 1.04"/>
    <path fill="#263238" d="M53.921 28.949a9.26 9.26 0 0 1 3.591-5.144 33 33 0 0 0 3.087-1.77c1.965-1.595 2.428-4.362 3.642-6.585a10.29 10.29 0 0 1 7.85-5.216c2.706-.278 5.494.535 8.128-.124 1.955-.493 3.653-1.759 5.628-2.13 3.848-.73 7.418 2.058 10.206 4.775 0 2.747-2.18 4.588-4.29 6.358a9.57 9.57 0 0 1-7.727 2.058c-2.058-.381-4.403-1.44-6.224-.33-1.822 1.112-1.986 4.064-3.684 5.536-2.428 2.058-6.276.134-9.352 1.029-2.377.71-3.858 2.983-5.443 4.887s-3.94 3.735-6.317 3.025c.055-2.151.36-4.288.905-6.37"/>
    <path fill="#263238" d="M82.781 17.312c1.729-.494 5.258-1.605 6.173-3.086 2.058-3.241 5.546-5.464 9.157-5.268a8.7 8.7 0 0 1 7.83 6.873 12.52 12.52 0 0 1 10.752 6.924q.389.78.679 1.605a9.5 9.5 0 0 1 .638 7.984c-.597 1.554-1.616 3.292-.813 4.753.802 1.461 2.881 1.533 4.486 2.058a6.3 6.3 0 0 1 3.971 7.048 8 8 0 0 0-.504 3.086 6.8 6.8 0 0 0 1.862 2.686 7.87 7.87 0 0 1-4.599 12.871c-1.224.216-2.551.164-3.611.823-1.225.751-1.749 2.212-2.614 3.354a6.79 6.79 0 0 1-7.346 2.305 6.7 6.7 0 0 1-1.481-.741 4.87 4.87 0 0 1-4.311 1.903l.504-28.808a2.38 2.38 0 0 1-1.739 1.368c-4.62 1.03-5.299-8.477-4.27-11.05a27.4 27.4 0 0 1-4.63-4.876c-1.275-1.883-2.397-7.027-2.13-9.342-1.666.092-8.755-2.264-8.004-2.47"/>
    <path fill="#FFBE9D" d="M102.289 46.017c.144-2.932 3.724-3.56 6.255-2.057 1.389.802 2.459 2.417 2.325 5.525-.339 8.282-8.58 6.235-8.58 5.998s-.175-6.07 0-9.466"/>
    <path fill="#3B1919" fill-opacity=".2" d="M104.943 52.417s.144.103.381.227c.336.165.724.191 1.08.072.885-.289 1.677-1.647 1.78-3.139a4.8 4.8 0 0 0-.319-2.057 1.65 1.65 0 0 0-1.029-1.142.71.71 0 0 0-.864.36c-.124.226-.083.39-.124.401-.041.01-.175-.144-.092-.483a.87.87 0 0 1 .35-.505 1.1 1.1 0 0 1 .802-.185 2.05 2.05 0 0 1 1.461 1.348c.323.734.46 1.536.401 2.336-.123 1.666-1.029 3.189-2.253 3.487a1.56 1.56 0 0 1-1.307-.277c-.257-.247-.298-.433-.267-.443"/>
    <path fill="#455A64" d="M94.192 15.08c.645.33 1.208.801 1.646 1.378.823 1.132 1.132 3.293.617 5.731l-.051.206h.206a8.04 8.04 0 0 1 5.34 4.702c.253.658.396 1.353.421 2.058-.017.736-.103 1.47-.257 2.191a15.5 15.5 0 0 0-.308 2.356 3.88 3.88 0 0 0 .648 2.449 10.06 10.06 0 0 0 4.115 3.086 13.8 13.8 0 0 1 3.838 2.511 10.36 10.36 0 0 1 3.086 6.945 10.7 10.7 0 0 1-1.09 5.144c-.545 1.132-1.029 1.677-.967 1.708s.133-.113.36-.37q.457-.585.813-1.235a10.514 10.514 0 0 0-1.832-12.542 14.4 14.4 0 0 0-3.961-2.644 9.7 9.7 0 0 1-3.879-2.891c-.915-1.266-.504-2.902-.267-4.383q.237-1.14.257-2.305a6.8 6.8 0 0 0-.484-2.212 8.41 8.41 0 0 0-5.74-4.918l.164.257c.483-2.551.093-4.784-.844-5.967a3.5 3.5 0 0 0-1.296-1.029 2 2 0 0 0-.535-.226m13.848 40.434a5.9 5.9 0 0 0-2.356-1.543h.175a2.7 2.7 0 0 0-.504-.093 2.36 2.36 0 0 0-1.832.227 4.33 4.33 0 0 0-2.376 2.057 5.14 5.14 0 0 0 .607 5.31 3.93 3.93 0 0 0 4.062 1.769 3.94 3.94 0 0 0 3.14-3.128 4.9 4.9 0 0 0-.916-4.599m15.598 107.074.154-34.806 3.241 6.43 20.248-20.124s-9.795-17.82-14.332-21.267-22.255-7.038-23.397-7.717c0 0-4.588 7.737-18.89 12.028-14.3 4.29-26.297-14.168-26.297-14.168l-16.267.72s-1.379 24.426-1.625 41.155c-.083 4.918.205 9.209.329 11.966.545 12.151 12.789 33.037 12.789 33.037s17.387 6.173 35.784 3.92 28.263-11.174 28.263-11.174"/>
    <path fill="#455A64" d="M48.098 83.664c-8.488 1.76-16.081 12.46-25.145 33.387l24.693 18.457z"/>
    <path fill="#263238" d="M124.862 106.453c.102.355.154.722.154 1.091.062.71.113 1.729.154 2.994.083 2.541.072 6.039-.164 9.908-.237 3.869-.638 7.336-1.029 9.846a64 64 0 0 1-.515 2.953 3.7 3.7 0 0 1-.288 1.029c.038-1.378.162-2.753.371-4.115.278-2.511.617-5.978.854-9.826.236-3.848.308-7.336.339-9.857a32 32 0 0 1 .124-4.023M48.87 101q.012.691-.123 1.369c-.145 1.029-.33 2.232-.535 3.683-.453 3.087-1.03 7.408-1.42 12.172-.305 4.073-.38 8.161-.227 12.243.072 1.471.134 2.706.175 3.714q.075.684 0 1.369a5.4 5.4 0 0 1-.247-1.348c-.123-.875-.247-2.14-.37-3.714a86 86 0 0 1 0-12.347c.34-4.073.893-8.125 1.656-12.14.288-1.544.535-2.799.73-3.653.056-.464.177-.918.361-1.348m38.747 12.748.823 33.233a3.086 3.086 0 0 1-2.994 3.138l-14.003.329a3.086 3.086 0 0 1-3.087-2.86l-2.263-32.924a3.087 3.087 0 0 1 2.932-3.272l15.433-.689a3.08 3.08 0 0 1 2.905 1.86c.162.374.248.777.254 1.185"/>
    <path fill="#fff" d="M75.424 117.524a1.295 1.295 0 1 0 2.589-.106 1.295 1.295 0 0 0-2.589.106"/>
    <path fill="#FFBE9D" d="M66.731 122.298s-3.796 4.928-5.144 7.099-1.605 9.044-1.605 9.044v4.784l-7.583 3.364 5.854 16.328 11.503-9.949 11.616-2.181s5.36-5.515 6.173-7.984a11.4 11.4 0 0 0 .648-4.352 82 82 0 0 0 2.82-7.83c.27-1.856.363-3.733.277-5.607 0 0-1.492-.36-2.654 2.119l1.82-4.197s-1.193-3.087-3.796.061-6.903 8.54-6.903 8.54l-4.929 4.301-.669-.71s8.674-11.575 8.375-13.571-2.201-2.006-4.115.185c-1.914 2.192-9.65 13.098-10.7 13.252s-1.43-1.307-1.43-1.307l.555-4.043.38-.854z"/>
    <path fill="#3B1919" fill-opacity=".2" d="M81.68 138.328q.204-.183.35-.412c.216-.278.514-.679.874-1.183a88 88 0 0 0 2.686-4.033 67 67 0 0 0 2.418-4.208c.288-.546.514-1.029.658-1.307q.132-.237.216-.494a2 2 0 0 0-.298.453l-.73 1.265c-.628 1.029-1.492 2.552-2.48 4.116s-1.934 3.086-2.614 4.115c-.319.484-.586.895-.812 1.225q-.157.218-.268.463m2.706 5.165a36 36 0 0 0 2.346-3.344 34 34 0 0 0 2.13-3.488 36 36 0 0 0-2.346 3.344 33 33 0 0 0-2.13 3.488"/>
    <path fill="#FFBE9D" d="M26.45 119.695s-12.83 33.613-13.426 45.27c-.555 10.597 8.622 16.997 15.536 15.989 16.256-2.356 41.216-27.944 41.216-27.944l-9.383-9.97-21.925 9.826 6.811-19.086z"/>
    <path fill="#000" d="M146.931 151.374c2.726-6.647.689-14.682-4.116-19.96s-12.109-7.974-19.281-8.231a34.49 34.49 0 0 0-30.516 16.29 34.49 34.49 0 0 0-1.029 34.577 29 29 0 0 0 10.135-2.49c4.28-2.202 44.807-20.186 44.807-20.186" opacity=".3"/>
    <path fill="#32D59C" d="M135.564 180.137c12.978-7.736 17.227-24.529 9.49-37.507-7.736-12.978-24.529-17.227-37.507-9.491s-17.227 24.529-9.49 37.508c7.736 12.978 24.528 17.227 37.507 9.49" class="dynamic-color"/>
    <path fill="#fff" d="m119.594 169.389-14.188-11.893 4.157-4.949 9.506 7.973 14.59-15.505 4.712 4.424z"/>
    <path stroke="#32D59C" stroke-linecap="round" stroke-width="2" d="M57.67 103.93c2.085 1.664 2.624 2.203 4.242 3.282m-7.012 6.567c2.598-.608 3.355-.698 5.204-1.301m7.163-12.816c-.126 2.664-.246 3.417-.172 5.36"/>
</svg>
