<svg xmlns="http://www.w3.org/2000/svg" fill="none" viewBox="0 0 184 184">
    <path fill="#005E9C" d="M183 98.5C183 51.28 144.72 13 97.5 13S12 51.28 12 98.5 50.28 184 97.5 184 183 145.72 183 98.5" class="dynamic-color" opacity=".15"/>
    <path fill="#005E9C" d="M28.04 0a1.62 1.62 0 0 1 1.617 1.623v15.258a1.62 1.62 0 0 1-1.618 1.624 1.62 1.62 0 0 1-1.617-1.624V1.623A1.62 1.62 0 0 1 28.039 0M9.927 7.316a1.613 1.613 0 0 0-2.288 0 1.63 1.63 0 0 0 0 2.296L18.39 20.4a1.613 1.613 0 0 0 2.288 0 1.627 1.627 0 0 0 0-2.296zM2 29.38a1.62 1.62 0 0 1 1.618-1.624H18.82a1.62 1.62 0 0 1 1.617 1.624 1.62 1.62 0 0 1-1.617 1.623H3.618A1.62 1.62 0 0 1 2 29.38m28.196 5.168c0-3.288 2.655-5.953 5.931-5.953h5.301a1.62 1.62 0 0 1 1.618 1.624 1.62 1.62 0 0 1-1.618 1.623h-5.301a2.7 2.7 0 0 0-2.696 2.706v5.229a1.62 1.62 0 0 1-1.617 1.623 1.62 1.62 0 0 1-1.618-1.623zm21.834-5.953a1.62 1.62 0 0 0-1.617 1.624 1.62 1.62 0 0 0 1.618 1.623h10.602a1.62 1.62 0 0 0 1.617-1.623 1.62 1.62 0 0 0-1.617-1.624zm19.588 1.624a1.62 1.62 0 0 1 1.617-1.624h10.603a1.62 1.62 0 0 1 1.617 1.624 1.62 1.62 0 0 1-1.617 1.623H73.235a1.62 1.62 0 0 1-1.617-1.623m22.822-1.624a1.62 1.62 0 0 0-1.618 1.624 1.62 1.62 0 0 0 1.618 1.623h5.301c.787 0 1.535.345 2.047.945l3.166 3.707c.581.68 1.603.76 2.281.176a1.627 1.627 0 0 0 .175-2.29l-3.166-3.706a5.92 5.92 0 0 0-4.503-2.079zm17.021 13.023a1.614 1.614 0 0 1 2.281.176l6.332 7.414a1.63 1.63 0 0 1-.175 2.29c-.679.583-1.7.504-2.281-.177l-6.332-7.413a1.63 1.63 0 0 1 .175-2.29m-78.03 8.617a1.62 1.62 0 0 0-1.617-1.623 1.62 1.62 0 0 0-1.618 1.623v10.459a1.62 1.62 0 0 0 1.617 1.623 1.62 1.62 0 0 0 1.618-1.623zm90.694 6.211a1.614 1.614 0 0 1 2.281.176l3.166 3.707c.354.415.647.872.873 1.36h-3.973l-2.522-2.954a1.627 1.627 0 0 1 .175-2.289M33.431 71.152a1.62 1.62 0 0 0-1.617-1.624 1.62 1.62 0 0 0-1.618 1.624V81.61a1.62 1.62 0 0 0 1.617 1.623 1.62 1.62 0 0 0 1.618-1.623zm0 20.916a1.62 1.62 0 0 0-1.617-1.623 1.62 1.62 0 0 0-1.618 1.623v10.459a1.62 1.62 0 0 0 1.617 1.623 1.62 1.62 0 0 0 1.618-1.623zm0 20.917a1.62 1.62 0 0 0-1.617-1.623 1.62 1.62 0 0 0-1.618 1.623v10.458a1.62 1.62 0 0 0 1.617 1.624 1.62 1.62 0 0 0 1.618-1.624zm0 20.917a1.62 1.62 0 0 0-1.617-1.624 1.62 1.62 0 0 0-1.618 1.624v10.458a1.62 1.62 0 0 0 1.617 1.623 1.62 1.62 0 0 0 1.618-1.623zm0 20.916a1.62 1.62 0 0 0-1.617-1.623 1.62 1.62 0 0 0-1.618 1.623v5.23c0 3.287 2.655 5.952 5.931 5.952h4.447a1.62 1.62 0 0 0 1.618-1.623 1.62 1.62 0 0 0-1.618-1.624h-4.447a2.7 2.7 0 0 1-2.696-2.705zm95.951-1.186a1.62 1.62 0 0 1 1.618 1.623v4.793c0 3.287-2.655 5.952-5.931 5.952h-4.447a1.62 1.62 0 0 1-1.618-1.623 1.62 1.62 0 0 1 1.618-1.624h4.447a2.7 2.7 0 0 0 2.696-2.705v-4.793a1.62 1.62 0 0 1 1.617-1.623m-79.914 9.121a1.62 1.62 0 0 0-1.617 1.624A1.62 1.62 0 0 0 49.468 166h8.894a1.62 1.62 0 0 0 1.618-1.623 1.62 1.62 0 0 0-1.617-1.624zm16.172 1.624a1.62 1.62 0 0 1 1.617-1.624h8.894a1.62 1.62 0 0 1 1.618 1.624A1.62 1.62 0 0 1 76.15 166h-8.894a1.62 1.62 0 0 1-1.618-1.623m19.407-1.624a1.62 1.62 0 0 0-1.618 1.624A1.62 1.62 0 0 0 85.045 166h8.894a1.62 1.62 0 0 0 1.618-1.623 1.62 1.62 0 0 0-1.618-1.624zm16.171 1.624a1.62 1.62 0 0 1 1.617-1.624h8.895a1.62 1.62 0 0 1 1.617 1.624 1.62 1.62 0 0 1-1.617 1.623h-8.895a1.62 1.62 0 0 1-1.617-1.623" class="dynamic-color"/>
    <path fill="#2F2E41" fill-rule="evenodd" d="M85.205 76.176A46.1 46.1 0 0 1 107.341 61.1a46.07 46.07 0 0 1 26.773-.223 46.1 46.1 0 0 1 22.383 14.704 46.2 46.2 0 0 1 10.449 24.675 46.14 46.14 0 0 1-15.569 39.674L181 179.043 174.812 184l-29.569-39.558a45.9 45.9 0 0 1-19.246 6.586 49 49 0 0 1-4.991.266 46.13 46.13 0 0 1-24.548-7.172 46.2 46.2 0 0 1-16.966-19.151 46.25 46.25 0 0 1 5.713-48.858zm-2.394 33.08a38.56 38.56 0 0 0 11.288 23.386 38.48 38.48 0 0 0 48.662 4.388 38.54 38.54 0 0 0 15.282-20.99 38.58 38.58 0 0 0-1.491-25.93 38.53 38.53 0 0 0-17.586-19.096 38.47 38.47 0 0 0-25.697-3.594 38.5 38.5 0 0 0-22.142 13.54 38.33 38.33 0 0 0-8.316 28.296" clip-rule="evenodd"/>
</svg>
