<svg xmlns="http://www.w3.org/2000/svg" fill="none" viewBox="0 0 184 184">
    <path fill="#FFC33E" d="M81.452 164.708s26.902 3.448 48.055-16.089c21.383-19.537 27.591-50.106 33.11-74.93 5.518-24.822-5.519-46.198-26.442-52.404s-30.121 11.722-56.103 18.388c-25.98 6.435-33.798 4.367-52.192 23.904s-14.716 55.392 8.047 77.457c22.763 21.835 45.526 23.674 45.526 23.674" class="dynamic-color" opacity=".15"/>
    <path fill="#FFC33E" d="m98.467 163.559-20.694.46c-6.898-1.379-22.533-5.976-38.628-20.227l-3.909-15.629-16.784-17.009-.46-.459.23-.46 8.507-15.63c8.737-11.032 27.132-10.342 27.132-10.342 9.197-.69 18.164 0 27.131 1.609 14.715 2.758 13.566 12.641 13.566 12.641l2.07 35.856z" class="dynamic-color"/>
    <path fill="#FFC33E" d="m64.207 163.099-48.284.46c-2.76 0-5.289-.69-7.588-1.839s-4.369-3.218-5.748-5.286c-1.38-2.299-2.3-4.827-2.53-7.585s.23-5.287 1.38-7.815l20.694-38.384 18.854 12.641-12.876 26.892 39.088.69zm28.512-70.332 38.857 59.989-22.763 1.379s-13.565-21.375-13.335-20.916c.69.69-2.76-40.452-2.76-40.452" class="dynamic-color"/>
    <path fill="#263238" d="M40.065 118.739c0-.229.23-.459.23-.919.23-.69.46-1.839.69-3.218q.345-2.069.69-4.827c.23-2.068.23-3.907 0-5.975-.23-1.839-.92-3.908-2.07-5.517-.92-1.379-1.84-2.758-2.76-3.907-.689-.92-1.609-1.609-2.298-2.299-.23-.23-.69-.46-.92-.69 0 0 .23 0 .23.23.23.23.46.23.69.46.92.69 1.61 1.38 2.529 2.299 1.15 1.15 2.07 2.528 2.989 3.907 1.15 1.61 1.84 3.678 2.07 5.517.23 2.068.23 3.907 0 5.975-.23 1.609-.46 3.218-.92 4.827-.23 1.379-.46 2.528-.92 3.218 0 .46-.23.69-.23.919m-1.609 2.299c0 .23-.23.689-.23.919-.23.46-.46 1.379-.92 2.299-.92 1.838-2.07 4.597-3.449 7.585s-2.76 5.516-3.679 7.355c-.46.919-.92 1.609-1.15 2.298-.23.23-.23.46-.46.69 0-.23.23-.69.46-.92l1.15-2.298 3.679-7.355c1.38-2.988 2.76-5.517 3.679-7.585.46-.92.92-1.609 1.15-2.299-.46-.229-.46-.459-.23-.689"/>
    <path fill="#263238" d="M64.207 163.099v-1.609c0-.919.23-2.528.46-4.367.46-3.677.92-8.964 1.61-15.169l.23.229H19.83h47.136c-.69 6.206-1.38 11.263-1.84 15.17-.23 1.839-.46 3.218-.46 4.367 0 .46 0 .92-.23 1.149z"/>
    <path fill="#263238" d="M28.569 142.643c-.46-.46-.69-.69-.92-1.149-1.61-1.839-3.449-3.448-5.748-4.827l-1.38-.689c.46.229.92.229 1.38.459 2.299 1.149 4.138 2.758 5.748 4.827.46.46.69.919.92 1.379m68.518 3.678v-.46c0-.46 0-.919-.23-1.379-.23-1.149-.23-2.988-.46-5.287-.46-4.367-.92-10.572-1.15-17.468-.46-6.895-.689-12.871-.919-17.468 0-2.298-.23-3.907-.23-5.286v-1.38 1.38c0 1.379.23 2.988.23 5.286.23 4.367.46 10.573.92 17.468.46 6.896.92 12.872 1.15 17.468.23 2.299.23 3.908.46 5.287v1.379c.23.23.23.46.23.46"/>
    <path fill="#E0E0E0" d="M53.86 113.913v-.69c0-.46.23-1.379.23-2.068.23-1.839.46-4.597.92-7.585l.23.229-3.679 2.529-3.678 2.528-.23.23v-.23c.46-2.988.92-5.516 1.15-7.355.23-.919.23-1.609.46-2.068 0-.23 0-.46.229-.69v.69c0 .46-.23 1.149-.23 2.068-.23 1.839-.69 4.367-.92 7.355l-.23-.23 3.68-2.528 3.678-2.528.23-.23v.23c-.46 2.988-.92 5.516-1.15 7.355-.23.919-.23 1.609-.23 2.068-.23.23-.23.46-.46.92m21.614 2.298-.46-.46-1.61-1.609-5.058-5.516h.23c-.23 1.379-.23 2.988-.46 4.597s-.23 3.218-.46 4.597v.23l-.23-.23-5.058-5.516-1.15-2.069c-.23-.23-.23-.46-.46-.689l.46.459 1.38 1.609 5.058 5.516h-.23c.23-1.379.23-2.988.46-4.596s.23-3.218.46-4.597v-.23l.23.23 5.059 5.516 1.38 1.609c.229.689.459.919.459 1.149m10.806-.92c0 .23-.23.46-.46.69l-1.149 1.839-4.139 6.435-.23-.229 4.37-.69 4.598-.69h.23l-.23.23-4.139 6.206-.92 1.609c-.23.23-.23.46-.46.69 0-.23.23-.46.46-.69l1.15-1.839 4.139-6.206.23.23-4.599.69-4.369.689h-.23l.23-.229 4.14-6.206 1.149-1.839c0-.23.23-.46.23-.69m-14.256 11.263c0 .23-.23.46-.46.689l-1.15 1.839-4.138 6.206-.23-.23 4.368-.689 4.6-.69h.229l-.23.23-4.139 6.206-1.15 1.839c-.23.229-.23.459-.46.689 0-.23.23-.46.46-.689.23-.46.69-1.15 1.15-1.839l4.14-6.206.229.23-4.599.689-4.368.69h-.23l.23-.23 4.138-6.206c.46-.689.92-1.379 1.15-1.839 0-.459.23-.689.46-.689m31.04-11.263c0 .23-.23.46-.46.69l-1.149 1.839-4.139 6.435v-.459l4.369-.69 4.598-.689h.23l-.23.229-4.138 6.206c-.46.69-.92 1.379-1.15 1.839l1.15-1.839 4.138-6.206.23.23-4.598.69-4.369.689h-.23l.23-.229 4.139-6.206 1.149-1.839c0-.46.23-.46.23-.69m18.165 28.731c-.23-.23-.46-.23-.46-.459l-1.84-1.38-5.288-5.286h.23c0 1.379 0 2.988-.23 4.597 0 1.609-.23 3.218-.23 4.597v.23l-.23-.23-5.288-5.287-1.61-1.609-.46-.459c.23.23.46.23.46.459l1.61 1.609 5.288 5.287h-.23c0-1.379 0-2.988.23-4.597s0-3.218.23-4.597v-.23l.23.23 5.288 5.286 1.61 1.609c.23 0 .46.23.69.23m-91.282-37.924c0 .23-.23.46-.46.689l-1.15 1.839-3.908 6.206-.23-.23 4.369-.689 4.598-.69h.23l-.23.23-4.139 6.206-1.15 1.838c-.23.23-.23.46-.46.69 0-.23.23-.46.46-.69l1.15-1.838q1.725-2.414 4.14-6.206l.23.23-4.6.689-4.368.69h-.23l.23-.23c1.61-2.528 3.219-4.597 4.139-6.206l1.15-1.839c0-.459.23-.689.23-.689M7.415 148.849l.46.46 1.38 1.609 4.828 5.976h-.23c.23-1.379.46-2.988.69-4.597s.46-3.218.69-4.597v-.23l.23.23 4.598 5.976 1.38 1.609c.23.23.23.459.46.689l-.46-.459-1.61-1.379-4.598-5.747h.23c-.23 1.379-.46 2.988-.69 4.597s-.46 2.988-.69 4.367v.23l-.23-.23-4.598-5.976-1.38-1.609c-.23-.459-.46-.689-.46-.919m51.734-27.811h-.69l-2.3.46-7.587.459v-.23l3.22 2.988 3.448 3.218.23.23h-.23l-7.587.46h-2.07l2.07-.23 7.587-.46v.23l-3.449-3.218-3.219-3.218-.23-.229h.23l7.588-.46zm-12.646 28.96.46.46 1.38 1.609 4.828 5.746h-.23c.23-1.379.46-2.988.46-4.597.23-1.609.46-3.218.46-4.597v-.23l.23.23 4.828 5.746 1.38 1.609c.23.23.23.46.46.69l-.46-.46-1.38-1.609-4.598-5.286h.23c-.23 1.379-.46 2.988-.46 4.597-.23 1.608-.46 2.988-.46 4.596v.23l-.46-.459-4.829-5.747-1.38-1.608c-.23-.46-.46-.69-.46-.92M23.74 128.853h-.69l-2.07.229-7.587.46v-.23l3.22 3.218 3.448 3.218.23.23h-.46l-7.587.459h-2.07l2.07-.229 7.587-.46v.23l-3.449-3.218-3.219-3.218 7.588-.46h2.07c.46-.229.69-.229.919-.229m19.544 20.456h-.69l-2.07.229-7.587.46v-.23l3.22 3.218 3.448 3.218.23.23h-.23l-7.588.459h-2.069l2.07-.229 7.587-.46v.23l-3.679-3.218-3.219-2.988-.23-.23h.23l7.588-.46h2.3c.23-.229.459-.229.689-.229M87.2 97.134h-.69l-2.069.23-7.588.46v-.23l3.22 2.988 3.448 3.217.23.23h-.23l-7.587.46h-2.07l2.07-.23 7.587-.46v.23l-3.449-3.218-3.219-3.218-.23-.23h.23l7.588-.459h2.3c0 .23.23.23.46.23"/>
    <path fill="#FFBE9D" d="m65.817 149.309 12.876-3.678c1.15-.23 6.668 2.528 10.347 4.827 0 0 5.058 2.988 4.598 3.907-.46.92-2.3.92-5.288-.46 0 0 1.15 2.988-.92 2.988 0 0 .92 3.218-.92 3.678-1.839.23-2.299-3.907-4.138-4.137-1.61-.23-5.059-.46-5.059-.46s-2.989 4.827-5.058 5.057c-2.3.229-7.358-.23-7.358-.23z"/>
    <path fill="#3B1919" fill-opacity=".2" d="M82.372 149.998c.92.46 1.84.92 2.759 1.609.92.46 1.84 1.149 2.53 1.839-1.84-.919-3.68-2.069-5.29-3.448m-.689 1.839c1.15.459 2.07.689 3.219 1.379 1.15.46 2.07.919 2.989 1.609-1.15-.23-2.07-.69-3.22-1.379-.919-.46-1.838-.92-2.988-1.609m1.15 4.597c1.38 0 2.989.23 4.368.46-1.61 0-2.989 0-4.368-.46"/>
    <path fill="#263238" d="M53.4 49.786c0 .46.23.69 0 1.15 0 .459-.23.689-.689.919-.23.23-.69.46-1.15.46s-.69 0-1.15-.23c-1.379-.69-1.379-2.529-1.149-3.908s.69-2.988.23-4.367c-.46-.92-1.38-1.609-2.3-2.528-.69-.69-1.149-1.61-1.609-2.529s-.46-1.838-.23-2.988c.23-.919.69-1.838 1.15-2.528.92-.46 1.61-.92 2.53-1.379 1.839-.46 4.368 0 5.747-1.379 1.15-.92 1.15-2.758 1.84-3.907 1.38-1.61 3.909-2.069 6.208-1.61 2.3.23 4.598.92 6.668.46 1.84-.46 3.219-1.838 5.058-2.528 1.84-.92 3.909-1.15 5.978-.69s3.91 1.38 5.289 2.989c1.38 1.379 2.299 3.447 2.529 5.516s0 4.137-.92 5.976c-.69 1.379-1.61 2.298-2.989 2.988"/>
    <path fill="#FFBE9D" d="M64.437 97.134c1.38 0 2.99-.23 4.369-.92 1.38-.459 2.53-1.378 3.679-2.528.92-1.149 1.84-2.298 2.3-3.677s.919-2.758.689-4.367l-.23-10.113s8.967-.92 9.427-9.654c.69-8.734.23-28.96.23-28.96-4.828-2.528-10.347-3.448-15.635-3.218-5.518.46-10.577 2.299-15.175 5.286l-1.38.92.69 46.429c0 2.987 1.15 5.746 3.219 7.814a11.8 11.8 0 0 0 7.817 2.988"/>
    <path fill="#263238" d="M82.602 52.774c-.23 0-.69-.23-.92-.46s-.23-.46-.23-.92c0-.229.23-.689.23-.919.23-.23.46-.46.92-.46h.23c.23 0 .69.23.92.46s.23.46.23.92c0 .23-.23.69-.23.92-.46.23-.69.459-1.15.459m1.609-2.988c-.23.23-.92-.46-2.07-.69-1.149 0-2.068.46-2.298.23s0-.23.46-.689c.46-.23 1.15-.46 1.839-.46s1.15.23 1.84.69c.23.69.46.92.23.92m-14.026.459c.23.23.46.46.46.69v.689c0 .23-.23.46-.46.69s-.46.229-.69.229h-.69c-.23 0-.46-.23-.46-.46s-.23-.46-.23-.69 0-.459.23-.689.46-.46.92-.46c.46-.23.69-.23.92 0"/>
    <path fill="#263238" d="M71.105 50.246c-.23.23-.92-.46-2.07-.69-1.149 0-2.068.46-2.298.23 0 0 0-.23.46-.69.46-.23 1.15-.46 1.839-.46s1.15.23 1.84.69c.23.46.23.92.23.92m4.368 10.114s.69-.23 2.07-.23c.23 0 .46 0 .69-.23 0-.23 0-.69-.23-.92-.23-.92-.46-1.609-.92-2.528-1.15-3.678-1.84-6.436-1.61-6.666.23 0 1.15 2.758 2.3 6.436.23.92.46 1.609.69 2.528q.344.69 0 1.38c0 .23-.23.23-.23.23l-.23.229h-.46c-1.38 0-2.07 0-2.07-.23"/>
    <path fill="#fff" d="M71.335 61.508c1.84.92 3.91 1.609 5.749 2.069-.46.69-1.15 1.149-1.84 1.149s-1.61.23-2.3-.23c-2.299-.92-1.609-2.988-1.609-2.988"/>
    <path fill="#3B1919" fill-opacity=".2" d="M75.244 75.299c-4.139-.23-8.047-1.609-11.266-3.908 0 0 2.299 6.436 11.266 6.206z"/>
    <path fill="#263238" d="M84.901 38.983s-5.288 2.759-12.416-.69c-4.599-2.297-9.887-3.217-11.037-2.297s-1.38 5.746-5.748 7.125c0 0 .46 8.964-3.219 8.734s-1.61-14.25-1.61-14.25l8.738-4.368 9.427-2.068 8.967 1.149 6.898 1.839z"/>
    <path fill="#FFBE9D" d="M53.17 49.097c-.229 0-5.977-2.069-5.977 3.907-.23 5.976 5.978 4.827 5.978 4.827z"/>
    <path fill="#3B1919" fill-opacity=".2" d="m51.331 55.302-.23.23h-.69c-.69-.23-1.149-1.379-1.149-2.298 0-.46 0-.92.23-1.61 0-.23.23-.459.23-.459.23-.23.23-.23.46-.23h.46l.23.23v.23s.23 0 0-.23c0-.23 0-.23-.23-.46s-.46-.23-.46-.23c-.23 0-.46.23-.69.23-.23.23-.46.46-.46.69-.23.46-.46 1.15-.46 1.609 0 1.149.69 2.298 1.38 2.528h.46c.23 0 .23 0 .46-.23.46.23.46 0 .46 0"/>
    <path fill="#263238" d="M50.182 30.25q1.035-.345 2.07 0c.689.229 1.149.689 1.609 1.378-.46-.46-1.15-.69-1.61-.92-.69-.229-1.38-.459-2.07-.459m3.679-3.677s0 1.379.23 2.758c.23.92.46 1.838.92 2.528 0 0-.23-.23-.46-.69-.23-.69-.46-1.149-.69-1.838-.46-.92-.23-1.84 0-2.758m24.603 20.456s.23-.23.69-.46c1.38-.46 2.759-.46 3.908 0 .46.23.69.46.69.46 0 .23-1.15-.23-2.759-.23-1.61 0-2.3.46-2.53.23m-13.335-1.379s.23-.23.69-.46c.69-.23 1.38-.46 2.07-.46s1.379.23 2.069.46c.46.23.69.46.69.46s-1.15-.23-2.76-.23-2.759.46-2.759.23m12.416 2.298v2.988c0 .69 0 1.38.23 1.839q.345 1.38 1.38 2.069c.69.69 1.38.919 2.299 1.149.46.23.92.23 1.38.23s.92-.23 1.61-.23c.919-.46 1.839-1.15 2.528-2.069.46-.92.92-1.839.69-2.988v-2.988l.23.23h-9.428zH88.12v2.988c0 1.15-.23 2.069-.92 2.988-.69.92-1.61 1.61-2.529 2.069-.46.23-1.15.23-1.61.23s-1.15 0-1.609-.23c-.92-.23-1.61-.69-2.3-1.15-.69-.689-1.149-1.378-1.379-2.298-.23-.69-.23-1.379-.23-2.068zm-14.025-.23v2.988c0 .69 0 1.38.23 1.839q.345 1.034 1.379 2.069c.69.69 1.38 1.149 2.3 1.379s2.069.23 2.988-.23c.92-.46 1.84-1.15 2.53-2.069.46-.92.92-1.838.92-2.988v-2.988l.23.23h-9.428zh10.577v3.218c0 1.15-.23 2.069-.92 2.988-.69.92-1.609 1.609-2.529 2.069-.46.23-1.15.23-1.61.23s-1.149 0-1.609-.23c-.92-.23-1.84-.69-2.529-1.38q-1.035-1.034-1.38-2.068c-.23-.69-.23-1.38-.23-2.069v-2.528s0-.23.23-.23"/>
    <path fill="#263238" d="M77.543 48.407c-1.38.23-2.759.23-3.909 0 1.38-.23 2.76-.23 3.91 0m-25.063 0c1.84-.23 3.679-.23 5.518-.23 1.84 0 3.68 0 5.519.23-1.84.23-3.68.23-5.519.23-1.84 0-3.678 0-5.518-.23"/>
    <path fill="#FFBE9D" d="M111.573 156.664c1.379 2.298 3.219 4.367 5.518 5.746s5.058 1.838 7.818 1.609c3.219-.23 6.208-1.609 8.507-3.678s3.909-5.057 4.369-8.274l3.219-38.154-13.106-3.218-5.519 29.879s-2.759 12.412-10.806 16.09"/>
    <path fill="#FFBE9D" d="m127.667 113.453.46-6.666s1.84-14.94 1.84-16.548c0-1.61.919-2.069 1.379-2.069.92 0 1.61 1.15 1.61 2.758v8.505c.46-.69.92-1.38 1.609-2.07 1.15-1.378 3.909-2.298 6.668-2.298s3.679.46 3.679 1.38c0 .23 0 .46-.23.689 0 .23-.23.23-.46.46-.46.46-1.149.69-1.839.69-4.599 0-5.748 2.298-5.748 2.298v.919s2.759-2.068 4.828-1.149c.23.23.69.23.92.46.69 0 1.15.229 1.839.459q.69.345 1.38 1.379c.23.46.46 1.15.46 1.839s-.23 1.149-.46 1.839c-.23.23-.23.459-.46.689s-.46.23-.92.23c-.23 0-.689-.23-.689-.46-.23 0-.23-.229-.46-.229l-.46 2.528s-1.38 5.286-1.84 7.815"/>
    <path fill="#FFBE9D" d="M129.047 112.993c.92.23 1.61-.46 2.069-1.149.46-.69.69-1.609.92-2.299 1.15-2.298 3.909-3.447 5.059-5.746.229-.23.229-.689 0-.919-.23-.23-.69 0-.92.23l-7.358 4.137"/>
    <path fill="#3B1919" fill-opacity=".2" d="M128.817 107.017c.23-.23.46-.459.69-.459q.69-.345 2.069-1.379l3.219-1.839.92-.46c.46-.23.69-.46 1.15-.46.23 0 .23.23.23.23s.23.23.23.46 0 .46-.23.689c-.23.46-.46.69-.69 1.15-.92 1.379-2.299 2.298-3.449 3.218-.46.459-.92.919-1.15 1.608-.23.46-.46 1.15-.689 1.609-.23.46-.46.69-.69 1.15-.23.229-.69.459-1.15.689-.69.23-.92 0-.92 0 .23 0 .69 0 .92-.23.46-.23.69-.459.92-.689s.46-.69.46-1.15c.23-.459.46-1.149.689-1.608.23-.69.69-1.15 1.15-1.609.92-.92 2.299-1.839 3.219-3.218.23-.23.46-.69.46-.92.23-.229.23-.689 0-.689s-.46.23-.92.23l-.919.459-2.3 1.609c-.919.46-1.609.92-2.299 1.15-.23.229-.46.229-.92.459m8.048-5.516c0-.46.23-1.149.46-1.609s.919-.92 1.379-.92c.69-.23 1.38-.23 2.07-.23.689 0 1.609 0 2.299-.229.69-.23 1.15-.46 1.609-.92l.46-.46v-.689c0-.23 0-.23-.23-.46v.46c0 .23 0 .46-.23.46 0 .23-.23.23-.459.46-.46.46-.92.69-1.61.69-.69.23-1.38.23-2.299.23-.69 0-1.61 0-2.3.459-.689.23-1.149.69-1.379 1.15s-.46.689-.46 1.148c.46 0 .46.23.69.46m-3.679-11.033v10.573c.23-.46.23-1.15.23-1.609v-3.907c0-1.61 0-2.758-.23-3.907.23-.23.23-.69 0-1.15m5.288 12.872c.23 0 .23 0 .46-.23.23 0 .46-.23.69-.23h.69c.229 0 .229.23.229.23 0 .23 0 .23.23.459v.92c0 .46 0 .919.23 1.149s.23.46.46.46.46.23.69.23.46 0 .69-.23c.23 0 .46-.23.46-.46.23-.23.459-.689.459-1.149v-2.069c0-.459-.229-.919-.459-1.379.23.46.23.92.23 1.379v1.839c0 .46-.23.69-.46.919s-.69.46-.92.46-.46 0-.46-.23c-.23 0-.23-.23-.46-.459-.23-.23-.23-.69-.23-.92v-1.149c0-.23 0-.23-.23-.46 0-.23-.23-.23-.459-.23-.23 0-.46-.229-.69 0-.23 0-.46 0-.69.23-.23.69-.46.69-.46.92"/>
    <path fill="#3B1919" fill-opacity=".2" d="M143.073 105.868v.46c0 .23.23.459.46.459.229.23.459.23.459.23h.92c.23 0 .46-.23.69-.459.46-.46.69-1.379.69-2.069s-.23-1.609-.69-2.069-.92-.919-1.38-1.149c-.23-.23-.46-.46-.919-.46h-.46c.46 0 1.149.23 1.609.46s.92.69 1.38 1.149c.46.69.69 1.15.46 1.839 0 .69-.23 1.379-.69 1.839-.23.23-.46.46-.69.46h-.92c-.23 0-.459-.23-.459-.23-.23 0-.23-.23-.46-.46m-5.518 5.287h-.69c-.69.229-1.15.459-1.61.919h.23c0-.46 0-.69-.23-1.149-.23-1.15-.69-2.299-1.609-3.218l1.379 3.448c0 .459.23.689.23.919v.46l.23-.23c.46-.46.92-.92 1.38-.92.46-.229.69-.229.69-.229m.229-13.561s.23.46.92.919c.69.23 1.38.23 1.38 0 0 0-.46 0-1.15-.23-.69-.46-1.15-.69-1.15-.69"/>
    <path fill="#FFC33E" d="m125.598 117.82 16.785 1.149s-2.529 29.65-2.989 34.247-3.449 11.492-13.566 11.492-12.186-3.447-16.785-10.573c5.289-3.677 13.796-14.71 13.796-14.71zm36.099-73.32-17.015-6.206-16.785 5.976c-2.069.919-4.138 1.608-4.138 3.677V58.06c0 7.125 1.839 14.02 5.518 19.997 3.679 5.976 9.197 10.802 15.635 13.79 6.898-2.298 11.956-8.274 15.175-13.33 3.679-5.977 5.519-12.872 5.519-19.997v-8.964c0-2.988-1.61-4.367-3.909-5.057" class="dynamic-color"/>
    <path fill="#000" d="M144.682 85.871c-5.058-2.298-9.427-6.205-12.416-11.032s-4.369-10.113-4.369-15.86v-6.895c0-1.609.92-2.988 2.76-3.907l13.795-5.057v-4.826l-16.784 5.976c-1.84.69-4.139 1.608-4.139 3.677V58.06c0 7.125 1.839 14.02 5.518 19.997 3.679 5.976 9.197 10.802 15.635 13.79z" opacity=".3"/>
    <path fill="#000" d="m144.682 91.618 3.449-1.38c2.529-1.608 5.058-3.447 7.128-5.516 1.839-2.068 3.449-4.367 4.828-6.665 3.679-5.976 5.519-13.101 5.289-20.226v-8.275c0-4.137-2.07-4.367-3.909-5.286l-17.015-6.206v4.827l13.796 5.286c1.839.92 2.759 2.299 2.759 3.907v7.126c0 5.516-1.61 11.032-4.369 15.859s-7.127 8.504-12.186 10.803z" opacity=".4"/>
    <path fill="#fff" d="M130.657 58.52c-.23-.46-.23-.92-.23-1.379-.23-1.15-.23-2.298-.23-3.448 0-.69 0-1.379.23-1.838 0-.46.23-1.15.46-1.61.229-.23.459-.689.689-.689h.46c-.46.23-.69.46-.92.92-.229.46-.229.919-.229 1.379v5.286c-.23.46 0 .92-.23 1.38m.229 4.366s-.23-.46-.23-.92c0-.459 0-.919.23-.919 0 0 .23.46.23.92s0 .919-.23.919"/>
    <path fill="#263238" fill-opacity=".5" d="M144.912 61.048a4.138 4.138 0 1 0-4.139-4.137 4.14 4.14 0 0 0 4.139 4.137m5.978 10.343c1.38 0 2.3-1.149 2.07-2.298-.92-3.448-4.139-5.976-8.048-5.976-3.679 0-6.898 2.528-8.047 5.976-.46 1.149.689 2.298 2.069 2.298z"/>
    <path fill="#263238" d="m114.102 115.291-19.084 47.118h-34.26v2.069h102.319L184 115.291z"/>
    <path fill="#FAFAFA" d="M143.073 143.103c-.69 2.298-2.759 3.907-4.599 3.447-1.839-.459-2.759-2.758-2.069-5.286.69-2.529 2.759-3.908 4.598-3.448 2.07.69 2.759 2.988 2.07 5.287"/>
</svg>
