<svg xmlns="http://www.w3.org/2000/svg" xml:space="preserve" id="rgpd" width="81" height="64" x="0" y="0" version="1.1">
    <style>
        .st1{fill:#ffc33e}.st2{fill:#263238}.st4{fill:#ffbe9d}.st5{fill:#eb996e}.st6{fill:#fff}.st9{fill:#263238;fill-opacity:.5}
    </style>
    <path id="bg" d="M35.8 63.8s11.7 1.5 20.9-7c9.3-8.5 12-21.8 14.4-32.6S68.7 4.1 59.6 1.4s-13.1 5.1-24.4 8c-11.3 2.8-14.7 1.9-22.7 10.4S6.1 43.9 16 53.5c9.9 9.5 19.8 10.3 19.8 10.3" style="opacity:.15;fill:#ffc33e"/>
    <g id="character">
        <path d="m43.2 63.3-9 .2c-3-.6-9.8-2.6-16.8-8.8l-1.7-6.8-7.3-7.4-.2-.2.1-.2 3.7-6.8c3.8-4.8 11.8-4.5 11.8-4.5 4-.3 7.9 0 11.8.7 6.4 1.2 5.9 5.5 5.9 5.5l.9 15.6z" class="st1"/>
        <path d="m28.3 63.1-21 .2c-1.2 0-2.3-.3-3.3-.8s-1.9-1.4-2.5-2.3c-.6-1-1-2.1-1.1-3.3s.1-2.3.6-3.4l9-16.7 8.2 5.5L12.6 54l17 .3zm12.4-30.6 16.9 26.1-9.9.6s-5.9-9.3-5.8-9.1c.3.3-1.2-17.6-1.2-17.6" class="st1"/>
        <path d="M17.8 43.9v-.1c0-.1.1-.2.1-.4.1-.3.2-.8.3-1.4s.2-1.3.3-2.1c.1-.9.1-1.7 0-2.6-.1-.8-.4-1.7-.9-2.4-.4-.6-.8-1.2-1.2-1.7-.3-.4-.7-.7-1-1-.1-.1-.3-.2-.4-.3 0 0 .1 0 .1.1.1.1.2.1.3.2.4.3.7.6 1.1 1 .5.5.9 1.1 1.3 1.7.5.7.8 1.6.9 2.4.1.9.1 1.7 0 2.6-.1.7-.2 1.4-.4 2.1-.1.6-.2 1.1-.4 1.4 0 .2-.1.3-.1.4zm-.7.9c0 .1-.1.3-.1.4-.1.2-.2.6-.4 1-.4.8-.9 2-1.5 3.3s-1.2 2.4-1.6 3.2c-.2.4-.4.7-.5 1-.1.1-.1.2-.2.3 0-.1.1-.3.2-.4l.5-1 1.6-3.2c.6-1.3 1.2-2.4 1.6-3.3.2-.4.4-.7.5-1-.2-.1-.2-.2-.1-.3" class="st2"/>
        <path d="M28.3 63.1v-.7c0-.4.1-1.1.2-1.9.2-1.6.4-3.9.7-6.6l.1.1H7.8h21.7c-.3 2.7-.6 4.9-.8 6.6-.1.8-.2 1.4-.2 1.9 0 .2 0 .4-.1.5z" class="st2"/>
        <path d="M12.8 54.2c-.2-.2-.3-.3-.4-.5-.7-.8-1.5-1.5-2.5-2.1l-.6-.3c.2.1.4.1.6.2 1 .5 1.8 1.2 2.5 2.1.2.2.3.4.4.6m29.8 1.6v-.2c0-.2 0-.4-.1-.6-.1-.5-.1-1.3-.2-2.3-.2-1.9-.4-4.6-.5-7.6-.2-3-.3-5.6-.4-7.6 0-1-.1-1.7-.1-2.3v-.8.8c0 .6.1 1.3.1 2.3.1 1.9.2 4.6.4 7.6s.4 5.6.5 7.6c.1 1 .1 1.7.2 2.3v.6c.1.1.1.2.1.2" class="st2"/>
        <path d="M23.8 41.7v-.3c0-.2.1-.6.1-.9.1-.8.2-2 .4-3.3l.1.1-1.6 1.1-1.6 1.1-.1.1v-.1c.2-1.3.4-2.4.5-3.2.1-.4.1-.7.2-.9 0-.1 0-.2.1-.3v.3c0 .2-.1.5-.1.9-.1.8-.3 1.9-.4 3.2l-.1-.1 1.6-1.1 1.6-1.1.1-.1v.1c-.2 1.3-.4 2.4-.5 3.2-.1.4-.1.7-.1.9-.1.1-.1.2-.2.4m9.4 1-.2-.2-.7-.7-2.2-2.4h.1c-.1.6-.1 1.3-.2 2s-.1 1.4-.2 2v.1l-.1-.1-2.2-2.4-.5-.9c-.1-.1-.1-.2-.2-.3l.2.2.6.7 2.2 2.4h-.1c.1-.6.1-1.3.2-2s.1-1.4.2-2V39l.1.1 2.2 2.4.6.7c.1.3.2.4.2.5m4.7-.4c0 .1-.1.2-.2.3l-.5.8-1.8 2.8-.1-.1 1.9-.3 2-.3h.1l-.1.1-1.8 2.7-.4.7c-.1.1-.1.2-.2.3 0-.1.1-.2.2-.3l.5-.8 1.8-2.7.1.1-2 .3-1.9.3h-.1l.1-.1 1.8-2.7.5-.8c0-.1.1-.2.1-.3m-6.2 4.9c0 .1-.1.2-.2.3l-.5.8-1.8 2.7-.1-.1 1.9-.3 2-.3h.1l-.1.1-1.8 2.7-.5.8c-.1.1-.1.2-.2.3 0-.1.1-.2.2-.3.1-.2.3-.5.5-.8l1.8-2.7.1.1-2 .3-1.9.3h-.1l.1-.1 1.8-2.7c.2-.3.4-.6.5-.8 0-.2.1-.3.2-.3m13.5-4.9c0 .1-.1.2-.2.3l-.5.8-1.8 2.8V46l1.9-.3 2-.3h.1l-.1.1-1.8 2.7c-.2.3-.4.6-.5.8-.1.1-.1.2-.2.3.1-.1.1-.2.2-.3l.5-.8 1.8-2.7.1.1-2 .3-1.9.3h-.1l.1-.1 1.8-2.7.5-.8c0-.2.1-.2.1-.3m7.9 12.5c-.1-.1-.2-.1-.2-.2l-.8-.6-2.3-2.3h.1c0 .6 0 1.3-.1 2 0 .7-.1 1.4-.1 2v.1l-.1-.1-2.3-2.3-.7-.7-.2-.2c.1.1.2.1.2.2l.7.7 2.3 2.3h-.1c0-.6 0-1.3.1-2s0-1.4.1-2v-.1l.1.1 2.3 2.3.7.7c.1 0 .2.1.3.1M13.4 38.3c0 .1-.1.2-.2.3l-.5.8-1.7 2.7-.1-.1 1.9-.3 2-.3h.1l-.1.1-1.8 2.7-.5.8c-.1.1-.1.2-.2.3 0-.1.1-.2.2-.3l.5-.8q.75-1.05 1.8-2.7l.1.1-2 .3-1.9.3h-.1l.1-.1c.7-1.1 1.4-2 1.8-2.7l.5-.8c0-.2.1-.3.1-.3M3.6 56.9l.2.2.6.7 2.1 2.6h-.1c.1-.6.2-1.3.3-2s.2-1.4.3-2v-.1l.1.1 2 2.6.6.7c.1.1.1.2.2.3l-.2-.2-.7-.6-2-2.5h.1c-.1.6-.2 1.3-.3 2s-.2 1.3-.3 1.9v.1l-.1-.1-2-2.6-.6-.7c-.1-.2-.2-.3-.2-.4m22.5-12.1h-.3l-1 .2-3.3.2v-.1l1.4 1.3 1.5 1.4.1.1h-.1l-3.3.2h-1.2.3l.9-.1 3.3-.2v.1l-1.5-1.4-1.4-1.4-.1-.1h.1l3.3-.2zm-5.5 12.6.2.2.6.7 2.1 2.5h-.1c.1-.6.2-1.3.2-2 .1-.7.2-1.4.2-2v-.1l.1.1 2.1 2.5.6.7c.1.1.1.2.2.3l-.2-.2-.6-.7-2-2.3h.1c-.1.6-.2 1.3-.2 2-.1.7-.2 1.3-.2 2v.1l-.2-.2-2.1-2.5-.6-.7c-.1-.2-.2-.3-.2-.4m-9.9-9.2h-.3l-.9.1-3.3.2v-.1l1.4 1.4 1.5 1.4.1.1H9l-3.3.2H4.5h.3l.9-.1 3.3-.2v.1l-1.5-1.4-1.4-1.4H6h.1l3.3-.2h.9c.2-.1.3-.1.4-.1m8.5 8.9h-.3l-.9.1-3.3.2v-.1l1.4 1.4 1.5 1.4.1.1h-.1l-3.3.2h-1.2.3l.9-.1 3.3-.2v.1L16 58.8l-1.4-1.3-.1-.1h.1l3.3-.2h1c.1-.1.2-.1.3-.1m19.1-22.7H38l-.9.1-3.3.2v-.1l1.4 1.3 1.5 1.4.1.1h-.1l-3.3.2h-1.2.3l.9-.1 3.3-.2v.1L35.2 36l-1.4-1.4-.1-.1h.1l3.3-.2h1c0 .1.1.1.2.1" style="fill:#e0e0e0"/>
        <path d="m29 57.1 5.6-1.6c.5-.1 2.9 1.1 4.5 2.1 0 0 2.2 1.3 2 1.7s-1 .4-2.3-.2c0 0 .5 1.3-.4 1.3 0 0 .4 1.4-.4 1.6-.8.1-1-1.7-1.8-1.8-.7-.1-2.2-.2-2.2-.2s-1.3 2.1-2.2 2.2c-1 .1-3.2-.1-3.2-.1z" class="st4"/>
        <path d="M36.2 57.4c.4.2.8.4 1.2.7.4.2.8.5 1.1.8-.8-.4-1.6-.9-2.3-1.5m-.3.8c.5.2.9.3 1.4.6.5.2.9.4 1.3.7-.5-.1-.9-.3-1.4-.6-.4-.2-.8-.4-1.3-.7m.5 2c.6 0 1.3.1 1.9.2-.7 0-1.3 0-1.9-.2" class="st5"/>
        <path d="M23.6 13.8c0 .2.1.3 0 .5 0 .2-.1.3-.3.4-.1.1-.3.2-.5.2s-.3 0-.5-.1c-.6-.3-.6-1.1-.5-1.7s.3-1.3.1-1.9c-.2-.4-.6-.7-1-1.1-.3-.3-.5-.7-.7-1.1s-.2-.8-.1-1.3c.1-.4.3-.8.5-1.1.4-.2.7-.4 1.1-.6.8-.2 1.9 0 2.5-.6.5-.4.5-1.2.8-1.7.6-.7 1.7-.9 2.7-.7 1 .1 2 .4 2.9.2.8-.2 1.4-.8 2.2-1.1.8-.4 1.7-.5 2.6-.3s1.7.6 2.3 1.3c.6.6 1 1.5 1.1 2.4s0 1.8-.4 2.6c-.3.6-.7 1-1.3 1.3" class="st2"/>
        <path d="M28.4 34.4c.6 0 1.3-.1 1.9-.4.6-.2 1.1-.6 1.6-1.1.4-.5.8-1 1-1.6s.4-1.2.3-1.9l-.1-4.4s3.9-.4 4.1-4.2c.3-3.8.1-12.6.1-12.6-2.1-1.1-4.5-1.5-6.8-1.4-2.4.2-4.6 1-6.6 2.3l-.6.4.3 20.2c0 1.3.5 2.5 1.4 3.4.9.8 2.1 1.3 3.4 1.3" class="st4"/>
        <path d="M36.3 15.1c-.1 0-.3-.1-.4-.2s-.1-.2-.1-.4c0-.1.1-.3.1-.4.1-.1.2-.2.4-.2h.1c.1 0 .3.1.4.2s.1.2.1.4c0 .1-.1.3-.1.4-.2.1-.3.2-.5.2m.7-1.3c-.1.1-.4-.2-.9-.3-.5 0-.9.2-1 .1s0-.1.2-.3c.2-.1.5-.2.8-.2s.5.1.8.3c.1.3.2.4.1.4m-6.1.2c.1.1.2.2.2.3v.3c0 .1-.1.2-.2.3s-.2.1-.3.1h-.3c-.1 0-.2-.1-.2-.2s-.1-.2-.1-.3 0-.2.1-.3.2-.2.4-.2c.2-.1.3-.1.4 0" class="st2"/>
        <path d="M31.3 14c-.1.1-.4-.2-.9-.3-.5 0-.9.2-1 .1 0 0 0-.1.2-.3.2-.1.5-.2.8-.2s.5.1.8.3c.1.2.1.4.1.4m1.9 4.4s.3-.1.9-.1c.1 0 .2 0 .3-.1 0-.1 0-.3-.1-.4-.1-.4-.2-.7-.4-1.1-.5-1.6-.8-2.8-.7-2.9.1 0 .5 1.2 1 2.8.1.4.2.7.3 1.1q.15.3 0 .6c0 .1-.1.1-.1.1l-.1.1h-.2c-.6 0-.9 0-.9-.1" class="st2"/>
        <path d="M31.4 18.9c.8.4 1.7.7 2.5.9-.2.3-.5.5-.8.5s-.7.1-1-.1c-1-.4-.7-1.3-.7-1.3" class="st6"/>
        <path d="M33.1 24.9c-1.8-.1-3.5-.7-4.9-1.7 0 0 1 2.8 4.9 2.7z" class="st5"/>
        <path d="M37.3 9.1s-2.3 1.2-5.4-.3c-2-1-4.3-1.4-4.8-1s-.6 2.5-2.5 3.1c0 0 .2 3.9-1.4 3.8s-.7-6.2-.7-6.2l3.8-1.9 4.1-.9 3.9.5 3 .8z" class="st2"/>
        <path d="M23.5 13.5c-.1 0-2.6-.9-2.6 1.7-.1 2.6 2.6 2.1 2.6 2.1z" class="st4"/>
        <path d="m22.7 16.2-.1.1h-.3c-.3-.1-.5-.6-.5-1 0-.2 0-.4.1-.7 0-.1.1-.2.1-.2.1-.1.1-.1.2-.1h.2l.1.1v.1s.1 0 0-.1c0-.1 0-.1-.1-.2s-.2-.1-.2-.1c-.1 0-.2.1-.3.1-.1.1-.2.2-.2.3-.1.2-.2.5-.2.7 0 .5.3 1 .6 1.1h.2c.1 0 .1 0 .2-.1.2.1.2 0 .2 0" class="st5"/>
        <path d="M22.2 5.3q.45-.15.9 0c.3.1.5.3.7.6-.2-.2-.5-.3-.7-.4-.3-.1-.6-.2-.9-.2m1.6-1.6s0 .6.1 1.2c.1.4.2.8.4 1.1 0 0-.1-.1-.2-.3-.1-.3-.2-.5-.3-.8-.2-.4-.1-.8 0-1.2m10.7 8.9s.1-.1.3-.2c.6-.2 1.2-.2 1.7 0 .2.1.3.2.3.2 0 .1-.5-.1-1.2-.1s-1 .2-1.1.1m-5.8-.6s.1-.1.3-.2c.3-.1.6-.2.9-.2s.6.1.9.2c.2.1.3.2.3.2s-.5-.1-1.2-.1-1.2.2-1.2.1m5.4 1v1.3c0 .3 0 .6.1.8q.15.6.6.9c.3.3.6.4 1 .5.2.1.4.1.6.1s.4-.1.7-.1c.4-.2.8-.5 1.1-.9.2-.4.4-.8.3-1.3V13l.1.1h-4.1zh4.6v1.3c0 .5-.1.9-.4 1.3s-.7.7-1.1.9c-.2.1-.5.1-.7.1s-.5 0-.7-.1c-.4-.1-.7-.3-1-.5-.3-.3-.5-.6-.6-1-.1-.3-.1-.6-.1-.9zc0 .1 0 0 0 0m-6.1-.1v1.3c0 .3 0 .6.1.8q.15.45.6.9c.3.3.6.5 1 .6s.9.1 1.3-.1.8-.5 1.1-.9c.2-.4.4-.8.4-1.3v-1.3l.1.1h-4.1zh4.6v1.4c0 .5-.1.9-.4 1.3s-.7.7-1.1.9c-.2.1-.5.1-.7.1s-.5 0-.7-.1c-.4-.1-.8-.3-1.1-.6q-.45-.45-.6-.9c-.1-.3-.1-.6-.1-.9V13s0-.1.1-.1" class="st2"/>
        <path d="M34.1 13.2c-.6.1-1.2.1-1.7 0 .6-.1 1.2-.1 1.7 0m-10.9 0c.8-.1 1.6-.1 2.4-.1s1.6 0 2.4.1c-.8.1-1.6.1-2.4.1s-1.6 0-2.4-.1" class="st2"/>
        <path d="M48.9 60.3c.6 1 1.4 1.9 2.4 2.5s2.2.8 3.4.7c1.4-.1 2.7-.7 3.7-1.6s1.7-2.2 1.9-3.6l1.4-16.6-5.7-1.4-2.4 13s-1.2 5.4-4.7 7" class="st4"/>
        <path d="m55.9 41.5.2-2.9s.8-6.5.8-7.2.4-.9.6-.9c.4 0 .7.5.7 1.2v3.7c.2-.3.4-.6.7-.9.5-.6 1.7-1 2.9-1s1.6.2 1.6.6c0 .1 0 .2-.1.3 0 .1-.1.1-.2.2-.2.2-.5.3-.8.3-2 0-2.5 1-2.5 1v.4s1.2-.9 2.1-.5c.1.1.3.1.4.2.3 0 .5.1.8.2q.3.15.6.6c.1.2.2.5.2.8s-.1.5-.2.8c-.1.1-.1.2-.2.3s-.2.1-.4.1c-.1 0-.3-.1-.3-.2-.1 0-.1-.1-.2-.1l-.2 1.1s-.6 2.3-.8 3.4" class="st4"/>
        <path d="M56.5 41.3c.4.1.7-.2.9-.5s.3-.7.4-1c.5-1 1.7-1.5 2.2-2.5.1-.1.1-.3 0-.4s-.3 0-.4.1l-3.2 1.8" class="st4"/>
        <path d="M56.4 38.7c.1-.1.2-.2.3-.2q.3-.15.9-.6l1.4-.8.4-.2c.2-.1.3-.2.5-.2.1 0 .1.1.1.1s.1.1.1.2 0 .2-.1.3c-.1.2-.2.3-.3.5-.4.6-1 1-1.5 1.4-.2.2-.4.4-.5.7-.1.2-.2.5-.3.7s-.2.3-.3.5c-.1.1-.3.2-.5.3-.3.1-.4 0-.4 0 .1 0 .3 0 .4-.1.2-.1.3-.2.4-.3s.2-.3.2-.5c.1-.2.2-.5.3-.7.1-.3.3-.5.5-.7.4-.4 1-.8 1.4-1.4.1-.1.2-.3.2-.4.1-.1.1-.3 0-.3s-.2.1-.4.1l-.4.2-1 .7c-.4.2-.7.4-1 .5-.1.1-.2.1-.4.2m3.5-2.4c0-.2.1-.5.2-.7s.4-.4.6-.4c.3-.1.6-.1.9-.1s.7 0 1-.1.5-.2.7-.4l.2-.2v-.3c0-.1 0-.1-.1-.2v.2c0 .1 0 .2-.1.2 0 .1-.1.1-.2.2-.2.2-.4.3-.7.3-.3.1-.6.1-1 .1-.3 0-.7 0-1 .2-.3.1-.5.3-.6.5s-.2.3-.2.5c.2 0 .2.1.3.2m-1.6-4.8v4.6c.1-.2.1-.5.1-.7v-1.7c0-.7 0-1.2-.1-1.7.1-.1.1-.3 0-.5m2.3 5.6c.1 0 .1 0 .2-.1.1 0 .2-.1.3-.1h.3c.1 0 .1.1.1.1 0 .1 0 .1.1.2v.4c0 .2 0 .4.1.5s.1.2.2.2.2.1.3.1.2 0 .3-.1c.1 0 .2-.1.2-.2.1-.1.2-.3.2-.5v-.9c0-.2-.1-.4-.2-.6-.1-.1-.1-.2-.1-.2s0 .1.1.2c.1.2.1.4.1.6v.8c0 .2-.1.3-.2.4s-.3.2-.4.2-.2 0-.2-.1c-.1 0-.1-.1-.2-.2s-.1-.3-.1-.4v-.5c0-.1 0-.1-.1-.2 0-.1-.1-.1-.2-.1s-.2-.1-.3 0c-.1 0-.2 0-.3.1-.1.3-.2.3-.2.4" class="st5"/>
        <path d="M62.6 38.2v.2c0 .1.1.2.2.2.1.1.2.1.2.1h.4c.1 0 .2-.1.3-.2.2-.2.3-.6.3-.9s-.1-.7-.3-.9-.4-.4-.6-.5c-.1-.1-.2-.2-.4-.2h-.2c.2 0 .5.1.7.2s.4.3.6.5c.2.3.3.5.2.8 0 .3-.1.6-.3.8-.1.1-.2.2-.3.2H63c-.1 0-.2-.1-.2-.1-.1 0-.1-.1-.2-.2m-2.4 2.3h-.3c-.3.1-.5.2-.7.4h.1c0-.2 0-.3-.1-.5-.1-.5-.3-1-.7-1.4l.6 1.5c0 .2.1.3.1.4v.2l.1-.1c.2-.2.4-.4.6-.4.2-.1.3-.1.3-.1m.1-5.9s.1.2.4.4c.3.1.6.1.6 0 0 0-.2 0-.5-.1-.3-.2-.5-.3-.5-.3" class="st5"/>
        <path d="m55 43.4 7.3.5S61.2 56.8 61 58.8s-1.5 5-5.9 5-5.3-1.5-7.3-4.6c2.3-1.6 6-6.4 6-6.4z" class="st1"/>
    </g>
    <g id="shield">
        <path d="m70.7 11.5-7.4-2.7-7.3 2.6c-.9.4-1.8.7-1.8 1.6v4.4c0 3.1.8 6.1 2.4 8.7s4 4.7 6.8 6c3-1 5.2-3.6 6.6-5.8 1.6-2.6 2.4-5.6 2.4-8.7v-3.9c0-1.3-.7-1.9-1.7-2.2" class="st1"/>
        <path d="M63.3 29.5c-2.2-1-4.1-2.7-5.4-4.8S56 20.3 56 17.8v-3c0-.7.4-1.3 1.2-1.7l6-2.2V8.8l-7.3 2.6c-.8.3-1.8.7-1.8 1.6v4.4c0 3.1.8 6.1 2.4 8.7s4 4.7 6.8 6z" style="opacity:.3"/>
        <path d="m63.3 32 1.5-.6c1.1-.7 2.2-1.5 3.1-2.4.8-.9 1.5-1.9 2.1-2.9 1.6-2.6 2.4-5.7 2.3-8.8v-3.6c0-1.8-.9-1.9-1.7-2.3l-7.4-2.7v2.1l6 2.3c.8.4 1.2 1 1.2 1.7v3.1c0 2.4-.7 4.8-1.9 6.9s-3.1 3.7-5.3 4.7z" style="opacity:.4"/>
        <path d="M57.2 17.6c-.1-.2-.1-.4-.1-.6-.1-.5-.1-1-.1-1.5 0-.3 0-.6.1-.8 0-.2.1-.5.2-.7.1-.1.2-.3.3-.3h.2c-.2.1-.3.2-.4.4s-.1.4-.1.6V17c-.1.2 0 .4-.1.6m.1 1.9s-.1-.2-.1-.4 0-.4.1-.4c0 0 .1.2.1.4s0 .4-.1.4" class="st6"/>
        <g id="user">
            <circle cx="63.4" cy="16.9" r="1.8" class="st9"/>
            <path d="M66 23.2c.6 0 1-.5.9-1-.4-1.5-1.8-2.6-3.5-2.6-1.6 0-3 1.1-3.5 2.6-.2.5.3 1 .9 1z" class="st9"/>
        </g>
    </g>
    <g id="laptop">
        <path d="m50 42.3-8.3 20.5H26.8v.9h44.5l9.1-21.4z" class="st2"/>
        <path d="M62.6 54.4c-.3 1-1.2 1.7-2 1.5s-1.2-1.2-.9-2.3 1.2-1.7 2-1.5c.9.3 1.2 1.3.9 2.3" style="fill:#fafafa"/>
    </g>
</svg>
