<svg xmlns="http://www.w3.org/2000/svg" fill="none" viewBox="0 0 184 184">
    <g clip-path="url(#a)">
        <path fill="#BED830" d="M96.162 170.047s28.473 3.579 51.099-17.071c22.627-20.65 29.178-53.202 35.18-79.433 6.005-26.234-5.783-48.993-27.992-55.66-22.21-6.67-32.089 12.535-59.67 19.439-27.583 6.896-35.92 4.571-55.496 25.329-19.575 20.76-15.604 58.689 8.593 82.088 24.197 23.403 48.282 25.311 48.282 25.311z" opacity=".15"/>
        <path fill="#263238" d="M175.44 174.269c0 .076-39.262.129-87.72.129S0 174.345 0 174.269c0-.075 39.262-.129 87.72-.129s87.72.061 87.72.129"/>
        <path fill="#E0E0E0" d="M70.62 131.586h3.444v18.145H70.62z"/>
        <path fill="#263238" d="M74.07 149.724a3 3 0 0 1 0-.374v-1.042c0-.924 0-2.221-.039-3.838 0-3.26-.035-7.77-.053-12.88l.129.125h-3.49c.26-.262.069-.068.13-.125v10.519c0 3.09-.029 5.71-.04 7.633l-.075-.069 2.519.04h.916a1 1 0 0 1-.219 0h-.665l-2.57.036h-.064v-.076c0-1.919-.025-4.528-.04-7.633v-10.494l.137-.136h3.569v.129c0 5.154-.04 9.689-.054 12.97 0 1.603-.029 2.893-.036 3.813v1.003a2.5 2.5 0 0 1-.054.399h-.004zm6.247-20.887h-16.09a4.325 4.325 0 0 1-4.323-4.32H84.64a4.323 4.323 0 0 1-4.323 4.32"/>
        <path fill="#BED830" d="M94.523 125.365H66.445v-6.005h28.078a3.014 3.014 0 0 1 3.015 3.015 3.013 3.013 0 0 1-3.015 2.987z"/>
        <path fill="#BED830" d="M44.624 76.228a2.99 2.99 0 0 0-2.57 3.285l4.05 36.835a10.156 10.156 0 0 0 10.088 9.017h10.71a3.017 3.017 0 0 0 3.014-3.015 3.017 3.017 0 0 0-3.015-3.015h-9.095a5.16 5.16 0 0 1-5.114-4.474l-4.708-36.056a2.98 2.98 0 0 0-3.346-2.57h-.014z"/>
        <path fill="#BED830" d="m78.743 119.651-30.53.428-2.978-43.884 25.548-.161a4.64 4.64 0 0 1 4.618 4.66l3.338 38.954h.004z"/>
        <path fill="#000" d="M44.624 76.228a2.99 2.99 0 0 0-2.57 3.285l4.05 36.836a10.156 10.156 0 0 0 10.088 9.016h10.71a3.017 3.017 0 0 0 3.014-3.015 3.017 3.017 0 0 0-3.015-3.015h-9.75a4.726 4.726 0 0 1-4.74-4.395L47.987 78.8a2.98 2.98 0 0 0-3.345-2.569h-.018z" opacity=".3"/>
        <path fill="#263238" d="M69.004 128.837h6.673v3.468h-6.673z"/>
        <path fill="#E0E0E0" d="M72.292 148.71a3.294 3.294 0 0 1 3.292 3.292v9.312a3.292 3.292 0 1 1-6.584 0v-9.312a3.29 3.29 0 0 1 3.292-3.292"/>
        <path fill="#263238" d="M73.593 164.602q.212-.01.413-.068a2.01 2.01 0 0 0 1.423-1.327 3.2 3.2 0 0 0 .087-1.002v-2.519c0-1.891 0-4.126-.03-6.602v-1.905q.034-.475-.071-.945a1.9 1.9 0 0 0-1.265-1.312c-.33-.075-.668-.1-1.003-.075h-2.124c-.679 0-1.3.37-1.631.959a2 2 0 0 0-.237.931v4.902c0 2.48 0 4.711-.026 6.595-.046.431.03.866.22 1.261a1.93 1.93 0 0 0 1.768 1.003h.873l1.211.025c.14-.007.284 0 .424.025a3 3 0 0 1-.424 0l-1.21.025h-.874a2.07 2.07 0 0 1-1.916-1.071 2.2 2.2 0 0 1-.222-.636 4 4 0 0 1-.036-.704c0-1.883 0-4.126-.03-6.595v-4.891a2.123 2.123 0 0 1 2.093-2.153h2.127c.36-.025.722 0 1.07.087.35.107.666.298.917.557.241.262.414.571.503.916.069.331.094.669.076 1.003v1.904c0 2.48 0 4.712-.025 6.602v2.519c.018.353-.018.708-.115 1.043a2.2 2.2 0 0 1-.467.765 2 2 0 0 1-1.064.571 1.5 1.5 0 0 1-.431.115h.003v-.01z"/>
        <path fill="#E0E0E0" d="M91.504 163.617H52.34a3.74 3.74 0 0 0-2.82 1.136 6.23 6.23 0 0 0-1.359 4.115l1.786-.076a4.47 4.47 0 0 1 .866-2.807 2.02 2.02 0 0 1 1.51-.582H62.6v4.554h1.779v-4.554h27.107a2.08 2.08 0 0 1 2.081 2.081v1.341h1.786v-1.323a3.87 3.87 0 0 0-3.845-3.885z"/>
        <path fill="#263238" d="M91.504 163.621a4 4 0 0 1 .503 0c.478.05.942.19 1.366.417a4 4 0 0 1 1.631 1.649c.234.446.378.931.425 1.431.035.539 0 1.092.025 1.689v.064h-1.916v-.068c-.05-.87.202-1.937-.528-2.677a2 2 0 0 0-1.323-.651H64.423l.118-.126v4.683H62.5v-4.683l.13.13H52.162a1.87 1.87 0 0 0-1.002.32 2 2 0 0 0-.665.819 4.9 4.9 0 0 0-.428 2.113v.13h-.118l-1.787.075h-.129v-.129a7.2 7.2 0 0 1 .388-2.484 4.55 4.55 0 0 1 1.373-2.062 3.93 3.93 0 0 1 2.282-.831h11.238l14.82.029 9.826.036 2.638.025H87.96l-9.826.04-14.82.028H52.092a3.64 3.64 0 0 0-2.139.784 4.2 4.2 0 0 0-1.297 1.944 7 7 0 0 0-.363 2.39l-.137-.119 1.78-.075-.12.129a5.1 5.1 0 0 1 .457-2.235c.165-.367.424-.683.751-.916.338-.223.73-.349 1.136-.363h10.594v4.682l-.126-.126h1.78l-.127.126v-4.675h27.41a2.175 2.175 0 0 1 1.984 2.113v1.387l-.068-.068h1.786l-.065.061c0-.593.025-1.161 0-1.682a3.7 3.7 0 0 0-.399-1.398 3.9 3.9 0 0 0-1.57-1.635 3.8 3.8 0 0 0-1.34-.449c-.342.169-.511.169-.511.161z"/>
        <path fill="#263238" d="M66.937 172.077a3.495 3.495 0 1 1-3.5-3.49h.007c1.93 0 3.49 1.564 3.493 3.49m-14.397-.855a3.492 3.492 0 1 1-6.984.001 3.492 3.492 0 0 1 6.985-.001m45.029.129a3.495 3.495 0 1 1-3.5-3.49h.007c1.93 0 3.49 1.564 3.493 3.49m-2.296-51.991c0 .068-8.607.162-19.223.201s-19.223 0-19.223-.061 8.603-.162 19.223-.201 19.223-.011 19.223.061m-42.824-4.995c-.067 0-1.131-7.946-2.364-17.768S47.912 78.801 47.98 78.79s1.132 7.946 2.365 17.771 2.167 17.793 2.106 17.804"/>
        <path fill="#455A64" d="M117.66 22.189a21.3 21.3 0 0 1-4.697-1.787c.83.155 1.635.41 2.407.755.802.255 1.571.597 2.29 1.028z"/>
        <path fill="#FFBE9D" d="M111.227 32.316a4.96 4.96 0 0 0-2.99 1.962l-.054.061c-.802.898-1.297-1.865-1.348-2.886a1.06 1.06 0 0 0-1.373-.916l-3.518 1.348-1.003-.036a1.004 1.004 0 0 0-.729 1.157l1.247 5.477-.065 1.466 6.739 1.398.363-3.666c.129-.417.301-.909.503-1.466.201-.503.488-.967.848-1.373a9 9 0 0 1 1.315-1.261l.115-.065a.6.6 0 0 0 .205-.154.59.59 0 0 0-.248-1.039h-.007z"/>
        <path fill="#BED830" d="M109.746 16.88s-4.021-.503-10.059-5.307C93.661 6.76 90.376-.078 89.7 0c-.675.079-3.773-1.003-8.251 11.798s-2.013 15.428-.873 15.302 8.546-2.972 13.343-2.878c3.78.255 7.522.927 11.152 2.012z"/>
        <path fill="#263238" d="m118.749 22.774-1.107 2.678-.503 1.2a3.343 3.343 0 0 1-4.209 1.883l-8.722-2.145 3.86-11.687 8.862 3.701a3.35 3.35 0 0 1 1.819 4.367z"/>
        <path fill="#263238" d="m115.309 26.717-2.921 5.178-1.334-.427-9.113 6.813-2.268-4.927s5.304-2.012 6.35-3.845c1.046-1.836-.054-2.282-.054-2.282l2.562-2.688zh.004zm-33.396-14.72c-2.376 6.921-3.066 12.955-1.546 13.484s4.676-4.672 7.037-11.594C89.769 6.965 90.469.932 88.949.403s-4.665 4.69-7.037 11.594"/>
        <path fill="#455A64" d="m119.819 26.397-2.361-.503 1.168-2.832 1.815.906zm-2.713-2.567a12.4 12.4 0 0 1-2.645-.75 13 13 0 0 1-2.548-1.028q1.36.238 2.645.751c.884.255 1.736.597 2.548 1.028m-.737 1.772c0 .04-.283 0-.729-.09l-.784-.18c-.294-.075-.596-.194-.923-.309a9.6 9.6 0 0 1-2.289-1.003c.819.162 1.624.41 2.393.737.324.115.622.245.909.334s.539.162.751.238c.245.046.475.143.68.283h-.004z"/>
        <path fill="#FAFAFA" d="M87.885 9.937s-3.622-1.8-5.063 3.016 2.235 5.207 2.235 5.207a30.9 30.9 0 0 0 2.828-8.226z"/>
        <path fill="#263238" d="M91.005 4.087q.012.452-.05.898c-.055.572-.13 1.405-.26 2.44-.093.503-.204 1.064-.32 1.664q-.089.45-.179.924a8 8 0 0 0-.093.503c-.03.18-.09.327-.137.503l-.582 2.063-.155.543c-.05.18-.129.359-.19.542l-.413 1.096c-.133.367-.277.737-.414 1.097-.068.18-.125.362-.205.531l-.244.504-.916 1.947c-.069.151-.14.31-.223.457s-.162.294-.248.43l-.47.82c-.31.503-.587 1.003-.849 1.463-.582.855-1.07 1.535-1.405 2.012a6 6 0 0 1-.546.712c.129-.273.284-.528.456-.776l1.326-2.063.816-1.47.456-.82.237-.427c.08-.144.144-.302.22-.456q.43-.928.895-1.937l.237-.503c.079-.17.136-.36.205-.532q.205-.541.406-1.093l.413-1.089c.061-.18.14-.36.19-.539s.105-.363.155-.539l.597-2.052c.046-.158.1-.323.136-.503s.068-.323.1-.503c.069-.313.13-.618.195-.917.126-.593.248-1.146.352-1.65.144-1.002.27-1.832.345-2.418q.047-.442.158-.87v.008z"/>
        <path fill="#FFBE9D" d="M104.338 29.42a.777.777 0 0 0-.471.944c.205.759.546 1.948.816 2.674.071.237.186.46.345.654.154.194.406.28.65.23a.73.73 0 0 0 .438-.596 2 2 0 0 0-.089-.784c-.169-.704-.504-1.764-.755-2.634a.723.723 0 0 0-.884-.518q-.023.005-.047.015v.014z"/>
        <path fill="#FFBE9D" d="M103.213 30.735a.78.78 0 0 0-.478.945c.208.758.553 1.947.819 2.67q.108.362.345.661a.66.66 0 0 0 .651.23.71.71 0 0 0 .438-.596 2.1 2.1 0 0 0-.086-.784c-.176-.704-.503-1.772-.755-2.634a.723.723 0 0 0-.884-.518q-.023.005-.047.015v.018z"/>
        <path fill="#FFBE9D" d="M102.153 31.504a.663.663 0 0 0-.428.819c.19.654.503 1.689.744 2.318.068.205.172.395.312.56a.6.6 0 0 0 .586.202.62.62 0 0 0 .399-.503 1.9 1.9 0 0 0-.079-.68c-.158-.61-.449-1.509-.694-2.282a.67.67 0 0 0-.84-.424V31.5z"/>
        <path fill="#FFBE9D" d="M100.819 31.705a.665.665 0 0 0-.431.82c.194.66.503 1.699.755 2.324.064.209.169.406.312.572a.554.554 0 0 0 .773.133.56.56 0 0 0 .237-.457 1.7 1.7 0 0 0-.086-.679 43 43 0 0 0-.694-2.296.657.657 0 0 0-.833-.424h-.026z"/>
        <path fill="#EB996E" d="M104.952 33.717a4 4 0 0 1-.596-1.347 4 4 0 0 1-.338-1.43 3.9 3.9 0 0 1 .596 1.347c.202.453.32.938.338 1.43m-1.211 1.043a5.1 5.1 0 0 1-.633-1.55 5 5 0 0 1-.373-1.63c.294.477.506.998.632 1.548a5 5 0 0 1 .374 1.632m-1.186.082a3.5 3.5 0 0 1-.654-1.34 3.3 3.3 0 0 1-.288-1.463q.373.648.547 1.373c.201.453.334.938.391 1.43z"/>
        <path fill="#263238" d="M144.483 16.554a14.9 14.9 0 0 0-9.006-6.343 9.7 9.7 0 0 0-4.14-.126 6.68 6.68 0 0 0-4.154 1.926 11.2 11.2 0 0 0-2.947 4.737 32 32 0 0 0-1.146 5.67 10.54 10.54 0 0 0 .963 5.64l4.715 1.58a30.6 30.6 0 0 0 8.046.791 10.42 10.42 0 0 0 7.191-3.306c2.441-2.879 2.39-7.335.475-10.573z"/>
        <path fill="#263238" d="M147.046 30.742a3.67 3.67 0 0 0-1.222-2.98 2.64 2.64 0 0 0-3.102-.2l-.898.79a3.16 3.16 0 0 0-2.275 2.882 3.46 3.46 0 0 0 1.948 3.166 3.84 3.84 0 0 0 3.748-.323 4.29 4.29 0 0 0 1.808-3.339h-.004z"/>
        <path fill="#455A64" d="M145.572 33.875c.234-.258.374-.578.406-.923a4.44 4.44 0 0 0-.776-2.35 6.7 6.7 0 0 0-1.703-1.851c-.503-.392-.895-.56-.874-.604.353.086.68.244.971.456a5.9 5.9 0 0 1 2.411 3.177c.137.378.183.784.14 1.183a1.37 1.37 0 0 1-.337.736c-.13.144-.234.184-.245.173zm-2.551 1.075c.251-1.057.341-2.153.273-3.242a10.5 10.5 0 0 0-.938-3.101c.23.234.41.51.532.816a6.85 6.85 0 0 1 .503 4.618 2.6 2.6 0 0 1-.367.909z"/>
        <path fill="#FFBE9D" d="M127.176 39.751c.295-1.696.938-5.33.938-5.318 0 .01-3.885-1.04-4.205-6.272a55.5 55.5 0 0 1 .924-10.202c.503-3.073 3.752-6.864 7.543-6.3l1.718.06 6.07 3.552a1.81 1.81 0 0 1 1.441 2.012l-3.321 21.965-9.415 18.415-2.128-13.075.428-4.84h.003z"/>
        <path fill="#263238" d="M126.587 21.71a.666.666 0 0 0 .571.726.633.633 0 0 0 .737-.51v-.018a.67.67 0 0 0-.572-.73.63.63 0 0 0-.736.511zm-.784-1.66c.076.094.611-.23 1.323-.154.711.075 1.196.478 1.283.399.086-.08-.026-.202-.238-.389a1.8 1.8 0 0 0-1.002-.424c-.37-.04-.741.044-1.06.23-.252.14-.342.295-.306.342zm3.641 6.013a4.8 4.8 0 0 0-1.136-.324c-.18-.036-.345-.086-.367-.22a.93.93 0 0 1 .176-.502q.313-.637.672-1.334a22.4 22.4 0 0 0 1.557-3.518 24 24 0 0 0-1.833 3.371l-.651 1.337a1.04 1.04 0 0 0-.165.704.47.47 0 0 0 .277.299q.145.053.302.068c.384.09.779.13 1.175.115h-.004z"/>
        <path fill="#EB996E" d="M128.114 34.432c2.426.27 4.873-.14 7.08-1.182 0 0-2.182 3.389-7.296 2.408l.219-1.222z"/>
        <path fill="#263238" d="M126.36 17.535c.115.176.618.053 1.208.104.589.05 1.078.208 1.207.054.061-.076 0-.248-.205-.424a1.76 1.76 0 0 0-1.948-.126c-.194.144-.309.309-.262.388zm8.359 4.693a.66.66 0 0 1-.726.571.636.636 0 0 1-.596-.675v-.011a.657.657 0 0 1 .726-.571.64.64 0 0 1 .596.679v.01zm.496-1.585c-.093.076-.543-.363-1.25-.456-.708-.094-1.273.19-1.337.093s.068-.183.319-.323a1.83 1.83 0 0 1 2.07.287c.187.194.248.36.198.4m-.1-2.43c-.144.14-.611-.09-1.197-.176-.586-.087-1.103-.04-1.193-.223-.04-.09.061-.244.298-.363.313-.15.665-.194 1.003-.13.345.05.664.206.916.45.18.194.234.392.169.442z"/>
        <path fill="#263238" d="m140.505 24.492-1.003.78c-3.266-4.237-9.333-14.53-8.998-13.926a11.2 11.2 0 0 1 5.53.237c2.764.917 7.943 3.163 7.346 6.501a17.7 17.7 0 0 1-2.871 6.408z"/>
        <path fill="#455A64" d="M142.636 27.773c.015-.273.047-.542.09-.816q.117-1.105.04-2.217a15.1 15.1 0 0 0-2.322-6.864 24.3 24.3 0 0 0-4.88-5.437 48 48 0 0 0-1.747-1.391 7 7 0 0 1-.636-.503c.072.01.137.046.183.1.115.101.295.184.503.338.439.298 1.053.744 1.794 1.337a22.5 22.5 0 0 1 4.984 5.441 14.64 14.64 0 0 1 2.289 6.98c.04.75 0 1.501-.115 2.242-.035.262-.093.456-.118.596a.6.6 0 0 1-.065.187h.004z"/>
        <path fill="#455A64" d="M135.406 10.663a1 1 0 0 1 .19.101q.189.102.528.324c.45.294 1.093.729 1.851 1.322a30 30 0 0 1 2.53 2.235 17 17 0 0 1 2.67 3.163c.385.61.687 1.276.892 1.973.183.654.283 1.33.283 2.012a11.7 11.7 0 0 1-.503 3.346 24 24 0 0 1-1.002 2.717 1.4 1.4 0 0 1-.101.19q.103-.424.277-.826c.169-.503.427-1.236.679-2.156a12 12 0 0 0 .456-3.296 7.5 7.5 0 0 0-.287-1.933 7.7 7.7 0 0 0-.87-1.909 18.2 18.2 0 0 0-2.612-3.13 33 33 0 0 0-2.52-2.242 35 35 0 0 0-1.8-1.373 6 6 0 0 1-.672-.514h.007zm5.175 13.93a3.3 3.3 0 0 1-.389-.503l-1.002-1.438c-.82-1.218-1.944-2.91-3.163-4.79a411 411 0 0 1-3.105-4.83l-.916-1.477a4 4 0 0 1-.313-.557c.144.15.277.323.388.503l1.003 1.437a385 385 0 0 1 3.166 4.79 406 406 0 0 1 3.105 4.83l.917 1.489c.118.168.226.355.309.546"/>
        <path fill="#FFBE9D" d="M139.546 25.85c.039-.384.571-1.246.956-1.264 1.002-.061 2.846.194 2.609 2.767a2.647 2.647 0 0 1-3.781 2.364c0-.1.083-2.547.216-3.87z"/>
        <path fill="#EB996E" d="M140.308 28.399q.071.06.154.104c.14.075.305.093.456.05.489-.248.805-.744.827-1.29a2.2 2.2 0 0 0-.093-.895.7.7 0 0 0-.417-.503.33.33 0 0 0-.378.137c-.054.093-.039.165-.054.168s-.068-.064-.028-.204a.37.37 0 0 1 .154-.205.47.47 0 0 1 .345-.061.86.86 0 0 1 .593.603c.126.32.165.669.119 1.003a1.6 1.6 0 0 1-1.003 1.438.66.66 0 0 1-.553-.14c-.119-.12-.133-.202-.119-.205z"/>
        <path fill="#FFBE9D" d="M147.8 155.98c-.068.554-1.43 16.018-1.43 16.018h-7.087l-1.243-15.949 9.76-.065z"/>
        <path fill="#BED830" d="M139.262 169.691s4.981 3.518 7.381.478l.633 1.477 2.828 10.562a1.42 1.42 0 0 1-.794 1.696c-.496.194-1.06.09-1.448-.277-2.049-1.947-9.553-9.146-9.463-10.123l.025-2.588a1.34 1.34 0 0 1 .841-1.218v-.007z"/>
        <path fill="#263238" d="m149.051 183.965-10.655-11.371v.561c-.026.471.158.927.503 1.251a100 100 0 0 0 8.919 9.207c.331.316.798.446 1.244.345h-.007v.007z"/>
        <path fill="#fff" d="M139.959 170.909a.83.83 0 0 1 .23 1.082.804.804 0 0 1-1.071.244.88.88 0 0 1-.237-1.146.82.82 0 0 1 1.135-.126"/>
        <path fill="#263238" d="M145.993 178.147a4 4 0 0 1 1.168-1.042 4.3 4.3 0 0 1 1.509-.302c0-.029-.154-.137-.467-.176a2.18 2.18 0 0 0-2.092 1.038c-.129.273-.151.471-.115.482zm.952 1.782q.572-.328 1.182-.582a12 12 0 0 1 1.301-.169 1.5 1.5 0 0 0-1.387-.104c-.783.237-1.168.823-1.096.859zm-2.735-4.075a13.4 13.4 0 0 1 1.761-1.003 13 13 0 0 1 1.984-.467 3.75 3.75 0 0 0-3.741 1.47zm-.244-3.209c.039.079.776-.23 1.736-.27.959-.039 1.717.183 1.75.104a3.39 3.39 0 0 0-3.486.162z"/>
        <path fill="#263238" d="M146.252 172.347a1.2 1.2 0 0 0-.076-.504 3.5 3.5 0 0 0-.647-1.221c-.19-.288-.471-.5-.794-.608a.54.54 0 0 0-.586.23.9.9 0 0 0-.093.633 1.935 1.935 0 0 0 2.012 1.448 2.25 2.25 0 0 0 1.948-1.56.78.78 0 0 0-.086-.647.51.51 0 0 0-.604-.176c-.309.13-.579.342-.783.608a4 4 0 0 0-.705 1.186c-.072.158-.111.33-.115.503a6.3 6.3 0 0 1 .974-1.542c.187-.223.424-.395.694-.503a.29.29 0 0 1 .334.093c.072.13.083.288.029.428a2.01 2.01 0 0 1-1.718 1.301 1.686 1.686 0 0 1-1.718-1.208.65.65 0 0 1 .05-.442.3.3 0 0 1 .324-.136c.273.093.507.273.679.503.388.478.686 1.021.884 1.603v.007z"/>
        <path fill="#FFBE9D" d="m108.898 150.946 1.222 19.74 8.578-.061 1.449-20.509z"/>
        <path fill="#BED830" d="M109.965 168.304v.571s-9.685 3.845-9.803 5.664h19.208l-.273-6.39a10.97 10.97 0 0 1-9.132.151z"/>
        <path fill="#fff" d="M117.157 170.19a.784.784 0 0 1 .542.895.75.75 0 0 1-.88.546.824.824 0 0 1-.572-.948.78.78 0 0 1 .978-.468"/>
        <path fill="#263238" d="m119.388 174.542-.064-1.534-18.383.582s-.855.374-.758.97l19.209-.018zm-9.498-5.61c0 .09.471.13.934.432s.712.7.795.661c.082-.04-.054-.571-.619-.931-.564-.359-1.132-.255-1.114-.162zm-2.013.834c0 .09.385.248.705.647s.413.816.503.816.154-.539-.255-1.003-.956-.542-.956-.453h.003zm-1.142 2.412c.086 0 .219-.45 0-.96-.22-.51-.69-.719-.726-.636s.237.352.427.776c.191.424.198.82.299.827zm13.411-82.323c-.258.74-10.425 35.198-10.425 35.198l-1.75 40.897 12.661.729 4.528-40.832 11.564-25.537-5.085-20.78H121.3l-1.154 10.322h.004z"/>
        <path fill="#263238" d="M129.156 79.541c.18.504 6.674 23.884 6.674 23.884l.898 34.867v28.847h11.54l5.376-63.616s.949-11.565-.676-15.45-8.201-10.717-8.201-10.717l-15.615 2.189h.004z"/>
        <path fill="#455A64" d="M130.087 81.931q.161.398.262.816c.166.571.388 1.323.651 2.232.582 1.926 1.358 4.528 2.217 7.356.859 2.832 1.549 5.53 1.948 7.436.208.963.345 1.75.427 2.289q.085.421.094.848a5.5 5.5 0 0 1-.194-.83c-.115-.539-.277-1.316-.503-2.268-.449-1.915-1.172-4.528-2.013-7.407-.841-2.882-1.635-5.48-2.142-7.381a46 46 0 0 1-.571-2.257 5 5 0 0 1-.176-.841h.003v.007zm3.982.007c-.288.09-.536.27-.726.503a.93.93 0 0 0-.101.885.956.956 0 0 0 1.765.083.96.96 0 0 0 0-.892 1.5 1.5 0 0 0-.676-.582.6.6 0 0 1 .27.028 1.1 1.1 0 0 1 .56.457c.219.323.248.737.076 1.089a1.186 1.186 0 0 1-2.207-.1 1.11 1.11 0 0 1 .176-1.079 1.12 1.12 0 0 1 .608-.406c.151-.025.251-.004.251.014zm10.242 16.79a.7.7 0 0 1 0 .177v2.483c0 1.725 0 4.212-.054 7.292-.09 6.152-.367 14.644-.73 24.027-.362 9.384-.664 17.879-.801 24.028-.068 3.076-.115 5.567-.14 7.285 0 .844 0 1.509-.029 1.984v.503a.09.09 0 1 1-.029.179.09.09 0 0 1-.075-.104.09.09 0 0 1 .075-.075v-2.484c0-1.725 0-4.212.054-7.291.094-6.153.367-14.652.73-24.035s.665-17.876.801-24.025c.069-3.076.119-5.566.14-7.284 0-.845.026-1.51.029-1.984v-.503a.6.6 0 0 1 .029-.173m-17.807-4.198a2 2 0 0 1-.054.177l-.194.503c-.183.467-.449 1.132-.78 1.984-.69 1.728-1.678 4.208-2.907 7.266a164 164 0 0 0-3.961 10.904 70 70 0 0 0-3.191 13.793c-.269 2.519-.384 4.97-.532 7.335-.147 2.368-.251 4.661-.374 6.842-.23 4.359-.427 8.284-.596 11.594a262 262 0 0 1-.503 7.809c-.076.909-.13 1.621-.169 2.124-.025.23-.04.413-.054.546a1 1 0 0 1-.025.19 1 1 0 0 1 0-.19c0-.183.007-.37.025-.553l.126-2.124c.104-1.844.248-4.528.402-7.813s.345-7.234.543-11.594c.115-2.181.23-4.474.359-6.849.13-2.376.263-4.83.529-7.346a69 69 0 0 1 3.245-13.832c1.351-4.158 2.796-7.824 4.021-10.893s2.271-5.53 2.979-7.234c.353-.845.626-1.51.827-1.97l.223-.503a.8.8 0 0 1 .079-.165h-.018"/>
        <path fill="#BED830" d="M143.912 38.378s6.864 1.283 8.373 2.541c1.51 1.258 15.256 19.187 15.54 22.806a6.08 6.08 0 0 1-2.336 5.808c-.949.859-17.383 11.989-17.383 11.989l-5.053-8.385 14.199-8.481-6.853-11.72-6.487-14.554z"/>
        <path fill="#fff" d="m127.28 39.252 1.819 16.513 9.289-18.605 5.988 6.084s3.676 21.746 3.73 21.9c.054.155-2.519 12.439-2.519 12.439l-17.02 3.295-5.193-1.322-.82-19.342-.363-14.813 5.093-6.15z"/>
        <path fill="#BED830" d="m125.074 39.952-4.417 1.003a3.75 3.75 0 0 0-1.603.809c-3.773 3.23-11.928 10.059-11.928 10.059l1.51-12.119-7.853-.73s-2.354 15.278-2.113 19.292c.288 4.669 4.464 5.815 10.562 3.307a80 80 0 0 0 10.9-5.373l4.952-16.251h-.003zm24.649 13.049-.808 14.483.815 2.818s7.623 14.393 8.88 23.92l-9.433 1.51s-2.573-12.295-4.385-18.39-7.165-8.657-8.973-14.925a29.1 29.1 0 0 1-1.147-11.062c0-.384 3.716-14.198 3.716-14.198l.665-2.886 3.339 3.173 8.571 2.853-1.24 12.712h.004z"/>
        <path fill="#000" d="M154.215 79.93a49 49 0 0 1-4.88 3.32c-.101.05-.23.104-.377.162a1.505 1.505 0 0 1-1.844-.694 23 23 0 0 1-.543-1.042c-.345-.751-.726-1.65-1.06-2.43l1.06-.258 1.542 2.548 4.435-3.015.844-.572.827 1.984z" opacity=".3"/>
        <path fill="#BED830" d="m127.359 37.62-2.063 2.156-4.945 1.736s-1.207 14.58-.553 17.689c.632 2.986 1.84 6.62 1.944 10.907.101 4.29-4.798 26.956-4.798 26.956l5.923 2.247s3.015-26.242 2.429-31.967c-.585-5.721.938-17.253.938-17.253l1.122-12.474h.007z"/>
        <path fill="#263238" d="M138.579 65.429a2 2 0 0 1-.219-.237 5 5 0 0 1-.503-.78 7.9 7.9 0 0 1-.77-3.3 31 31 0 0 1 .353-5.027 44 44 0 0 1 1.25-6.034 44.5 44.5 0 0 1 4.022-9.764l.079.144-2.099-.065h-.151l.09-.119 1.373-1.85.373-.504a.8.8 0 0 1 .141-.154.8.8 0 0 1-.105.18l-.345.503-1.315 1.894-.061-.12 2.099.026h.158l-.079.14a47.1 47.1 0 0 0-5.218 15.723 33.5 33.5 0 0 0-.403 4.98c0 1.122.23 2.229.676 3.26q.29.569.647 1.104l.007.007z"/>
        <path fill="#263238" d="M144.376 52.06a9 9 0 0 1-2.43.456 9 9 0 0 1-2.469.029c.809-.15 1.625-.252 2.444-.295a17 17 0 0 1 2.455-.2zm6.012-3.36a4.3 4.3 0 0 1-.104.736 45 45 0 0 0-.23 2.013c-.162 1.7-.324 4.047-.503 6.645l-.403 6.655c-.061.849-.115 1.542-.154 2.013a4 4 0 0 1-.101.737 5 5 0 0 1 0-.74c0-.529.04-1.208.072-2.013.065-1.704.169-4.061.327-6.66.158-2.598.352-4.948.561-6.644.1-.845.219-1.51.312-2.013a3.6 3.6 0 0 1 .227-.726zm10.979 16.441c-.025.076-.949-.223-2.138-.309s-2.142.065-2.157 0a5.96 5.96 0 0 1 4.295.31m-54.19-13.6a7.8 7.8 0 0 1-.694 1.876 7.8 7.8 0 0 1-.931 1.772 7.6 7.6 0 0 1 .694-1.876 8 8 0 0 1 .931-1.772m12.33-4.83c.068 0 .183 2.847.255 6.361.065 3.515.065 6.368 0 6.368s-.183-2.846-.259-6.36c-.072-3.515-.064-6.362.004-6.369m5.865 11.957a3.7 3.7 0 0 1-.065-.737c0-.503-.039-1.197-.068-2.013a553 553 0 0 1-.209-13.243v-2.012c-.01-.248 0-.492.04-.737q.07.367.065.737c0 .503.039 1.197.068 2.012.05 1.697.101 4.022.14 6.62.04 2.599.065 4.927.068 6.62v2.012q.01.37-.039.74"/>
        <path fill="#263238" d="M162.596 71.617a2 2 0 0 1-.273.209l-.802.57-3.015 2.118-10.317 7.126-.115.08-.069-.116-2.26-3.752-2.785-4.636-.065-.115.104-.064 10.192-6.034 2.986-1.74.802-.456a1.7 1.7 0 0 1 .287-.144 1.3 1.3 0 0 1-.269.183l-.78.504-2.947 1.8-10.149 6.12.047-.176c.881 1.463 1.826 3.015 2.796 4.633l2.257 3.751-.183-.04c4.132-2.806 7.759-5.264 10.368-7.036l3.065-2.052.83-.542q.139-.105.299-.187h-.004z"/>
        <path fill="#000" d="M137.885 64.354a19.6 19.6 0 0 1 .608-6.433 62.7 62.7 0 0 1 6.346-16.808 1.865 1.865 0 0 0-2.142.245 5.06 5.06 0 0 0-1.275 1.9 46.6 46.6 0 0 0-4.148 15.03 14.6 14.6 0 0 0-.075 3.015 5.5 5.5 0 0 0 .755 2.99m-18.465-16.528a8.9 8.9 0 0 0 .136 8.737c0-3.015 0-5.657-.179-8.7" opacity=".3"/>
        <path fill="#EB996E" d="M131.65 27.626a.61.61 0 0 0-.287-.439.8.8 0 0 0-.335-.05 8 8 0 0 0-1.937.277l-.036.1q.045.424.177.83c.082.274.244.514.456.701a1.22 1.22 0 0 0 1.463 0c.42-.341.611-.89.488-1.416h.004z"/>
        <path fill="#263238" d="M129.709 29.164q.412.037.816-.05c.281-.083.518-.263.68-.504.194-.287.262-.636.179-.973a.6.6 0 0 0-.255-.389.7.7 0 0 0-.456 0l-.906.17q-.42.108-.855.093c.258-.133.528-.23.815-.277l.895-.23a.9.9 0 0 1 .618 0c.198.119.342.32.389.546.1.41.014.841-.238 1.183a1.4 1.4 0 0 1-.83.503 1 1 0 0 1-.855-.076z"/>
        <path fill="#FAFAFA" d="M140.681 29.667a.895.895 0 0 0-.945-.571.76.76 0 0 0-.557.345.91.91 0 0 0 .093 1.06.864.864 0 0 0 1.043.154.85.85 0 0 0 .363-.988z"/>
        <path fill="#FFBE9D" d="m143.276 73.658-5.818-5.153-4.917.424s.169.801.849.93c.679.13 3.13.17 3.13.17l1.153 1.146-2.932-.295-3.727 2.196s-.086.68.891.503a19 19 0 0 0 2.836-.93l2.167.125-2.365.345-3.062 2.157a1.61 1.61 0 0 0 1.61.427 35 35 0 0 0 2.156-.765l2.671-.259-2.671.68-1.987 2.457c.385.27.899.27 1.283 0a13 13 0 0 0 1.132-.89l2.961-.13a24 24 0 0 0 4.41 2.634 10.1 10.1 0 0 0 3.518-.439l-3.299-5.343v.007z"/>
        <path fill="#BED830" d="m4.693 29.926 58.169-12.51L69.78 50.31 11.611 62.82z"/>
        <path fill="#FAFAFA" d="m5.085 30.163 57.468-12.226 6.835 32.136-57.467 12.225z"/>
        <path fill="#455A64" d="m13.735 36.33 8.126-1.728 1.728 8.125-8.125 1.729z"/>
        <path fill="#BED830" d="M33.26 33.354c.011.047-1.876.49-4.215.985-2.34.496-4.248.863-4.255.816s1.88-.485 4.219-.985c2.34-.496 4.244-.848 4.251-.82z"/>
        <path fill="#263238" d="M60.94 30.537c.01.043-7.936 1.775-17.75 3.86-9.815 2.088-17.775 3.74-17.786 3.698-.01-.044 7.935-1.776 17.75-3.86 9.814-2.088 17.775-3.748 17.785-3.698m-11.252 5.815c.011.043-5.21 1.196-11.65 2.566-6.444 1.369-11.684 2.447-11.691 2.4S31.553 40.125 38 38.752c6.451-1.369 11.68-2.443 11.687-2.4"/>
        <path fill="#BED830" d="m19.119 48.445 39.258-8.352a3.85 3.85 0 1 1 1.603 7.532l-39.258 8.352a3.85 3.85 0 1 1-1.603-7.532"/>
    </g>
    <defs>
        <clipPath id="a">
            <path fill="#fff" d="M0 0h184v184H0z"/>
        </clipPath>
    </defs>
</svg>
