<svg xmlns="http://www.w3.org/2000/svg" fill="none" viewBox="0 0 184 184">
    <g clip-path="url(#a)">
        <path fill="#BED830" d="M25.756 109.248S36.548 131.54 62.13 138.21c25.584 6.67 52.22-3.888 74.035-11.874 21.81-7.985 32.746-27.211 27.132-46.424-5.613-19.212-24.157-17.332-42.115-34.054s-20.193-23.852-44.419-28.265S26.95 33.887 21.382 62.4c-5.566 28.513 4.374 46.844 4.374 46.844z" class="dynamic-color" opacity=".15"/>
        <path fill="#263238" d="M107.403 167.578c42.303 0 76.597-4.204 76.597-9.39s-34.294-9.391-76.597-9.391c-42.304 0-76.597 4.204-76.597 9.391 0 5.186 34.293 9.39 76.597 9.39" opacity=".05"/>
        <path fill="#263238" d="M84.72 61.933c-5.74-1.355-9.29-7.105-7.936-12.84.28-1.18.755-2.304 1.412-3.325a9.314 9.314 0 0 1 3.41-11.816 10.2 10.2 0 0 0 2.06-1.32c1.1-1.074 1.294-2.738 1.88-4.164a7.86 7.86 0 0 1 12.456-2.997 19.8 19.8 0 0 1 7.083-2.43c2.505-.198 5.258.74 6.533 2.904.698 1.19.938 2.688 1.97 3.608 1.031.92 2.591.988 3.823 1.635 2.347 1.247 3.026 4.287 3.03 6.947 0 2.66-.385 5.47.791 7.852.611 1.244 1.613 2.293 2.03 3.612a4.45 4.45 0 0 1-2.889 5.588 4.45 4.45 0 0 1-2.182.13 8.23 8.23 0 0 1-.654 7.313 13.4 13.4 0 0 1-5.635 4.984 8.86 8.86 0 0 1-5.254 1.158 8.54 8.54 0 0 1-4.391-2.397 16.75 16.75 0 0 1-5.132-9.991"/>
        <path fill="#FFBE9D" d="M90.954 30.383a2.77 2.77 0 0 0-3.011 2.232l-6.271 36.922c-.863 4.334 4.93 8.125 9.577 9.01 4.69.902 5.337-1.359 6.282-5.456 1.578-6.842 2.124-9.423 2.12-9.383-.003.04 6.099.28 8.977-7.162 1.409-3.702 2.577-10.023 3.346-15.227.694-4.69-1.157-11.008-5.868-11.5l-15.152.56z"/>
        <path fill="#263238" d="M109.203 45.93a1.01 1.01 0 0 1-1.168.79.965.965 0 0 1-.826-1.088v-.018a1.014 1.014 0 0 1 1.164-.798.975.975 0 0 1 .83 1.1zm.708-1.006c-.151.1-.78-.615-1.843-.834-1.064-.22-1.955.14-2.045 0-.043-.072.133-.277.525-.471a2.77 2.77 0 0 1 1.671-.151 2.65 2.65 0 0 1 1.43.826c.269.335.331.594.262.63m-11.298-1.28a1.01 1.01 0 0 1-1.172.816h-.014a.96.96 0 0 1-.83-1.078q0-.015.003-.029a1.006 1.006 0 0 1 1.164-.79.973.973 0 0 1 .852 1.078v.01-.007zm.808-1.064c-.15.101-.78-.61-1.844-.833-1.063-.223-1.954.14-2.044 0-.043-.072.133-.277.524-.471a2.83 2.83 0 0 1 1.671-.151 2.65 2.65 0 0 1 1.43.827c.27.301.339.56.263.628m2.174 8.385a7.3 7.3 0 0 1 1.794.057c.28.029.549.032.632-.144a1.4 1.4 0 0 0 0-.844c-.118-.708-.233-1.456-.359-2.24a39.5 39.5 0 0 1-.654-5.789 36.6 36.6 0 0 1 1.117 5.722l.324 2.242c.1.363.072.755-.083 1.1a.7.7 0 0 1-.528.298c-.158.007-.316 0-.471-.032a7.2 7.2 0 0 1-1.768-.37z"/>
        <path fill="#3B1919" fill-opacity=".2" d="M99.648 63.69a20.04 20.04 0 0 1-9.729-4.941s1.445 5.99 9.312 6.918zm.952-10.264a1.97 1.97 0 0 0-1.567-1.078 1.8 1.8 0 0 0-1.348.388 1.135 1.135 0 0 0-.352 1.247 1.3 1.3 0 0 0 1.32.654 4.1 4.1 0 0 0 1.526-.52q.207-.093.371-.249a.37.37 0 0 0 .082-.395"/>
        <path fill="#263238" d="M98.31 51.026c.173.028-.071 1.186.741 2.213s2.07 1.165 2.045 1.327c0 .075-.324.165-.845.071a2.96 2.96 0 0 1-1.721-1.045 2.57 2.57 0 0 1-.55-1.84c.061-.486.248-.726.327-.726zm1.984-10.53c-.168.27-1.2-.1-2.483-.216s-2.347 0-2.472-.28c-.047-.14.183-.377.654-.568a4.06 4.06 0 0 1 1.93-.248 4.2 4.2 0 0 1 1.843.626c.417.287.604.56.528.69zm9.887 2.519c-.241.198-.938-.205-1.797-.402s-1.66-.187-1.779-.471c-.05-.14.119-.356.496-.518a2.66 2.66 0 0 1 2.879.708c.258.31.305.582.201.68z"/>
        <path fill="#263238" d="M96.543 28.978a7.65 7.65 0 0 0-5.855-2.458 5.31 5.31 0 0 0-4.805 3.709c-.337 1.35-.064 2.921-.937 4.021-.874 1.1-2.347 1.211-3.53 1.844a4.69 4.69 0 0 0-2.264 5.325c.51 1.726 2.038 3.239 1.805 5.01-.216 1.671-1.88 2.76-2.577 4.298a5.29 5.29 0 0 0 .988 5.24c1.157 1.484 2.049 4.546 3.659 5.552a5.73 5.73 0 0 0 4.808.712 7.73 7.73 0 0 0 3.96-4.119 6.01 6.01 0 0 0-.6-4.991c-.755-1.305-1.94-2.53-1.88-4.014.112-2.347 3.177-3.583 3.5-5.883a6.77 6.77 0 0 0-.937-3.44c-.47-1.092-.812-2.44-.155-3.446.849-1.305 2.814-1.272 4.151-2.077a3.54 3.54 0 0 0 1.704-3.285 3.65 3.65 0 0 0-2.279-2.98"/>
        <path fill="#263238" d="M96.09 27.045a5.395 5.395 0 0 0 5.092 6.565c1.226.036 2.641-.28 3.529.568s.625 2.516 1.409 3.54c1.107 1.473 3.504.83 5.114 1.718 1.247.679 1.804 2.13 2.458 3.392s1.761 2.563 3.177 2.455c.219-1.208.298-2.437.233-3.666a5.33 5.33 0 0 0-1.408-3.324 20 20 0 0 1-1.485-1.355c-.909-1.132-.833-2.738-1.247-4.133a5.91 5.91 0 0 0-3.755-3.867c-1.484-.47-3.145-.359-4.535-1.056-1.032-.507-1.833-1.409-2.893-1.88-2.063-.873-4.4.241-6.297 1.445"/>
        <path fill="#BED830" d="M108.215 76.782a17.24 17.24 0 0 1 4.751 12.143c-.14 7.55 1.075 21.25 1.075 21.25l20.912 12.762-5.898 9.031-23.039-10.214-4.838-9.883z" class="dynamic-color"/>
        <path fill="#BED830" d="M114.594 128.525s.78-1.502-1.409-2.642h-3.565l-6.932-11.96 5.527-37.145-9.452-7.176-20.915-1.88-7.31 37.587 9.344 17.085 18.53 7.619z" class="dynamic-color"/>
        <path fill="#BED830" d="m81.557 68.017.416-3.54a1.13 1.13 0 0 1 1.266-.967c.046.008.096.015.143.03 5.16 4.056 10.512 6.098 16.136 4.499a1.466 1.466 0 0 1 1.032 1.764l-2.185 8.862-5.729 1.71L85.08 78.9l-3.53-6.523.008-4.356z" class="dynamic-color"/>
        <path fill="#263238" d="M99.673 70.464a4 4 0 0 1-.672.41q-.951.496-1.977.816a13.38 13.38 0 0 1-13.2-2.98 12.5 12.5 0 0 1-1.434-1.58 4 4 0 0 1-.43-.658c.628.733 1.3 1.43 2.008 2.091a13.71 13.71 0 0 0 12.991 2.933q1.386-.436 2.717-1.028h-.003z"/>
        <path fill="#000" d="M82.566 67.162a2.18 2.18 0 0 0 .26 2.077 6.3 6.3 0 0 0 1.58 1.502 21 21 0 0 0 6.566 3.701 7.6 7.6 0 0 0 7.141-1.272c.54-.496.963-1.408.395-1.88-.417-.351-1.049-.136-1.563.062a11.96 11.96 0 0 1-14.098-4.38" opacity=".3"/>
        <path fill="#BED830" d="m79.68 107.365 34.163 18.321-12.33 7.453-23.507-6.896c-12.474-3.285-15.877-8.481-15.751-13.829.043-1.948-.184-20.955.654-30.27C64.05 69.45 77.855 67.74 77.855 67.74l-.24 10.853.154 13.258.47 12.161c1.248-.625 1.557 1.718 1.557 1.718z" class="dynamic-color"/>
        <path fill="#263238" d="M78.02 105.464c-.079 0-.186-4.597-.24-10.268-.054-5.67-.03-10.274.05-10.274.079 0 .183 4.596.234 10.274.05 5.675.028 10.268-.047 10.268z"/>
        <path fill="#263238" d="M79.559 107.994c-.036-.025.064-.23.122-.579a1.91 1.91 0 0 0-1.25-2.145c-.328-.126-.565-.137-.565-.18s.233-.101.618 0a1.88 1.88 0 0 1 1.448 2.228c-.01.054-.025.104-.04.158-.125.36-.29.536-.33.518z"/>
        <path fill="#263238" d="m79.559 107.99.06.05a1 1 0 0 0 .198.126c.18.108.471.263.798.471.704.385 1.732.938 3 1.581l9.96 5.103 9.943 5.075 3.012 1.563.812.442q.146.071.276.169a1.5 1.5 0 0 1-.298-.119l-.841-.388-3.047-1.484a908 908 0 0 1-10.005-5.024 566 566 0 0 1-9.926-5.161c-2.52-1.347-4.036-2.296-3.946-2.404zm-1.682-26.187c-.043 0-.119-.77-.299-2.002a17.4 17.4 0 0 0-1.261-4.665 9.4 9.4 0 0 0-2.994-3.716q-.841-.55-1.753-.97c.183.018.363.061.528.136.474.166.924.389 1.34.665a9 9 0 0 1 3.138 3.756 15.3 15.3 0 0 1 1.225 4.75c.065.63.1 1.136.108 1.485q.02.28-.036.56z"/>
        <path fill="#000" d="M109.243 123.558c1.135-2.181.859-4.826.215-7.202-.643-2.371-1.613-4.689-1.796-7.133a23 23 0 0 1 .708-6.332 20.9 20.9 0 0 0 .618-6.333 7.34 7.34 0 0 0-2.951-5.437 23 23 0 0 1 1.661 5.427 7.4 7.4 0 0 1-1.201 5.419 11.2 11.2 0 0 0-1.768 2.3c-.507 1.186-.431 2.534-.812 3.723-.413 1.305-1.164 5.685-1.164 5.685a19.5 19.5 0 0 0 2.63 4.489c1.337 1.768 2.947 3.36 3.914 5.351" opacity=".3"/>
        <path fill="#263238" d="M109.326 123.407a1 1 0 0 1-.141-.165c-.1-.133-.219-.298-.377-.503l-1.409-1.923-4.815-6.824-.033-.043v-.058c.539-2.634 1.143-5.635 1.794-8.797q.106-.508.197-.996v-.043l.033-.029a10.78 10.78 0 0 0 3.162-7.507 10.1 10.1 0 0 0-2.189-5.951v-.03c-.082-1.408-.154-2.533-.204-3.338 0-.366-.033-.657-.047-.89a1.4 1.4 0 0 1 0-.306q.04.146.047.298c.025.23.05.521.089.891.072.802.169 1.93.299 3.332l-.025-.05a10.2 10.2 0 0 1 2.307 6.055 9.7 9.7 0 0 1-.766 4.007 11.4 11.4 0 0 1-2.44 3.723l.036-.072c-.065.323-.133.658-.198.995-.657 3.163-1.275 6.164-1.818 8.798v-.101l4.744 6.886c.557.823.999 1.484 1.322 1.962q.209.317.342.525a1 1 0 0 1 .09.151z"/>
        <path fill="#000" d="M84.514 105.37c-.341-.269-.873.151-.855.583.075.434.36.805.755.995a5.7 5.7 0 0 0 3.432.686 6.58 6.58 0 0 0 4.01-1.642 4.34 4.34 0 0 0 1.352-3.996.64.64 0 0 0-.14-.324c-.277-.287-.74.033-1.018.324a10.88 10.88 0 0 1-7.295 3.36m-6.903-.223a3.21 3.21 0 0 0-3.756.938 1.13 1.13 0 0 0-.226 1.226c.23.294.614.424.974.327.345-.112.664-.291.937-.529a39 39 0 0 0 1.88-1.52.7.7 0 0 0 .212-.262.236.236 0 0 0-.1-.291" opacity=".3"/>
        <path fill="#263238" d="M74.959 108.019c-.008-.241.05-.478.165-.694a3.8 3.8 0 0 1 1.01-1.369 3.9 3.9 0 0 1 1.495-.823c.42-.111.693-.1.697-.065a5.9 5.9 0 0 0-2.01 1.104 8.1 8.1 0 0 0-1.358 1.847"/>
        <path fill="#455A64" d="M121.648 153.667c-.057.05-7.223-7.508-15.999-16.855s-15.856-16.995-15.798-17.045 7.223 7.507 16.003 16.851c8.779 9.344 15.856 16.995 15.794 17.049"/>
        <path fill="#FAFAFA" d="M68.637 83.761a11.5 11.5 0 0 1-.338-2.347c-.111-.79-.14-1.592-.093-2.386.187.77.302 1.556.338 2.347.111.79.14 1.592.093 2.386m2.616 7.799c.061-1.506.28-3.001.662-4.457.014.755-.054 1.51-.205 2.246a10.3 10.3 0 0 1-.457 2.21m-4.999 5.283a12 12 0 0 1-.244-2.346 11 11 0 0 1 0-2.347q.236 1.16.24 2.347c.087.78.087 1.567 0 2.346zm7.249 6.606a8 8 0 0 1-1.01-1.722 8.5 8.5 0 0 1-.79-1.829 8.3 8.3 0 0 1 1.01 1.721q.503.87.79 1.83m-5.588 3.96c-.374.41-.809.765-1.29 1.046a5.6 5.6 0 0 1-1.434.844 6 6 0 0 1 1.275-1.045 5.7 5.7 0 0 1 1.449-.845m11.309 3.288a4.6 4.6 0 0 1-.693-1.315 4.5 4.5 0 0 1-.471-1.409c.302.396.535.841.694 1.316.233.442.391.916.47 1.408m12.104 5.211a13.3 13.3 0 0 1-2.322-1.002 13.3 13.3 0 0 1-2.217-1.219c.805.255 1.585.593 2.322 1.003a13.3 13.3 0 0 1 2.217 1.218m2.886 6.58c.219-.56.51-1.089.866-1.57a6.5 6.5 0 0 1 1.06-1.456 7 7 0 0 1-.855 1.582 6.6 6.6 0 0 1-1.075 1.444zm5.674 5.466a13.4 13.4 0 0 1-.036-2.601c-.01-.87.058-1.74.205-2.595a27.5 27.5 0 0 1-.169 5.196M81.851 73.418a5.4 5.4 0 0 1-1.74-.643 5.7 5.7 0 0 1-1.562-1 10 10 0 0 1 1.67.78c.569.238 1.115.53 1.632.863m-8.502 1.42a10.3 10.3 0 0 1-2.642-1.732c.507.183.981.438 1.409.765.46.255.873.582 1.233.967m8.236 10.041a24.4 24.4 0 0 1 1.901-4.45 23.4 23.4 0 0 1-1.9 4.45m1.574 10.238a19 19 0 0 1-1.212-1.93 17 17 0 0 1-1.168-1.954 7.8 7.8 0 0 1 1.377 1.829 7.4 7.4 0 0 1 1.002 2.055m8.924-11.291q-.686.776-1.535 1.376a8.7 8.7 0 0 1-1.682 1.179 17.6 17.6 0 0 1 3.213-2.552h.004zm-1.064-5.125a12.5 12.5 0 0 1-1.348-2.041 12.3 12.3 0 0 1-1.135-2.167c.514.632.966 1.319 1.347 2.041.45.683.83 1.409 1.136 2.167m7.134-4.222a8.3 8.3 0 0 1-.823 1.84 8.3 8.3 0 0 1-1.043 1.724 8.5 8.5 0 0 1 .827-1.84 8.2 8.2 0 0 1 1.035-1.725zm-7.637-3.037q.053-.625.194-1.233a10 10 0 0 1 .133-1.243c.165.402.205.848.111 1.275a2.1 2.1 0 0 1-.438 1.2m6.512-.33a3 3 0 0 1-1.06-.6 4.3 4.3 0 0 1-.938-.798c.391.126.75.33 1.06.6.567.385.974.744.938.798m-12.043-4.37c0 .065-.313.122-.704.122-.392 0-.698-.057-.698-.122 0-.064.313-.122.698-.122s.704.05.704.122m20.305 11.364q-.902-.654-1.643-1.492c-.546-.5-1.038-1.06-1.466-1.664.6.435 1.15.935 1.642 1.492.547.5 1.039 1.06 1.467 1.663m-3.986 10.246a15.7 15.7 0 0 1 .938-4.78q-.123 1.215-.413 2.401-.18 1.209-.525 2.38m-4.794 4.704q-.34-1.342-.496-2.717a22 22 0 0 1-.38-2.735c.531 1.768.826 3.604.873 5.452zm-6.321 6.591a12.3 12.3 0 0 1-1.988-4.119q.577.987 1.025 2.045.545 1.007.966 2.073zm-4.201 3.913a12.3 12.3 0 0 1-2.347-.557 12 12 0 0 1-2.279-.798c.798.108 1.585.299 2.347.564.787.184 1.55.45 2.279.795zm3.22 4.28q-.572.55-1.208 1.024-.555.562-1.186 1.043a4.96 4.96 0 0 1 2.394-2.067m5.624 5.103a9.3 9.3 0 0 1-.403-2.131 9.6 9.6 0 0 1-.158-2.156c.349 1.402.54 2.843.56 4.287m6.401-1.746a7.4 7.4 0 0 1-3.216-1.567q.84.314 1.617.758.832.336 1.599.805zm1.754-10.426a18 18 0 0 1-2.149.938q-1.052.518-2.163.902a8 8 0 0 1 2.07-1.121 8 8 0 0 1 2.242-.719m1.395-3.026a10.7 10.7 0 0 1-1.524-1.707 10.8 10.8 0 0 1-1.337-1.88 10.8 10.8 0 0 1 1.524 1.708c.51.579.959 1.207 1.337 1.88m-3.673 21.296a8.5 8.5 0 0 1-.417-2.886 8.9 8.9 0 0 1 .417 2.886m10.274-9.261a11 11 0 0 1-1.581-1.653 10.8 10.8 0 0 1-1.409-1.815 11 11 0 0 1 1.578 1.657c.535.549 1.01 1.157 1.412 1.811m-.668-5.592a9.5 9.5 0 0 1 .719-2.038 9.5 9.5 0 0 1 .938-1.929 18.7 18.7 0 0 1-1.672 3.953l.015.01zm.769-10.253a7.3 7.3 0 0 1-1.186-1.409 7 7 0 0 1-.988-1.549c.456.417.855.888 1.186 1.41.398.466.729.987.988 1.548m-1.254-9.232a22.8 22.8 0 0 1-2.998-3.687 23 23 0 0 1 2.998 3.687m2.968 34.834q.417-1.075 1.049-2.041.531-1.026 1.265-1.912-.42 1.073-1.056 2.037a10.8 10.8 0 0 1-1.262 1.92h.004zm5.915 4.029a13.7 13.7 0 0 1-.833-2.477 14.4 14.4 0 0 1-.593-2.548c.355.798.636 1.632.833 2.484.274.826.471 1.678.593 2.541m6.764-1.068a4.8 4.8 0 0 1-.697-1.351 4.8 4.8 0 0 1-.471-1.445 9.4 9.4 0 0 1 1.179 2.814l-.008-.018z"/>
        <path fill="#263238" d="m110.458 130.832 36.508-17.735a12.14 12.14 0 0 1 11.651.568c5.722 3.5 7.522 10.975 4.022 16.696a12 12 0 0 1-1.129 1.556l-15.812 18.515-40.387 5.581-3.78-22.87 4.488-6.954 4.442 4.643z"/>
        <path fill="#455A64" d="M132.512 138.404a3.5 3.5 0 0 1-.47.37c-.324.227-.737.529-1.287.906a100 100 0 0 1-4.366 2.814 82 82 0 0 1-4.521 2.555c-.586.309-1.064.55-1.409.708a2.4 2.4 0 0 1-.536.226c.144-.125.299-.237.471-.323l1.427-.823c1.15-.661 2.731-1.581 4.467-2.627a289 289 0 0 0 4.41-2.721l1.333-.83q.227-.156.481-.258z"/>
        <path fill="#263238" d="M55.401 139.763s3.626-17.513 5.488-20.205c1.861-2.691 5.804-8.722 10.788-9.343 4.985-.626 15.134 5.344 16.984 7.687 4.69 5.929 34.217 37.199 33.854 36.789l-9.517 6.566-10.055-3.192H74.057s-19.996-3.381-18.656-18.31z"/>
        <path fill="#455A64" d="M102.929 158.073q-.224.015-.446 0a9 9 0 0 1-1.251-.198 23.5 23.5 0 0 1-4.395-1.552 65.8 65.8 0 0 1-13.013-8.162 108.4 108.4 0 0 1-11.633-10.03 29.4 29.4 0 0 1-3.026-3.551 9 9 0 0 1-.675-1.074 2 2 0 0 1-.205-.388q.145.168.259.359.338.54.736 1.042a32.5 32.5 0 0 0 3.077 3.472 120.5 120.5 0 0 0 11.661 9.94 69.4 69.4 0 0 0 12.895 8.169 25.7 25.7 0 0 0 4.337 1.628c.406.104.82.19 1.233.251q.226.028.442.094zm-12.938-3.907a2.5 2.5 0 0 1-.377.227l-1.104.611c-.47.262-1.103.503-1.81.823-.353.165-.752.273-1.165.427a10 10 0 0 1-1.326.428 26.5 26.5 0 0 1-6.778 1.01c-2.81.057-5.61-.306-8.312-1.075a25.7 25.7 0 0 1-7.576-3.594c-.517-.395-1.042-.74-1.517-1.139a11.4 11.4 0 0 1-1.257-1.276 15.2 15.2 0 0 1-1.78-2.67 14 14 0 0 1-1.494-4.366 8 8 0 0 1-.112-1.251 3 3 0 0 1 0-.435c.033 0 0 .604.205 1.672a14.6 14.6 0 0 0 1.567 4.29c.507.935 1.11 1.815 1.8 2.627q.573.669 1.24 1.24c.471.385.989.733 1.502 1.111a25.8 25.8 0 0 0 7.508 3.536 28.3 28.3 0 0 0 8.226 1.089 26.7 26.7 0 0 0 6.728-.938c.47-.101.905-.277 1.322-.403a9 9 0 0 0 1.168-.402c.708-.305 1.337-.525 1.818-.773l1.122-.553q.189-.118.395-.198l.007-.007z"/>
        <path fill="#BED830" d="M91.853 153.534s-6.523 2.659-5.844 5.699c.68 3.041 4.054 4.457 7.454 4.133s9.667-3.133 9.667-3.133l3.227-1.707a24.8 24.8 0 0 1-5.904-.77c-2.293-.826-8.597-4.222-8.597-4.222z" class="dynamic-color"/>
        <path fill="#455A64" d="m99.924 158.867 23.158 3.644 48.926-4.873-26.817-7.36-45.252 6.505a1.052 1.052 0 0 0-.015 2.08z"/>
        <path fill="#455A64" d="m129.321 125.65-5.635 33.149a2.87 2.87 0 0 0 3.116 3.335l45.206-4.496a2.87 2.87 0 0 0 2.541-2.347l6.098-33.558a2.876 2.876 0 0 0-2.314-3.343 2.8 2.8 0 0 0-.816-.028l-45.669 4.902a2.86 2.86 0 0 0-2.523 2.382h-.004z"/>
        <path fill="#263238" d="M99.04 157.828a.4.4 0 0 1 .122 0l.356.043 1.377.194 5.103.766 17.296 2.674-.158.118c.281-1.725.579-3.529.881-5.365 1.358-8.158 2.594-15.536 3.489-20.909.471-2.655.83-4.812 1.093-6.325l.309-1.717.09-.446q.012-.075.036-.151v.155c0 .1-.033.262-.061.47l-.256 1.718c-.244 1.52-.582 3.684-1.002 6.347-.874 5.369-2.077 12.75-3.411 20.915-.298 1.84-.6 3.637-.891 5.366l-.025.14-.137-.025-17.282-2.767-5.089-.849-1.369-.24-.352-.065-.122-.047z"/>
        <path fill="#FAFAFA" d="M157.561 140.007a2.92 2.92 0 0 1-3.242 2.562 2.92 2.92 0 0 1-2.562-3.241 2.92 2.92 0 0 1 2.9-2.584c1.7.1 2.997 1.559 2.904 3.263"/>
        <path fill="#FFBE9D" d="M124.164 136.913c-1.596-1.431.198-3.102-2.684-5.822-2.153-2.031-6.228-5.513-14.127-8.147l-4.949 8.837 8.614 2.778-.082 5.635a2.053 2.053 0 0 0 2.026 2.081h.051l4.47-.051s-1.304 5.513-1.089 5.851a1.185 1.185 0 0 0 2.106-.227c.18-.747 3.856-9.652 3.856-9.652s2.408 2.077 2.742.891c-.021-.014.64-.733-.93-2.171h-.004z"/>
        <path fill="#3B1919" fill-opacity=".2" d="M112.111 142.397c0-.033.212-.169.506-.471a3.55 3.55 0 0 0 1.025-2.94 5 5 0 0 1-.108-.675c.14.19.23.417.259.654a3.25 3.25 0 0 1-1.071 3.076 1.4 1.4 0 0 1-.611.356m2.878-.187a4.6 4.6 0 0 0 .938-3.648c.112.166.18.356.194.554.079.467.058.948-.061 1.408a3.4 3.4 0 0 1-.632 1.276c-.234.306-.421.431-.435.413zm3.465-3.234c.072.147.1.309.089.47 0 .809-.33 1.585-.916 2.146-.226.205-.395.298-.413.273a4.34 4.34 0 0 0 1.24-2.9v.014z"/>
        <path fill="#455A64" d="M84.385 60.682h-.122l-.356-.043a3.4 3.4 0 0 1-.564-.133 4.7 4.7 0 0 1-.751-.27 6.5 6.5 0 0 1-1.8-1.21 7 7 0 0 1-1.636-2.373 6.5 6.5 0 0 1-.47-1.624 6 6 0 0 1 .046-1.83c.22-1.25.938-2.46.938-3.84a4.95 4.95 0 0 0-.557-2.017 6.1 6.1 0 0 1-.658-2.185c.018-.82.367-1.595.967-2.153a8 8 0 0 1 1.987-1.408c.712-.352 1.38-.784 1.995-1.287a4.16 4.16 0 0 0 1.2-1.88 34 34 0 0 0 .74-4.326c.126-.69.378-1.348.74-1.948a4 4 0 0 1 1.431-1.348 9.1 9.1 0 0 1 3.371-.891c.949-.065 1.89-.212 2.814-.442a5.8 5.8 0 0 0 1.933-.895c.367-.266.676-.607.902-.999.151-.27.205-.428.22-.417a2.3 2.3 0 0 1-.18.442 3 3 0 0 1-.891 1.05 5.7 5.7 0 0 1-1.952.938c-.923.24-1.865.398-2.814.47a9 9 0 0 0-3.284.892 3.7 3.7 0 0 0-1.348 1.286 5.5 5.5 0 0 0-.704 1.88 39 39 0 0 1-.737 4.359 4.45 4.45 0 0 1-1.265 1.998 10.4 10.4 0 0 1-2.038 1.308 7.8 7.8 0 0 0-1.933 1.348 2.82 2.82 0 0 0-.902 1.976c.057 1.485 1.229 2.706 1.2 4.223a6.4 6.4 0 0 1-.41 2.038q-.33.905-.546 1.843a6 6 0 0 0-.061 1.768c.072.543.216 1.075.42 1.582a6.95 6.95 0 0 0 1.571 2.346c.514.5 1.103.913 1.75 1.226a8 8 0 0 0 1.732.546zm36.049-16.962c-.033 0-.033-.442-.219-1.208a7.14 7.14 0 0 0-1.539-2.918 6.85 6.85 0 0 0-4.222-2.347 28 28 0 0 1-2.918-.47 4.4 4.4 0 0 1-2.577-1.848 14.3 14.3 0 0 1-1.341-2.886 11 11 0 0 0-1.286-2.601 7.3 7.3 0 0 0-4.025-2.656 7.5 7.5 0 0 0-3.285-.108q-.447.096-.877.244-.147.061-.305.09.14-.081.291-.136.426-.18.873-.288a7.2 7.2 0 0 1 3.36.029 7.4 7.4 0 0 1 4.169 2.688c.561.82 1.01 1.71 1.333 2.649.338.984.78 1.926 1.319 2.813a4.2 4.2 0 0 0 2.441 1.754 27 27 0 0 0 2.889.471 6.98 6.98 0 0 1 4.298 2.447 7 7 0 0 1 1.502 3.008q.1.45.122.91.013.179-.003.359z"/>
        <path fill="#BED830" d="M143.969 79.98a6.26 6.26 0 0 1-7.123 5.254 6.26 6.26 0 0 1-5.254-7.122 6.256 6.256 0 1 1 12.374 1.869z" class="dynamic-color"/>
        <path fill="#fff" d="M138.722 72.858a6.26 6.26 0 0 0-7.122 5.254s4.319.851 5.635-.744a9.3 9.3 0 0 0 1.487-4.51" opacity=".1"/>
        <path fill="#BED830" d="M142.41 79.646a4.758 4.758 0 1 1-3.997-5.416 4.756 4.756 0 0 1 3.993 5.413h.004z" class="dynamic-color"/>
        <path fill="#000" d="M142.41 79.646a4.758 4.758 0 1 1-3.997-5.416 4.756 4.756 0 0 1 3.993 5.413h.004z" opacity=".24"/>
        <path fill="#000" d="m139.067 80.753.421.751a2.577 2.577 0 0 1-3.745-2.135l-.974-.266.169-.625.841.23c.011-.068.025-.126.043-.194.022-.075.04-.15.079-.22l-.851-.233.168-.625.992.27a2.57 2.57 0 0 1 2.793-1.01 2.58 2.58 0 0 1 1.491 1.107l-.744.43a1.72 1.72 0 0 0-.974-.704 1.73 1.73 0 0 0-1.656.425l1.459.398-.169.626-1.675-.457a2 2 0 0 0-.079.22c-.018.068-.036.133-.043.194l1.685.46-.169.625-1.477-.403a1.73 1.73 0 0 0 1.219 1.247c.417.115.833.058 1.196-.111" opacity=".1"/>
        <path fill="#FEFDFF" d="m138.884 80.523.421.751a2.576 2.576 0 0 1-3.745-2.135l-.974-.266.169-.625.841.23c.011-.068.025-.126.043-.194.021-.075.039-.15.079-.22l-.852-.233.169-.625.992.27a2.573 2.573 0 0 1 4.284.097l-.744.43a1.723 1.723 0 0 0-2.631-.28l1.459.4-.169.625-1.674-.457q-.046.107-.079.22c-.018.068-.036.133-.043.194l1.685.46-.169.625-1.477-.403c.144.586.6 1.079 1.218 1.248.417.114.834.057 1.197-.112"/>
        <path fill="#BED830" d="M51.8 28.011c1.894 4.826-.485 10.275-5.311 12.169-4.827 1.894-10.275-.486-12.169-5.312s.486-10.275 5.312-12.168h.004c4.826-1.89 10.27.488 12.164 5.315z" class="dynamic-color"/>
        <path fill="#fff" d="M39.64 22.696c-4.827 1.894-7.206 7.342-5.312 12.168 0 0 6.249-2.134 6.756-5.189.506-3.055-1.445-6.979-1.445-6.979" opacity=".1"/>
        <path fill="#BED830" d="M49.526 28.744a7.135 7.135 0 1 1-13.287 5.208 7.135 7.135 0 1 1 13.286-5.207" class="dynamic-color"/>
        <path fill="#000" d="M49.526 28.744a7.135 7.135 0 1 1-13.287 5.208 7.135 7.135 0 1 1 13.286-5.207" opacity=".24"/>
        <path fill="#000" d="m45.64 32.295 1.032.427a3.33 3.33 0 0 1-1.725 1.675 3.32 3.32 0 0 1-3.795-.855l-1.208.507-.327-.773 1.043-.439c-.047-.079-.076-.15-.112-.233a1.3 1.3 0 0 1-.097-.288l-1.053.442-.327-.772 1.23-.518a3.34 3.34 0 0 1 2.037-3.263 3.32 3.32 0 0 1 2.4-.064l-.413 1.035a2.23 2.23 0 0 0-2.9 1.818l1.804-.762.327.773-2.073.873c.028.097.057.194.097.288.036.082.068.165.111.233l2.084-.877.328.773-1.826.769a2.23 2.23 0 0 0 2.239.295 2.2 2.2 0 0 0 1.128-1.071z" opacity=".1"/>
        <path fill="#FEFDFF" d="m45.27 32.209 1.032.427a3.33 3.33 0 0 1-1.725 1.675 3.32 3.32 0 0 1-3.795-.855l-1.208.506-.327-.772 1.042-.439c-.046-.079-.075-.15-.11-.233a1.4 1.4 0 0 1-.098-.288l-1.053.442-.327-.772 1.23-.518a3.34 3.34 0 0 1 2.037-3.263 3.32 3.32 0 0 1 2.4-.065l-.413 1.035a2.23 2.23 0 0 0-2.9 1.818l1.804-.761.327.773-2.074.873c.03.097.058.194.097.287.036.083.069.166.112.234l2.084-.877.327.773-1.825.769a2.23 2.23 0 0 0 2.239.294 2.2 2.2 0 0 0 1.128-1.07z"/>
        <path fill="#fff" d="m140.907 43.392 3.824.496c3.468 5.862 11.033 7.802 16.894 4.33 5.862-3.467 7.802-11.032 4.331-16.893-3.468-5.862-11.033-7.802-16.894-4.33a12.33 12.33 0 0 0-5.858 12.782z"/>
        <path fill="#263238" d="m153.898 41.326-.136 1.568 1.679.147.137-1.569zm-1.749-6.224 1.667.147a1.426 1.426 0 0 1 1.538-1.305h.04a1.36 1.36 0 0 1 1.232.985 1.5 1.5 0 0 1-.233 1.34 1.82 1.82 0 0 1-2.092.51l-.33 3.767 1.653.144.194-2.207a3.235 3.235 0 0 0 2.616-2.947 3.014 3.014 0 0 0-2.724-3.273c-.047 0-.093-.008-.14-.011a2.877 2.877 0 0 0-3.421 2.842z" opacity=".13"/>
        <path fill="#F5F5F5" d="m0 71.366 34.213-12.035 9.232 19.5L9.232 90.865z"/>
        <path fill="#E0E0E0" d="M32.793 67.402c.036.069-5.675 2.138-12.747 4.622C12.977 74.507 7.23 76.473 7.19 76.4s5.678-2.127 12.747-4.618c7.069-2.49 12.823-4.445 12.851-4.38zm2.577 5.006c.032.061-5.675 2.135-12.744 4.622S9.807 81.472 9.771 81.407s5.675-2.135 12.747-4.618c7.07-2.483 12.826-4.442 12.852-4.38M8.69 65.066l13.253-4.664-.118 1.333 1.545.88-.56 1.362 1.66.967-13.897 4.884.15-1.653-1.095-1.107.352-.999-1.294-1.003z"/>
    </g>
    <defs>
        <clipPath id="a">
            <path fill="#fff" d="M0 17h184v150.578H0z"/>
        </clipPath>
    </defs>
</svg>
