<svg xmlns="http://www.w3.org/2000/svg" xml:space="preserve" style="enable-background:new 0 0 1000 156" viewBox="0 0 1000 156">
    <path d="M980.4 13.8c3.3 0 6.5.8 9.7 2.5 3.1 1.7 5.6 4.1 7.3 7.3 1.8 3.2 2.6 6.4 2.6 9.9 0 3.4-.9 6.6-2.6 9.8-1.7 3.1-4.1 5.5-7.3 7.3-3.1 1.7-6.4 2.6-9.8 2.6-3.4 0-6.7-.9-9.8-2.6-3.1-1.7-5.5-4.2-7.3-7.3-1.7-3.1-2.6-6.4-2.6-9.8 0-3.4.9-6.7 2.6-9.9 1.8-3.2 4.2-5.6 7.4-7.3 3.3-1.7 6.5-2.5 9.8-2.5zm0 3.2c-2.8 0-5.4.7-8.1 2.1-2.6 1.4-4.7 3.4-6.1 6.1-1.5 2.6-2.2 5.4-2.2 8.2 0 2.8.7 5.5 2.2 8.1 1.4 2.6 3.5 4.6 6.1 6.1 2.6 1.4 5.3 2.2 8.1 2.2s5.5-.7 8.1-2.2c2.6-1.4 4.6-3.5 6.1-6.1 1.4-2.6 2.2-5.3 2.2-8.1s-.7-5.6-2.2-8.2c-1.5-2.6-3.5-4.7-6.1-6.1-2.7-1.4-5.4-2.1-8.1-2.1zm-8.6 27.3V23.2h7.3c2.5 0 4.3.2 5.4.6 1.1.4 2 1.1 2.7 2 .7 1 1 2 1 3.1 0 1.5-.6 2.9-1.7 4s-2.6 1.8-4.4 1.9c.7.3 1.3.7 1.8 1.1.9.8 1.9 2.2 3.1 4.2l2.6 4.1h-4.2l-1.9-3.3c-1.5-2.6-2.7-4.3-3.6-4.9-.6-.5-1.5-.7-2.7-.7h-2v9h-3.4zm3.4-11.9h4.1c2 0 3.3-.3 4-.9.7-.6 1.1-1.4 1.1-2.3 0-.6-.2-1.2-.5-1.7s-.8-.9-1.4-1.1c-.6-.2-1.8-.4-3.4-.4h-3.9v6.4zm-509.6 94.7-.2-58.4c0-11.9-2.4-20.8-7.3-26.9-6-7.5-16-11.3-29.9-11.3H423c-14.5 0-24.4 4-29.9 12.1-4.4 6.6-6.6 17.8-6.6 33.6V127h-18V77.6c0-15.2-2.3-26.4-6.8-33.6-5.6-9-15.3-13.4-29.1-13.4H327c-14.3 0-24.3 4.4-29.9 13.3-4.5 7.1-6.8 18.5-6.8 34.3l.2 49h-19.1V13.7h18.9v14.4c7.2-9.6 18.6-14.4 34.1-14.4H335c20.2 0 34.1 7.2 41.7 21.5 7.9-14.3 21.7-21.5 41.6-21.5h13.9c33.8 0 50.6 18.4 50.6 55.3v58.1h-17.2zm161.8-61v11.3c0 19.3-3.1 32.3-9.2 39-6.6 7.1-19.4 10.7-38.3 10.7H545c-20.7 0-34.4-3.9-41.1-11.8-6.1-7.1-9.2-21.1-9.2-42.1 0-16.2 1-27.9 2.9-35.1 2.5-9.1 7.4-15.5 14.8-19.4 7.4-3.9 18.9-5.8 34.5-5.8h31.4c15.2 0 26.4 1.8 33.6 5.5 10.2 5.2 15.3 14.6 15.2 28.3h-19.7c0-6.3-3-10.9-9.1-14.1-4.5-2.3-10.2-3.4-17-3.4l-19-.2c-2 0-7 .1-14.7.2-15.1.3-24.8 3.7-29 10-3.1 4.8-4.7 15.2-4.7 31.2 0 11.3.4 18.9 1.1 22.6 1.2 5.8 4 9.9 8.3 12.3 4.4 2.4 11.8 3.6 22.2 3.6h33.6c11.5 0 19-1.4 22.3-4.2 3.7-3.2 5.5-10.5 5.5-21.8H559V66.1h68.4zm138.9 11.8c0 19-3 31.8-9.1 38.5-6.6 7.2-19.2 10.8-37.8 10.8h-79.9V13.7h77.2c15.9 0 27.4 2.4 34.8 7.3 6.7 4.3 11 11.5 12.9 21.5 1.3 6.4 1.9 18.3 1.9 35.4m-19.2-.6V63c0-12.6-2.1-21.1-6.4-25.6-4.3-4.4-12.7-6.6-25.3-6.6h-56.5v79.1h57.9c12.9 0 21.4-2.3 25.2-6.8 3.4-4 5.1-12.6 5.1-25.8m37.3-63.6h19.2v113.4h-19.2zM948 93.8c0 12.5-3.2 21.4-9.7 26.5-5.7 4.5-14.9 6.8-27.7 6.8h-56.8c-24.9 0-37.3-10.7-37.2-32.2h19.6c0 9.9 7 14.9 21 14.9h49c6.8 0 11.9-.9 15.2-2.8 4.4-2.5 6.6-6.9 6.6-13.3 0-7.2-3.8-12.1-11.5-14.7-4.6-1.6-11.5-2.4-20.5-2.4-3.7 0-9.1.1-16.3.4-7.2.3-12.7.4-16.3.4-14.3 0-25.1-1.8-32.4-5.3-10-5.1-15-14-15-26.9 0-11.6 3.5-20 10.4-25.1 5.9-4.3 15-6.5 27.2-6.5h54c26.6 0 40 10.7 40 32h-20.4c0-9.9-7.1-14.9-21.4-14.9h-51c-11.7 0-17.6 4.9-17.6 14.7 0 10.2 10.7 15.4 32.2 15.4 3.3 0 8.3-.2 15-.6 6.6-.4 11.6-.6 15-.6 14.7 0 25.8 2 33.3 6 10.1 5.6 15.3 14.9 15.3 28.2" style="fill:#201747"/>
    <linearGradient id="a" x1="181.242" x2="78.532" y1="10.676" y2="35.695" gradientUnits="userSpaceOnUse">
        <stop offset="0" style="stop-color:#bed630"/>
        <stop offset=".291" style="stop-color:#6c9c31"/>
        <stop offset=".72" style="stop-color:#268f3b"/>
        <stop offset="1" style="stop-color:#006f3b"/>
    </linearGradient>
    <path d="M88.9 49.1c-9.2 12.1-10.2-11.7-13.4-19.4-1.3-3.2 3.7-7.6 11.5-10.8C93.7 16.1 137.8-5.4 204.2 1c0 0 8.3 1.2-3 4.5S127.1 31 115.8 36.7c-12.1 6.1-22.7 9.9-26.9 12.4z" style="fill:url(#a)"/>
    <linearGradient id="b" x1="104.462" x2="226.61" y1="61.654" y2="42.569" gradientUnits="userSpaceOnUse">
        <stop offset=".146" style="stop-color:#bed630"/>
        <stop offset=".489" style="stop-color:#6c9c31"/>
        <stop offset=".68" style="stop-color:#268f3b"/>
        <stop offset=".888" style="stop-color:#006f3b"/>
    </linearGradient>
    <path d="m201.5 75.9-11.7 13.9c4.6-5.1 8.5-9.7 11.7-13.9zm-127-47.2c-2.2 4.3-3.7 10.7.7 17.8 1.1 2.5 2.7 4.6 5.1 6C97.8 62.7 261-1.2 201.5 75.9l16.4-19.3c9.1-70.7-105.2-37.8-135.1-28-1.7.4-3.7.7-5.2.3-2.1-.6-2-1.9-1.3-3.2-.5.6-1 1.4-1.4 2.2" style="fill:url(#b)"/>
    <linearGradient id="c" x1="189.474" x2="136.911" y1="62.063" y2="88.875" gradientUnits="userSpaceOnUse">
        <stop offset="0" style="stop-color:#bed630"/>
        <stop offset=".291" style="stop-color:#6c9c31"/>
        <stop offset=".72" style="stop-color:#268f3b"/>
        <stop offset="1" style="stop-color:#006f3b"/>
    </linearGradient>
    <path d="M206.2 92.1c28.8-22.3 18-64.3-7.5-74.9 23.7 19.9.3 37.4-35.2 52.3 0 0-4.9 1.7-5.2 6.9-.3 6.5 13.4 31.5 17 31.3 3.6-.2 19.9-7.2 30.9-15.6z" style="fill:url(#c)"/>
    <linearGradient id="d" x1="53.211" x2="15.199" y1="71.686" y2="96.183" gradientUnits="userSpaceOnUse">
        <stop offset=".011" style="stop-color:#00adee"/>
        <stop offset=".298" style="stop-color:#0094d9"/>
        <stop offset=".528" style="stop-color:#0071bb"/>
        <stop offset=".764" style="stop-color:#0060ae"/>
        <stop offset=".983" style="stop-color:#023f87"/>
    </linearGradient>
    <path d="M12.6 111.4C4.8 102.4 1.1 93.1.2 85.9-3.9 50.8 59 37.1 59 37.1s11.2 22.8 3 27.4c-18.8 10.7-95.9 39-24.7 57.6" style="fill:url(#d)"/>
    <linearGradient id="e" x1="31.102" x2="124.022" y1="105.278" y2="95.985" gradientUnits="userSpaceOnUse">
        <stop offset=".011" style="stop-color:#00adee"/>
        <stop offset=".298" style="stop-color:#0094d9"/>
        <stop offset=".528" style="stop-color:#0071bb"/>
        <stop offset=".764" style="stop-color:#0060ae"/>
        <stop offset=".983" style="stop-color:#023f87"/>
    </linearGradient>
    <path d="M0 80.8c.2 16.6 8.1 44.5 33.3 46.2 62 4.3 114.8-24.5 132.9-7.5 0 0-20-36.3-28.4-38.7C126.2 77.6 4.7 110.6 0 80.6" style="fill:url(#e)"/>
    <linearGradient id="f" x1="122.706" x2="59.35" y1="114.128" y2="136.092" gradientUnits="userSpaceOnUse">
        <stop offset=".011" style="stop-color:#00adee"/>
        <stop offset=".298" style="stop-color:#0094d9"/>
        <stop offset=".528" style="stop-color:#0071bb"/>
        <stop offset=".764" style="stop-color:#0060ae"/>
        <stop offset=".983" style="stop-color:#023f87"/>
    </linearGradient>
    <path d="M135 80.6s11.9-3.6 31.6 36.1c2.2 4.3 3.2 4.8-3.5 9.3-6.7 4.5-71.9 36.1-127.3 29 0 0-9.3-2 2.2-5.9 11.5-4 74.3-31.3 85.2-38.5C135 103 148 89.9 135 80.6z" style="fill:url(#f)"/>
</svg>
