<svg xmlns="http://www.w3.org/2000/svg" data-name="Calque 2" viewBox="0 0 395.53 112.57">
    <g data-name="Calque 1">
        <g data-name="Calque 2-2">
            <path d="M51.42 25.36c-8.57 0-16.63 4.06-21.79 10.93-.8-.07-1.59-.11-2.36-.11C12.23 36.18 0 48.41 0 63.44v41.43c0 2.06.76 4.09 2.23 5.54a7.4 7.4 0 0 0 5.26 2.16h.16l1.83-.04s.05-.02.05-.05V61.64c0-8.33 6.88-15.09 15.26-14.88-.42 1.92-.64 3.88-.64 5.86v14.62l.02 1.99v.52c0 .25 0 .5-.02.75v.89c0 .28 0 .55.02.82v.1a15.13 15.13 0 0 0 13.67 14.2c1.02.1 1.96.1 2.98 0 3.67-.36 6.79-2.19 9-5.31 1.94-2.72 3.06-6.32 3.16-10.13l.02-5.3v-3.05c0-10.66-5.02-19.29-13.56-23.64 2.6-2.02 5.8-3.14 9.11-3.14 8.21 0 14.88 6.68 14.88 14.88v35.27c0 3.47 1.22 6.87 3.59 9.41 2.55 2.71 6.02 4.21 9.72 4.21h1.84s.09-.04.09-.09v-47c0-15.06-12.21-27.27-27.27-27.27Zm-9.24 38.69v8.64l.01.38c0 3.06-2.03 5.55-4.51 5.55s-4.51-2.49-4.51-5.55V61.03l-.01-11.82 1.83 1.15c4.37 2.75 7.19 8.12 7.19 13.68ZM26.47 29.22c1.89 0 3.5-.67 4.84-2s2-2.95 2-4.83-.66-3.5-2-4.83c-1.34-1.34-2.95-2-4.84-2s-3.49.67-4.83 2-2.01 2.95-2.01 4.83.67 3.5 2.01 4.83c1.34 1.34 2.95 2 4.83 2m25.18-10.83c2.54 0 4.71-.9 6.5-2.7 1.8-1.79 2.69-3.96 2.69-6.5s-.89-4.71-2.69-6.5c-1.8-1.8-3.96-2.7-6.5-2.7s-4.7.9-6.49 2.7c-1.8 1.79-2.7 3.96-2.7 6.5s.9 4.71 2.7 6.5c1.8 1.8 3.96 2.7 6.49 2.7m127.68 22.78c-1.37-2-3.24-3.59-5.59-4.75-2.36-1.16-5.26-1.74-8.71-1.74-3.8 0-7 .71-9.6 2.11-2.61 1.41-4.83 3.76-6.66 7.07-1.41-3.16-3.5-5.49-6.28-6.97s-5.96-2.22-9.55-2.22c-1.9 0-3.66.25-5.27.74-1.62.49-3.07 1.13-4.33 1.9s-2.36 1.65-3.27 2.64-1.62 1.97-2.11 2.96h-.21v-6.97h-15.2v51.29h15.83V61.69c0-1.69.11-3.31.32-4.86q.315-2.325 1.32-4.17c.67-1.23 1.63-2.22 2.9-2.96 1.26-.74 2.92-1.11 4.96-1.11 1.83 0 3.22.42 4.17 1.27.94.85 1.63 1.86 2.05 3.06.43 1.2.67 2.46.74 3.8s.11 2.46.11 3.38v27.13h15.83V60.1c0-1.55.16-3.02.47-4.43.32-1.41.84-2.64 1.58-3.69a7.56 7.56 0 0 1 2.96-2.48q1.845-.9 4.59-.9c2.6 0 4.42.86 5.44 2.59s1.53 3.78 1.53 6.18v29.87h15.83V56.95c0-3.1-.3-6-.89-8.71-.6-2.71-1.58-5.06-2.96-7.07m54.3 1.53h-.21c-.64-.91-1.48-1.85-2.53-2.8-1.06-.95-2.32-1.81-3.8-2.59s-3.15-1.41-5.02-1.9c-1.86-.49-3.93-.74-6.18-.74-3.66 0-6.93.76-9.82 2.27s-5.33 3.5-7.33 5.96-3.56 5.31-4.64 8.55c-1.1 3.24-1.64 6.54-1.64 9.92 0 3.87.6 7.42 1.8 10.66 1.19 3.24 2.9 6.03 5.12 8.39s4.87 4.19 7.97 5.49c3.09 1.3 6.55 1.95 10.34 1.95q3.585 0 7.65-1.53c2.71-1.02 4.97-2.76 6.8-5.22h.21v4.96c0 3.65-1.14 6.67-3.43 9.02-2.29 2.36-5.86 3.53-10.72 3.53-3.24 0-6.21-.6-8.92-1.8-2.71-1.19-5.29-2.81-7.76-4.85l-8.76 13.09c3.73 2.96 7.81 4.94 12.24 5.96a60 60 0 0 0 13.51 1.53c9.99 0 17.44-2.52 22.32-7.55 4.89-5.03 7.33-12.4 7.33-22.11V35.92h-14.57v6.76Zm-.95 23.38c-.64 1.51-1.53 2.85-2.7 4.01-1.16 1.16-2.52 2.09-4.06 2.8-1.55.71-3.19 1.05-4.96 1.05s-3.51-.35-5.02-1.05-2.85-1.64-4.01-2.8-2.05-2.5-2.69-4.01c-.64-1.52-.95-3.11-.95-4.8s.32-3.28.95-4.8c.64-1.51 1.53-2.85 2.69-4.01s2.5-2.09 4.01-2.8 3.19-1.06 5.02-1.06 3.41.35 4.96 1.06 2.9 1.64 4.06 2.8c1.17 1.16 2.06 2.5 2.7 4.01.64 1.52.94 3.11.94 4.8s-.31 3.29-.94 4.8m66.17-24.65h-.21q-2.745-3.69-7.02-5.22c-2.85-1.02-5.93-1.53-9.23-1.53-3.66 0-6.93.76-9.82 2.27a22.4 22.4 0 0 0-7.33 6.07c-2 2.53-3.56 5.43-4.64 8.71-1.1 3.27-1.64 6.7-1.64 10.29 0 3.87.6 7.42 1.8 10.66 1.19 3.23 2.9 6.03 5.12 8.39s4.87 4.19 7.97 5.49c3.09 1.3 6.55 1.95 10.34 1.95 1.76 0 3.46-.25 5.12-.74 1.65-.49 3.17-1.13 4.53-1.9 1.37-.78 2.57-1.64 3.59-2.59s1.85-1.88 2.48-2.8h.21v6.76h14.57V7.45h-15.83v33.98Zm-2.06 29.55c-2.22 2.39-5.33 3.59-9.34 3.59s-7.13-1.2-9.35-3.59-3.32-5.52-3.32-9.39 1.11-7 3.32-9.39 5.33-3.59 9.35-3.59 7.12 1.2 9.34 3.59 3.32 5.52 3.32 9.39-1.11 7-3.32 9.39m38.68-60.37c-2.53 0-4.69.9-6.49 2.69s-2.7 3.96-2.7 6.49.9 4.7 2.7 6.49c1.8 1.8 3.96 2.69 6.49 2.69s4.7-.9 6.49-2.69c1.8-1.79 2.69-3.96 2.69-6.49s-.89-4.7-2.69-6.49c-1.8-1.8-3.96-2.69-6.49-2.69m-7.91 25.34h15.83v51.29h-15.83zm66.02 27.91c-1.31-1.93-2.96-3.46-4.96-4.59a24.3 24.3 0 0 0-6.44-2.48c-2.28-.53-4.43-1.02-6.44-1.48-2-.46-3.66-.98-4.96-1.59-1.31-.6-1.95-1.53-1.95-2.8 0-1.55.63-2.64 1.9-3.27 1.26-.63 2.57-.95 3.9-.95 3.8 0 6.86 1.44 9.18 4.33l9.72-9.6q-3.6-3.795-8.76-5.28c-3.44-.98-6.86-1.48-10.24-1.48-2.67 0-5.32.34-7.91 1-2.61.67-4.91 1.71-6.91 3.11-2.01 1.41-3.62 3.2-4.86 5.38-1.23 2.18-1.85 4.78-1.85 7.81 0 3.23.65 5.82 1.96 7.76 1.3 1.94 2.96 3.43 4.96 4.48 2.01 1.06 4.15 1.85 6.44 2.37 2.28.53 4.43 1.02 6.43 1.48 2.01.46 3.66 1.02 4.96 1.69s1.95 1.67 1.95 3.01c0 1.41-.74 2.37-2.22 2.9s-3.13.79-4.96.79c-2.4 0-4.49-.47-6.28-1.43-1.8-.95-3.44-2.34-4.91-4.17l-9.6 10.66c2.53 2.6 5.63 4.42 9.29 5.44s7.28 1.53 10.87 1.53c2.74 0 5.52-.27 8.34-.79 2.81-.53 5.34-1.44 7.59-2.74s4.11-3.03 5.55-5.17c1.43-2.14 2.16-4.87 2.16-8.18s-.64-5.82-1.95-7.76Z" data-name="Calque 1-2" style="fill:#0f056b;stroke-width:0"/>
        </g>
        <path d="m33.13 49.21 1.83 1.15c4.36 2.74 7.2 8.19 7.2 13.73v1.61H53l-.08-3.05C53 51.92 47.93 43.43 39.41 39.1c0 0-5.25 3.03-6.29 10.11" style="stroke-width:0;fill:url(#Dégradé_sans_nom_14)"/>
    </g>
</svg>
