<svg xmlns="http://www.w3.org/2000/svg" fill="none" viewBox="0 0 16 16">
    <path fill="currentColor" fill-rule="evenodd" d="M8 6.5a2 2 0 1 1-4 0 2 2 0 0 1 4 0m-1 0a1 1 0 1 1-2 0 1 1 0 0 1 2 0" clip-rule="evenodd"/>
    <path fill="currentColor" d="M13 5h-3v1h3zm-3 2h3v1h-3z"/>
    <path fill="currentColor" fill-rule="evenodd" d="M5.4 9A2.4 2.4 0 0 0 3 11.4a.6.6 0 0 0 .6.6h4.8a.6.6 0 0 0 .6-.6A2.4 2.4 0 0 0 6.6 9zm0 1a1.4 1.4 0 0 0-1.342 1h3.884A1.4 1.4 0 0 0 6.6 10z" clip-rule="evenodd"/>
    <path fill="currentColor" fill-rule="evenodd" d="M2 2a1 1 0 0 0-1 1v10a1 1 0 0 0 1 1h12a1 1 0 0 0 1-1V3a1 1 0 0 0-1-1zm12 1H2v10h12z" clip-rule="evenodd"/>
</svg>
