<svg xmlns="http://www.w3.org/2000/svg" fill="none" viewBox="0 0 16 16">
    <path fill="currentColor" d="M14.21 2.67H1.79c-.63 0-1.14.51-1.14 1.14v8.38c0 .63.51 1.14 1.14 1.14h12.42c.63 0 1.14-.51 1.14-1.14V3.81c0-.63-.51-1.14-1.14-1.14M5.35 5c.84 0 1.53.69 1.53 1.53s-.69 1.53-1.53 1.53-1.53-.69-1.53-1.53v-.05c.02-.83.7-1.49 1.53-1.48M8 10.59a.5.5 0 0 1-.53.46H3.21a.5.5 0 0 1-.53-.46v-.46c.07-.81.78-1.42 1.6-1.37h.12c.61.26 1.29.26 1.9 0h.12c.81-.04 1.51.56 1.58 1.37zm5.34-1.26c0 .1-.09.19-.19.19H9.73c-.1 0-.18-.07-.19-.17V9c0-.1.09-.19.19-.19h3.43c.1 0 .18.09.19.19v.33zm0-1.52c0 .1-.09.18-.19.19H9.73c-.1 0-.19-.09-.19-.19v-.38c0-.1.07-.18.17-.19h3.45c.1 0 .19.09.19.19v.38zm0-1.52c0 .1-.09.18-.19.19H9.73c-.1 0-.19-.09-.19-.19V5.9c0-.1.09-.19.19-.19h3.43c.11 0 .19.09.19.2v.38z"/>
</svg>
