<svg aria-hidden="true" viewBox="0 0 16 16">
    <path fill="currentColor" d="M13.88 12.52H2.12c-.25 0-.45.21-.45.46v.9c0 .25.2.45.45.45h11.76c.25 0 .45-.2.45-.45V13a.466.466 0 0 0-.44-.48h-.01Zm0-3.62H2.12c-.25 0-.45.21-.45.46v.9c0 .25.2.45.45.45h11.76c.25 0 .45-.2.45-.45v-.9c0-.25-.2-.45-.45-.46Zm0-3.61H2.12c-.25 0-.45.2-.45.45v.9c0 .25.2.45.45.46h11.76c.25 0 .45-.21.45-.46v-.9c0-.25-.2-.45-.45-.45Zm0-3.62H2.12c-.25 0-.45.2-.45.45V3c0 .25.2.45.45.46h11.76c.25 0 .45-.21.45-.46v-.9a.45.45 0 0 0-.45-.43Z"/>
</svg>
