<svg aria-hidden="true" viewBox="0 0 16 16">
    <path fill="currentColor" d="M13.88 5.29H2.12c-.25 0-.45.2-.45.45v.9c0 .25.2.45.45.45h11.76c.25 0 .45-.2.45-.45v-.9c0-.25-.2-.45-.45-.45Zm0 7.24H2.12c-.25 0-.45.2-.45.45v.9c0 .25.2.45.45.45h11.76c.25 0 .45-.2.45-.45v-.9c0-.25-.2-.45-.45-.45ZM4.72 3.48h6.55c.19 0 .34-.15.34-.34V2.01c0-.19-.15-.34-.34-.34H4.72c-.19 0-.34.15-.34.34v1.13c0 .19.15.34.34.34Zm6.55 7.24c.19 0 .34-.15.34-.34V9.25c0-.19-.15-.34-.34-.34H4.72c-.19 0-.34.15-.34.34v1.13c0 .19.15.34.34.34h6.55Z"/>
</svg>
