<svg aria-hidden="true" viewBox="0 0 16 16">
    <path fill="currentColor" d="M2 10.71h7.45c.2 0 .36-.16.36-.36V9.27c0-.2-.16-.36-.36-.37H2c-.2 0-.36.17-.36.37v1.08c0 .2.16.36.36.36Zm0-7.23h7.45c.2 0 .36-.17.36-.37V2c0-.2-.16-.36-.36-.36H2a.36.36 0 0 0-.33.36v1.11c0 .19.14.35.33.37Zm11.88 1.81H2.12c-.25 0-.45.2-.45.45v.9c0 .25.2.45.45.46h11.76c.25 0 .45-.21.45-.46v-.9c0-.25-.2-.45-.45-.45Zm0 7.23H2.12c-.25 0-.45.21-.45.46v.9c0 .25.2.45.45.45h11.76c.25 0 .45-.2.45-.45V13c0-.25-.2-.45-.45-.46v-.02Z"/>
</svg>
