<svg aria-hidden="true" viewBox="0 0 16 16">
    <path fill="currentColor" d="M2.12 7.1h11.76c.25 0 .45-.21.45-.46v-.9c0-.25-.2-.45-.45-.45H2.12c-.25 0-.45.2-.45.45v.9c0 .25.2.45.45.46Zm11.76 5.42H2.12c-.25 0-.45.21-.45.46v.9c0 .25.2.45.45.45h11.76c.25 0 .45-.2.45-.45V13a.466.466 0 0 0-.44-.48h-.01ZM14 1.67H6.55a.36.36 0 0 0-.36.33v1.11c0 .2.16.36.36.37H14c.2 0 .36-.17.36-.37V2a.36.36 0 0 0-.36-.33Zm0 7.23H6.55c-.2 0-.36.17-.36.37v1.08c0 .2.16.36.36.36H14c.2 0 .36-.16.36-.36V9.27c0-.2-.16-.36-.36-.37Z"/>
</svg>
