<svg aria-hidden="true" viewBox="0 0 16 16">
    <path fill="currentColor" d="M14.44 11.47h-.02l-.66-.1-.02-.08c-.03-.11-.08-.21-.13-.31l-.04-.07.4-.54v-.02l-.52-.52h-.02l-.54.41-.07-.04c-.1-.05-.2-.09-.31-.13l-.08-.02-.1-.67v-.01h-.73v.02l-.1.66-.08.02c-.11.03-.21.08-.31.13l-.07.04-.55-.41-.52.52v.02l.41.54-.04.07c-.05.1-.09.2-.13.31l-.02.08-.67.1h-.01v.73h.02l.66.1.02.08c.03.1.08.21.13.3l.04.07-.41.55.52.52h.02l.54-.41.07.04c.1.05.2.09.31.13l.08.02.1.67v.01h.73v-.02l.1-.66.08-.02c.11-.03.21-.08.31-.13l.07-.04.55.41.52-.52v-.02l-.4-.54.04-.07c.05-.1.09-.2.13-.31l.02-.08.67-.1h.01v-.73Zm-2.46 1.38c-.56 0-1.01-.45-1.01-1.01s.45-1.01 1.01-1.01 1.01.45 1.01 1.01-.45 1.01-1.01 1.01ZM8.51 5.81c-.11-.09-.27-.14-.5-.14h-.38v1.17h.27c.26 0 .45-.05.58-.15.13-.1.19-.25.19-.44s-.05-.34-.16-.43Zm1.57 5.13-.3-.4c-.1-.1-.09-.27 0-.37l.52-.52c.1-.1.26-.1.37 0l.4.29c.06-.03.13-.06.2-.08l.07-.49c0-.14.12-.25.26-.25h.45a5.44 5.44 0 1 0-10.5-1.99 5.44 5.44 0 0 0 5.44 5.44c.78 0 1.54-.17 2.25-.49v-.6c0-.14.11-.26.26-.26l.49-.07c.02-.07.05-.13.08-.2Zm.18-5.96h.84v3.94h-.84V4.98ZM5.4 8.92l-.29-.94H3.67l-.29.94h-.9l1.39-3.96h1.02l1.4 3.96h-.9Zm3.72-1.74c-.26.23-.64.34-1.13.34h-.36v1.4h-.84V4.98h1.26c.48 0 .84.1 1.09.31.25.21.37.51.37.92 0 .42-.13.75-.4.97ZM4.4 5.57c-.06.23-.23.8-.51 1.71h1.03c-.26-.85-.41-1.33-.45-1.44-.03-.11-.06-.2-.07-.26Z"/>
</svg>
