<svg aria-hidden="true" viewBox="0 0 16 16">
    <path fill="currentColor" d="M10.68 10.78c.16.17.16.45-.02.61l-2.8 2.78a.43.43 0 0 1-.31.12.42.42 0 0 1-.31-.12l-2.8-2.78a.44.44 0 0 1 0-.62.44.44 0 0 1 .62 0l2.06 2.05V5.38H2.11c-.24 0-.44-.19-.44-.44 0-.24.2-.44.44-.44H8v8.32l2.06-2.05a.44.44 0 0 1 .62 0Zm3.53-6.14-2.78-2.8a.438.438 0 0 0-.61-.02.44.44 0 0 0 0 .62l2.05 2.06H8.89v.88h3.98l-2.05 2.06a.44.44 0 0 0 0 .62c.17.17.45.17.62 0l2.78-2.8s.07-.09.09-.14c.02-.05.03-.11.03-.17 0-.11-.04-.23-.12-.31Z"/>
</svg>
