<svg xmlns="http://www.w3.org/2000/svg" fill="none" viewBox="0 0 16 16">
    <path fill="currentColor" d="m3.025 3.82-.002-.001c.046-.055.098-.103.146-.156q.137-.155.282-.302c.069-.068.142-.13.215-.195q.136-.124.279-.241.12-.095.244-.184.143-.105.293-.203a7 7 0 0 1 1.198-.607q.142-.055.286-.104a6 6 0 0 1 .375-.108c.092-.025.184-.052.278-.072a6 6 0 0 1 .441-.075c.08-.012.157-.028.238-.037A6.47 6.47 0 0 1 13 3.847V1.996h1v4h-4v-1h2.594a5.48 5.48 0 0 0-5.188-2.467q-.102.014-.202.031-.188.025-.373.064c-.08.017-.157.04-.236.06a6 6 0 0 0-.317.092q-.122.042-.243.089a6 6 0 0 0-.523.232 5.4 5.4 0 0 0-.736.452q-.106.076-.208.156-.12.098-.235.204-.093.08-.183.166c-.083.081-.16.169-.239.255A5.496 5.496 0 1 0 13.5 7.996h1A6.5 6.5 0 1 1 3.025 3.82"/>
</svg>
