<svg aria-hidden="true" viewBox="0 0 16 16">
    <path fill="currentColor" d="M14.3 6.37V2.94c0-.16-.06-.32-.18-.43a.6.6 0 0 0-.85 0l-.91.91a6.354 6.354 0 0 0-3.31-1.65 6.365 6.365 0 0 0-7.33 5.22h2.14c.16-.72.5-1.38 1-1.92v-.02a4.281 4.281 0 0 1 6.05-.18L9.84 6c-.1.1-.16.24-.18.38 0 .34.28.62.62.62h3.44c.33-.02.59-.3.58-.63ZM1.71 9.63v3.43c0 .16.06.32.18.43a.6.6 0 0 0 .85 0l.91-.91c.92.88 2.09 1.46 3.35 1.66 3.47.57 6.74-1.77 7.31-5.24h-2.14c-.17.74-.54 1.42-1.06 1.97a4.254 4.254 0 0 1-6.02.16l1.07-1.08c.11-.11.17-.27.17-.42A.63.63 0 0 0 5.72 9H2.28c-.33.03-.58.3-.57.63Z"/>
</svg>
