<svg xmlns="http://www.w3.org/2000/svg" fill="none" viewBox="0 0 16 16">
    <path fill="currentColor" d="m12.975 3.82.002-.001c-.046-.055-.098-.103-.146-.156-.092-.103-.183-.205-.282-.302-.069-.068-.142-.13-.215-.195q-.135-.124-.279-.241-.12-.095-.244-.184a7 7 0 0 0-.293-.203 7 7 0 0 0-.859-.467 7 7 0 0 0-.339-.14q-.142-.055-.286-.104a6 6 0 0 0-.375-.108c-.092-.025-.184-.052-.278-.072a6 6 0 0 0-.441-.075c-.08-.012-.157-.028-.238-.037A6.47 6.47 0 0 0 3 3.847V1.996H2v4h4v-1H3.406a5.48 5.48 0 0 1 5.189-2.467q.101.014.2.031.19.025.374.064c.08.017.157.04.236.06q.16.042.317.092.122.042.243.089a6 6 0 0 1 .523.232 5.3 5.3 0 0 1 .736.452q.105.076.208.156.12.098.235.204.093.08.183.166c.083.081.16.169.239.255A5.496 5.496 0 1 1 2.5 7.996h-1A6.5 6.5 0 1 0 12.975 3.82"/>
</svg>
