<svg xmlns="http://www.w3.org/2000/svg" fill="none" viewBox="0 0 16 16">
    <path fill="currentColor" d="m3.025 3.82-.002-.001.083-.09.063-.066.009-.01q.132-.15.273-.292a4 4 0 0 1 .215-.196q.136-.124.279-.24.108-.086.22-.166l.024-.018q.143-.105.293-.203a7 7 0 0 1 1.198-.607l.029-.01q.126-.05.257-.094a6 6 0 0 1 .375-.108l.067-.019q.105-.029.21-.053c.146-.032.294-.054.442-.075l.092-.015q.072-.013.146-.022A6.47 6.47 0 0 1 13 3.847V1.996h1v4h-4v-1h2.594a5.48 5.48 0 0 0-5.189-2.467l-.124.019-.077.012q-.188.025-.373.064a3 3 0 0 0-.173.044l-.063.017a6 6 0 0 0-.317.09 6 6 0 0 0-.227.084l-.016.006a6 6 0 0 0-.523.232 5.4 5.4 0 0 0-.736.452l-.028.021q-.092.065-.18.135-.12.098-.235.204l-.05.044q-.068.06-.133.122-.117.117-.226.241l-.013.014A5.496 5.496 0 1 0 13.5 7.996h1A6.5 6.5 0 1 1 3.025 3.82"/>
    <path fill="currentColor" d="M9.795 11.746 7 8.95V4.246h1v4.29l2.5 2.505z"/>
</svg>
