<svg xmlns="http://www.w3.org/2000/svg" fill="none" viewBox="0 0 16 16">
    <path fill="currentColor" d="M13.7 7h-3.4c-.3 0-.6-.3-.6-.6 0-.1.1-.3.2-.4l1-1.1c-1.7-1.6-4.4-1.5-6 .2-.5.5-.8 1.2-1 1.9H1.8c.6-3.5 3.9-5.8 7.4-5.2 1.1.2 2.3.8 3.1 1.6l1-.9c.2-.2.6-.2.8 0 .1.1.2.3.2.4v3.4c0 .4-.3.7-.6.7M2.3 9h3.4c.3 0 .6.3.6.6 0 .2-.1.3-.2.4L5 11.1c1.7 1.6 4.4 1.5 6-.2.6-.5 1-1.2 1.2-1.9h2.1c-.6 3.5-3.8 5.8-7.3 5.2-1.3-.2-2.4-.8-3.4-1.7l-.9.9c-.2.2-.6.2-.9 0-.1-.1-.2-.3-.2-.4V9.6c.1-.3.3-.6.7-.6"/>
</svg>
