<svg aria-hidden="true" viewBox="0 0 16 16">
    <path fill="currentColor" d="M12.83.67H3.17a.5.5 0 0 0-.5.5v13.66a.5.5 0 0 0 .5.5h9.66a.5.5 0 0 0 .5-.5V1.17a.5.5 0 0 0-.5-.5ZM5.58 13.39a.29.29 0 0 1-.28.3H4.1a.29.29 0 0 1-.3-.28v-1.2a.29.29 0 0 1 .28-.3h1.2a.29.29 0 0 1 .3.28v1.2Zm0-3.28a.29.29 0 0 1-.3.3H4.1a.29.29 0 0 1-.3-.3V8.93a.29.29 0 0 1 .28-.3h1.2a.29.29 0 0 1 .3.28v1.2Zm3.29 3.28a.29.29 0 0 1-.3.3H7.38a.29.29 0 0 1-.3-.3v-1.18a.29.29 0 0 1 .3-.3h1.19a.29.29 0 0 1 .3.3Zm0-3.28a.32.32 0 0 1-.3.3H7.38a.32.32 0 0 1-.3-.3V8.93a.29.29 0 0 1 .3-.3h1.19a.29.29 0 0 1 .3.3Zm3.33 3.28a.29.29 0 0 1-.28.3h-1.25a.29.29 0 0 1-.3-.28V8.93a.29.29 0 0 1 .28-.3h1.25a.29.29 0 0 1 .3.28v4.48Zm0-7.15a.29.29 0 0 1-.3.3H4.1a.29.29 0 0 1-.3-.3V2.61a.29.29 0 0 1 .28-.3h7.82a.29.29 0 0 1 .3.28v3.65Z"/>
</svg>
