<svg xmlns="http://www.w3.org/2000/svg" fill="none" viewBox="0 0 16 16">
    <path fill="currentColor" d="M12.8.7H3.2c-.3 0-.5.2-.5.5v13.7c0 .3.2.5.5.5h9.7c.3 0 .5-.2.5-.5V1.2c-.1-.3-.3-.5-.6-.5M5.6 13.4q0 .3-.3.3H4.1q-.3 0-.3-.3v-1.2q0-.3.3-.3h1.2q.3 0 .3.3zm0-3.3q0 .3-.3.3H4.1q-.3 0-.3-.3V8.9q0-.3.3-.3h1.2q.3 0 .3.3zm3.3 3.3q0 .3-.3.3H7.4q-.3 0-.3-.3v-1.2q0-.3.3-.3h1.2q.3 0 .3.3zm0-3.3q0 .3-.3.3H7.4q-.3 0-.3-.3V8.9q0-.3.3-.3h1.2q.3 0 .3.3zm3.3 3.3q0 .3-.3.3h-1.2q-.3 0-.3-.3V8.9q0-.3.3-.3h1.2q.3 0 .3.3zm0-7.2q0 .3-.3.3H4.1q-.3 0-.3-.3V2.6q0-.3.3-.3h7.8q.3 0 .3.3z"/>
</svg>
