<svg xmlns="http://www.w3.org/2000/svg" fill="none" viewBox="0 0 16 16">
    <path fill="currentColor" d="M12.8.7H3.2c-.3 0-.5.2-.5.5v13.7c0 .3.2.5.5.5h9.7c.3 0 .5-.2.5-.5V1.2c-.1-.3-.3-.5-.6-.5ZM5.6 13.4c0 .2-.1.3-.3.3H4.1c-.2 0-.3-.1-.3-.3v-1.2c0-.2.1-.3.3-.3h1.2c.2 0 .3.1.3.3v1.2Zm0-3.3c0 .2-.1.3-.3.3H4.1c-.2 0-.3-.1-.3-.3V8.9c0-.2.1-.3.3-.3h1.2c.2 0 .3.1.3.3v1.2Zm3.3 3.3c0 .2-.1.3-.3.3H7.4c-.2 0-.3-.1-.3-.3v-1.2c0-.2.1-.3.3-.3h1.2c.2 0 .3.1.3.3v1.2Zm0-3.3c0 .2-.1.3-.3.3H7.4c-.2 0-.3-.1-.3-.3V8.9c0-.2.1-.3.3-.3h1.2c.2 0 .3.1.3.3v1.2Zm3.3 3.3c0 .2-.1.3-.3.3h-1.2c-.2 0-.3-.1-.3-.3V8.9c0-.2.1-.3.3-.3h1.2c.2 0 .3.1.3.3v4.5Zm0-7.2c0 .2-.1.3-.3.3H4.1c-.2 0-.3-.1-.3-.3V2.6c0-.2.1-.3.3-.3h7.8c.2 0 .3.1.3.3v3.6Z"/>
</svg>
