<svg xmlns="http://www.w3.org/2000/svg" fill="none" viewBox="0 0 16 16">
    <path fill="currentColor" d="m9.79 11.02.71.71a2.976 2.976 0 0 1-4.83-1.24H4.5v-.75h1.01c-.01-.08-.01-.15-.01-.23 0-.09 0-.18.02-.27H4.5v-.75h1.19a2.974 2.974 0 0 1 4.81-1.2L9.79 8c-.35-.3-.8-.49-1.29-.49-.73 0-1.37.39-1.72.98h1.75v.75H6.52c-.01.09-.02.18-.02.27 0 .08 0 .16.01.23h2.02v.75H6.76c.34.61 1 1.02 1.74 1.02.49 0 .94-.19 1.29-.49M13 3.5v1H3v-1zm-1-2h-1v1H5v-1H4v1H3c-.55 0-1 .45-1 1v10c0 .55.45 1 1 1h10c.55 0 1-.45 1-1v-10c0-.55-.45-1-1-1h-1zm-9 12v-8h10v8z"/>
</svg>
