<svg aria-hidden="true" viewBox="0 0 16 16">
    <path fill="currentColor" d="M13 2.5h-1v-1h-1v1H5v-1H4v1H3c-.6 0-1 .4-1 1v10c0 .6.4 1 1 1h10c.6 0 1-.4 1-1v-10c0-.6-.4-1-1-1Zm-10 11v-8h10v8H3Z"/>
    <path fill="currentColor" d="m9.79 11.03.71.71c-.53.48-1.23.78-2 .78-1.31 0-2.43-.85-2.83-2.02H4.5v-.75h1.02c-.02-.07-.02-.15-.02-.23 0-.09 0-.18.02-.27H4.5V8.5h1.19a2.974 2.974 0 0 1 4.81-1.2l-.71.71c-.35-.3-.8-.49-1.29-.49-.73 0-1.37.39-1.72.98h1.75v.75H6.52c-.01.09-.02.18-.02.27 0 .08 0 .16.01.23h2.02v.75H6.76c.34.61 1 1.02 1.74 1.02.49 0 .94-.19 1.29-.49Z"/>
</svg>
