<svg xmlns="http://www.w3.org/2000/svg" fill="none" viewBox="0 0 16 16">
    <path fill="currentColor" fill-rule="evenodd" d="M12 2.5h1c.6 0 1 .4 1 1v10c0 .6-.4 1-1 1H3c-.6 0-1-.4-1-1v-10c0-.6.4-1 1-1h1v-1h1v1h6v-1h1v1Zm-9 3v8h10v-8H3Zm7.5 6.24-.71-.71c-.35.3-.8.49-1.29.49-.74 0-1.4-.41-1.74-1.02h1.77v-.75H6.51c-.01-.07-.01-.15-.01-.23 0-.09.01-.18.02-.27h2.01V8.5H6.78c.35-.59.99-.98 1.72-.98.49 0 .94.19 1.29.49l.71-.71a2.974 2.974 0 0 0-4.81 1.2H4.5v.75h1.02c-.02.09-.02.18-.02.27 0 .08 0 .16.02.23H4.5v.75h1.17c.4 1.17 1.52 2.02 2.83 2.02.77 0 1.47-.3 2-.78Z" clip-rule="evenodd"/>
</svg>
