<svg xmlns="http://www.w3.org/2000/svg" fill="none" viewBox="0 0 16 16">
    <g clip-path="url(#a)">
        <path fill="currentColor" d="M.67 8C.67 3.95 3.95.67 8 .67c4.05 0 7.33 3.28 7.33 7.33 0 4.05-3.28 7.33-7.33 7.33C3.95 15.33.67 12.05.67 8ZM7.5 4.63l-4 4c-.28.27-.28.71-.01.99h.01l.5.53c.28.27.72.27 1 0l3-3 3 3c.28.27.72.27 1 0l.5-.51c.28-.27.28-.71.01-.99h-.01l-4-4.01a.697.697 0 0 0-.99-.01H7.5Z"/>
    </g>
    <defs>
        <clipPath id="a">
            <path fill="currentColor" d="M0 0h16v16H0z"/>
        </clipPath>
    </defs>
</svg>
