<svg xmlns="http://www.w3.org/2000/svg" fill="none" viewBox="0 0 16 16">
    <g clip-path="url(#a)">
        <path fill="currentColor" d="M8 15.33C3.95 15.33.67 12.05.67 8 .67 3.95 3.95.67 8 .67c4.05 0 7.33 3.28 7.33 7.33 0 4.05-3.28 7.33-7.33 7.33ZM4.63 8.5l4 4c.27.28.71.28.99.01h.01l.52-.51c.27-.28.27-.72 0-1l-3-3 3-3c.27-.28.27-.72 0-1l-.51-.5a.697.697 0 0 0-.99-.01h-.01l-4 4.01c-.28.27-.28.71-.01.99v.01Z"/>
    </g>
    <defs>
        <clipPath id="a">
            <path fill="currentColor" d="M0 0h16v16H0z"/>
        </clipPath>
    </defs>
</svg>
