<svg xmlns="http://www.w3.org/2000/svg" fill="none" viewBox="0 0 16 16">
    <g clip-path="url(#a)">
        <path fill="currentColor" d="M8 .67c4.05 0 7.33 3.28 7.33 7.33 0 4.05-3.28 7.33-7.33 7.33C3.95 15.33.67 12.05.67 8 .67 3.95 3.95.67 8 .67Zm3.37 6.83-4-4a.697.697 0 0 0-.99-.01h-.01L5.85 4c-.27.28-.27.72 0 1l3 3-3 3c-.27.28-.27.72 0 1l.51.5c.27.28.71.28.99.01h.01l4-4.01c.28-.27.28-.71.01-.99V7.5Z"/>
    </g>
    <defs>
        <clipPath id="a">
            <path fill="currentColor" d="M0 0h16v16H0z"/>
        </clipPath>
    </defs>
</svg>
