<svg xmlns="http://www.w3.org/2000/svg" fill="none" viewBox="0 0 16 16">
    <g clip-path="url(#a)">
        <path fill="currentColor" d="M8 .67C3.95.67.67 3.95.67 8c0 4.05 3.28 7.33 7.33 7.33 4.05 0 7.33-3.28 7.33-7.33C15.33 3.95 12.05.67 8 .67ZM9.69 11 7.08 9.12a.35.35 0 0 1-.14-.28v-5c0-.19.16-.35.35-.36h1.42c.2 0 .35.16.36.36v4.09l1.87 1.37c.16.1.2.32.09.47v.02h-.01l-.83 1.15a.36.36 0 0 1-.5.06Z"/>
    </g>
    <defs>
        <clipPath id="a">
            <path fill="currentColor" d="M0 0h16v16H0z"/>
        </clipPath>
    </defs>
</svg>
