<svg xmlns="http://www.w3.org/2000/svg" fill="none" viewBox="0 0 16 16">
    <path fill="currentColor" fill-rule="evenodd" d="M5.438 8a2.5 2.5 0 1 1 5 0 2.5 2.5 0 0 1-5 0m2.5-1.5a1.5 1.5 0 1 0 0 3 1.5 1.5 0 0 0 0-3" clip-rule="evenodd"/>
    <path fill="currentColor" fill-rule="evenodd" d="M10 3.416V2a1 1 0 0 0-1-1H7a1 1 0 0 0-1 1v1.416c-.345.15-.67.34-.969.56l-1.227-.708a1 1 0 0 0-1.366.366l-1 1.732a1 1 0 0 0 .366 1.366l1.227.709a5 5 0 0 0 0 1.118l-1.227.709a1 1 0 0 0-.366 1.366l1 1.732a1 1 0 0 0 1.366.366l1.227-.708a5 5 0 0 0 .969.56V14a1 1 0 0 0 1 1h2a1 1 0 0 0 1-1v-1.416c.345-.15.67-.34.969-.56l1.227.708a1 1 0 0 0 1.366-.366l1-1.732a1 1 0 0 0-.366-1.366l-1.227-.709a5 5 0 0 0 0-1.118l1.227-.709a1 1 0 0 0 .366-1.366l-1-1.732a1 1 0 0 0-1.366-.366l-1.227.708c-.3-.22-.624-.41-.97-.56M7 4.07l-.6.262q-.414.182-.775.449l-.527.39-1.794-1.037-1 1.732 1.793 1.035-.072.65a4 4 0 0 0 0 .898l.072.65-1.793 1.035 1 1.732 1.794-1.036.527.39q.361.265.775.448l.6.262V14h2v-2.07l.6-.262q.414-.182.774-.449l.527-.39 1.795 1.037 1-1.732-1.793-1.035.072-.65a4 4 0 0 0 0-.898l-.072-.65 1.793-1.035-1-1.732-1.795 1.036-.527-.39q-.36-.265-.774-.448L9 4.07V2H7z" clip-rule="evenodd"/>
</svg>
