<svg xmlns="http://www.w3.org/2000/svg" fill="none" viewBox="0 0 16 16">
    <path fill="currentColor" fill-rule="evenodd" d="M6.062 2a1 1 0 0 1 1-1h2a1 1 0 0 1 1 1v1.416c.345.15.67.34.97.56l1.226-.708a1 1 0 0 1 1.366.366l1 1.732a1 1 0 0 1-.366 1.366l-1.227.709a5.043 5.043 0 0 1 0 1.119l1.227.708a1 1 0 0 1 .366 1.366l-1 1.732a1 1 0 0 1-1.366.366l-1.227-.708c-.3.22-.624.41-.969.56V14a1 1 0 0 1-1 1h-2a1 1 0 0 1-1-1v-1.416a5 5 0 0 1-.969-.56l-1.227.708a1 1 0 0 1-1.366-.366l-1-1.732a1 1 0 0 1 .366-1.366l1.227-.709a5.055 5.055 0 0 1 0-1.118l-1.227-.709A1 1 0 0 1 1.5 5.366l1-1.732a1 1 0 0 1 1.366-.366l1.227.709c.3-.222.624-.41.97-.561V2Zm2 8a2 2 0 1 0 0-4 2 2 0 0 0 0 4Z" clip-rule="evenodd"/>
</svg>
