<svg aria-hidden="true" viewBox="0 0 16 16">
    <path fill="currentColor" d="M14.82 9.76 13.56 9a5.54 5.54 0 0 0 0-2.07l1.26-.72a.36.36 0 0 0 .18-.38A7.5 7.5 0 0 0 13.37 3a.35.35 0 0 0-.44 0l-1.26.72a5.51 5.51 0 0 0-1.79-1V1.21a.34.34 0 0 0-.27-.34 7.29 7.29 0 0 0-3.22 0 .34.34 0 0 0-.28.34v1.45a5.83 5.83 0 0 0-1.79 1L3.06 3a.35.35 0 0 0-.43 0A7.24 7.24 0 0 0 1 5.83a.34.34 0 0 0 .16.41L2.44 7a5.49 5.49 0 0 0 0 2l-1.26.73a.35.35 0 0 0-.16.41A7.24 7.24 0 0 0 2.63 13a.35.35 0 0 0 .43.07l1.26-.73a5.56 5.56 0 0 0 1.79 1v1.45a.35.35 0 0 0 .28.34 7.29 7.29 0 0 0 3.22 0 .35.35 0 0 0 .28-.34v-1.45a6 6 0 0 0 1.79-1l1.26.73a.35.35 0 0 0 .43-.07A7.39 7.39 0 0 0 15 10.17a.37.37 0 0 0-.17-.41Zm-6.82.6A2.36 2.36 0 1 1 10.35 8 2.36 2.36 0 0 1 8 10.36Z"/>
</svg>
