<svg aria-hidden="true" viewBox="0 0 16 16">
    <path fill="currentColor" d="M8 1.67c-3.37-.12-6.21 2.51-6.33 5.88 0 1.36.5 2.68 1.41 3.69-.26 1-.72 1.94-1.36 2.76-.04.08-.04.17 0 .25.03.08.1.13.18.13 1.3-.03 2.54-.55 3.48-1.45.83.34 1.72.51 2.62.5 3.37.12 6.21-2.51 6.33-5.88-.12-3.37-2.96-6-6.33-5.88Zm2.53 8.43c0 .14-.11.25-.25.25H5.73c-.14 0-.25-.1-.26-.24V9.2c0-.17.13-.3.3-.31h4.5c.14 0 .26.12.26.26v.95Zm.92-3.29c0 .17-.13.3-.3.3h-6.3c-.17 0-.3-.13-.3-.3V6c0-.16.12-.29.28-.3h6.32c.16 0 .29.12.3.28v.83Z"/>
</svg>
