<svg aria-hidden="true" viewBox="0 0 16 16">
    <path fill="currentColor" fill-rule="evenodd" d="M8 15A7 7 0 1 0 8 1a7 7 0 0 0 0 14Zm0-1a6 6 0 0 0 1.766-.264v-1.421a.5.5 0 0 0-.204-.403l-.353-.26a1.5 1.5 0 0 1-.612-1.208V9.48c0-.243.06-.483.173-.698l.772-1.469a1.5 1.5 0 0 1 1.328-.802h2.944a5.955 5.955 0 0 0-.284-.844 1.5 1.5 0 0 1-.977.362h-1.235a1.5 1.5 0 0 1-1.5-1.5V2.28A5.997 5.997 0 0 0 8 2a5.973 5.973 0 0 0-2.918.756l1.14.286A1.5 1.5 0 0 1 7.336 4.75l-.433 2.525a1.5 1.5 0 0 1-1.479 1.247H4.47a.5.5 0 0 0-.385.18l-.185.223a.5.5 0 0 0-.008.628l.273.348a.5.5 0 0 0 .295.181l1.658.332a1.5 1.5 0 0 1 1.048.8l.058.115a1.5 1.5 0 0 1 0 1.342l-.587 1.174A6.02 6.02 0 0 0 8 14Zm6-6c0-.165-.007-.327-.02-.489h-3.11a.5.5 0 0 0-.443.268l-.772 1.468a.5.5 0 0 0-.058.233v.964a.5.5 0 0 0 .204.403l.353.259a1.5 1.5 0 0 1 .612 1.209v1.01A6 6 0 0 0 14 8Zm-8.402 5.5h.093l.638-1.276a.5.5 0 0 0 0-.448l-.057-.115a.5.5 0 0 0-.35-.267l-1.658-.331a1.5 1.5 0 0 1-.885-.545l-.273-.347a1.5 1.5 0 0 1 .025-1.884l.184-.223a1.5 1.5 0 0 1 1.155-.542h.954a.5.5 0 0 0 .493-.416l.433-2.525a.5.5 0 0 0-.37-.57l-1.95-.487-.046.018A6.002 6.002 0 0 0 5.598 13.5Zm7.287-8.597.164-.146a6.032 6.032 0 0 0-1.458-1.564 6.067 6.067 0 0 0-.772-.457V4.53a.5.5 0 0 0 .5.5h1.234a.5.5 0 0 0 .332-.126Z" clip-rule="evenodd"/>
</svg>
