<svg xmlns="http://www.w3.org/2000/svg" fill="none" viewBox="0 0 16 16">
    <path fill="currentColor" fill-rule="evenodd" d="M8 15A7 7 0 1 0 8 1a7 7 0 0 0 0 14Zm-1.224-2.553-.63 1.261A6.003 6.003 0 0 1 4.501 3.126l1.6.4a1 1 0 0 1 .742 1.14L6.41 7.19a1 1 0 0 1-.986.83H4.47a1 1 0 0 0-.77.362l-.185.223A1 1 0 0 0 3.5 9.862l.273.348a1 1 0 0 0 .59.362l1.658.332a1 1 0 0 1 .699.533l.057.116a1 1 0 0 1 0 .894Zm3.543-9.983V4.53a1 1 0 0 0 1 1h1.234a1 1 0 0 0 .664-.252l.09-.08a6.023 6.023 0 0 0-2.988-2.733Zm3.612 4.622a6.153 6.153 0 0 0-.012-.075h-3.05a1 1 0 0 0-.884.535l-.773 1.469a1 1 0 0 0-.115.465v.964a1 1 0 0 0 .408.806l.353.259a1 1 0 0 1 .408.806v1.242a6.002 6.002 0 0 0 3.665-6.47Z" clip-rule="evenodd"/>
</svg>
