<svg aria-hidden="true" viewBox="0 0 16 16">
    <path fill="currentColor" d="M8 .67C3.95.67.67 3.95.67 8S3.95 15.33 8 15.33s7.33-3.28 7.33-7.33S12.05.67 8 .67Zm2.27 11.4c-.38.09-.76.14-1.15.14a4.038 4.038 0 0 1-3.99-2.92h-.58c-.13 0-.23-.1-.23-.22v-.54c0-.12.11-.22.23-.22h.41a5.34 5.34 0 0 1 0-.8h-.41c-.13 0-.23-.1-.23-.22v-.58c0-.13.11-.22.23-.22h.63c.6-1.65 2.18-2.74 3.94-2.71.34 0 .68.03 1.02.1.12.03.19.16.16.28l-.23.84c-.03.12-.15.19-.27.17-.24-.05-.48-.08-.73-.08A2.42 2.42 0 0 0 6.81 6.5h2.71c.12.03.2.15.17.27l-.13.58c-.02.1-.12.18-.22.18H6.52c-.03.26-.03.53 0 .8h2.63c.12.03.2.15.17.27l-.11.52c-.03.1-.12.18-.22.18H6.8c.36.96 1.28 1.6 2.31 1.61.3 0 .59-.04.88-.1.12-.02.24.05.27.18l.17.84c.02.12-.05.24-.17.27v-.03Z"/>
</svg>
