<svg xmlns="http://www.w3.org/2000/svg" fill="none" viewBox="0 0 16 16">
    <path fill="currentColor" fill-rule="evenodd" d="M2.51 5 .81 3.84l.82-1.17 13.5 9.47-.81 1.17-2-1.38A8 8 0 0 1 8 13.33 8.13 8.13 0 0 1 .76 8.41a1 1 0 0 1 0-.82A8.2 8.2 0 0 1 2.51 5m2.922 5.559A3.66 3.66 0 0 0 8 11.619a3.65 3.65 0 0 0 2.49-.93l-1.068-.75a2.43 2.43 0 0 1-3.746-2.631L4.64 6.58A3.8 3.8 0 0 0 4.35 8c.01.962.4 1.881 1.082 2.559m9.808-2.97A8.13 8.13 0 0 0 8 2.67a8.1 8.1 0 0 0-2.89.64l1.72 1.2A3.6 3.6 0 0 1 8 4.3a3.65 3.65 0 0 1 3.64 3.6l2.77 1.93c.318-.443.59-.919.81-1.42a1 1 0 0 0 .02-.82M9.416 5.977c.367.258.656.612.834 1.024L8.17 5.54a2.43 2.43 0 0 1 1.246.436" clip-rule="evenodd"/>
</svg>
