<svg xmlns="http://www.w3.org/2000/svg" fill="none" viewBox="0 0 16 16">
    <path fill="currentColor" fill-rule="evenodd" d="m1 1.7.7-.7L15 14.302l-.7.7-3.084-3.085c-.963.63-2.057 1.08-3.216 1.08-3.866 0-7-5-7-5S2.174 6.124 3.97 4.67zm4.556 4.557A3 3 0 0 0 9.74 10.44l-.722-.722a2 2 0 0 1-2.74-2.74z" clip-rule="evenodd"/>
    <path fill="currentColor" d="m5.67 3.572 1.532 1.532a3.003 3.003 0 0 1 3.69 3.691l1.877 1.877C14.142 9.366 15 7.997 15 7.997s-3.134-5-7-5c-.817 0-1.6.223-2.33.575"/>
    <path fill="currentColor" d="M9.998 7.9 8.097 6a2 2 0 0 1 1.9 1.901"/>
</svg>
