<svg xmlns="http://www.w3.org/2000/svg" fill="none" viewBox="0 0 16 16">
    <path fill="currentColor" fill-rule="evenodd" d="M8 11a3 3 0 1 0 0-6 3 3 0 0 0 0 6m0-1a2 2 0 1 0 0-4 2 2 0 0 0 0 4" clip-rule="evenodd"/>
    <path fill="currentColor" fill-rule="evenodd" d="M1 8s3.134 5 7 5 7-5 7-5-3.134-5-7-5-7 5-7 5m1.215 0 .133.178a15 15 0 0 0 1.405 1.61C4.974 10.994 6.478 12 8 12s3.026-1.006 4.247-2.212A15 15 0 0 0 13.785 8l-.133-.178a15 15 0 0 0-1.405-1.61C11.026 5.006 9.522 4 8 4S4.974 5.006 3.753 6.212A15 15 0 0 0 2.215 8" clip-rule="evenodd"/>
</svg>
