<svg aria-hidden="true" viewBox="0 0 16 16">
    <path fill="currentColor" d="M10.25 7a2.43 2.43 0 0 0-2.08-1.46Zm-3.8-.9a2.43 2.43 0 1 0 3.85 2.69Z"/>
    <path fill="currentColor" d="M15.24 7.59A8.13 8.13 0 0 0 8 2.67a8.06 8.06 0 0 0-2.89.64l1.72 1.2A3.58 3.58 0 0 1 8 4.3a3.65 3.65 0 0 1 3.64 3.6l2.77 1.93a7.91 7.91 0 0 0 .81-1.42 1 1 0 0 0 .02-.82ZM.81 3.84 2.51 5A8.16 8.16 0 0 0 .76 7.59a1 1 0 0 0 0 .82A8.13 8.13 0 0 0 8 13.33a8 8 0 0 0 4.32-1.4l2 1.38.81-1.17-13.5-9.47ZM8 11.62A3.66 3.66 0 0 1 4.35 8a3.75 3.75 0 0 1 .29-1.42l5.85 4.11a3.65 3.65 0 0 1-2.49.93Z"/>
</svg>
