<svg xmlns="http://www.w3.org/2000/svg" fill="none" viewBox="0 0 16 16">
    <path fill="currentColor" fill-rule="evenodd" d="m1 1.7.7-.7L15 14.302l-.7.7-3.084-3.085c-.963.63-2.057 1.08-3.216 1.08-3.866 0-7-5-7-5S2.174 6.124 3.97 4.67zm3.682 3.683c-.324.256-.635.535-.93.826a15 15 0 0 0-1.537 1.788l.133.178c.334.442.815 1.028 1.405 1.61C4.974 10.99 6.478 11.997 8 11.997c.852 0 1.698-.315 2.492-.804l-.752-.752a3 3 0 0 1-4.184-4.184zm1.596 1.596a2 2 0 0 0 2.74 2.74z" clip-rule="evenodd"/>
    <path fill="currentColor" d="m5.67 3.572.757.757A4.2 4.2 0 0 1 8 3.997c1.522 0 3.026 1.006 4.247 2.212a15 15 0 0 1 1.538 1.788q-.061.085-.133.178a15 15 0 0 1-1.531 1.733l-.06.057.708.707C14.142 9.366 15 7.997 15 7.997s-3.134-5-7-5c-.817 0-1.6.223-2.33.575"/>
    <path fill="currentColor" d="m8.097 6-.895-.896a3.003 3.003 0 0 1 3.69 3.691L9.999 7.9A2 2 0 0 0 8.097 6"/>
</svg>
