<svg xmlns="http://www.w3.org/2000/svg" fill="none" viewBox="0 0 16 16">
    <path fill="currentColor" fill-rule="evenodd" d="m10 .99 3 3v10a1 1 0 0 1-1 1H4a1 1 0 0 1-1-1v-12a1 1 0 0 1 1-1zm0 1.415V3.99h1.584zm2 2.585H9v-3H4v12h8z" clip-rule="evenodd"/>
    <path fill="currentColor" fill-rule="evenodd" d="M10.1 9.561h.9v.858h-.9a2.1 2.1 0 0 1-.314.75l.638.64-.606.605-.638-.638a2.1 2.1 0 0 1-.752.313v.901h-.857v-.9a2.1 2.1 0 0 1-.75-.314l-.64.638-.605-.606.638-.638a2.1 2.1 0 0 1-.314-.751H5V9.56h.9c.056-.273.165-.526.314-.75l-.638-.64.606-.605.638.638a2.1 2.1 0 0 1 .751-.314v-.9h.857v.9c.274.056.527.165.752.314l.638-.638.606.606-.638.638c.149.225.258.478.313.751m-3.386.429a1.287 1.287 0 0 0 2.571 0 1.287 1.287 0 0 0-2.571 0" clip-rule="evenodd"/>
</svg>
