<svg xmlns="http://www.w3.org/2000/svg" fill="none" viewBox="0 0 16 16">
    <path fill="currentColor" fill-rule="evenodd" d="m10.41.87 2.71 2.8a.69.69 0 0 1 .19.49v.17H9.77V.67h.17a.63.63 0 0 1 .47.2Zm2.9 4.38v9.42a.67.67 0 0 1-.66.66h-9.3a.67.67 0 0 1-.66-.68V1.33a.67.67 0 0 1 .66-.66h5.54v3.9a.67.67 0 0 0 .66.68h3.76Zm-5.45 7.69 2.54-2.53a.19.19 0 0 0 .01-.27.159.159 0 0 0-.14-.06H8.93a.2.2 0 0 1-.2-.2v-2.6a.18.18 0 0 0-.18-.19H6.92a.19.19 0 0 0-.19.18v2.61a.2.2 0 0 1-.2.2H5.19a.18.18 0 0 0-.19.18.2.2 0 0 0 .06.15l2.54 2.53a.18.18 0 0 0 .26 0Z" clip-rule="evenodd"/>
</svg>
