<svg xmlns="http://www.w3.org/2000/svg" fill="none" viewBox="0 0 16 16">
    <path fill="currentColor" fill-rule="evenodd" d="M5.42 12.713a.6.6 0 0 1-.332-.318c-.147-.294-.098-.588.06-.834.15-.233.4-.43.68-.596a6 6 0 0 1 1.122-.489q.454-.817.804-1.686a5.5 5.5 0 0 1-.326-.98c-.065-.303-.09-.603-.034-.86.056-.268.207-.509.492-.623.145-.058.303-.09.455-.058a.53.53 0 0 1 .362.276c.066.124.09.27.096.407.005.142-.01.3-.036.465-.063.386-.204.859-.394 1.358q.316.672.742 1.277a4.4 4.4 0 0 1 1.01.038c.276.049.556.147.727.352a.64.64 0 0 1 .151.392.9.9 0 0 1-.104.426.8.8 0 0 1-.268.315.65.65 0 0 1-.386.104c-.25-.01-.495-.148-.706-.315a4.3 4.3 0 0 1-.69-.72 9 9 0 0 0-1.512.308 8.6 8.6 0 0 1-.773 1.143c-.22.265-.46.496-.701.596a.6.6 0 0 1-.44.022m1.044-1.44a4 4 0 0 0-.348.18c-.248.148-.41.29-.49.415-.07.11-.072.19-.03.273l.02.034.027-.01c.103-.042.268-.177.48-.433q.18-.22.34-.458m1.242-1.006q.378-.09.764-.146a9 9 0 0 1-.386-.65 16 16 0 0 1-.378.796m2.18.65a3 3 0 0 1-.328-.309q.233.002.463.04c.24.043.352.112.392.159q.019.02.02.047a.3.3 0 0 1-.045.152.23.23 0 0 1-.071.094.1.1 0 0 1-.053.012c-.07-.003-.196-.05-.377-.194m-1.684-3.59q-.056.316-.15.625a3 3 0 0 1-.069-.26c-.057-.268-.065-.478-.034-.623.028-.134.082-.188.148-.214a.4.4 0 0 1 .11-.03.5.5 0 0 1 .024.15q.006.138-.029.351" clip-rule="evenodd"/>
    <path fill="currentColor" fill-rule="evenodd" d="M3 2a1 1 0 0 1 1-1h6l3 3v10a1 1 0 0 1-1 1H4a1 1 0 0 1-1-1zm7 .537V4h1.254zM12 14V5H9V2H4v12z" clip-rule="evenodd"/>
</svg>
