<svg xmlns="http://www.w3.org/2000/svg" fill="none" viewBox="0 0 16 16">
    <path fill="currentColor" d="M6.464 11.274a4 4 0 0 0-.393.207c-.223.137-.37.27-.444.387-.072.11-.073.19-.03.273l.019.034.027-.01c.103-.042.268-.177.48-.433q.18-.22.34-.458m1.243-1.007q.378-.09.764-.146a9 9 0 0 1-.386-.65 16 16 0 0 1-.378.796m1.873.363a3 3 0 0 0 .341.314c.164.123.28.165.344.168a.1.1 0 0 0 .053-.012.23.23 0 0 0 .07-.094.3.3 0 0 0 .045-.152.07.07 0 0 0-.02-.047c-.039-.047-.15-.116-.391-.159a3 3 0 0 0-.463-.04zM8.051 7.952q.096-.308.151-.626.035-.213.029-.352a.5.5 0 0 0-.024-.15.4.4 0 0 0-.11.03c-.066.027-.12.08-.148.215l-.01.057q-.029.213.044.565.027.126.068.26"/>
    <path fill="currentColor" fill-rule="evenodd" d="M9 1v4h4v9a1 1 0 0 1-1 1H4a1 1 0 0 1-1-1V2a1 1 0 0 1 1-1zM5.42 12.713a.6.6 0 0 1-.332-.318c-.147-.294-.098-.588.06-.834.15-.233.4-.43.68-.596a6 6 0 0 1 1.122-.489q.454-.817.804-1.686a5.6 5.6 0 0 1-.326-.98c-.065-.303-.09-.603-.034-.86.056-.268.207-.509.492-.623l.055-.02a.75.75 0 0 1 .4-.038.53.53 0 0 1 .362.276c.066.124.09.27.096.407.005.142-.01.3-.036.465-.063.386-.204.859-.394 1.358q.316.672.742 1.277a4.5 4.5 0 0 1 1.01.038c.276.049.556.147.727.352a.64.64 0 0 1 .151.392.9.9 0 0 1-.104.426.8.8 0 0 1-.312.341.65.65 0 0 1-.342.078c-.25-.01-.495-.148-.706-.315l-.095-.081a4.3 4.3 0 0 1-.595-.638 9 9 0 0 0-1.512.307 8.6 8.6 0 0 1-.773 1.143c-.22.265-.46.496-.701.596a.6.6 0 0 1-.44.022" clip-rule="evenodd"/>
    <path fill="currentColor" d="M10 1v3h3z"/>
</svg>
