<svg aria-hidden="true" viewBox="0 0 16 16">
    <path fill="currentColor" d="M8.89 4.56V.67H3.35c-.36 0-.66.3-.66.66v13.32c0 .37.29.67.66.68h9.3c.36 0 .66-.3.66-.66V5.25H9.55c-.37 0-.67-.31-.66-.68Zm1.77 6.75c0 .19-.15.34-.34.35H5.68c-.19 0-.34-.16-.34-.35v-.23c0-.19.15-.34.34-.34h4.64c.19 0 .34.15.34.34v.23Zm0-1.83c0 .19-.15.34-.34.34H5.68c-.19 0-.34-.15-.34-.34v-.23c0-.19.15-.34.34-.34h4.64c.19 0 .34.15.34.34v.23Zm0-2.06v.23c0 .19-.15.34-.34.34H5.68c-.19 0-.34-.15-.34-.34v-.23c0-.19.15-.34.34-.35h4.64c.19 0 .34.16.34.35Zm2.65-3.27v.17H9.77V.67h.17c.18 0 .35.07.47.2l2.71 2.8c.13.13.19.31.19.49Z"/>
</svg>
