<svg aria-hidden="true" viewBox="0 0 16 16">
    <path fill="currentColor" d="M13.12 3.67 10.41.87a.63.63 0 0 0-.47-.2h-.17v3.66h3.54v-.17a.69.69 0 0 0-.19-.49Z"/>
    <path fill="currentColor" d="M13.31 14.65v-9.4H9.55a.67.67 0 0 1-.66-.68V.67H3.35a.67.67 0 0 0-.66.66v13.32a.67.67 0 0 0 .66.68h9.3a.67.67 0 0 0 .66-.66Zm-2.91-4.24-2.54 2.53a.18.18 0 0 1-.26 0l-2.54-2.53a.2.2 0 0 1-.06-.15.18.18 0 0 1 .19-.18h1.34a.2.2 0 0 0 .2-.2V7.27a.19.19 0 0 1 .19-.18h1.63a.18.18 0 0 1 .18.19v2.6a.2.2 0 0 0 .2.2h1.34a.16.16 0 0 1 .14.06.19.19 0 0 1-.01.27Z"/>
</svg>
