<svg xmlns="http://www.w3.org/2000/svg" fill="none" viewBox="0 0 16 16">
    <path fill="currentColor" d="M9 10.06c-.03.53-.47.94-1 .94-.55 0-1-.45-1-1s.45-1 1-1 1 .45 1 1zm.55-4.81h3.76v9.4a.68.68 0 0 1-.66.66h-9.3c-.37 0-.67-.31-.66-.68V1.33c.01-.36.3-.65.66-.66h5.54v3.89c-.01.37.28.68.65.69zM10 8l-.51.29c-.21-.18-.46-.32-.72-.41v-.57c0-.06-.05-.12-.11-.14-.43-.09-.87-.09-1.3 0a.14.14 0 0 0-.12.14v.59q-.405.135-.72.42L6 8a.135.135 0 0 0-.17 0c-.3.32-.52.71-.65 1.13-.02.06 0 .13.06.16l.51.29q-.075.42 0 .84l-.51.29c-.05.03-.08.1-.06.16.13.42.35.81.65 1.13.05.04.12.04.17 0l.51-.29c.22.18.46.32.73.41v.59c0 .07.04.13.11.14.43.09.87.09 1.3 0 .07-.01.12-.07.11-.14v-.51c.27-.09.51-.23.73-.41l.51.29c.05.04.12.04.17 0 .3-.32.52-.71.65-1.13.02-.06 0-.13-.06-.16l-.5-.3c.05-.27.05-.56 0-.83l.5-.3c.06-.03.09-.1.07-.16a2.9 2.9 0 0 0-.65-1.13A.16.16 0 0 0 10 8m3.12-4.33L10.41.87a.63.63 0 0 0-.47-.2h-.17v3.66h3.54v-.17c0-.18-.06-.36-.19-.49"/>
</svg>
