<svg aria-hidden="true" viewBox="0 0 16 16">
    <path fill="currentColor" d="M9 10.1c0 .5-.5.9-1 .9-.6 0-1-.4-1-1s.4-1 1-1 1 .4 1 1.1c0-.1 0-.1 0 0zm4.2-6.4L10.4.9c-.1-.1-.3-.2-.5-.2h-.1v3.7h3.5v-.2c0-.2-.1-.4-.1-.5zM9.6 5.3h3.8v9.4c0 .4-.3.6-.7.7H3.3c-.4 0-.7-.3-.7-.7V1.3c.1-.3.4-.6.7-.6h5.5v3.9c.1.3.4.6.8.7-.1-.1-.1-.1 0 0zM10 8l-.5.3c-.2-.2-.5-.3-.7-.4v-.6c0-.1 0-.1-.1-.1-.4-.1-.9-.1-1.3 0-.1 0-.1.1-.1.1v.6c-.3.1-.6.2-.8.4L6 8h-.2c-.3.3-.5.7-.6 1.1 0 .1 0 .1.1.2l.5.3c-.1.3-.1.6 0 .8l-.5.3c-.1 0-.1.1-.1.2.1.4.4.8.7 1.1h.2l.5-.3c.1.2.4.3.6.4v.6c0 .1 0 .1.1.1.4.1.9.1 1.3 0 .1 0 .1-.1.1-.1v-.5c.3-.1.6-.2.8-.4l.5.3h.2c.3-.3.5-.7.6-1.1 0-.1 0-.1-.1-.2l-.5-.3v-.8l.5-.3c.1 0 .1-.1.1-.2-.1-.4-.4-.8-.6-1.1-.1-.1-.1-.1-.2-.1z"/>
</svg>
