<svg aria-hidden="true" viewBox="0 0 16 16">
    <path fill="currentColor" d="M6.464 11.274a3.81 3.81 0 0 0-.393.207c-.223.137-.37.27-.444.387-.072.11-.073.19-.03.273a.175.175 0 0 0 .019.034.223.223 0 0 0 .027-.01c.103-.042.268-.177.48-.433.12-.147.234-.3.34-.458Zm1.242-1.007c.252-.06.507-.108.764-.146a8.824 8.824 0 0 1-.386-.65 15.7 15.7 0 0 1-.378.796Zm1.873.363a2.916 2.916 0 0 0 .341.314c.164.123.28.165.344.168a.082.082 0 0 0 .053-.012.232.232 0 0 0 .07-.094.33.33 0 0 0 .045-.152.072.072 0 0 0-.02-.047c-.039-.047-.15-.116-.391-.159a2.926 2.926 0 0 0-.463-.04l.02.022ZM8.051 7.952c.064-.205.114-.414.151-.626a1.73 1.73 0 0 0 .029-.352.464.464 0 0 0-.024-.15.391.391 0 0 0-.11.03c-.066.027-.12.08-.148.215a.744.744 0 0 0-.01.057c-.018.142-.006.331.044.565.018.084.041.171.068.26Z"/>
    <path fill="currentColor" fill-rule="evenodd" d="M9 1v4h4v9a1 1 0 0 1-1 1H4a1 1 0 0 1-1-1V2a1 1 0 0 1 1-1h5ZM5.42 12.713a.613.613 0 0 1-.332-.318c-.147-.294-.098-.588.06-.834.15-.233.4-.43.68-.596a5.816 5.816 0 0 1 1.122-.489c.303-.544.571-1.107.804-1.686a5.554 5.554 0 0 1-.326-.98c-.065-.303-.09-.603-.034-.86.056-.268.207-.509.492-.623l.055-.02a.75.75 0 0 1 .4-.038.53.53 0 0 1 .362.276c.066.124.09.27.096.407.005.142-.01.3-.036.465-.063.386-.204.859-.394 1.358.21.447.458.874.742 1.277a4.457 4.457 0 0 1 1.01.038c.276.049.556.147.727.352a.64.64 0 0 1 .151.392.88.88 0 0 1-.104.426.788.788 0 0 1-.312.341.647.647 0 0 1-.342.078c-.25-.01-.495-.148-.706-.315a4.327 4.327 0 0 1-.69-.72 8.812 8.812 0 0 0-1.512.308 8.57 8.57 0 0 1-.773 1.143c-.22.265-.46.496-.701.596a.6.6 0 0 1-.44.022Z"/>
    <path fill="currentColor" d="M10 1v3h3l-3-3Z"/>
</svg>
