<svg xmlns="http://www.w3.org/2000/svg" fill="none" viewBox="0 0 16 16">
    <path fill="currentColor" fill-rule="evenodd" d="M5.42 12.713a.613.613 0 0 1-.332-.318c-.147-.294-.098-.588.06-.834.15-.233.4-.43.68-.596a5.816 5.816 0 0 1 1.122-.489c.303-.544.571-1.107.804-1.686a5.503 5.503 0 0 1-.326-.98c-.065-.303-.09-.603-.034-.86.056-.268.207-.509.492-.623.145-.058.303-.09.455-.058a.53.53 0 0 1 .362.276c.066.124.09.27.096.407.005.142-.01.3-.036.465-.063.386-.204.859-.394 1.358.21.447.458.874.742 1.277a4.354 4.354 0 0 1 1.01.038c.276.049.556.147.727.352a.64.64 0 0 1 .151.392.88.88 0 0 1-.104.426.788.788 0 0 1-.268.315.648.648 0 0 1-.386.104c-.25-.01-.495-.148-.706-.315a4.324 4.324 0 0 1-.69-.72 8.812 8.812 0 0 0-1.512.308 8.57 8.57 0 0 1-.773 1.143c-.22.265-.46.496-.701.596a.6.6 0 0 1-.44.022Zm1.044-1.44a3.81 3.81 0 0 0-.348.18c-.248.148-.41.29-.49.415-.07.11-.072.19-.03.273a.175.175 0 0 0 .02.034.223.223 0 0 0 .027-.01c.103-.042.268-.177.48-.433.12-.147.234-.3.34-.458Zm1.242-1.006c.252-.06.507-.108.764-.146a8.824 8.824 0 0 1-.386-.65 15.7 15.7 0 0 1-.378.796Zm2.18.65a2.971 2.971 0 0 1-.328-.309c.155.001.31.015.463.04.24.043.352.112.392.159a.07.07 0 0 1 .02.047.33.33 0 0 1-.045.152.232.232 0 0 1-.071.094.082.082 0 0 1-.053.012c-.07-.003-.196-.05-.377-.194Zm-1.684-3.59c-.037.21-.087.42-.15.625a3.355 3.355 0 0 1-.069-.26c-.057-.268-.065-.478-.034-.623.028-.134.082-.188.148-.214a.391.391 0 0 1 .11-.03.464.464 0 0 1 .024.15c.004.092-.005.209-.029.351Z" clip-rule="evenodd"/>
    <path fill="currentColor" fill-rule="evenodd" d="M3 2a1 1 0 0 1 1-1h6l3 3v10a1 1 0 0 1-1 1H4a1 1 0 0 1-1-1V2Zm7 .537V4h1.254L10 2.537ZM12 14V5H9V2H4v12h8Z" clip-rule="evenodd"/>
</svg>
