<svg xmlns="http://www.w3.org/2000/svg" fill="none" viewBox="0 0 16 16">
    <path fill="currentColor" d="M13.12 3.67 10.41.87a.63.63 0 0 0-.47-.2h-.17v3.66h3.54v-.17c0-.18-.06-.36-.19-.49m.19 11V5.25H9.55c-.37 0-.67-.31-.66-.68V.67H3.35a.68.68 0 0 0-.66.66v13.32c0 .37.29.67.66.68h9.3c.36-.01.65-.3.66-.66m-3-4.64H8.93c-.1 0-.19.07-.2.18v2.61c0 .1-.09.18-.19.18H6.91a.18.18 0 0 1-.18-.18V10.2c0-.1-.07-.19-.18-.2H5.19s-.09.01-.14 0a.19.19 0 0 1 0-.27L7.6 7.14c.07-.07.19-.07.26 0l2.54 2.54s.06.09.06.14c0 .1-.09.18-.19.18z"/>
</svg>
