<svg xmlns="http://www.w3.org/2000/svg" fill="none" viewBox="0 0 16 16">
    <path fill="currentColor" d="M8.982 12h1.335L8.776 9.48l1.5-2.48H9.02l-.795 1.485a5.09 5.09 0 0 0-.157.436h-.014a2.59 2.59 0 0 0-.15-.422L7.19 7H5.82l1.457 2.5L5.683 12h1.342l.865-1.614c.06-.156.099-.272.115-.349h.014c.035.163.069.274.101.335L8.982 12Z"/>
    <path fill="currentColor" fill-rule="evenodd" d="M4 1a1 1 0 0 0-1 1v12a1 1 0 0 0 1 1h8a1 1 0 0 0 1-1V4l-3-3H4Zm6 3V2.537L11.254 4H10Zm2 1v9H4V2h5v3h3Z" clip-rule="evenodd"/>
</svg>
