<svg xmlns="http://www.w3.org/2000/svg" fill="none" viewBox="0 0 16 16">
    <path fill="currentColor" d="M8 8.704c.709 0 1.286.577 1.286 1.286S8.709 11.276 8 11.276A1.29 1.29 0 0 1 6.714 9.99c0-.709.577-1.286 1.286-1.286"/>
    <path fill="currentColor" fill-rule="evenodd" d="M9 4.99h4v9a1 1 0 0 1-1 1H4a1 1 0 0 1-1-1v-12a1 1 0 0 1 1-1h5zm-1.429 2v.9a2.1 2.1 0 0 0-.75.314l-.64-.638-.605.606.638.638a2.1 2.1 0 0 0-.314.751H5v.858h.9c.056.273.165.526.314.75l-.638.64.606.605.638-.638c.225.149.478.258.751.314v.9h.858v-.9a2.1 2.1 0 0 0 .75-.314l.64.638.605-.606-.638-.638c.149-.225.258-.478.314-.751h.9V9.56h-.9a2.1 2.1 0 0 0-.314-.75l.638-.64-.606-.605-.638.638a2.1 2.1 0 0 0-.751-.314v-.9z" clip-rule="evenodd"/>
    <path fill="currentColor" d="M13 3.99h-3v-3z"/>
</svg>
