<svg xmlns="http://www.w3.org/2000/svg" fill="none" viewBox="0 0 16 16">
    <path fill="currentColor" d="M14 4.44H8.46L6.62 2.67H2A1.35 1.35 0 0 0 .67 4v8A1.35 1.35 0 0 0 2 13.33h12A1.35 1.35 0 0 0 15.33 12V5.78A1.36 1.36 0 0 0 14 4.44m-.2 3.89L12 9.66l.69 2a.22.22 0 0 1-.08.27.26.26 0 0 1-.13.06.4.4 0 0 1-.15-.06l-1.77-1.26L8.75 12a.34.34 0 0 1-.15 0 .3.3 0 0 1-.13 0 .23.23 0 0 1-.08-.27l.69-2-1.81-1.35a.23.23 0 0 1-.1-.17.24.24 0 0 1 .24-.24h2.21l.67-2a.26.26 0 0 1 .243-.156.24.24 0 0 1 .217.156l.67 2h2.2a.26.26 0 0 1 .26.24.3.3 0 0 1-.08.12"/>
</svg>
