<svg xmlns="http://www.w3.org/2000/svg" fill="none" viewBox="0 0 16 16">
    <path fill="currentColor" d="M14 4.44H8.46L6.62 2.67H2C1.27 2.67.68 3.27.67 4v8c0 .73.6 1.32 1.33 1.33h12c.73 0 1.32-.6 1.33-1.33V5.78c0-.73-.6-1.33-1.33-1.34Zm-6.82 6.88H5.65c-1.34 0-2.42-1.08-2.42-2.42 0-1.34 1.08-2.42 2.42-2.42h.84c.14 0 .25.11.25.25 0 .06-.02.13-.06.17-.2.21-.36.45-.49.71-.04.07-.11.13-.19.14h-.33c-.62-.15-1.24.22-1.39.84-.15.62.22 1.24.84 1.39.15.04.31.04.47.02h1.58c.62 0 1.12-.48 1.15-1.1v-.22c-.02-.08 0-.16.06-.22.12-.13.29-.2.47-.2h.45c.12 0 .23.09.25.21.02.14.02.29 0 .43 0 1.32-1.05 2.39-2.37 2.42Zm3.17 0h-.84c-.06 0-.13-.02-.17-.07-.1-.1-.1-.25 0-.35.2-.21.36-.45.49-.71.02-.09.08-.16.17-.19h.36c.63.04 1.18-.43 1.23-1.07.04-.63-.43-1.18-1.07-1.23H8.83c-.64 0-1.15.51-1.15 1.15v.25c.02.08 0 .16-.06.22-.12.13-.29.21-.47.21H6.7c-.13 0-.24-.09-.26-.22-.01-.14-.01-.27 0-.41a2.41 2.41 0 0 1 2.38-2.43h1.52c1.34 0 2.42 1.07 2.43 2.41 0 1.34-1.09 2.42-2.42 2.43v.01Z"/>
</svg>
