<svg xmlns="http://www.w3.org/2000/svg" fill="none" viewBox="0 0 16 16">
    <path fill="currentColor" d="m6.22 3.67 1.55 1.49.29.28h5.93c.19 0 .34.16.34.34v6.21c0 .18-.15.34-.33.34H2.01c-.18 0-.34-.15-.34-.33V4.01c0-.18.15-.34.33-.34h4.22Zm.4-1H2C1.27 2.67.68 3.27.67 4v8c0 .73.6 1.32 1.33 1.33h12c.73 0 1.32-.6 1.33-1.33V5.78c0-.73-.6-1.33-1.33-1.34H8.46L6.62 2.67Z"/>
    <path fill="currentColor" d="M9.555 8.848a2.372 2.372 0 0 1-2.372 2.372l-1.486.006a2.366 2.366 0 0 1-2.37-2.37 2.38 2.38 0 0 1 2.376-2.377h.82c.135 0 .25.106.25.249a.27.27 0 0 1-.062.17 3.046 3.046 0 0 0-.474.687.261.261 0 0 1-.223.143h-.286a1.13 1.13 0 0 0-1.165 1.086 1.123 1.123 0 0 0 1.082 1.163c.023.005.045 0 .063 0l1.481-.002A1.123 1.123 0 0 0 8.292 8.64a.249.249 0 0 1 .063-.214.62.62 0 0 1 .46-.201l.464-.001c.125 0 .223.089.245.21.022.138.035.276.035.419l-.004-.005Zm3.11.001a2.365 2.365 0 0 0-2.371-2.37l-1.481.001a2.387 2.387 0 0 0-2.337 2.8c.022.12.125.205.245.21l.464-.001a.61.61 0 0 0 .46-.201.24.24 0 0 0 .063-.214 1.123 1.123 0 0 1 1.104-1.335l1.48-.002a1.122 1.122 0 0 1 1.15 1.096 1.129 1.129 0 0 1-1.099 1.152c-.022.004-.045 0-.062 0h-.286a.248.248 0 0 0-.223.143c-.125.25-.286.482-.474.688a.244.244 0 0 0 .013.352.235.235 0 0 0 .17.063l.82-.001a2.38 2.38 0 0 0 2.377-2.377l-.014-.004Z"/>
</svg>
