<svg xmlns="http://www.w3.org/2000/svg" fill="none" viewBox="0 0 16 16">
    <path fill="currentColor" d="M6.675 2.868A4 4 0 0 0 9.02 5.251L11 6l-1.889.663a4 4 0 0 0-2.448 2.448L6 11l-.749-1.979a4 4 0 0 0-2.383-2.346L1 6l1.799-.553A4 4 0 0 0 5.447 2.8L6 1zm5.479 5.561a4 4 0 0 0 2.347 2.383L15 11l-.408.144a4 4 0 0 0-2.448 2.448L12 14l-.188-.499a4 4 0 0 0-2.383-2.347L9 11l.269-.083a4 4 0 0 0 2.648-2.648L12 8zM4.5 12a2.5 2.5 0 0 0 1.464 1.486L6 13.5A2.45 2.45 0 0 0 4.5 15l-.013-.036A2.5 2.5 0 0 0 3 13.5 2.27 2.27 0 0 0 4.5 12"/>
</svg>
