<svg xmlns="http://www.w3.org/2000/svg" fill="none" viewBox="0 0 16 16">
    <path fill="currentColor" d="M4.5 12a2.5 2.5 0 0 0 1.464 1.486L6 13.5A2.45 2.45 0 0 0 4.5 15l-.014-.036A2.5 2.5 0 0 0 3 13.5 2.27 2.27 0 0 0 4.5 12"/>
    <path fill="currentColor" fill-rule="evenodd" d="M12.166 8.459a3.93 3.93 0 0 0 2.305 2.34L15 11l-.44.154a3.93 3.93 0 0 0-2.406 2.406L12 14l-.2-.53a3.93 3.93 0 0 0-2.341-2.304L9 11l.305-.094a3.93 3.93 0 0 0 2.601-2.601L12 8zm-.15 1.748q-.358.451-.809.809.438.352.785.793.36-.457.817-.817a5 5 0 0 1-.793-.785M6.674 2.868A4 4 0 0 0 9.02 5.251L11 6l-1.889.664a4 4 0 0 0-2.447 2.447L6 11l-.748-1.979a4 4 0 0 0-2.384-2.346L1 6l1.798-.553A4 4 0 0 0 5.448 2.8L6 1zM6.06 3.927A5 5 0 0 1 3.927 6.06a5 5 0 0 1 2.047 2.126 5 5 0 0 1 2.213-2.212A5 5 0 0 1 6.06 3.927" clip-rule="evenodd"/>
</svg>
