<svg aria-hidden="true" viewBox="0 0 16 16">
    <path fill="currentColor" d="M14.93 5.14 8.54 2.76c-.35-.13-.73-.13-1.08 0L1.07 5.14c-.31.13-.48.47-.39.8.04.22.19.39.39.47l1.12.42c-.26.38-.4.84-.41 1.3-.35.28-.47.75-.3 1.16.06.12.14.23.24.31l-.59 3.19c-.06.22.07.45.28.53h1.37c.22-.02.38-.22.36-.44v-.1L2.55 9.6c.32-.31.4-.79.2-1.18a.814.814 0 0 0-.24-.28c0-.38.18-.75.47-1l4.48 1.65c.35.13.73.13 1.08 0l6.39-2.38c.31-.13.48-.47.39-.8a.625.625 0 0 0-.39-.47Zm-6.18 4.5c-.48.18-1.02.18-1.5 0L3.93 8.4l-.33 3.15c0 1 2 1.78 4.4 1.78s4.4-.79 4.4-1.78l-.33-3.15-3.32 1.24Z"/>
</svg>
