<svg xmlns="http://www.w3.org/2000/svg" fill="none" viewBox="0 0 16 16">
    <path fill="currentColor" d="M14.91 7.11c-.581.55-1.362.89-2.213.89h-.01c-1.357 0-2.527-.86-3.043-2.09H8v-1h1.385a3.7 3.7 0 0 1 0-.82H8v-1h1.642C10.156 1.86 11.322 1 12.687 1c.901 0 1.712.37 2.313.98l-.711.71c-.42-.43-.991-.69-1.602-.69-.774 0-1.492.422-1.92 1.09h1.239v1h-1.612a2.7 2.7 0 0 0 0 .82h1.612v1h-1.241C11.19 6.578 11.907 7 12.687 7c.57 0 1.101-.22 1.512-.6z"/>
    <path fill="currentColor" fill-rule="evenodd" d="M1 7h3v1h2.798a2.5 2.5 0 0 1 1.77.731L9.73 9.896a1.56 1.56 0 0 1 .376 1.603h2.726c1.197 0 2.167.971 2.167 2.167 0 .737-.599 1.333-1.334 1.333H7.852a2.5 2.5 0 0 1-1.599-.578L4 12.566V14H1zm1 1h1v5H2zm2 1v2.27l2.892 2.382c.27.224.61.347.96.347h5.814c.185 0 .334-.15.334-.333 0-.644-.522-1.167-1.167-1.167h-3.77a1.56 1.56 0 0 1-1.539-.395l-.75-.75a.5.5 0 1 1 .707-.707l.75.75a.56.56 0 0 0 .397.164h.021a.56.56 0 0 0 .375-.957L7.861 9.439A1.5 1.5 0 0 0 6.799 9z" clip-rule="evenodd"/>
</svg>
