<svg xmlns="http://www.w3.org/2000/svg" fill="none" viewBox="0 0 16 16">
    <path fill="currentColor" d="M14.91 7.11c-.581.55-1.362.89-2.213.89h-.01c-1.357 0-2.527-.86-3.043-2.09H8v-1h1.385a4 4 0 0 1-.02-.554l.002-.043q.005-.113.017-.223H8v-1h1.642C10.156 1.86 11.322 1 12.687 1c.901 0 1.712.37 2.313.98l-.711.71c-.42-.43-.991-.69-1.602-.69-.774 0-1.492.422-1.92 1.09h1.239v1h-1.612a2.7 2.7 0 0 0 0 .82h1.612v1h-1.241C11.19 6.578 11.907 7 12.687 7c.57 0 1.101-.22 1.512-.6zM3 7H1v7h2zm9.81 4.5h-2.06c-.09.18-.2.34-.35.49-.37.37-.87.58-1.39.58s-1.02-.2-1.39-.58l-1.04-1.04c-.2-.2-.2-.51 0-.71s.51-.2.71 0l1.04 1.04c.36.36 1 .37 1.36 0 .18-.18.28-.42.28-.68s-.1-.5-.28-.68L8.44 8.67c-.2-.2-.44-.36-.71-.48-.3-.12-.62-.18-.94-.18h-2.8v4.8h.02l.29-.02 1.94 1.63c.45.38 1.02.58 1.6.58h5.81c.74 0 1.33-.6 1.33-1.33 0-1.2-.97-2.17-2.17-2.17"/>
</svg>
