<svg xmlns="http://www.w3.org/2000/svg" fill="none" viewBox="0 0 16 16">
    <path fill="currentColor" d="m12.975 3.82.002-.001-.083-.09-.063-.066-.009-.01-.001-.002a6 6 0 0 0-.272-.29q-.076-.074-.157-.144l-.058-.052-.004-.003a6 6 0 0 0-.275-.237 6 6 0 0 0-.22-.166l-.024-.018a7 7 0 0 0-.293-.203 7 7 0 0 0-.859-.467 7 7 0 0 0-.339-.14l-.03-.011a6 6 0 0 0-.255-.093 7 7 0 0 0-.376-.108L9.592 1.7a4 4 0 0 0-.652-.128l-.092-.015q-.072-.013-.146-.022A6.47 6.47 0 0 0 3 3.847V1.996H2v4h4v-1H3.406a5.48 5.48 0 0 1 5.189-2.467q.061.008.124.019l.077.012q.188.025.373.064.088.02.173.044l.063.017q.16.041.317.09.115.04.227.084l.016.006a6 6 0 0 1 .523.232 5.4 5.4 0 0 1 .736.452l.03.022q.09.066.178.134.12.098.235.204l.05.044a4 4 0 0 1 .36.364l.012.013A5.496 5.496 0 1 1 2.5 7.996h-1A6.5 6.5 0 1 0 12.975 3.82"/>
    <path fill="currentColor" d="M10.088 11.746 7.293 8.95V4.246h1v4.29l2.5 2.505z"/>
</svg>
