<svg xmlns="http://www.w3.org/2000/svg" fill="none" viewBox="0 0 16 16">
    <path fill="currentColor" d="M8 1.67c-1.64 0-3.21.62-4.4 1.75l-.91-.91a.6.6 0 0 0-.85 0c-.12.11-.18.27-.18.43v3.43c0 .33.25.61.58.63h3.44c.34 0 .62-.28.62-.62A.676.676 0 0 0 6.12 6L5.05 4.87a4.276 4.276 0 0 1 6.06.21 4.276 4.276 0 0 1-.21 6.06 4.303 4.303 0 0 1-5.76.09.296.296 0 0 0-.41 0l-1 1c-.11.12-.11.3 0 .42a6.324 6.324 0 0 0 8.94-.36 6.324 6.324 0 0 0-.36-8.94 6.328 6.328 0 0 0-4.33-1.68H8ZM9.85 9.3l-.36.36c-.12.11-.3.11-.42 0L7.45 8V5.15c0-.16.12-.29.28-.3h.52c.16 0 .29.12.3.28v2.45l1.3 1.3c.11.12.11.3 0 .42Z"/>
</svg>
