<svg xmlns="http://www.w3.org/2000/svg" fill="none" viewBox="0 0 16 16">
    <path fill="currentColor" fill-rule="evenodd" d="M8 15a6.97 6.97 0 0 0 4.192-1.394 7 7 0 0 0 1.315-1.284A6.97 6.97 0 0 0 15 8a6.97 6.97 0 0 0-1.394-4.192 7 7 0 0 0-1.414-1.414A6.97 6.97 0 0 0 8 1a6.97 6.97 0 0 0-4.192 1.394 7 7 0 0 0-1.414 1.414A6.97 6.97 0 0 0 1 8a6.97 6.97 0 0 0 1.394 4.192c.368.493.8.935 1.284 1.315A6.97 6.97 0 0 0 8 15m3.446-4.968 1.445 1.444a6 6 0 0 1-1.415 1.415l-1.444-1.445a4 4 0 0 0 1.414-1.414m-6.892 0a4 4 0 0 0 1.414 1.414l-1.445 1.445a6 6 0 0 1-1.414-1.415zm1.414-5.478a4 4 0 0 0-1.414 1.414L3.109 4.523A6 6 0 0 1 4.523 3.11zm5.509-1.445-1.445 1.445a4 4 0 0 1 1.414 1.414l1.445-1.445a6 6 0 0 0-1.415-1.414M8 11a3 3 0 1 0 0-6 3 3 0 0 0 0 6" clip-rule="evenodd"/>
</svg>
