<svg xmlns="http://www.w3.org/2000/svg" fill="none" viewBox="0 0 16 16">
    <g clip-path="url(#a)">
        <path fill="currentColor" d="M8 .67a7.33 7.33 0 1 0 0 14.66A7.33 7.33 0 0 0 8 .67m5.14 3.53-1.88 1.88a3.9 3.9 0 0 0-1.34-1.34l1.88-1.88c.51.38.96.83 1.34 1.34M8 10.84a2.84 2.84 0 1 1 0-5.68 2.84 2.84 0 0 1 0 5.68m-3.8-8 1.88 1.9c-.55.33-1.01.79-1.34 1.34L2.86 4.2c.38-.51.83-.96 1.34-1.34zM2.86 11.8l1.88-1.88c.33.55.79 1.01 1.34 1.34L4.2 13.14c-.51-.38-.96-.83-1.34-1.34m8.94 1.34-1.88-1.88a3.9 3.9 0 0 0 1.34-1.34l1.88 1.88c-.38.51-.83.96-1.34 1.34"/>
    </g>
    <defs>
        <clipPath id="a">
            <path fill="currentColor" d="M0 0h16v16H0z"/>
        </clipPath>
    </defs>
</svg>
