<svg aria-hidden="true" viewBox="0 0 16 16">
    <path fill="currentColor" d="M8 .67A7.33 7.33 0 1 0 15.33 8 7.33 7.33 0 0 0 8 .67Zm5.14 3.53-1.88 1.88a3.91 3.91 0 0 0-1.34-1.34l1.88-1.88a6.55 6.55 0 0 1 1.34 1.34ZM8 10.84A2.84 2.84 0 1 1 10.84 8 2.84 2.84 0 0 1 8 10.84Zm-3.8-8 1.88 1.9a3.91 3.91 0 0 0-1.34 1.34L2.86 4.2A6.55 6.55 0 0 1 4.2 2.86ZM2.86 11.8l1.88-1.88a3.91 3.91 0 0 0 1.34 1.34L4.2 13.14a6.55 6.55 0 0 1-1.34-1.34Zm8.94 1.34-1.88-1.88a3.91 3.91 0 0 0 1.34-1.34l1.88 1.88a6.55 6.55 0 0 1-1.34 1.34Z"/>
</svg>
