<svg xmlns="http://www.w3.org/2000/svg" fill="none" viewBox="0 0 16 16">
    <path fill="currentColor" fill-rule="evenodd" d="M13.65 2.727a3 3 0 0 1 .975.653 3 3 0 0 1 .01 4.24l-4 4a3 3 0 0 1-2.135.88 3 3 0 0 1-2.125-.865 3 3 0 0 1 0-4.25l.71-.71.705.71-.705.71a2.003 2.003 0 1 0 2.835 2.83l4-4a2.006 2.006 0 0 0-.65-3.27 2.005 2.005 0 0 0-2.185.435l-.71-.71a3 3 0 0 1 3.275-.653M1.66 11.76a2 2 0 0 0 .435.65 2 2 0 0 0 2.835 0l.71.71A3.04 3.04 0 0 1 3.5 14a3 3 0 0 1-2.13-.85 3 3 0 0 1 0-4.255l4-4A3.009 3.009 0 0 1 9.625 9.15l-1.06 1.06-.71-.71 1.06-1.075A2 2 0 0 0 9.5 7a1.97 1.97 0 0 0-1.22-1.86 2 2 0 0 0-2.185.435l-4 4a2 2 0 0 0-.436 2.185" clip-rule="evenodd"/>
</svg>
