<svg xmlns="http://www.w3.org/2000/svg" fill="none" viewBox="0 0 16 16">
    <path fill="currentColor" d="M9.75 6.25a3.748 3.748 0 0 1 0 5.31l-1.66 1.67a3.76 3.76 0 0 1-5.32 0 3.76 3.76 0 0 1 0-5.32l.92-.92c.15-.15.4-.16.56 0 .07.07.11.16.12.26.02.44.1.88.24 1.3.05.14.01.3-.09.41l-.32.32c-.72.67-.76 1.8-.09 2.52s1.8.76 2.52.09c.03-.02.05-.05.07-.07l1.66-1.66a1.775 1.775 0 0 0-.26-2.73.394.394 0 0 1-.17-.31.98.98 0 0 1 .29-.74l.52-.52c.14-.14.35-.15.51-.04.18.13.35.27.51.43h-.01Zm3.49-3.48a3.76 3.76 0 0 0-5.32 0L6.26 4.43a3.772 3.772 0 0 0 .52 5.75c.16.11.37.09.51-.04l.52-.52c.2-.19.3-.46.29-.74a.38.38 0 0 0-.17-.31 1.775 1.775 0 0 1-.26-2.73l1.66-1.66c.68-.71 1.81-.74 2.52-.06.71.68.74 1.81.06 2.52-.02.03-.05.05-.07.07l-.32.32c-.11.11-.14.27-.09.41.14.42.22.86.24 1.3 0 .22.19.39.41.38.1 0 .19-.05.26-.12l.92-.92a3.76 3.76 0 0 0 0-5.32l-.02.01Z"/>
</svg>
