<svg aria-hidden="true" viewBox="0 0 16 16">
    <path fill="currentColor" d="M1.9 2.68c-.67 0-1.22.56-1.21 1.23 0 .67.56 1.22 1.23 1.21.67 0 1.22-.56 1.21-1.23 0-.32-.13-.63-.36-.86-.23-.23-.54-.36-.87-.35Zm0 4.09a1.23 1.23 0 1 0 0 2.46 1.23 1.23 0 1 0 0-2.46Zm0 4.09a1.23 1.23 0 1 0 0 2.46 1.23 1.23 0 1 0 0-2.46Zm13 .41H5.18c-.23 0-.41.18-.41.41v.82c0 .23.18.41.41.41h9.75c.23 0 .41-.18.41-.41v-.82c0-.23-.18-.41-.41-.41h-.03Zm0-8.18H5.18c-.23 0-.41.18-.41.41v.81c0 .23.18.41.41.41h9.75c.23 0 .41-.18.41-.41V3.5c0-.23-.18-.41-.41-.41h-.03Zm0 4.09H5.18c-.23 0-.41.18-.41.41v.82c0 .23.18.41.41.41h9.75c.23 0 .41-.18.41-.41v-.82c0-.23-.18-.41-.41-.41h-.03Z"/>
</svg>
