<svg aria-hidden="true" viewBox="0 0 16 16">
    <path fill="currentColor" fill-rule="evenodd" d="M10 6.002a2 2 0 1 1-4 0 2 2 0 0 1 4 0Zm-1 0a1 1 0 1 1-2 0 1 1 0 0 1 2 0Z"/>
    <path fill="currentColor" fill-rule="evenodd" d="M13 6.002c0 2.506-2.06 5.814-4.309 8.273-.229.25-.46.492-.691.723a22.477 22.477 0 0 1-.691-.723C5.059 11.816 3 8.508 3 6.002a5 5 0 0 1 10 0Zm-1 0c0 1.116-.52 2.554-1.424 4.088A21.484 21.484 0 0 1 8 13.55a21.483 21.483 0 0 1-2.576-3.459C4.52 8.556 4 7.118 4 6.002a4 4 0 1 1 8 0Z"/>
</svg>
