<svg aria-hidden="true" viewBox="0 0 16 16">
    <path fill="currentColor" d="m14.25 7.77-4-4a.31.31 0 0 0-.43 0A.34.34 0 0 0 9.7 4v2.07a.32.32 0 0 1-.3.32H5.23a.3.3 0 0 0-.3.3v2.56a.3.3 0 0 0 .3.3H9.4a.31.31 0 0 1 .3.31V12a.3.3 0 0 0 .3.3.33.33 0 0 0 .23-.09l4-4a.29.29 0 0 0 .02-.44Z"/>
    <path fill="currentColor" d="M6.71 12.72H3.27V3.26h3.42A.31.31 0 0 0 7 3V2a.3.3 0 0 0-.31-.3H2a.29.29 0 0 0-.33.3v12a.27.27 0 0 0 .1.24.32.32 0 0 0 .14.08h4.8A.3.3 0 0 0 7 14v-1a.3.3 0 0 0-.29-.28Z"/>
</svg>
