<svg xmlns="http://www.w3.org/2000/svg" fill="none" viewBox="0 0 16 16">
    <path fill="currentColor" d="M12.24 1.67c-.49 0-1 .21-1.44.7L6.27 7.3l2.42 2.42 4.94-4.52c1.6-1.42.19-3.53-1.39-3.53M8.72 8.34 7.66 7.28l3.9-4.24c.22-.24.44-.36.69-.36.41 0 .87.34 1.03.78.14.37.04.7-.32 1.02L8.73 8.36zM5.7 7.86l-2.08.82c-.24.08-.42.26-.5.5l-1.46 4.37.12.12.56.56.12.12 4.37-1.46c.24-.08.42-.26.5-.5l.81-2.08L5.7 7.87zm-2.57 4.46L4 9.72c.03-.08.09-.15.17-.18l1.29-.51 1.52 1.52-.5 1.29c-.03.08-.1.15-.19.18l-2.6.87.95-.95c.06.02.12.04.19.04.44 0 .79-.35.79-.79s-.35-.79-.79-.79-.79.35-.79.79c0 .07.02.13.04.19l-.95.95z"/>
</svg>
