<svg aria-hidden="true" viewBox="0 0 16 16">
    <path fill="currentColor" d="M12 2H6v10h6V8.946l.023-.058.085-.078.892-.813V12a1 1 0 0 1-1 1H6a1 1 0 0 1-1-1V2a1 1 0 0 1 1-1h6a1 1 0 0 1 1 1v.112a2.298 2.298 0 0 0-.974.66L12 2.8V2Zm1 4.643-1 .913-.566.515-1.528-1.524L12 4.275l.767-.832c.075-.085.153-.156.233-.215 1.167-.857 2.796.9 1.555 1.997L13 6.643ZM4 3H3v11.5a.5.5 0 0 0 .5.5H11v-1H4V3Zm4.238 4.41a.466.466 0 0 0-.316.315L7 10.477l.07.076 1.452-1.449v-.12a.51.51 0 0 1 .5-.51.51.51 0 0 1 .511.498.51.51 0 0 1-.499.51h-.133L7.45 10.931l.075.069 2.76-.92a.466.466 0 0 0 .317-.314l.518-1.31-1.573-1.562-1.308.516Z"/>
</svg>
