<svg aria-hidden="true" viewBox="0 0 16 16">
    <path fill="currentColor" d="M12.62 14h-.079C3.472 13.479 2.184 5.826 2.004 3.49A1.384 1.384 0 0 1 3.278 2h2.543a.923.923 0 0 1 .859.582l.701 1.726a.923.923 0 0 1-.203.997l-.983.992a4.325 4.325 0 0 0 3.499 3.508l1.001-.993a.923.923 0 0 1 1.002-.189l1.74.697a.923.923 0 0 1 .567.858v2.437A1.385 1.385 0 0 1 12.62 14ZM3.389 2.923a.462.462 0 0 0-.462.462v.037c.213 2.732 1.574 9.193 9.665 9.655a.46.46 0 0 0 .49-.434v-2.465l-1.74-.696-1.325 1.315-.222-.028c-4.015-.503-4.56-4.518-4.56-4.56l-.028-.221 1.311-1.325-.692-1.74H3.389Z"/>
</svg>
