<svg xmlns="http://www.w3.org/2000/svg" fill="none" viewBox="0 0 16 16">
    <path fill="currentColor" d="M5 6a1 1 0 1 1 0-2 1 1 0 0 1 0 2"/>
    <path fill="currentColor" fill-rule="evenodd" d="M14 13a1 1 0 0 1-1 1H2h.994A1 1 0 0 1 2 13V3a1 1 0 0 1 1-1h10a1 1 0 0 1 1 1zM3 3h10v5.315l-1.069-1.43a6 6 0 0 0-.29-.368 1.5 1.5 0 0 0-.555-.41 1.5 1.5 0 0 0-1.14-.001c-.27.11-.448.288-.556.408-.098.11-.2.246-.291.366L6.822 9.911l-.974-1.14a5 5 0 0 0-.283-.314 1.5 1.5 0 0 0-.53-.353 1.5 1.5 0 0 0-1.064 0c-.248.094-.42.245-.529.352a5 5 0 0 0-.283.314L3 8.956zm0 10v-2.506l.903-1.055c.202-.237.303-.355.423-.4a.5.5 0 0 1 .355 0c.12.045.22.164.422.4l1.769 2.07 3.01-4.006c.21-.28.315-.42.443-.472a.5.5 0 0 1 .38 0c.127.053.232.193.441.474L13 9.985V13z" clip-rule="evenodd"/>
</svg>
