<svg xmlns="http://www.w3.org/2000/svg" fill="none" viewBox="0 0 16 16">
    <g clip-path="url(#a)">
        <path fill="currentColor" d="M8 .67C3.95.67.67 3.95.67 8c0 4.05 3.28 7.33 7.33 7.33 4.05 0 7.33-3.28 7.33-7.33C15.33 3.95 12.05.67 8 .67Zm4.26 8.16c0 .19-.17.35-.36.35H9.18v2.72c0 .19-.16.35-.35.36H7.17c-.19 0-.35-.17-.35-.36V9.18H4.1a.37.37 0 0 1-.36-.35V7.17c0-.19.17-.35.36-.35h2.72V4.1c0-.19.16-.35.35-.36h1.66c.19 0 .35.17.35.36v2.72h2.72c.19 0 .35.16.36.35v1.66Z"/>
    </g>
    <defs>
        <clipPath id="a">
            <path fill="currentColor" d="M0 0h16v16H0z"/>
        </clipPath>
    </defs>
</svg>
