<svg xmlns="http://www.w3.org/2000/svg" fill="none" viewBox="0 0 16 16">
    <path fill="currentColor" d="M15.13 10.45a.51.51 0 0 1 0 .81l-2.29 1.91c-.29.24-.71.24-1 0-.12-.1-.2-.24-.2-.4v-.95H10c-.09 0-.18-.03-.25-.09l-2-1.8 1.49-1.37 1.51 1.35h.92V9c.04-.35.34-.6.69-.57.18 0 .35.06.48.17l2.29 1.9zM1 6.09h2.42l1.51 1.35 1.53-1.36-2-1.8a.4.4 0 0 0-.26-.09H1a.33.33 0 0 0-.34.29v1.33c.02.17.17.3.34.28m10.66 0v1c.04.35.34.6.69.57.18 0 .35-.06.48-.17l2.29-1.9a.51.51 0 0 0 0-.81l-2.28-1.95a.81.81 0 0 0-1 0c-.12.1-.2.25-.2.41v1H10c-.09 0-.18.03-.25.09L3.42 9.91H1a.313.313 0 0 0-.34.28v1.33c.02.17.17.3.34.29h3.18c.09 0 .19-.03.26-.09l6.31-5.62h.91z"/>
</svg>
