<svg xmlns="http://www.w3.org/2000/svg" fill="none" viewBox="0 0 16 16">
    <path fill="currentColor" fill-rule="evenodd" d="M12.95 4H15v1h-2.05c-.25 1.15-1.25 2-2.45 2-1.2 0-2.2-.85-2.45-2H1V4h7.05C8.3 2.85 9.3 2 10.5 2c1.2 0 2.2.85 2.45 2ZM9 4.5c0 .85.65 1.5 1.5 1.5S12 5.35 12 4.5 11.35 3 10.5 3 9 3.65 9 4.5ZM3.05 12H1v-1h2.05C3.3 9.85 4.3 9 5.5 9c1.2 0 2.2.85 2.45 2H15v1H7.95c-.25 1.15-1.25 2-2.45 2-1.2 0-2.2-.85-2.45-2ZM7 11.5c0-.85-.65-1.5-1.5-1.5S4 10.65 4 11.5 4.65 13 5.5 13 7 12.35 7 11.5Z" clip-rule="evenodd"/>
</svg>
