<svg xmlns="http://www.w3.org/2000/svg" fill="none" viewBox="0 0 16 16">
    <path fill="currentColor" fill-rule="evenodd" d="M5.5 7a1.5 1.5 0 1 0 0-3 1.5 1.5 0 0 0 0 3m0-1a.5.5 0 1 0 0-1 .5.5 0 0 0 0 1" clip-rule="evenodd"/>
    <path fill="currentColor" fill-rule="evenodd" d="M2 7.43c0 .275.11.538.303.732l5.535 5.535c.404.404 1.06.404 1.464 0l4.395-4.395a1.036 1.036 0 0 0 0-1.464L8.162 2.303A1.04 1.04 0 0 0 7.43 2H3.036C2.464 2 2 2.464 2 3.036zm1 0q0 .016.01.025l5.535 5.534a.036.036 0 0 0 .05 0l4.394-4.394a.036.036 0 0 0 0-.05L7.456 3.01A.04.04 0 0 0 7.43 3H3.036A.036.036 0 0 0 3 3.036z" clip-rule="evenodd"/>
</svg>
