<svg xmlns="http://www.w3.org/2000/svg" fill="none" viewBox="0 0 16 16">
    <path fill="currentColor" d="m8.5 1.295 5.355 5.35a.5.5 0 0 1 0 .71l-1 1-.71-.71.65-.645-5-5H4v1H3V2a1 1 0 0 1 1-1h3.795a1 1 0 0 1 .705.295"/>
    <path fill="currentColor" fill-rule="evenodd" d="M5.5 9a1.5 1.5 0 1 0 0-3 1.5 1.5 0 0 0 0 3m0-1a.5.5 0 1 0 0-1 .5.5 0 0 0 0 1" clip-rule="evenodd"/>
    <path fill="currentColor" fill-rule="evenodd" d="M2.278 9.649A.95.95 0 0 1 2 8.978V4.949A.95.95 0 0 1 2.95 4h4.028c.251 0 .493.1.67.278l5.074 5.073a.95.95 0 0 1 0 1.343l-4.028 4.028a.95.95 0 0 1-1.343 0zm5.744 4.33L3 8.957V5h3.957l5.022 5.022z" clip-rule="evenodd"/>
</svg>
