<svg xmlns="http://www.w3.org/2000/svg" fill="none" viewBox="0 0 16 16">
    <path fill="currentColor" fill-rule="evenodd" d="m7.22 3 4.86 4.37a.94.94 0 0 1 0 1.38L7.4 13a1.17 1.17 0 0 1-1.55 0L1 8.63a1 1 0 0 1-.33-.71V3.71a1 1 0 0 1 1.1-1h4.67a1.12 1.12 0 0 1 .78.29M2.602 5.94a1.13 1.13 0 1 0 1.256-1.88 1.13 1.13 0 0 0-1.256 1.88M10.15 3 15 7.37a.94.94 0 0 1 0 1.42L10.32 13a1.17 1.17 0 0 1-1.55 0l3.99-3.55a1.758 1.758 0 0 0 0-2.65l-4.5-4.09h1.12c.284-.005.56.1.77.29" clip-rule="evenodd"/>
</svg>
