<svg xmlns="http://www.w3.org/2000/svg" fill="none" viewBox="0 0 16 16">
    <path fill="currentColor" fill-rule="evenodd" d="M11.204 11.934 10.424 10h1.772c1.294 0 2.166-1.468 1.656-2.788l-.944-3.394C12.484 2.715 11.507 2 10.426 2H5v.003H2v8h3.023l3.744 3.582a1.506 1.506 0 0 0 2.437-1.651m.755-7.797C11.657 3.4 11.033 3 10.425 3H6.002l.017 6.572 3.439 3.29a.506.506 0 0 0 .819-.554L8.943 9h3.253c.24 0 .48-.131.645-.41.167-.28.218-.657.079-1.018l-.018-.045zM3 9.003h2v-6H3z" clip-rule="evenodd"/>
</svg>
