<svg aria-hidden="true" viewBox="0 0 16 16">
    <path fill="currentColor" d="M3.27 14.17c0 .66.54 1.19 1.2 1.2h7l-.05-.02h.08c.64-.02 1.14-.56 1.12-1.2V4.32H3.27v9.85Zm5.97-7.12c0-.33.27-.6.6-.6s.6.27.6.6v5.3c0 .33-.27.6-.6.6s-.6-.27-.6-.6v-5.3Zm-3.5 0c0-.33.27-.59.6-.6.32.02.58.28.6.6v5.3c-.02.32-.28.58-.6.6a.645.645 0 0 1-.6-.6v-5.3Zm7.28-5.39h-2.6V.95a.28.28 0 0 0-.28-.28H5.87a.28.28 0 0 0-.28.28v.72H2.91a.28.28 0 0 0-.28.28V3.1c0 .15.12.28.28.28h10.11c.15 0 .28-.12.28-.28V1.94a.28.28 0 0 0-.28-.28Z"/>
    <path fill="currentColor" d="M13 2h-2.9l-.2-.4c-.1-.2-.3-.4-.5-.4H6.6c-.2 0-.4.1-.5.3l-.3.5H2.9c-.2 0-.4.2-.4.4v.8c0 .2.2.4.4.4H13c.2 0 .4-.2.4-.4v-.8c0-.2-.2-.4-.4-.4z"/>
</svg>
