<svg aria-hidden="true" viewBox="0 0 16 16">
    <path fill="currentColor" d="M8 15.33A7.33 7.33 0 1 1 15.33 8 7.34 7.34 0 0 1 8 15.33ZM8 1.71A6.29 6.29 0 1 0 14.29 8 6.29 6.29 0 0 0 8 1.71ZM13.74 8A5.74 5.74 0 1 1 8 2.25 5.75 5.75 0 0 1 13.74 8ZM8 3.77a1.07 1.07 0 1 0 1.07 1.07A1.07 1.07 0 0 0 8 3.77ZM4.67 5.63c-.6-.14-.87.86-.32 1s1.79.43 2.57.55a11.25 11.25 0 0 1-.72 4.47.54.54 0 0 0 .85.65 6.94 6.94 0 0 0 .78-2.42c0-.07.31-.11.33 0a8.73 8.73 0 0 0 .63 2.23c.3.65 1.31.26 1-.38a11.54 11.54 0 0 1-.76-4.58 21.34 21.34 0 0 0 2.41-.45.55.55 0 1 0-.2-1.08 11.47 11.47 0 0 1-6.57.01Z"/>
</svg>
