<svg aria-hidden="true" viewBox="0 0 16 16">
    <path fill="currentColor" d="M9.74 6.25c-.16-.17-.32-.3-.5-.43-.14-.09-.31-.1-.44 0l1.81 1.81c-.17-.5-.47-.98-.87-1.38Zm-1.1 3.51c-.07.15-.17.28-.29.4l-1.66 1.66s-.04.05-.07.07c-.72.67-1.85.63-2.52-.09-.67-.72-.63-1.85.09-2.52l.32-.32c.1-.11.14-.27.09-.41-.14-.42-.22-.86-.24-1.3a.42.42 0 0 0-.12-.26.395.395 0 0 0-.56 0l-.92.92a3.76 3.76 0 0 0 0 5.32 3.76 3.76 0 0 0 5.32 0l1.66-1.67c.12-.12.23-.25.32-.38L8.64 9.76Zm4.61-7h-.02a3.778 3.778 0 0 0-5.32 0L6.83 3.84l1.41 1.41 1.08-1.08c.68-.71 1.81-.74 2.52-.06.71.68.74 1.81.06 2.52-.02.03-.05.05-.07.07l-.32.32c-.11.11-.14.27-.09.41.13.4.21.81.23 1.23l.44.44c.09 0 .18-.05.24-.11l.92-.92a3.76 3.76 0 0 0 0-5.32Zm.97 10.52-1.03 1.03-5.14-5.14c-.04.17-.12.33-.25.45l-.52.52c-.14.13-.35.15-.51.04-.18-.13-.35-.27-.5-.42-.74-.74-1.11-1.7-1.11-2.67 0-.24.02-.49.08-.73l-3.6-3.6 1.03-1.03 11.55 11.55Z"/>
</svg>
