<svg xmlns="http://www.w3.org/2000/svg" fill="none" viewBox="0 0 16 16">
    <path fill="currentColor" d="M6.5 1h-1v2h1zM1.792 2.501l.707-.707L4.207 3.5l-.707.707zm9.998 9.995.708-.707 1.707 1.708-.707.707zM1 5.5h2v1H1zm14 4h-2v1h2zM9.5 13h1v2h-1zm-1.21-2.465-1.855 1.86a2.002 2.002 0 0 1-2.83-2.83l1.86-1.86L4.755 7 2.9 8.86a3 3 0 0 0-.03 4.27A3 3 0 0 0 5 14a3.04 3.04 0 0 0 2.16-.9L9 11.245zm1.275-6.93-1.86 1.86L7 4.755 8.84 2.9A3.04 3.04 0 0 1 11 2a3 3 0 0 1 2.13.87 3 3 0 0 1-.03 4.27L11.245 9l-.71-.705 1.86-1.86a2.002 2.002 0 0 0-2.83-2.83"/>
</svg>
