<svg xmlns="http://www.w3.org/2000/svg" fill="none" viewBox="0 0 16 16">
    <path fill="currentColor" fill-rule="evenodd" d="M10 5a2 2 0 1 1-4 0 2 2 0 0 1 4 0M9 5a1 1 0 1 1-2 0 1 1 0 0 1 2 0" clip-rule="evenodd"/>
    <path fill="currentColor" d="M2 10.5V12h2c0 .364.097.706.268 1H2a1 1 0 0 1-1-1v-1.5a2.5 2.5 0 0 1 3.923-2.056q-.321.386-.54.844A1.5 1.5 0 0 0 2 10.5M14 13h-2.268A2 2 0 0 0 12 12h2v-1.5a1.5 1.5 0 0 0-2.384-1.212 4 4 0 0 0-.539-.844A2.5 2.5 0 0 1 15 10.5V12a1 1 0 0 1-1 1"/>
    <path fill="currentColor" fill-rule="evenodd" d="M8 8a3 3 0 0 0-3 3v1a1 1 0 0 0 1 1h4a1 1 0 0 0 1-1v-1a3 3 0 0 0-3-3m2 4v-1a2 2 0 1 0-4 0v1zm2.5-5a1.5 1.5 0 1 0 0-3 1.5 1.5 0 0 0 0 3m0-1a.5.5 0 1 0 0-1 .5.5 0 0 0 0 1M5 5.5a1.5 1.5 0 1 1-3 0 1.5 1.5 0 0 1 3 0m-1 0a.5.5 0 1 1-1 0 .5.5 0 0 1 1 0" clip-rule="evenodd"/>
</svg>
