<svg xmlns="http://www.w3.org/2000/svg" fill="none" viewBox="0 0 16 16">
    <path fill="currentColor" d="M7.5 7a2.5 2.5 0 0 1 0-5 2.5 2.5 0 0 1 0 5Zm0-4C6.67 3 6 3.67 6 4.5S6.67 6 7.5 6 9 5.33 9 4.5 8.33 3 7.5 3Zm3.62 8.46-.22.54-.3.77s-.04.09-.06.13c-.03.04-.06.07-.1.1-.05.04-.1.07-.16.08L7.52 14l-.07-.07 1.45-1.45h.13c.15 0 .27-.06.36-.16a.56.56 0 0 0 .1-.15c.01-.02.02-.04.03-.07v-.02s.01-.05.01-.08v-.03c0-.28-.23-.5-.51-.5-.28.01-.5.24-.5.51v.14l-.76.75-.14.13-.55.55-.07-.07.16-.48.1-.29.24-.71.42-1.27c.05-.16.17-.28.32-.32l1.31-.52 1.57 1.57Zm3.44-3.24-2.05 1.87-.7.64-.06.05-.32.29-1.52-1.52.28-.31.06-.06.64-.7 1.88-2.04c1.16-1.31 3.11.61 1.79 1.78Z"/>
    <path fill="currentColor" fill-rule="evenodd" d="M9 8H6c-2.21 0-4 1.79-4 4 0 .55.45 1 1 1h3.11l.33-1H3c0-1.66 1.34-3 3-3h3.05l.83-.9C9.6 8.03 9.3 8 9 8Z" clip-rule="evenodd"/>
</svg>
