<svg aria-hidden="true" viewBox="0 0 16 16">
    <path fill="currentColor" d="M14 3.33h-1.35V2a.36.36 0 0 0-.35-.33h-.65a.36.36 0 0 0-.35.33v1.33H10a.34.34 0 0 0-.33.34v.66a.34.34 0 0 0 .33.34h1.3V6a.37.37 0 0 0 .35.33h.65a.37.37 0 0 0 .35-.33V4.67H14a.34.34 0 0 0 .32-.34v-.66a.34.34 0 0 0-.32-.34ZM9.28 9.77h-.2a5.19 5.19 0 0 1-3.91 0H5a3 3 0 0 0-3.3 2.69v.72A1.27 1.27 0 0 0 3 14.33h8.25a1.26 1.26 0 0 0 1.36-1.14v-.68a3 3 0 0 0-3.24-2.75h-.09ZM7.13 3.7A2.64 2.64 0 1 1 4.5 6.34 2.64 2.64 0 0 1 7.13 3.7Z"/>
</svg>
