<svg xmlns="http://www.w3.org/2000/svg" fill="none" viewBox="0 0 16 16">
    <path fill="currentColor" fill-rule="evenodd" d="M7.5 5.5a2.5 2.5 0 1 1 5 0 2.5 2.5 0 0 1-5 0M10 7a1.5 1.5 0 1 1 0-3 1.5 1.5 0 0 1 0 3" clip-rule="evenodd"/>
    <path fill="currentColor" d="M4.2 9h1.28a4.2 4.2 0 0 0-.858 1H4.2a2.2 2.2 0 0 0-2.191 2h1.996a4 4 0 0 0-.005.2c0 .287.067.559.187.8H1.8a.8.8 0 0 1-.8-.8A3.2 3.2 0 0 1 4.2 9"/>
    <path fill="currentColor" fill-rule="evenodd" d="M5 12.2A3.2 3.2 0 0 1 8.2 9h3.6a3.2 3.2 0 0 1 3.2 3.2.8.8 0 0 1-.8.8H5.8a.8.8 0 0 1-.8-.8m6.8-2.2a2.2 2.2 0 0 1 2.191 2H6.009A2.2 2.2 0 0 1 8.2 10z" clip-rule="evenodd"/>
    <path fill="currentColor" d="M6 3c.455 0 .882.122 1.25.335a3.5 3.5 0 0 0-.5.865 1.5 1.5 0 1 0 0 2.6c.125.313.294.604.5.865A2.5 2.5 0 1 1 6 3"/>
</svg>
