<svg xmlns="http://www.w3.org/2000/svg" fill="none" viewBox="0 0 16 16">
    <path fill="currentColor" d="M8 8.92c-1.5 0-2.72-1.22-2.72-2.72S6.5 3.48 8 3.48s2.72 1.22 2.72 2.72S9.5 8.92 8 8.92m0-4.64a1.92 1.92 0 1 0 .001 3.841A1.92 1.92 0 0 0 8 4.281m4.97-1.84L8.56.78C8.2.65 7.81.65 7.45.78L3.03 2.43C2.41 2.66 2 3.26 2 3.92V8c0 3.82 4.23 6.47 5.52 7.2.15.08.31.13.48.13s.33-.04.48-.13C9.78 14.48 14 11.82 14 8V3.92c0-.66-.41-1.25-1.03-1.48M8.08 14.5c-.05.03-.12.03-.17 0-.49-.28-2.12-1.24-3.4-2.68.62-.82 1.94-1.39 3.47-1.39s2.84.61 3.49 1.4c-1.29 1.43-2.9 2.39-3.39 2.67M13.19 8c0 1.2-.51 2.28-1.22 3.22-.83-.91-2.34-1.59-4-1.59s-3.16.64-3.98 1.58c-.7-.93-1.2-2.01-1.2-3.2V3.93c0-.33.21-.62.51-.74l4.43-1.66c.09-.03.18-.05.27-.05s.19.02.27.05l4.42 1.66c.3.11.51.41.51.73V8z"/>
</svg>
