<svg aria-hidden="true" viewBox="0 0 16 16">
    <path fill="currentColor" d="M8 .62C3.95.61.66 3.9.65 7.95c0 4.05 3.28 7.34 7.33 7.35 4.04 0 7.33-3.26 7.35-7.3.02-4.05-3.25-7.36-7.3-7.38H8Zm0 .75c3.64 0 6.59 2.96 6.58 6.6V8c0 1.35-.41 2.66-1.19 3.76a2.713 2.713 0 0 0-2.66-2.37H9.54c-.98.46-2.1.46-3.08 0H5.28c-1.36 0-2.5 1.02-2.67 2.37A6.483 6.483 0 0 1 1.42 8a6.59 6.59 0 0 1 6.55-6.63H8ZM5 5.63c0-1.68 1.37-3.05 3.05-3.05 1.68 0 3.05 1.37 3.05 3.05 0 1.68-1.37 3.05-3.05 3.05H8c-1.66-.03-3-1.39-3-3.05Z"/>
</svg>
