<svg xmlns="http://www.w3.org/2000/svg" fill="none" viewBox="0 0 16 16">
    <path fill="currentColor" d="M5.23 11.14c.86-.66 1.01-1.9.35-2.75s-1.9-1.01-2.75-.35a1.96 1.96 0 0 0 0 3.1c-.72.42-1.16 1.2-1.16 2.03v.8c0 .2.17.37.37.37h3.98c.2 0 .37-.17.37-.37v-.8c0-.83-.44-1.61-1.16-2.03M2.81 9.59c0-.67.55-1.22 1.22-1.22s1.22.55 1.22 1.22-.55 1.22-1.22 1.22-1.22-.55-1.22-1.22m2.83 4H2.41v-.42c0-.89.72-1.62 1.62-1.62s1.62.72 1.62 1.62v.42zm7.13-11.93H8c-.86 0-1.56.7-1.56 1.56v7.16c0 .21.17.37.37.37.08 0 .16-.03.22-.07l1.49-1.12h4.25c.86 0 1.56-.7 1.56-1.56V3.22c0-.86-.7-1.56-1.56-1.56m.82 6.33c0 .45-.37.82-.82.82H8.4a.4.4 0 0 0-.22.07l-1 .75V3.22c0-.45.37-.82.82-.82h4.77c.45 0 .82.37.82.82zm-2.8-.42c0 .23-.18.41-.41.41s-.41-.18-.41-.41.18-.41.41-.41.41.18.41.41m-.41-4.34c-.83 0-1.5.67-1.5 1.5 0 .23.18.41.41.41s.41-.18.41-.41c0-.38.31-.68.69-.68s.68.31.68.69-.31.68-.68.68c-.23 0-.41.18-.41.41v.44c0 .23.18.41.41.41s.41-.18.41-.41v-.09c.8-.23 1.26-1.06 1.04-1.85-.18-.65-.77-1.09-1.44-1.09z"/>
</svg>
