<svg xmlns="http://www.w3.org/2000/svg" fill="none" viewBox="0 0 16 16">
    <path fill="currentColor" d="M8.01 1C4.146.99 1.01 4.128 1 7.99c0 3.863 3.128 7 6.99 7.01 3.853 0 6.99-3.109 7.01-6.962C15.019 4.176 11.9 1.02 8.038 1zm0 .715a6.28 6.28 0 0 1 6.275 6.295v.028a6.2 6.2 0 0 1-1.135 3.586 2.59 2.59 0 0 0-2.537-2.26H9.478a3.44 3.44 0 0 1-2.937 0H5.415a2.573 2.573 0 0 0-2.546 2.26 6.2 6.2 0 0 1-1.135-3.586 6.284 6.284 0 0 1 6.247-6.323zM5.147 5.778a2.914 2.914 0 0 1 2.91-2.909 2.914 2.914 0 0 1 2.908 2.909 2.914 2.914 0 0 1-2.909 2.909H8.01a2.917 2.917 0 0 1-2.86-2.91"/>
</svg>
