<svg xmlns="http://www.w3.org/2000/svg" fill="none" viewBox="0 0 16 16">
    <path fill="currentColor" d="M14 3.33h-1.35V2c-.02-.18-.17-.33-.35-.33h-.65c-.18 0-.33.15-.35.33v1.33H10c-.18 0-.33.16-.33.34v.66c0 .18.15.33.33.34h1.3V6c.02.18.17.32.35.33h.65c.18 0 .33-.15.35-.33V4.67H14a.34.34 0 0 0 .32-.34v-.66a.34.34 0 0 0-.32-.34M9.28 9.77h-.2c-1.25.51-2.66.51-3.91 0H5a3.006 3.006 0 0 0-3.3 2.67v.74c.06.67.63 1.17 1.3 1.15h8.25c.69.06 1.3-.45 1.36-1.14v-.68a3 3 0 0 0-3.23-2.75h-.1zM7.13 3.7c1.46 0 2.64 1.17 2.65 2.63 0 1.46-1.17 2.64-2.63 2.65-1.46 0-2.64-1.17-2.65-2.63A2.65 2.65 0 0 1 7.13 3.7"/>
</svg>
