<svg aria-hidden="true" viewBox="0 0 16 16">
    <path fill="currentColor" d="M13.15 4.12c-.81-.01-1.47.65-1.48 1.46 0 .82.65 1.47 1.46 1.48s1.47-.65 1.48-1.46-.65-1.47-1.46-1.48Zm-10.04.01a1.47 1.47 0 0 0-1.58 1.59c.06.71.62 1.28 1.34 1.34.81.07 1.52-.53 1.59-1.34.06-.81-.54-1.52-1.35-1.59Zm7.36.39c-.22-.84-.87-1.51-1.71-1.75-1.36-.41-2.8.36-3.22 1.72-.18.61-.13 1.27.14 1.85.41.9 1.33 1.48 2.32 1.45 1.41.01 2.56-1.14 2.57-2.55 0-.24-.03-.49-.1-.72Zm-.71 4h-.19c-.99.49-2.14.49-3.13 0h-.19c-1.46 0-2.64 1.18-2.64 2.64v2.69c1.23.93 2.74 1.47 4.39 1.47s3.17-.55 4.4-1.48v-2.68c0-1.46-1.18-2.64-2.64-2.64Zm5.52.25a7.282 7.282 0 0 1-1.65 3.91c-.08.1-.16.19-.25.28-.08.09-.17.18-.25.27v-.55h.03v-.72s.01-.07 0-.1v-.66c.01-1.25-.66-2.4-1.76-3 .27-.26.63-.41 1-.41h1.51c.63.01 1.17.41 1.37.98ZM2.86 11.16v1.52h.01v.55l-.28-.31c-.08-.08-.15-.16-.22-.24A7.238 7.238 0 0 1 .74 8.86c.16-.62.72-1.07 1.4-1.07h1.47c.37-.01.73.12 1.01.37-1.1.6-1.77 1.75-1.76 3Z"/>
</svg>
