<svg xmlns="http://www.w3.org/2000/svg" fill="none" viewBox="0 0 16 16">
    <path fill="currentColor" fill-rule="evenodd" d="M2.676 2.768A1 1 0 0 0 2 3.714v4.799a3 3 0 0 0 .154.949l.06.177A7 7 0 0 0 5.1 13.334l2.373 1.508a1 1 0 0 0 1.074-.001l2.361-1.507a7 7 0 0 0 2.875-3.687l.062-.185c.102-.306.154-.627.154-.949V3.714a1 1 0 0 0-.676-.946l-5-1.712a1 1 0 0 0-.648 0zM8 8a2 2 0 1 0 0-4 2 2 0 0 0 0 4m-4.22 2.627a6 6 0 0 0 1.857 1.863l2.373 1.508 2.361-1.507a6 6 0 0 0 1.85-1.862A4 4 0 0 0 9 8.999H7c-1.32 0-2.492.641-3.22 1.628" clip-rule="evenodd"/>
</svg>
