<svg xmlns="http://www.w3.org/2000/svg" fill="none" viewBox="0 0 16 16">
    <path fill="currentColor" fill-rule="evenodd" d="M10 5.998a2 2 0 1 1-4 0 2 2 0 0 1 4 0m-1 0a1 1 0 1 1-2 0 1 1 0 0 1 2 0" clip-rule="evenodd"/>
    <path fill="currentColor" fill-rule="evenodd" d="M2 3.712a1 1 0 0 1 .676-.946l5-1.712a1 1 0 0 1 .648 0l5 1.712a1 1 0 0 1 .676.946v4.799c0 .322-.052.643-.154.949l-.062.185a7 7 0 0 1-2.875 3.687l-2.36 1.507a1 1 0 0 1-1.075 0l-2.373-1.507a7 7 0 0 1-2.888-3.695l-.06-.177A3 3 0 0 1 2 8.51zm11 0v4.799q0 .324-.103.632l-.061.186a6 6 0 0 1-.614 1.298A4 4 0 0 0 9 8.997H7c-1.32 0-2.492.64-3.22 1.628a6 6 0 0 1-.618-1.304l-.06-.178A2 2 0 0 1 3 8.511V3.712L8 2zM9 9.998a3 3 0 0 1 2.582 1.47c-.355.39-.76.734-1.21 1.021L8.01 13.996l-2.373-1.508a6 6 0 0 1-1.217-1.022A3 3 0 0 1 7 9.998z" clip-rule="evenodd"/>
</svg>
