<svg aria-hidden="true" viewBox="0 0 16 16">
    <path fill="currentColor" fill-rule="evenodd" d="M10 3a2.5 2.5 0 1 0 0 5 2.5 2.5 0 0 0 0-5ZM8.5 5.5a1.5 1.5 0 1 0 3 0 1.5 1.5 0 0 0-3 0Z" clip-rule="evenodd"/>
    <path fill="currentColor" d="M5.48 9H4.2A3.2 3.2 0 0 0 1 12.2a.8.8 0 0 0 .8.8h2.387A1.793 1.793 0 0 1 4 12.2c0-.067.002-.134.005-.2H2.009A2.2 2.2 0 0 1 4.2 10h.422c.232-.377.522-.714.858-1Z"/>
    <path fill="currentColor" fill-rule="evenodd" d="M5 12.2A3.2 3.2 0 0 1 8.2 9h3.6a3.2 3.2 0 0 1 3.2 3.2.8.8 0 0 1-.8.8H5.8a.8.8 0 0 1-.8-.8Zm6.8-2.2a2.2 2.2 0 0 1 2.191 2H6.009A2.2 2.2 0 0 1 8.2 10h3.6Z" clip-rule="evenodd"/>
    <path fill="currentColor" d="M7.25 3.335a2.5 2.5 0 1 0 0 4.33 3.496 3.496 0 0 1-.5-.865 1.5 1.5 0 1 1 0-2.6c.125-.313.294-.604.5-.865Z"/>
</svg>
