<svg xmlns="http://www.w3.org/2000/svg" fill="none" viewBox="0 0 16 16">
    <path fill="currentColor" d="M12.95 4.066a1.42 1.42 0 0 0-1.426 1.406c0 .789.626 1.415 1.406 1.425s1.415-.626 1.425-1.406a1.42 1.42 0 0 0-1.406-1.425m-9.668.01a1.415 1.415 0 0 0-1.521 1.53 1.415 1.415 0 0 0 2.821 0 1.43 1.43 0 0 0-1.3-1.53m7.087.375a2.38 2.38 0 0 0-1.647-1.685 2.496 2.496 0 0 0-3.1 1.656 2.53 2.53 0 0 0 .135 1.781A2.39 2.39 0 0 0 7.99 7.6a2.47 2.47 0 0 0 2.379-3.148m-.684 3.851h-.183a3.39 3.39 0 0 1-3.014 0h-.183a2.54 2.54 0 0 0-2.542 2.542v2.59A6.96 6.96 0 0 0 7.99 14.85c1.59 0 3.053-.53 4.237-1.425v-2.58a2.54 2.54 0 0 0-2.542-2.543M15 8.543a7 7 0 0 1-1.589 3.765 3 3 0 0 1-.24.27c-.077.086-.164.173-.241.26v-.53h.029v-.693s.01-.068 0-.097v-.635a3.25 3.25 0 0 0-1.695-2.889c.26-.25.607-.395.963-.395h1.454c.607.01 1.126.395 1.319.944M3.041 10.844v1.464h.01v.53l-.27-.3c-.077-.076-.144-.153-.212-.23A6.97 6.97 0 0 1 1 8.63 1.38 1.38 0 0 1 2.348 7.6h1.415a1.4 1.4 0 0 1 .973.356 3.25 3.25 0 0 0-1.695 2.888"/>
</svg>
